<svg width="474" height="251" viewBox="0 0 474 251" fill="none" xmlns="http://www.w3.org/2000/svg">
<g filter="url(#filter0_d_40_18371)">
<g clip-path="url(#clip0_40_18371)">
<rect x="7" y="5.33398" width="460" height="236.571" rx="8.7619" fill="white"/>
<path d="M41.3931 45.1141C45.1794 45.1141 47.8212 42.9429 48.1849 39.4989H45.0403C44.6981 41.3278 43.3183 42.4509 41.4038 42.4509C38.9331 42.4509 37.3822 40.4187 37.3822 37.1244C37.3822 33.873 38.9545 31.8301 41.3931 31.8301C43.2755 31.8301 44.7301 33.0708 45.0296 34.9639H48.1742C47.9282 31.5092 45.1045 29.1562 41.3931 29.1562C36.9223 29.1562 34.0879 32.1616 34.0879 37.1351C34.0879 42.1193 36.9009 45.1141 41.3931 45.1141ZM55.1798 45.1034C58.6452 45.1034 60.8592 42.8894 60.8592 39.1138C60.8592 35.3917 58.6131 33.1456 55.1798 33.1456C51.7465 33.1456 49.5004 35.4024 49.5004 39.1138C49.5004 42.8787 51.7144 45.1034 55.1798 45.1034ZM55.1798 42.7183C53.6397 42.7183 52.6663 41.4241 52.6663 39.1245C52.6663 36.8464 53.661 35.5308 55.1798 35.5308C56.6986 35.5308 57.6826 36.8464 57.6826 39.1245C57.6826 41.4241 56.7093 42.7183 55.1798 42.7183ZM62.4743 44.8574H65.5974V38.2796C65.5974 36.7929 66.4852 35.7661 67.8863 35.7661C69.2874 35.7661 69.9934 36.6217 69.9934 38.1191V44.8574H73.1165V37.4667C73.1165 34.7821 71.6833 33.1777 69.1377 33.1777C67.3729 33.1777 66.1643 34.012 65.5546 35.4345H65.4905V33.3916H62.4743V44.8574ZM75.9295 44.8574H79.0526V35.7447H81.2559V33.4451H78.9777V32.6857C78.9777 31.8729 79.427 31.4236 80.4537 31.4236C80.7639 31.4236 81.0741 31.445 81.2987 31.4878V29.4235C80.935 29.3487 80.2826 29.2845 79.705 29.2845C76.9883 29.2845 75.9295 30.3327 75.9295 32.5788V33.4451H74.3679V35.7447H75.9295V44.8574ZM84.5074 31.8408C85.4165 31.8408 86.1331 31.1135 86.1331 30.2364C86.1331 29.3487 85.4165 28.6321 84.5074 28.6321C83.5983 28.6321 82.8817 29.3487 82.8817 30.2364C82.8817 31.1135 83.5983 31.8408 84.5074 31.8408ZM82.9565 44.8574H86.0797V33.3916H82.9565V44.8574ZM88.1653 44.8574H91.2885V38.4507C91.2885 36.8357 92.1869 35.8944 93.7271 35.8944C94.1763 35.8944 94.6041 35.9693 94.8608 36.0763V33.3275C94.6469 33.2633 94.3367 33.2098 93.9731 33.2098C92.6254 33.2098 91.6521 34.0013 91.2457 35.4559H91.1815V33.3916H88.1653V44.8574ZM96.1443 44.8574H99.2674V37.9373C99.2674 36.6538 100.07 35.7554 101.257 35.7554C102.412 35.7554 103.107 36.4827 103.107 37.7127V44.8574H106.113V37.8945C106.113 36.6217 106.893 35.7554 108.081 35.7554C109.289 35.7554 109.952 36.4827 109.952 37.809V44.8574H113.076V37.0282C113.076 34.7179 111.567 33.1777 109.321 33.1777C107.642 33.1777 106.273 34.0869 105.76 35.5308H105.696C105.311 34.0334 104.155 33.1777 102.498 33.1777C100.936 33.1777 99.706 34.0869 99.2247 35.4666H99.1605V33.3916H96.1443V44.8574ZM120.873 49.1036C123.793 49.1036 125.237 48.0447 126.21 45.1034L130.157 33.3916H126.862L124.434 42.3546H124.37L121.932 33.3916H118.509L122.498 44.8574C122.509 44.9109 122.392 45.3601 122.392 45.4136C122.178 46.3227 121.611 46.6864 120.477 46.6864C120.359 46.6864 119.792 46.6757 119.686 46.6543V49.0715C119.792 49.0929 120.755 49.1036 120.873 49.1036ZM136.253 45.1034C139.719 45.1034 141.933 42.8894 141.933 39.1138C141.933 35.3917 139.686 33.1456 136.253 33.1456C132.82 33.1456 130.574 35.4024 130.574 39.1138C130.574 42.8787 132.788 45.1034 136.253 45.1034ZM136.253 42.7183C134.713 42.7183 133.74 41.4241 133.74 39.1245C133.74 36.8464 134.734 35.5308 136.253 35.5308C137.772 35.5308 138.756 36.8464 138.756 39.1245C138.756 41.4241 137.783 42.7183 136.253 42.7183ZM154.136 33.3916H151.013V39.9588C151.013 41.4776 150.147 42.4723 148.756 42.4723C147.377 42.4723 146.617 41.6594 146.617 40.1299V33.3916H143.494V40.7824C143.494 43.4563 145.141 45.0713 147.623 45.0713C149.355 45.0713 150.489 44.2371 151.056 42.7932H151.12V44.8574H154.136V33.3916ZM156.168 44.8574H159.292V38.4507C159.292 36.8357 160.19 35.8944 161.73 35.8944C162.179 35.8944 162.607 35.9693 162.864 36.0763V33.3275C162.65 33.2633 162.34 33.2098 161.976 33.2098C160.629 33.2098 159.655 34.0013 159.249 35.4559H159.185V33.3916H156.168V44.8574ZM169.324 30.7498V33.3916H167.709V35.7447H169.324V41.7664C169.324 44.0018 170.372 44.9002 173.068 44.9002C173.699 44.9002 174.234 44.8467 174.554 44.7719V42.4723C174.362 42.5044 174.073 42.5258 173.795 42.5258C172.875 42.5258 172.447 42.1086 172.447 41.2316V35.7447H174.565V33.3916H172.447V30.7498H169.324ZM183.699 41.3492C183.41 42.2263 182.533 42.7932 181.389 42.7932C179.795 42.7932 178.758 41.6701 178.758 40.0337V39.8411H186.662V38.8892C186.662 35.4024 184.555 33.1456 181.218 33.1456C177.827 33.1456 175.688 35.5201 175.688 39.178C175.688 42.8466 177.806 45.1034 181.335 45.1034C184.17 45.1034 186.223 43.5953 186.566 41.3492H183.699ZM181.25 35.4559C182.64 35.4559 183.592 36.4613 183.656 37.9266H178.79C178.897 36.4934 179.881 35.4559 181.25 35.4559ZM191.678 45.0392C193.111 45.0392 194.534 44.3226 195.176 43.1033H195.24V44.8574H198.256V36.9747C198.256 34.6644 196.341 33.1456 193.4 33.1456C190.363 33.1456 188.469 34.6751 188.352 36.8998H191.208C191.357 36.0549 192.095 35.4773 193.261 35.4773C194.438 35.4773 195.186 36.0977 195.186 37.1672V37.9266L192.299 38.0977C189.443 38.2689 187.838 39.4775 187.838 41.5632C187.838 43.6274 189.496 45.0392 191.678 45.0392ZM192.705 42.7825C191.646 42.7825 190.94 42.2477 190.94 41.392C190.94 40.5791 191.603 40.0551 192.769 39.9695L195.186 39.8198V40.654C195.186 41.8947 194.063 42.7825 192.705 42.7825ZM200.277 44.8574H203.401V37.9373C203.401 36.6538 204.203 35.7554 205.39 35.7554C206.545 35.7554 207.24 36.4827 207.24 37.7127V44.8574H210.246V37.8945C210.246 36.6217 211.027 35.7554 212.214 35.7554C213.422 35.7554 214.086 36.4827 214.086 37.809V44.8574H217.209V37.0282C217.209 34.7179 215.701 33.1777 213.455 33.1777C211.775 33.1777 210.406 34.0869 209.893 35.5308H209.829C209.444 34.0334 208.289 33.1777 206.631 33.1777C205.069 33.1777 203.839 34.0869 203.358 35.4666H203.294V33.3916H200.277V44.8574ZM34.3019 72.8574H37.425V65.9373C37.425 64.6538 38.2272 63.7554 39.4144 63.7554C40.5695 63.7554 41.2647 64.4827 41.2647 65.7127V72.8574H44.2702V65.8945C44.2702 64.6217 45.051 63.7554 46.2382 63.7554C47.4469 63.7554 48.11 64.4827 48.11 65.809V72.8574H51.2331V65.0282C51.2331 62.7179 49.725 61.1777 47.4789 61.1777C45.7997 61.1777 44.4307 62.0869 43.9173 63.5308H43.8531C43.4681 62.0334 42.3129 61.1777 40.6551 61.1777C39.0935 61.1777 37.8635 62.0869 37.3822 63.4666H37.318V61.3916H34.3019V72.8574ZM60.8058 69.3492C60.517 70.2263 59.6399 70.7932 58.4955 70.7932C56.9018 70.7932 55.8644 69.6701 55.8644 68.0337V67.8411H63.7685V66.8892C63.7685 63.4024 61.6614 61.1456 58.3244 61.1456C54.9338 61.1456 52.7947 63.5201 52.7947 67.178C52.7947 70.8466 54.9124 73.1034 58.442 73.1034C61.2764 73.1034 63.3299 71.5953 63.6722 69.3492H60.8058ZM58.3565 63.4559C59.7469 63.4559 60.6988 64.4613 60.763 65.9266H55.8964C56.0034 64.4934 56.9874 63.4559 58.3565 63.4559ZM65.3835 72.8574H68.5067V65.9373C68.5067 64.6538 69.3088 63.7554 70.4961 63.7554C71.6512 63.7554 72.3464 64.4827 72.3464 65.7127V72.8574H75.3519V65.8945C75.3519 64.6217 76.1327 63.7554 77.3199 63.7554C78.5285 63.7554 79.1916 64.4827 79.1916 65.809V72.8574H82.3148V65.0282C82.3148 62.7179 80.8067 61.1777 78.5606 61.1777C76.8814 61.1777 75.5123 62.0869 74.9989 63.5308H74.9348C74.5497 62.0334 73.3946 61.1777 71.7368 61.1777C70.1752 61.1777 68.9452 62.0869 68.4639 63.4666H68.3997V61.3916H65.3835V72.8574ZM91.1066 73.0392C93.9945 73.0392 95.7593 70.8145 95.7593 67.1245C95.7593 63.4238 93.9838 61.2098 91.0959 61.2098C89.4595 61.2098 88.1867 62.0227 87.5557 63.381H87.4915V57.4235H84.3684V72.8574H87.4487V70.8894H87.5129C88.1439 72.2264 89.4274 73.0392 91.1066 73.0392ZM90.0264 63.7126C91.5772 63.7126 92.5613 65.0389 92.5613 67.1245C92.5613 69.2209 91.5879 70.5258 90.0264 70.5258C88.5076 70.5258 87.4808 69.1995 87.4808 67.1245C87.4808 65.071 88.5183 63.7126 90.0264 63.7126ZM104.979 69.3492C104.69 70.2263 103.813 70.7932 102.669 70.7932C101.075 70.7932 100.038 69.6701 100.038 68.0337V67.8411H107.942V66.8892C107.942 63.4024 105.835 61.1456 102.498 61.1456C99.107 61.1456 96.9679 63.5201 96.9679 67.178C96.9679 70.8466 99.0856 73.1034 102.615 73.1034C105.45 73.1034 107.503 71.5953 107.845 69.3492H104.979ZM102.53 63.4559C103.92 63.4559 104.872 64.4613 104.936 65.9266H100.07C100.177 64.4934 101.161 63.4559 102.53 63.4559ZM109.557 72.8574H112.68V66.4507C112.68 64.8357 113.578 63.8944 115.118 63.8944C115.568 63.8944 115.995 63.9693 116.252 64.0763V61.3275C116.038 61.2633 115.728 61.2098 115.364 61.2098C114.017 61.2098 113.043 62.0013 112.637 63.4559H112.573V61.3916H109.557V72.8574ZM117.343 64.7608C117.343 66.4828 118.466 67.5951 120.68 68.0658L122.638 68.4722C123.761 68.7289 124.156 69.0711 124.156 69.6808C124.156 70.4295 123.429 70.9108 122.252 70.9108C121.012 70.9108 120.295 70.376 120.103 69.3706H117.054C117.258 71.6274 119.087 73.1034 122.252 73.1034C125.204 73.1034 127.269 71.6167 127.269 69.3599C127.269 67.6807 126.285 66.7395 123.889 66.2368L121.932 65.8197C120.776 65.5737 120.349 65.1779 120.349 64.5897C120.349 63.8303 121.065 63.3383 122.146 63.3383C123.301 63.3383 123.996 63.9693 124.092 64.8998H126.969C126.905 62.6537 125.087 61.1456 122.146 61.1456C119.226 61.1456 117.343 62.5789 117.343 64.7608Z" fill="#333333"/>
<path d="M36.0239 105.619V93.272H34.4837V105.619H36.0239ZM38.1887 105.619H39.6775V100.383C39.6775 98.8766 40.5931 97.884 41.9963 97.884C43.3654 97.884 44.0413 98.6712 44.0413 100.109V105.619H45.5302V99.8435C45.5302 97.8241 44.4007 96.5663 42.4498 96.5663C41.0722 96.5663 40.1224 97.1824 39.6262 98.1407H39.5919V96.7203H38.1887V105.619ZM54.7285 96.7203H53.1797L50.7155 104.036H50.6812L48.2255 96.7203H46.6597L49.9368 105.619H51.4599L54.7285 96.7203ZM56.7222 95.1374C57.2441 95.1374 57.6548 94.7181 57.6548 94.2047C57.6548 93.6828 57.2441 93.272 56.7222 93.272C56.2088 93.272 55.7895 93.6828 55.7895 94.2047C55.7895 94.7181 56.2088 95.1374 56.7222 95.1374ZM55.9777 105.619H57.4666V96.7203H55.9777V105.619ZM59.9565 94.5726V96.7203H58.6303V97.9439H59.9565V103.309C59.9565 105.02 60.5897 105.688 62.224 105.688C62.5748 105.688 62.9855 105.662 63.1652 105.619V104.37C63.0626 104.387 62.7203 104.413 62.5492 104.413C61.7876 104.413 61.4454 104.045 61.4454 103.232V97.9439H63.1738V96.7203H61.4454V94.5726H59.9565ZM70.4126 103.069C70.1645 103.908 69.3345 104.481 68.205 104.481C66.605 104.481 65.6038 103.36 65.6038 101.657V101.572H71.987V101.007C71.987 98.3118 70.5067 96.5663 68.1024 96.5663C65.6466 96.5663 64.0722 98.4402 64.0722 101.204C64.0722 104.002 65.621 105.773 68.1708 105.773C70.1131 105.773 71.6191 104.627 71.8758 103.069H70.4126ZM68.0767 97.8584C69.48 97.8584 70.4126 98.9194 70.4469 100.408H65.6124C65.7065 98.9279 66.682 97.8584 68.0767 97.8584ZM76.8643 105.773C78.1477 105.773 79.166 105.14 79.7393 104.113H79.7649V105.619H81.1853V93.272H79.6965V98.1664H79.6623C79.1317 97.1909 78.105 96.5663 76.83 96.5663C74.5882 96.5663 73.0566 98.3803 73.0566 101.17C73.0566 103.959 74.5968 105.773 76.8643 105.773ZM77.1466 97.8755C78.6783 97.8755 79.705 99.1846 79.705 101.17C79.705 103.163 78.6783 104.464 77.1466 104.464C75.5722 104.464 74.5797 103.189 74.5797 101.17C74.5797 99.1589 75.5722 97.8755 77.1466 97.8755ZM87.269 94.5726V96.7203H85.9428V97.9439H87.269V103.309C87.269 105.02 87.9022 105.688 89.5365 105.688C89.8873 105.688 90.298 105.662 90.4777 105.619V104.37C90.3751 104.387 90.0328 104.413 89.8617 104.413C89.1001 104.413 88.7579 104.045 88.7579 103.232V97.9439H90.4863V96.7203H88.7579V94.5726H87.269ZM97.7251 103.069C97.477 103.908 96.647 104.481 95.5175 104.481C93.9175 104.481 92.9163 103.36 92.9163 101.657V101.572H99.2995V101.007C99.2995 98.3118 97.8192 96.5663 95.4149 96.5663C92.9591 96.5663 91.3847 98.4402 91.3847 101.204C91.3847 104.002 92.9335 105.773 95.4833 105.773C97.4256 105.773 98.9316 104.627 99.1883 103.069H97.7251ZM95.3892 97.8584C96.7925 97.8584 97.7251 98.9194 97.7594 100.408H92.9249C93.019 98.9279 93.9945 97.8584 95.3892 97.8584ZM103.407 105.773C104.605 105.773 105.734 105.106 106.265 104.088H106.299V105.619H107.711V99.467C107.711 97.6958 106.393 96.5663 104.305 96.5663C102.2 96.5663 100.882 97.7471 100.78 99.2873H102.217C102.406 98.4145 103.124 97.8755 104.271 97.8755C105.503 97.8755 106.222 98.5258 106.222 99.6124V100.357L103.672 100.502C101.618 100.622 100.446 101.58 100.446 103.104C100.446 104.704 101.635 105.773 103.407 105.773ZM103.74 104.507C102.671 104.507 101.961 103.951 101.961 103.104C101.961 102.265 102.645 101.734 103.843 101.657L106.222 101.512V102.239C106.222 103.523 105.144 104.507 103.74 104.507ZM109.602 105.619H111.09V100.04C111.09 98.8081 111.946 97.884 113.127 97.884C114.231 97.884 114.949 98.5857 114.949 99.6552V105.619H116.438V99.9633C116.438 98.7568 117.268 97.884 118.449 97.884C119.621 97.884 120.297 98.6028 120.297 99.8178V105.619H121.786V99.4755C121.786 97.7129 120.648 96.5663 118.885 96.5663C117.636 96.5663 116.592 97.1995 116.096 98.2605H116.062C115.677 97.1824 114.778 96.5663 113.563 96.5663C112.365 96.5663 111.458 97.1995 111.039 98.1407H111.005V96.7203H109.602V105.619ZM127.279 105.619H128.768V100.04C128.768 98.8081 129.624 97.884 130.805 97.884C131.909 97.884 132.627 98.5857 132.627 99.6552V105.619H134.116V99.9633C134.116 98.7568 134.946 97.884 136.127 97.884C137.299 97.884 137.975 98.6028 137.975 99.8178V105.619H139.464V99.4755C139.464 97.7129 138.326 96.5663 136.563 96.5663C135.314 96.5663 134.27 97.1995 133.774 98.2605H133.74C133.355 97.1824 132.456 96.5663 131.241 96.5663C130.043 96.5663 129.136 97.1995 128.717 98.1407H128.683V96.7203H127.279V105.619ZM147.268 103.069C147.019 103.908 146.189 104.481 145.06 104.481C143.46 104.481 142.459 103.36 142.459 101.657V101.572H148.842V101.007C148.842 98.3118 147.362 96.5663 144.957 96.5663C142.502 96.5663 140.927 98.4402 140.927 101.204C140.927 104.002 142.476 105.773 145.026 105.773C146.968 105.773 148.474 104.627 148.731 103.069H147.268ZM144.932 97.8584C146.335 97.8584 147.268 98.9194 147.302 100.408H142.467C142.561 98.9279 143.537 97.8584 144.932 97.8584ZM150.348 105.619H151.837V100.04C151.837 98.8081 152.692 97.884 153.873 97.884C154.977 97.884 155.696 98.5857 155.696 99.6552V105.619H157.185V99.9633C157.185 98.7568 158.015 97.884 159.195 97.884C160.368 97.884 161.044 98.6028 161.044 99.8178V105.619H162.532V99.4755C162.532 97.7129 161.394 96.5663 159.632 96.5663C158.382 96.5663 157.339 97.1995 156.842 98.2605H156.808C156.423 97.1824 155.525 96.5663 154.31 96.5663C153.112 96.5663 152.205 97.1995 151.785 98.1407H151.751V96.7203H150.348V105.619ZM168.856 105.773C171.132 105.773 172.638 103.968 172.638 101.17C172.638 98.3803 171.123 96.5663 168.881 96.5663C167.624 96.5663 166.588 97.1909 166.032 98.2092H165.998V93.272H164.509V105.619H165.929V104.113H165.964C166.537 105.14 167.555 105.773 168.856 105.773ZM168.565 97.8755C170.139 97.8755 171.115 99.1504 171.115 101.17C171.115 103.206 170.139 104.464 168.565 104.464C167.059 104.464 165.989 103.155 165.989 101.17C165.989 99.1932 167.059 97.8755 168.565 97.8755ZM180.056 103.069C179.808 103.908 178.978 104.481 177.849 104.481C176.249 104.481 175.247 103.36 175.247 101.657V101.572H181.631V101.007C181.631 98.3118 180.15 96.5663 177.746 96.5663C175.29 96.5663 173.716 98.4402 173.716 101.204C173.716 104.002 175.265 105.773 177.814 105.773C179.757 105.773 181.263 104.627 181.519 103.069H180.056ZM177.72 97.8584C179.124 97.8584 180.056 98.9194 180.09 100.408H175.256C175.35 98.9279 176.326 97.8584 177.72 97.8584ZM183.137 105.619H184.625V100.074C184.625 98.8167 185.378 97.9867 186.534 97.9867C186.893 97.9867 187.209 98.0295 187.329 98.0723V96.6262C187.209 96.6091 186.987 96.5663 186.73 96.5663C185.686 96.5663 184.865 97.1909 184.574 98.1749H184.54V96.7203H183.137V105.619ZM188.39 99.1761C188.39 100.46 189.203 101.238 190.88 101.64L192.292 101.983C193.31 102.231 193.661 102.599 193.661 103.24C193.661 104.045 192.917 104.558 191.71 104.558C190.504 104.558 189.819 104.07 189.64 103.052H188.151C188.322 104.721 189.622 105.773 191.71 105.773C193.695 105.773 195.159 104.678 195.159 103.129C195.159 101.854 194.508 101.153 192.711 100.716L191.3 100.374C190.307 100.134 189.853 99.7151 189.853 99.0991C189.853 98.3204 190.572 97.7813 191.659 97.7813C192.754 97.7813 193.439 98.3546 193.55 99.2873H194.97C194.91 97.7129 193.61 96.5663 191.659 96.5663C189.734 96.5663 188.39 97.653 188.39 99.1761ZM200.301 105.619H201.79V100.383C201.79 98.8766 202.705 97.884 204.109 97.884C205.478 97.884 206.154 98.6712 206.154 100.109V105.619H207.643V99.8435C207.643 97.8241 206.513 96.5663 204.562 96.5663C203.185 96.5663 202.235 97.1824 201.739 98.1407H201.704V96.7203H200.301V105.619ZM215.446 103.069C215.198 103.908 214.368 104.481 213.239 104.481C211.638 104.481 210.637 103.36 210.637 101.657V101.572H217.021V101.007C217.021 98.3118 215.54 96.5663 213.136 96.5663C210.68 96.5663 209.106 98.4402 209.106 101.204C209.106 104.002 210.654 105.773 213.204 105.773C215.147 105.773 216.653 104.627 216.909 103.069H215.446ZM213.11 97.8584C214.513 97.8584 215.446 98.9194 215.48 100.408H210.646C210.74 98.9279 211.715 97.8584 213.11 97.8584ZM224.43 103.069C224.182 103.908 223.352 104.481 222.223 104.481C220.623 104.481 219.622 103.36 219.622 101.657V101.572H226.005V101.007C226.005 98.3118 224.525 96.5663 222.12 96.5663C219.664 96.5663 218.09 98.4402 218.09 101.204C218.09 104.002 219.639 105.773 222.189 105.773C224.131 105.773 225.637 104.627 225.894 103.069H224.43ZM222.095 97.8584C223.498 97.8584 224.43 98.9194 224.465 100.408H219.63C219.724 98.9279 220.7 97.8584 222.095 97.8584ZM230.882 105.773C232.166 105.773 233.184 105.14 233.757 104.113H233.783V105.619H235.203V93.272H233.714V98.1664H233.68C233.15 97.1909 232.123 96.5663 230.848 96.5663C228.606 96.5663 227.074 98.3803 227.074 101.17C227.074 103.959 228.615 105.773 230.882 105.773ZM231.164 97.8755C232.696 97.8755 233.723 99.1846 233.723 101.17C233.723 103.163 232.696 104.464 231.164 104.464C229.59 104.464 228.598 103.189 228.598 101.17C228.598 99.1589 229.59 97.8755 231.164 97.8755ZM241.287 94.5726V96.7203H239.961V97.9439H241.287V103.309C241.287 105.02 241.92 105.688 243.554 105.688C243.905 105.688 244.316 105.662 244.496 105.619V104.37C244.393 104.387 244.051 104.413 243.88 104.413C243.118 104.413 242.776 104.045 242.776 103.232V97.9439H244.504V96.7203H242.776V94.5726H241.287ZM249.527 105.773C251.983 105.773 253.643 104.002 253.643 101.17C253.643 98.329 251.983 96.5663 249.527 96.5663C247.063 96.5663 245.403 98.329 245.403 101.17C245.403 104.002 247.063 105.773 249.527 105.773ZM249.527 104.464C247.952 104.464 246.917 103.266 246.917 101.17C246.917 99.0734 247.952 97.8755 249.527 97.8755C251.101 97.8755 252.128 99.0734 252.128 101.17C252.128 103.266 251.101 104.464 249.527 104.464ZM263.166 105.773C265.442 105.773 266.948 103.968 266.948 101.17C266.948 98.3803 265.433 96.5663 263.192 96.5663C261.934 96.5663 260.898 97.1909 260.342 98.2092H260.308V93.272H258.819V105.619H260.24V104.113H260.274C260.847 105.14 261.865 105.773 263.166 105.773ZM262.875 97.8755C264.449 97.8755 265.425 99.1504 265.425 101.17C265.425 103.206 264.449 104.464 262.875 104.464C261.369 104.464 260.3 103.155 260.3 101.17C260.3 99.1932 261.369 97.8755 262.875 97.8755ZM274.366 103.069C274.118 103.908 273.288 104.481 272.159 104.481C270.559 104.481 269.558 103.36 269.558 101.657V101.572H275.941V101.007C275.941 98.3118 274.461 96.5663 272.056 96.5663C269.601 96.5663 268.026 98.4402 268.026 101.204C268.026 104.002 269.575 105.773 272.125 105.773C274.067 105.773 275.573 104.627 275.83 103.069H274.366ZM272.031 97.8584C273.434 97.8584 274.366 98.9194 274.401 100.408H269.566C269.66 98.9279 270.636 97.8584 272.031 97.8584ZM41.6455 122.638C41.4573 121.038 40.131 119.566 37.9063 119.566C35.4506 119.566 33.8163 121.363 33.8163 124.17C33.8163 127.036 35.4591 128.773 37.9234 128.773C39.9428 128.773 41.4316 127.524 41.6626 125.753H40.1995C39.9428 126.822 39.147 127.464 37.932 127.464C36.3918 127.464 35.3308 126.24 35.3308 124.17C35.3308 122.15 36.3747 120.875 37.9149 120.875C39.224 120.875 39.977 121.671 40.1909 122.638H41.6455ZM46.7195 128.773C49.1753 128.773 50.8352 127.002 50.8352 124.17C50.8352 121.329 49.1753 119.566 46.7195 119.566C44.2553 119.566 42.5953 121.329 42.5953 124.17C42.5953 127.002 44.2553 128.773 46.7195 128.773ZM46.7195 127.464C45.1451 127.464 44.1098 126.266 44.1098 124.17C44.1098 122.073 45.1451 120.875 46.7195 120.875C48.294 120.875 49.3207 122.073 49.3207 124.17C49.3207 126.266 48.294 127.464 46.7195 127.464ZM52.3412 128.619H53.83V123.383C53.83 121.877 54.7456 120.884 56.1489 120.884C57.5179 120.884 58.1939 121.671 58.1939 123.109V128.619H59.6827V122.843C59.6827 120.824 58.5533 119.566 56.6024 119.566C55.2248 119.566 54.275 120.182 53.7787 121.141H53.7445V119.72H52.3412V128.619ZM62.0614 128.619H63.5503V120.944H65.3643V119.72H63.5417V118.736C63.5417 117.855 63.9268 117.427 64.7311 117.427C64.9792 117.427 65.2274 117.453 65.407 117.479V116.272C65.1931 116.238 64.8338 116.204 64.5001 116.204C62.8572 116.204 62.0614 117.016 62.0614 118.728V119.72H60.8207V120.944H62.0614V128.619ZM67.7259 118.137C68.2478 118.137 68.6585 117.718 68.6585 117.205C68.6585 116.683 68.2478 116.272 67.7259 116.272C67.2125 116.272 66.7932 116.683 66.7932 117.205C66.7932 117.718 67.2125 118.137 67.7259 118.137ZM66.9815 128.619H68.4703V119.72H66.9815V128.619ZM70.4811 128.619H71.9699V123.074C71.9699 121.817 72.7229 120.987 73.878 120.987C74.2374 120.987 74.554 121.029 74.6738 121.072V119.626C74.554 119.609 74.3315 119.566 74.0748 119.566C73.0309 119.566 72.2095 120.191 71.9186 121.175H71.8844V119.72H70.4811V128.619ZM75.8888 128.619H77.3777V123.04C77.3777 121.808 78.2333 120.884 79.4141 120.884C80.5179 120.884 81.2367 121.586 81.2367 122.655V128.619H82.7255V122.963C82.7255 121.757 83.5555 120.884 84.7363 120.884C85.9085 120.884 86.5845 121.603 86.5845 122.818V128.619H88.0733V122.476C88.0733 120.713 86.9353 119.566 85.1727 119.566C83.9234 119.566 82.8795 120.199 82.3832 121.261H82.349C81.964 120.182 81.0655 119.566 79.8505 119.566C78.6526 119.566 77.7456 120.199 77.3263 121.141H77.2921V119.72H75.8888V128.619ZM95.8769 126.069C95.6288 126.908 94.7988 127.481 93.6693 127.481C92.0692 127.481 91.0681 126.36 91.0681 124.657V124.572H97.4513V124.007C97.4513 121.312 95.971 119.566 93.5666 119.566C91.1109 119.566 89.5365 121.44 89.5365 124.204C89.5365 127.002 91.0852 128.773 93.6351 128.773C95.5774 128.773 97.0834 127.627 97.3401 126.069H95.8769ZM93.541 120.858C94.9442 120.858 95.8769 121.919 95.9111 123.408H91.0767C91.1708 121.928 92.1463 120.858 93.541 120.858ZM102.329 128.773C103.612 128.773 104.63 128.14 105.204 127.113H105.229V128.619H106.65V116.272H105.161V121.166H105.127C104.596 120.191 103.569 119.566 102.294 119.566C100.053 119.566 98.5209 121.38 98.5209 124.17C98.5209 126.959 100.061 128.773 102.329 128.773ZM102.611 120.875C104.143 120.875 105.169 122.185 105.169 124.17C105.169 126.163 104.143 127.464 102.611 127.464C101.037 127.464 100.044 126.189 100.044 124.17C100.044 122.159 101.037 120.875 102.611 120.875ZM116.678 128.773C118.954 128.773 120.46 126.968 120.46 124.17C120.46 121.38 118.945 119.566 116.704 119.566C115.446 119.566 114.41 120.191 113.854 121.209H113.82V116.272H112.331V128.619H113.752V127.113H113.786C114.359 128.14 115.377 128.773 116.678 128.773ZM116.387 120.875C117.961 120.875 118.937 122.15 118.937 124.17C118.937 126.206 117.961 127.464 116.387 127.464C114.881 127.464 113.811 126.155 113.811 124.17C113.811 122.193 114.881 120.875 116.387 120.875ZM127.878 126.069C127.63 126.908 126.8 127.481 125.671 127.481C124.071 127.481 123.07 126.36 123.07 124.657V124.572H129.453V124.007C129.453 121.312 127.973 119.566 125.568 119.566C123.112 119.566 121.538 121.44 121.538 124.204C121.538 127.002 123.087 128.773 125.637 128.773C127.579 128.773 129.085 127.627 129.342 126.069H127.878ZM125.542 120.858C126.946 120.858 127.878 121.919 127.913 123.408H123.078C123.172 121.928 124.148 120.858 125.542 120.858ZM131.438 128.619H132.927V120.944H134.741V119.72H132.918V118.736C132.918 117.855 133.303 117.427 134.108 117.427C134.356 117.427 134.604 117.453 134.784 117.479V116.272C134.57 116.238 134.21 116.204 133.877 116.204C132.234 116.204 131.438 117.016 131.438 118.728V119.72H130.197V120.944H131.438V128.619ZM139.541 128.773C141.997 128.773 143.657 127.002 143.657 124.17C143.657 121.329 141.997 119.566 139.541 119.566C137.077 119.566 135.417 121.329 135.417 124.17C135.417 127.002 137.077 128.773 139.541 128.773ZM139.541 127.464C137.967 127.464 136.931 126.266 136.931 124.17C136.931 122.073 137.967 120.875 139.541 120.875C141.115 120.875 142.142 122.073 142.142 124.17C142.142 126.266 141.115 127.464 139.541 127.464ZM145.163 128.619H146.651V123.074C146.651 121.817 147.404 120.987 148.56 120.987C148.919 120.987 149.236 121.029 149.355 121.072V119.626C149.236 119.609 149.013 119.566 148.756 119.566C147.712 119.566 146.891 120.191 146.6 121.175H146.566V119.72H145.163V128.619ZM156.047 126.069C155.798 126.908 154.968 127.481 153.839 127.481C152.239 127.481 151.238 126.36 151.238 124.657V124.572H157.621V124.007C157.621 121.312 156.141 119.566 153.736 119.566C151.281 119.566 149.706 121.44 149.706 124.204C149.706 127.002 151.255 128.773 153.805 128.773C155.747 128.773 157.253 127.627 157.51 126.069H156.047ZM153.711 120.858C155.114 120.858 156.047 121.919 156.081 123.408H151.246C151.34 121.928 152.316 120.858 153.711 120.858ZM163.2 117.573V119.72H161.874V120.944H163.2V126.309C163.2 128.02 163.833 128.688 165.467 128.688C165.818 128.688 166.229 128.662 166.409 128.619V127.37C166.306 127.387 165.964 127.413 165.792 127.413C165.031 127.413 164.689 127.045 164.689 126.232V120.944H166.417V119.72H164.689V117.573H163.2ZM168.086 128.619H169.574V123.434C169.574 121.894 170.49 120.884 171.97 120.884C173.365 120.884 174.075 121.731 174.075 123.143V128.619H175.564V122.869C175.564 120.884 174.383 119.566 172.432 119.566C171.08 119.566 170.105 120.148 169.609 121.141H169.574V116.272H168.086V128.619ZM183.359 126.069C183.111 126.908 182.281 127.481 181.151 127.481C179.551 127.481 178.55 126.36 178.55 124.657V124.572H184.933V124.007C184.933 121.312 183.453 119.566 181.049 119.566C178.593 119.566 177.019 121.44 177.019 124.204C177.019 127.002 178.567 128.773 181.117 128.773C183.06 128.773 184.566 127.627 184.822 126.069H183.359ZM181.023 120.858C182.426 120.858 183.359 121.919 183.393 123.408H178.559C178.653 121.928 179.628 120.858 181.023 120.858ZM187.184 131.948C188.792 131.948 189.528 131.323 190.29 129.244L193.789 119.72H192.224L189.759 127.13H189.734L187.269 119.72H185.678L188.964 128.628L188.758 129.252C188.416 130.288 187.954 130.69 187.124 130.69C186.936 130.69 186.705 130.681 186.542 130.647V131.896C186.705 131.931 187.004 131.948 187.184 131.948ZM205.948 122.638C205.76 121.038 204.434 119.566 202.209 119.566C199.753 119.566 198.119 121.363 198.119 124.17C198.119 127.036 199.762 128.773 202.226 128.773C204.246 128.773 205.734 127.524 205.965 125.753H204.502C204.246 126.822 203.45 127.464 202.235 127.464C200.695 127.464 199.634 126.24 199.634 124.17C199.634 122.15 200.678 120.875 202.218 120.875C203.527 120.875 204.28 121.671 204.494 122.638H205.948ZM209.936 128.773C211.134 128.773 212.263 128.106 212.794 127.088H212.828V128.619H214.24V122.467C214.24 120.696 212.922 119.566 210.834 119.566C208.729 119.566 207.412 120.747 207.309 122.287H208.746C208.935 121.415 209.653 120.875 210.8 120.875C212.032 120.875 212.751 121.526 212.751 122.612V123.357L210.201 123.502C208.147 123.622 206.975 124.58 206.975 126.104C206.975 127.704 208.164 128.773 209.936 128.773ZM210.269 127.507C209.2 127.507 208.49 126.951 208.49 126.104C208.49 125.265 209.174 124.734 210.372 124.657L212.751 124.512V125.239C212.751 126.523 211.673 127.507 210.269 127.507ZM216.131 128.619H217.619V123.383C217.619 121.877 218.535 120.884 219.938 120.884C221.307 120.884 221.983 121.671 221.983 123.109V128.619H223.472V122.843C223.472 120.824 222.343 119.566 220.392 119.566C219.014 119.566 218.064 120.182 217.568 121.141H217.534V119.72H216.131V128.619ZM231.567 128.773C232.765 128.773 233.894 128.106 234.425 127.088H234.459V128.619H235.871V122.467C235.871 120.696 234.553 119.566 232.465 119.566C230.36 119.566 229.042 120.747 228.94 122.287H230.377C230.566 121.415 231.284 120.875 232.431 120.875C233.663 120.875 234.382 121.526 234.382 122.612V123.357L231.832 123.502C229.778 123.622 228.606 124.58 228.606 126.104C228.606 127.704 229.795 128.773 231.567 128.773ZM231.9 127.507C230.831 127.507 230.121 126.951 230.121 126.104C230.121 125.265 230.805 124.734 232.003 124.657L234.382 124.512V125.239C234.382 126.523 233.304 127.507 231.9 127.507ZM245.154 122.638C244.966 121.038 243.64 119.566 241.415 119.566C238.959 119.566 237.325 121.363 237.325 124.17C237.325 127.036 238.968 128.773 241.432 128.773C243.452 128.773 244.941 127.524 245.172 125.753H243.708C243.452 126.822 242.656 127.464 241.441 127.464C239.901 127.464 238.84 126.24 238.84 124.17C238.84 122.15 239.884 120.875 241.424 120.875C242.733 120.875 243.486 121.671 243.7 122.638H245.154ZM253.933 122.638C253.745 121.038 252.419 119.566 250.194 119.566C247.739 119.566 246.104 121.363 246.104 124.17C246.104 127.036 247.747 128.773 250.211 128.773C252.231 128.773 253.72 127.524 253.951 125.753H252.487C252.231 126.822 251.435 127.464 250.22 127.464C248.68 127.464 247.619 126.24 247.619 124.17C247.619 122.15 248.663 120.875 250.203 120.875C251.512 120.875 252.265 121.671 252.479 122.638H253.933ZM261.224 126.069C260.975 126.908 260.146 127.481 259.016 127.481C257.416 127.481 256.415 126.36 256.415 124.657V124.572H262.798V124.007C262.798 121.312 261.318 119.566 258.913 119.566C256.458 119.566 254.883 121.44 254.883 124.204C254.883 127.002 256.432 128.773 258.982 128.773C260.924 128.773 262.43 127.627 262.687 126.069H261.224ZM258.888 120.858C260.291 120.858 261.224 121.919 261.258 123.408H256.423C256.518 121.928 257.493 120.858 258.888 120.858ZM264.15 122.176C264.15 123.46 264.963 124.238 266.64 124.64L268.052 124.983C269.07 125.231 269.421 125.599 269.421 126.24C269.421 127.045 268.676 127.558 267.47 127.558C266.263 127.558 265.579 127.07 265.399 126.052H263.91C264.082 127.721 265.382 128.773 267.47 128.773C269.455 128.773 270.918 127.678 270.918 126.129C270.918 124.854 270.268 124.153 268.471 123.716L267.059 123.374C266.067 123.134 265.613 122.715 265.613 122.099C265.613 121.32 266.332 120.781 267.419 120.781C268.514 120.781 269.198 121.355 269.31 122.287H270.73C270.67 120.713 269.369 119.566 267.419 119.566C265.493 119.566 264.15 120.653 264.15 122.176ZM272.313 122.176C272.313 123.46 273.126 124.238 274.803 124.64L276.215 124.983C277.233 125.231 277.584 125.599 277.584 126.24C277.584 127.045 276.839 127.558 275.633 127.558C274.426 127.558 273.742 127.07 273.562 126.052H272.073C272.244 127.721 273.545 128.773 275.633 128.773C277.618 128.773 279.081 127.678 279.081 126.129C279.081 124.854 278.431 124.153 276.634 123.716L275.222 123.374C274.23 123.134 273.776 122.715 273.776 122.099C273.776 121.32 274.495 120.781 275.582 120.781C276.677 120.781 277.361 121.355 277.473 122.287H278.893C278.833 120.713 277.532 119.566 275.582 119.566C273.656 119.566 272.313 120.653 272.313 122.176ZM41.5514 142.72H40.0027L37.5384 150.036H37.5041L35.0484 142.72H33.4826L36.7597 151.619H38.2828L41.5514 142.72ZM45.1537 151.773C46.3516 151.773 47.4811 151.106 48.0116 150.088H48.0458V151.619H49.4576V145.467C49.4576 143.696 48.1399 142.566 46.0521 142.566C43.9472 142.566 42.6295 143.747 42.5268 145.287H43.9643C44.1526 144.415 44.8713 143.875 46.0179 143.875C47.2501 143.875 47.9688 144.526 47.9688 145.612V146.357L45.419 146.502C43.3654 146.622 42.1931 147.58 42.1931 149.104C42.1931 150.704 43.3825 151.773 45.1537 151.773ZM45.4874 150.507C44.4178 150.507 43.7076 149.951 43.7076 149.104C43.7076 148.265 44.3922 147.734 45.5901 147.657L47.9688 147.512V148.239C47.9688 149.523 46.8907 150.507 45.4874 150.507ZM58.6559 142.72H57.1671V147.948C57.1671 149.463 56.2943 150.455 54.8483 150.455C53.4707 150.455 52.7947 149.677 52.7947 148.231V142.72H51.3059V148.496C51.3059 150.515 52.4439 151.773 54.3862 151.773C55.7553 151.773 56.6794 151.2 57.2099 150.173H57.2441V151.619H58.6559V142.72ZM60.6667 151.619H62.1556V139.272H60.6667V151.619ZM64.6455 140.573V142.72H63.3192V143.944H64.6455V149.309C64.6455 151.02 65.2787 151.688 66.913 151.688C67.2638 151.688 67.6745 151.662 67.8542 151.619V150.37C67.7515 150.387 67.4093 150.413 67.2381 150.413C66.4766 150.413 66.1344 150.045 66.1344 149.232V143.944H67.8628V142.72H66.1344V140.573H64.6455ZM69.3003 145.176C69.3003 146.46 70.1131 147.238 71.7902 147.64L73.2021 147.983C74.2203 148.231 74.5711 148.599 74.5711 149.24C74.5711 150.045 73.8267 150.558 72.6202 150.558C71.4137 150.558 70.7292 150.07 70.5495 149.052H69.0607C69.2318 150.721 70.5324 151.773 72.6202 151.773C74.6053 151.773 76.0685 150.678 76.0685 149.129C76.0685 147.854 75.4182 147.153 73.6213 146.716L72.2095 146.374C71.2169 146.134 70.7634 145.715 70.7634 145.099C70.7634 144.32 71.4822 143.781 72.5689 143.781C73.6641 143.781 74.3486 144.355 74.4599 145.287H75.8803C75.8204 143.713 74.5198 142.566 72.5689 142.566C70.6437 142.566 69.3003 143.653 69.3003 145.176ZM78.8751 151.705C79.4227 151.705 79.8505 151.277 79.8505 150.729C79.8505 150.182 79.4227 149.754 78.8751 149.754C78.3274 149.754 77.8996 150.182 77.8996 150.729C77.8996 151.277 78.3274 151.705 78.8751 151.705ZM91.8896 141.822H91.9751L94.8245 151.619H96.2791L99.6418 139.272H98.0332L95.5603 149.352H95.4919L92.711 139.272H91.1537L88.3728 149.352H88.3044L85.8315 139.272H84.2229L87.5856 151.619H89.0402L91.8896 141.822ZM101.071 151.619H102.56V146.434C102.56 144.894 103.475 143.884 104.955 143.884C106.35 143.884 107.06 144.731 107.06 146.143V151.619H108.549V145.869C108.549 143.884 107.368 142.566 105.417 142.566C104.066 142.566 103.09 143.148 102.594 144.141H102.56V139.272H101.071V151.619ZM116.344 149.069C116.096 149.908 115.266 150.481 114.137 150.481C112.537 150.481 111.535 149.36 111.535 147.657V147.572H117.919V147.007C117.919 144.312 116.438 142.566 114.034 142.566C111.578 142.566 110.004 144.44 110.004 147.204C110.004 150.002 111.553 151.773 114.102 151.773C116.045 151.773 117.551 150.627 117.807 149.069H116.344ZM114.008 143.858C115.412 143.858 116.344 144.919 116.378 146.408H111.544C111.638 144.928 112.614 143.858 114.008 143.858ZM119.425 151.619H120.913V146.383C120.913 144.877 121.829 143.884 123.232 143.884C124.601 143.884 125.277 144.671 125.277 146.109V151.619H126.766V145.843C126.766 143.824 125.637 142.566 123.686 142.566C122.308 142.566 121.358 143.182 120.862 144.141H120.828V142.72H119.425V151.619ZM133.004 154.948C134.612 154.948 135.348 154.323 136.11 152.244L139.609 142.72H138.044L135.579 150.13H135.554L133.089 142.72H131.498L134.784 151.628L134.578 152.252C134.236 153.288 133.774 153.69 132.944 153.69C132.756 153.69 132.525 153.681 132.362 153.647V154.896C132.525 154.931 132.824 154.948 133.004 154.948ZM144.213 151.773C146.669 151.773 148.329 150.002 148.329 147.17C148.329 144.329 146.669 142.566 144.213 142.566C141.749 142.566 140.089 144.329 140.089 147.17C140.089 150.002 141.749 151.773 144.213 151.773ZM144.213 150.464C142.638 150.464 141.603 149.266 141.603 147.17C141.603 145.073 142.638 143.875 144.213 143.875C145.787 143.875 146.814 145.073 146.814 147.17C146.814 149.266 145.787 150.464 144.213 150.464ZM157.142 142.72H155.653V147.948C155.653 149.463 154.78 150.455 153.334 150.455C151.957 150.455 151.281 149.677 151.281 148.231V142.72H149.792V148.496C149.792 150.515 150.93 151.773 152.872 151.773C154.241 151.773 155.165 151.2 155.696 150.173H155.73V151.619H157.142V142.72ZM160.445 143.627L161.617 139.272H160.034L159.204 143.627H160.445ZM163.08 151.619H164.569V146.074C164.569 144.817 165.322 143.987 166.477 143.987C166.836 143.987 167.153 144.029 167.273 144.072V142.626C167.153 142.609 166.93 142.566 166.674 142.566C165.63 142.566 164.808 143.191 164.518 144.175H164.483V142.72H163.08V151.619ZM173.964 149.069C173.716 149.908 172.886 150.481 171.756 150.481C170.156 150.481 169.155 149.36 169.155 147.657V147.572H175.538V147.007C175.538 144.312 174.058 142.566 171.654 142.566C169.198 142.566 167.624 144.44 167.624 147.204C167.624 150.002 169.172 151.773 171.722 151.773C173.664 151.773 175.17 150.627 175.427 149.069H173.964ZM171.628 143.858C173.031 143.858 173.964 144.919 173.998 146.408H169.164C169.258 144.928 170.233 143.858 171.628 143.858ZM180.638 151.619H182.127V146.074C182.127 144.817 182.88 143.987 184.035 143.987C184.394 143.987 184.711 144.029 184.831 144.072V142.626C184.711 142.609 184.489 142.566 184.232 142.566C183.188 142.566 182.367 143.191 182.076 144.175H182.041V142.72H180.638V151.619ZM191.522 149.069C191.274 149.908 190.444 150.481 189.314 150.481C187.714 150.481 186.713 149.36 186.713 147.657V147.572H193.096V147.007C193.096 144.312 191.616 142.566 189.212 142.566C186.756 142.566 185.182 144.44 185.182 147.204C185.182 150.002 186.73 151.773 189.28 151.773C191.223 151.773 192.728 150.627 192.985 149.069H191.522ZM189.186 143.858C190.589 143.858 191.522 144.919 191.556 146.408H186.722C186.816 144.928 187.791 143.858 189.186 143.858ZM197.204 151.773C198.401 151.773 199.531 151.106 200.061 150.088H200.096V151.619H201.507V145.467C201.507 143.696 200.19 142.566 198.102 142.566C195.997 142.566 194.679 143.747 194.577 145.287H196.014C196.202 144.415 196.921 143.875 198.068 143.875C199.3 143.875 200.019 144.526 200.019 145.612V146.357L197.469 146.502C195.415 146.622 194.243 147.58 194.243 149.104C194.243 150.704 195.432 151.773 197.204 151.773ZM197.537 150.507C196.468 150.507 195.757 149.951 195.757 149.104C195.757 148.265 196.442 147.734 197.64 147.657L200.019 147.512V148.239C200.019 149.523 198.941 150.507 197.537 150.507ZM206.77 151.773C208.053 151.773 209.071 151.14 209.645 150.113H209.67V151.619H211.091V139.272H209.602V144.166H209.568C209.037 143.191 208.01 142.566 206.736 142.566C204.494 142.566 202.962 144.38 202.962 147.17C202.962 149.959 204.502 151.773 206.77 151.773ZM207.052 143.875C208.584 143.875 209.611 145.185 209.611 147.17C209.611 149.163 208.584 150.464 207.052 150.464C205.478 150.464 204.485 149.189 204.485 147.17C204.485 145.159 205.478 143.875 207.052 143.875ZM213.846 154.948C215.455 154.948 216.191 154.323 216.952 152.244L220.452 142.72H218.886L216.422 150.13H216.396L213.932 142.72H212.34L215.626 151.628L215.42 152.252C215.078 153.288 214.616 153.69 213.786 153.69C213.598 153.69 213.367 153.681 213.204 153.647V154.896C213.367 154.931 213.666 154.948 213.846 154.948ZM221.359 154.075L222.531 149.72H220.948L220.118 154.075H221.359ZM234.921 145.638C234.733 144.038 233.406 142.566 231.182 142.566C228.726 142.566 227.092 144.363 227.092 147.17C227.092 150.036 228.734 151.773 231.199 151.773C233.218 151.773 234.707 150.524 234.938 148.753H233.475C233.218 149.822 232.422 150.464 231.207 150.464C229.667 150.464 228.606 149.24 228.606 147.17C228.606 145.15 229.65 143.875 231.19 143.875C232.499 143.875 233.252 144.671 233.466 145.638H234.921ZM239.995 151.773C242.451 151.773 244.111 150.002 244.111 147.17C244.111 144.329 242.451 142.566 239.995 142.566C237.531 142.566 235.871 144.329 235.871 147.17C235.871 150.002 237.531 151.773 239.995 151.773ZM239.995 150.464C238.42 150.464 237.385 149.266 237.385 147.17C237.385 145.073 238.42 143.875 239.995 143.875C241.569 143.875 242.596 145.073 242.596 147.17C242.596 149.266 241.569 150.464 239.995 150.464ZM245.617 151.619H247.105V146.383C247.105 144.877 248.021 143.884 249.424 143.884C250.793 143.884 251.469 144.671 251.469 146.109V151.619H252.958V145.843C252.958 143.824 251.829 142.566 249.878 142.566C248.5 142.566 247.55 143.182 247.054 144.141H247.02V142.72H245.617V151.619ZM255.337 151.619H256.826V143.944H258.64V142.72H256.817V141.736C256.817 140.855 257.202 140.427 258.006 140.427C258.255 140.427 258.503 140.453 258.682 140.479V139.272C258.468 139.238 258.109 139.204 257.775 139.204C256.132 139.204 255.337 140.016 255.337 141.728V142.72H254.096V143.944H255.337V151.619ZM261.001 141.137C261.523 141.137 261.934 140.718 261.934 140.205C261.934 139.683 261.523 139.272 261.001 139.272C260.488 139.272 260.068 139.683 260.068 140.205C260.068 140.718 260.488 141.137 261.001 141.137ZM260.257 151.619H261.746V142.72H260.257V151.619ZM263.756 151.619H265.245V146.074C265.245 144.817 265.998 143.987 267.153 143.987C267.513 143.987 267.829 144.029 267.949 144.072V142.626C267.829 142.609 267.607 142.566 267.35 142.566C266.306 142.566 265.485 143.191 265.194 144.175H265.16V142.72H263.756V151.619ZM269.164 151.619H270.653V146.04C270.653 144.808 271.509 143.884 272.689 143.884C273.793 143.884 274.512 144.586 274.512 145.655V151.619H276.001V145.963C276.001 144.757 276.831 143.884 278.012 143.884C279.184 143.884 279.86 144.603 279.86 145.818V151.619H281.349V145.476C281.349 143.713 280.211 142.566 278.448 142.566C277.199 142.566 276.155 143.199 275.659 144.261H275.624C275.239 143.182 274.341 142.566 273.126 142.566C271.928 142.566 271.021 143.199 270.602 144.141H270.567V142.72H269.164V151.619ZM34.9971 177.948C36.6057 177.948 37.3416 177.323 38.1031 175.244L41.6027 165.72H40.0369L37.5726 173.13H37.5469L35.0826 165.72H33.4911L36.7768 174.628L36.5715 175.252C36.2292 176.288 35.7672 176.69 34.9372 176.69C34.7489 176.69 34.5179 176.681 34.3553 176.647V177.896C34.5179 177.931 34.8174 177.948 34.9971 177.948ZM46.2062 174.773C48.6619 174.773 50.3219 173.002 50.3219 170.17C50.3219 167.329 48.6619 165.566 46.2062 165.566C43.7419 165.566 42.0819 167.329 42.0819 170.17C42.0819 173.002 43.7419 174.773 46.2062 174.773ZM46.2062 173.464C44.6317 173.464 43.5964 172.266 43.5964 170.17C43.5964 168.073 44.6317 166.875 46.2062 166.875C47.7806 166.875 48.8073 168.073 48.8073 170.17C48.8073 172.266 47.7806 173.464 46.2062 173.464ZM59.1351 165.72H57.6463V170.948C57.6463 172.463 56.7735 173.455 55.3274 173.455C53.9498 173.455 53.2739 172.677 53.2739 171.231V165.72H51.785V171.496C51.785 173.515 52.923 174.773 54.8654 174.773C56.2344 174.773 57.1585 174.2 57.689 173.173H57.7233V174.619H59.1351V165.72ZM61.0689 174.619H62.5577V169.074C62.5577 167.817 63.3107 166.987 64.4658 166.987C64.8252 166.987 65.1418 167.029 65.2616 167.072V165.626C65.1418 165.609 64.9193 165.566 64.6626 165.566C63.6187 165.566 62.7973 166.191 62.5064 167.175H62.4721V165.72H61.0689V174.619ZM70.5495 163.573V165.72H69.2233V166.944H70.5495V172.309C70.5495 174.02 71.1827 174.688 72.817 174.688C73.1678 174.688 73.5785 174.662 73.7582 174.619V173.37C73.6556 173.387 73.3133 173.413 73.1422 173.413C72.3806 173.413 72.0384 173.045 72.0384 172.232V166.944H73.7668V165.72H72.0384V163.573H70.5495ZM81.0056 172.069C80.7575 172.908 79.9275 173.481 78.798 173.481C77.198 173.481 76.1969 172.36 76.1969 170.657V170.572H82.58V170.007C82.58 167.312 81.0998 165.566 78.6954 165.566C76.2396 165.566 74.6652 167.44 74.6652 170.204C74.6652 173.002 76.214 174.773 78.7638 174.773C80.7062 174.773 82.2121 173.627 82.4688 172.069H81.0056ZM78.6697 166.858C80.073 166.858 81.0056 167.919 81.0399 169.408H76.2054C76.2995 167.928 77.275 166.858 78.6697 166.858ZM86.6872 174.773C87.8851 174.773 89.0146 174.106 89.5451 173.088H89.5793V174.619H90.9911V168.467C90.9911 166.696 89.6734 165.566 87.5856 165.566C85.4807 165.566 84.163 166.747 84.0603 168.287H85.4978C85.6861 167.415 86.4048 166.875 87.5514 166.875C88.7835 166.875 89.5023 167.526 89.5023 168.612V169.357L86.9524 169.502C84.8989 169.622 83.7266 170.58 83.7266 172.104C83.7266 173.704 84.916 174.773 86.6872 174.773ZM87.0209 173.507C85.9513 173.507 85.2411 172.951 85.2411 172.104C85.2411 171.265 85.9256 170.734 87.1236 170.657L89.5023 170.512V171.239C89.5023 172.523 88.4242 173.507 87.0209 173.507ZM92.8821 174.619H94.371V169.04C94.371 167.808 95.2266 166.884 96.4074 166.884C97.5112 166.884 98.23 167.586 98.23 168.655V174.619H99.7188V168.963C99.7188 167.757 100.549 166.884 101.73 166.884C102.902 166.884 103.578 167.603 103.578 168.818V174.619H105.067V168.476C105.067 166.713 103.929 165.566 102.166 165.566C100.917 165.566 99.8728 166.199 99.3765 167.261H99.3423C98.9573 166.182 98.0588 165.566 96.8438 165.566C95.6459 165.566 94.7389 166.199 94.3196 167.141H94.2854V165.72H92.8821V174.619ZM108.224 174.705C108.772 174.705 109.199 174.277 109.199 173.729C109.199 173.182 108.772 172.754 108.224 172.754C107.676 172.754 107.249 173.182 107.249 173.729C107.249 174.277 107.676 174.705 108.224 174.705Z" fill="#333333"/>
<rect x="33.2858" y="182.763" width="258.476" height="1.09524" fill="#D7D9E0"/>
<path d="M39.6946 219.587C42.6124 219.587 44.6317 217.987 45.0168 215.343H42.852C42.5097 216.832 41.3375 217.713 39.7032 217.713C37.564 217.713 36.2121 215.976 36.2121 213.204C36.2121 210.449 37.5726 208.703 39.6946 208.703C41.2947 208.703 42.5525 209.721 42.8434 211.27H45.0168C44.743 208.618 42.5611 206.829 39.6946 206.829C36.1864 206.829 33.9532 209.268 33.9532 213.204C33.9532 217.166 36.1693 219.587 39.6946 219.587ZM50.493 219.562C53.1541 219.562 54.8825 217.79 54.8825 214.847C54.8825 211.912 53.137 210.124 50.493 210.124C47.849 210.124 46.1035 211.921 46.1035 214.847C46.1035 217.79 47.8319 219.562 50.493 219.562ZM50.493 217.876C49.141 217.876 48.2683 216.781 48.2683 214.847C48.2683 212.922 49.1496 211.818 50.493 211.818C51.8449 211.818 52.7177 212.922 52.7177 214.847C52.7177 216.781 51.8449 217.876 50.493 217.876ZM56.2515 219.382H58.3821V214.128C58.3821 212.828 59.1608 211.946 60.3844 211.946C61.5994 211.946 62.1983 212.665 62.1983 213.948V219.382H64.3289V213.521C64.3289 211.424 63.1909 210.141 61.1887 210.141C59.794 210.141 58.8271 210.791 58.3393 211.869H58.2966V210.312H56.2515V219.382ZM66.6306 219.382H68.7612V211.955H70.541V210.338H68.727V209.593C68.727 208.857 69.0949 208.472 69.9078 208.472C70.1559 208.472 70.4041 208.498 70.5838 208.524V207.035C70.3185 206.983 69.8564 206.941 69.4372 206.941C67.4692 206.941 66.6306 207.771 66.6306 209.533V210.338H65.3899V211.955H66.6306V219.382ZM73.0566 208.943C73.7069 208.943 74.2203 208.421 74.2203 207.788C74.2203 207.146 73.7069 206.633 73.0566 206.633C72.4063 206.633 71.8844 207.146 71.8844 207.788C71.8844 208.421 72.4063 208.943 73.0566 208.943ZM71.9956 219.382H74.1262V210.312H71.9956V219.382ZM75.9145 219.382H78.0451V214.102C78.0451 212.828 78.7724 212.049 79.9788 212.049C80.3382 212.049 80.6634 212.1 80.8431 212.169V210.243C80.689 210.209 80.4495 210.158 80.1756 210.158C79.1061 210.158 78.3103 210.791 78.0023 211.895H77.9595V210.312H75.9145V219.382ZM81.9383 219.382H84.0689V213.829C84.0689 212.733 84.7876 211.938 85.8144 211.938C86.807 211.938 87.423 212.562 87.423 213.572V219.382H89.4937V213.777C89.4937 212.691 90.1954 211.938 91.2222 211.938C92.266 211.938 92.8479 212.571 92.8479 213.683V219.382H94.9785V213.161C94.9785 211.347 93.8062 210.141 92.0179 210.141C90.7088 210.141 89.6306 210.842 89.1942 211.963H89.1429C88.8092 210.8 87.8937 210.141 86.6102 210.141C85.378 210.141 84.4197 210.834 84.0261 211.886H83.9833V210.312H81.9383V219.382ZM105.178 210.158C103.86 210.158 102.833 210.825 102.32 211.878H102.277V210.312H100.198V222.368H102.329V217.876H102.371C102.868 218.894 103.894 219.527 105.212 219.527C107.488 219.527 108.943 217.739 108.943 214.847C108.943 211.946 107.48 210.158 105.178 210.158ZM104.528 217.782C103.201 217.782 102.32 216.627 102.311 214.847C102.32 213.084 103.201 211.912 104.528 211.912C105.905 211.912 106.761 213.059 106.761 214.847C106.761 216.644 105.905 217.782 104.528 217.782ZM116.319 216.669C116.087 217.422 115.335 217.919 114.342 217.919C112.947 217.919 112.057 216.943 112.057 215.489V215.36H118.398V214.667C118.398 211.912 116.789 210.124 114.214 210.124C111.595 210.124 109.935 212.015 109.935 214.881C109.935 217.773 111.578 219.562 114.299 219.562C116.447 219.562 118.038 218.381 118.312 216.669H116.319ZM114.222 211.775C115.446 211.775 116.267 212.674 116.31 213.957H112.074C112.16 212.691 113.024 211.775 114.222 211.775ZM123.788 219.562C126.449 219.562 128.178 217.79 128.178 214.847C128.178 211.912 126.432 210.124 123.788 210.124C121.144 210.124 119.399 211.921 119.399 214.847C119.399 217.79 121.127 219.562 123.788 219.562ZM123.788 217.876C122.436 217.876 121.564 216.781 121.564 214.847C121.564 212.922 122.445 211.818 123.788 211.818C125.14 211.818 126.013 212.922 126.013 214.847C126.013 216.781 125.14 217.876 123.788 217.876ZM134.527 210.158C133.209 210.158 132.182 210.825 131.669 211.878H131.626V210.312H129.547V222.368H131.678V217.876H131.72C132.217 218.894 133.243 219.527 134.561 219.527C136.837 219.527 138.292 217.739 138.292 214.847C138.292 211.946 136.829 210.158 134.527 210.158ZM133.877 217.782C132.55 217.782 131.669 216.627 131.66 214.847C131.669 213.084 132.55 211.912 133.877 211.912C135.254 211.912 136.11 213.059 136.11 214.847C136.11 216.644 135.254 217.782 133.877 217.782ZM139.721 219.382H141.851V207.035H139.721V219.382ZM149.672 216.669C149.441 217.422 148.688 217.919 147.695 217.919C146.301 217.919 145.411 216.943 145.411 215.489V215.36H151.751V214.667C151.751 211.912 150.143 210.124 147.567 210.124C144.949 210.124 143.289 212.015 143.289 214.881C143.289 217.773 144.932 219.562 147.653 219.562C149.8 219.562 151.392 218.381 151.666 216.669H149.672ZM147.576 211.775C148.799 211.775 149.621 212.674 149.663 213.957H145.428C145.513 212.691 146.378 211.775 147.576 211.775Z" fill="#0364D3"/>
<path d="M162.25 218.698C161.802 218.267 161.801 217.55 162.249 217.119L166.651 212.882L162.249 208.645C161.801 208.214 161.802 207.496 162.25 207.066L162.278 207.039C162.701 206.632 163.371 206.632 163.795 207.039L169.055 212.092C169.504 212.523 169.504 213.241 169.055 213.672L163.795 218.725C163.371 219.132 162.701 219.132 162.278 218.725L162.25 218.698Z" fill="#0364D3"/>
<g clip-path="url(#clip1_40_18371)">
<rect width="131.429" height="236.571" transform="translate(335.571 5.33398)" fill="#FFF9EF"/>
<rect width="158.767" height="98.9808" rx="11.113" transform="matrix(-0.977493 -0.210967 -0.210967 0.977493 517.787 97.5244)" stroke="#876337" stroke-width="2.22261" stroke-miterlimit="10" stroke-linecap="round" stroke-linejoin="round"/>
<rect width="45.0331" height="10.9837" rx="5.49185" transform="matrix(-0.977493 -0.210967 -0.210967 0.977493 460.529 93.2734)" stroke="#876337" stroke-width="2.22261" stroke-miterlimit="10" stroke-linecap="round" stroke-linejoin="round"/>
<path fill-rule="evenodd" clip-rule="evenodd" d="M459.758 97.6157C459.759 98.0066 459.719 98.4038 459.633 98.8017C458.993 101.766 456.071 103.651 453.106 103.011L419.823 95.8281C416.858 95.1882 414.973 92.266 415.613 89.3012C415.766 88.5949 416.048 87.9499 416.429 87.3858C416.439 89.9078 418.196 92.1726 420.763 92.7266L454.046 99.9099C456.305 100.397 458.539 99.4197 459.758 97.6157Z" fill="#876337"/>
<path d="M459.633 98.8017L460.719 99.0362L460.719 99.0362L459.633 98.8017ZM459.758 97.6157L458.837 96.9935C459.11 96.5895 459.614 96.4106 460.081 96.5524C460.547 96.6942 460.867 97.1236 460.869 97.6112L459.758 97.6157ZM453.106 103.011L453.341 101.925L453.341 101.925L453.106 103.011ZM419.823 95.8281L419.589 96.9144L419.589 96.9144L419.823 95.8281ZM415.613 89.3012L414.527 89.0668L414.527 89.0668L415.613 89.3012ZM416.429 87.3858L415.508 86.7636C415.781 86.3596 416.286 86.1807 416.752 86.3225C417.219 86.4643 417.538 86.8937 417.54 87.3813L416.429 87.3858ZM420.763 92.7266L420.529 93.8129L420.529 93.8129L420.763 92.7266ZM454.046 99.9099L454.281 98.8236L454.046 99.9099ZM458.547 98.5673C458.615 98.2484 458.648 97.9313 458.646 97.6202L460.869 97.6112C460.871 98.0819 460.822 98.5592 460.719 99.0362L458.547 98.5673ZM453.341 101.925C455.705 102.435 458.036 100.932 458.547 98.5673L460.719 99.0362C459.95 102.601 456.436 104.867 452.872 104.098L453.341 101.925ZM420.057 94.7418L453.341 101.925L452.872 104.098L419.589 96.9144L420.057 94.7418ZM416.7 89.5357C416.189 91.9005 417.693 94.2314 420.057 94.7418L419.589 96.9144C416.024 96.145 413.758 92.6315 414.527 89.0668L416.7 89.5357ZM417.35 88.008C417.047 88.4566 416.822 88.9703 416.7 89.5357L414.527 89.0668C414.71 88.2196 415.049 87.4433 415.508 86.7636L417.35 88.008ZM417.54 87.3813C417.548 89.3927 418.952 91.1987 420.998 91.6403L420.529 93.8129C417.441 93.1465 415.33 90.423 415.318 87.3903L417.54 87.3813ZM420.998 91.6403L454.281 98.8236L453.812 100.996L420.529 93.8129L420.998 91.6403ZM454.281 98.8236C456.081 99.212 457.863 98.4343 458.837 96.9935L460.678 98.2378C459.214 100.405 456.529 101.583 453.812 100.996L454.281 98.8236Z" fill="#876337"/>
<rect width="20.3221" height="20.7489" transform="matrix(-0.977493 -0.210967 -0.210967 0.977493 451.669 75.7529)" fill="#BD9566"/>
<rect width="20.3221" height="26.2836" transform="matrix(-0.977493 -0.210967 -0.210967 0.977493 461.065 32.2188)" fill="#BD9566"/>
<path d="M458.396 58.5312L432.781 53.003L428.93 70.8462L454.545 76.3744L458.396 58.5312Z" stroke="#876337" stroke-width="2.22261" stroke-miterlimit="10" stroke-linecap="round" stroke-linejoin="round"/>
<path d="M495.158 126.359L450.497 116.72" stroke="#876337" stroke-width="2.22261" stroke-miterlimit="10" stroke-linecap="round" stroke-linejoin="round"/>
<path d="M492.663 139.104L419.258 123.262" stroke="#876337" stroke-width="2.22261" stroke-miterlimit="10" stroke-linecap="round" stroke-linejoin="round"/>
<rect x="-0.653866" y="0.421113" width="1.09989" height="25.6777" transform="matrix(-0.977353 -0.211615 -0.211615 0.977353 427.363 140.284)" fill="#876337" stroke="#876337" stroke-width="1.09989"/>
<rect x="-1.32131" y="0.850968" width="2.29035" height="24.555" transform="matrix(-0.977353 -0.211615 -0.211615 0.977353 421.184 139.08)" fill="#876337" stroke="#876337" stroke-width="2.22261"/>
<rect x="-1.32131" y="0.850968" width="2.29035" height="24.555" transform="matrix(-0.977353 -0.211615 -0.211615 0.977353 443.15 143.836)" fill="#876337" stroke="#876337" stroke-width="2.22261"/>
<rect x="-0.571858" y="0.368297" width="0.961939" height="25.8156" transform="matrix(-0.977353 -0.211615 -0.211615 0.977353 415.351 137.667)" fill="#876337" stroke="#876337" stroke-width="0.961939"/>
<rect x="-0.571858" y="0.368297" width="0.961939" height="25.8156" transform="matrix(-0.977353 -0.211615 -0.211615 0.977353 453.892 146.011)" fill="#876337" stroke="#876337" stroke-width="0.961939"/>
<rect x="-0.571858" y="0.368297" width="0.961939" height="25.8156" transform="matrix(-0.977353 -0.211615 -0.211615 0.977353 472.518 150.044)" fill="#876337" stroke="#876337" stroke-width="0.961939"/>
<rect x="-0.571858" y="0.368297" width="0.961939" height="25.8156" transform="matrix(-0.977353 -0.211615 -0.211615 0.977353 410.671 136.652)" fill="#876337" stroke="#876337" stroke-width="0.961939"/>
<rect x="-0.571858" y="0.368297" width="0.961939" height="25.8156" transform="matrix(-0.977353 -0.211615 -0.211615 0.977353 449.21 144.999)" fill="#876337" stroke="#876337" stroke-width="0.961939"/>
<rect x="-1.32131" y="0.850968" width="4.94241" height="24.555" transform="matrix(-0.977353 -0.211615 -0.211615 0.977353 466.457 148.883)" fill="#876337" stroke="#876337" stroke-width="2.22261"/>
<rect x="-1.32131" y="0.850968" width="4.94241" height="24.555" transform="matrix(-0.977353 -0.211615 -0.211615 0.977353 404.61 135.493)" fill="#876337" stroke="#876337" stroke-width="2.22261"/>
<rect x="-1.32131" y="0.850968" width="4.94241" height="24.555" transform="matrix(-0.977353 -0.211615 -0.211615 0.977353 435.938 142.275)" fill="#876337" stroke="#876337" stroke-width="2.22261"/>
<rect x="-0.40782" y="0.26265" width="0.686006" height="26.0916" transform="matrix(-0.977353 -0.211615 -0.211615 0.977353 458.335 146.94)" fill="#876337" stroke="#876337" stroke-width="0.686006"/>
<path d="M377.517 96.6366C401.25 95.469 420.667 98.094 420.888 102.587L422.446 134.271C423.193 149.456 415.67 165.531 405.127 173.674L371.474 166.261L336.731 113.307C336.51 108.814 353.783 97.8042 377.517 96.6366Z" fill="#BD9566"/>
<path d="M357.925 97.8132C380.982 92.0651 400.539 90.875 401.627 95.2401L409.3 126.02C414.407 146.502 408.042 168.18 392.617 182.606L381.727 192.81L367.322 188.912C346.818 183.443 331.022 167.29 325.916 146.808L318.242 116.028C317.154 111.663 334.869 103.561 357.925 97.8132Z" fill="white" stroke="#876337" stroke-width="2.22261" stroke-miterlimit="10" stroke-linecap="round" stroke-linejoin="round"/>
<path d="M371.992 161.274C360.691 163.593 349.649 156.313 347.33 145.012C345.01 133.711 352.291 122.669 363.591 120.35C374.892 118.03 385.934 125.311 388.254 136.611C390.573 147.912 383.293 158.954 371.992 161.274Z" stroke="#876337" stroke-width="2.22261" stroke-miterlimit="10" stroke-linecap="round" stroke-linejoin="round"/>
<path d="M368.522 144.366C364.619 145.167 360.804 142.652 360.003 138.748C359.201 134.844 361.717 131.03 365.621 130.228C369.524 129.427 373.339 131.942 374.14 135.846C374.942 139.75 372.426 143.564 368.522 144.366Z" fill="#876337" stroke="#876337" stroke-width="2.22261" stroke-miterlimit="10" stroke-linecap="round" stroke-linejoin="round"/>
<mask id="mask0_40_18371" style="mask-type:alpha" maskUnits="userSpaceOnUse" x="345" y="119" width="46" height="44">
<path d="M371.994 161.256C360.524 163.611 349.355 156.411 347.049 145.175C344.743 133.94 352.172 122.923 363.642 120.568C375.113 118.213 386.281 125.413 388.588 136.649C390.894 147.884 383.465 158.901 371.994 161.256Z" fill="#F5F5F5" stroke="#BD9566" stroke-width="2.22261" stroke-miterlimit="10" stroke-linecap="round" stroke-linejoin="round"/>
</mask>
<g mask="url(#mask0_40_18371)">
<path d="M376.217 175.573C368.068 177.245 360.107 171.995 358.434 163.847C356.761 155.698 362.011 147.736 370.16 146.064C378.309 144.391 386.27 149.641 387.943 157.79C389.616 165.938 384.366 173.9 376.217 175.573Z" fill="#876337" stroke="#876337" stroke-width="2.22261" stroke-miterlimit="10" stroke-linecap="round" stroke-linejoin="round"/>
</g>
</g>
</g>
<rect x="7.54762" y="5.8816" width="458.905" height="235.476" rx="8.21429" stroke="#D7D9E0" stroke-width="1.09524"/>
</g>
<defs>
<filter id="filter0_d_40_18371" x="0.428571" y="0.953032" width="473.143" height="249.714" filterUnits="userSpaceOnUse" color-interpolation-filters="sRGB">
<feFlood flood-opacity="0" result="BackgroundImageFix"/>
<feColorMatrix in="SourceAlpha" type="matrix" values="0 0 0 0 0 0 0 0 0 0 0 0 0 0 0 0 0 0 127 0" result="hardAlpha"/>
<feOffset dy="2.19048"/>
<feGaussianBlur stdDeviation="3.28571"/>
<feColorMatrix type="matrix" values="0 0 0 0 0 0 0 0 0 0 0 0 0 0 0 0 0 0 0.05 0"/>
<feBlend mode="normal" in2="BackgroundImageFix" result="effect1_dropShadow_40_18371"/>
<feBlend mode="normal" in="SourceGraphic" in2="effect1_dropShadow_40_18371" result="shape"/>
</filter>
<clipPath id="clip0_40_18371">
<rect x="7" y="5.33398" width="460" height="236.571" rx="8.7619" fill="white"/>
</clipPath>
<clipPath id="clip1_40_18371">
<rect width="157.714" height="236.571" fill="white" transform="translate(309.286 5.33398)"/>
</clipPath>
</defs>
</svg>
