<svg width="200" height="219" viewBox="0 0 200 219" fill="none" xmlns="http://www.w3.org/2000/svg">
<g clip-path="url(#clip0_62_17736)">
<rect x="0.173737" y="19.0254" width="199.826" height="199.975" rx="99.9131" fill="#D5C9DC"/>
<path fill-rule="evenodd" clip-rule="evenodd" d="M162.172 216.368C161.696 211.959 161.403 207.52 161.235 203.089C161.067 198.663 161.287 194.183 161.383 189.755C161.58 180.749 161.9 171.721 161.181 162.728C160.502 154.229 158.942 145.79 156.481 137.624C155.283 133.647 154.02 129.51 152.049 125.835C150.067 122.14 146.928 119.68 143.48 117.424C139.808 115.022 136.166 112.574 132.509 110.149C129.439 108.114 123.915 105.746 121.396 103.025C118.746 100.162 118.247 93.0655 116.482 89.6741C114.764 86.3708 109.898 84.216 106.152 84.216C99.9503 84.216 95.2518 83.8999 90.1527 89.6226C87.6087 92.478 89.6329 95.3646 86.9662 98.1052C84.5146 100.625 78.2448 103.214 75.0849 104.676C71.3003 106.427 67.4202 107.973 63.4838 109.35C59.4684 110.755 55.3518 111.802 51.3138 113.128C47.4434 114.399 42.3894 119.637 39.3846 122.409C36.5911 124.986 35.8978 124.697 33.7741 127.828C29.1132 134.698 24.4472 141.647 20.7356 149.086C18.8869 152.791 17.0968 156.688 16.426 160.803C15.7105 165.192 16.4199 169.433 17.5803 173.683C18.7614 178.007 22.512 182.125 23.7339 186.438C24.297 188.426 22.3641 190.595 23.2532 192.469C23.6972 193.404 24.2564 194.237 24.893 195.052C25.3836 195.68 27.2965 195.541 27.544 196.31C27.7941 197.086 26.4101 198.698 26.3895 199.501C26.3603 200.651 26.3144 201.801 26.2766 202.951L26.053 209.75C25.9061 214.217 25.7592 218.685 25.6123 223.152C25.5642 224.611 25.4942 226.036 25.8447 227.419C25.7182 227.302 25.5979 227.175 25.4881 227.032C25.1666 226.613 24.4849 226.968 24.7577 227.458C25.2131 228.275 25.868 228.851 26.6374 229.264C27.5316 230.579 162.946 233.516 163.612 229.671C163.986 227.514 163.306 225.205 163.034 223.061C162.751 220.829 162.414 218.606 162.172 216.368Z" fill="white"/>
<path fill-rule="evenodd" clip-rule="evenodd" d="M24.6172 160.811C24.9484 159.864 26.4638 160.274 26.1301 161.227C24.4152 166.127 25.6318 171.46 27.4858 176.139C27.8579 177.077 26.3398 177.481 25.9728 176.555C24.0225 171.634 22.8159 165.957 24.6172 160.811M36.1162 188.804C40.9528 189.482 45.7934 189.901 50.6633 190.24C50.881 190.255 51.0693 190.222 51.2321 190.152C51.087 192.376 50.9693 194.603 50.8771 196.83C49.5493 196.793 48.194 196.881 46.878 196.845C45.1579 196.798 43.4398 196.712 41.7236 196.581C38.4011 196.331 35.0846 195.932 31.7993 195.38C30.5715 195.174 29.0123 195.049 27.6139 194.642C26.2919 194.257 25.1152 193.619 24.4973 192.417C23.9717 191.4 23.8756 190.154 23.8756 189.029C23.8756 188.254 24.009 187.467 24.0894 186.686C24.1894 186.616 24.2796 186.532 24.3522 186.438C25.8114 186.898 27.3256 187.221 28.8083 187.533C31.2227 188.046 33.6724 188.461 36.1162 188.804M33.3884 170.711C33.4151 172.207 33.8299 173.565 34.637 174.824C35.183 175.677 33.8244 176.461 33.2821 175.615C32.332 174.132 31.8507 172.468 31.8193 170.711C31.8013 169.702 33.3704 169.705 33.3884 170.711M157.369 187.027C158.024 187.063 158.683 187.086 159.34 187.12C159.919 187.615 160.721 187.868 161.454 187.711C161.479 187.774 161.502 187.845 161.523 187.927C161.653 188.43 161.717 188.97 161.792 189.482C161.866 189.987 161.923 190.496 161.963 191.005C161.982 191.261 162.106 191.84 161.949 192.063C161.808 192.265 161.496 192.247 161.28 192.273C160.699 192.335 160.111 192.365 159.527 192.414C158.422 192.509 157.318 192.605 156.216 192.701C155.135 192.795 153.949 192.766 152.891 193.05C152.711 190.934 152.546 188.819 152.393 186.702C154.031 186.943 155.743 186.937 157.369 187.027M20.053 183.519C20.712 184.788 21.32 186.037 22.5811 186.8C22.7459 186.898 22.9302 186.95 23.1185 186.964C22.9773 187.569 22.8891 188.187 22.8106 188.758C22.638 190.017 22.6007 191.318 22.9165 192.558C23.2244 193.766 23.7344 194.844 24.7347 195.617C25.1995 195.977 25.7075 196.251 26.241 196.468C26.1507 196.72 26.0978 196.971 26.1252 197.247C25.9977 197.886 25.9134 198.538 25.8212 199.162C25.6192 200.547 25.4172 201.935 25.2583 203.328C24.9406 206.099 24.6915 208.869 24.4816 211.65C24.2718 214.422 24.1208 217.199 23.9952 219.978C23.9305 221.398 23.8736 222.819 23.8207 224.241C23.7677 225.703 23.5304 227.198 24.1776 228.554C24.6994 229.65 26.4626 229.587 27.0039 228.554C27.6904 227.241 27.4884 225.681 27.506 224.241C27.5237 222.885 27.5472 221.527 27.5766 220.171C27.6355 217.395 27.7218 214.62 27.7904 211.844C27.8571 209.134 27.9395 206.425 27.9944 203.715C28.0218 202.297 28.0238 200.878 28.0316 199.46C28.0356 198.673 28.0689 197.834 28.0101 197.014C28.5004 197.129 28.9946 197.227 29.483 197.327C33.2115 198.09 36.9792 198.646 40.7704 198.99C42.6749 199.162 44.5852 199.283 46.4955 199.352C47.8998 199.403 49.3551 199.501 50.781 199.448C50.6692 202.845 50.6182 206.243 50.6241 209.642C50.628 212.094 50.6614 214.546 50.7222 216.997C50.7555 218.287 50.783 219.576 50.8222 220.866C50.8399 221.445 50.8399 222.03 50.8791 222.607C50.8909 222.787 50.9164 222.962 50.9497 223.134C50.8203 223.5 50.7124 223.862 50.6241 224.2C50.1926 225.844 50.1926 227.423 50.3848 229.098C50.5496 230.518 51.748 231.835 53.3307 231.336C53.5877 231.256 53.8446 231.172 54.0996 231.086C56.4296 231.35 58.7734 231.411 61.1368 231.455C64.5907 231.522 68.0466 231.544 71.5024 231.561C78.2807 231.597 85.061 231.614 91.8413 231.634C105.467 231.673 119.092 231.71 132.717 231.749C136.499 231.761 140.28 231.771 144.062 231.782C146.019 231.788 147.972 231.79 149.928 231.865C150.84 231.9 151.754 231.949 152.666 231.962C153.723 231.98 154.659 231.677 155.669 231.401C156.239 231.242 156.465 230.671 156.343 230.188C157.257 230.405 158.365 229.943 158.677 228.916C158.905 228.17 158.821 227.362 158.481 226.671V226.669C157.826 222.543 156.995 218.436 156.341 214.307C155.626 209.785 154.937 205.254 154.331 200.714C153.876 197.286 153.501 199.716 153.178 196.272C154.588 196.382 156.183 195.953 157.579 195.771C158.581 195.642 159.591 195.538 160.595 195.401C160.521 196.411 160.543 197.44 160.515 198.409C160.462 200.332 160.486 202.248 160.535 204.171C160.629 207.883 160.839 205.723 161.174 209.419C161.513 213.143 161.929 216.853 162.433 220.559C162.692 222.467 162.969 224.372 163.261 226.276C163.396 227.164 163.536 228.051 163.679 228.939C163.849 229.986 163.904 230.978 164.691 231.765C165.289 232.361 166.511 232.311 166.907 231.479C167.409 230.428 167.182 229.528 166.995 228.425C166.844 227.538 166.699 226.652 166.556 225.766C166.25 223.865 165.96 221.964 165.687 220.06C165.161 216.391 164.665 212.716 164.222 209.038C163.775 205.33 163.312 207.496 162.873 203.788C162.651 201.917 162.429 200.05 162.17 198.186C162.039 197.227 161.957 196.206 161.784 195.217C161.839 195.21 161.894 195.2 161.949 195.19C163.141 194.973 164.159 194.302 164.459 193.077C164.746 191.905 164.404 190.557 164.163 189.406C163.957 188.426 163.771 187.175 163.139 186.336C165.367 183.504 166.816 179.942 167.74 176.516C168.747 172.785 169.169 168.89 169.258 165.033C169.362 160.566 169.024 156.124 168.257 151.756C168.239 150.83 168.196 149.905 168.127 148.981C167.452 139.91 164.62 129.173 155.641 124.935C155.606 124.917 155.569 124.901 155.531 124.886C154.827 124.046 153.949 123.291 153.239 122.585C151.981 121.332 150.667 120.135 149.275 119.031C146.517 116.846 143.493 115.101 140.349 113.529C137.169 111.938 133.943 110.446 130.836 108.71C128.13 107.195 125.694 105.372 123.381 103.313C120.783 100.998 118.933 97.8775 118.207 94.4709C118.17 94.293 117.905 94.3419 117.901 94.512C117.711 100.756 121.936 106.274 126.798 109.764C132.611 113.934 139.631 115.908 145.527 119.951C146.992 120.955 148.363 122.088 149.667 123.291C147.668 123.088 145.635 123.217 143.761 123.769C143.024 123.724 142.283 123.71 141.543 123.675C139.853 123.59 138.16 123.512 136.467 123.438C133.017 123.285 129.565 123.147 126.113 123.025C119.341 122.786 112.567 122.606 105.792 122.487C92.1787 122.246 78.5475 122.199 64.9359 122.593C61.2447 122.698 41.8354 121.965 40.0389 122.172C42.6808 119.89 45.5796 118.028 48.7667 116.495C52.7541 114.584 56.8749 113.308 61.1329 112.142C69.902 109.741 79.0084 107.426 86.026 101.327C87.7696 99.8107 89.3191 98.0675 90.588 96.1362C91.8001 94.293 93.1476 91.9331 93.1809 89.6848C93.2044 88.0883 90.9764 87.507 90.184 88.8747C89.6917 89.722 89.4485 90.6514 89.0464 91.5398C88.6463 92.4203 88.1717 93.2695 87.6441 94.0817C86.6066 95.6784 85.3199 97.1027 83.9195 98.3882C80.9344 101.131 77.3177 103.141 73.5755 104.661C65.0791 108.111 55.7863 109.567 47.7351 114.114C44.2126 116.104 40.841 118.85 38.7248 122.352C38.3835 122.405 38.0442 122.467 37.7049 122.538C37.9579 122.219 38.2129 121.9 38.4698 121.583C38.6385 121.376 38.3776 121.102 38.1717 121.285C34.1686 124.839 30.4813 128.676 27.1392 132.859C23.9423 136.863 20.9611 141.058 18.8507 145.746C15.0575 154.168 14.222 163.801 16.1813 172.806C16.7148 175.259 17.468 177.662 18.427 179.985C18.9213 181.184 19.4567 182.366 20.053 183.519" fill="black"/>
<path fill-rule="evenodd" clip-rule="evenodd" d="M106.473 7.8795C117.609 7.8795 131.557 20.5532 135.639 25.9464C139.072 30.4807 138.586 53.8399 138.586 67.6967C138.586 70.5948 137.273 76.0797 136.796 78.8518C135.049 89.0099 127.439 97.5292 112.376 97.5292C100.112 97.5292 90.6733 93.6536 81.5462 83.7412C79.464 81.4798 69.2948 89.5756 67.2151 86.6601C61.7829 86.6601 57.2407 36.0251 67.9061 20.8375C78.5715 5.64996 95.3361 7.8795 106.473 7.8795Z" fill="white"/>
<path fill-rule="evenodd" clip-rule="evenodd" d="M73.0008 11.446C79.4359 5.60529 88.0088 2.79547 96.6582 3.00288C101.138 3.1105 105.602 3.96166 109.832 5.4194C111.949 6.15121 113.998 7.10608 115.958 8.18618C116.664 8.57451 117.315 9.02953 117.941 9.51276L118.097 9.63413H118.099C119.78 10.2368 121.281 11.3189 122.642 12.5848C125.37 12.3676 128.12 12.6122 130.758 13.4517C134.429 14.6218 137.828 16.7643 140.215 19.807C142.996 23.3493 143.92 27.646 143.59 32.0815L143.529 32.835C143.203 36.7532 142.619 41.793 139.395 44.3675C139.15 44.5632 138.88 44.7119 138.599 44.8019C140.676 48.3513 142.381 52.2921 143.4 56.2721C147.294 71.4737 144.301 87.3268 139.619 101.979C139.235 103.186 137.405 103.988 136.473 102.808C134.81 100.699 132.394 99.0905 129.675 98.7892C127.998 98.6033 126.329 98.9398 124.744 98.1806C124.123 97.8813 123.522 97.3921 123.091 96.7972C120.416 97.8089 117.535 98.2863 114.677 98.1689C109.987 97.9771 104.974 96.357 101.748 92.8036C101.23 92.2333 101.099 91.5928 101.218 91.0156C101.623 90.8716 102.038 90.7644 102.466 90.6972C106.557 93.1028 111.067 94.7102 115.914 94.8112C118.715 94.8695 121.446 94.4788 123.717 92.7342C124.209 92.3565 124.66 91.9384 125.078 91.4891C129.826 88.4421 133.173 83.2669 134.765 77.7233C136.248 72.5537 136.065 67.1709 135.555 61.8682L135.286 59.07C134.894 54.9631 134.53 50.8439 134.428 46.7194L134.459 46.7179V46.7179C135.462 46.6533 135.469 45.0874 134.459 45.1525C131.847 45.3212 129.254 44.8937 126.65 45.0799C126.628 43.8517 126.54 42.629 126.178 41.4444C125.971 40.7676 124.79 40.6341 124.665 41.4444C124.497 42.5284 124.436 43.6063 124.418 44.6952C120.52 44.6436 116.627 44.3164 112.729 44.4509C112.01 43.6858 111.781 42.3292 111.445 41.3855C111.396 41.2466 111.347 41.1096 111.296 40.9707C111 42.3192 110.581 43.6382 110.03 44.9295L109.074 44.9327C103.65 44.9581 98.1156 45.1198 92.8191 46.2436C92.451 45.9616 92.2319 45.4697 92.1727 45.023C91.7885 42.1162 91.2402 39.2866 90.2684 36.5165L90.1294 36.1257C90.118 36.0933 90.106 36.0588 90.0935 36.0226C89.3774 37.1756 88.5231 38.2505 87.5912 39.2513C87.0421 39.8413 86.4662 40.4054 85.8753 40.9535C85.3012 41.5894 84.7079 42.2157 84.1328 42.8536C84.1554 42.9696 84.175 43.0874 84.1909 43.2074C84.3668 44.5311 84.3851 45.8736 84.2562 47.2024C84.0232 49.6046 83.3434 51.9194 82.2513 54.0608L82.2168 54.2752C82.051 55.2787 81.815 56.3159 81.264 57.0716C81.9516 57.8402 82.4814 58.7582 82.7885 59.7783C83.0619 60.6864 81.8026 61.4734 81.1495 60.7302C80.6307 60.1399 80.0543 59.6513 79.4211 59.2615C79.3811 59.3157 79.309 59.3423 79.228 59.2971C77.4647 58.3207 74.4698 58.6162 72.7085 59.5358C70.5177 60.6785 69.6626 63.0246 69.9058 65.402C70.1392 67.6737 71.1355 70.329 73.0674 71.4932C73.954 72.0274 74.6443 72.0724 75.5858 71.8161C75.8868 71.7345 76.26 71.4844 76.4202 71.3601L76.5778 71.234C77.195 70.7474 77.7698 70.4142 78.4983 70.4014C79.2435 70.1695 79.9924 70.4912 80.2774 71.2707L80.2949 71.321C80.4283 71.7182 80.6715 72.2172 80.6185 72.8238C80.5636 73.4734 80.2655 74.0643 79.8203 74.5398C79.7438 74.622 79.6614 74.7042 79.5771 74.7805C87.2458 83.0632 88.2304 95.9696 84.298 106.317C84.1273 106.771 83.9449 107.219 83.7547 107.663C83.0976 109.185 80.5675 108.714 80.2459 107.205C80.1498 106.753 80.0439 106.303 79.9281 105.857C79.7155 105.032 79.4718 104.216 79.1971 103.411L79.0926 103.11C78.8592 102.444 78.6415 101.773 78.4062 101.108L78.3826 101.032C78.3738 101.002 78.364 100.967 78.3532 100.928L77.9551 101.795V101.795L76.7449 104.411C76.1786 105.632 74.3794 104.968 74.3125 103.792L74.3109 103.751C74.305 103.534 74.2972 103.319 74.2835 103.106C74.1972 101.507 73.9206 99.9534 73.4813 98.433L73.3228 98.6296C70.9625 101.541 68.1925 104.269 64.3925 104.941C63.4393 105.109 62.3606 104.115 63.0157 103.155C63.2863 102.757 63.5472 102.35 63.7943 101.937C63.5805 101.838 63.3785 101.734 63.1922 101.628C61.7506 100.82 60.5503 99.6697 59.5578 98.3646C57.4533 95.5978 56.7002 92.1149 56.5158 88.7063C56.3197 85.104 56.6374 81.3061 57.624 77.831C58.0515 76.3282 58.6301 74.8861 59.299 73.4871C59.2519 73.3619 59.2068 73.2366 59.1617 73.1114C58.4399 71.1038 57.8476 69.0513 57.3553 66.9752C56.3629 62.784 55.8294 58.4596 55.7646 54.153C55.647 46.4377 56.9807 38.5992 59.7912 31.4044C62.694 23.9846 67.0599 16.8367 73.0008 11.446ZM69.386 78.9013C68.853 78.064 67.5193 78.8185 68.0143 79.6616L68.0327 79.6918C68.8781 81.0204 69.2742 82.5309 69.7606 84.0122C70.0725 84.9651 71.5886 84.5581 71.2728 83.5954L71.1683 83.274C70.6843 81.7719 70.2427 80.2454 69.386 78.9013ZM74.0285 62.9189L74.3826 62.748C75.4996 62.2162 76.4784 61.8539 77.7981 62.3182C79.5653 62.9385 81.458 64.9128 80.2635 66.8284C79.8242 67.5348 79.0436 67.8166 78.2394 67.6502C76.8838 67.3698 76.5339 66.1518 75.846 65.1521L75.7276 64.9828C75.3082 64.3778 74.7778 63.5415 74.0795 63.3044C73.9206 63.2496 73.8539 63.0031 74.0285 62.9189ZM75.0246 22.2472L75.1386 22.1453C75.8976 21.4761 74.7836 20.3725 74.0285 21.0378C70.5726 24.0844 69.3723 28.8528 67.5797 32.9169C67.1776 33.8307 68.5289 34.629 68.9349 33.7074C70.6449 29.8293 71.78 25.1903 75.0246 22.2472V22.2472ZM116.554 20.9145C115.651 20.5085 114.861 21.8195 115.729 22.2512L115.761 22.2666C118.813 23.6421 120.112 26.7572 121.355 29.6492C121.751 30.5728 123.103 29.7764 122.71 28.8607L122.486 28.3417C121.189 25.3614 119.675 22.3236 116.554 20.9145ZM121.338 19.0322C120.38 18.7015 119.971 20.212 120.92 20.5427C123.507 21.4409 125.282 23.378 126.778 25.593C127.339 26.4226 128.698 25.6399 128.132 24.8025C126.394 22.2314 124.331 20.0731 121.338 19.0322Z" fill="black"/>
<path fill-rule="evenodd" clip-rule="evenodd" d="M116.085 83.7894C114.767 83.2528 113.59 82.3578 112.73 81.2144C112.431 80.8169 112.354 80.3971 112.416 80.0132C112.487 79.5815 112.743 79.1903 113.092 78.9279C113.442 78.6646 113.88 78.5348 114.304 78.601C114.672 78.6585 115.038 78.8595 115.328 79.2764L115.389 79.3598C115.9 80.0499 116.566 80.6161 117.325 80.9811C118.057 81.3329 118.876 81.497 119.722 81.4016C121.335 81.2198 122.447 80.3495 123.629 79.1678C123.775 79.0186 123.922 78.8647 124.069 78.7083C124.162 78.5666 124.291 78.4755 124.434 78.4277C124.594 78.3746 124.774 78.3776 124.938 78.435C125.097 78.4904 125.24 78.5953 125.335 78.7349C125.425 78.8676 125.477 79.0315 125.46 79.2201C125.352 80.4448 124.71 81.5378 123.799 82.3961C122.786 83.3493 121.444 84.0087 120.18 84.24C118.788 84.4947 117.37 84.3122 116.085 83.7894V83.7894ZM120.837 64.8957C122.318 65.7938 124.575 67.8881 122.981 70.1147C121.106 72.0779 118.406 69.8269 117.075 68.8089C115.841 68.0199 114.455 70.0491 115.6 70.9704C125.215 78.0723 129.117 65.1305 121.586 63.8397C120.757 63.6975 120.449 64.6178 120.837 64.8957ZM103.607 56.6343C103.77 54.6079 106.864 54.1478 107.171 56.153C107.447 57.9493 107.123 59.5993 106.312 61.2165C105.537 62.7616 103.589 62.0407 103.442 60.6339C103.244 58.748 103.505 57.8949 103.607 56.6343ZM127.155 55.7372C127.586 55.1737 128.209 54.789 128.955 55.0064C131.286 55.686 130.599 58.9875 129.78 60.5945C129.335 61.4672 127.898 61.6885 127.248 60.9201C126.189 59.6671 125.682 57.1646 127.028 55.9304C127.064 55.8666 127.105 55.8022 127.155 55.7372ZM106.279 47.7674L106.647 47.7031C107.786 47.5066 109.202 47.3177 110.008 48.2313C110.436 48.7158 110.583 49.6163 110.008 50.08C108.998 50.896 107.881 50.5798 106.67 50.6488C105.672 50.706 104.713 50.8707 103.751 51.1449C101.643 51.7461 99.9243 52.8439 98.1232 54.0492C97.8868 54.2073 97.6456 53.9057 97.7584 53.6852C98.7981 51.6536 100.813 49.9847 102.831 48.9674C103.908 48.4245 105.087 47.974 106.279 47.7674ZM125.03 46.8573L125.312 46.9149C128.379 47.5544 132.363 48.832 133.816 51.8374C133.871 52.2624 133.813 52.3534 133.765 52.413L133.749 52.4328C133.71 52.4836 133.679 52.5536 133.494 52.6115C133.443 52.5993 133.391 52.5864 133.339 52.5727C132.673 52.3987 132.146 52.1589 131.637 51.9101L131.084 51.6383C130.442 51.3245 129.795 51.0222 129.109 50.799C127.646 50.3227 126.14 49.9872 124.612 49.8081C124.28 49.7693 123.961 49.6577 123.709 49.4665C123.471 49.285 123.288 49.0338 123.205 48.6998C123.097 48.2675 123.128 47.9403 123.36 47.5503C123.535 47.2575 123.785 47.0545 124.073 46.9379C124.365 46.8191 124.699 46.7911 125.03 46.8573Z" fill="black"/>
<path fill-rule="evenodd" clip-rule="evenodd" d="M137.375 66.6469C136.054 68.4168 133.606 68.9805 131.348 68.7858C126.478 68.3181 124.945 62.8001 124.785 58.5112C128.051 59.4277 124.509 52.9365 135.673 52.2227C139.608 51.8956 138.523 54.2667 140.262 55.9992C140.226 59.6351 139.62 63.5859 137.375 66.6469M114.178 62.469C111.303 75.9023 95.5575 72.707 93.9035 60.5978C95.4308 59.5224 95.0285 56.867 96.9259 55.9048C99.933 53.9881 103.692 54.07 107.107 54.115C111.472 54.4142 112.716 56.2181 114.958 58.1862C114.85 59.5007 114.539 61.0586 114.178 62.469M143.612 49.998C143.45 49.9712 143.289 49.9459 143.127 49.9222C143.001 49.8508 142.853 49.7958 142.681 49.7628C142.288 49.6632 141.897 49.5961 141.507 49.5599C135.911 48.3035 122.965 50.0874 122.431 54.8515C120.649 55.445 119.107 54.9136 117.041 54.9664C115.469 48.4105 88.2884 49.3358 86.9812 53.2883C86.9763 53.287 86.9714 53.2858 86.9663 53.2842C85.7103 52.8964 83.8586 52.9899 82.421 52.9285C79.3513 52.8643 76.2781 53.1373 73.2747 53.7832C67.6506 54.6749 59.975 55.7188 63.8864 62.7253C63.8872 62.7265 63.8878 62.7278 63.8888 62.729L63.8894 62.7284C64.5635 63.4178 65.7075 62.8627 65.7501 61.9295C64.435 58.6102 67.4052 58.2116 69.6906 57.2577C75.3771 55.2196 81.1665 54.9371 87.0477 55.5675C87.4902 56.0872 88.1616 56.5404 88.8712 56.7775C92.8034 57.4287 90.7311 60.3387 93.2167 60.762C92.7601 70.9059 105.105 76.4429 112.258 69.7747C115.113 66.9891 115.794 62.8627 116.456 59.1432C116.806 59.0647 117.029 58.8737 117.159 58.6209C118.001 57.7823 118.53 57.0078 120.195 56.7775C121.86 56.5474 123.142 57.0094 123.315 57.1509C123.359 57.2387 123.406 57.3268 123.46 57.4148C123.536 57.5461 123.64 57.6508 123.758 57.7332C122.113 67.8344 129.974 74.2227 137.909 68.9836C141.357 65.7478 142.086 60.7938 142.23 56.3721C142.697 56.0907 142.993 55.5454 142.831 54.8598C142.608 53.9147 143.131 53.0964 143.964 52.6855C145.046 52.1519 144.855 50.2032 143.612 49.998" fill="black"/>
</g>
<path fill-rule="evenodd" clip-rule="evenodd" d="M106.558 7.65786C117.713 7.65786 131.683 20.3363 135.772 25.7314C139.21 30.2674 138.723 53.6353 138.723 67.4972C138.723 70.3963 137.408 75.8833 136.931 78.6564C135.181 88.8183 127.558 97.3408 112.472 97.3408C100.187 97.3408 90.7338 93.4638 81.5921 83.5477C79.5065 81.2854 69.321 89.3842 67.238 86.4676C61.7971 86.4676 57.2476 35.8139 67.9301 20.6207C78.6126 5.4275 95.404 7.65786 106.558 7.65786Z" fill="white"/>
<path fill-rule="evenodd" clip-rule="evenodd" d="M73.0329 11.2255C79.4783 5.38262 88.065 2.57176 96.7283 2.77925C101.215 2.88691 105.686 3.73839 109.924 5.19667C112.043 5.92875 114.096 6.88397 116.059 7.96447C116.766 8.35294 117.418 8.80813 118.045 9.29154L118.202 9.41296H118.204C119.887 10.0158 121.39 11.0983 122.754 12.3648C125.486 12.1475 128.24 12.3922 130.882 13.2319C134.56 14.4024 137.964 16.5458 140.355 19.5896C143.14 23.1332 144.066 27.4315 143.735 31.8686L143.674 32.6224C143.348 36.5421 142.763 41.5837 139.534 44.1592C139.288 44.3549 139.017 44.5037 138.736 44.5937C140.817 48.1445 142.524 52.0868 143.545 56.0681C147.445 71.2754 144.447 87.1344 139.758 101.792C139.373 102.999 137.54 103.802 136.607 102.622C134.941 100.511 132.521 98.9025 129.798 98.601C128.118 98.4151 126.447 98.7517 124.859 97.9922C124.237 97.6928 123.636 97.2034 123.203 96.6083C120.524 97.6203 117.638 98.0979 114.776 97.9805C110.079 97.7887 105.058 96.1679 101.826 92.6132C101.307 92.0427 101.176 91.402 101.295 90.8246C101.701 90.6805 102.117 90.5732 102.545 90.5061C106.643 92.9125 111.16 94.5206 116.015 94.6216C118.82 94.6799 121.556 94.289 123.831 92.5438C124.323 92.166 124.775 91.7477 125.194 91.2982C129.949 88.2501 133.302 83.073 134.896 77.5274C136.381 72.3559 136.198 66.971 135.688 61.6664L135.418 58.8671C135.025 54.7587 134.661 50.638 134.559 46.512L134.59 46.5104V46.5104C135.594 46.4458 135.601 44.8793 134.59 44.9445C131.973 45.1132 129.376 44.6855 126.768 44.8719C126.746 43.6432 126.657 42.42 126.295 41.235C126.088 40.5579 124.905 40.4244 124.78 41.235C124.612 42.3194 124.551 43.3977 124.532 44.4871C120.629 44.4354 116.729 44.1081 112.825 44.2426C112.105 43.4772 111.875 42.1201 111.538 41.1761C111.489 41.0371 111.44 40.9001 111.389 40.7611C111.093 42.1102 110.673 43.4297 110.121 44.7214L109.164 44.7246C103.731 44.75 98.188 44.9118 92.883 46.036C92.5143 45.7539 92.2949 45.2618 92.2355 44.8149C91.8507 41.907 91.3015 39.0764 90.3282 36.3053L90.189 35.9143C90.1776 35.8819 90.1656 35.8474 90.153 35.8112C89.4358 36.9647 88.5801 38.0399 87.6467 39.0411C87.0967 39.6313 86.5199 40.1956 85.928 40.7439C85.353 41.38 84.7588 42.0066 84.1828 42.6447C84.2054 42.7608 84.225 42.8786 84.2409 42.9986C84.4172 44.3228 84.4354 45.6658 84.3064 46.9951C84.073 49.3982 83.3921 51.7139 82.2983 53.8561L82.2637 54.0706C82.0976 55.0745 81.8613 56.112 81.3094 56.868C81.9981 57.6368 82.5287 58.5553 82.8363 59.5757C83.1102 60.4841 81.8488 61.2714 81.1946 60.5279C80.675 59.9374 80.0977 59.4486 79.4636 59.0587C79.4235 59.1129 79.3512 59.1395 79.2701 59.0943C77.504 58.1176 74.5043 58.4131 72.7402 59.3331C70.5459 60.4763 69.6894 62.8232 69.933 65.2015C70.1667 67.4741 71.1647 70.1303 73.0997 71.2949C73.9876 71.8293 74.6791 71.8743 75.622 71.6179C75.9235 71.5363 76.2973 71.2861 76.4578 71.1618L76.6157 71.0357C77.2338 70.5488 77.8095 70.2155 78.5393 70.2027C79.2856 69.9708 80.0357 70.2925 80.3211 71.0723L80.3387 71.1227C80.4723 71.5201 80.7159 72.0192 80.6629 72.626C80.6079 73.2759 80.3093 73.867 79.8633 74.3427C79.7867 74.4249 79.7042 74.5071 79.6197 74.5834C87.3008 82.8692 88.287 95.7804 84.3482 106.131C84.1773 106.585 83.9946 107.034 83.804 107.478C83.1459 109.001 80.6118 108.529 80.2896 107.02C80.1934 106.568 80.0873 106.118 79.9714 105.671C79.7583 104.846 79.5143 104.029 79.2391 103.224L79.1345 102.923C78.9007 102.257 78.6827 101.586 78.4469 100.921L78.4234 100.844C78.4145 100.814 78.4047 100.78 78.3939 100.74L77.9951 101.608V101.608L76.783 104.225C76.2159 105.446 74.4138 104.782 74.3468 103.605L74.3451 103.565C74.3393 103.348 74.3314 103.132 74.3176 102.919C74.2312 101.32 73.9542 99.7657 73.5142 98.2448L73.3554 98.4413C70.9914 101.354 68.2169 104.083 64.4108 104.755C63.4561 104.923 62.3757 103.929 63.0318 102.968C63.3029 102.571 63.5642 102.164 63.8117 101.751C63.5976 101.651 63.3952 101.547 63.2086 101.441C61.7647 100.633 60.5625 99.4818 59.5684 98.1762C57.4606 95.4084 56.7062 91.9242 56.5215 88.5144C56.3251 84.9108 56.6433 81.1114 57.6315 77.635C58.0597 76.1317 58.6392 74.6891 59.3091 73.2896C59.262 73.1643 59.2168 73.039 59.1716 72.9137C58.4487 70.9054 57.8554 68.8521 57.3623 66.7753C56.3683 62.5825 55.834 58.2566 55.7692 53.9483C55.6513 46.2301 56.9871 38.3887 59.8022 31.1913C62.7096 23.7687 67.0825 16.6182 73.0329 11.2255ZM69.4124 78.7057C68.8785 77.8681 67.5427 78.6229 68.0384 79.4664L68.0569 79.4965C68.9036 80.8256 69.3004 82.3367 69.7876 83.8185C70.0999 84.7718 71.6185 84.3646 71.3022 83.4016L71.1975 83.08C70.7127 81.5774 70.2704 80.0503 69.4124 78.7057ZM74.0623 62.7175L74.4169 62.5465C75.5358 62.0145 76.5161 61.6521 77.838 62.1166C79.6079 62.7371 81.5037 64.7121 80.3073 66.6284C79.8673 67.3351 79.0854 67.6169 78.28 67.4505C76.9221 67.17 76.5717 65.9516 75.8827 64.9514L75.7641 64.7821C75.344 64.1769 74.8127 63.3403 74.1133 63.1031C73.9542 63.0483 73.8874 62.8017 74.0623 62.7175ZM75.0599 22.0307L75.1741 21.9287C75.9344 21.2593 74.8186 20.1553 74.0623 20.8208C70.6009 23.8685 69.3986 28.6388 67.6031 32.7043C67.2004 33.6185 68.5539 34.4171 68.9605 33.4951C70.6733 29.6156 71.8102 24.9748 75.0599 22.0307V22.0307ZM116.656 20.6975C115.751 20.2914 114.96 21.6029 115.83 22.0347L115.862 22.0501C118.919 23.4262 120.219 26.5424 121.465 29.4354C121.862 30.3594 123.215 29.5627 122.822 28.6466L122.597 28.1275C121.298 25.1461 119.782 22.1071 116.656 20.6975ZM121.447 18.8145C120.488 18.4837 120.078 19.9948 121.029 20.3256C123.62 21.2241 125.398 23.1619 126.897 25.3777C127.458 26.2077 128.82 25.4247 128.252 24.5869C126.512 22.0149 124.445 19.8558 121.447 18.8145Z" fill="black"/>
<path fill-rule="evenodd" clip-rule="evenodd" d="M116.014 83.71C114.69 83.1672 113.508 82.2618 112.644 81.1052C112.343 80.7032 112.265 80.2786 112.328 79.8902C112.399 79.4536 112.656 79.0578 113.007 78.7924C113.359 78.5261 113.799 78.3947 114.225 78.4617C114.594 78.5199 114.962 78.7232 115.254 79.1449L115.315 79.2292C115.828 79.9273 116.498 80.5001 117.261 80.8693C117.996 81.2251 118.818 81.3912 119.669 81.2946C121.289 81.1107 122.406 80.2304 123.594 79.035C123.741 78.8841 123.888 78.7284 124.036 78.5703C124.13 78.4269 124.259 78.3348 124.403 78.2864C124.563 78.2327 124.744 78.2358 124.91 78.2938C125.069 78.3498 125.212 78.4559 125.308 78.5972C125.399 78.7314 125.451 78.8972 125.434 79.088C125.325 80.3268 124.68 81.4324 123.764 82.3006C122.747 83.2648 121.398 83.9318 120.129 84.1657C118.73 84.4234 117.305 84.2388 116.014 83.71V83.71ZM120.789 64.5983C122.277 65.5068 124.544 67.6252 122.943 69.8775C121.059 71.8634 118.346 69.5864 117.009 68.5566C115.769 67.7586 114.377 69.8112 115.527 70.7431C125.187 77.9269 129.108 64.8359 121.541 63.5301C120.708 63.3863 120.399 64.3173 120.789 64.5983ZM103.477 56.2417C103.641 54.1919 106.749 53.7264 107.058 55.7548C107.335 57.5718 107.009 59.2409 106.195 60.8767C105.416 62.4396 103.459 61.7104 103.311 60.2873C103.113 58.3797 103.374 57.5168 103.477 56.2417ZM127.137 55.3342C127.57 54.7642 128.196 54.3751 128.945 54.5949C131.287 55.2823 130.597 58.622 129.774 60.2476C129.327 61.1303 127.883 61.3542 127.23 60.5769C126.166 59.3094 125.656 56.7781 127.009 55.5296C127.046 55.465 127.086 55.3999 127.137 55.3342ZM106.162 47.2724L106.532 47.2074C107.676 47.0086 109.099 46.8176 109.909 47.7417C110.338 48.2318 110.486 49.1427 109.909 49.6117C108.893 50.4371 107.771 50.1172 106.554 50.1871C105.552 50.2449 104.588 50.4116 103.622 50.6889C101.503 51.2971 99.777 52.4075 97.9674 53.6267C97.73 53.7866 97.4876 53.4816 97.6009 53.2585C98.6455 51.2035 100.67 49.5153 102.698 48.4863C103.78 47.9371 104.964 47.4815 106.162 47.2724ZM125.002 46.3519L125.285 46.4101C128.366 47.057 132.37 48.3493 133.829 51.3894C133.885 51.8193 133.826 51.9114 133.778 51.9716L133.762 51.9916C133.723 52.043 133.691 52.1139 133.506 52.1724C133.454 52.1601 133.402 52.147 133.35 52.1332C132.681 51.9571 132.152 51.7146 131.639 51.4629L131.084 51.188C130.439 50.8706 129.789 50.5648 129.1 50.339C127.63 49.8572 126.117 49.5179 124.581 49.3367C124.248 49.2974 123.928 49.1846 123.675 48.9912C123.435 48.8076 123.251 48.5534 123.168 48.2156C123.059 47.7783 123.091 47.4473 123.324 47.0529C123.5 46.7566 123.751 46.5513 124.04 46.4334C124.334 46.3132 124.669 46.2849 125.002 46.3519Z" fill="black"/>
<path fill-rule="evenodd" clip-rule="evenodd" d="M137.2 66.2564C135.879 68.0258 133.429 68.5895 131.169 68.3948C126.296 67.9273 124.762 62.4104 124.603 58.1224C127.87 59.0387 124.326 52.549 135.497 51.8353C139.435 51.5083 138.349 53.8789 140.089 55.6109C140.053 59.2461 139.446 63.196 137.2 66.2564M113.988 62.0794C111.111 75.5098 95.356 72.3152 93.7009 60.2086C95.2292 59.1334 94.8266 56.4786 96.7252 55.5167C99.7343 53.6003 103.496 53.6823 106.913 53.7273C111.281 54.0264 112.525 55.8299 114.769 57.7975C114.661 59.1117 114.35 60.6693 113.988 62.0794M143.441 49.6111C143.28 49.5843 143.118 49.559 142.956 49.5354C142.83 49.4639 142.682 49.409 142.51 49.3759C142.116 49.2763 141.725 49.2092 141.335 49.173C135.735 47.9169 122.781 49.7005 122.246 54.4636C120.463 55.0569 118.92 54.5256 116.853 54.5784C115.28 48.0239 88.0823 48.9491 86.7742 52.9007C86.7693 52.8994 86.7644 52.8982 86.7593 52.8966C85.5024 52.5089 83.6496 52.6024 82.211 52.541C79.1394 52.4768 76.0642 52.7497 73.0589 53.3955C67.4312 54.2869 59.7506 55.3306 63.6646 62.3356C63.6654 62.3368 63.666 62.3382 63.667 62.3394L63.6676 62.3388C64.3421 63.028 65.4869 62.473 65.5295 61.54C64.2136 58.2214 67.1857 57.8229 69.4725 56.8692C75.1626 54.8316 80.9557 54.5491 86.8407 55.1794C87.2835 55.699 87.9553 56.1521 88.6653 56.3892C92.6001 57.0402 90.5265 59.9496 93.0136 60.3727C92.5567 70.5144 104.909 76.0503 112.067 69.3835C114.924 66.5986 115.606 62.473 116.268 58.7543C116.619 58.6758 116.841 58.4849 116.971 58.2322C117.814 57.3937 118.343 56.6194 120.009 56.3892C121.675 56.1591 122.958 56.621 123.131 56.7624C123.175 56.8502 123.222 56.9383 123.277 57.0263C123.353 57.1576 123.456 57.2622 123.574 57.3446C121.929 67.4437 129.794 73.8305 137.735 68.5926C141.185 65.3575 141.914 60.4046 142.058 55.9838C142.526 55.7025 142.822 55.1573 142.66 54.4718C142.437 53.5269 142.96 52.7088 143.793 52.298C144.876 51.7645 144.685 49.8163 143.441 49.6111" fill="black"/>
<defs>
<clipPath id="clip0_62_17736">
<rect x="0.173737" y="19.0254" width="199.826" height="199.975" rx="99.9131" fill="white"/>
</clipPath>
</defs>
</svg>
