<svg width="474" height="251" viewBox="0 0 474 251" fill="none" xmlns="http://www.w3.org/2000/svg">
<g filter="url(#filter0_d_40_17344)">
<g clip-path="url(#clip0_40_17344)">
<rect x="7" y="5.14355" width="460" height="236.571" rx="8.7619" fill="white"/>
<path d="M50.9121 44.667V29.2331H47.1686L42.7834 40.3138H42.6978L38.3126 29.2331H34.5691V44.667H37.4463V34.2494H37.5318L41.7245 44.667H43.7567L47.9494 34.2494H48.035V44.667H50.9121ZM58.474 44.913C61.9394 44.913 64.1534 42.699 64.1534 38.9234C64.1534 35.2013 61.9073 32.9552 58.474 32.9552C55.0407 32.9552 52.7946 35.212 52.7946 38.9234C52.7946 42.6883 55.0086 44.913 58.474 44.913ZM58.474 42.5279C56.9338 42.5279 55.9605 41.2337 55.9605 38.9341C55.9605 36.6559 56.9552 35.3404 58.474 35.3404C59.9928 35.3404 60.9768 36.6559 60.9768 38.9341C60.9768 41.2337 60.0035 42.5279 58.474 42.5279ZM75.9721 33.2012H72.7099L70.3355 41.9075H70.2713L67.8862 33.2012H64.5384L68.5065 44.667H72.0361L75.9721 33.2012ZM84.3361 41.1588C84.0474 42.0359 83.1703 42.6027 82.0259 42.6027C80.4322 42.6027 79.3947 41.4797 79.3947 39.8432V39.6507H87.2989V38.6988C87.2989 35.212 85.1918 32.9552 81.8548 32.9552C78.4642 32.9552 76.3251 35.3297 76.3251 38.9876C76.3251 42.6562 78.4428 44.913 81.9724 44.913C84.8068 44.913 86.8603 43.4049 87.2026 41.1588H84.3361ZM81.8868 35.2655C83.2773 35.2655 84.2292 36.2709 84.2934 37.7362H79.4268C79.5338 36.303 80.5178 35.2655 81.8868 35.2655ZM94.7324 48.9132C97.6523 48.9132 99.0962 47.8543 100.07 44.913L104.016 33.2012H100.722L98.294 42.1642H98.2298L95.7912 33.2012H92.3686L96.3581 44.667C96.3688 44.7205 96.2511 45.1697 96.2511 45.2232C96.0372 46.1323 95.4704 46.496 94.3366 46.496C94.219 46.496 93.6521 46.4853 93.5451 46.4639V48.8811C93.6521 48.9025 94.6147 48.9132 94.7324 48.9132ZM110.113 44.913C113.578 44.913 115.792 42.699 115.792 38.9234C115.792 35.2013 113.546 32.9552 110.113 32.9552C106.679 32.9552 104.433 35.212 104.433 38.9234C104.433 42.6883 106.647 44.913 110.113 44.913ZM110.113 42.5279C108.573 42.5279 107.599 41.2337 107.599 38.9341C107.599 36.6559 108.594 35.3404 110.113 35.3404C111.632 35.3404 112.616 36.6559 112.616 38.9341C112.616 41.2337 111.642 42.5279 110.113 42.5279ZM127.996 33.2012H124.873V39.7684C124.873 41.2872 124.006 42.2819 122.616 42.2819C121.236 42.2819 120.477 41.469 120.477 39.9395V33.2012H117.354V40.5919C117.354 43.2659 119.001 44.8809 121.482 44.8809C123.215 44.8809 124.349 44.0466 124.916 42.6027H124.98V44.667H127.996V33.2012ZM130.028 44.667H133.151V38.2603C133.151 36.6452 134.05 35.704 135.59 35.704C136.039 35.704 136.467 35.7789 136.724 35.8858V33.137C136.51 33.0729 136.2 33.0194 135.836 33.0194C134.488 33.0194 133.515 33.8109 133.108 35.2655H133.044V33.2012H130.028V44.667ZM149.045 33.0194C147.387 33.0194 146.114 33.8537 145.494 35.2013H145.43V33.2012H142.35V48.4105H145.473V42.7418H145.537C146.147 44.0359 147.43 44.8488 149.099 44.8488C151.965 44.8488 153.74 42.6241 153.74 38.9341C153.74 35.2334 151.954 33.0194 149.045 33.0194ZM147.997 42.3353C146.467 42.3353 145.462 41.0091 145.462 38.9341C145.462 36.8805 146.467 35.5222 147.997 35.5222C149.558 35.5222 150.542 36.8591 150.542 38.9341C150.542 41.0198 149.558 42.3353 147.997 42.3353ZM158.757 44.8488C160.19 44.8488 161.612 44.1322 162.254 42.9129H162.318V44.667H165.335V36.7843C165.335 34.474 163.42 32.9552 160.479 32.9552C157.441 32.9552 155.548 34.4847 155.43 36.7094H158.286C158.436 35.8644 159.174 35.2869 160.34 35.2869C161.516 35.2869 162.265 35.9072 162.265 36.9768V37.7362L159.377 37.9073C156.521 38.0785 154.917 39.2871 154.917 41.3727C154.917 43.437 156.575 44.8488 158.757 44.8488ZM159.784 42.592C158.725 42.592 158.019 42.0572 158.019 41.2016C158.019 40.3887 158.682 39.8646 159.848 39.7791L162.265 39.6293V40.4636C162.265 41.7043 161.142 42.592 159.784 42.592ZM167.164 36.5704C167.164 38.2924 168.287 39.4047 170.501 39.8753L172.458 40.2818C173.581 40.5385 173.977 40.8807 173.977 41.4904C173.977 42.2391 173.249 42.7204 172.073 42.7204C170.832 42.7204 170.116 42.1856 169.923 41.1802H166.875C167.078 43.437 168.907 44.913 172.073 44.913C175.025 44.913 177.089 43.4263 177.089 41.1695C177.089 39.4903 176.105 38.5491 173.709 38.0464L171.752 37.6292C170.597 37.3832 170.169 36.9875 170.169 36.3992C170.169 35.6398 170.886 35.1478 171.966 35.1478C173.121 35.1478 173.816 35.7789 173.913 36.7094H176.79C176.725 34.4633 174.907 32.9552 171.966 32.9552C169.046 32.9552 167.164 34.3884 167.164 36.5704ZM178.437 36.5704C178.437 38.2924 179.56 39.4047 181.774 39.8753L183.731 40.2818C184.854 40.5385 185.25 40.8807 185.25 41.4904C185.25 42.2391 184.523 42.7204 183.346 42.7204C182.105 42.7204 181.389 42.1856 181.196 41.1802H178.148C178.351 43.437 180.18 44.913 183.346 44.913C186.298 44.913 188.362 43.4263 188.362 41.1695C188.362 39.4903 187.378 38.5491 184.983 38.0464L183.025 37.6292C181.87 37.3832 181.442 36.9875 181.442 36.3992C181.442 35.6398 182.159 35.1478 183.239 35.1478C184.394 35.1478 185.09 35.7789 185.186 36.7094H188.063C187.999 34.4633 186.18 32.9552 183.239 32.9552C180.319 32.9552 178.437 34.3884 178.437 36.5704ZM205.925 33.2012H202.844L201.101 41.7043H201.037L198.994 33.2012H195.999L193.967 41.7043H193.903L192.17 33.2012H189.026L192.074 44.667H195.357L197.422 36.5597H197.486L199.561 44.667H202.887L205.925 33.2012ZM212.235 44.913C215.701 44.913 217.915 42.699 217.915 38.9234C217.915 35.2013 215.668 32.9552 212.235 32.9552C208.802 32.9552 206.556 35.212 206.556 38.9234C206.556 42.6883 208.77 44.913 212.235 44.913ZM212.235 42.5279C210.695 42.5279 209.722 41.2337 209.722 38.9341C209.722 36.6559 210.716 35.3404 212.235 35.3404C213.754 35.3404 214.738 36.6559 214.738 38.9341C214.738 41.2337 213.765 42.5279 212.235 42.5279ZM219.53 44.667H222.653V38.2603C222.653 36.6452 223.551 35.704 225.091 35.704C225.541 35.704 225.968 35.7789 226.225 35.8858V33.137C226.011 33.0729 225.701 33.0194 225.337 33.0194C223.99 33.0194 223.016 33.8109 222.61 35.2655H222.546V33.2012H219.53V44.667ZM231.38 44.8488C233.07 44.8488 234.397 43.9611 234.953 42.699H235.006V44.667H238.087V29.2331H234.963V35.1692H234.899C234.343 33.8964 233.06 33.0194 231.402 33.0194C228.525 33.0194 226.706 35.2762 226.706 38.9127C226.706 42.5813 228.514 44.8488 231.38 44.8488ZM232.439 35.5222C233.99 35.5222 234.985 36.8484 234.985 38.9341C234.985 41.0305 233.99 42.3353 232.439 42.3353C230.867 42.3353 229.904 41.0412 229.904 38.9341C229.904 36.8378 230.867 35.5222 232.439 35.5222ZM239.98 36.5704C239.98 38.2924 241.103 39.4047 243.317 39.8753L245.274 40.2818C246.397 40.5385 246.793 40.8807 246.793 41.4904C246.793 42.2391 246.066 42.7204 244.889 42.7204C243.648 42.7204 242.932 42.1856 242.739 41.1802H239.691C239.894 43.437 241.723 44.913 244.889 44.913C247.841 44.913 249.905 43.4263 249.905 41.1695C249.905 39.4903 248.921 38.5491 246.526 38.0464L244.568 37.6292C243.413 37.3832 242.985 36.9875 242.985 36.3992C242.985 35.6398 243.702 35.1478 244.782 35.1478C245.937 35.1478 246.632 35.7789 246.729 36.7094H249.606C249.542 34.4633 247.723 32.9552 244.782 32.9552C241.862 32.9552 239.98 34.3884 239.98 36.5704ZM257.392 31.6503C258.301 31.6503 259.018 30.923 259.018 30.046C259.018 29.1582 258.301 28.4416 257.392 28.4416C256.483 28.4416 255.767 29.1582 255.767 30.046C255.767 30.923 256.483 31.6503 257.392 31.6503ZM255.841 44.667H258.965V33.2012H255.841V44.667ZM261.05 44.667H264.173V38.0891C264.173 36.6024 265.061 35.5757 266.462 35.5757C267.863 35.5757 268.569 36.4313 268.569 37.9287V44.667H271.692V37.2763C271.692 34.5917 270.259 32.9873 267.714 32.9873C265.949 32.9873 264.74 33.8216 264.131 35.2441H264.066V33.2012H261.05V44.667Z" fill="#333333"/>
<path d="M39.4207 77.9053V72.5917L43.8016 65.5582H42.0475L38.6763 71.1028H38.6249L35.2537 65.5582H33.4996L37.8805 72.5917V77.9053H39.4207ZM47.0446 78.0593C49.5003 78.0593 51.1603 76.2881 51.1603 73.4559C51.1603 70.6151 49.5003 68.8524 47.0446 68.8524C44.5803 68.8524 42.9203 70.6151 42.9203 73.4559C42.9203 76.2881 44.5803 78.0593 47.0446 78.0593ZM47.0446 76.7501C45.4702 76.7501 44.4348 75.5522 44.4348 73.4559C44.4348 71.3595 45.4702 70.1616 47.0446 70.1616C48.619 70.1616 49.6458 71.3595 49.6458 73.4559C49.6458 75.5522 48.619 76.7501 47.0446 76.7501ZM59.9735 69.0065H58.4847V74.2345C58.4847 75.749 57.6119 76.7416 56.1659 76.7416C54.7882 76.7416 54.1123 75.9629 54.1123 74.5169V69.0065H52.6234V74.7821C52.6234 76.8015 53.7615 78.0593 55.7038 78.0593C57.0728 78.0593 57.997 77.486 58.5275 76.4592H58.5617V77.9053H59.9735V69.0065ZM72.8939 71.9242C72.7057 70.3242 71.3794 68.8524 69.1547 68.8524C66.699 68.8524 65.0647 70.6493 65.0647 73.4559C65.0647 76.3223 66.7075 78.0593 69.1718 78.0593C71.1912 78.0593 72.68 76.81 72.911 75.0388H71.4478C71.1912 76.1084 70.3954 76.7501 69.1804 76.7501C67.6402 76.7501 66.5792 75.5266 66.5792 73.4559C66.5792 71.4365 67.6231 70.1616 69.1632 70.1616C70.4724 70.1616 71.2254 70.9574 71.4393 71.9242H72.8939ZM76.8813 78.0593C78.0792 78.0593 79.2086 77.3919 79.7391 76.3737H79.7734V77.9053H81.1852V71.7531C81.1852 69.9819 79.8675 68.8524 77.7797 68.8524C75.6748 68.8524 74.3571 70.0332 74.2544 71.5734H75.6919C75.8801 70.7007 76.5989 70.1616 77.7455 70.1616C78.9776 70.1616 79.6964 70.8119 79.6964 71.8986V72.643L77.1465 72.7885C75.0929 72.9082 73.9207 73.8666 73.9207 75.3896C73.9207 76.9897 75.1101 78.0593 76.8813 78.0593ZM77.215 76.7929C76.1454 76.7929 75.4352 76.2367 75.4352 75.3896C75.4352 74.5511 76.1197 74.0206 77.3176 73.9436L79.6964 73.7981V74.5254C79.6964 75.8089 78.6182 76.7929 77.215 76.7929ZM83.0762 77.9053H84.565V72.6687C84.565 71.1627 85.4806 70.1702 86.8839 70.1702C88.2529 70.1702 88.9289 70.9574 88.9289 72.3949V77.9053H90.4177V72.1296C90.4177 70.1103 89.2882 68.8524 87.3374 68.8524C85.9598 68.8524 85.01 69.4685 84.5137 70.4269H84.4795V69.0065H83.0762V77.9053ZM96.7324 67.4235C97.2544 67.4235 97.6651 67.0042 97.6651 66.4908C97.6651 65.9689 97.2544 65.5582 96.7324 65.5582C96.2191 65.5582 95.7998 65.9689 95.7998 66.4908C95.7998 67.0042 96.2191 67.4235 96.7324 67.4235ZM95.988 77.9053H97.4769V69.0065H95.988V77.9053ZM99.4877 77.9053H100.976V72.3264C100.976 71.0943 101.832 70.1702 103.013 70.1702C104.117 70.1702 104.835 70.8718 104.835 71.9414V77.9053H106.324V72.2494C106.324 71.0429 107.154 70.1702 108.335 70.1702C109.507 70.1702 110.183 70.8889 110.183 72.1039V77.9053H111.672V71.7617C111.672 69.999 110.534 68.8524 108.772 68.8524C107.522 68.8524 106.478 69.4856 105.982 70.5466H105.948C105.563 69.4685 104.664 68.8524 103.449 68.8524C102.251 68.8524 101.344 69.4856 100.925 70.4269H100.891V69.0065H99.4877V77.9053ZM117.893 68.8524C116.601 68.8524 115.565 69.5113 115.018 70.5124H114.984V69.0065H113.572V80.8744H115.061V76.4592H115.095C115.625 77.4347 116.652 78.0593 117.927 78.0593C120.169 78.0593 121.7 76.2453 121.7 73.4559C121.7 70.6664 120.16 68.8524 117.893 68.8524ZM117.602 76.7501C116.079 76.7501 115.052 75.441 115.052 73.4559C115.052 71.4793 116.079 70.1616 117.602 70.1616C119.185 70.1616 120.177 71.4451 120.177 73.4559C120.177 75.4752 119.185 76.7501 117.602 76.7501ZM126.894 78.0593C129.35 78.0593 131.01 76.2881 131.01 73.4559C131.01 70.6151 129.35 68.8524 126.894 68.8524C124.43 68.8524 122.77 70.6151 122.77 73.4559C122.77 76.2881 124.43 78.0593 126.894 78.0593ZM126.894 76.7501C125.32 76.7501 124.285 75.5522 124.285 73.4559C124.285 71.3595 125.32 70.1616 126.894 70.1616C128.469 70.1616 129.495 71.3595 129.495 73.4559C129.495 75.5522 128.469 76.7501 126.894 76.7501ZM132.516 77.9053H134.005V72.3606C134.005 71.1028 134.758 70.2728 135.913 70.2728C136.272 70.2728 136.589 70.3156 136.709 70.3584V68.9123C136.589 68.8952 136.366 68.8524 136.11 68.8524C135.066 68.8524 134.244 69.4771 133.953 70.4611H133.919V69.0065H132.516V77.9053ZM138.403 66.8588V69.0065H137.077V70.2301H138.403V75.595C138.403 77.3063 139.036 77.9737 140.67 77.9737C141.021 77.9737 141.432 77.9481 141.612 77.9053V76.656C141.509 76.6731 141.167 76.6988 140.995 76.6988C140.234 76.6988 139.892 76.3309 139.892 75.518V70.2301H141.62V69.0065H139.892V66.8588H138.403ZM151.126 68.8524C149.834 68.8524 148.799 69.5113 148.251 70.5124H148.217V69.0065H146.805V80.8744H148.294V76.4592H148.328C148.859 77.4347 149.886 78.0593 151.161 78.0593C153.402 78.0593 154.934 76.2453 154.934 73.4559C154.934 70.6664 153.394 68.8524 151.126 68.8524ZM150.835 76.7501C149.312 76.7501 148.286 75.441 148.286 73.4559C148.286 71.4793 149.312 70.1616 150.835 70.1616C152.418 70.1616 153.411 71.4451 153.411 73.4559C153.411 75.4752 152.418 76.7501 150.835 76.7501ZM159.041 78.0593C160.239 78.0593 161.369 77.3919 161.899 76.3737H161.933V77.9053H163.345V71.7531C163.345 69.9819 162.027 68.8524 159.94 68.8524C157.835 68.8524 156.517 70.0332 156.414 71.5734H157.852C158.04 70.7007 158.759 70.1616 159.905 70.1616C161.138 70.1616 161.856 70.8119 161.856 71.8986V72.643L159.306 72.7885C157.253 72.9082 156.081 73.8666 156.081 75.3896C156.081 76.9897 157.27 78.0593 159.041 78.0593ZM159.375 76.7929C158.305 76.7929 157.595 76.2367 157.595 75.3896C157.595 74.5511 158.28 74.0206 159.478 73.9436L161.856 73.7981V74.5254C161.856 75.8089 160.778 76.7929 159.375 76.7929ZM165.082 71.4622C165.082 72.7457 165.895 73.5243 167.572 73.9265L168.984 74.2687C170.002 74.5169 170.353 74.8848 170.353 75.5266C170.353 76.3309 169.609 76.8443 168.402 76.8443C167.196 76.8443 166.511 76.3565 166.331 75.3383H164.843C165.014 77.0068 166.314 78.0593 168.402 78.0593C170.387 78.0593 171.85 76.9641 171.85 75.4153C171.85 74.1404 171.2 73.4388 169.403 73.0024L167.991 72.6601C166.999 72.4205 166.545 72.0013 166.545 71.3852C166.545 70.6065 167.264 70.0675 168.351 70.0675C169.446 70.0675 170.131 70.6408 170.242 71.5734H171.662C171.602 69.999 170.302 68.8524 168.351 68.8524C166.426 68.8524 165.082 69.9391 165.082 71.4622ZM173.245 71.4622C173.245 72.7457 174.058 73.5243 175.735 73.9265L177.147 74.2687C178.165 74.5169 178.516 74.8848 178.516 75.5266C178.516 76.3309 177.772 76.8443 176.565 76.8443C175.359 76.8443 174.674 76.3565 174.494 75.3383H173.006C173.177 77.0068 174.477 78.0593 176.565 78.0593C178.55 78.0593 180.013 76.9641 180.013 75.4153C180.013 74.1404 179.363 73.4388 177.566 73.0024L176.154 72.6601C175.162 72.4205 174.708 72.0013 174.708 71.3852C174.708 70.6065 175.427 70.0675 176.514 70.0675C177.609 70.0675 178.293 70.6408 178.405 71.5734H179.825C179.765 69.999 178.465 68.8524 176.514 68.8524C174.588 68.8524 173.245 69.9391 173.245 71.4622ZM192.882 69.0065H191.411L189.631 76.2453H189.597L187.577 69.0065H186.14L184.129 76.2453H184.095L182.315 69.0065H180.835L183.325 77.9053H184.839L186.841 71.0173H186.876L188.886 77.9053H190.401L192.882 69.0065ZM197.794 78.0593C200.25 78.0593 201.91 76.2881 201.91 73.4559C201.91 70.6151 200.25 68.8524 197.794 68.8524C195.33 68.8524 193.67 70.6151 193.67 73.4559C193.67 76.2881 195.33 78.0593 197.794 78.0593ZM197.794 76.7501C196.219 76.7501 195.184 75.5522 195.184 73.4559C195.184 71.3595 196.219 70.1616 197.794 70.1616C199.368 70.1616 200.395 71.3595 200.395 73.4559C200.395 75.5522 199.368 76.7501 197.794 76.7501ZM203.415 77.9053H204.904V72.3606C204.904 71.1028 205.657 70.2728 206.812 70.2728C207.172 70.2728 207.488 70.3156 207.608 70.3584V68.9123C207.488 68.8952 207.266 68.8524 207.009 68.8524C205.965 68.8524 205.144 69.4771 204.853 70.4611H204.819V69.0065H203.415V77.9053ZM211.767 78.0593C213.05 78.0593 214.068 77.4261 214.642 76.3993H214.667V77.9053H216.088V65.5582H214.599V70.4525H214.565C214.034 69.4771 213.007 68.8524 211.732 68.8524C209.491 68.8524 207.959 70.6664 207.959 73.4559C207.959 76.2453 209.499 78.0593 211.767 78.0593ZM212.049 70.1616C213.581 70.1616 214.607 71.4707 214.607 73.4559C214.607 75.4495 213.581 76.7501 212.049 76.7501C210.475 76.7501 209.482 75.4752 209.482 73.4559C209.482 71.4451 210.475 70.1616 212.049 70.1616ZM217.944 71.4622C217.944 72.7457 218.757 73.5243 220.434 73.9265L221.846 74.2687C222.865 74.5169 223.215 74.8848 223.215 75.5266C223.215 76.3309 222.471 76.8443 221.264 76.8443C220.058 76.8443 219.373 76.3565 219.194 75.3383H217.705C217.876 77.0068 219.177 78.0593 221.264 78.0593C223.25 78.0593 224.713 76.9641 224.713 75.4153C224.713 74.1404 224.062 73.4388 222.266 73.0024L220.854 72.6601C219.861 72.4205 219.408 72.0013 219.408 71.3852C219.408 70.6065 220.126 70.0675 221.213 70.0675C222.308 70.0675 222.993 70.6408 223.104 71.5734H224.524C224.465 69.999 223.164 68.8524 221.213 68.8524C219.288 68.8524 217.944 69.9391 217.944 71.4622ZM232.456 78.0593C233.654 78.0593 234.784 77.3919 235.314 76.3737H235.349V77.9053H236.76V71.7531C236.76 69.9819 235.443 68.8524 233.355 68.8524C231.25 68.8524 229.932 70.0332 229.83 71.5734H231.267C231.455 70.7007 232.174 70.1616 233.321 70.1616C234.553 70.1616 235.272 70.8119 235.272 71.8986V72.643L232.722 72.7885C230.668 72.9082 229.496 73.8666 229.496 75.3896C229.496 76.9897 230.685 78.0593 232.456 78.0593ZM232.79 76.7929C231.721 76.7929 231.01 76.2367 231.01 75.3896C231.01 74.5511 231.695 74.0206 232.893 73.9436L235.272 73.7981V74.5254C235.272 75.8089 234.193 76.7929 232.79 76.7929ZM238.651 77.9053H240.14V72.6687C240.14 71.1627 241.056 70.1702 242.459 70.1702C243.828 70.1702 244.504 70.9574 244.504 72.3949V77.9053H245.993V72.1296C245.993 70.1103 244.863 68.8524 242.912 68.8524C241.535 68.8524 240.585 69.4685 240.089 70.4269H240.055V69.0065H238.651V77.9053ZM251.264 78.0593C252.547 78.0593 253.565 77.4261 254.139 76.3993H254.164V77.9053H255.585V65.5582H254.096V70.4525H254.062C253.531 69.4771 252.504 68.8524 251.229 68.8524C248.988 68.8524 247.456 70.6664 247.456 73.4559C247.456 76.2453 248.996 78.0593 251.264 78.0593ZM251.546 70.1616C253.078 70.1616 254.104 71.4707 254.104 73.4559C254.104 75.4495 253.078 76.7501 251.546 76.7501C249.972 76.7501 248.979 75.4752 248.979 73.4559C248.979 71.4451 249.972 70.1616 251.546 70.1616ZM37.9404 101.059C40.3961 101.059 42.0561 99.2881 42.0561 96.4559C42.0561 93.6151 40.3961 91.8524 37.9404 91.8524C35.4761 91.8524 33.8162 93.6151 33.8162 96.4559C33.8162 99.2881 35.4761 101.059 37.9404 101.059ZM37.9404 99.7501C36.366 99.7501 35.3307 98.5522 35.3307 96.4559C35.3307 94.3595 36.366 93.1616 37.9404 93.1616C39.5148 93.1616 40.5416 94.3595 40.5416 96.4559C40.5416 98.5522 39.5148 99.7501 37.9404 99.7501ZM44.0412 89.8588V92.0065H42.715V93.2301H44.0412V98.595C44.0412 100.306 44.6744 100.974 46.3087 100.974C46.6595 100.974 47.0702 100.948 47.2499 100.905V99.656C47.1473 99.6731 46.805 99.6988 46.6339 99.6988C45.8723 99.6988 45.5301 99.3309 45.5301 98.518V93.2301H47.2585V92.0065H45.5301V89.8588H44.0412ZM48.927 100.905H50.4159V95.72C50.4159 94.1798 51.3314 93.1702 52.8117 93.1702C54.2064 93.1702 54.9166 94.0173 54.9166 95.4291V100.905H56.4054V95.1553C56.4054 93.1702 55.2246 91.8524 53.2737 91.8524C51.9218 91.8524 50.9464 92.4343 50.4501 93.4269H50.4159V88.5582H48.927V100.905ZM64.2004 98.3554C63.9523 99.194 63.1223 99.7673 61.9929 99.7673C60.3928 99.7673 59.3917 98.6463 59.3917 96.9436V96.858H65.7749V96.2933C65.7749 93.598 64.2946 91.8524 61.8902 91.8524C59.4345 91.8524 57.86 93.7263 57.86 96.4901C57.86 99.2881 59.4088 101.059 61.9586 101.059C63.901 101.059 65.4069 99.9127 65.6636 98.3554H64.2004ZM61.8645 93.1445C63.2678 93.1445 64.2004 94.2055 64.2347 95.6943H59.4002C59.4943 94.2141 60.4698 93.1445 61.8645 93.1445ZM67.2808 100.905H68.7696V95.3606C68.7696 94.1028 69.5226 93.2728 70.6778 93.2728C71.0371 93.2728 71.3537 93.3156 71.4735 93.3584V91.9123C71.3537 91.8952 71.1313 91.8524 70.8746 91.8524C69.8307 91.8524 69.0092 92.4771 68.7183 93.4611H68.6841V92.0065H67.2808V100.905ZM77.1037 90.4235C77.6257 90.4235 78.0364 90.0042 78.0364 89.4908C78.0364 88.9689 77.6257 88.5582 77.1037 88.5582C76.5903 88.5582 76.1711 88.9689 76.1711 89.4908C76.1711 90.0042 76.5903 90.4235 77.1037 90.4235ZM76.3593 100.905H77.8481V92.0065H76.3593V100.905ZM79.8589 100.905H81.3478V95.6687C81.3478 94.1627 82.2633 93.1702 83.6666 93.1702C85.0356 93.1702 85.7116 93.9574 85.7116 95.3949V100.905H87.2005V95.1296C87.2005 93.1103 86.071 91.8524 84.1201 91.8524C82.7425 91.8524 81.7927 92.4685 81.2964 93.4269H81.2622V92.0065H79.8589V100.905ZM89.5792 100.905H91.068V93.2301H92.882V92.0065H91.0595V91.0225C91.0595 90.1411 91.4445 89.7133 92.2488 89.7133C92.497 89.7133 92.7451 89.739 92.9248 89.7646V88.5582C92.7109 88.5239 92.3515 88.4897 92.0178 88.4897C90.3749 88.4897 89.5792 89.3026 89.5792 91.0139V92.0065H88.3385V93.2301H89.5792V100.905ZM97.6822 101.059C100.138 101.059 101.798 99.2881 101.798 96.4559C101.798 93.6151 100.138 91.8524 97.6822 91.8524C95.2179 91.8524 93.558 93.6151 93.558 96.4559C93.558 99.2881 95.2179 101.059 97.6822 101.059ZM97.6822 99.7501C96.1078 99.7501 95.0725 98.5522 95.0725 96.4559C95.0725 94.3595 96.1078 93.1616 97.6822 93.1616C99.2566 93.1616 100.283 94.3595 100.283 96.4559C100.283 98.5522 99.2566 99.7501 97.6822 99.7501ZM103.304 100.905H104.793V95.3606C104.793 94.1028 105.546 93.2728 106.701 93.2728C107.06 93.2728 107.377 93.3156 107.497 93.3584V91.9123C107.377 91.8952 107.154 91.8524 106.898 91.8524C105.854 91.8524 105.032 92.4771 104.741 93.4611H104.707V92.0065H103.304V100.905ZM108.712 100.905H110.2V95.3264C110.2 94.0943 111.056 93.1702 112.237 93.1702C113.341 93.1702 114.059 93.8718 114.059 94.9414V100.905H115.548V95.2494C115.548 94.0429 116.378 93.1702 117.559 93.1702C118.731 93.1702 119.407 93.8889 119.407 95.1039V100.905H120.896V94.7617C120.896 92.999 119.758 91.8524 117.995 91.8524C116.746 91.8524 115.702 92.4856 115.206 93.5466H115.172C114.787 92.4685 113.888 91.8524 112.673 91.8524C111.475 91.8524 110.568 92.4856 110.149 93.4269H110.115V92.0065H108.712V100.905ZM125.397 101.059C126.595 101.059 127.724 100.392 128.255 99.3737H128.289V100.905H129.701V94.7531C129.701 92.9819 128.383 91.8524 126.295 91.8524C124.19 91.8524 122.873 93.0332 122.77 94.5734H124.208C124.396 93.7007 125.115 93.1616 126.261 93.1616C127.493 93.1616 128.212 93.8119 128.212 94.8986V95.643L125.662 95.7885C123.609 95.9082 122.436 96.8666 122.436 98.3896C122.436 99.9897 123.626 101.059 125.397 101.059ZM125.731 99.7929C124.661 99.7929 123.951 99.2367 123.951 98.3896C123.951 97.5511 124.635 97.0206 125.833 96.9436L128.212 96.7981V97.5254C128.212 98.8089 127.134 99.7929 125.731 99.7929ZM132.071 89.8588V92.0065H130.745V93.2301H132.071V98.595C132.071 100.306 132.704 100.974 134.338 100.974C134.689 100.974 135.1 100.948 135.28 100.905V99.656C135.177 99.6731 134.835 99.6988 134.664 99.6988C133.902 99.6988 133.56 99.3309 133.56 98.518V93.2301H135.288V92.0065H133.56V89.8588H132.071ZM137.701 90.4235C138.223 90.4235 138.634 90.0042 138.634 89.4908C138.634 88.9689 138.223 88.5582 137.701 88.5582C137.188 88.5582 136.769 88.9689 136.769 89.4908C136.769 90.0042 137.188 90.4235 137.701 90.4235ZM136.957 100.905H138.446V92.0065H136.957V100.905ZM144.144 101.059C146.6 101.059 148.26 99.2881 148.26 96.4559C148.26 93.6151 146.6 91.8524 144.144 91.8524C141.68 91.8524 140.02 93.6151 140.02 96.4559C140.02 99.2881 141.68 101.059 144.144 101.059ZM144.144 99.7501C142.57 99.7501 141.535 98.5522 141.535 96.4559C141.535 94.3595 142.57 93.1616 144.144 93.1616C145.719 93.1616 146.745 94.3595 146.745 96.4559C146.745 98.5522 145.719 99.7501 144.144 99.7501ZM149.766 100.905H151.255V95.6687C151.255 94.1627 152.17 93.1702 153.574 93.1702C154.943 93.1702 155.619 93.9574 155.619 95.3949V100.905H157.107V95.1296C157.107 93.1103 155.978 91.8524 154.027 91.8524C152.649 91.8524 151.7 92.4685 151.203 93.4269H151.169V92.0065H149.766V100.905ZM163.08 100.905H164.569V93.2301H166.383V92.0065H164.56V91.0225C164.56 90.1411 164.945 89.7133 165.75 89.7133C165.998 89.7133 166.246 89.739 166.426 89.7646V88.5582C166.212 88.5239 165.852 88.4897 165.519 88.4897C163.876 88.4897 163.08 89.3026 163.08 91.0139V92.0065H161.839V93.2301H163.08V100.905ZM167.923 100.905H169.412V95.3606C169.412 94.1028 170.165 93.2728 171.32 93.2728C171.679 93.2728 171.996 93.3156 172.116 93.3584V91.9123C171.996 91.8952 171.773 91.8524 171.517 91.8524C170.473 91.8524 169.651 92.4771 169.36 93.4611H169.326V92.0065H167.923V100.905ZM176.591 101.059C179.046 101.059 180.706 99.2881 180.706 96.4559C180.706 93.6151 179.046 91.8524 176.591 91.8524C174.126 91.8524 172.466 93.6151 172.466 96.4559C172.466 99.2881 174.126 101.059 176.591 101.059ZM176.591 99.7501C175.016 99.7501 173.981 98.5522 173.981 96.4559C173.981 94.3595 175.016 93.1616 176.591 93.1616C178.165 93.1616 179.192 94.3595 179.192 96.4559C179.192 98.5522 178.165 99.7501 176.591 99.7501ZM182.212 100.905H183.701V95.3264C183.701 94.0943 184.557 93.1702 185.738 93.1702C186.841 93.1702 187.56 93.8718 187.56 94.9414V100.905H189.049V95.2494C189.049 94.0429 189.879 93.1702 191.06 93.1702C192.232 93.1702 192.908 93.8889 192.908 95.1039V100.905H194.397V94.7617C194.397 92.999 193.259 91.8524 191.496 91.8524C190.247 91.8524 189.203 92.4856 188.707 93.5466H188.673C188.288 92.4685 187.389 91.8524 186.174 91.8524C184.976 91.8524 184.069 92.4856 183.65 93.4269H183.616V92.0065H182.212V100.905ZM200.635 104.234C202.243 104.234 202.979 103.609 203.741 101.53L207.24 92.0065H205.674L203.21 99.4164H203.184L200.72 92.0065H199.129L202.414 100.914L202.209 101.538C201.867 102.574 201.405 102.976 200.575 102.976C200.386 102.976 200.155 102.967 199.993 102.933V104.182C200.155 104.217 200.455 104.234 200.635 104.234ZM211.844 101.059C214.299 101.059 215.959 99.2881 215.959 96.4559C215.959 93.6151 214.299 91.8524 211.844 91.8524C209.379 91.8524 207.719 93.6151 207.719 96.4559C207.719 99.2881 209.379 101.059 211.844 101.059ZM211.844 99.7501C210.269 99.7501 209.234 98.5522 209.234 96.4559C209.234 94.3595 210.269 93.1616 211.844 93.1616C213.418 93.1616 214.445 94.3595 214.445 96.4559C214.445 98.5522 213.418 99.7501 211.844 99.7501ZM224.773 92.0065H223.284V97.2345C223.284 98.749 222.411 99.7416 220.965 99.7416C219.587 99.7416 218.911 98.9629 218.911 97.5169V92.0065H217.423V97.7821C217.423 99.8015 218.561 101.059 220.503 101.059C221.872 101.059 222.796 100.486 223.327 99.4592H223.361V100.905H224.773V92.0065ZM226.706 100.905H228.195V95.3606C228.195 94.1028 228.948 93.2728 230.103 93.2728C230.463 93.2728 230.779 93.3156 230.899 93.3584V91.9123C230.779 91.8952 230.557 91.8524 230.3 91.8524C229.256 91.8524 228.435 92.4771 228.144 93.4611H228.11V92.0065H226.706V100.905ZM38.6763 124.059C40.9523 124.059 42.4583 122.254 42.4583 119.456C42.4583 116.666 40.9438 114.852 38.7019 114.852C37.4441 114.852 36.4088 115.477 35.8526 116.495H35.8184V111.558H34.3295V123.905H35.7499V122.399H35.7842C36.3574 123.426 37.3757 124.059 38.6763 124.059ZM38.3853 116.162C39.9598 116.162 40.9352 117.437 40.9352 119.456C40.9352 121.492 39.9598 122.75 38.3853 122.75C36.8794 122.75 35.8098 121.441 35.8098 119.456C35.8098 117.479 36.8794 116.162 38.3853 116.162ZM43.9728 123.905H45.4616V118.361C45.4616 117.103 46.2146 116.273 47.3697 116.273C47.7291 116.273 48.0457 116.316 48.1655 116.358V114.912C48.0457 114.895 47.8232 114.852 47.5665 114.852C46.5226 114.852 45.7012 115.477 45.4103 116.461H45.376V115.006H43.9728V123.905ZM52.6406 124.059C55.0963 124.059 56.7563 122.288 56.7563 119.456C56.7563 116.615 55.0963 114.852 52.6406 114.852C50.1763 114.852 48.5163 116.615 48.5163 119.456C48.5163 122.288 50.1763 124.059 52.6406 124.059ZM52.6406 122.75C51.0662 122.75 50.0308 121.552 50.0308 119.456C50.0308 117.36 51.0662 116.162 52.6406 116.162C54.215 116.162 55.2417 117.36 55.2417 119.456C55.2417 121.552 54.215 122.75 52.6406 122.75ZM69.5825 115.006H68.1108L66.331 122.245H66.2968L64.2775 115.006H62.84L60.8292 122.245H60.7949L59.0152 115.006H57.5349L60.0249 123.905H61.5394L63.5416 117.017H63.5758L65.5866 123.905H67.1011L69.5825 115.006ZM70.6521 117.462C70.6521 118.746 71.465 119.524 73.142 119.926L74.5539 120.269C75.5721 120.517 75.9229 120.885 75.9229 121.527C75.9229 122.331 75.1785 122.844 73.972 122.844C72.7656 122.844 72.081 122.357 71.9013 121.338H70.4125C70.5836 123.007 71.8842 124.059 73.972 124.059C75.9571 124.059 77.4203 122.964 77.4203 121.415C77.4203 120.14 76.77 119.439 74.9731 119.002L73.5613 118.66C72.5688 118.421 72.1153 118.001 72.1153 117.385C72.1153 116.607 72.834 116.067 73.9207 116.067C75.0159 116.067 75.7004 116.641 75.8117 117.573H77.2321C77.1722 115.999 75.8716 114.852 73.9207 114.852C71.9955 114.852 70.6521 115.939 70.6521 117.462ZM84.8731 121.355C84.6249 122.194 83.7949 122.767 82.6655 122.767C81.0654 122.767 80.0643 121.646 80.0643 119.944V119.858H86.4475V119.293C86.4475 116.598 84.9672 114.852 82.5628 114.852C80.1071 114.852 78.5327 116.726 78.5327 119.49C78.5327 122.288 80.0814 124.059 82.6313 124.059C84.5736 124.059 86.0795 122.913 86.3362 121.355H84.8731ZM82.5371 116.144C83.9404 116.144 84.8731 117.205 84.9073 118.694H80.0728C80.167 117.214 81.1424 116.144 82.5371 116.144ZM87.9534 123.905H89.4423V118.361C89.4423 117.103 90.1952 116.273 91.3504 116.273C91.7098 116.273 92.0263 116.316 92.1461 116.358V114.912C92.0263 114.895 91.8039 114.852 91.5472 114.852C90.5033 114.852 89.6819 115.477 89.3909 116.461H89.3567V115.006H87.9534V123.905ZM100.643 124.059C103.099 124.059 104.758 122.288 104.758 119.456C104.758 116.615 103.099 114.852 100.643 114.852C98.1785 114.852 96.5185 116.615 96.5185 119.456C96.5185 122.288 98.1785 124.059 100.643 124.059ZM100.643 122.75C99.0684 122.75 98.033 121.552 98.033 119.456C98.033 117.36 99.0684 116.162 100.643 116.162C102.217 116.162 103.244 117.36 103.244 119.456C103.244 121.552 102.217 122.75 100.643 122.75ZM106.264 123.905H107.753V118.361C107.753 117.103 108.506 116.273 109.661 116.273C110.021 116.273 110.337 116.316 110.457 116.358V114.912C110.337 114.895 110.115 114.852 109.858 114.852C108.814 114.852 107.993 115.477 107.702 116.461H107.668V115.006H106.264V123.905ZM119.587 114.852C118.295 114.852 117.26 115.511 116.712 116.512H116.678V115.006H115.266V126.874H116.755V122.459H116.789C117.319 123.435 118.346 124.059 119.621 124.059C121.863 124.059 123.395 122.245 123.395 119.456C123.395 116.666 121.854 114.852 119.587 114.852ZM119.296 122.75C117.773 122.75 116.746 121.441 116.746 119.456C116.746 117.479 117.773 116.162 119.296 116.162C120.879 116.162 121.872 117.445 121.872 119.456C121.872 121.475 120.879 122.75 119.296 122.75ZM124.901 123.905H126.389V118.361C126.389 117.103 127.142 116.273 128.298 116.273C128.657 116.273 128.974 116.316 129.093 116.358V114.912C128.974 114.895 128.751 114.852 128.494 114.852C127.45 114.852 126.629 115.477 126.338 116.461H126.304V115.006H124.901V123.905ZM135.785 121.355C135.536 122.194 134.706 122.767 133.577 122.767C131.977 122.767 130.976 121.646 130.976 119.944V119.858H137.359V119.293C137.359 116.598 135.879 114.852 133.474 114.852C131.019 114.852 129.444 116.726 129.444 119.49C129.444 122.288 130.993 124.059 133.543 124.059C135.485 124.059 136.991 122.913 137.248 121.355H135.785ZM133.449 116.144C134.852 116.144 135.785 117.205 135.819 118.694H130.984C131.078 117.214 132.054 116.144 133.449 116.144ZM146.164 115.006H144.615L142.151 122.322H142.116L139.661 115.006H138.095L141.372 123.905H142.895L146.164 115.006ZM148.157 113.424C148.679 113.424 149.09 113.004 149.09 112.491C149.09 111.969 148.679 111.558 148.157 111.558C147.644 111.558 147.225 111.969 147.225 112.491C147.225 113.004 147.644 113.424 148.157 113.424ZM147.413 123.905H148.902V115.006H147.413V123.905ZM154.6 124.059C157.056 124.059 158.716 122.288 158.716 119.456C158.716 116.615 157.056 114.852 154.6 114.852C152.136 114.852 150.476 116.615 150.476 119.456C150.476 122.288 152.136 124.059 154.6 124.059ZM154.6 122.75C153.026 122.75 151.991 121.552 151.991 119.456C151.991 117.36 153.026 116.162 154.6 116.162C156.175 116.162 157.202 117.36 157.202 119.456C157.202 121.552 156.175 122.75 154.6 122.75ZM167.529 115.006H166.04V120.235C166.04 121.749 165.168 122.742 163.722 122.742C162.344 122.742 161.668 121.963 161.668 120.517V115.006H160.179V120.782C160.179 122.801 161.317 124.059 163.26 124.059C164.629 124.059 165.553 123.486 166.083 122.459H166.117V123.905H167.529V115.006ZM169.309 117.462C169.309 118.746 170.122 119.524 171.799 119.926L173.211 120.269C174.229 120.517 174.58 120.885 174.58 121.527C174.58 122.331 173.836 122.844 172.629 122.844C171.423 122.844 170.738 122.357 170.558 121.338H169.07C169.241 123.007 170.541 124.059 172.629 124.059C174.614 124.059 176.077 122.964 176.077 121.415C176.077 120.14 175.427 119.439 173.63 119.002L172.218 118.66C171.226 118.421 170.772 118.001 170.772 117.385C170.772 116.607 171.491 116.067 172.578 116.067C173.673 116.067 174.357 116.641 174.469 117.573H175.889C175.829 115.999 174.529 114.852 172.578 114.852C170.652 114.852 169.309 115.939 169.309 117.462ZM185.541 114.852C184.249 114.852 183.213 115.511 182.666 116.512H182.632V115.006H181.22V126.874H182.709V122.459H182.743C183.273 123.435 184.3 124.059 185.575 124.059C187.817 124.059 189.349 122.245 189.349 119.456C189.349 116.666 187.808 114.852 185.541 114.852ZM185.25 122.75C183.727 122.75 182.7 121.441 182.7 119.456C182.7 117.479 183.727 116.162 185.25 116.162C186.833 116.162 187.825 117.445 187.825 119.456C187.825 121.475 186.833 122.75 185.25 122.75ZM193.456 124.059C194.654 124.059 195.783 123.392 196.314 122.374H196.348V123.905H197.76V117.753C197.76 115.982 196.442 114.852 194.354 114.852C192.249 114.852 190.931 116.033 190.829 117.573H192.266C192.455 116.701 193.173 116.162 194.32 116.162C195.552 116.162 196.271 116.812 196.271 117.899V118.643L193.721 118.788C191.667 118.908 190.495 119.867 190.495 121.39C190.495 122.99 191.684 124.059 193.456 124.059ZM193.789 122.793C192.72 122.793 192.01 122.237 192.01 121.39C192.01 120.551 192.694 120.021 193.892 119.944L196.271 119.798V120.525C196.271 121.809 195.193 122.793 193.789 122.793ZM199.497 117.462C199.497 118.746 200.309 119.524 201.987 119.926L203.398 120.269C204.417 120.517 204.767 120.885 204.767 121.527C204.767 122.331 204.023 122.844 202.817 122.844C201.61 122.844 200.926 122.357 200.746 121.338H199.257C199.428 123.007 200.729 124.059 202.817 124.059C204.802 124.059 206.265 122.964 206.265 121.415C206.265 120.14 205.615 119.439 203.818 119.002L202.406 118.66C201.413 118.421 200.96 118.001 200.96 117.385C200.96 116.607 201.679 116.067 202.765 116.067C203.86 116.067 204.545 116.641 204.656 117.573H206.077C206.017 115.999 204.716 114.852 202.765 114.852C200.84 114.852 199.497 115.939 199.497 117.462ZM207.66 117.462C207.66 118.746 208.472 119.524 210.149 119.926L211.561 120.269C212.58 120.517 212.93 120.885 212.93 121.527C212.93 122.331 212.186 122.844 210.979 122.844C209.773 122.844 209.088 122.357 208.909 121.338H207.42C207.591 123.007 208.892 124.059 210.979 124.059C212.965 124.059 214.428 122.964 214.428 121.415C214.428 120.14 213.777 119.439 211.981 119.002L210.569 118.66C209.576 118.421 209.123 118.001 209.123 117.385C209.123 116.607 209.841 116.067 210.928 116.067C212.023 116.067 212.708 116.641 212.819 117.573H214.24C214.18 115.999 212.879 114.852 210.928 114.852C209.003 114.852 207.66 115.939 207.66 117.462ZM227.297 115.006H225.825L224.045 122.245H224.011L221.992 115.006H220.554L218.543 122.245H218.509L216.729 115.006H215.249L217.739 123.905H219.254L221.256 117.017H221.29L223.301 123.905H224.815L227.297 115.006ZM232.208 124.059C234.664 124.059 236.324 122.288 236.324 119.456C236.324 116.615 234.664 114.852 232.208 114.852C229.744 114.852 228.084 116.615 228.084 119.456C228.084 122.288 229.744 124.059 232.208 124.059ZM232.208 122.75C230.634 122.75 229.599 121.552 229.599 119.456C229.599 117.36 230.634 116.162 232.208 116.162C233.783 116.162 234.809 117.36 234.809 119.456C234.809 121.552 233.783 122.75 232.208 122.75ZM237.83 123.905H239.319V118.361C239.319 117.103 240.072 116.273 241.227 116.273C241.586 116.273 241.903 116.316 242.023 116.358V114.912C241.903 114.895 241.68 114.852 241.424 114.852C240.38 114.852 239.558 115.477 239.267 116.461H239.233V115.006H237.83V123.905ZM246.181 124.059C247.465 124.059 248.483 123.426 249.056 122.399H249.082V123.905H250.502V111.558H249.013V116.453H248.979C248.449 115.477 247.422 114.852 246.147 114.852C243.905 114.852 242.373 116.666 242.373 119.456C242.373 122.245 243.914 124.059 246.181 124.059ZM246.463 116.162C247.995 116.162 249.022 117.471 249.022 119.456C249.022 121.45 247.995 122.75 246.463 122.75C244.889 122.75 243.897 121.475 243.897 119.456C243.897 117.445 244.889 116.162 246.463 116.162ZM34.2525 146.905H35.7414V141.326C35.7414 140.094 36.597 139.17 37.7778 139.17C38.8816 139.17 39.6004 139.872 39.6004 140.941V146.905H41.0892V141.249C41.0892 140.043 41.9192 139.17 43.1 139.17C44.2723 139.17 44.9482 139.889 44.9482 141.104V146.905H46.4371V140.762C46.4371 138.999 45.299 137.852 43.5364 137.852C42.2871 137.852 41.2432 138.486 40.747 139.547H40.7127C40.3277 138.469 39.4292 137.852 38.2142 137.852C37.0163 137.852 36.1093 138.486 35.69 139.427H35.6558V138.006H34.2525V146.905ZM50.9378 147.059C52.1357 147.059 53.2652 146.392 53.7957 145.374H53.8299V146.905H55.2417V140.753C55.2417 138.982 53.924 137.852 51.8362 137.852C49.7313 137.852 48.4136 139.033 48.3109 140.573H49.7484C49.9367 139.701 50.6554 139.162 51.802 139.162C53.0342 139.162 53.7529 139.812 53.7529 140.899V141.643L51.2031 141.788C49.1495 141.908 47.9772 142.867 47.9772 144.39C47.9772 145.99 49.1666 147.059 50.9378 147.059ZM51.2715 145.793C50.2019 145.793 49.4917 145.237 49.4917 144.39C49.4917 143.551 50.1763 143.021 51.3742 142.944L53.7529 142.798V143.525C53.7529 144.809 52.6748 145.793 51.2715 145.793ZM57.1327 146.905H58.6216V141.669C58.6216 140.163 59.5371 139.17 60.9404 139.17C62.3095 139.17 62.9854 139.957 62.9854 141.395V146.905H64.4743V141.13C64.4743 139.11 63.3448 137.852 61.3939 137.852C60.0163 137.852 59.0665 138.469 58.5702 139.427H58.536V138.006H57.1327V146.905ZM68.975 147.059C70.1729 147.059 71.3024 146.392 71.8329 145.374H71.8671V146.905H73.2789V140.753C73.2789 138.982 71.9612 137.852 69.8734 137.852C67.7685 137.852 66.4508 139.033 66.3481 140.573H67.7856C67.9739 139.701 68.6926 139.162 69.8392 139.162C71.0714 139.162 71.7901 139.812 71.7901 140.899V141.643L69.2403 141.788C67.1867 141.908 66.0144 142.867 66.0144 144.39C66.0144 145.99 67.2038 147.059 68.975 147.059ZM69.3087 145.793C68.2391 145.793 67.5289 145.237 67.5289 144.39C67.5289 143.551 68.2135 143.021 69.4114 142.944L71.7901 142.798V143.525C71.7901 144.809 70.712 145.793 69.3087 145.793ZM78.8407 150.259C81.2964 150.259 82.8623 148.848 82.8623 146.726V138.006H81.4419V139.504H81.4162C80.8258 138.469 79.7819 137.852 78.5241 137.852C76.2224 137.852 74.7336 139.632 74.7336 142.422C74.7336 145.185 76.2224 146.974 78.4899 146.974C79.7391 146.974 80.7916 146.341 81.3392 145.374H81.3734V146.777C81.3734 148.103 80.4408 148.993 78.9006 148.993C77.7882 148.993 76.9069 148.454 76.616 147.641H75.0844C75.3325 149.156 76.8813 150.259 78.8407 150.259ZM78.7894 145.665C77.2577 145.665 76.2566 144.415 76.2566 142.422C76.2566 140.428 77.2577 139.162 78.7894 139.162C80.3381 139.162 81.3734 140.462 81.3734 142.422C81.3734 144.381 80.3381 145.665 78.7894 145.665ZM90.7086 144.355C90.4605 145.194 89.6305 145.767 88.501 145.767C86.901 145.767 85.8999 144.646 85.8999 142.944V142.858H92.283V142.293C92.283 139.598 90.8028 137.852 88.3984 137.852C85.9426 137.852 84.3682 139.726 84.3682 142.49C84.3682 145.288 85.917 147.059 88.4668 147.059C90.4092 147.059 91.9151 145.913 92.1718 144.355H90.7086ZM88.3727 139.144C89.776 139.144 90.7086 140.205 90.7429 141.694H85.9084C86.0025 140.214 86.978 139.144 88.3727 139.144ZM93.789 146.905H95.2778V141.361C95.2778 140.103 96.0308 139.273 97.1859 139.273C97.5453 139.273 97.8619 139.316 97.9817 139.358V137.912C97.8619 137.895 97.6394 137.852 97.3827 137.852C96.3388 137.852 95.5174 138.477 95.2265 139.461H95.1923V138.006H93.789V146.905ZM99.5989 146.991C100.147 146.991 100.574 146.563 100.574 146.015C100.574 145.468 100.147 145.04 99.5989 145.04C99.0513 145.04 98.6234 145.468 98.6234 146.015C98.6234 146.563 99.0513 146.991 99.5989 146.991Z" fill="#333333"/>
<rect x="33.2856" y="182.572" width="258.476" height="1.09524" fill="#D7D9E0"/>
<path d="M36.5799 219.19V206.843H34.3723V219.19H36.5799ZM38.5394 219.19H40.6699V213.637C40.6699 212.542 41.3887 211.746 42.4155 211.746C43.408 211.746 44.0241 212.371 44.0241 213.381V219.19H46.0948V213.586C46.0948 212.499 46.7964 211.746 47.8232 211.746C48.8671 211.746 49.449 212.379 49.449 213.492V219.19H51.5795V212.97C51.5795 211.156 50.4073 209.949 48.619 209.949C47.3098 209.949 46.2317 210.651 45.7953 211.772H45.744C45.4103 210.608 44.4947 209.949 43.2112 209.949C41.9791 209.949 41.0208 210.642 40.6272 211.695H40.5844V210.12H38.5394V219.19ZM58.2708 209.966C56.9531 209.966 55.9263 210.634 55.4129 211.686H55.3701V210.12H53.2909V222.177H55.4214V217.684H55.4642C55.9605 218.703 56.9873 219.336 58.305 219.336C60.581 219.336 62.0356 217.548 62.0356 214.655C62.0356 211.755 60.5725 209.966 58.2708 209.966ZM57.6205 217.59C56.2942 217.59 55.4129 216.435 55.4043 214.655C55.4129 212.893 56.2942 211.721 57.6205 211.721C58.9981 211.721 59.8537 212.867 59.8537 214.655C59.8537 216.452 58.9981 217.59 57.6205 217.59ZM67.4177 219.37C70.0788 219.37 71.8072 217.599 71.8072 214.655C71.8072 211.721 70.0617 209.932 67.4177 209.932C64.7737 209.932 63.0282 211.729 63.0282 214.655C63.0282 217.599 64.7566 219.37 67.4177 219.37ZM67.4177 217.684C66.0658 217.684 65.193 216.589 65.193 214.655C65.193 212.73 66.0743 211.626 67.4177 211.626C68.7696 211.626 69.6424 212.73 69.6424 214.655C69.6424 216.589 68.7696 217.684 67.4177 217.684ZM73.1763 219.19H75.3068V213.911C75.3068 212.636 76.0342 211.857 77.2406 211.857C77.6 211.857 77.9252 211.909 78.1048 211.977V210.052C77.9508 210.018 77.7112 209.966 77.4374 209.966C76.3679 209.966 75.5721 210.6 75.2641 211.703H75.2213V210.12H73.1763V219.19ZM79.7905 207.998V210.12H78.4899V211.763H79.7905V216.777C79.7905 218.54 80.5606 219.233 82.52 219.233C82.9735 219.233 83.3928 219.199 83.6238 219.148V217.522C83.4869 217.548 83.2131 217.565 83.0163 217.565C82.2633 217.565 81.9211 217.222 81.9211 216.478V211.763H83.6324V210.12H81.9211V207.998H79.7905ZM89.6134 222.562C91.6841 222.562 92.6852 221.8 93.4553 219.55L96.741 210.12H94.4992L92.36 217.376H92.3173L90.1867 210.12H87.8593L91.0851 219.199C91.0937 219.225 90.9568 219.678 90.9568 219.704C90.7257 220.542 90.2723 220.876 89.3909 220.876C89.2626 220.876 88.8861 220.868 88.7749 220.842V222.527C88.8861 222.553 89.485 222.562 89.6134 222.562ZM101.507 219.37C104.168 219.37 105.897 217.599 105.897 214.655C105.897 211.721 104.151 209.932 101.507 209.932C98.863 209.932 97.1175 211.729 97.1175 214.655C97.1175 217.599 98.8459 219.37 101.507 219.37ZM101.507 217.684C100.155 217.684 99.2823 216.589 99.2823 214.655C99.2823 212.73 100.164 211.626 101.507 211.626C102.859 211.626 103.732 212.73 103.732 214.655C103.732 216.589 102.859 217.684 101.507 217.684ZM115.309 210.12H113.178V215.366C113.178 216.683 112.417 217.556 111.184 217.556C109.987 217.556 109.353 216.854 109.353 215.554V210.12H107.223V215.982C107.223 218.078 108.472 219.353 110.44 219.353C111.818 219.353 112.733 218.72 113.212 217.616H113.255V219.19H115.309V210.12ZM117.054 219.19H119.185V213.911C119.185 212.636 119.912 211.857 121.119 211.857C121.478 211.857 121.803 211.909 121.983 211.977V210.052C121.829 210.018 121.589 209.966 121.315 209.966C120.246 209.966 119.45 210.6 119.142 211.703H119.099V210.12H117.054V219.19ZM131.566 209.966C130.248 209.966 129.222 210.634 128.708 211.686H128.665V210.12H126.586V222.177H128.717V217.684H128.76C129.256 218.703 130.283 219.336 131.6 219.336C133.876 219.336 135.331 217.548 135.331 214.655C135.331 211.755 133.868 209.966 131.566 209.966ZM130.916 217.59C129.59 217.59 128.708 216.435 128.7 214.655C128.708 212.893 129.59 211.721 130.916 211.721C132.293 211.721 133.149 212.867 133.149 214.655C133.149 216.452 132.293 217.59 130.916 217.59ZM139.37 219.336C140.533 219.336 141.671 218.728 142.193 217.744H142.236V219.19H144.29V212.944C144.29 211.122 142.827 209.932 140.576 209.932C138.266 209.932 136.82 211.147 136.726 212.841H138.702C138.839 212.088 139.481 211.601 140.491 211.601C141.543 211.601 142.185 212.148 142.185 213.098V213.748L139.789 213.885C137.581 214.022 136.341 214.989 136.341 216.598C136.341 218.232 137.616 219.336 139.37 219.336ZM140.011 217.727C139.087 217.727 138.471 217.257 138.471 216.512C138.471 215.793 139.062 215.331 140.088 215.263L142.185 215.135V215.828C142.185 216.923 141.218 217.727 140.011 217.727ZM145.847 212.722C145.847 214.065 146.72 214.921 148.457 215.306L149.963 215.639C150.913 215.853 151.238 216.161 151.238 216.709C151.238 217.385 150.596 217.813 149.561 217.813C148.482 217.813 147.875 217.368 147.712 216.487H145.616C145.787 218.241 147.19 219.37 149.561 219.37C151.785 219.37 153.36 218.215 153.36 216.504C153.36 215.186 152.632 214.459 150.75 214.039L149.244 213.706C148.294 213.492 147.918 213.132 147.918 212.61C147.918 211.943 148.542 211.498 149.484 211.498C150.468 211.498 151.075 212.02 151.161 212.841H153.146C153.094 211.122 151.691 209.932 149.484 209.932C147.293 209.932 145.847 211.062 145.847 212.722ZM154.558 212.722C154.558 214.065 155.43 214.921 157.167 215.306L158.673 215.639C159.623 215.853 159.948 216.161 159.948 216.709C159.948 217.385 159.306 217.813 158.271 217.813C157.193 217.813 156.585 217.368 156.423 216.487H154.327C154.498 218.241 155.901 219.37 158.271 219.37C160.496 219.37 162.07 218.215 162.07 216.504C162.07 215.186 161.343 214.459 159.46 214.039L157.955 213.706C157.005 213.492 156.628 213.132 156.628 212.61C156.628 211.943 157.253 211.498 158.194 211.498C159.178 211.498 159.786 212.02 159.871 212.841H161.856C161.805 211.122 160.402 209.932 158.194 209.932C156.004 209.932 154.558 211.062 154.558 212.722ZM175.701 210.12H173.596L172.064 217.086H172.013L170.242 210.12H168.197L166.426 217.086H166.383L164.851 210.12H162.712L165.168 219.19H167.392L169.172 212.559H169.215L171.003 219.19H173.245L175.701 210.12ZM180.689 219.37C183.35 219.37 185.079 217.599 185.079 214.655C185.079 211.721 183.333 209.932 180.689 209.932C178.045 209.932 176.3 211.729 176.3 214.655C176.3 217.599 178.028 219.37 180.689 219.37ZM180.689 217.684C179.337 217.684 178.465 216.589 178.465 214.655C178.465 212.73 179.346 211.626 180.689 211.626C182.041 211.626 182.914 212.73 182.914 214.655C182.914 216.589 182.041 217.684 180.689 217.684ZM186.448 219.19H188.578V213.911C188.578 212.636 189.306 211.857 190.512 211.857C190.872 211.857 191.197 211.909 191.376 211.977V210.052C191.222 210.018 190.983 209.966 190.709 209.966C189.639 209.966 188.844 210.6 188.536 211.703H188.493V210.12H186.448V219.19ZM195.518 219.336C196.844 219.336 197.888 218.66 198.384 217.642H198.418V219.19H200.506V206.843H198.376V211.644H198.324C197.845 210.642 196.818 209.966 195.518 209.966C193.233 209.966 191.753 211.78 191.753 214.647C191.753 217.53 193.233 219.336 195.518 219.336ZM196.16 211.721C197.503 211.721 198.384 212.876 198.384 214.655C198.384 216.452 197.503 217.59 196.16 217.59C194.782 217.59 193.935 216.461 193.935 214.655C193.935 212.859 194.79 211.721 196.16 211.721ZM202.132 212.722C202.132 214.065 203.005 214.921 204.742 215.306L206.248 215.639C207.197 215.853 207.523 216.161 207.523 216.709C207.523 217.385 206.881 217.813 205.846 217.813C204.767 217.813 204.16 217.368 203.997 216.487H201.901C202.072 218.241 203.475 219.37 205.846 219.37C208.07 219.37 209.645 218.215 209.645 216.504C209.645 215.186 208.917 214.459 207.035 214.039L205.529 213.706C204.579 213.492 204.203 213.132 204.203 212.61C204.203 211.943 204.827 211.498 205.769 211.498C206.753 211.498 207.36 212.02 207.446 212.841H209.431C209.379 211.122 207.976 209.932 205.769 209.932C203.578 209.932 202.132 211.062 202.132 212.722Z" fill="#0364D3"/>
<path d="M220.298 218.507C219.849 218.076 219.849 217.359 220.297 216.928L224.698 212.691L220.297 208.453C219.849 208.022 219.849 207.305 220.298 206.874L220.325 206.848C220.749 206.441 221.419 206.441 221.843 206.848L227.103 211.901C227.552 212.332 227.552 213.049 227.103 213.48L221.843 218.533C221.419 218.94 220.749 218.94 220.325 218.533L220.298 218.507Z" fill="#0364D3"/>
<rect width="131.429" height="236.571" transform="translate(335.033 5.14355)" fill="#FFF9F9"/>
<path fill-rule="evenodd" clip-rule="evenodd" d="M393.784 61.0911C394.714 62.4738 396.632 62.9086 398.015 61.9788C399.397 61.049 399.832 59.1311 398.902 57.7484C397.973 56.3658 396.055 55.9309 394.672 56.8607C393.289 57.7905 392.904 59.6722 393.784 61.0911ZM372.336 49.8517L389.552 53.4931C392.222 50.559 396.452 49.7692 399.966 51.5593C403.481 53.3494 405.372 57.3117 404.589 61.1612C403.755 65.047 400.482 67.886 396.52 68.1C392.557 68.314 388.979 65.8075 387.763 62.0401L377.782 59.9219L375.236 54.985L370.787 58.4375L367.204 53.2805L372.336 49.8517Z" fill="#C9333C"/>
<rect x="338.767" y="74.375" width="74.0072" height="58.7148" transform="rotate(-13.3108 338.767 74.375)" fill="white" stroke="#C9333C" stroke-width="1.64286" stroke-miterlimit="10" stroke-linecap="round" stroke-linejoin="round"/>
<rect x="331.594" y="79.293" width="80.0818" height="11.6519" transform="rotate(-39.0804 331.594 79.293)" fill="white" stroke="#C9333C" stroke-width="1.64286" stroke-miterlimit="10" stroke-linecap="round" stroke-linejoin="round"/>
<rect x="327.263" y="151.245" width="45.2812" height="47.2516" transform="rotate(-88.437 327.263 151.245)" fill="#FDF8FF"/>
<rect x="324.311" y="142.203" width="45.2812" height="47.2516" transform="rotate(-73.9528 324.311 142.203)" fill="#C9333C"/>
<path d="M428.786 124.813L409.828 100.819L447.359 71.1725L466.317 95.1666C467.656 96.8525 467.363 99.3198 465.691 100.639L434.259 125.465C432.572 126.812 430.125 126.499 428.786 124.813Z" fill="white" stroke="#C9333C" stroke-width="1.64286" stroke-miterlimit="10" stroke-linecap="round" stroke-linejoin="round"/>
<path d="M450.318 74.9369L413.082 104.949" stroke="#C9333C" stroke-width="1.64286" stroke-miterlimit="10" stroke-linecap="round" stroke-linejoin="round"/>
<circle cx="439.077" cy="101.559" r="8.68178" transform="rotate(27.8375 439.077 101.559)" fill="#FFDBDB"/>
<path d="M395.32 101.43L381.378 117.273C379.737 119.115 376.877 119.299 375.035 117.659L364.826 108.643C364.826 108.643 369.35 92.3104 379.084 100.856C387.49 108.319 395.32 101.43 395.32 101.43Z" fill="white"/>
<path d="M369.117 86.1092L386.099 66.3351C388.19 63.9748 391.531 63.7163 393.872 65.7632L409.09 79.2507C409.09 79.2507 401.064 97.8433 388.763 86.9839C378.057 77.5619 369.117 86.1092 369.117 86.1092Z" fill="white"/>
<path d="M409.443 84.8205L384.148 113.501L380.799 117.269C379.54 118.676 377.513 118.959 375.917 118.1C375.688 117.941 375.478 117.825 375.229 117.622L358.932 103.254C357.295 101.836 357.161 99.3214 358.598 97.7281L387.286 65.26C388.704 63.623 391.219 63.4892 392.812 64.9266L409.109 79.2945C410.703 80.7319 410.88 83.2273 409.443 84.8205Z" stroke="#C9333C" stroke-width="1.64286" stroke-miterlimit="10"/>
<path d="M394.024 65.6675L359.815 104.44L364.702 108.752L398.911 69.9793L394.024 65.6675Z" fill="#C9333C"/>
<path d="M414.411 153.35C420.926 155.867 434.081 160.937 434.579 161.079L429.87 165.432C428.375 165.509 420.521 161.075 415.318 161.079C408.715 161.083 411.166 165.827 400.679 169.4C392.759 172.099 392.103 186 382.854 195.8L371.461 183.305C371.461 183.305 397.494 155.374 414.411 153.35Z" fill="#C9333C"/>
<rect x="351.497" y="163.108" width="85.2285" height="55.9135" transform="rotate(-43.7915 351.497 163.108)" stroke="#C9333C" stroke-width="1.64286" stroke-miterlimit="10" stroke-linecap="round" stroke-linejoin="round"/>
<rect x="357.565" y="151.463" width="76.261" height="11.096" transform="rotate(-43.7915 357.565 151.463)" fill="#FFDBDB" stroke="#C9333C" stroke-width="1.64286" stroke-miterlimit="10" stroke-linecap="round" stroke-linejoin="round"/>
<rect x="366.296" y="158.288" width="71.0443" height="4.51587" transform="rotate(-43.7915 366.296 158.288)" fill="#C9333C"/>
<rect x="408.404" y="91.9424" width="70.4762" height="55.9135" transform="rotate(19.7752 408.404 91.9424)" fill="#FFDBDB" stroke="#C9333C" stroke-width="1.64286" stroke-miterlimit="10" stroke-linecap="round" stroke-linejoin="round"/>
<rect x="407.651" y="87.1992" width="76.261" height="11.096" transform="rotate(19.7752 407.651 87.1992)" fill="#FFDBDB" stroke="#C9333C" stroke-width="1.64286" stroke-miterlimit="10" stroke-linecap="round" stroke-linejoin="round"/>
<rect x="405.425" y="98.0566" width="71.0444" height="4.51587" transform="rotate(19.7752 405.425 98.0566)" fill="#C9333C"/>
<path d="M396.747 100.704L318.405 125.694L335.845 180.37L414.188 155.38L396.747 100.704Z" fill="#FFDBDB" stroke="#C9333C" stroke-width="1.64286" stroke-miterlimit="10" stroke-linecap="round" stroke-linejoin="round"/>
<rect x="349.019" y="140.752" width="34.0617" height="10.4143" rx="5.20713" transform="rotate(-17.6919 349.019 140.752)" stroke="#C9333C" stroke-width="1.64286" stroke-miterlimit="10" stroke-linecap="round" stroke-linejoin="round"/>
<path fill-rule="evenodd" clip-rule="evenodd" d="M353.979 139.17C351.24 140.043 349.727 142.973 350.601 145.713C350.824 146.412 351.181 147.032 351.635 147.552C351.835 145.549 353.195 143.758 355.235 143.107L377.764 135.92C379.805 135.27 381.95 135.942 383.274 137.459C383.342 136.773 383.275 136.061 383.052 135.362C382.178 132.622 379.248 131.109 376.508 131.983L353.979 139.17Z" fill="#C9333C"/>
<rect x="419.497" y="115.286" width="34.0617" height="10.4143" rx="5.20713" transform="rotate(18.9391 419.497 115.286)" stroke="#C9333C" stroke-width="1.64286" stroke-miterlimit="10" stroke-linecap="round" stroke-linejoin="round"/>
<path fill-rule="evenodd" clip-rule="evenodd" d="M424.422 116.976C421.702 116.043 418.741 117.491 417.807 120.211C417.569 120.906 417.486 121.616 417.54 122.304C418.896 120.816 421.055 120.19 423.081 120.885L445.448 128.56C447.474 129.255 448.794 131.075 448.951 133.083C449.416 132.573 449.787 131.961 450.025 131.267C450.958 128.546 449.51 125.585 446.79 124.651L424.422 116.976Z" fill="#C9333C"/>
<path d="M346.533 176.805C346.533 176.805 338.432 174.477 333.319 167.085C328.207 159.693 325.522 148.192 325.522 148.192C325.522 148.192 312.835 188.096 346.534 200.931C367.51 200.931 396.714 163.633 396.714 163.633C405.89 161.109 408.287 158.214 412.835 153.602C415.823 150.571 412.547 147.656 412.547 147.656L408.623 151.268C408.623 151.268 410.114 149.949 413.25 146.685C416.387 143.422 411.864 141.288 411.864 141.288C414.058 139.021 410.915 133.575 408.623 136.007L404.5 141.288C404.5 141.288 408.623 136.503 408.623 136.007C412.547 127.239 404.844 126.185 405.684 128.403C406.524 130.621 394.785 144.939 394.785 144.939C393.182 141.401 394.967 136.284 393.515 131.907C392.944 130.188 388.424 129.53 388.081 134.057C387.739 138.584 387.565 141.279 386.763 146.379C385.96 151.479 385.787 155.427 385.787 155.427C370.811 167.527 363.07 172.716 346.533 176.805Z" fill="white"/>
<path d="M346.533 176.805C363.07 172.716 370.811 167.527 385.787 155.427C385.787 155.427 385.96 151.479 386.763 146.379C387.565 141.279 387.739 138.584 388.081 134.057C388.424 129.53 392.944 130.188 393.515 131.907C394.967 136.284 393.182 141.401 394.785 144.939C394.785 144.939 406.524 130.621 405.684 128.403C404.844 126.185 412.547 127.239 408.623 136.007M346.533 176.805C344.096 177.653 339.617 178.278 337.215 179.479M346.533 176.805C346.533 176.805 338.432 174.477 333.319 167.085C328.207 159.693 325.522 148.192 325.522 148.192C325.522 148.192 312.835 188.096 346.534 200.931C367.51 200.931 396.714 163.633 396.714 163.633C405.89 161.109 408.287 158.214 412.835 153.602C415.823 150.571 412.547 147.656 412.547 147.656L408.623 151.268C408.623 151.268 410.114 149.949 413.25 146.685C416.387 143.422 411.864 141.288 411.864 141.288M411.864 141.288C414.058 139.021 410.915 133.575 408.623 136.007M411.864 141.288L408.097 146.711M408.623 136.007L404.5 141.288C404.5 141.288 408.623 136.503 408.623 136.007Z" stroke="#C9333C" stroke-width="1.64286" stroke-miterlimit="10" stroke-linecap="round" stroke-linejoin="round"/>
<path d="M472.639 134.394C473.162 130.527 471.267 128.463 470.483 128.55L465.696 141.817C464.463 142.852 464.433 143.137 460.91 142.144C454.09 140.221 455.229 144.458 455.867 145.451C451.585 143.975 449.246 148.267 453.497 150.009C450.218 150.009 451.309 154.723 453.497 155.391C451.578 155.391 452.038 160.435 457.014 161.312C460.33 161.896 463.763 163.652 466.581 162.214C473.269 158.8 472.291 149.63 471.377 145.451C470.463 141.271 471.986 139.226 472.639 134.394Z" fill="white"/>
<path d="M453.497 155.391C451.578 155.391 452.038 160.435 457.014 161.312C460.33 161.896 463.763 163.652 466.581 162.214C473.269 158.8 472.291 149.63 471.377 145.451C470.463 141.271 471.986 139.226 472.639 134.394C473.162 130.527 471.267 128.463 470.483 128.55L465.696 141.817C464.463 142.852 464.433 143.137 460.91 142.144C454.09 140.221 455.229 144.458 455.867 145.451M453.497 155.391C451.309 154.723 450.218 150.009 453.497 150.009M453.497 155.391C454.012 155.391 460.632 157.798 462.269 157.94C463.579 158.054 465.689 157.987 466.581 157.94M453.497 150.009C449.246 148.267 451.585 143.975 455.867 145.451M453.497 150.009C455.1 150.562 461.33 152.317 462.696 152.886C464.063 153.455 466.418 153.408 467.424 153.313M455.867 145.451C456.941 145.821 462.093 147.593 463.496 148.267C464.899 148.94 466.7 148.547 467.424 148.267" stroke="#C9333C" stroke-width="1.64286" stroke-miterlimit="10" stroke-linecap="round" stroke-linejoin="round"/>
<path d="M341.189 86.3774L364.276 68.1377L343.868 95.6887L341.189 86.3774Z" fill="#C9333C"/>
<rect x="405.433" y="70.2432" width="42.5356" height="10.6357" rx="5.31785" transform="rotate(-12.3088 405.433 70.2432)" fill="white" stroke="#C9333C" stroke-width="1.64286" stroke-miterlimit="10" stroke-linecap="round" stroke-linejoin="round"/>
<circle cx="413.46" cy="73.9354" r="1.83443" transform="rotate(-12.3088 413.46 73.9354)" fill="#C9333C"/>
<circle cx="420.403" cy="72.4198" r="1.83443" transform="rotate(-12.3088 420.403 72.4198)" fill="#C9333C"/>
<circle cx="427.346" cy="70.9051" r="1.83443" transform="rotate(-12.3088 427.346 70.9051)" fill="#C9333C"/>
<circle cx="434.289" cy="69.3895" r="1.83443" transform="rotate(-12.3088 434.289 69.3895)" fill="#C9333C"/>
<circle cx="441.231" cy="67.8758" r="1.83443" transform="rotate(-12.3088 441.231 67.8758)" fill="#C9333C"/>
</g>
<rect x="7.54762" y="5.69117" width="458.905" height="235.476" rx="8.21429" stroke="#D7D9E0" stroke-width="1.09524"/>
</g>
<defs>
<filter id="filter0_d_40_17344" x="0.428571" y="0.762602" width="473.143" height="249.714" filterUnits="userSpaceOnUse" color-interpolation-filters="sRGB">
<feFlood flood-opacity="0" result="BackgroundImageFix"/>
<feColorMatrix in="SourceAlpha" type="matrix" values="0 0 0 0 0 0 0 0 0 0 0 0 0 0 0 0 0 0 127 0" result="hardAlpha"/>
<feOffset dy="2.19048"/>
<feGaussianBlur stdDeviation="3.28571"/>
<feColorMatrix type="matrix" values="0 0 0 0 0 0 0 0 0 0 0 0 0 0 0 0 0 0 0.05 0"/>
<feBlend mode="normal" in2="BackgroundImageFix" result="effect1_dropShadow_40_17344"/>
<feBlend mode="normal" in="SourceGraphic" in2="effect1_dropShadow_40_17344" result="shape"/>
</filter>
<clipPath id="clip0_40_17344">
<rect x="7" y="5.14355" width="460" height="236.571" rx="8.7619" fill="white"/>
</clipPath>
</defs>
</svg>
