<svg width="474" height="251" viewBox="0 0 474 251" fill="none" xmlns="http://www.w3.org/2000/svg">
<g filter="url(#filter0_d_40_17497)">
<g clip-path="url(#clip0_40_17497)">
<rect x="7" y="5.0957" width="460" height="236.571" rx="8.7619" fill="white"/>
<path d="M37.7993 44.5232V29.0893H34.5692V44.5232H37.7993Z" fill="#333333"/>
<path d="M40.0989 44.5232H43.222V37.9454C43.222 36.4587 44.1098 35.4319 45.5109 35.4319C46.912 35.4319 47.6179 36.2875 47.6179 37.7849V44.5232H50.7411V37.1325C50.7411 34.4479 49.3079 32.8435 46.7623 32.8435C44.9975 32.8435 43.7889 33.6778 43.1792 35.1003H43.1151V33.0574H40.0989V44.5232Z" fill="#333333"/>
<path d="M63.1374 33.0574H59.8752L57.5008 41.7637H57.4366L55.0514 33.0574H51.7037L55.6718 44.5232H59.2014L63.1374 33.0574Z" fill="#333333"/>
<path d="M65.8327 31.5066C66.7418 31.5066 67.4584 30.7793 67.4584 29.9022C67.4584 29.0145 66.7418 28.2979 65.8327 28.2979C64.9236 28.2979 64.207 29.0145 64.207 29.9022C64.207 30.7793 64.9236 31.5066 65.8327 31.5066ZM64.2818 44.5232H67.405V33.0574H64.2818V44.5232Z" fill="#333333"/>
<path d="M70.3249 30.4156V33.0574H68.7098V35.4105H70.3249V41.4322C70.3249 43.6676 71.3731 44.566 74.0684 44.566C74.6994 44.566 75.2342 44.5125 75.5551 44.4376V42.1381C75.3626 42.1702 75.0738 42.1915 74.7957 42.1915C73.8759 42.1915 73.448 41.7744 73.448 40.8974V35.4105H75.5658V33.0574H73.448V30.4156H70.3249Z" fill="#333333"/>
<path d="M84.6999 41.015C84.4111 41.8921 83.5341 42.4589 82.3896 42.4589C80.796 42.4589 79.7585 41.3359 79.7585 39.6995V39.5069H87.6626V38.555C87.6626 35.0682 85.5555 32.8114 82.2185 32.8114C78.828 32.8114 76.6888 35.1859 76.6888 38.8438C76.6888 42.5124 78.8066 44.7692 82.3361 44.7692C85.1705 44.7692 87.2241 43.2611 87.5663 41.015H84.6999ZM82.2506 35.1217C83.641 35.1217 84.5929 36.1271 84.6571 37.5924H79.7906C79.8975 36.1592 80.8815 35.1217 82.2506 35.1217Z" fill="#333333"/>
<path d="M94.4544 30.4156V33.0574H92.8393V35.4105H94.4544V41.4322C94.4544 43.6676 95.5025 44.566 98.1978 44.566C98.8289 44.566 99.3637 44.5125 99.6845 44.4376V42.1381C99.492 42.1702 99.2032 42.1915 98.9251 42.1915C98.0053 42.1915 97.5775 41.7744 97.5775 40.8974V35.4105H99.6952V33.0574H97.5775V30.4156H94.4544Z" fill="#333333"/>
<path d="M101.481 44.5232H104.605V37.9774C104.605 36.4694 105.471 35.4319 106.947 35.4319C108.369 35.4319 109.097 36.3303 109.097 37.8063V44.5232H112.22V37.1432C112.22 34.4907 110.765 32.8435 108.22 32.8435C106.476 32.8435 105.225 33.6564 104.615 35.1003H104.551V29.0893H101.481V44.5232Z" fill="#333333"/>
<path d="M121.814 41.015C121.525 41.8921 120.648 42.4589 119.504 42.4589C117.91 42.4589 116.873 41.3359 116.873 39.6995V39.5069H124.777V38.555C124.777 35.0682 122.67 32.8114 119.333 32.8114C115.942 32.8114 113.803 35.1859 113.803 38.8438C113.803 42.5124 115.921 44.7692 119.45 44.7692C122.285 44.7692 124.338 43.2611 124.68 41.015H121.814ZM119.365 35.1217C120.755 35.1217 121.707 36.1271 121.771 37.5924H116.905C117.012 36.1592 117.996 35.1217 119.365 35.1217Z" fill="#333333"/>
<path d="M130.734 44.5232H133.857V38.1165C133.857 36.5014 134.756 35.5602 136.296 35.5602C136.745 35.5602 137.173 35.6351 137.43 35.742V32.9933C137.216 32.9291 136.906 32.8756 136.542 32.8756C135.194 32.8756 134.221 33.6671 133.814 35.1217H133.75V33.0574H130.734V44.5232Z" fill="#333333"/>
<path d="M145.922 41.015C145.633 41.8921 144.756 42.4589 143.612 42.4589C142.018 42.4589 140.981 41.3359 140.981 39.6995V39.5069H148.885V38.555C148.885 35.0682 146.778 32.8114 143.441 32.8114C140.05 32.8114 137.911 35.1859 137.911 38.8438C137.911 42.5124 140.029 44.7692 143.558 44.7692C146.393 44.7692 148.446 43.2611 148.788 41.015H145.922ZM143.473 35.1217C144.863 35.1217 145.815 36.1271 145.879 37.5924H141.013C141.12 36.1592 142.104 35.1217 143.473 35.1217Z" fill="#333333"/>
<path d="M150.307 36.4266C150.307 38.1486 151.43 39.2609 153.644 39.7315L155.602 40.138C156.725 40.3947 157.12 40.7369 157.12 41.3466C157.12 42.0953 156.393 42.5766 155.217 42.5766C153.976 42.5766 153.259 42.0418 153.067 41.0364H150.018C150.222 43.2932 152.051 44.7692 155.217 44.7692C158.169 44.7692 160.233 43.2825 160.233 41.0257C160.233 39.3465 159.249 38.4053 156.853 37.9026L154.896 37.4854C153.741 37.2394 153.313 36.8437 153.313 36.2554C153.313 35.496 154.029 35.004 155.11 35.004C156.265 35.004 156.96 35.6351 157.056 36.5656H159.933C159.869 34.3195 158.051 32.8114 155.11 32.8114C152.19 32.8114 150.307 34.2447 150.307 36.4266Z" fill="#333333"/>
<path d="M162.607 30.4156V33.0574H160.992V35.4105H162.607V41.4322C162.607 43.6676 163.655 44.566 166.351 44.566C166.982 44.566 167.517 44.5125 167.837 44.4376V42.1381C167.645 42.1702 167.356 42.1915 167.078 42.1915C166.158 42.1915 165.73 41.7744 165.73 40.8974V35.4105H167.848V33.0574H165.73V30.4156H162.607Z" fill="#333333"/>
<path d="M179.164 44.7692C182.63 44.7692 184.844 42.5552 184.844 38.7796C184.844 35.0575 182.597 32.8114 179.164 32.8114C175.731 32.8114 173.485 35.0682 173.485 38.7796C173.485 42.5445 175.699 44.7692 179.164 44.7692ZM179.164 42.3841C177.624 42.3841 176.651 41.0899 176.651 38.7903C176.651 36.5121 177.645 35.1966 179.164 35.1966C180.683 35.1966 181.667 36.5121 181.667 38.7903C181.667 41.0899 180.694 42.3841 179.164 42.3841Z" fill="#333333"/>
<path d="M187.293 44.5232H190.416V35.4105H192.619V33.1109H190.341V32.3515C190.341 31.5386 190.79 31.0894 191.817 31.0894C192.127 31.0894 192.438 31.1108 192.662 31.1536V29.0893C192.298 29.0145 191.646 28.9503 191.068 28.9503C188.352 28.9503 187.293 29.9985 187.293 32.2446V33.1109H185.731V35.4105H187.293V44.5232Z" fill="#333333"/>
<path d="M199.443 30.4156V33.0574H197.828V35.4105H199.443V41.4322C199.443 43.6676 200.491 44.566 203.187 44.566C203.818 44.566 204.353 44.5125 204.673 44.4376V42.1381C204.481 42.1702 204.192 42.1915 203.914 42.1915C202.994 42.1915 202.566 41.7744 202.566 40.8974V35.4105H204.684V33.0574H202.566V30.4156H199.443Z" fill="#333333"/>
<path d="M206.47 44.5232H209.593V37.9774C209.593 36.4694 210.46 35.4319 211.936 35.4319C213.358 35.4319 214.086 36.3303 214.086 37.8063V44.5232H217.209V37.1432C217.209 34.4907 215.754 32.8435 213.209 32.8435C211.465 32.8435 210.214 33.6564 209.604 35.1003H209.54V29.0893H206.47V44.5232Z" fill="#333333"/>
<path d="M226.803 41.015C226.514 41.8921 225.637 42.4589 224.492 42.4589C222.899 42.4589 221.861 41.3359 221.861 39.6995V39.5069H229.765V38.555C229.765 35.0682 227.658 32.8114 224.321 32.8114C220.931 32.8114 218.792 35.1859 218.792 38.8438C218.792 42.5124 220.909 44.7692 224.439 44.7692C227.273 44.7692 229.327 43.2611 229.669 41.015H226.803ZM224.353 35.1217C225.744 35.1217 226.696 36.1271 226.76 37.5924H221.893C222 36.1592 222.984 35.1217 224.353 35.1217Z" fill="#333333"/>
<path d="M236.557 30.4156V33.0574H234.942V35.4105H236.557V41.4322C236.557 43.6676 237.605 44.566 240.301 44.566C240.932 44.566 241.467 44.5125 241.787 44.4376V42.1381C241.595 42.1702 241.306 42.1915 241.028 42.1915C240.108 42.1915 239.68 41.7744 239.68 40.8974V35.4105H241.798V33.0574H239.68V30.4156H236.557Z" fill="#333333"/>
<path d="M250.932 41.015C250.643 41.8921 249.766 42.4589 248.622 42.4589C247.028 42.4589 245.991 41.3359 245.991 39.6995V39.5069H253.895V38.555C253.895 35.0682 251.788 32.8114 248.451 32.8114C245.06 32.8114 242.921 35.1859 242.921 38.8438C242.921 42.5124 245.039 44.7692 248.568 44.7692C251.403 44.7692 253.456 43.2611 253.799 41.015H250.932ZM248.483 35.1217C249.873 35.1217 250.825 36.1271 250.889 37.5924H246.023C246.13 36.1592 247.114 35.1217 248.483 35.1217Z" fill="#333333"/>
<path d="M258.911 44.705C260.344 44.705 261.767 43.9884 262.409 42.7691H262.473V44.5232H265.489V36.6405C265.489 34.3302 263.575 32.8114 260.633 32.8114C257.596 32.8114 255.702 34.3409 255.585 36.5656H258.441C258.59 35.7207 259.328 35.1431 260.494 35.1431C261.671 35.1431 262.419 35.7634 262.419 36.833V37.5924L259.532 37.7635C256.676 37.9347 255.071 39.1433 255.071 41.2289C255.071 43.2932 256.729 44.705 258.911 44.705ZM259.938 42.4482C258.879 42.4482 258.173 41.9135 258.173 41.0578C258.173 40.2449 258.836 39.7208 260.002 39.6353L262.419 39.4855V40.3198C262.419 41.5605 261.296 42.4482 259.938 42.4482Z" fill="#333333"/>
<path d="M267.511 44.5232H270.634V37.6031C270.634 36.3196 271.436 35.4212 272.623 35.4212C273.778 35.4212 274.473 36.1485 274.473 37.3785V44.5232H277.479V37.5603C277.479 36.2875 278.26 35.4212 279.447 35.4212C280.656 35.4212 281.319 36.1485 281.319 37.4747V44.5232H284.442V36.694C284.442 34.3837 282.934 32.8435 280.688 32.8435C279.008 32.8435 277.639 33.7527 277.126 35.1966H277.062C276.677 33.6992 275.522 32.8435 273.864 32.8435C272.302 32.8435 271.072 33.7527 270.591 35.1324H270.527V33.0574H267.511V44.5232Z" fill="#333333"/>
<path d="M36.0238 77.3813V65.0342H34.4836V77.3813H36.0238Z" fill="#333333"/>
<path d="M38.1886 77.3813H39.6774V72.1447C39.6774 70.6387 40.593 69.6462 41.9963 69.6462C43.3653 69.6462 44.0413 70.4334 44.0413 71.8709V77.3813H45.5301V71.6056C45.5301 69.5863 44.4006 68.3285 42.4497 68.3285C41.0721 68.3285 40.1224 68.9445 39.6261 69.9029H39.5919V68.4825H38.1886V77.3813Z" fill="#333333"/>
<path d="M54.7284 68.4825H53.1797L50.7154 75.7983H50.6811L48.2254 68.4825H46.6596L49.9367 77.3813H51.4598L54.7284 68.4825Z" fill="#333333"/>
<path d="M56.7221 66.8995C57.244 66.8995 57.6547 66.4802 57.6547 65.9668C57.6547 65.4449 57.244 65.0342 56.7221 65.0342C56.2087 65.0342 55.7894 65.4449 55.7894 65.9668C55.7894 66.4802 56.2087 66.8995 56.7221 66.8995ZM55.9776 77.3813H57.4665V68.4825H55.9776V77.3813Z" fill="#333333"/>
<path d="M59.9564 66.3348V68.4825H58.6302V69.7061H59.9564V75.071C59.9564 76.7823 60.5896 77.4497 62.2239 77.4497C62.5747 77.4497 62.9855 77.4241 63.1651 77.3813V76.132C63.0625 76.1491 62.7202 76.1748 62.5491 76.1748C61.7875 76.1748 61.4453 75.8069 61.4453 74.994V69.7061H63.1737V68.4825H61.4453V66.3348H59.9564Z" fill="#333333"/>
<path d="M70.4125 74.8314C70.1644 75.67 69.3344 76.2433 68.205 76.2433C66.6049 76.2433 65.6038 75.1223 65.6038 73.4196V73.334H71.9869V72.7693C71.9869 70.074 70.5067 68.3285 68.1023 68.3285C65.6465 68.3285 64.0721 70.2023 64.0721 72.9661C64.0721 75.7641 65.6209 77.5353 68.1707 77.5353C70.1131 77.5353 71.619 76.3887 71.8757 74.8314H70.4125ZM68.0766 69.6205C69.4799 69.6205 70.4125 70.6815 70.4468 72.1703H65.6123C65.7064 70.6901 66.6819 69.6205 68.0766 69.6205Z" fill="#333333"/>
<path d="M77.8311 80.7098C79.4397 80.7098 80.1756 80.0851 80.9371 78.0059L84.4367 68.4825H82.8709L80.4066 75.8924H80.3809L77.9166 68.4825H76.3251L79.6108 77.3898L79.4055 78.0145C79.0632 79.0498 78.6012 79.452 77.7712 79.452C77.5829 79.452 77.3519 79.4434 77.1893 79.4092V80.6584C77.3519 80.6927 77.6514 80.7098 77.8311 80.7098Z" fill="#333333"/>
<path d="M89.0401 77.5353C91.4959 77.5353 93.1558 75.7641 93.1558 72.9319C93.1558 70.0911 91.4959 68.3285 89.0401 68.3285C86.5759 68.3285 84.9159 70.0911 84.9159 72.9319C84.9159 75.7641 86.5759 77.5353 89.0401 77.5353ZM89.0401 76.2261C87.4657 76.2261 86.4304 75.0282 86.4304 72.9319C86.4304 70.8355 87.4657 69.6376 89.0401 69.6376C90.6146 69.6376 91.6413 70.8355 91.6413 72.9319C91.6413 75.0282 90.6146 76.2261 89.0401 76.2261Z" fill="#333333"/>
<path d="M101.969 68.4825H100.48V73.7105C100.48 75.225 99.6075 76.2176 98.1614 76.2176C96.7838 76.2176 96.1079 75.4389 96.1079 73.9929V68.4825H94.619V74.2581C94.619 76.2775 95.757 77.5353 97.6994 77.5353C99.0684 77.5353 99.9925 76.962 100.523 75.9352H100.557V77.3813H101.969V68.4825Z" fill="#333333"/>
<path d="M103.903 77.3813H105.392V71.8366C105.392 70.5788 106.145 69.7488 107.3 69.7488C107.659 69.7488 107.976 69.7916 108.096 69.8344V68.3883C107.976 68.3712 107.753 68.3285 107.497 68.3285C106.453 68.3285 105.631 68.9531 105.34 69.9371H105.306V68.4825H103.903V77.3813Z" fill="#333333"/>
<path d="M113.384 66.3348V68.4825H112.057V69.7061H113.384V75.071C113.384 76.7823 114.017 77.4497 115.651 77.4497C116.002 77.4497 116.413 77.4241 116.592 77.3813V76.132C116.49 76.1491 116.147 76.1748 115.976 76.1748C115.215 76.1748 114.872 75.8069 114.872 74.994V69.7061H116.601V68.4825H114.872V66.3348H113.384Z" fill="#333333"/>
<path d="M123.84 74.8314C123.591 75.67 122.762 76.2433 121.632 76.2433C120.032 76.2433 119.031 75.1223 119.031 73.4196V73.334H125.414V72.7693C125.414 70.074 123.934 68.3285 121.529 68.3285C119.074 68.3285 117.499 70.2023 117.499 72.9661C117.499 75.7641 119.048 77.5353 121.598 77.5353C123.54 77.5353 125.046 76.3887 125.303 74.8314H123.84ZM121.504 69.6205C122.907 69.6205 123.84 70.6815 123.874 72.1703H119.039C119.134 70.6901 120.109 69.6205 121.504 69.6205Z" fill="#333333"/>
<path d="M129.521 77.5353C130.719 77.5353 131.849 76.8679 132.379 75.8497H132.413V77.3813H133.825V71.2291C133.825 69.4579 132.507 68.3285 130.42 68.3285C128.315 68.3285 126.997 69.5093 126.894 71.0494H128.332C128.52 70.1767 129.239 69.6376 130.385 69.6376C131.618 69.6376 132.336 70.2879 132.336 71.3746V72.119L129.786 72.2645C127.733 72.3843 126.561 73.3426 126.561 74.8657C126.561 76.4657 127.75 77.5353 129.521 77.5353ZM129.855 76.2689C128.785 76.2689 128.075 75.7128 128.075 74.8657C128.075 74.0271 128.76 73.4966 129.958 73.4196L132.336 73.2741V74.0014C132.336 75.2849 131.258 76.2689 129.855 76.2689Z" fill="#333333"/>
<path d="M135.716 77.3813H137.205V71.8024C137.205 70.5703 138.061 69.6462 139.241 69.6462C140.345 69.6462 141.064 70.3478 141.064 71.4174V77.3813H142.553V71.7254C142.553 70.5189 143.383 69.6462 144.564 69.6462C145.736 69.6462 146.412 70.3649 146.412 71.5799V77.3813H147.901V71.2377C147.901 69.475 146.763 68.3285 145 68.3285C143.751 68.3285 142.707 68.9616 142.211 70.0226H142.176C141.791 68.9445 140.893 68.3285 139.678 68.3285C138.48 68.3285 137.573 68.9616 137.154 69.9029H137.119V68.4825H135.716V77.3813Z" fill="#333333"/>
<path d="M149.8 77.3813H151.289V71.8024C151.289 70.5703 152.145 69.6462 153.325 69.6462C154.429 69.6462 155.148 70.3478 155.148 71.4174V77.3813H156.637V71.7254C156.637 70.5189 157.467 69.6462 158.648 69.6462C159.82 69.6462 160.496 70.3649 160.496 71.5799V77.3813H161.985V71.2377C161.985 69.475 160.847 68.3285 159.084 68.3285C157.835 68.3285 156.791 68.9616 156.295 70.0226H156.26C155.875 68.9445 154.977 68.3285 153.762 68.3285C152.564 68.3285 151.657 68.9616 151.238 69.9029H151.203V68.4825H149.8V77.3813Z" fill="#333333"/>
<path d="M166.485 77.5353C167.683 77.5353 168.813 76.8679 169.343 75.8497H169.378V77.3813H170.789V71.2291C170.789 69.4579 169.472 68.3285 167.384 68.3285C165.279 68.3285 163.961 69.5093 163.859 71.0494H165.296C165.484 70.1767 166.203 69.6376 167.35 69.6376C168.582 69.6376 169.301 70.2879 169.301 71.3746V72.119L166.751 72.2645C164.697 72.3843 163.525 73.3426 163.525 74.8657C163.525 76.4657 164.714 77.5353 166.485 77.5353ZM166.819 76.2689C165.75 76.2689 165.039 75.7128 165.039 74.8657C165.039 74.0271 165.724 73.4966 166.922 73.4196L169.301 73.2741V74.0014C169.301 75.2849 168.222 76.2689 166.819 76.2689Z" fill="#333333"/>
<path d="M173.16 66.3348V68.4825H171.833V69.7061H173.16V75.071C173.16 76.7823 173.793 77.4497 175.427 77.4497C175.778 77.4497 176.189 77.4241 176.368 77.3813V76.132C176.266 76.1491 175.923 76.1748 175.752 76.1748C174.991 76.1748 174.648 75.8069 174.648 74.994V69.7061H176.377V68.4825H174.648V66.3348H173.16Z" fill="#333333"/>
<path d="M183.616 74.8314C183.368 75.67 182.538 76.2433 181.408 76.2433C179.808 76.2433 178.807 75.1223 178.807 73.4196V73.334H185.19V72.7693C185.19 70.074 183.71 68.3285 181.305 68.3285C178.85 68.3285 177.275 70.2023 177.275 72.9661C177.275 75.7641 178.824 77.5353 181.374 77.5353C183.316 77.5353 184.822 76.3887 185.079 74.8314H183.616ZM181.28 69.6205C182.683 69.6205 183.616 70.6815 183.65 72.1703H178.815C178.91 70.6901 179.885 69.6205 181.28 69.6205Z" fill="#333333"/>
<path d="M186.542 70.9382C186.542 72.2217 187.355 73.0003 189.032 73.4025L190.444 73.7447C191.462 73.9929 191.813 74.3608 191.813 75.0026C191.813 75.8069 191.068 76.3203 189.862 76.3203C188.655 76.3203 187.971 75.8325 187.791 74.8143H186.302C186.474 76.4828 187.774 77.5353 189.862 77.5353C191.847 77.5353 193.31 76.4401 193.31 74.8913C193.31 73.6164 192.66 72.9148 190.863 72.4784L189.451 72.1361C188.459 71.8965 188.005 71.4773 188.005 70.8612C188.005 70.0825 188.724 69.5435 189.811 69.5435C190.906 69.5435 191.59 70.1168 191.702 71.0494H193.122C193.062 69.475 191.762 68.3285 189.811 68.3285C187.885 68.3285 186.542 69.4151 186.542 70.9382Z" fill="#333333"/>
<path d="M202.141 77.5353C204.596 77.5353 206.256 75.7641 206.256 72.9319C206.256 70.0911 204.596 68.3285 202.141 68.3285C199.676 68.3285 198.016 70.0911 198.016 72.9319C198.016 75.7641 199.676 77.5353 202.141 77.5353ZM202.141 76.2261C200.566 76.2261 199.531 75.0282 199.531 72.9319C199.531 70.8355 200.566 69.6376 202.141 69.6376C203.715 69.6376 204.742 70.8355 204.742 72.9319C204.742 75.0282 203.715 76.2261 202.141 76.2261Z" fill="#333333"/>
<path d="M207.762 77.3813H209.251V72.1447C209.251 70.6387 210.167 69.6462 211.57 69.6462C212.939 69.6462 213.615 70.4334 213.615 71.8709V77.3813H215.104V71.6056C215.104 69.5863 213.974 68.3285 212.023 68.3285C210.646 68.3285 209.696 68.9445 209.2 69.9029H209.166V68.4825H207.762V77.3813Z" fill="#333333"/>
<path d="M222.907 74.8314C222.659 75.67 221.829 76.2433 220.7 76.2433C219.1 76.2433 218.099 75.1223 218.099 73.4196V73.334H224.482V72.7693C224.482 70.074 223.001 68.3285 220.597 68.3285C218.141 68.3285 216.567 70.2023 216.567 72.9661C216.567 75.7641 218.116 77.5353 220.666 77.5353C222.608 77.5353 224.114 76.3887 224.371 74.8314H222.907ZM220.571 69.6205C221.975 69.6205 222.907 70.6815 222.942 72.1703H218.107C218.201 70.6901 219.177 69.6205 220.571 69.6205Z" fill="#333333"/>
<path d="M234.005 77.5353C236.281 77.5353 237.787 75.7299 237.787 72.9319C237.787 70.1424 236.273 68.3285 234.031 68.3285C232.773 68.3285 231.738 68.9531 231.182 69.9713H231.147V65.0342H229.658V77.3813H231.079V75.8753H231.113C231.686 76.9021 232.705 77.5353 234.005 77.5353ZM233.714 69.6376C235.289 69.6376 236.264 70.9125 236.264 72.9319C236.264 74.9683 235.289 76.2261 233.714 76.2261C232.208 76.2261 231.139 74.917 231.139 72.9319C231.139 70.9553 232.208 69.6376 233.714 69.6376Z" fill="#333333"/>
<path d="M239.789 80.7098C241.398 80.7098 242.134 80.0851 242.895 78.0059L246.395 68.4825H244.829L242.365 75.8924H242.339L239.875 68.4825H238.283L241.569 77.3898L241.364 78.0145C241.022 79.0498 240.559 79.452 239.73 79.452C239.541 79.452 239.31 79.4434 239.148 79.4092V80.6584C239.31 80.6927 239.61 80.7098 239.789 80.7098Z" fill="#333333"/>
<path d="M254.849 77.5353C257.305 77.5353 258.965 75.7641 258.965 72.9319C258.965 70.0911 257.305 68.3285 254.849 68.3285C252.385 68.3285 250.725 70.0911 250.725 72.9319C250.725 75.7641 252.385 77.5353 254.849 77.5353ZM254.849 76.2261C253.275 76.2261 252.239 75.0282 252.239 72.9319C252.239 70.8355 253.275 69.6376 254.849 69.6376C256.423 69.6376 257.45 70.8355 257.45 72.9319C257.45 75.0282 256.423 76.2261 254.849 76.2261Z" fill="#333333"/>
<path d="M260.471 77.3813H261.959V72.1447C261.959 70.6387 262.875 69.6462 264.278 69.6462C265.647 69.6462 266.323 70.4334 266.323 71.8709V77.3813H267.812V71.6056C267.812 69.5863 266.683 68.3285 264.732 68.3285C263.354 68.3285 262.404 68.9445 261.908 69.9029H261.874V68.4825H260.471V77.3813Z" fill="#333333"/>
<path d="M275.616 74.8314C275.368 75.67 274.538 76.2433 273.408 76.2433C271.808 76.2433 270.807 75.1223 270.807 73.4196V73.334H277.19V72.7693C277.19 70.074 275.71 68.3285 273.305 68.3285C270.85 68.3285 269.275 70.2023 269.275 72.9661C269.275 75.7641 270.824 77.5353 273.374 77.5353C275.316 77.5353 276.822 76.3887 277.079 74.8314H275.616ZM273.28 69.6205C274.683 69.6205 275.616 70.6815 275.65 72.1703H270.815C270.91 70.6901 271.885 69.6205 273.28 69.6205Z" fill="#333333"/>
<path d="M45.5729 91.4825H44.1012L42.3214 98.7213H42.2872L40.2678 91.4825H38.8303L36.8195 98.7213H36.7853L35.0056 91.4825H33.5253L36.0152 100.381H37.5297L39.532 93.4933H39.5662L41.577 100.381H43.0915L45.5729 91.4825Z" fill="#333333"/>
<path d="M47.6179 89.8995C48.1399 89.8995 48.5506 89.4802 48.5506 88.9668C48.5506 88.4449 48.1399 88.0342 47.6179 88.0342C47.1045 88.0342 46.6852 88.4449 46.6852 88.9668C46.6852 89.4802 47.1045 89.8995 47.6179 89.8995ZM46.8735 100.381H48.3623V91.4825H46.8735V100.381Z" fill="#333333"/>
<path d="M50.8523 89.3348V91.4825H49.526V92.7061H50.8523V98.071C50.8523 99.7823 51.4855 100.45 53.1198 100.45C53.4706 100.45 53.8813 100.424 54.061 100.381V99.132C53.9583 99.1491 53.616 99.1748 53.4449 99.1748C52.6834 99.1748 52.3411 98.8069 52.3411 97.994V92.7061H54.0695V91.4825H52.3411V89.3348H50.8523Z" fill="#333333"/>
<path d="M55.7381 100.381H57.2269V95.196C57.2269 93.6558 58.1425 92.6462 59.6227 92.6462C61.0175 92.6462 61.7276 93.4933 61.7276 94.9051V100.381H63.2165V94.6313C63.2165 92.6462 62.0357 91.3285 60.0848 91.3285C58.7329 91.3285 57.7574 91.9103 57.2611 92.9029H57.2269V88.0342H55.7381V100.381Z" fill="#333333"/>
<path d="M74.6053 97.8314C74.3571 98.67 73.5271 99.2433 72.3977 99.2433C70.7976 99.2433 69.7965 98.1223 69.7965 96.4196V96.334H76.1797V95.7693C76.1797 93.074 74.6994 91.3285 72.295 91.3285C69.8393 91.3285 68.2649 93.2023 68.2649 95.9661C68.2649 98.7641 69.8136 100.535 72.3634 100.535C74.3058 100.535 75.8117 99.3887 76.0684 97.8314H74.6053ZM72.2693 92.6205C73.6726 92.6205 74.6053 93.6815 74.6395 95.1703H69.805C69.8992 93.6901 70.8746 92.6205 72.2693 92.6205Z" fill="#333333"/>
<path d="M77.6856 100.381H79.1744V94.8024C79.1744 93.5703 80.0301 92.6462 81.2109 92.6462C82.3147 92.6462 83.0335 93.3478 83.0335 94.4174V100.381H84.5223V94.7254C84.5223 93.5189 85.3523 92.6462 86.5331 92.6462C87.7053 92.6462 88.3813 93.3649 88.3813 94.5799V100.381H89.8701V94.2377C89.8701 92.475 88.7321 91.3285 86.9695 91.3285C85.7202 91.3285 84.6763 91.9616 84.18 93.0226H84.1458C83.7608 91.9445 82.8623 91.3285 81.6473 91.3285C80.4494 91.3285 79.5424 91.9616 79.1231 92.9029H79.0889V91.4825H77.6856V100.381Z" fill="#333333"/>
<path d="M94.3709 100.535C95.5688 100.535 96.6983 99.8679 97.2288 98.8497H97.263V100.381H98.6748V94.2291C98.6748 92.4579 97.3571 91.3285 95.2693 91.3285C93.1644 91.3285 91.8467 92.5093 91.744 94.0494H93.1815C93.3698 93.1767 94.0885 92.6376 95.2351 92.6376C96.4672 92.6376 97.186 93.2879 97.186 94.3746V95.119L94.6361 95.2645C92.5826 95.3843 91.4103 96.3426 91.4103 97.8657C91.4103 99.4657 92.5997 100.535 94.3709 100.535ZM94.7046 99.2689C93.635 99.2689 92.9248 98.7128 92.9248 97.8657C92.9248 97.0271 93.6093 96.4966 94.8073 96.4196L97.186 96.2741V97.0014C97.186 98.2849 96.1079 99.2689 94.7046 99.2689Z" fill="#333333"/>
<path d="M101.387 89.8995C101.909 89.8995 102.32 89.4802 102.32 88.9668C102.32 88.4449 101.909 88.0342 101.387 88.0342C100.874 88.0342 100.455 88.4449 100.455 88.9668C100.455 89.4802 100.874 89.8995 101.387 89.8995ZM100.643 100.381H102.132V91.4825H100.643V100.381Z" fill="#333333"/>
<path d="M104.219 100.381H105.708V88.0342H104.219V100.381Z" fill="#333333"/>
<path d="M115.001 100.535C117.456 100.535 119.116 98.7641 119.116 95.9319C119.116 93.0911 117.456 91.3285 115.001 91.3285C112.536 91.3285 110.876 93.0911 110.876 95.9319C110.876 98.7641 112.536 100.535 115.001 100.535ZM115.001 99.2261C113.426 99.2261 112.391 98.0282 112.391 95.9319C112.391 93.8355 113.426 92.6376 115.001 92.6376C116.575 92.6376 117.602 93.8355 117.602 95.9319C117.602 98.0282 116.575 99.2261 115.001 99.2261Z" fill="#333333"/>
<path d="M120.622 100.381H122.111V94.8366C122.111 93.5788 122.864 92.7488 124.019 92.7488C124.379 92.7488 124.695 92.7916 124.815 92.8344V91.3883C124.695 91.3712 124.473 91.3285 124.216 91.3285C123.172 91.3285 122.351 91.9531 122.06 92.9371H122.026V91.4825H120.622V100.381Z" fill="#333333"/>
<path d="M129.47 93.9382C129.47 95.2217 130.283 96.0003 131.96 96.4025L133.372 96.7447C134.39 96.9929 134.741 97.3608 134.741 98.0026C134.741 98.8069 133.996 99.3203 132.79 99.3203C131.583 99.3203 130.899 98.8325 130.719 97.8143H129.23C129.401 99.4828 130.702 100.535 132.79 100.535C134.775 100.535 136.238 99.4401 136.238 97.8913C136.238 96.6164 135.588 95.9148 133.791 95.4784L132.379 95.1361C131.387 94.8965 130.933 94.4773 130.933 93.8612C130.933 93.0825 131.652 92.5435 132.738 92.5435C133.834 92.5435 134.518 93.1168 134.629 94.0494H136.05C135.99 92.475 134.689 91.3285 132.738 91.3285C130.813 91.3285 129.47 92.4151 129.47 93.9382Z" fill="#333333"/>
<path d="M137.864 100.381H139.353V95.196C139.353 93.6558 140.268 92.6462 141.748 92.6462C143.143 92.6462 143.853 93.4933 143.853 94.9051V100.381H145.342V94.6313C145.342 92.6462 144.161 91.3285 142.211 91.3285C140.859 91.3285 139.883 91.9103 139.387 92.9029H139.353V88.0342H137.864V100.381Z" fill="#333333"/>
<path d="M149.834 100.535C151.032 100.535 152.162 99.8679 152.692 98.8497H152.727V100.381H154.138V94.2291C154.138 92.4579 152.821 91.3285 150.733 91.3285C148.628 91.3285 147.31 92.5093 147.208 94.0494H148.645C148.833 93.1767 149.552 92.6376 150.699 92.6376C151.931 92.6376 152.65 93.2879 152.65 94.3746V95.119L150.1 95.2645C148.046 95.3843 146.874 96.3426 146.874 97.8657C146.874 99.4657 148.063 100.535 149.834 100.535ZM150.168 99.2689C149.099 99.2689 148.388 98.7128 148.388 97.8657C148.388 97.0271 149.073 96.4966 150.271 96.4196L152.65 96.2741V97.0014C152.65 98.2849 151.571 99.2689 150.168 99.2689Z" fill="#333333"/>
<path d="M156.029 100.381H157.518V94.8366C157.518 93.5788 158.271 92.7488 159.426 92.7488C159.786 92.7488 160.102 92.7916 160.222 92.8344V91.3883C160.102 91.3712 159.88 91.3285 159.623 91.3285C158.579 91.3285 157.758 91.9531 157.467 92.9371H157.433V91.4825H156.029V100.381Z" fill="#333333"/>
<path d="M166.913 97.8314C166.665 98.67 165.835 99.2433 164.706 99.2433C163.106 99.2433 162.105 98.1223 162.105 96.4196V96.334H168.488V95.7693C168.488 93.074 167.007 91.3285 164.603 91.3285C162.147 91.3285 160.573 93.2023 160.573 95.9661C160.573 98.7641 162.122 100.535 164.671 100.535C166.614 100.535 168.12 99.3887 168.376 97.8314H166.913ZM164.577 92.6205C165.981 92.6205 166.913 93.6815 166.948 95.1703H162.113C162.207 93.6901 163.183 92.6205 164.577 92.6205Z" fill="#333333"/>
<path d="M176.189 100.535C177.387 100.535 178.516 99.8679 179.046 98.8497H179.081V100.381H180.493V94.2291C180.493 92.4579 179.175 91.3285 177.087 91.3285C174.982 91.3285 173.664 92.5093 173.562 94.0494H174.999C175.187 93.1767 175.906 92.6376 177.053 92.6376C178.285 92.6376 179.004 93.2879 179.004 94.3746V95.119L176.454 95.2645C174.4 95.3843 173.228 96.3426 173.228 97.8657C173.228 99.4657 174.417 100.535 176.189 100.535ZM176.522 99.2689C175.453 99.2689 174.743 98.7128 174.743 97.8657C174.743 97.0271 175.427 96.4966 176.625 96.4196L179.004 96.2741V97.0014C179.004 98.2849 177.926 99.2689 176.522 99.2689Z" fill="#333333"/>
<path d="M185.823 93.9382C185.823 95.2217 186.636 96.0003 188.313 96.4025L189.725 96.7447C190.743 96.9929 191.094 97.3608 191.094 98.0026C191.094 98.8069 190.35 99.3203 189.143 99.3203C187.937 99.3203 187.252 98.8325 187.073 97.8143H185.584C185.755 99.4828 187.055 100.535 189.143 100.535C191.128 100.535 192.591 99.4401 192.591 97.8913C192.591 96.6164 191.941 95.9148 190.144 95.4784L188.732 95.1361C187.74 94.8965 187.286 94.4773 187.286 93.8612C187.286 93.0825 188.005 92.5435 189.092 92.5435C190.187 92.5435 190.872 93.1168 190.983 94.0494H192.403C192.343 92.475 191.043 91.3285 189.092 91.3285C187.167 91.3285 185.823 92.4151 185.823 93.9382Z" fill="#333333"/>
<path d="M194.962 89.8995C195.484 89.8995 195.894 89.4802 195.894 88.9668C195.894 88.4449 195.484 88.0342 194.962 88.0342C194.448 88.0342 194.029 88.4449 194.029 88.9668C194.029 89.4802 194.448 89.8995 194.962 89.8995ZM194.217 100.381H195.706V91.4825H194.217V100.381Z" fill="#333333"/>
<path d="M201.388 103.735C203.843 103.735 205.409 102.324 205.409 100.202V91.4825H203.989V92.9799H203.963C203.373 91.9445 202.329 91.3285 201.071 91.3285C198.769 91.3285 197.28 93.1082 197.28 95.8976C197.28 98.6614 198.769 100.45 201.037 100.45C202.286 100.45 203.339 99.8165 203.886 98.8497H203.92V100.253C203.92 101.579 202.988 102.469 201.448 102.469C200.335 102.469 199.454 101.93 199.163 101.117H197.631C197.879 102.632 199.428 103.735 201.388 103.735ZM201.336 99.1406C199.805 99.1406 198.804 97.8913 198.804 95.8976C198.804 93.904 199.805 92.6376 201.336 92.6376C202.885 92.6376 203.92 93.9382 203.92 95.8976C203.92 97.8571 202.885 99.1406 201.336 99.1406Z" fill="#333333"/>
<path d="M207.352 100.381H208.84V95.1447C208.84 93.6387 209.756 92.6462 211.159 92.6462C212.528 92.6462 213.204 93.4334 213.204 94.8709V100.381H214.693V94.6056C214.693 92.5863 213.564 91.3285 211.613 91.3285C210.235 91.3285 209.285 91.9445 208.789 92.9029H208.755V91.4825H207.352V100.381Z" fill="#333333"/>
<path d="M222.189 96.0688V94.6826H216.575V96.0688H222.189Z" fill="#333333"/>
<path d="M231.413 91.4825H229.924V96.7105C229.924 98.225 229.051 99.2176 227.605 99.2176C226.227 99.2176 225.551 98.4389 225.551 96.9929V91.4825H224.062V97.2581C224.062 99.2775 225.2 100.535 227.143 100.535C228.512 100.535 229.436 99.962 229.966 98.9352H230.001V100.381H231.413V91.4825Z" fill="#333333"/>
<path d="M237.667 91.3285C236.375 91.3285 235.34 91.9873 234.792 92.9884H234.758V91.4825H233.346V103.35H234.835V98.9352H234.869C235.4 99.9107 236.427 100.535 237.702 100.535C239.943 100.535 241.475 98.7213 241.475 95.9319C241.475 93.1424 239.935 91.3285 237.667 91.3285ZM237.376 99.2261C235.853 99.2261 234.827 97.917 234.827 95.9319C234.827 93.9553 235.853 92.6376 237.376 92.6376C238.959 92.6376 239.952 93.9211 239.952 95.9319C239.952 97.9512 238.959 99.2261 237.376 99.2261Z" fill="#333333"/>
<path d="M246.652 100.381H248.141V88.0342H246.652V100.381Z" fill="#333333"/>
<path d="M250.973 89.8995C251.495 89.8995 251.905 89.4802 251.905 88.9668C251.905 88.4449 251.495 88.0342 250.973 88.0342C250.459 88.0342 250.04 88.4449 250.04 88.9668C250.04 89.4802 250.459 89.8995 250.973 89.8995ZM250.228 100.381H251.717V91.4825H250.228V100.381Z" fill="#333333"/>
<path d="M253.728 100.381H255.217V95.1447C255.217 93.6387 256.132 92.6462 257.536 92.6462C258.905 92.6462 259.581 93.4334 259.581 94.8709V100.381H261.07V94.6056C261.07 92.5863 259.94 91.3285 257.989 91.3285C256.612 91.3285 255.662 91.9445 255.166 92.9029H255.131V91.4825H253.728V100.381Z" fill="#333333"/>
<path d="M264.535 97.0271L265.365 96.2399L268.668 100.381H270.396L266.417 95.3244L270.276 91.4825H268.471L264.535 95.4356V88.0342H263.046V100.381H264.535V97.0271Z" fill="#333333"/>
<path d="M275.547 89.3348V91.4825H274.221V92.7061H275.547V98.071C275.547 99.7823 276.18 100.45 277.815 100.45C278.166 100.45 278.576 100.424 278.756 100.381V99.132C278.653 99.1491 278.311 99.1748 278.14 99.1748C277.378 99.1748 277.036 98.8069 277.036 97.994V92.7061H278.764V91.4825H277.036V89.3348H275.547Z" fill="#333333"/>
<path d="M283.787 100.535C286.243 100.535 287.903 98.7641 287.903 95.9319C287.903 93.0911 286.243 91.3285 283.787 91.3285C281.323 91.3285 279.663 93.0911 279.663 95.9319C279.663 98.7641 281.323 100.535 283.787 100.535ZM283.787 99.2261C282.213 99.2261 281.177 98.0282 281.177 95.9319C281.177 93.8355 282.213 92.6376 283.787 92.6376C285.362 92.6376 286.388 93.8355 286.388 95.9319C286.388 98.0282 285.362 99.2261 283.787 99.2261Z" fill="#333333"/>
<path d="M35.074 112.9C35.596 112.9 36.0067 112.48 36.0067 111.967C36.0067 111.445 35.596 111.034 35.074 111.034C34.5606 111.034 34.1413 111.445 34.1413 111.967C34.1413 112.48 34.5606 112.9 35.074 112.9ZM34.3296 123.381H35.8184V114.482H34.3296V123.381Z" fill="#333333"/>
<path d="M37.8292 123.381H39.3181V118.145C39.3181 116.639 40.2336 115.646 41.6369 115.646C43.0059 115.646 43.6819 116.433 43.6819 117.871V123.381H45.1707V117.606C45.1707 115.586 44.0413 114.328 42.0904 114.328C40.7128 114.328 39.763 114.945 39.2667 115.903H39.2325V114.482H37.8292V123.381Z" fill="#333333"/>
<path d="M54.369 114.482H52.8203L50.356 121.798H50.3218L47.866 114.482H46.3002L49.5774 123.381H51.1004L54.369 114.482Z" fill="#333333"/>
<path d="M56.3627 112.9C56.8846 112.9 57.2954 112.48 57.2954 111.967C57.2954 111.445 56.8846 111.034 56.3627 111.034C55.8493 111.034 55.43 111.445 55.43 111.967C55.43 112.48 55.8493 112.9 56.3627 112.9ZM55.6183 123.381H57.1071V114.482H55.6183V123.381Z" fill="#333333"/>
<path d="M59.5971 112.335V114.482H58.2708V115.706H59.5971V121.071C59.5971 122.782 60.2303 123.45 61.8646 123.45C62.2154 123.45 62.6261 123.424 62.8058 123.381V122.132C62.7031 122.149 62.3608 122.175 62.1897 122.175C61.4282 122.175 61.0859 121.807 61.0859 120.994V115.706H62.8143V114.482H61.0859V112.335H59.5971Z" fill="#333333"/>
<path d="M70.0532 120.831C69.805 121.67 68.975 122.243 67.8456 122.243C66.2455 122.243 65.2444 121.122 65.2444 119.42V119.334H71.6276V118.769C71.6276 116.074 70.1473 114.328 67.7429 114.328C65.2872 114.328 63.7128 116.202 63.7128 118.966C63.7128 121.764 65.2615 123.535 67.8114 123.535C69.7537 123.535 71.2596 122.389 71.5163 120.831H70.0532ZM67.7172 115.62C69.1205 115.62 70.0532 116.682 70.0874 118.17H65.2529C65.3471 116.69 66.3225 115.62 67.7172 115.62Z" fill="#333333"/>
<path d="M76.8043 123.381H78.2931V111.034H76.8043V123.381Z" fill="#333333"/>
<path d="M83.9918 123.535C86.4475 123.535 88.1075 121.764 88.1075 118.932C88.1075 116.091 86.4475 114.328 83.9918 114.328C81.5275 114.328 79.8675 116.091 79.8675 118.932C79.8675 121.764 81.5275 123.535 83.9918 123.535ZM83.9918 122.226C82.4174 122.226 81.382 121.028 81.382 118.932C81.382 116.836 82.4174 115.638 83.9918 115.638C85.5662 115.638 86.593 116.836 86.593 118.932C86.593 121.028 85.5662 122.226 83.9918 122.226Z" fill="#333333"/>
<path d="M90.0926 112.335V114.482H88.7663V115.706H90.0926V121.071C90.0926 122.782 90.7258 123.45 92.3601 123.45C92.7109 123.45 93.1216 123.424 93.3013 123.381V122.132C93.1986 122.149 92.8564 122.175 92.6852 122.175C91.9237 122.175 91.5814 121.807 91.5814 120.994V115.706H93.3099V114.482H91.5814V112.335H90.0926Z" fill="#333333"/>
<path d="M94.7474 116.938C94.7474 118.222 95.5602 119 97.2373 119.402L98.6492 119.745C99.6674 119.993 100.018 120.361 100.018 121.003C100.018 121.807 99.2738 122.32 98.0673 122.32C96.8608 122.32 96.1763 121.833 95.9966 120.814H94.5078C94.6789 122.483 95.9795 123.535 98.0673 123.535C100.052 123.535 101.516 122.44 101.516 120.891C101.516 119.616 100.865 118.915 99.0684 118.478L97.6566 118.136C96.664 117.897 96.2105 117.477 96.2105 116.861C96.2105 116.083 96.9293 115.543 98.016 115.543C99.1112 115.543 99.7957 116.117 99.907 117.049H101.327C101.267 115.475 99.9669 114.328 98.016 114.328C96.0907 114.328 94.7474 115.415 94.7474 116.938Z" fill="#333333"/>
<path d="M110.346 123.535C112.802 123.535 114.462 121.764 114.462 118.932C114.462 116.091 112.802 114.328 110.346 114.328C107.882 114.328 106.222 116.091 106.222 118.932C106.222 121.764 107.882 123.535 110.346 123.535ZM110.346 122.226C108.772 122.226 107.736 121.028 107.736 118.932C107.736 116.836 108.772 115.638 110.346 115.638C111.92 115.638 112.947 116.836 112.947 118.932C112.947 121.028 111.92 122.226 110.346 122.226Z" fill="#333333"/>
<path d="M116.447 123.381H117.936V115.706H119.75V114.482H117.927V113.498C117.927 112.617 118.312 112.189 119.116 112.189C119.365 112.189 119.613 112.215 119.792 112.241V111.034C119.578 111 119.219 110.966 118.885 110.966C117.243 110.966 116.447 111.779 116.447 113.49V114.482H115.206V115.706H116.447V123.381Z" fill="#333333"/>
<path d="M129.205 114.328C127.913 114.328 126.877 114.987 126.33 115.988H126.295V114.482H124.884V126.35H126.372V121.935H126.407C126.937 122.911 127.964 123.535 129.239 123.535C131.481 123.535 133.012 121.721 133.012 118.932C133.012 116.142 131.472 114.328 129.205 114.328ZM128.914 122.226C127.391 122.226 126.364 120.917 126.364 118.932C126.364 116.955 127.391 115.638 128.914 115.638C130.497 115.638 131.489 116.921 131.489 118.932C131.489 120.951 130.497 122.226 128.914 122.226Z" fill="#333333"/>
<path d="M140.422 120.831C140.174 121.67 139.344 122.243 138.215 122.243C136.615 122.243 135.613 121.122 135.613 119.42V119.334H141.997V118.769C141.997 116.074 140.516 114.328 138.112 114.328C135.656 114.328 134.082 116.202 134.082 118.966C134.082 121.764 135.631 123.535 138.18 123.535C140.123 123.535 141.629 122.389 141.885 120.831H140.422ZM138.086 115.62C139.49 115.62 140.422 116.682 140.456 118.17H135.622C135.716 116.69 136.692 115.62 138.086 115.62Z" fill="#333333"/>
<path d="M147.19 123.535C149.646 123.535 151.306 121.764 151.306 118.932C151.306 116.091 149.646 114.328 147.19 114.328C144.726 114.328 143.066 116.091 143.066 118.932C143.066 121.764 144.726 123.535 147.19 123.535ZM147.19 122.226C145.616 122.226 144.581 121.028 144.581 118.932C144.581 116.836 145.616 115.638 147.19 115.638C148.765 115.638 149.792 116.836 149.792 118.932C149.792 121.028 148.765 122.226 147.19 122.226Z" fill="#333333"/>
<path d="M157.133 114.328C155.841 114.328 154.806 114.987 154.258 115.988H154.224V114.482H152.812V126.35H154.301V121.935H154.335C154.866 122.911 155.892 123.535 157.167 123.535C159.409 123.535 160.941 121.721 160.941 118.932C160.941 116.142 159.401 114.328 157.133 114.328ZM156.842 122.226C155.319 122.226 154.292 120.917 154.292 118.932C154.292 116.955 155.319 115.638 156.842 115.638C158.425 115.638 159.418 116.921 159.418 118.932C159.418 120.951 158.425 122.226 156.842 122.226Z" fill="#333333"/>
<path d="M162.524 123.381H164.013V111.034H162.524V123.381Z" fill="#333333"/>
<path d="M171.927 120.831C171.679 121.67 170.849 122.243 169.72 122.243C168.12 122.243 167.119 121.122 167.119 119.42V119.334H173.502V118.769C173.502 116.074 172.022 114.328 169.617 114.328C167.161 114.328 165.587 116.202 165.587 118.966C165.587 121.764 167.136 123.535 169.686 123.535C171.628 123.535 173.134 122.389 173.391 120.831H171.927ZM169.591 115.62C170.995 115.62 171.927 116.682 171.962 118.17H167.127C167.221 116.69 168.197 115.62 169.591 115.62Z" fill="#333333"/>
<path d="M181.203 123.535C182.401 123.535 183.53 122.868 184.061 121.85H184.095V123.381H185.507V117.229C185.507 115.458 184.189 114.328 182.101 114.328C179.996 114.328 178.679 115.509 178.576 117.049H180.013C180.202 116.177 180.92 115.638 182.067 115.638C183.299 115.638 184.018 116.288 184.018 117.375V118.119L181.468 118.264C179.414 118.384 178.242 119.343 178.242 120.866C178.242 122.466 179.432 123.535 181.203 123.535ZM181.536 122.269C180.467 122.269 179.757 121.713 179.757 120.866C179.757 120.027 180.441 119.497 181.639 119.42L184.018 119.274V120.001C184.018 121.285 182.94 122.269 181.536 122.269Z" fill="#333333"/>
<path d="M187.877 112.335V114.482H186.551V115.706H187.877V121.071C187.877 122.782 188.51 123.45 190.144 123.45C190.495 123.45 190.906 123.424 191.086 123.381V122.132C190.983 122.149 190.641 122.175 190.469 122.175C189.708 122.175 189.366 121.807 189.366 120.994V115.706H191.094V114.482H189.366V112.335H187.877Z" fill="#333333"/>
<path d="M199.967 123.535C202.423 123.535 204.083 121.764 204.083 118.932C204.083 116.091 202.423 114.328 199.967 114.328C197.503 114.328 195.843 116.091 195.843 118.932C195.843 121.764 197.503 123.535 199.967 123.535ZM199.967 122.226C198.393 122.226 197.357 121.028 197.357 118.932C197.357 116.836 198.393 115.638 199.967 115.638C201.542 115.638 202.568 116.836 202.568 118.932C202.568 121.028 201.542 122.226 199.967 122.226Z" fill="#333333"/>
<path d="M205.589 123.381H207.078V118.145C207.078 116.639 207.993 115.646 209.397 115.646C210.766 115.646 211.442 116.433 211.442 117.871V123.381H212.93V117.606C212.93 115.586 211.801 114.328 209.85 114.328C208.472 114.328 207.523 114.945 207.026 115.903H206.992V114.482H205.589V123.381Z" fill="#333333"/>
<path d="M222.223 117.4C222.035 115.8 220.708 114.328 218.484 114.328C216.028 114.328 214.394 116.125 214.394 118.932C214.394 121.798 216.036 123.535 218.501 123.535C220.52 123.535 222.009 122.286 222.24 120.515H220.777C220.52 121.584 219.724 122.226 218.509 122.226C216.969 122.226 215.908 121.003 215.908 118.932C215.908 116.913 216.952 115.638 218.492 115.638C219.801 115.638 220.554 116.433 220.768 117.4H222.223Z" fill="#333333"/>
<path d="M229.513 120.831C229.265 121.67 228.435 122.243 227.305 122.243C225.705 122.243 224.704 121.122 224.704 119.42V119.334H231.087V118.769C231.087 116.074 229.607 114.328 227.203 114.328C224.747 114.328 223.173 116.202 223.173 118.966C223.173 121.764 224.721 123.535 227.271 123.535C229.214 123.535 230.719 122.389 230.976 120.831H229.513ZM227.177 115.62C228.58 115.62 229.513 116.682 229.547 118.17H224.713C224.807 116.69 225.782 115.62 227.177 115.62Z" fill="#333333"/>
<path d="M233.851 123.467C234.399 123.467 234.827 123.039 234.827 122.491C234.827 121.944 234.399 121.516 233.851 121.516C233.304 121.516 232.876 121.944 232.876 122.491C232.876 123.039 233.304 123.467 233.851 123.467Z" fill="#333333"/>
<rect x="33.2856" y="182.524" width="258.476" height="1.09524" fill="#D7D9E0"/>
<path d="M33.859 215.219C33.9617 217.478 35.8527 218.873 38.7106 218.873C41.6797 218.873 43.5365 217.384 43.5365 215.022C43.5365 213.191 42.4498 212.147 39.8486 211.608L38.5138 211.334C36.9736 211.009 36.3575 210.47 36.3575 209.632C36.3575 208.596 37.333 207.946 38.702 207.946C40.1138 207.946 41.0893 208.648 41.192 209.811H43.3054C43.2541 207.604 41.4487 206.115 38.7191 206.115C36.0409 206.115 34.1328 207.586 34.1328 209.76C34.1328 211.565 35.288 212.729 37.7608 213.234L39.0871 213.508C40.6957 213.841 41.3118 214.389 41.3118 215.279C41.3118 216.306 40.2764 217.041 38.7876 217.041C37.2474 217.041 36.1351 216.357 35.9725 215.219H33.859Z" fill="#0364D3"/>
<path d="M50.9807 215.955C50.7496 216.708 49.9967 217.204 49.0041 217.204C47.6094 217.204 46.7195 216.229 46.7195 214.774V214.646H53.0599V213.953C53.0599 211.197 51.4513 209.409 48.8757 209.409C46.2574 209.409 44.5975 211.3 44.5975 214.166C44.5975 217.059 46.2403 218.847 48.9613 218.847C51.109 218.847 52.7005 217.666 52.9743 215.955H50.9807ZM48.8843 211.06C50.1079 211.06 50.9293 211.959 50.9721 213.242H46.7366C46.8222 211.976 47.6864 211.06 48.8843 211.06Z" fill="#0364D3"/>
<path d="M54.4375 218.667H56.5681V213.414C56.5681 212.113 57.3467 211.232 58.5703 211.232C59.7853 211.232 60.3843 211.95 60.3843 213.234V218.667H62.5149V212.806C62.5149 210.71 61.3769 209.426 59.3746 209.426C57.9799 209.426 57.013 210.076 56.5253 211.155H56.4825V209.597H54.4375V218.667Z" fill="#0364D3"/>
<path d="M67.6146 218.813C68.9409 218.813 69.9848 218.137 70.481 217.118H70.5153V218.667H72.6031V206.32H70.4725V211.12H70.4211C69.942 210.119 68.9152 209.443 67.6146 209.443C65.33 209.443 63.8497 211.257 63.8497 214.124C63.8497 217.007 65.33 218.813 67.6146 218.813ZM68.2563 211.197C69.5997 211.197 70.481 212.352 70.481 214.132C70.481 215.929 69.5997 217.067 68.2563 217.067C66.8787 217.067 66.0316 215.938 66.0316 214.132C66.0316 212.335 66.8873 211.197 68.2563 211.197Z" fill="#0364D3"/>
<path d="M79.0119 208.228C79.6622 208.228 80.1756 207.706 80.1756 207.073C80.1756 206.431 79.6622 205.918 79.0119 205.918C78.3616 205.918 77.8397 206.431 77.8397 207.073C77.8397 207.706 78.3616 208.228 79.0119 208.228ZM77.9509 218.667H80.0815V209.597H77.9509V218.667Z" fill="#0364D3"/>
<path d="M81.8698 218.667H84.0004V213.414C84.0004 212.113 84.779 211.232 86.0026 211.232C87.2176 211.232 87.8166 211.95 87.8166 213.234V218.667H89.9472V212.806C89.9472 210.71 88.8092 209.426 86.8069 209.426C85.4122 209.426 84.4453 210.076 83.9576 211.155H83.9148V209.597H81.8698V218.667Z" fill="#0364D3"/>
<path d="M99.6075 209.597H97.3828L95.2779 216.691H95.2351L93.1302 209.597H90.8542L94.0714 218.667H96.4159L99.6075 209.597Z" fill="#0364D3"/>
<path d="M101.704 208.228C102.354 208.228 102.868 207.706 102.868 207.073C102.868 206.431 102.354 205.918 101.704 205.918C101.054 205.918 100.532 206.431 100.532 207.073C100.532 207.706 101.054 208.228 101.704 208.228ZM100.643 218.667H102.773V209.597H100.643V218.667Z" fill="#0364D3"/>
<path d="M105.152 207.475V209.597H103.852V211.24H105.152V216.254C105.152 218.017 105.922 218.71 107.882 218.71C108.335 218.71 108.754 218.676 108.985 218.624V216.999C108.849 217.024 108.575 217.041 108.378 217.041C107.625 217.041 107.283 216.699 107.283 215.955V211.24H108.994V209.597H107.283V207.475H105.152Z" fill="#0364D3"/>
<path d="M116.284 215.955C116.053 216.708 115.3 217.204 114.308 217.204C112.913 217.204 112.023 216.229 112.023 214.774V214.646H118.363V213.953C118.363 211.197 116.755 209.409 114.179 209.409C111.561 209.409 109.901 211.3 109.901 214.166C109.901 217.059 111.544 218.847 114.265 218.847C116.413 218.847 118.004 217.666 118.278 215.955H116.284ZM114.188 211.06C115.411 211.06 116.233 211.959 116.276 213.242H112.04C112.126 211.976 112.99 211.06 114.188 211.06Z" fill="#0364D3"/>
<path d="M119.579 212.198C119.579 213.542 120.451 214.398 122.188 214.783L123.694 215.116C124.644 215.33 124.969 215.638 124.969 216.186C124.969 216.862 124.327 217.29 123.292 217.29C122.214 217.29 121.606 216.845 121.444 215.963H119.347C119.519 217.717 120.922 218.847 123.292 218.847C125.517 218.847 127.091 217.692 127.091 215.98C127.091 214.663 126.364 213.935 124.481 213.516L122.975 213.182C122.026 212.969 121.649 212.609 121.649 212.087C121.649 211.42 122.274 210.975 123.215 210.975C124.199 210.975 124.807 211.497 124.892 212.318H126.877C126.826 210.598 125.423 209.409 123.215 209.409C121.025 209.409 119.579 210.539 119.579 212.198Z" fill="#0364D3"/>
<path d="M138.155 218.459C137.706 218.029 137.706 217.312 138.154 216.88L142.556 212.643L138.154 208.406C137.706 207.975 137.706 207.258 138.155 206.827L138.182 206.8C138.606 206.393 139.276 206.393 139.7 206.8L144.96 211.853C145.409 212.284 145.409 213.002 144.96 213.433L139.7 218.486C139.276 218.893 138.606 218.893 138.182 218.486L138.155 218.459Z" fill="#0364D3"/>
<rect width="131.429" height="236.571" transform="translate(335.033 5.0957)" fill="#FFFAEF"/>
<path d="M500.464 163.477C499.279 163.423 466.323 159.014 457.255 151.933C435.652 134.986 430.817 121.543 422.763 119.147C414.71 116.752 385.46 119.748 378.467 121.983C371.468 124.167 357.094 147.656 355.424 152.775C353.755 157.894 358.046 162.507 365.683 158.78C373.32 155.053 374.79 150.003 374.79 150.003" stroke="#EB7100" stroke-width="2.7381" stroke-miterlimit="10" stroke-linecap="round" stroke-linejoin="round"/>
<path d="M384.598 157.326C384.598 157.326 380.25 165.34 381.439 170.884C382.628 176.427 387.412 178.997 391.274 177.951C395.137 176.905 395.592 175.019 396.496 171.761C397.455 168.55 398.196 164.587 398.196 164.587" stroke="#EB7100" stroke-width="2.7381" stroke-miterlimit="10" stroke-linecap="round" stroke-linejoin="round"/>
<path d="M395.425 176.675C395.425 176.675 395.562 180.102 398.658 183.328C401.754 186.554 405.308 184.303 406.989 181.133C408.67 177.963 409.108 178.285 409.108 178.285" stroke="#EB7100" stroke-width="2.7381" stroke-miterlimit="10" stroke-linecap="round" stroke-linejoin="round"/>
<path d="M418.622 45.1437L373.563 60.4345C370.47 61.4841 368.813 64.8422 369.863 67.9351L395.415 143.232C396.464 146.325 399.823 147.981 402.915 146.932L447.975 131.641C451.068 130.591 452.724 127.233 451.675 124.14L426.123 48.8435C425.073 45.7506 421.715 44.0941 418.622 45.1437Z" fill="white" stroke="#EB7100" stroke-width="2.7381" stroke-miterlimit="10" stroke-linecap="round" stroke-linejoin="round"/>
<circle cx="410.79" cy="95.8796" r="11.5244" transform="rotate(7.48512 410.79 95.8796)" fill="#EB7100"/>
<path d="M381.858 52.5944L345.682 83.5041C343.198 85.6258 342.905 89.3587 345.027 91.8419L396.679 152.295C398.8 154.778 402.533 155.071 405.016 152.95L441.193 122.04C443.676 119.918 443.97 116.185 441.848 113.702L390.196 53.249C388.075 50.7658 384.342 50.4728 381.858 52.5944Z" fill="white" stroke="#EB7100" stroke-width="2.7381" stroke-miterlimit="10" stroke-linecap="round" stroke-linejoin="round"/>
<path fill-rule="evenodd" clip-rule="evenodd" d="M405.288 165.846C413.369 163.789 418.252 155.571 416.195 147.49C414.138 139.409 405.92 134.525 397.839 136.582C389.758 138.639 384.874 146.858 386.931 154.939C388.988 163.02 397.207 167.903 405.288 165.846Z" fill="#FFE9BC"/>
<circle cx="393.397" cy="102.619" r="11.5244" transform="rotate(-14.2812 393.397 102.619)" fill="#EB7100"/>
<path d="M353.025 70.852L327.812 111.206C326.081 113.976 326.924 117.625 329.694 119.355L397.128 161.488C399.898 163.218 403.546 162.376 405.277 159.606L430.49 119.251C432.221 116.482 431.378 112.833 428.608 111.103L361.174 68.9702C358.404 67.2395 354.756 68.0821 353.025 70.852Z" fill="white" stroke="#EB7100" stroke-width="2.7381" stroke-miterlimit="10" stroke-linecap="round" stroke-linejoin="round"/>
<circle cx="379.068" cy="115.094" r="11.5244" transform="rotate(-31.7735 379.068 115.094)" fill="#EB7100"/>
<path d="M329.732 99.4878L318.902 145.822C318.159 149.003 320.135 152.184 323.315 152.927L400.743 171.023C403.923 171.767 407.104 169.791 407.847 166.61L418.676 120.276C419.42 117.095 417.444 113.915 414.264 113.171L336.836 95.0751C333.656 94.3317 330.475 96.3074 329.732 99.4878Z" fill="white" stroke="#EB7100" stroke-width="2.7381" stroke-miterlimit="10" stroke-linecap="round" stroke-linejoin="round"/>
<path fill-rule="evenodd" clip-rule="evenodd" d="M335.755 149.999C336.389 145.018 334.525 139.83 330.357 136.408C329.579 135.769 328.755 135.221 327.9 134.762L332.833 113.656C335.467 112.922 337.909 111.399 339.775 109.125C341.596 106.908 342.609 104.292 342.85 101.635L400.99 115.224C401.182 119.345 403.052 123.371 406.492 126.195C407.62 127.122 408.842 127.857 410.12 128.405L404.566 152.167C400.028 152.012 395.471 153.896 392.367 157.677C391.132 159.182 390.236 160.854 389.67 162.6L335.755 149.999Z" fill="#FFE9BC"/>
<circle cx="368.668" cy="132.947" r="11.5244" transform="rotate(-50.6154 368.668 132.947)" fill="white"/>
<path d="M367.612 131.188L334.042 96.8708C333.214 96.024 334.006 94.6206 335.159 94.8925L416.031 113.961C417.205 114.238 417.26 115.888 416.108 116.243L367.612 131.188Z" fill="white" stroke="#EB7100" stroke-width="2.7381" stroke-miterlimit="10" stroke-linecap="round" stroke-linejoin="round"/>
<path d="M402.851 167.686C408.454 177.393 412.765 180.439 414.22 180.748C416.5 181.594 422.808 181.241 429.803 173.062C438.547 162.838 424.132 150.966 422.583 150.684C395.136 145.692 381.988 134.32 376.495 133.877C371.002 133.434 364.951 139.423 370.047 147.433C375.142 155.443 395.846 155.552 402.851 167.686Z" fill="white"/>
<path d="M405.694 114.728L332.338 97.7192L335.253 92.8658L405.694 114.728Z" fill="#EB7100"/>
<path d="M418.398 115.91L370.474 134.987L366.557 131.38L418.398 115.91Z" fill="#EB7100"/>
<path d="M431.392 112.318L363.306 69.2909L367.271 64.461L431.392 112.318Z" fill="#EB7100"/>
<path d="M426.587 149.075C426.587 149.075 410.812 152.1 388.991 138.749C379.377 132.867 371.755 132.063 369.186 138.062C365.606 146.418 373.213 151.411 384.167 155.878C395.11 160.341 401.911 167.251 407.086 175.638C412.262 184.024 431.21 194.474 456.03 190.674C471.24 192.139 476.566 196.494 476.566 196.494" stroke="#EB7100" stroke-width="2.7381" stroke-miterlimit="10" stroke-linecap="round" stroke-linejoin="round"/>
<path d="M461.392 119.66C468.006 114.822 481.343 100.595 481.778 82.3903" stroke="#EB7100" stroke-width="2.7381" stroke-miterlimit="10" stroke-linecap="round" stroke-linejoin="round"/>
<path d="M457.294 112.555C459.929 108.164 464.158 96.7349 459.992 86.1448" stroke="#EB7100" stroke-width="2.7381" stroke-miterlimit="10" stroke-linecap="round" stroke-linejoin="round"/>
<path d="M375.289 147.009C372.685 145.836 371.525 142.773 372.698 140.169V140.169C373.871 137.565 376.934 136.404 379.538 137.578L386.314 140.631L382.065 150.062L375.289 147.009Z" fill="#FFE9BC"/>
</g>
<rect x="7.54762" y="5.64332" width="458.905" height="235.476" rx="8.21429" stroke="#D7D9E0" stroke-width="1.09524"/>
</g>
<defs>
<filter id="filter0_d_40_17497" x="0.428571" y="0.714751" width="473.143" height="249.714" filterUnits="userSpaceOnUse" color-interpolation-filters="sRGB">
<feFlood flood-opacity="0" result="BackgroundImageFix"/>
<feColorMatrix in="SourceAlpha" type="matrix" values="0 0 0 0 0 0 0 0 0 0 0 0 0 0 0 0 0 0 127 0" result="hardAlpha"/>
<feOffset dy="2.19048"/>
<feGaussianBlur stdDeviation="3.28571"/>
<feColorMatrix type="matrix" values="0 0 0 0 0 0 0 0 0 0 0 0 0 0 0 0 0 0 0.05 0"/>
<feBlend mode="normal" in2="BackgroundImageFix" result="effect1_dropShadow_40_17497"/>
<feBlend mode="normal" in="SourceGraphic" in2="effect1_dropShadow_40_17497" result="shape"/>
</filter>
<clipPath id="clip0_40_17497">
<rect x="7" y="5.0957" width="460" height="236.571" rx="8.7619" fill="white"/>
</clipPath>
</defs>
</svg>
