<svg width="200" height="232" viewBox="0 0 200 232" fill="none" xmlns="http://www.w3.org/2000/svg">
<g clip-path="url(#clip0_62_17741)">
<rect width="200" height="200" rx="100" transform="matrix(-1 0 0 1 200 32)" fill="#F6ECDC"/>
<path fill-rule="evenodd" clip-rule="evenodd" d="M161.164 156.197C159.088 148.146 157.18 144.733 153.492 141.935C150.044 139.317 145.009 137.119 137.663 135.513C130.012 134.175 129.795 130.199 127.877 123.807C127.317 121.886 124.544 121.374 123.347 122.759C123.178 122.577 123.002 122.41 122.82 122.26C122.983 121.343 121.649 118.717 121.693 117.84C122.159 108.691 119.166 104.096 111.697 102.388C110.072 102.017 99.0391 101.798 97.4553 102.236C90.5313 104.15 83.7152 110.228 84.7583 117.551C82.5849 120.391 80.4577 122.125 77.1046 123.04C69.6423 123.987 62.1808 124.83 54.7166 125.551C40.1055 127.843 26.4065 135.577 17.0435 146.856C16.18 147.898 15.9305 149.311 16.6926 150.421C16.0956 152.979 12.7348 159.182 15.3792 160.935C11.0306 171.336 1.02527 191.439 1.0065 197.182C0.927649 221.31 3.53385 252.715 27.3417 266.067C28.2949 267.004 28.4313 268.041 28.8441 269.435C29.8908 273.828 33.6921 276.967 37.8528 276.711C58.349 277.166 78.201 274.666 98.6978 274.545C107.737 274.491 118.607 275.84 126.459 276.739C134.311 277.638 142.238 276.843 149.773 274.545C150.409 275.545 151.693 276.128 152.996 275.84C160.808 274.288 167.125 269.474 172.627 264.213C174.308 261.154 180.875 252.439 178.265 249.406C180.631 239.403 180.508 228.656 176.303 219.132C176.899 217.386 175.813 215.467 176.303 213.664C176.658 212.36 177.567 211.82 178.024 210.528C178.668 208.71 177.968 206.271 177.243 204.416C176.946 203.491 177.79 202.496 178.024 201.553C179.136 197.103 176.59 197.495 174.755 194.52C174.782 194.511 175.259 192.387 175.257 192.398C175.538 190.881 174.834 188.939 174.22 187.673C173.805 186.818 172.916 186.282 172.032 186.38C172.922 183.36 174.047 180.847 175.257 177.937C177.397 172.807 180.106 167.895 183.178 163.252C184.437 161.351 182.747 159.148 180.71 159.019C174.119 158.6 167.6 157.651 161.164 156.197Z" fill="white"/>
<path fill-rule="evenodd" clip-rule="evenodd" d="M141.928 194.988C139.292 193.954 136.454 193.383 133.601 193.161C135.137 192.892 136.677 192.632 138.23 192.499C139.314 192.406 140.318 192.415 141.133 193.237C141.676 193.785 141.931 194.49 142.288 195.138C142.171 195.085 142.05 195.035 141.928 194.988ZM170.223 185.322C165.906 185.542 161.584 186.568 157.678 188.428C156.081 189.19 154.633 190.291 154.209 192.101C153.994 193.025 154.047 193.981 154.161 194.914C154.247 195.621 154.268 196.524 154.883 197.003C154.988 197.084 155.099 197.146 155.216 197.191C153.775 197.841 152.404 198.623 151.184 199.428C150.07 200.164 148.925 201.297 148.41 202.577C148.367 202.431 148.325 202.296 148.282 202.167C147.405 199.576 146.055 197.453 143.929 196.026C144.305 195.857 144.564 195.457 144.443 194.905C143.938 192.596 141.807 190.591 139.399 190.734C136.763 190.889 133.932 191.849 131.548 193.061C130.679 193.042 129.812 193.054 128.955 193.092C128.807 193.097 128.814 193.297 128.955 193.313C129.65 193.402 130.345 193.499 131.041 193.613C132.693 193.878 134.341 194.214 135.953 194.631C137.887 195.131 139.887 195.633 141.695 196.507C145.2 198.206 147.37 202.646 146.924 206.509C146.85 207.143 146.605 209.058 145.726 208.86C144.983 208.693 144.688 207.143 144.429 206.569C143.733 205.044 142.481 204.049 140.978 203.374C139.214 202.581 137.325 202.045 135.496 201.422C134.46 201.067 133.424 200.711 132.386 200.359C131.324 199.995 130.314 199.492 129.183 199.747C128.5 199.902 128.421 200.716 128.805 201.183C129.388 201.895 130.255 202.105 131.096 202.398C132.205 202.784 133.313 203.17 134.42 203.555C136.132 204.151 137.925 204.654 139.594 205.382L139.542 205.501C139.406 205.463 139.247 205.599 139.273 205.766C139.523 207.307 139.871 209.089 139.485 210.632C139.18 211.856 138.106 213.212 136.711 212.852C136.93 212.652 137.011 212.307 136.863 211.987C136.31 210.806 129.071 206.142 128.426 207.874C128.405 207.936 128.471 207.981 128.524 207.972C129.074 207.857 129.995 208.796 130.436 209.093C131.071 209.522 131.717 209.941 132.346 210.382C133.034 210.863 133.705 211.368 134.36 211.89C134.875 212.3 135.263 212.726 135.853 212.933C135.544 213.081 135.298 213.355 135.194 213.705C134.927 214.617 134.413 215.391 133.52 215.794C132.584 216.213 131.529 215.948 130.543 216.051C129.2 216.187 128.028 216.825 127.05 217.737C124.995 219.657 123.963 223.04 121.089 223.947C119.372 224.488 117.467 224.147 115.729 223.902C113.788 223.628 111.897 223.411 109.942 223.697C108.07 223.971 106.301 224.618 104.591 225.409C102.989 226.15 101.217 226.989 99.7952 228.094C99.5023 227.191 99.207 226.298 98.9829 225.376C98.4545 223.197 98.1687 220.977 98.0994 218.738C98.0354 216.606 98.1545 214.465 98.3376 212.342C98.4283 211.282 98.5712 210.227 98.6617 209.167C98.6853 208.9 98.7331 208.615 98.7688 208.329C101.307 206.831 103.974 205.683 106.663 204.501C106.67 204.499 106.677 204.494 106.684 204.492C106.768 204.453 106.849 204.418 106.932 204.382C106.93 204.377 106.927 204.373 106.923 204.368C107.23 204.18 107.444 203.929 107.573 203.648C111.447 201.078 114.686 197.57 117.1 193.478C118.112 191.763 119.086 189.983 120.41 188.481C121.82 186.878 123.494 185.925 125.566 185.429C127.988 184.848 130.484 184.5 132.965 184.303C134.32 184.196 135.834 184.029 137.311 184.036C138.34 184.043 139.347 184.131 140.271 184.386C141.64 184.762 142.44 185.804 143.3 186.856C144.121 187.866 144.938 188.879 145.705 189.931C146.431 190.929 147.117 191.96 147.713 193.042C148.07 193.69 148.401 194.357 148.679 195.045C148.777 195.288 148.906 195.564 148.965 195.817C149.025 196.072 148.915 196.341 149.201 196.341C148.022 196.357 148.034 198.241 149.206 198.172C153.792 197.906 147.222 188.95 146.262 187.702C144.902 185.934 143.5 183.629 141.323 182.807C141.292 182.795 141.259 182.783 141.228 182.774C141.862 182.173 142.362 181.454 142.84 180.723C143.333 179.97 143.921 179.108 144.083 178.215C144.186 177.646 143.478 177.321 143.143 177.819C142.655 178.546 142.419 179.465 142.054 180.263C141.683 181.073 141.231 181.837 140.873 182.654C140.014 182.39 139.085 182.269 138.14 182.228C139.333 180.613 141.371 177.498 141.616 177.098C142.745 175.244 143.819 173.334 144.845 171.421C145.955 169.349 146.905 167.191 147.967 165.095C148.57 163.907 149.177 162.709 149.846 161.556C150.077 161.16 150.325 160.765 150.606 160.405C150.661 160.334 150.73 160.274 150.794 160.208C150.868 160.167 150.944 160.122 150.987 160.098C151.372 159.877 151.508 159.362 151.78 159.036C152.213 158.51 152.723 158.448 153.375 158.44C154.766 158.426 156.162 158.481 157.55 158.519C159.591 158.576 161.629 158.657 163.667 158.764C164.284 158.797 164.899 158.831 165.515 158.869C168.48 159.045 171.443 159.276 174.398 159.56C177.013 159.81 179.627 160.217 182.244 160.413C178.701 168.833 174.772 177.1 170.323 185.079C170.278 185.16 170.245 185.241 170.223 185.322ZM150.563 207.014C149.991 207.276 149.437 207.602 148.92 207.974C149.006 207.395 149.027 206.785 149.003 206.173C149.429 206.63 149.975 206.892 150.563 207.014ZM174.96 192.53C174.919 192.534 174.881 192.556 174.862 192.596C174.072 194.228 174.402 196.05 175.693 197.329C176.37 197.996 177.844 198.749 177.796 199.844C177.755 200.731 176.791 201.474 176.379 202.205C175.996 202.886 175.853 203.634 176.16 204.373C176.553 205.318 177.651 205.694 178.027 206.624C178.503 207.802 177.729 209.225 177.186 210.251C176.681 211.201 176.029 212.152 175.596 213.157C172.693 214.66 170.095 216.966 167.861 219.307C165.415 221.868 163.317 224.88 159.433 224.804C159.045 224.797 158.75 225.002 158.574 225.285C157.493 225.335 156.409 225.357 155.328 225.362C153.428 225.371 151.527 225.352 149.629 225.293C149.496 224.833 149.594 224.209 149.586 223.821C149.563 222.57 149.551 221.322 149.498 220.071C149.484 219.724 149.47 219.374 149.456 219.026C150.139 220.262 151.473 220.824 152.992 220.738C155.435 220.596 157.893 220.195 160.312 219.836C161.586 219.647 162.858 219.433 164.127 219.204C165.17 219.019 166.642 219.067 167.37 218.23C167.542 218.035 167.551 217.678 167.282 217.547C166.561 217.192 166.106 217.389 165.313 217.542C164.346 217.73 163.377 217.909 162.405 218.076C160.541 218.399 158.671 218.699 156.797 218.964C155.73 219.114 154.661 219.262 153.592 219.378C152.659 219.478 151.606 219.614 150.853 218.912C149.337 217.492 150.187 215.112 151.146 213.678C151.165 213.65 151.165 213.624 151.158 213.6C152.063 213.388 152.966 213.14 153.866 212.966C155.597 212.633 157.34 212.352 159.086 212.102C162.672 211.59 166.282 211.251 169.887 210.911C170.78 210.825 170.79 209.42 169.887 209.503C164.708 209.977 159.503 210.427 154.392 211.425C153.111 211.673 151.839 211.954 150.575 212.271C149.977 212.419 149.337 212.65 148.71 212.657C148.672 212.657 148.634 212.657 148.596 212.654C147.37 212.616 147.191 211.566 147.865 210.692C147.948 210.584 148.034 210.477 148.122 210.375C149.313 208.955 150.796 208.007 152.325 207.026C154.037 206.792 155.745 206.273 157.421 205.892C161.56 204.949 165.699 204.006 169.84 203.065C170.652 202.879 170.307 201.631 169.495 201.814C166.351 202.527 163.208 203.239 160.064 203.951L155.464 204.994C154.545 205.201 153.397 205.618 152.315 205.768C151.782 205.842 151.265 205.852 150.799 205.742C149.291 205.385 149.215 203.501 149.865 202.381C150.594 201.124 151.97 200.338 153.192 199.625C155.309 198.389 157.562 197.501 159.762 196.477C160.153 196.391 160.543 196.305 160.934 196.219C163.205 195.719 165.801 195.474 167.94 194.557C168.58 194.285 168.23 193.275 167.597 193.29C165.937 193.326 164.201 193.916 162.579 194.266C160.824 194.647 159.067 195.026 157.312 195.405C157.135 195.443 156.092 195.776 155.935 195.702C155.835 195.655 155.8 195.307 155.766 195.078C155.659 194.326 155.58 193.535 155.697 192.78C155.954 191.086 157.366 190.291 158.795 189.641C161.977 188.195 165.465 187.29 168.937 186.928C169.738 186.844 170.538 186.792 171.343 186.766C172.288 186.737 173.067 186.57 173.545 187.502C174.298 188.969 174.712 190.856 174.96 192.53ZM170.541 245.728C169.848 243.33 170.037 240.769 169.562 238.323C169.317 237.061 168.982 235.81 168.617 234.578C168.322 233.582 167.831 232.524 167.775 231.485C167.771 231.416 167.853 231.376 167.909 231.408C168.887 231.968 169.638 233.179 170.196 234.13C170.864 235.267 171.374 236.458 171.785 237.71C172.605 240.205 173.278 243.214 172.221 245.728C171.906 246.476 170.801 246.626 170.541 245.728ZM149.117 213.964C149.703 213.907 150.289 213.795 150.875 213.664C150.22 214.303 149.615 215.072 149.279 215.925C149.227 215.27 149.16 214.617 149.072 213.967C149.087 213.967 149.103 213.967 149.117 213.964ZM143.488 263.882C142.454 263.161 141.702 262.153 140.826 261.263C139.964 260.388 141.311 259.041 142.173 259.916C142.92 260.674 143.569 261.622 144.449 262.236C144.872 262.531 145.068 263.065 144.791 263.54C144.546 263.959 143.91 264.176 143.488 263.882ZM137.727 236.169C139.612 235.354 141.467 234.465 143.441 233.878C144.62 233.527 145.119 235.366 143.947 235.715C142.129 236.257 140.425 237.064 138.688 237.814C137.573 238.296 136.604 236.654 137.727 236.169ZM117.811 235.598C117.35 234.46 119.194 233.97 119.648 235.092C120.172 236.384 120.771 237.642 121.294 238.933C121.755 240.071 119.912 240.562 119.457 239.44C118.934 238.149 118.334 236.89 117.811 235.598ZM98.1547 258.326C97.8475 258.736 97.3352 258.958 96.8514 258.668C96.4461 258.425 96.1986 257.779 96.5096 257.365C97.4176 256.154 98.3375 254.958 99.4018 253.879C100.265 253.004 101.611 254.352 100.749 255.226C99.7985 256.19 98.9657 257.245 98.1547 258.326ZM95.344 130.802C96.2184 131.4 96.9845 132.125 97.7315 132.872C98.6 133.74 97.2526 135.088 96.3842 134.219C95.7548 133.59 95.1199 132.951 94.3824 132.448C93.9564 132.157 93.7652 131.615 94.0407 131.144C94.2876 130.722 94.9189 130.512 95.344 130.802ZM123.942 161.466C123.447 162.456 123.002 163.427 122.974 164.552C122.944 165.778 121.039 165.779 121.069 164.552C121.106 163.079 121.649 161.802 122.297 160.504C122.845 159.405 124.488 160.372 123.942 161.466ZM134.434 136.839C135.459 136.156 136.411 137.807 135.396 138.484C134.573 139.033 133.75 139.582 132.927 140.131C131.903 140.813 130.95 139.162 131.965 138.485C132.788 137.936 133.611 137.388 134.434 136.839ZM88.9234 179.897C88.7486 181.108 86.9131 180.59 87.0862 179.391C87.3541 177.537 87.681 175.708 88.1837 173.902C88.5128 172.721 90.35 173.226 90.0207 174.409C89.518 176.215 89.191 178.044 88.9234 179.897ZM82.244 201.725C81.0178 201.699 81.0176 199.793 82.244 199.819C83.3537 199.843 84.4446 200.135 85.515 200.402C86.7056 200.699 86.1979 202.537 85.0085 202.239C84.1036 202.013 83.1822 201.745 82.244 201.725ZM79.7783 245.694C79.3571 245.899 78.9249 246.084 78.4991 246.279C77.6463 246.669 76.794 247.059 75.942 247.45C74.1669 248.265 72.3928 249.083 70.6204 249.904C67.0722 251.546 63.4966 253.131 59.9399 254.756C56.3129 256.414 52.6954 258.093 49.0824 259.781C47.3802 260.575 45.6652 261.341 43.9535 262.115C42.4899 262.777 40.6808 263.934 39.0741 264.043C38.9915 264.048 38.9638 263.944 39.011 263.89C39.618 263.2 40.5862 262.798 41.384 262.349C42.1989 261.891 43.029 261.459 43.8553 261.022C45.578 260.109 47.3028 259.203 49.0421 258.322C52.5213 256.561 56.0071 254.813 59.4936 253.067C63.0494 251.286 66.6007 249.493 70.1877 247.776C71.8766 246.967 73.5671 246.16 75.2586 245.357C76.1749 244.921 77.0917 244.486 78.0085 244.053C78.4045 243.865 78.7965 243.663 79.2013 243.495C79.7393 243.272 80.1482 243.318 80.703 243.181C81.6079 242.957 81.9997 244.108 81.305 244.609C80.733 245.022 80.432 245.375 79.7783 245.694ZM67.0603 265.233C66.8648 264.758 67.2742 264.18 67.7257 264.061C68.2665 263.918 68.7001 264.247 68.8975 264.726C69.4198 265.997 70.1637 267.163 71.1212 268.148C71.9771 269.027 70.6307 270.375 69.7741 269.495C68.5742 268.261 67.7121 266.818 67.0603 265.233ZM57.7038 234.647C56.8353 233.778 58.1827 232.431 59.0509 233.3L61.5199 235.769C62.3884 236.638 61.0408 237.985 60.1728 237.116L57.7038 234.647ZM32.3735 230.621C30.5984 231.141 28.5281 231.62 27.3179 233.135C27.2588 233.209 27.1595 233.114 27.195 233.04C28.7443 229.827 33.1874 228.701 36.2636 227.575C38.4395 226.779 40.672 226.119 42.9233 225.529C42.6983 222.96 43.3188 220.207 43.5346 217.651C43.7649 214.921 43.9523 212.185 44.0485 209.447C44.1468 206.655 44.1706 203.843 44.0787 201.049C43.9873 198.266 43.626 195.517 43.4679 192.743C43.4527 192.475 43.8261 192.462 43.9066 192.684C44.8415 195.258 45.2408 198.109 45.5452 200.823C45.8585 203.62 45.9626 206.408 45.9226 209.22C45.8812 212.111 45.713 214.996 45.4823 217.878C45.373 219.245 45.2461 220.609 45.1263 221.974C45.0348 223.016 44.9924 224.05 44.78 225.058C46.1379 224.725 47.4988 224.41 48.8555 224.103C53.1814 223.127 57.5254 222.221 61.8333 221.165C63.9479 220.647 66.0323 220.026 68.1374 219.475C70.1196 218.956 72.2119 218.327 74.247 218.095C74.9733 218.012 75.0657 219.006 74.5849 219.343C72.9308 220.505 70.734 221.314 68.8235 221.964C66.906 222.616 64.9128 223.086 62.9475 223.569C58.849 224.578 54.7116 225.402 50.5805 226.261C46.4551 227.118 42.3218 227.97 38.2428 229.028C36.2784 229.538 34.3207 230.049 32.3735 230.621ZM22.6464 179.643C21.5858 180.266 20.6282 178.618 21.6851 177.998C23.0679 177.186 24.5417 176.576 26.0274 175.981C27.1676 175.525 27.6582 177.368 26.534 177.819C25.1987 178.353 23.889 178.914 22.6464 179.643ZM18.8058 250.436C17.7423 251.053 16.784 249.406 17.8445 248.791C19.3337 247.928 20.9647 247.351 22.5081 246.596C23.6061 246.058 24.5705 247.702 23.4694 248.241C21.9263 248.997 20.2951 249.573 18.8058 250.436ZM17.0784 210.251C18.1066 211.228 19.479 211.688 20.773 212.201C21.9013 212.648 21.4065 214.49 20.2665 214.038C18.6543 213.399 17.0122 212.815 15.7313 211.598C14.8402 210.751 16.1897 209.406 17.0784 210.251ZM28.4543 155.676C29.5847 156.119 29.0896 157.961 27.9478 157.513C26.6814 157.017 25.3735 156.638 24.1071 156.141C22.977 155.698 23.4718 153.856 24.6137 154.304C25.88 154.801 27.1879 155.179 28.4543 155.676ZM48.5225 133.999C49.7237 133.796 50.2352 135.633 49.0291 135.836C47.5326 136.089 46.059 136.385 44.6398 136.934C43.4936 137.377 43.0019 135.534 44.1332 135.097C45.5528 134.547 47.0263 134.251 48.5225 133.999ZM55.1534 186.777C54.052 186.236 55.0184 184.593 56.1147 185.132C57.2702 185.7 58.4673 186.139 59.7279 186.408C60.9284 186.664 60.4171 188.5 59.2214 188.245C57.8026 187.943 56.4526 187.416 55.1534 186.777ZM61.4161 157.048C62.602 156.723 63.1035 158.561 61.9226 158.885C59.8449 159.455 57.7057 159.751 55.6127 160.257C54.4199 160.546 53.9153 158.708 55.1062 158.42C57.1992 157.913 59.3386 157.618 61.4161 157.048ZM87.9837 147.718C89.1896 147.942 88.6757 149.778 87.4774 149.556C86.2018 149.32 84.9089 149.316 83.6156 149.315C82.3878 149.315 82.39 147.409 83.6156 147.41C85.0849 147.411 86.5354 147.45 87.9837 147.718ZM174.631 157.673C171.519 157.376 168.402 157.138 165.28 156.959C165.134 156.952 164.991 156.942 164.846 156.935C164.83 156.902 164.808 156.871 164.786 156.837C163.767 155.341 163.017 153.846 162.367 152.154C161.746 150.544 161.143 148.884 160.186 147.431C159.094 145.776 157.62 144.481 156.005 143.358C155.025 144.017 154.115 144.789 153.283 145.607C152.408 146.467 151.06 145.12 151.936 144.259C152.675 143.532 153.465 142.861 154.299 142.254C153.336 141.669 152.353 141.119 151.394 140.571C147.8 138.521 144.121 136.625 140.366 134.891C138.621 134.083 136.854 133.366 135.075 132.64C134.117 132.249 133.172 131.746 132.215 131.294C132.284 130.617 132.081 129.86 131.562 129.415C131.179 129.088 130.881 128.967 130.424 128.736C130.322 128.7 130.26 128.679 130.231 128.667C130.253 128.671 130.314 128.69 130.417 128.724C130.66 128.836 130.679 128.802 130.474 128.626C130.462 128.241 129.702 127.426 129.529 127.028C128.924 125.663 128.736 124.22 127.843 122.976C126.611 121.264 124.544 120.616 122.618 121.197C122.418 119.137 122.366 116.986 121.589 115.147C121.568 115.097 121.499 115.076 121.468 115.13C120.658 116.51 120.589 118.046 120.527 119.637C120.468 121.13 120.525 122.657 120.72 124.141C120.596 124.236 120.47 124.327 120.339 124.415C119.725 124.82 119.063 125.132 118.367 125.363C117.043 125.801 115.655 125.992 114.267 126.058C110.683 126.23 106.989 125.868 103.465 125.253C99.8999 124.632 94.4348 123.698 91.2628 121.914C89.1694 120.738 87.2384 119.301 85.2807 117.91C85.9905 115.623 86.1715 113.165 85.4571 111.234C85.3714 111.003 85.0094 110.96 84.9404 111.234C84.4927 113.077 84.3617 114.93 83.7664 116.752C83.7568 116.779 83.7473 116.807 83.7378 116.833C83.5521 116.707 83.3663 116.583 83.1806 116.459C82.7519 116.176 82.1685 116.388 81.9113 116.793C77.7985 123.274 71.2858 123.646 64.4466 124.803C56.9618 126.07 49.4394 127.438 42.2429 129.917C35.3609 132.29 28.7836 135.743 23.5732 140.903C22.3938 142.071 21.2907 143.315 20.2496 144.615C21.2569 144.742 22.2559 144.939 23.242 145.249C24.4096 145.616 23.9078 147.455 22.7355 147.086C21.4681 146.688 20.1867 146.491 18.8922 146.393C15.3519 151.237 12.5915 156.73 10.2044 162.137C5.6258 172.503 2.64555 183.543 1.27414 194.782C2.02712 194.331 2.79367 193.901 3.57927 193.501C4.67088 192.946 5.63366 194.59 4.54086 195.146C3.32733 195.764 2.14857 196.444 1.00647 197.182C0.507584 202.102 0.314219 207.053 0.431381 211.997C0.709998 223.782 2.30073 235.913 5.89894 247.158C7.66351 252.677 10.002 258.151 13.4859 262.815C15.0623 264.927 16.8531 266.833 18.963 268.421C19.9846 269.193 21.0657 269.882 22.2064 270.463C23.6756 271.215 25.5902 271.463 26.8571 272.528C27.2738 272.878 27.5953 273.34 27.8382 273.862C27.6977 274.852 27.6811 275.846 27.9525 276.837C28.0383 277.146 28.2716 277.399 28.5598 277.52C28.5645 277.606 28.5645 277.689 28.5645 277.77C28.5645 277.808 28.6217 277.818 28.6288 277.78C28.6407 277.706 28.6526 277.632 28.6645 277.556C28.7574 277.587 28.8551 277.601 28.9551 277.601C32.5723 277.615 36.1941 277.527 39.8161 277.404C39.5361 276.546 39.2327 275.695 38.9415 274.837C38.5459 273.671 40.3865 273.175 40.7784 274.33C41.1192 275.334 41.4754 276.328 41.7924 277.335C45.6733 277.19 49.5529 277.017 53.4257 276.889C61.6628 276.615 69.8974 276.524 78.1366 276.351C90.9318 276.08 103.82 275.524 116.635 276.067C117.078 275.127 117.574 274.207 118.045 273.279C118.599 272.184 120.243 273.15 119.69 274.241C119.363 274.886 119.024 275.523 118.702 276.166C121.298 276.301 123.891 276.479 126.478 276.722C130.893 277.137 135.265 277.873 139.675 278.33C144.159 278.797 148.546 278.714 152.994 277.973C153.794 277.84 154.266 277.356 154.461 276.756C154.468 276.753 154.473 276.749 154.478 276.741C154.706 276.474 154.921 276.253 155.142 276.06C155.407 275.889 155.692 275.743 156.028 275.615C156.654 275.376 157.307 275.231 157.969 275.133C158.698 275.024 159.436 275.014 160.165 274.924C160.779 274.845 161.379 274.729 161.979 274.586C163.058 274.329 164.082 273.993 165.101 273.547C165.989 273.159 166.792 272.602 167.549 271.994C169.116 270.848 170.473 269.386 171.659 267.866C172.35 266.978 173 266.056 173.591 265.096C174.619 263.434 175.496 261.707 176.381 259.966C176.703 259.45 176.996 258.921 177.264 258.382C175.533 257.872 173.785 257.456 171.95 257.426C170.723 257.407 170.723 255.501 171.95 255.521C174.055 255.554 176.046 256.046 178.024 256.632C178.121 256.376 178.213 256.118 178.298 255.857C178.534 255.312 178.729 254.752 178.891 254.185C178.986 253.928 179.082 253.67 179.177 253.413C179.391 252.522 179.606 251.629 179.822 250.736C180.254 249.307 180.594 247.856 180.844 246.387C181.054 245.419 181.216 244.445 181.325 243.459C181.658 241.07 181.93 238.686 181.949 236.271C181.92 234.782 181.825 233.296 181.663 231.817C181.594 230.811 181.478 229.811 181.32 228.818C181.116 227.341 180.913 225.879 180.573 224.421C180.318 223.435 180.063 222.449 179.808 221.462C179.172 219.407 178.422 217.392 177.558 215.422C177.51 215.298 177.269 215.027 177.124 215.024C177.015 215.022 176.862 215.122 176.912 215.256C176.917 215.267 176.922 215.281 176.927 215.293C176.877 215.181 176.829 215.067 176.779 214.955C176.736 214.85 176.57 214.641 176.441 214.643C176.434 214.643 176.426 214.643 176.417 214.646C176.451 214.622 176.481 214.591 176.512 214.555C177.367 213.543 177.922 212.211 178.534 211.039C179.041 210.072 179.52 209.053 179.658 207.96C179.779 207 179.615 206.054 179.013 205.278C178.327 204.394 177.036 203.979 177.753 202.703C178.568 201.25 179.765 199.99 178.572 198.339C177.965 197.498 177.003 197.036 176.289 196.305C175.467 195.459 175.076 194.328 175.098 193.173C175.148 193.201 175.215 193.187 175.238 193.116C175.929 191.029 175.429 188.738 174.722 186.706C174.336 185.603 173.519 185.301 172.569 185.246C176.684 177.207 180.534 169.04 183.966 160.684C184.08 160.41 184.192 160.136 184.304 159.862C184.471 159.453 184.118 158.907 183.711 158.817C180.744 158.166 177.653 157.959 174.631 157.673Z" fill="black"/>
<path fill-rule="evenodd" clip-rule="evenodd" d="M92.174 19.7403C128.268 17.9649 130.789 28.4579 135.745 35.1474C138.205 38.4672 144.556 43.3839 145.609 54.7373C146.34 62.6184 141.685 71.7022 141.685 78.7446C141.685 82.3393 146.085 90.0567 144.037 95.296C139.477 106.957 129.823 119.899 117.521 119.899C105.219 119.899 82.5103 113.118 68.9171 93.6502C64.4646 87.2737 56.08 21.5157 92.174 19.7403Z" fill="white"/>
<path fill-rule="evenodd" clip-rule="evenodd" d="M144.71 79.4474C143.921 78.578 143.309 77.8634 143.105 76.6677C143.019 76.1696 142.981 75.6578 142.964 75.1433C146.129 70.7177 149.206 60.2644 149.206 54.5469C149.205 46.4806 146.231 38.7195 141.35 32.3003C131.834 19.7976 115.993 13.3879 100.491 13.8908C85.6453 14.3693 69.8551 19.8428 60.5945 31.5431C29.8695 70.3619 55.6566 112.763 74.5435 121.585C76.1876 122.353 81.4975 122.086 80.7576 120.446C78.6325 115.735 76.9582 107.058 76.5676 105.105C77.1725 105.512 77.7821 105.91 78.3941 106.322C79.4776 107.048 80.9302 107.88 82.2924 107.639C82.3567 107.627 82.3971 107.558 82.3995 107.499C82.4614 106.219 81.547 104.905 80.7421 103.992C79.6253 102.725 78.5632 101.427 77.3606 100.239C76.8486 99.7312 76.3295 99.2287 75.8103 98.7261C75.7437 95.7106 75.9461 92.6811 76.4866 89.649C77.4225 84.3921 79.0371 79.2711 80.8921 74.231C82.4424 73.0875 83.9474 71.8849 85.3405 70.5698C88.6958 67.4043 91.2557 63.5316 93.4513 59.4586C93.4775 59.4464 93.5061 59.4321 93.5323 59.4205C97.7877 57.4409 102.007 55.3856 106.194 53.2657C108.354 52.1722 110.499 51.0527 112.645 49.9334C113.812 49.3234 115.014 48.7684 116.207 48.1944C115.886 49.8427 115.453 51.4671 114.926 53.0654C114.493 54.378 115.817 55.3472 116.988 55.1305C120.977 54.3923 124.833 52.9084 128.302 50.8076C130.022 49.7667 131.658 48.5638 133.174 47.244C134.691 49.5044 136.535 51.6243 138.394 53.4491C139.649 54.6805 140.961 55.8522 142.324 56.9624C141.707 61.2093 141.178 65.4655 140.509 69.7031C140.159 71.9182 139.737 74.1331 139.473 76.3602C139.185 78.7873 139.987 80.5166 141.585 82.2911C143.819 84.7709 143.817 88.3577 142.962 91.4378C142.857 91.8186 142.726 92.1904 142.59 92.5594C142.562 92.6356 142.478 92.8428 142.447 92.924C142.447 92.9264 142.447 92.9288 142.445 92.9333C142.445 92.9357 142.443 92.9383 142.443 92.9405C142.44 92.9405 142.44 92.9429 142.438 92.9455V92.95V92.9524L142.435 92.9548C142.335 93.1882 142.228 93.4169 142.121 93.6455C141.633 94.6769 141.088 95.6847 140.521 96.6755C137.735 101.568 134.215 106.043 130.205 109.992C128.338 111.831 126.397 113.542 124.204 114.942C123.742 115.235 123.27 115.518 122.787 115.778C122.527 115.919 122.261 116.05 121.994 116.183C121.604 116.376 121.765 116.3 121.527 116.395C121.096 116.564 120.656 116.712 120.206 116.828C119.965 116.89 119.722 116.943 119.477 116.988C119.475 116.988 119.47 116.99 119.463 116.99C119.46 116.99 119.458 116.993 119.456 116.99C119.453 116.993 119.448 116.993 119.444 116.993C119.353 117 119.191 117.014 119.16 117.014C115.741 117.026 112.35 116.567 109.04 115.716C107.246 115.254 105.456 114.694 103.77 113.925C102.912 113.532 102.074 113.096 101.272 112.603C100.912 112.382 100.572 112.115 100.193 111.922C99.6261 111.631 99.0713 111.662 98.4593 111.636C97.5258 111.598 96.8638 112.575 97.0924 113.432C97.371 114.477 97.8092 115.094 98.7093 115.716C99.4285 116.212 100.191 116.65 100.967 117.048C102.658 117.917 104.446 118.624 106.256 119.203C109.644 120.285 113.212 120.949 116.76 121.192C119.344 121.369 121.582 121.023 123.935 119.934C126.419 118.784 128.645 117.067 130.705 115.285C135.318 111.298 139.33 106.46 142.733 101.413C145.931 96.6681 148.413 91.5018 147.596 85.6114C147.27 83.2486 146.308 81.2147 144.71 79.4474" fill="black"/>
<path fill-rule="evenodd" clip-rule="evenodd" d="M118.414 101.737C116.813 101.084 115.385 99.9946 114.341 98.6027C113.978 98.1189 113.884 97.6079 113.96 97.1406C114.045 96.6151 114.356 96.1388 114.78 95.8194C115.205 95.4989 115.737 95.3409 116.251 95.4214C116.698 95.4914 117.143 95.7361 117.495 96.2436L117.569 96.3451C118.189 97.1852 118.998 97.8745 119.92 98.3187C120.809 98.747 121.802 98.9468 122.83 98.8306C124.789 98.6093 126.139 97.55 127.573 96.1114C127.751 95.9298 127.929 95.7424 128.108 95.5521C128.221 95.3796 128.378 95.2687 128.552 95.2105C128.745 95.1459 128.963 95.1496 129.163 95.2194C129.357 95.2868 129.529 95.4145 129.645 95.5845C129.755 95.746 129.817 95.9456 129.797 96.1751C129.666 97.6659 128.886 98.9965 127.779 100.041C126.55 101.202 124.92 102.004 123.386 102.286C121.696 102.596 119.974 102.374 118.414 101.737V101.737ZM124.184 78.738C125.982 79.8313 128.722 82.3807 126.787 85.0911C124.51 87.4809 121.232 84.7408 119.616 83.5016C118.118 82.5411 116.435 85.0113 117.825 86.1327C129.499 94.7778 134.237 79.0239 125.093 77.4526C124.086 77.2794 123.712 78.3998 124.184 78.738ZM103.263 68.6815C103.462 66.2148 107.218 65.6546 107.592 68.0956C107.926 70.2822 107.532 72.2908 106.548 74.2594C105.607 76.1402 103.242 75.2627 103.063 73.5501C102.823 71.2545 103.14 70.216 103.263 68.6815ZM131.855 67.5895C132.378 66.9035 133.134 66.4352 134.04 66.6998C136.87 67.5271 136.036 71.546 135.042 73.5023C134.502 74.5646 132.756 74.834 131.967 73.8986C130.682 72.3732 130.066 69.327 131.7 67.8246C131.745 67.7469 131.794 67.6685 131.855 67.5895ZM106.508 57.8878L106.955 57.8095C108.338 57.5703 110.058 57.3404 111.036 58.4526C111.555 59.0423 111.733 60.1385 111.036 60.703C109.809 61.6962 108.453 61.3113 106.982 61.3954C105.771 61.4649 104.606 61.6655 103.439 61.9992C100.879 62.7311 98.7925 64.0674 96.6057 65.5346C96.3188 65.7271 96.0259 65.36 96.1628 65.0916C97.4251 62.6185 99.8715 60.587 102.322 59.3486C103.63 58.6876 105.061 58.1393 106.508 57.8878ZM129.275 56.78L129.617 56.85C133.341 57.6286 138.179 59.1838 139.942 62.8422C140.009 63.3595 139.938 63.4704 139.88 63.5428L139.861 63.5669C139.814 63.6288 139.776 63.7141 139.551 63.7845C139.489 63.7697 139.426 63.7539 139.363 63.7373C138.555 63.5254 137.915 63.2335 137.296 62.9307L136.625 62.5999C135.846 62.2179 135.06 61.8499 134.227 61.5781C132.451 60.9984 130.623 60.59 128.767 60.3719C128.364 60.3247 127.977 60.1889 127.671 59.9562C127.381 59.7352 127.16 59.4294 127.059 59.0228C126.928 58.4966 126.965 58.0982 127.248 57.6236C127.46 57.2671 127.763 57.02 128.112 56.8781C128.468 56.7335 128.872 56.6994 129.275 56.78Z" fill="black"/>
</g>
<path fill-rule="evenodd" clip-rule="evenodd" d="M92.174 19.7403C128.268 17.9649 130.789 28.4579 135.745 35.1474C138.205 38.4672 144.556 43.3839 145.609 54.7373C146.34 62.6184 141.685 71.7022 141.685 78.7446C141.685 82.3393 146.085 90.0567 144.037 95.296C139.477 106.957 129.823 119.899 117.521 119.899C105.219 119.899 82.5103 113.118 68.9171 93.6502C64.4646 87.2737 56.08 21.5157 92.174 19.7403Z" fill="white"/>
<path fill-rule="evenodd" clip-rule="evenodd" d="M144.71 79.4474C143.921 78.578 143.309 77.8634 143.105 76.6677C143.019 76.1696 142.981 75.6578 142.964 75.1433C146.129 70.7177 149.206 60.2644 149.206 54.5469C149.205 46.4806 146.231 38.7195 141.35 32.3003C131.834 19.7976 115.993 13.3879 100.491 13.8908C85.6453 14.3693 69.8551 19.8428 60.5945 31.5431C29.8695 70.3619 55.6566 112.763 74.5435 121.585C76.1876 122.353 81.4975 122.086 80.7576 120.446C78.6325 115.735 76.9582 107.058 76.5676 105.105C77.1725 105.512 77.7821 105.91 78.3941 106.322C79.4776 107.048 80.9302 107.88 82.2924 107.639C82.3567 107.627 82.3971 107.558 82.3995 107.499C82.4614 106.219 81.547 104.905 80.7421 103.992C79.6253 102.725 78.5632 101.427 77.3606 100.239C76.8486 99.7312 76.3295 99.2287 75.8103 98.7261C75.7437 95.7106 75.9461 92.6811 76.4866 89.649C77.4225 84.3921 79.0371 79.2711 80.8921 74.231C82.4424 73.0875 83.9474 71.8849 85.3405 70.5698C88.6958 67.4043 91.2557 63.5316 93.4513 59.4586C93.4775 59.4464 93.5061 59.4321 93.5323 59.4205C97.7877 57.4409 102.007 55.3856 106.194 53.2657C108.354 52.1722 110.499 51.0527 112.645 49.9334C113.812 49.3234 115.014 48.7684 116.207 48.1944C115.886 49.8427 115.453 51.4671 114.926 53.0654C114.493 54.378 115.817 55.3472 116.988 55.1305C120.977 54.3923 124.833 52.9084 128.302 50.8076C130.022 49.7667 131.658 48.5638 133.174 47.244C134.691 49.5044 136.535 51.6243 138.394 53.4491C139.649 54.6805 140.961 55.8522 142.324 56.9624C141.707 61.2093 141.178 65.4655 140.509 69.7031C140.159 71.9182 139.737 74.1331 139.473 76.3602C139.185 78.7873 139.987 80.5166 141.585 82.2911C143.819 84.7709 143.817 88.3577 142.962 91.4378C142.857 91.8186 142.726 92.1904 142.59 92.5594C142.562 92.6356 142.478 92.8428 142.447 92.924C142.447 92.9264 142.447 92.9288 142.445 92.9333C142.445 92.9357 142.443 92.9383 142.443 92.9405C142.44 92.9405 142.44 92.9429 142.438 92.9455V92.95V92.9524L142.435 92.9548C142.335 93.1882 142.228 93.4169 142.121 93.6455C141.633 94.6769 141.088 95.6847 140.521 96.6755C137.735 101.568 134.215 106.043 130.205 109.992C128.338 111.831 126.397 113.542 124.204 114.942C123.742 115.235 123.27 115.518 122.787 115.778C122.527 115.919 122.261 116.05 121.994 116.183C121.604 116.376 121.765 116.3 121.527 116.395C121.096 116.564 120.656 116.712 120.206 116.828C119.965 116.89 119.722 116.943 119.477 116.988C119.475 116.988 119.47 116.99 119.463 116.99C119.46 116.99 119.458 116.993 119.456 116.99C119.453 116.993 119.448 116.993 119.444 116.993C119.353 117 119.191 117.014 119.16 117.014C115.741 117.026 112.35 116.567 109.04 115.716C107.246 115.254 105.456 114.694 103.77 113.925C102.912 113.532 102.074 113.096 101.272 112.603C100.912 112.382 100.572 112.115 100.193 111.922C99.6261 111.631 99.0713 111.662 98.4593 111.636C97.5258 111.598 96.8638 112.575 97.0924 113.432C97.371 114.477 97.8092 115.094 98.7093 115.716C99.4285 116.212 100.191 116.65 100.967 117.048C102.658 117.917 104.446 118.624 106.256 119.203C109.644 120.285 113.212 120.949 116.76 121.192C119.344 121.369 121.582 121.023 123.935 119.934C126.419 118.784 128.645 117.067 130.705 115.285C135.318 111.298 139.33 106.46 142.733 101.413C145.931 96.6681 148.413 91.5018 147.596 85.6114C147.27 83.2486 146.308 81.2147 144.71 79.4474" fill="black"/>
<path fill-rule="evenodd" clip-rule="evenodd" d="M118.414 101.737C116.813 101.084 115.385 99.9946 114.341 98.6027C113.978 98.1189 113.884 97.6079 113.96 97.1406C114.045 96.6151 114.356 96.1388 114.78 95.8194C115.205 95.4989 115.737 95.3409 116.251 95.4214C116.698 95.4914 117.143 95.7361 117.495 96.2436L117.569 96.3451C118.189 97.1852 118.998 97.8745 119.92 98.3187C120.809 98.747 121.802 98.9468 122.83 98.8306C124.789 98.6093 126.139 97.55 127.573 96.1114C127.751 95.9298 127.929 95.7424 128.108 95.5521C128.221 95.3796 128.378 95.2687 128.552 95.2105C128.745 95.1459 128.963 95.1496 129.163 95.2194C129.357 95.2868 129.529 95.4145 129.645 95.5845C129.755 95.746 129.817 95.9456 129.797 96.1751C129.666 97.6659 128.886 98.9965 127.779 100.041C126.55 101.202 124.92 102.004 123.386 102.286C121.696 102.596 119.974 102.374 118.414 101.737V101.737ZM124.184 78.738C125.982 79.8313 128.722 82.3807 126.787 85.0911C124.51 87.4809 121.232 84.7408 119.616 83.5016C118.118 82.5411 116.435 85.0113 117.825 86.1327C129.499 94.7778 134.237 79.0239 125.093 77.4526C124.086 77.2794 123.712 78.3998 124.184 78.738ZM103.263 68.6815C103.462 66.2148 107.218 65.6546 107.592 68.0956C107.926 70.2822 107.532 72.2908 106.548 74.2594C105.607 76.1402 103.242 75.2627 103.063 73.5501C102.823 71.2545 103.14 70.216 103.263 68.6815ZM131.855 67.5895C132.378 66.9035 133.134 66.4352 134.04 66.6998C136.87 67.5271 136.036 71.546 135.042 73.5023C134.502 74.5646 132.756 74.834 131.967 73.8986C130.682 72.3732 130.066 69.327 131.7 67.8246C131.745 67.7469 131.794 67.6685 131.855 67.5895ZM106.508 57.8878L106.955 57.8095C108.338 57.5703 110.058 57.3404 111.036 58.4526C111.555 59.0423 111.733 60.1385 111.036 60.703C109.809 61.6962 108.453 61.3113 106.982 61.3954C105.771 61.4649 104.606 61.6655 103.439 61.9992C100.879 62.7311 98.7925 64.0674 96.6057 65.5346C96.3188 65.7271 96.0259 65.36 96.1628 65.0916C97.4251 62.6185 99.8715 60.587 102.322 59.3486C103.63 58.6876 105.061 58.1393 106.508 57.8878ZM129.275 56.78L129.617 56.85C133.341 57.6286 138.179 59.1838 139.942 62.8422C140.009 63.3595 139.938 63.4704 139.88 63.5428L139.861 63.5669C139.814 63.6288 139.776 63.7141 139.551 63.7845C139.489 63.7697 139.426 63.7539 139.363 63.7373C138.555 63.5254 137.915 63.2335 137.296 62.9307L136.625 62.5999C135.846 62.2179 135.06 61.8499 134.227 61.5781C132.451 60.9984 130.623 60.59 128.767 60.3719C128.364 60.3247 127.977 60.1889 127.671 59.9562C127.381 59.7352 127.16 59.4294 127.059 59.0228C126.928 58.4966 126.965 58.0982 127.248 57.6236C127.46 57.2671 127.763 57.02 128.112 56.8781C128.468 56.7335 128.872 56.6994 129.275 56.78Z" fill="black"/>
<defs>
<clipPath id="clip0_62_17741">
<rect width="200" height="200" rx="100" transform="matrix(-1 0 0 1 200 32)" fill="white"/>
</clipPath>
</defs>
</svg>
