<svg width="200" height="223" viewBox="0 0 200 223" fill="none" xmlns="http://www.w3.org/2000/svg">
<g clip-path="url(#clip0_62_17737)">
<rect y="23" width="200" height="200" rx="100" fill="#DEE8CB"/>
<path fill-rule="evenodd" clip-rule="evenodd" d="M91.5689 91.8424C94.5722 91.0125 98.0247 91.1091 101.106 91.3212C104.235 91.537 107.593 91.9068 110.529 93.0732C113.082 94.0871 115.234 95.7922 116.546 98.2355C117.624 100.244 118.13 102.447 118.447 104.684C118.577 105.6 118.685 106.518 118.788 107.436L119 109.348C119.084 110.078 119.156 110.626 119.302 111.442C119.705 113.697 120.266 115.581 121.519 117.222C124.553 121.194 129.507 122.524 134.012 124.219C136.895 125.304 139.178 127.256 139.811 130.392C140.422 133.417 163.656 158.799 165.937 160.939L165.999 160.996C167.768 162.586 167.56 165.576 167.808 167.758C168.073 170.098 168.326 172.44 168.565 174.782C169.052 179.542 169.486 184.306 169.867 189.074C171.355 207.723 172.03 226.437 171.886 245.145L171.877 246.204C171.855 248.578 171.873 250.962 171.766 253.334C171.664 255.614 170.973 257.895 168.857 259.086C166.896 260.189 164.418 260.092 162.227 260.202L162.096 260.209C159.745 260.338 157.393 260.443 155.04 260.53C145.479 260.883 135.908 260.921 126.341 260.877C107.361 260.79 88.3615 260.374 69.3992 261.434C64.5656 261.705 49.1558 260.062 44.3373 260.53C39.7319 260.977 43.6834 263.232 40.8383 263.084C31.4816 262.595 22.6064 260.511 13.6418 258C12.5219 257.687 11.6655 256.602 11.6796 255.429C11.8461 242.548 12.2104 229.671 12.7796 216.802C13.2866 205.338 13.9548 193.881 14.7837 182.436C15.1441 177.461 15.5348 172.488 15.9558 167.518L16.138 165.388C16.3758 162.642 16.5126 159.845 17.0536 157.136C17.5889 154.457 18.803 152.134 20.5636 150.058C22.1434 148.196 40.0296 133.619 44.3373 130.859C48.4605 128.217 52.7902 125.988 57.0232 123.54C58.7842 122.521 60.4755 122.888 61.98 121.637C62.7731 120.978 74.2816 116.537 77.3865 115.071L77.478 115.028C79.8545 113.89 82.0415 112.656 83.6836 110.687C84.234 110.028 85.3137 105.871 85.3157 104.543C85.3195 102.171 85.1394 99.6718 85.8563 97.3737C86.7135 94.6257 88.7798 92.6129 91.5689 91.8424ZM96.6605 153.012L78.271 188.763H90.2288L81.6574 208.626H100.481L93.8036 236.449L131.989 188.763H117.66L131.989 169.988H122.051L131.989 154.088L96.6605 153.012Z" fill="white"/>
<path fill-rule="evenodd" clip-rule="evenodd" d="M158.435 173.116C158.392 173.159 158.348 173.201 158.305 173.246C158.354 173.177 158.397 173.105 158.435 173.034V173.116ZM122.696 162.702C121.044 164.808 119.297 169.094 117.692 171.238C117.462 171.546 117.236 171.854 117.013 172.164C116.347 173.094 117.236 174.517 118.331 174.457C120.519 174.341 122.705 174.178 124.891 174.013C120.401 179.008 116.673 185.212 112.55 190.504C112.271 190.859 111.996 191.216 111.721 191.573C110.677 192.931 111.723 193.547 113.149 193.181C113.444 193.105 113.739 193.03 114.034 192.956C116.108 192.425 118.179 191.894 120.253 191.365C121.4 191.071 122.553 190.707 123.715 190.482C124.193 190.39 124.651 190.466 125.103 190.491C124.886 190.821 124.582 191.416 124.522 191.508C123.845 192.561 123.163 193.609 122.477 194.653C121.141 196.684 119.797 198.712 118.405 200.704C112.975 208.472 107.117 215.888 101.311 223.372C99.8497 225.255 98.368 227.118 96.8617 228.963C96.8684 228.952 96.8729 228.94 96.8796 228.93C98.2361 226.292 99.5927 223.658 100.949 221.021C103.528 216.01 106.083 210.986 108.688 205.989C108.822 205.728 108.959 205.469 109.095 205.208C109.636 204.173 108.749 203.098 107.638 203.316C102.219 204.382 96.8535 205.691 91.5541 207.242C91.3157 207.496 90.965 207.57 90.6519 207.509C90.4389 207.572 90.2251 207.633 90.0121 207.698C90.0767 207.564 90.1435 207.432 90.2085 207.299C89.992 207.111 89.8843 206.82 90.0251 206.457C93.0744 198.603 97.2553 191.02 102.209 184.076C102.01 184.079 101.811 184.082 101.611 184.088C96.1734 184.235 90.839 185.014 85.5984 186.493C85.5738 186.009 85.8666 185.259 86.0252 184.902C86.6599 183.477 87.3884 182.084 88.0701 180.681C89.4646 177.799 90.8591 174.919 92.2536 172.036C93.6168 169.221 94.9689 166.397 96.2516 163.541C96.9243 162.044 97.597 160.545 98.2674 159.046C98.815 157.825 99.2463 156.596 99.6999 155.347C101.032 155.738 118.135 155.822 122.291 156.11C123.311 156.182 124.332 156.246 125.353 156.302C126.167 156.349 127.313 156.527 127.874 155.793L128.086 155.972C126.24 158.176 124.47 160.44 122.696 162.702V162.702ZM55.9225 121.752C56.0074 121.714 56.0901 121.676 56.1728 121.638C56.2153 121.698 56.2667 121.754 56.3203 121.81C56.4544 121.946 56.5863 122.093 56.7248 122.227C56.4566 122.071 56.1885 121.912 55.9225 121.752V121.752ZM175.448 247.127C175.294 243.877 175.122 240.626 174.939 237.376C174.577 231.022 174.204 224.669 173.705 218.324C172.693 205.467 171.75 192.614 170.232 179.804C169.595 174.435 168.706 169.105 167.814 163.773C167.928 163.67 168.044 163.568 168.158 163.468C168.036 164.926 170.02 165.85 171.003 164.396C171.077 164.286 171.149 164.177 171.22 164.063C172.072 162.689 174.034 155.947 173.897 155.376C173.652 154.347 172.968 153.433 172.434 152.527C171.967 151.735 171.495 150.943 171.017 150.158C170.062 148.585 169.079 147.028 168.049 145.504C165.915 142.35 163.582 139.32 160.833 136.672C157.988 133.928 154.723 131.672 151.351 129.627C149.73 128.645 148.059 127.755 146.356 126.925C144.675 126.109 142.836 125.205 141.026 124.741C140.923 124.714 140.818 124.857 140.912 124.933C141.392 125.312 141.895 125.669 142.407 126.013C141.021 125.533 139.593 125.187 138.154 125.064C135.367 124.087 132.547 123.193 129.774 122.173C127.047 121.169 124.361 120.041 122.548 117.662C121 115.63 120.021 113.143 119.268 110.72C118.441 108.049 118.112 105.274 117.348 102.599C117.288 102.383 116.932 102.358 116.886 102.599C116.34 105.406 116.365 108.56 116.675 111.393C117.002 114.365 117.84 117.281 119.663 119.697C121.782 122.506 124.656 124.069 127.89 125.317C130.498 126.325 133.139 127.351 135.81 128.252C135.461 128.48 135.108 128.708 134.744 128.924C133.296 129.783 131.789 130.546 130.25 131.231C127.438 132.482 124.477 133.419 121.498 134.18C115.954 135.59 110.268 136.306 104.552 136.4C93.114 136.59 81.5489 134.198 71.0878 129.58C68.1424 128.279 65.2662 126.849 62.4191 125.348C61.5296 124.879 60.6357 124.406 59.7462 123.92C59.82 123.916 59.896 123.909 59.9697 123.902C61.9565 123.715 63.9186 123.333 65.8405 122.794C69.776 121.685 73.5483 119.956 77.2536 118.253C80.3958 116.81 83.6317 115.166 85.5514 112.159C86.5772 110.55 87.0488 108.663 87.4309 106.816C87.8577 104.759 88.3606 102.693 88.6712 100.616C88.7807 99.8887 88.6176 98.9049 87.8354 98.5613C87.5225 98.425 87.2655 98.3135 86.9147 98.3135C86.1392 98.3135 85.3436 98.8759 85.1581 99.6478C84.7 101.573 84.4229 103.552 84.0631 105.497C83.7524 107.179 83.4686 108.935 82.559 110.414C80.9701 113.004 77.8548 114.329 75.2222 115.59C71.8857 117.187 68.5469 118.744 65.0807 120.041C63.5543 120.612 62.0012 121.129 60.4256 121.553C60.4882 121.167 60.4346 120.761 60.2066 120.455C59.8267 119.951 59.3954 119.617 58.906 119.231C58.3741 118.811 57.6589 118.593 57.031 118.778C57.031 118.78 57.0287 118.778 57.0287 118.778C56.774 118.722 56.4924 118.744 56.2019 118.876C55.3035 119.287 54.4073 119.701 53.5112 120.123C40.6186 126.178 28.0926 133.29 18.6059 144.121C17.2382 145.683 15.9577 147.325 14.7576 149.018C13.591 150.662 12.1473 152.447 11.8255 154.486C11.7987 154.656 12.0468 154.734 12.0892 154.559C12.1652 154.245 12.268 153.937 12.3954 153.638C12.1294 154.566 12.1451 155.552 12.5205 156.523C12.9653 157.665 13.781 158.421 14.8112 158.722C13.7765 163.249 13.0815 167.836 12.5228 172.474C11.7205 179.155 11.1506 185.853 10.7215 192.568C9.86337 205.969 9.48122 219.437 9.75833 232.863C9.83655 236.657 9.96617 240.452 10.1628 244.245C10.2612 246.141 10.3684 248.035 10.4913 249.931C10.612 251.796 10.5137 253.851 12.1429 254.835C12.163 254.909 12.1853 254.98 12.2054 255.053C12.601 256.43 14.3642 255.988 14.5296 254.739C14.5319 254.726 14.5341 254.71 14.5363 254.697C15.8683 253.682 15.6671 251.991 15.5688 250.368C15.4638 248.617 15.352 246.868 15.2582 245.119C15.0794 241.764 14.9274 238.409 14.7911 235.051C14.5252 228.412 14.3754 221.764 14.3263 215.12C14.2279 201.83 14.9967 188.561 15.9085 175.309C16.2906 169.765 16.7376 164.246 16.8739 158.704C17.5868 158.334 17.8058 157.281 17.4483 156.572C25.8913 162.323 33.7265 169.199 40.0175 177.19C41.0678 178.524 42.0712 179.898 43.0322 181.297C43.3451 181.752 43.6423 182.225 43.9418 182.698C43.6512 184.016 43.4255 185.357 43.1305 186.622C42.5227 189.235 42.2657 191.945 41.917 194.6C41.2086 199.992 40.7103 205.433 40.2879 210.854C39.4565 221.561 38.8397 232.265 38.6453 243.002C38.538 249.075 38.395 255.185 38.6632 261.256C38.4643 262.442 39.5348 263.603 40.6544 263.752C41.6355 263.883 42.5517 263.375 42.9808 262.556C46.038 262.935 49.1757 263.109 52.2128 263.132C56.3047 263.161 60.3966 263.156 64.4885 263.069C72.6745 262.891 80.8584 262.681 89.0422 262.438C105.41 261.956 121.777 261.472 138.147 260.988C142.686 260.854 147.225 260.72 151.764 260.586C153.811 260.526 156.363 261.115 157.977 259.538C158.254 259.265 158.468 258.946 158.62 258.605C159.103 258.725 159.695 258.607 160.013 258.235C160.605 257.536 161.041 256.89 161.018 255.921C160.998 255.015 160.748 254.061 160.618 253.164C160.372 251.48 160.136 249.795 159.91 248.109C159.465 244.776 159.049 241.438 158.667 238.098C157.885 231.27 157.174 224.425 156.62 217.574C155.521 204.026 155.21 190.406 155.248 176.815C155.252 175.599 155.259 174.384 155.266 173.168C155.317 173.232 155.373 173.292 155.434 173.344C155.483 173.386 155.532 173.429 155.581 173.473C156.153 173.975 157.105 174.234 157.791 173.759C158.634 173.214 159.215 172.398 159.872 171.66C160.562 170.886 161.273 170.131 161.99 169.382C163.38 167.932 164.817 166.542 166.283 165.167C166.402 165.058 166.52 164.947 166.639 164.839C166.648 169.165 166.643 173.489 166.759 177.813C166.934 184.235 167.282 190.651 167.602 197.065C168.237 209.766 168.894 222.462 169.526 235.16C169.703 238.705 169.87 242.252 170.047 245.797C170.136 247.571 170.223 249.344 170.308 251.118C170.353 252.077 170.398 253.039 170.442 253.998C170.492 255.029 170.427 256.131 170.775 257.111C171.569 259.35 174.997 259.667 175.656 257.111C176.07 255.507 175.752 253.65 175.679 252.004C175.603 250.38 175.527 248.753 175.448 247.127V247.127Z" fill="black"/>
<path fill-rule="evenodd" clip-rule="evenodd" d="M141.045 46.3733C138.743 38.0774 129.944 34.4575 122.019 33.883C100.562 31.6563 78.721 43.5971 69.2084 62.9595C61.5938 77.6619 61.3553 93.1066 77.7234 101.501C78.6173 101.993 79.5508 102.519 80.5042 102.996C81.3324 103.765 82.1854 104.504 83.1164 105.124C92.0295 110.975 102.969 113.505 113.57 112.957C129.223 112.642 134.811 102.039 138.231 88.4415C141.837 74.9045 143.854 60.2157 141.045 46.3733V46.3733Z" fill="white"/>
<path fill-rule="evenodd" clip-rule="evenodd" d="M151.32 124.568C150.589 122.362 149.673 120.223 148.817 118.061C148.636 116.983 148.516 115.897 148.485 114.801C148.366 110.888 149.099 106.942 149.921 103.131C151.593 95.388 153.365 87.7248 154.255 79.8385C155.843 65.7324 154.898 51.0641 148.471 38.1872C142.902 27.0326 133.464 17.9104 121.273 14.4926C117.67 13.4818 113.96 12.9243 110.226 12.7016C109.764 12.6282 109.302 12.5564 108.842 12.4872C103.648 11.7055 98.3893 11.316 93.1389 11.6531C84.4321 12.2124 75.8067 14.7101 68.5553 19.6503C61.2544 24.6245 56.067 31.5993 53.6532 40.1065C51.1422 48.9565 51.3552 58.5412 47.019 66.8384C45.738 69.2898 44.2427 71.6202 42.8167 73.9894C39.0329 78.2039 34.9249 82.889 34.0248 88.6838C32.9141 95.8453 37.0417 101.898 40.9482 107.486C44.4791 112.533 49.2705 119.502 45.6368 125.715C43.9227 128.647 41.1761 130.84 39.1134 133.512C36.9747 136.287 35.3053 139.473 34.4427 142.878C32.8224 149.271 34.313 155.935 38.6463 160.932C40.9035 163.534 43.802 165.254 46.9396 166.594C50.151 167.964 53.2887 169.265 55.9436 171.596C57.1571 172.66 58.2678 173.827 59.3182 175.05C60.297 176.578 61.4368 178.006 62.7218 179.313C64.1364 180.752 66.9075 178.782 65.6091 177.089C65.513 176.964 65.4192 176.841 65.3231 176.716C64.3733 175.48 63.419 174.244 62.4201 173.049C59.4411 168.337 58.2946 162.568 59.7763 157.064C60.1607 155.634 60.7015 154.278 61.3744 152.997C61.5172 153.37 61.6736 153.738 61.839 154.101C62.4826 155.511 63.3857 157.182 64.5342 158.61C64.5789 159.589 64.7266 160.56 65.0124 161.51C66.7824 167.402 72.7001 170.309 78.0368 172.571C78.5598 172.794 79.076 173.008 79.5833 173.22C80.9778 173.802 82.4528 171.819 81.5834 170.623C81.3555 170.309 81.1342 169.988 80.9242 169.662C78.4212 165.794 77.2301 161.167 77.905 156.558C78.6156 151.683 81.4941 147.649 84.3524 143.779C87.1593 139.973 90.174 136.089 91.4299 131.446C92.82 126.317 91.5551 121.204 89.4097 116.484C87.4453 112.164 84.8286 108.182 82.6342 103.981C83.3856 104.73 84.1608 105.453 84.9595 106.151C85.8577 106.936 86.7805 107.834 87.8449 108.387C88.632 108.796 89.4204 107.817 88.7971 107.155C87.9779 106.286 86.9295 105.614 86.0197 104.837C85.1464 104.093 84.2983 103.318 83.4712 102.522C82.4528 101.542 81.484 100.517 80.5499 99.4598C79.8023 97.5589 79.1864 95.6068 78.6849 93.6255C78.0033 90.944 77.3731 88.0906 77.4223 85.3109C77.4714 82.4598 78.9553 80.4631 80.9309 78.549C81.7676 77.7385 82.6123 76.9376 83.4555 76.1351C85.2514 74.8191 86.9454 73.3489 88.5909 71.8828C91.5229 69.2702 94.3589 66.5085 97.0672 63.6661C97.7938 62.9036 98.5143 62.1325 99.2258 61.3526C101.712 58.8058 104.083 56.1465 106.318 53.3954C108.54 52.5878 110.674 51.5192 112.676 50.2609C111.805 51.1421 110.924 52.0122 110.048 52.889C108.097 54.8432 106.07 56.8065 103.808 58.3991C103.576 58.5644 103.717 58.9147 104.003 58.8589C106.879 58.2856 109.57 57.3307 112.082 55.8092C114.636 54.261 116.887 52.1572 118.987 50.0468C120.176 49.5113 121.323 48.822 122.371 48.1438C122.427 48.1081 122.482 48.0702 122.538 48.0343C121.506 51.3005 119.991 54.9994 116.761 56.1639C116.656 56.2019 116.663 56.3759 116.788 56.3692C119.509 56.2099 121.695 54.988 123.421 53.2071C124.81 52.2099 126.135 51.1531 127.399 50.0026C128.623 48.888 129.784 47.6927 130.885 46.455C129.345 49.5 127.621 52.4774 125.92 55.421C125.83 55.5772 126.018 55.7892 126.179 55.6798C129.77 53.2526 132.494 50.1204 134.722 46.4168C135.051 45.8716 135.365 45.3174 135.672 44.759C135.44 45.6329 135.188 46.5012 134.918 47.365C134.429 48.9286 133.947 50.4958 133.457 52.0586C133.193 52.9012 132.871 53.7247 132.518 54.534C132.265 55.1132 131.933 55.6912 131.882 56.3264C131.879 56.3685 131.925 56.3962 131.962 56.387C133.394 56.0296 134.727 54.3993 135.748 53.3894C136.316 52.8269 136.848 52.2096 137.338 51.5587C137.429 55.3082 137.491 59.0581 137.409 62.8188C137.255 69.7257 136.808 76.6304 136.235 83.5148C135.73 89.601 135.357 95.9881 131.956 101.278C129.323 105.371 125.055 108.204 120.417 109.577C120.009 109.699 119.597 109.809 119.184 109.907C112.471 111.497 105.784 109.695 99.8484 106.509C98.0651 105.552 96.5409 108.149 98.2617 109.217C104.702 113.22 112.866 114.583 120.156 112.789C119.926 121.385 124.17 129.539 128.391 136.83C130.753 140.91 133.118 144.963 134.787 149.387C136.204 153.144 137.167 157.042 137.491 161.051C137.876 165.776 137.498 170.528 136.837 175.213C136.801 175.467 136.765 175.723 136.727 175.977C136.58 176.984 137.485 177.827 138.466 177.312C142.803 175.036 144.674 170.186 145.811 165.702C146.875 161.501 147.597 157.218 147.999 152.906C148.589 154.532 149.068 156.198 149.439 157.898C149.49 158.142 149.539 158.385 149.588 158.628C149.87 160.049 152.024 159.949 152.368 158.628C152.431 158.389 152.491 158.15 152.547 157.909C154.324 150.737 154.802 143.257 153.863 135.924C153.37 132.067 152.545 128.261 151.32 124.568" fill="black"/>
<path fill-rule="evenodd" clip-rule="evenodd" d="M118.635 96.2895C117.133 95.6777 115.792 94.6572 114.812 93.3536C114.471 92.9004 114.383 92.4218 114.455 91.9841C114.535 91.4919 114.827 91.0458 115.224 90.7466C115.623 90.4465 116.123 90.2985 116.605 90.3739C117.024 90.4395 117.442 90.6687 117.772 91.144L117.841 91.239C118.424 92.0259 119.183 92.6715 120.048 93.0876C120.882 93.4887 121.814 93.6759 122.779 93.567C124.617 93.3598 125.884 92.3675 127.23 91.0201C127.397 90.85 127.564 90.6746 127.732 90.4963C127.838 90.3347 127.985 90.2308 128.148 90.1764C128.33 90.1158 128.535 90.1193 128.723 90.1847C128.904 90.2478 129.066 90.3674 129.174 90.5266C129.278 90.6779 129.336 90.8648 129.317 91.0798C129.194 92.4762 128.463 93.7224 127.424 94.7009C126.27 95.7877 124.741 96.5395 123.301 96.8032C121.715 97.0937 120.098 96.8856 118.635 96.2895V96.2895ZM124.049 74.7479C125.737 75.7719 128.308 78.1597 126.493 80.6983C124.356 82.9367 121.279 80.3702 119.763 79.2095C118.357 78.31 116.777 80.6236 118.082 81.6739C129.038 89.7711 133.484 75.0157 124.903 73.5439C123.958 73.3818 123.607 74.4311 124.049 74.7479ZM104.416 65.3288C104.603 63.0184 108.128 62.4937 108.478 64.78C108.792 66.828 108.423 68.7093 107.499 70.5532C106.616 72.3147 104.396 71.4929 104.229 69.8888C104.004 67.7387 104.3 66.766 104.416 65.3288ZM131.248 64.3059C131.74 63.6634 132.449 63.2248 133.299 63.4727C135.955 64.2475 135.172 68.0117 134.24 69.844C133.733 70.839 132.094 71.0913 131.354 70.2152C130.147 68.7865 129.569 65.9334 131.104 64.5261C131.145 64.4534 131.191 64.38 131.248 64.3059ZM107.461 55.2192L107.881 55.1459C109.179 54.9218 110.792 54.7065 111.711 55.7481C112.198 56.3005 112.365 57.3272 111.711 57.8559C110.559 58.7862 109.286 58.4257 107.907 58.5044C106.77 58.5696 105.677 58.7574 104.581 59.07C102.179 59.7555 100.221 61.0071 98.1685 62.3813C97.8992 62.5616 97.6243 62.2178 97.7528 61.9664C98.9374 59.65 101.233 57.7473 103.533 56.5874C104.76 55.9683 106.103 55.4548 107.461 55.2192ZM128.827 54.1816L129.148 54.2472C132.643 54.9764 137.183 56.433 138.838 59.8596C138.901 60.3441 138.834 60.448 138.78 60.5158L138.762 60.5384C138.717 60.5963 138.682 60.6762 138.471 60.7421C138.413 60.7282 138.354 60.7135 138.294 60.6979C137.536 60.4995 136.936 60.2261 136.355 59.9424L135.725 59.6326C134.994 59.2748 134.256 58.9301 133.475 58.6756C131.807 58.1326 130.092 57.7501 128.35 57.5459C127.973 57.5016 127.609 57.3744 127.322 57.1564C127.05 56.9495 126.842 56.663 126.747 56.2822C126.624 55.7894 126.66 55.4163 126.925 54.9717C127.124 54.6378 127.409 54.4064 127.736 54.2735C128.07 54.138 128.449 54.1061 128.827 54.1816Z" fill="black"/>
</g>
<path fill-rule="evenodd" clip-rule="evenodd" d="M139.95 45.3733C137.682 37.0774 129.014 33.4575 121.206 32.883C100.068 30.6563 78.5517 42.5971 69.1804 61.9595C61.6788 76.6619 61.4439 92.1066 77.5689 100.501C78.4495 100.993 79.3691 101.519 80.3084 101.996C81.1243 102.765 81.9646 103.504 82.8818 104.124C91.6624 109.975 102.439 112.505 112.883 111.957C128.304 111.642 133.809 101.039 137.177 87.4415C140.73 73.9045 142.717 59.2157 139.95 45.3733V45.3733Z" fill="white"/>
<path fill-rule="evenodd" clip-rule="evenodd" d="M150.073 123.568C149.353 121.362 148.45 119.223 147.607 117.061C147.428 115.983 147.31 114.897 147.279 113.801C147.162 109.888 147.884 105.942 148.694 102.131C150.341 94.388 152.087 86.7248 152.963 78.8385C154.529 64.7324 153.597 50.0641 147.265 37.1872C141.779 26.0326 132.482 16.9104 120.472 13.4926C116.922 12.4818 113.268 11.9243 109.589 11.7016C109.133 11.6282 108.678 11.5564 108.226 11.4872C103.108 10.7055 97.9279 10.316 92.7554 10.6531C84.178 11.2124 75.6807 13.7101 68.5369 18.6503C61.3445 23.6245 56.2342 30.5993 53.8562 39.1065C51.3825 47.9565 51.5923 57.5412 47.3206 65.8384C46.0586 68.2898 44.5855 70.6202 43.1807 72.9894C39.4531 77.2039 35.4062 81.889 34.5194 87.6838C33.4252 94.8453 37.4915 100.898 41.3399 106.486C44.8184 111.533 49.5387 118.502 45.9589 124.715C44.2702 127.647 41.5645 129.84 39.5324 132.512C37.4255 135.287 35.7809 138.473 34.9311 141.878C33.3349 148.271 34.8034 154.935 39.0723 159.932C41.2959 162.534 44.1514 164.254 47.2424 165.594C50.4061 166.964 53.4972 168.265 56.1127 170.596C57.3081 171.66 58.4023 172.827 59.4371 174.05C60.4014 175.578 61.5242 177.006 62.7901 178.313C64.1837 179.752 66.9137 177.782 65.6346 176.089C65.5399 175.964 65.4474 175.841 65.3528 175.716C64.4171 174.48 63.477 173.244 62.4929 172.049C59.5582 167.337 58.4287 161.568 59.8884 156.064C60.2671 154.634 60.7999 153.278 61.4628 151.997C61.6034 152.37 61.7576 152.738 61.9205 153.101C62.5545 154.511 63.4442 156.182 64.5756 157.61C64.6196 158.589 64.7652 159.56 65.0467 160.51C66.7904 166.402 72.6202 169.309 77.8777 171.571C78.3928 171.794 78.9014 172.008 79.4012 172.22C80.775 172.802 82.228 170.819 81.3716 169.623C81.147 169.309 80.9291 168.988 80.7221 168.662C78.2563 164.794 77.0829 160.167 77.7478 155.558C78.4479 150.683 81.2835 146.649 84.0994 142.779C86.8646 138.973 89.8346 135.089 91.0719 130.446C92.4413 125.317 91.1951 120.204 89.0816 115.484C87.1464 111.164 84.5686 107.182 82.4068 102.981C83.147 103.73 83.9107 104.453 84.6976 105.151C85.5824 105.936 86.4914 106.834 87.5401 107.387C88.3155 107.796 89.0922 106.817 88.4782 106.155C87.671 105.286 86.6383 104.614 85.742 103.837C84.8816 103.093 84.0461 102.318 83.2313 101.522C82.228 100.542 81.2736 99.5166 80.3534 98.4598C79.6169 96.5589 79.0102 94.6068 78.5161 92.6255C77.8446 89.944 77.2238 87.0906 77.2722 84.3109C77.3207 81.4598 78.7825 79.4631 80.7287 77.549C81.553 76.7385 82.3852 75.9376 83.2159 75.1351C84.9851 73.8191 86.6539 72.3489 88.2749 70.8828C91.1634 68.2702 93.9573 65.5085 96.6254 62.6661C97.3411 61.9036 98.0509 61.1325 98.7519 60.3526C101.201 57.8058 103.537 55.1465 105.739 52.3954C107.927 51.5878 110.03 50.5192 112.002 49.2609C111.144 50.1421 110.276 51.0122 109.413 51.889C107.491 53.8432 105.495 55.8065 103.267 57.3991C103.038 57.5644 103.176 57.9147 103.458 57.8589C106.292 57.2856 108.942 56.3307 111.417 54.8092C113.933 53.261 116.15 51.1572 118.22 49.0468C119.391 48.5113 120.521 47.822 121.553 47.1438C121.608 47.1081 121.663 47.0702 121.718 47.0343C120.701 50.3005 119.209 53.9994 116.027 55.1639C115.924 55.2019 115.93 55.3759 116.053 55.3692C118.734 55.2099 120.888 53.988 122.588 52.2071C123.956 51.2099 125.261 50.1531 126.506 49.0026C127.713 47.888 128.856 46.6927 129.941 45.455C128.424 48.5 126.725 51.4774 125.049 54.421C124.961 54.5772 125.146 54.7892 125.305 54.6798C128.843 52.2526 131.526 49.1204 133.721 45.4168C134.045 44.8716 134.355 44.3174 134.656 43.759C134.429 44.6329 134.18 45.5012 133.914 46.365C133.432 47.9286 132.958 49.4958 132.475 51.0586C132.214 51.9012 131.897 52.7247 131.549 53.534C131.3 54.1132 130.974 54.6912 130.923 55.3264C130.92 55.3685 130.965 55.3962 131.001 55.387C132.412 55.0296 133.726 53.3993 134.731 52.3894C135.291 51.8269 135.815 51.2096 136.298 50.5587C136.387 54.3082 136.449 58.0581 136.368 61.8188C136.216 68.7257 135.776 75.6304 135.212 82.5148C134.714 88.601 134.347 94.9881 130.996 100.278C128.402 104.371 124.197 107.204 119.629 108.577C119.226 108.699 118.821 108.809 118.414 108.907C111.8 110.497 105.213 108.695 99.3653 105.509C97.6084 104.552 96.1069 107.149 97.8021 108.217C104.147 112.22 112.19 113.583 119.371 111.789C119.145 120.385 123.325 128.539 127.484 135.83C129.811 139.91 132.141 143.963 133.785 148.387C135.181 152.144 136.13 156.042 136.449 160.051C136.828 164.776 136.456 169.528 135.804 174.213C135.769 174.467 135.734 174.723 135.696 174.977C135.551 175.984 136.442 176.827 137.409 176.312C141.682 174.036 143.525 169.186 144.646 164.702C145.694 160.501 146.405 156.218 146.801 151.906C147.382 153.532 147.853 155.198 148.219 156.898C148.27 157.142 148.318 157.385 148.366 157.628C148.644 159.049 150.766 158.949 151.105 157.628C151.167 157.389 151.226 157.15 151.281 156.909C153.031 149.737 153.503 142.257 152.578 134.924C152.091 131.067 151.279 127.261 150.073 123.568" fill="black"/>
<path fill-rule="evenodd" clip-rule="evenodd" d="M117.873 95.2895C116.393 94.6777 115.072 93.6572 114.107 92.3536C113.771 91.9004 113.684 91.4218 113.754 90.9841C113.834 90.4919 114.121 90.0458 114.513 89.7466C114.906 89.4465 115.398 89.2985 115.873 89.3739C116.286 89.4395 116.697 89.6687 117.023 90.144L117.091 90.239C117.665 91.0259 118.413 91.6715 119.265 92.0876C120.086 92.4887 121.005 92.6759 121.956 92.567C123.766 92.3598 125.014 91.3675 126.34 90.0201C126.505 89.85 126.669 89.6746 126.835 89.4963C126.939 89.3347 127.084 89.2308 127.245 89.1764C127.423 89.1158 127.626 89.1193 127.811 89.1847C127.989 89.2478 128.149 89.3674 128.256 89.5266C128.357 89.6779 128.415 89.8648 128.396 90.0798C128.275 91.4762 127.554 92.7224 126.531 93.7009C125.394 94.7877 123.888 95.5395 122.469 95.8032C120.907 96.0937 119.314 95.8856 117.873 95.2895V95.2895ZM123.207 73.7479C124.869 74.7719 127.402 77.1597 125.614 79.6983C123.509 81.9367 120.478 79.3702 118.984 78.2095C117.599 77.31 116.043 79.6236 117.328 80.6739C128.121 88.7711 132.501 74.0157 124.048 72.5439C123.117 72.3818 122.771 73.4311 123.207 73.7479ZM103.865 64.3288C104.049 62.0184 107.522 61.4937 107.867 63.78C108.176 65.828 107.812 67.7093 106.902 69.5532C106.032 71.3147 103.846 70.4929 103.68 68.8888C103.459 66.7387 103.751 65.766 103.865 64.3288ZM130.299 63.3059C130.783 62.6634 131.482 62.2248 132.319 62.4727C134.936 63.2475 134.165 67.0117 133.246 68.844C132.746 69.839 131.132 70.0913 130.403 69.2152C129.214 67.7865 128.645 64.9334 130.156 63.5261C130.197 63.4534 130.243 63.38 130.299 63.3059ZM106.865 54.2192L107.278 54.1459C108.557 53.9218 110.147 53.7065 111.051 54.7481C111.531 55.3005 111.696 56.3272 111.051 56.8559C109.917 57.7862 108.663 57.4257 107.304 57.5044C106.184 57.5696 105.107 57.7574 104.028 58.07C101.661 58.7555 99.732 60.0071 97.7103 61.3813C97.445 61.5616 97.1742 61.2178 97.3008 60.9664C98.4678 58.65 100.73 56.7473 102.995 55.5874C104.204 54.9683 105.527 54.4548 106.865 54.2192ZM127.913 53.1816L128.23 53.2472C131.672 53.9764 136.145 55.433 137.776 58.8596C137.838 59.3441 137.772 59.448 137.719 59.5158L137.701 59.5384C137.657 59.5963 137.622 59.6762 137.415 59.7421C137.357 59.7282 137.299 59.7135 137.24 59.6979C136.493 59.4995 135.902 59.2261 135.329 58.9424L134.709 58.6326C133.989 58.2748 133.262 57.9301 132.492 57.6756C130.85 57.1326 129.16 56.7501 127.444 56.5459C127.072 56.5016 126.714 56.3744 126.431 56.1564C126.163 55.9495 125.958 55.663 125.865 55.2822C125.744 54.7894 125.778 54.4163 126.039 53.9717C126.235 53.6378 126.516 53.4064 126.839 53.2735C127.167 53.138 127.541 53.1061 127.913 53.1816Z" fill="black"/>
<defs>
<clipPath id="clip0_62_17737">
<rect y="23" width="200" height="200" rx="100" fill="white"/>
</clipPath>
</defs>
</svg>
