<svg width="474" height="251" viewBox="0 0 474 251" fill="none" xmlns="http://www.w3.org/2000/svg">
<g filter="url(#filter0_d_40_17632)">
<g clip-path="url(#clip0_40_17632)">
<rect x="7" y="5.19043" width="460" height="236.571" rx="8.7619" fill="white"/>
<path d="M33.9809 40.3082C34.0771 43.2174 36.5264 44.9715 40.2058 44.9715C44.0669 44.9715 46.4306 43.0677 46.4306 40.0515C46.4306 37.7092 45.0081 36.3936 41.7459 35.7412L40.1095 35.4096C38.2912 35.0459 37.5425 34.4577 37.5425 33.5058C37.5425 32.372 38.6121 31.6233 40.2058 31.6233C41.8315 31.6233 42.9759 32.4148 43.0829 33.7304H46.1312C46.0777 30.896 43.8102 29.0136 40.2058 29.0136C36.7724 29.0136 34.3124 30.8853 34.3124 33.709C34.3124 36.0086 35.8205 37.4846 38.9009 38.0942L40.5266 38.4151C42.4625 38.8108 43.1898 39.3884 43.1898 40.4045C43.1898 41.5382 42.0133 42.3725 40.2913 42.3725C38.5372 42.3725 37.2324 41.6024 37.0291 40.3082H33.9809ZM58.7307 33.2491H55.6075V39.8162C55.6075 41.335 54.7412 42.3297 53.3507 42.3297C51.971 42.3297 51.2116 41.5168 51.2116 39.9874V33.2491H48.0885V40.6398C48.0885 43.3137 49.7356 44.9288 52.217 44.9288C53.9497 44.9288 55.0834 44.0945 55.6503 42.6506H55.7145V44.7148H58.7307V33.2491ZM67.576 44.8967C70.4638 44.8967 72.2286 42.672 72.2286 38.982C72.2286 35.2812 70.4531 33.0672 67.5653 33.0672C65.9289 33.0672 64.6561 33.8801 64.025 35.2385H63.9609V29.281H60.8377V44.7148H63.9181V42.7468H63.9823C64.6133 44.0838 65.8968 44.8967 67.576 44.8967ZM66.4957 35.57C68.0466 35.57 69.0306 36.8963 69.0306 38.982C69.0306 41.0783 68.0573 42.3832 66.4957 42.3832C64.977 42.3832 63.9502 41.0569 63.9502 38.982C63.9502 36.9284 64.9877 35.57 66.4957 35.57ZM73.6619 36.6182C73.6619 38.3402 74.7849 39.4526 76.9989 39.9232L78.9562 40.3296C80.0793 40.5863 80.475 40.9286 80.475 41.5382C80.475 42.2869 79.7477 42.7682 78.5712 42.7682C77.3305 42.7682 76.6139 42.2334 76.4213 41.2281H73.3731C73.5763 43.4848 75.4053 44.9608 78.5712 44.9608C81.5232 44.9608 83.5875 43.4741 83.5875 41.2174C83.5875 39.5381 82.6034 38.5969 80.2076 38.0942L78.2503 37.6771C77.0952 37.4311 76.6673 37.0353 76.6673 36.4471C76.6673 35.6877 77.384 35.1957 78.4642 35.1957C79.6194 35.1957 80.3146 35.8267 80.4108 36.7573H83.288C83.2238 34.5112 81.4055 33.0031 78.4642 33.0031C75.5443 33.0031 73.6619 34.4363 73.6619 36.6182ZM95.5452 37.5166C95.4062 34.9176 93.4382 33.0031 90.3364 33.0031C86.9031 33.0031 84.7105 35.2919 84.7105 38.9713C84.7105 42.7148 86.9031 44.9608 90.3578 44.9608C93.374 44.9608 95.3955 43.2174 95.5559 40.5114H92.6467C92.4542 41.7628 91.6413 42.5115 90.3899 42.5115C88.839 42.5115 87.8764 41.2281 87.8764 38.9713C87.8764 36.7573 88.839 35.4524 90.3792 35.4524C91.6627 35.4524 92.4649 36.308 92.6467 37.5166H95.5452ZM97.064 44.7148H100.187V38.3081C100.187 36.6931 101.086 35.7519 102.626 35.7519C103.075 35.7519 103.503 35.8267 103.76 35.9337V33.1849C103.546 33.1207 103.235 33.0672 102.872 33.0672C101.524 33.0672 100.551 33.8587 100.144 35.3133H100.08V33.2491H97.064V44.7148ZM106.647 31.6982C107.556 31.6982 108.273 30.9709 108.273 30.0938C108.273 29.2061 107.556 28.4895 106.647 28.4895C105.738 28.4895 105.022 29.2061 105.022 30.0938C105.022 30.9709 105.738 31.6982 106.647 31.6982ZM105.096 44.7148H108.22V33.2491H105.096V44.7148ZM117.118 44.8967C120.006 44.8967 121.771 42.672 121.771 38.982C121.771 35.2812 119.996 33.0672 117.108 33.0672C115.471 33.0672 114.198 33.8801 113.567 35.2385H113.503V29.281H110.38V44.7148H113.46V42.7468H113.525C114.156 44.0838 115.439 44.8967 117.118 44.8967ZM116.038 35.57C117.589 35.57 118.573 36.8963 118.573 38.982C118.573 41.0783 117.6 42.3832 116.038 42.3832C114.519 42.3832 113.493 41.0569 113.493 38.982C113.493 36.9284 114.53 35.57 116.038 35.57ZM130.991 41.2067C130.702 42.0837 129.825 42.6506 128.68 42.6506C127.087 42.6506 126.049 41.5275 126.049 39.8911V39.6986H133.953V38.7467C133.953 35.2599 131.846 33.0031 128.509 33.0031C125.119 33.0031 122.98 35.3775 122.98 39.0354C122.98 42.7041 125.097 44.9608 128.627 44.9608C131.461 44.9608 133.515 43.4528 133.857 41.2067H130.991ZM128.541 35.3133C129.932 35.3133 130.884 36.3187 130.948 37.784H126.081C126.188 36.3508 127.172 35.3133 128.541 35.3133ZM140.745 30.6072V33.2491H139.13V35.6021H140.745V41.6238C140.745 43.8592 141.793 44.7576 144.489 44.7576C145.12 44.7576 145.655 44.7041 145.975 44.6293V42.3297C145.783 42.3618 145.494 42.3832 145.216 42.3832C144.296 42.3832 143.868 41.9661 143.868 41.089V35.6021H145.986V33.2491H143.868V30.6072H140.745ZM152.789 44.9608C156.254 44.9608 158.468 42.7468 158.468 38.9713C158.468 35.2492 156.222 33.0031 152.789 33.0031C149.355 33.0031 147.109 35.2599 147.109 38.9713C147.109 42.7361 149.323 44.9608 152.789 44.9608ZM152.789 42.5757C151.248 42.5757 150.275 41.2815 150.275 38.982C150.275 36.7038 151.27 35.3882 152.789 35.3882C154.307 35.3882 155.291 36.7038 155.291 38.982C155.291 41.2815 154.318 42.5757 152.789 42.5757ZM168.361 44.7148H171.559V29.281H168.351L164.361 32.0512V34.9176L168.297 32.2437H168.361V44.7148ZM175.153 29.281V44.7148H178.383V39.8483H181.271C184.523 39.8483 186.779 37.7306 186.779 34.5646C186.779 31.388 184.597 29.281 181.432 29.281H175.153ZM178.383 31.8372H180.576C182.426 31.8372 183.496 32.8212 183.496 34.5753C183.496 36.3401 182.416 37.3241 180.565 37.3241H178.383V31.8372ZM191.079 44.8967C192.512 44.8967 193.935 44.1801 194.577 42.9608H194.641V44.7148H197.657V36.8321C197.657 34.5219 195.742 33.0031 192.801 33.0031C189.764 33.0031 187.87 34.5326 187.753 36.7573H190.608C190.758 35.9123 191.496 35.3347 192.662 35.3347C193.839 35.3347 194.587 35.9551 194.587 37.0246V37.784L191.699 37.9552C188.844 38.1263 187.239 39.3349 187.239 41.4206C187.239 43.4848 188.897 44.8967 191.079 44.8967ZM192.106 42.6399C191.047 42.6399 190.341 42.1051 190.341 41.2494C190.341 40.4366 191.004 39.9125 192.17 39.8269L194.587 39.6772V40.5114C194.587 41.7521 193.464 42.6399 192.106 42.6399ZM199.486 36.6182C199.486 38.3402 200.609 39.4526 202.823 39.9232L204.78 40.3296C205.903 40.5863 206.299 40.9286 206.299 41.5382C206.299 42.2869 205.572 42.7682 204.395 42.7682C203.155 42.7682 202.438 42.2334 202.245 41.2281H199.197C199.4 43.4848 201.229 44.9608 204.395 44.9608C207.347 44.9608 209.411 43.4741 209.411 41.2174C209.411 39.5381 208.427 38.5969 206.032 38.0942L204.074 37.6771C202.919 37.4311 202.491 37.0353 202.491 36.4471C202.491 35.6877 203.208 35.1957 204.288 35.1957C205.443 35.1957 206.139 35.8267 206.235 36.7573H209.112C209.048 34.5112 207.23 33.0031 204.288 33.0031C201.368 33.0031 199.486 34.4363 199.486 36.6182ZM210.759 36.6182C210.759 38.3402 211.882 39.4526 214.096 39.9232L216.054 40.3296C217.177 40.5863 217.572 40.9286 217.572 41.5382C217.572 42.2869 216.845 42.7682 215.668 42.7682C214.428 42.7682 213.711 42.2334 213.519 41.2281H210.47C210.674 43.4848 212.503 44.9608 215.668 44.9608C218.62 44.9608 220.685 43.4741 220.685 41.2174C220.685 39.5381 219.701 38.5969 217.305 38.0942L215.348 37.6771C214.192 37.4311 213.765 37.0353 213.765 36.4471C213.765 35.6877 214.481 35.1957 215.562 35.1957C216.717 35.1957 217.412 35.8267 217.508 36.7573H220.385C220.321 34.5112 218.503 33.0031 215.562 33.0031C212.642 33.0031 210.759 34.4363 210.759 36.6182ZM238.247 33.2491H235.167L233.423 41.7521H233.359L231.316 33.2491H228.321L226.289 41.7521H226.225L224.492 33.2491H221.348L224.396 44.7148H227.68L229.744 36.6075H229.808L231.883 44.7148H235.209L238.247 33.2491ZM244.558 44.9608C248.023 44.9608 250.237 42.7468 250.237 38.9713C250.237 35.2492 247.991 33.0031 244.558 33.0031C241.124 33.0031 238.878 35.2599 238.878 38.9713C238.878 42.7361 241.092 44.9608 244.558 44.9608ZM244.558 42.5757C243.017 42.5757 242.044 41.2815 242.044 38.982C242.044 36.7038 243.039 35.3882 244.558 35.3882C246.076 35.3882 247.06 36.7038 247.06 38.982C247.06 41.2815 246.087 42.5757 244.558 42.5757ZM251.852 44.7148H254.975V38.3081C254.975 36.6931 255.874 35.7519 257.414 35.7519C257.863 35.7519 258.291 35.8267 258.547 35.9337V33.1849C258.334 33.1207 258.023 33.0672 257.66 33.0672C256.312 33.0672 255.339 33.8587 254.932 35.3133H254.868V33.2491H251.852V44.7148ZM263.703 44.8967C265.393 44.8967 266.719 44.0089 267.275 42.7468H267.329V44.7148H270.409V29.281H267.286V35.2171H267.222C266.665 33.9443 265.382 33.0672 263.724 33.0672C260.847 33.0672 259.029 35.324 259.029 38.9606C259.029 42.6292 260.836 44.8967 263.703 44.8967ZM264.762 35.57C266.313 35.57 267.307 36.8963 267.307 38.982C267.307 41.0783 266.313 42.3832 264.762 42.3832C263.189 42.3832 262.227 41.089 262.227 38.982C262.227 36.8856 263.189 35.57 264.762 35.57Z" fill="#333333"/>
<path d="M42.5096 77.9531H44.1268L39.5747 65.606H38.0516L33.4996 77.9531H35.1167L36.3574 74.4193H41.2689L42.5096 77.9531ZM38.7875 67.4799H38.8388L40.8154 73.1101H36.8109L38.7875 67.4799ZM48.5077 78.1071C49.7912 78.1071 50.8095 77.474 51.3827 76.4472H51.4084V77.9531H52.8288V65.606H51.34V70.5004H51.3057C50.7752 69.5249 49.7484 68.9003 48.4735 68.9003C46.2317 68.9003 44.7001 70.7143 44.7001 73.5037C44.7001 76.2932 46.2403 78.1071 48.5077 78.1071ZM48.7901 70.2094C50.3217 70.2094 51.3485 71.5186 51.3485 73.5037C51.3485 75.4974 50.3217 76.798 48.7901 76.798C47.2157 76.798 46.2231 75.5231 46.2231 73.5037C46.2231 71.4929 47.2157 70.2094 48.7901 70.2094ZM58.2109 78.1071C59.4943 78.1071 60.5126 77.474 61.0859 76.4472H61.1115V77.9531H62.5319V65.606H61.0431V70.5004H61.0089C60.4784 69.5249 59.4516 68.9003 58.1766 68.9003C55.9348 68.9003 54.4032 70.7143 54.4032 73.5037C54.4032 76.2932 55.9434 78.1071 58.2109 78.1071ZM58.4932 70.2094C60.0249 70.2094 61.0516 71.5186 61.0516 73.5037C61.0516 75.4974 60.0249 76.798 58.4932 76.798C56.9188 76.798 55.9263 75.5231 55.9263 73.5037C55.9263 71.4929 56.9188 70.2094 58.4932 70.2094ZM70.7377 78.1071C71.9356 78.1071 73.065 77.4397 73.5955 76.4215H73.6298V77.9531H75.0416V71.801C75.0416 70.0298 73.7239 68.9003 71.6361 68.9003C69.5312 68.9003 68.2135 70.0811 68.1108 71.6213H69.5483C69.7365 70.7485 70.4553 70.2094 71.6019 70.2094C72.834 70.2094 73.5528 70.8597 73.5528 71.9464V72.6908L71.0029 72.8363C68.9493 72.9561 67.7771 73.9144 67.7771 75.4375C67.7771 77.0376 68.9664 78.1071 70.7377 78.1071ZM71.0714 76.8408C70.0018 76.8408 69.2916 76.2846 69.2916 75.4375C69.2916 74.599 69.9761 74.0685 71.174 73.9914L73.5528 73.846V74.5733C73.5528 75.8568 72.4746 76.8408 71.0714 76.8408ZM84.8474 68.9003C83.5554 68.9003 82.52 69.5592 81.9724 70.5603H81.9382V69.0543H80.5263V80.9222H82.0152V76.5071H82.0494C82.5799 77.4825 83.6067 78.1071 84.8816 78.1071C87.1234 78.1071 88.6551 76.2932 88.6551 73.5037C88.6551 70.7143 87.1149 68.9003 84.8474 68.9003ZM84.5565 76.798C83.0334 76.798 82.0066 75.4888 82.0066 73.5037C82.0066 71.5272 83.0334 70.2094 84.5565 70.2094C86.1394 70.2094 87.132 71.4929 87.132 73.5037C87.132 75.5231 86.1394 76.798 84.5565 76.798ZM92.7622 78.1071C93.9601 78.1071 95.0896 77.4397 95.6201 76.4215H95.6543V77.9531H97.0661V71.801C97.0661 70.0298 95.7484 68.9003 93.6606 68.9003C91.5557 68.9003 90.238 70.0811 90.1353 71.6213H91.5728C91.7611 70.7485 92.4798 70.2094 93.6264 70.2094C94.8586 70.2094 95.5773 70.8597 95.5773 71.9464V72.6908L93.0275 72.8363C90.9739 72.9561 89.8016 73.9144 89.8016 75.4375C89.8016 77.0376 90.991 78.1071 92.7622 78.1071ZM93.0959 76.8408C92.0263 76.8408 91.3161 76.2846 91.3161 75.4375C91.3161 74.599 92.0007 74.0685 93.1986 73.9914L95.5773 73.846V74.5733C95.5773 75.8568 94.4992 76.8408 93.0959 76.8408ZM99.7016 81.2816C101.31 81.2816 102.046 80.657 102.808 78.5778L106.307 69.0543H104.741L102.277 76.4643H102.251L99.7871 69.0543H98.1956L101.481 77.9617L101.276 78.5863C100.934 79.6217 100.472 80.0238 99.6417 80.0238C99.4534 80.0238 99.2224 80.0153 99.0598 79.981V81.2303C99.2224 81.2645 99.5219 81.2816 99.7016 81.2816ZM107.479 77.9531H108.968V72.3743C108.968 71.1421 109.824 70.218 111.005 70.218C112.109 70.218 112.827 70.9196 112.827 71.9892V77.9531H114.316V72.2972C114.316 71.0908 115.146 70.218 116.327 70.218C117.499 70.218 118.175 70.9368 118.175 72.1518V77.9531H119.664V71.8095C119.664 70.0469 118.526 68.9003 116.763 68.9003C115.514 68.9003 114.47 69.5335 113.974 70.5945H113.94C113.555 69.5164 112.656 68.9003 111.441 68.9003C110.243 68.9003 109.336 69.5335 108.917 70.4747H108.883V69.0543H107.479V77.9531ZM127.468 75.4033C127.219 76.2418 126.389 76.8151 125.26 76.8151C123.66 76.8151 122.659 75.6942 122.659 73.9914V73.9059H129.042V73.3411C129.042 70.6458 127.562 68.9003 125.157 68.9003C122.702 68.9003 121.127 70.7742 121.127 73.5379C121.127 76.3359 122.676 78.1071 125.226 78.1071C127.168 78.1071 128.674 76.9606 128.931 75.4033H127.468ZM125.132 70.1923C126.535 70.1923 127.468 71.2533 127.502 72.7422H122.667C122.761 71.2619 123.737 70.1923 125.132 70.1923ZM130.548 77.9531H132.037V72.7165C132.037 71.2106 132.952 70.218 134.356 70.218C135.725 70.218 136.401 71.0052 136.401 72.4427V77.9531H137.889V72.1775C137.889 70.1581 136.76 68.9003 134.809 68.9003C133.431 68.9003 132.482 69.5164 131.985 70.4747H131.951V69.0543H130.548V77.9531ZM140.268 66.9066V69.0543H138.942V70.2779H140.268V75.6429C140.268 77.3542 140.901 78.0216 142.536 78.0216C142.886 78.0216 143.297 77.9959 143.477 77.9531V76.7039C143.374 76.721 143.032 76.7467 142.861 76.7467C142.099 76.7467 141.757 76.3787 141.757 75.5658V70.2779H143.485V69.0543H141.757V66.9066H140.268ZM148.671 77.9531H150.16V72.3743C150.16 71.1421 151.015 70.218 152.196 70.218C153.3 70.218 154.019 70.9196 154.019 71.9892V77.9531H155.507V72.2972C155.507 71.0908 156.337 70.218 157.518 70.218C158.69 70.218 159.366 70.9368 159.366 72.1518V77.9531H160.855V71.8095C160.855 70.0469 159.717 68.9003 157.955 68.9003C156.705 68.9003 155.661 69.5335 155.165 70.5945H155.131C154.746 69.5164 153.847 68.9003 152.632 68.9003C151.434 68.9003 150.527 69.5335 150.108 70.4747H150.074V69.0543H148.671V77.9531ZM168.659 75.4033C168.411 76.2418 167.581 76.8151 166.451 76.8151C164.851 76.8151 163.85 75.6942 163.85 73.9914V73.9059H170.233V73.3411C170.233 70.6458 168.753 68.9003 166.349 68.9003C163.893 68.9003 162.318 70.7742 162.318 73.5379C162.318 76.3359 163.867 78.1071 166.417 78.1071C168.359 78.1071 169.865 76.9606 170.122 75.4033H168.659ZM166.323 70.1923C167.726 70.1923 168.659 71.2533 168.693 72.7422H163.859C163.953 71.2619 164.928 70.1923 166.323 70.1923ZM172.218 66.9066V69.0543H170.892V70.2779H172.218V75.6429C172.218 77.3542 172.851 78.0216 174.486 78.0216C174.837 78.0216 175.247 77.9959 175.427 77.9531V76.7039C175.324 76.721 174.982 76.7467 174.811 76.7467C174.049 76.7467 173.707 76.3787 173.707 75.5658V70.2779H175.436V69.0543H173.707V66.9066H172.218ZM177.104 77.9531H178.593V72.7679C178.593 71.2277 179.508 70.218 180.989 70.218C182.383 70.218 183.094 71.0651 183.094 72.4769V77.9531H184.583V72.2031C184.583 70.218 183.402 68.9003 181.451 68.9003C180.099 68.9003 179.123 69.4821 178.627 70.4747H178.593V65.606H177.104V77.9531ZM190.161 78.1071C192.617 78.1071 194.277 76.3359 194.277 73.5037C194.277 70.6629 192.617 68.9003 190.161 68.9003C187.697 68.9003 186.037 70.6629 186.037 73.5037C186.037 76.3359 187.697 78.1071 190.161 78.1071ZM190.161 76.798C188.587 76.798 187.552 75.6001 187.552 73.5037C187.552 71.4074 188.587 70.2094 190.161 70.2094C191.736 70.2094 192.763 71.4074 192.763 73.5037C192.763 75.6001 191.736 76.798 190.161 76.798ZM199.154 78.1071C200.438 78.1071 201.456 77.474 202.029 76.4472H202.055V77.9531H203.475V65.606H201.987V70.5004H201.952C201.422 69.5249 200.395 68.9003 199.12 68.9003C196.878 68.9003 195.347 70.7143 195.347 73.5037C195.347 76.2932 196.887 78.1071 199.154 78.1071ZM199.437 70.2094C200.968 70.2094 201.995 71.5186 201.995 73.5037C201.995 75.4974 200.968 76.798 199.437 76.798C197.862 76.798 196.87 75.5231 196.87 73.5037C196.87 71.4929 197.862 70.2094 199.437 70.2094ZM209.08 77.9531H210.569V72.7165C210.569 71.2106 211.484 70.218 212.888 70.218C214.257 70.218 214.933 71.0052 214.933 72.4427V77.9531H216.421V72.1775C216.421 70.1581 215.292 68.9003 213.341 68.9003C211.963 68.9003 211.014 69.5164 210.517 70.4747H210.483V69.0543H209.08V77.9531ZM222.009 78.1071C224.465 78.1071 226.125 76.3359 226.125 73.5037C226.125 70.6629 224.465 68.9003 222.009 68.9003C219.545 68.9003 217.885 70.6629 217.885 73.5037C217.885 76.3359 219.545 78.1071 222.009 78.1071ZM222.009 76.798C220.434 76.798 219.399 75.6001 219.399 73.5037C219.399 71.4074 220.434 70.2094 222.009 70.2094C223.583 70.2094 224.61 71.4074 224.61 73.5037C224.61 75.6001 223.583 76.798 222.009 76.798ZM238.951 69.0543H237.479L235.699 76.2932H235.665L233.646 69.0543H232.208L230.197 76.2932H230.163L228.383 69.0543H226.903L229.393 77.9531H230.908L232.91 71.0651H232.944L234.955 77.9531H236.469L238.951 69.0543ZM244.247 66.9066V69.0543H242.921V70.2779H244.247V75.6429C244.247 77.3542 244.881 78.0216 246.515 78.0216C246.866 78.0216 247.276 77.9959 247.456 77.9531V76.7039C247.353 76.721 247.011 76.7467 246.84 76.7467C246.078 76.7467 245.736 76.3787 245.736 75.5658V70.2779H247.465V69.0543H245.736V66.9066H244.247ZM252.487 78.1071C254.943 78.1071 256.603 76.3359 256.603 73.5037C256.603 70.6629 254.943 68.9003 252.487 68.9003C250.023 68.9003 248.363 70.6629 248.363 73.5037C248.363 76.3359 250.023 78.1071 252.487 78.1071ZM252.487 76.798C250.913 76.798 249.878 75.6001 249.878 73.5037C249.878 71.4074 250.913 70.2094 252.487 70.2094C254.062 70.2094 255.088 71.4074 255.088 73.5037C255.088 75.6001 254.062 76.798 252.487 76.798ZM35.8184 97.599L36.6484 96.8118L39.9512 100.953H41.6796L37.7008 95.8962L41.5598 92.0543H39.7544L35.8184 96.0074V88.606H34.3295V100.953H35.8184V97.599ZM48.2339 98.4033C47.9858 99.2418 47.1558 99.8151 46.0263 99.8151C44.4263 99.8151 43.4252 98.6942 43.4252 96.9914V96.9059H49.8083V96.3411C49.8083 93.6458 48.3281 91.9003 45.9237 91.9003C43.4679 91.9003 41.8935 93.7742 41.8935 96.5379C41.8935 99.3359 43.4423 101.107 45.9921 101.107C47.9345 101.107 49.4404 99.9606 49.6971 98.4033H48.2339ZM45.898 93.1923C47.3013 93.1923 48.2339 94.2533 48.2682 95.7422H43.4337C43.5278 94.2619 44.5033 93.1923 45.898 93.1923ZM57.2183 98.4033C56.9702 99.2418 56.1402 99.8151 55.0107 99.8151C53.4106 99.8151 52.4095 98.6942 52.4095 96.9914V96.9059H58.7927V96.3411C58.7927 93.6458 57.3124 91.9003 54.908 91.9003C52.4523 91.9003 50.8779 93.7742 50.8779 96.5379C50.8779 99.3359 52.4266 101.107 54.9765 101.107C56.9188 101.107 58.4248 99.9606 58.6815 98.4033H57.2183ZM54.8824 93.1923C56.2856 93.1923 57.2183 94.2533 57.2525 95.7422H52.4181C52.5122 94.2619 53.4877 93.1923 54.8824 93.1923ZM64.6197 91.9003C63.3277 91.9003 62.2923 92.5592 61.7447 93.5603H61.7105V92.0543H60.2987V103.922H61.7875V99.5071H61.8217C62.3522 100.483 63.379 101.107 64.6539 101.107C66.8958 101.107 68.4274 99.2932 68.4274 96.5037C68.4274 93.7143 66.8872 91.9003 64.6197 91.9003ZM64.3288 99.798C62.8057 99.798 61.7789 98.4888 61.7789 96.5037C61.7789 94.5272 62.8057 93.2094 64.3288 93.2094C65.9118 93.2094 66.9043 94.4929 66.9043 96.5037C66.9043 98.5231 65.9118 99.798 64.3288 99.798ZM80.8344 92.0543H79.3455V97.2824C79.3455 98.7969 78.4728 99.7894 77.0267 99.7894C75.6491 99.7894 74.9731 99.0108 74.9731 97.5647V92.0543H73.4843V97.83C73.4843 99.8493 74.6223 101.107 76.5647 101.107C77.9337 101.107 78.8578 100.534 79.3883 99.5071H79.4225V100.953H80.8344V92.0543ZM82.6141 94.51C82.6141 95.7935 83.427 96.5722 85.1041 96.9743L86.5159 97.3166C87.5342 97.5647 87.885 97.9327 87.885 98.5744C87.885 99.3787 87.1406 99.8921 85.9341 99.8921C84.7276 99.8921 84.0431 99.4044 83.8634 98.3862H82.3746C82.5457 100.055 83.8463 101.107 85.9341 101.107C87.9192 101.107 89.3824 100.012 89.3824 98.4632C89.3824 97.1882 88.7321 96.4866 86.9352 96.0502L85.5234 95.708C84.5308 95.4684 84.0773 95.0491 84.0773 94.433C84.0773 93.6544 84.7961 93.1153 85.8827 93.1153C86.978 93.1153 87.6625 93.6886 87.7737 94.6213H89.1941C89.1342 93.0469 87.8336 91.9003 85.8827 91.9003C83.9575 91.9003 82.6141 92.987 82.6141 94.51ZM91.7525 90.4714C92.2745 90.4714 92.6852 90.0521 92.6852 89.5387C92.6852 89.0167 92.2745 88.606 91.7525 88.606C91.2391 88.606 90.8199 89.0167 90.8199 89.5387C90.8199 90.0521 91.2391 90.4714 91.7525 90.4714ZM91.0081 100.953H92.497V92.0543H91.0081V100.953ZM94.5077 100.953H95.9966V95.7165C95.9966 94.2106 96.9121 93.218 98.3154 93.218C99.6845 93.218 100.36 94.0052 100.36 95.4427V100.953H101.849V95.1775C101.849 93.1581 100.72 91.9003 98.7689 91.9003C97.3913 91.9003 96.4415 92.5164 95.9452 93.4747H95.911V92.0543H94.5077V100.953ZM107.42 104.307C109.875 104.307 111.441 102.895 111.441 100.773V92.0543H110.021V93.5517H109.995C109.405 92.5164 108.361 91.9003 107.103 91.9003C104.801 91.9003 103.312 93.6801 103.312 96.4695C103.312 99.2333 104.801 101.022 107.069 101.022C108.318 101.022 109.37 100.388 109.918 99.4215H109.952V100.825C109.952 102.151 109.02 103.041 107.479 103.041C106.367 103.041 105.486 102.502 105.195 101.689H103.663C103.911 103.203 105.46 104.307 107.42 104.307ZM107.368 99.7124C105.837 99.7124 104.835 98.4632 104.835 96.4695C104.835 94.4758 105.837 93.2094 107.368 93.2094C108.917 93.2094 109.952 94.51 109.952 96.4695C109.952 98.4289 108.917 99.7124 107.368 99.7124ZM120.16 100.953H121.649V88.606H120.143L116.857 90.9676V92.5164L120.126 90.2403H120.16V100.953ZM124.978 88.606V100.953H126.518V96.5465H129.367C131.686 96.5465 133.337 94.9122 133.337 92.5677C133.337 90.2318 131.703 88.606 129.384 88.606H124.978ZM126.518 89.9751H128.982C130.753 89.9751 131.754 90.9334 131.754 92.5677C131.754 94.2106 130.745 95.1775 128.982 95.1775H126.518V89.9751ZM136.709 101.107C137.907 101.107 139.036 100.44 139.567 99.4215H139.601V100.953H141.013V94.801C141.013 93.0298 139.695 91.9003 137.607 91.9003C135.502 91.9003 134.184 93.0811 134.082 94.6213H135.519C135.708 93.7485 136.426 93.2094 137.573 93.2094C138.805 93.2094 139.524 93.8597 139.524 94.9464V95.6908L136.974 95.8363C134.92 95.9561 133.748 96.9144 133.748 98.4375C133.748 100.038 134.937 101.107 136.709 101.107ZM137.042 99.8408C135.973 99.8408 135.263 99.2846 135.263 98.4375C135.263 97.599 135.947 97.0685 137.145 96.9914L139.524 96.846V97.5733C139.524 98.8568 138.446 99.8408 137.042 99.8408ZM142.75 94.51C142.75 95.7935 143.562 96.5722 145.24 96.9743L146.651 97.3166C147.67 97.5647 148.02 97.9327 148.02 98.5744C148.02 99.3787 147.276 99.8921 146.069 99.8921C144.863 99.8921 144.178 99.4044 143.999 98.3862H142.51C142.681 100.055 143.982 101.107 146.069 101.107C148.055 101.107 149.518 100.012 149.518 98.4632C149.518 97.1882 148.867 96.4866 147.071 96.0502L145.659 95.708C144.666 95.4684 144.213 95.0491 144.213 94.433C144.213 93.6544 144.931 93.1153 146.018 93.1153C147.113 93.1153 147.798 93.6886 147.909 94.6213H149.33C149.27 93.0469 147.969 91.9003 146.018 91.9003C144.093 91.9003 142.75 92.987 142.75 94.51ZM150.913 94.51C150.913 95.7935 151.725 96.5722 153.402 96.9743L154.814 97.3166C155.833 97.5647 156.183 97.9327 156.183 98.5744C156.183 99.3787 155.439 99.8921 154.232 99.8921C153.026 99.8921 152.341 99.4044 152.162 98.3862H150.673C150.844 100.055 152.145 101.107 154.232 101.107C156.218 101.107 157.681 100.012 157.681 98.4632C157.681 97.1882 157.03 96.4866 155.234 96.0502L153.822 95.708C152.829 95.4684 152.376 95.0491 152.376 94.433C152.376 93.6544 153.094 93.1153 154.181 93.1153C155.276 93.1153 155.961 93.6886 156.072 94.6213H157.492C157.433 93.0469 156.132 91.9003 154.181 91.9003C152.256 91.9003 150.913 92.987 150.913 94.51ZM170.55 92.0543H169.078L167.298 99.2932H167.264L165.245 92.0543H163.807L161.796 99.2932H161.762L159.982 92.0543H158.502L160.992 100.953H162.507L164.509 94.0651H164.543L166.554 100.953H168.068L170.55 92.0543ZM175.461 101.107C177.917 101.107 179.577 99.3359 179.577 96.5037C179.577 93.6629 177.917 91.9003 175.461 91.9003C172.997 91.9003 171.337 93.6629 171.337 96.5037C171.337 99.3359 172.997 101.107 175.461 101.107ZM175.461 99.798C173.887 99.798 172.851 98.6001 172.851 96.5037C172.851 94.4074 173.887 93.2094 175.461 93.2094C177.036 93.2094 178.062 94.4074 178.062 96.5037C178.062 98.6001 177.036 99.798 175.461 99.798ZM181.083 100.953H182.572V95.4085C182.572 94.1507 183.325 93.3207 184.48 93.3207C184.839 93.3207 185.156 93.3635 185.276 93.4063V91.9602C185.156 91.9431 184.933 91.9003 184.677 91.9003C183.633 91.9003 182.811 92.5249 182.52 93.5089H182.486V92.0543H181.083V100.953ZM189.434 101.107C190.718 101.107 191.736 100.474 192.309 99.4472H192.335V100.953H193.755V88.606H192.266V93.5004H192.232C191.702 92.5249 190.675 91.9003 189.4 91.9003C187.158 91.9003 185.626 93.7143 185.626 96.5037C185.626 99.2932 187.167 101.107 189.434 101.107ZM189.716 93.2094C191.248 93.2094 192.275 94.5186 192.275 96.5037C192.275 98.4974 191.248 99.798 189.716 99.798C188.142 99.798 187.149 98.5231 187.149 96.5037C187.149 94.4929 188.142 93.2094 189.716 93.2094ZM210.68 92.0543H209.208L207.429 99.2932H207.394L205.375 92.0543H203.937L201.927 99.2932H201.892L200.113 92.0543H198.632L201.122 100.953H202.637L204.639 94.0651H204.673L206.684 100.953H208.199L210.68 92.0543ZM212.725 90.4714C213.247 90.4714 213.658 90.0521 213.658 89.5387C213.658 89.0167 213.247 88.606 212.725 88.606C212.212 88.606 211.792 89.0167 211.792 89.5387C211.792 90.0521 212.212 90.4714 212.725 90.4714ZM211.981 100.953H213.469V92.0543H211.981V100.953ZM215.959 89.9066V92.0543H214.633V93.2779H215.959V98.6429C215.959 100.354 216.593 101.022 218.227 101.022C218.578 101.022 218.988 100.996 219.168 100.953V99.7039C219.065 99.721 218.723 99.7467 218.552 99.7467C217.79 99.7467 217.448 99.3787 217.448 98.5658V93.2779H219.177V92.0543H217.448V89.9066H215.959ZM220.845 100.953H222.334V95.7679C222.334 94.2277 223.25 93.218 224.73 93.218C226.125 93.218 226.835 94.0651 226.835 95.4769V100.953H228.324V95.2031C228.324 93.218 227.143 91.9003 225.192 91.9003C223.84 91.9003 222.865 92.4821 222.368 93.4747H222.334V88.606H220.845V100.953ZM233.902 101.107C236.358 101.107 238.018 99.3359 238.018 96.5037C238.018 93.6629 236.358 91.9003 233.902 91.9003C231.438 91.9003 229.778 93.6629 229.778 96.5037C229.778 99.3359 231.438 101.107 233.902 101.107ZM233.902 99.798C232.328 99.798 231.293 98.6001 231.293 96.5037C231.293 94.4074 232.328 93.2094 233.902 93.2094C235.477 93.2094 236.504 94.4074 236.504 96.5037C236.504 98.6001 235.477 99.798 233.902 99.798ZM246.831 92.0543H245.343V97.2824C245.343 98.7969 244.47 99.7894 243.024 99.7894C241.646 99.7894 240.97 99.0108 240.97 97.5647V92.0543H239.481V97.83C239.481 99.8493 240.619 101.107 242.562 101.107C243.931 101.107 244.855 100.534 245.385 99.5071H245.42V100.953H246.831V92.0543ZM249.244 89.9066V92.0543H247.918V93.2779H249.244V98.6429C249.244 100.354 249.878 101.022 251.512 101.022C251.863 101.022 252.273 100.996 252.453 100.953V99.7039C252.35 99.721 252.008 99.7467 251.837 99.7467C251.075 99.7467 250.733 99.3787 250.733 98.5658V93.2779H252.462V92.0543H250.733V89.9066H249.244ZM35.074 113.471C35.5959 113.471 36.0066 113.052 36.0066 112.539C36.0066 112.017 35.5959 111.606 35.074 111.606C34.5606 111.606 34.1413 112.017 34.1413 112.539C34.1413 113.052 34.5606 113.471 35.074 113.471ZM34.3295 123.953H35.8184V115.054H34.3295V123.953ZM37.8292 123.953H39.318V118.717C39.318 117.211 40.2336 116.218 41.6368 116.218C43.0059 116.218 43.6818 117.005 43.6818 118.443V123.953H45.1707V118.177C45.1707 116.158 44.0412 114.9 42.0903 114.9C40.7127 114.9 39.763 115.516 39.2667 116.475H39.2324V115.054H37.8292V123.953ZM47.5494 112.907V115.054H46.2231V116.278H47.5494V121.643C47.5494 123.354 48.1826 124.022 49.8169 124.022C50.1677 124.022 50.5784 123.996 50.7581 123.953V122.704C50.6554 122.721 50.3132 122.747 50.142 122.747C49.3805 122.747 49.0382 122.379 49.0382 121.566V116.278H50.7667V115.054H49.0382V112.907H47.5494ZM58.0055 121.403C57.7574 122.242 56.9274 122.815 55.7979 122.815C54.1978 122.815 53.1967 121.694 53.1967 119.991V119.906H59.5799V119.341C59.5799 116.646 58.0996 114.9 55.6952 114.9C53.2395 114.9 51.6651 116.774 51.6651 119.538C51.6651 122.336 53.2138 124.107 55.7637 124.107C57.706 124.107 59.212 122.961 59.4687 121.403H58.0055ZM55.6696 116.192C57.0728 116.192 58.0055 117.253 58.0397 118.742H53.2053C53.2994 117.262 54.2749 116.192 55.6696 116.192ZM61.0859 123.953H62.5747V118.408C62.5747 117.151 63.3277 116.321 64.4828 116.321C64.8422 116.321 65.1588 116.363 65.2786 116.406V114.96C65.1588 114.943 64.9363 114.9 64.6796 114.9C63.6357 114.9 62.8143 115.525 62.5234 116.509H62.4891V115.054H61.0859V123.953ZM66.4936 123.953H67.9824V118.408C67.9824 117.151 68.7354 116.321 69.8906 116.321C70.2499 116.321 70.5665 116.363 70.6863 116.406V114.96C70.5665 114.943 70.3441 114.9 70.0874 114.9C69.0435 114.9 68.222 115.525 67.9311 116.509H67.8969V115.054H66.4936V123.953ZM79.2086 115.054H77.7198V120.282C77.7198 121.797 76.847 122.789 75.401 122.789C74.0234 122.789 73.3474 122.011 73.3474 120.565V115.054H71.8586V120.83C71.8586 122.849 72.9966 124.107 74.9389 124.107C76.308 124.107 77.2321 123.534 77.7626 122.507H77.7968V123.953H79.2086V115.054ZM85.4635 114.9C84.1714 114.9 83.1361 115.559 82.5885 116.56H82.5542V115.054H81.1424V126.922H82.6313V122.507H82.6655C83.196 123.483 84.2228 124.107 85.4977 124.107C87.7395 124.107 89.2711 122.293 89.2711 119.504C89.2711 116.714 87.731 114.9 85.4635 114.9ZM85.1725 122.798C83.6495 122.798 82.6227 121.489 82.6227 119.504C82.6227 117.527 83.6495 116.209 85.1725 116.209C86.7555 116.209 87.7481 117.493 87.7481 119.504C87.7481 121.523 86.7555 122.798 85.1725 122.798ZM91.2563 112.907V115.054H89.93V116.278H91.2563V121.643C91.2563 123.354 91.8894 124.022 93.5237 124.022C93.8746 124.022 94.2853 123.996 94.465 123.953V122.704C94.3623 122.721 94.02 122.747 93.8489 122.747C93.0874 122.747 92.7451 122.379 92.7451 121.566V116.278H94.4735V115.054H92.7451V112.907H91.2563ZM96.8865 113.471C97.4084 113.471 97.8191 113.052 97.8191 112.539C97.8191 112.017 97.4084 111.606 96.8865 111.606C96.3731 111.606 95.9538 112.017 95.9538 112.539C95.9538 113.052 96.3731 113.471 96.8865 113.471ZM96.142 123.953H97.6309V115.054H96.142V123.953ZM103.33 124.107C105.785 124.107 107.445 122.336 107.445 119.504C107.445 116.663 105.785 114.9 103.33 114.9C100.865 114.9 99.2053 116.663 99.2053 119.504C99.2053 122.336 100.865 124.107 103.33 124.107ZM103.33 122.798C101.755 122.798 100.72 121.6 100.72 119.504C100.72 117.407 101.755 116.209 103.33 116.209C104.904 116.209 105.931 117.407 105.931 119.504C105.931 121.6 104.904 122.798 103.33 122.798ZM108.951 123.953H110.44V118.717C110.44 117.211 111.356 116.218 112.759 116.218C114.128 116.218 114.804 117.005 114.804 118.443V123.953H116.293V118.177C116.293 116.158 115.163 114.9 113.212 114.9C111.835 114.9 110.885 115.516 110.389 116.475H110.354V115.054H108.951V123.953ZM121.863 123.953H123.352V111.606H121.863V123.953ZM127.964 124.107C129.162 124.107 130.291 123.44 130.822 122.422H130.856V123.953H132.268V117.801C132.268 116.03 130.95 114.9 128.862 114.9C126.757 114.9 125.44 116.081 125.337 117.621H126.774C126.963 116.749 127.681 116.209 128.828 116.209C130.06 116.209 130.779 116.86 130.779 117.946V118.691L128.229 118.836C126.176 118.956 125.003 119.914 125.003 121.438C125.003 123.038 126.193 124.107 127.964 124.107ZM128.298 122.841C127.228 122.841 126.518 122.285 126.518 121.438C126.518 120.599 127.202 120.068 128.4 119.991L130.779 119.846V120.573C130.779 121.857 129.701 122.841 128.298 122.841ZM134.638 112.907V115.054H133.312V116.278H134.638V121.643C134.638 123.354 135.271 124.022 136.905 124.022C137.256 124.022 137.667 123.996 137.847 123.953V122.704C137.744 122.721 137.402 122.747 137.231 122.747C136.469 122.747 136.127 122.379 136.127 121.566V116.278H137.855V115.054H136.127V112.907H134.638ZM145.094 121.403C144.846 122.242 144.016 122.815 142.886 122.815C141.286 122.815 140.285 121.694 140.285 119.991V119.906H146.668V119.341C146.668 116.646 145.188 114.9 142.784 114.9C140.328 114.9 138.754 116.774 138.754 119.538C138.754 122.336 140.302 124.107 142.852 124.107C144.795 124.107 146.301 122.961 146.557 121.403H145.094ZM142.758 116.192C144.161 116.192 145.094 117.253 145.128 118.742H140.294C140.388 117.262 141.363 116.192 142.758 116.192ZM148.174 123.953H149.663V118.408C149.663 117.151 150.416 116.321 151.571 116.321C151.931 116.321 152.247 116.363 152.367 116.406V114.96C152.247 114.943 152.025 114.9 151.768 114.9C150.724 114.9 149.903 115.525 149.612 116.509H149.578V115.054H148.174V123.953ZM153.984 124.039C154.532 124.039 154.96 123.611 154.96 123.063C154.96 122.516 154.532 122.088 153.984 122.088C153.437 122.088 153.009 122.516 153.009 123.063C153.009 123.611 153.437 124.039 153.984 124.039Z" fill="#333333"/>
<rect x="33.2856" y="182.619" width="258.476" height="1.09524" fill="#D7D9E0"/>
<path d="M33.8589 215.79C33.9616 218.049 35.8526 219.444 38.7105 219.444C41.6796 219.444 43.5364 217.955 43.5364 215.593C43.5364 213.762 42.4497 212.718 39.8485 212.179L38.5137 211.905C36.9735 211.58 36.3574 211.041 36.3574 210.203C36.3574 209.167 37.3329 208.517 38.7019 208.517C40.1138 208.517 41.0892 209.219 41.1919 210.382H43.3054C43.254 208.175 41.4486 206.686 38.7191 206.686C36.0409 206.686 34.1327 208.158 34.1327 210.331C34.1327 212.136 35.2879 213.3 37.7607 213.805L39.087 214.079C40.6956 214.412 41.3117 214.96 41.3117 215.85C41.3117 216.877 40.2763 217.613 38.7875 217.613C37.2473 217.613 36.135 216.928 35.9724 215.79H33.8589ZM53.017 210.168H50.8865V215.414C50.8865 216.731 50.1249 217.604 48.8928 217.604C47.6949 217.604 47.0617 216.902 47.0617 215.602V210.168H44.9311V216.03C44.9311 218.126 46.1804 219.401 48.1484 219.401C49.526 219.401 50.4415 218.768 50.9207 217.664H50.9635V219.238H53.017V210.168ZM59.8366 219.384C62.1298 219.384 63.5758 217.604 63.5758 214.703C63.5758 211.803 62.1212 210.014 59.8366 210.014C58.5531 210.014 57.5178 210.665 57.0044 211.726H56.9531V206.891H54.8225V219.238H56.9103V217.69H56.9531C57.4836 218.742 58.5018 219.384 59.8366 219.384ZM59.1778 211.768C60.5382 211.768 61.3939 212.906 61.3939 214.703C61.3939 216.509 60.5468 217.638 59.1778 217.638C57.8601 217.638 56.9445 216.483 56.9445 214.703C56.9445 212.941 57.8601 211.768 59.1778 211.768ZM64.7994 212.77C64.7994 214.113 65.6722 214.969 67.4092 215.354L68.9151 215.687C69.8649 215.901 70.19 216.209 70.19 216.757C70.19 217.433 69.5483 217.861 68.513 217.861C67.4348 217.861 66.8273 217.416 66.6647 216.534H64.5684C64.7395 218.289 66.1428 219.418 68.513 219.418C70.7377 219.418 72.3121 218.263 72.3121 216.552C72.3121 215.234 71.5848 214.507 69.7023 214.087L68.1964 213.754C67.2466 213.54 66.8701 213.18 66.8701 212.658C66.8701 211.991 67.4947 211.546 68.4359 211.546C69.4199 211.546 70.0275 212.068 70.113 212.889H72.0981C72.0468 211.169 70.6435 209.98 68.4359 209.98C66.2455 209.98 64.7994 211.11 64.7994 212.77ZM81.6644 213.403C81.5189 211.495 80.0386 209.98 77.6428 209.98C75.0074 209.98 73.2961 211.803 73.2961 214.703C73.2961 217.647 75.0074 219.418 77.6599 219.418C79.9359 219.418 81.5018 218.083 81.6729 216.055H79.6621C79.4653 217.082 78.7637 217.698 77.6856 217.698C76.3336 217.698 75.4609 216.603 75.4609 214.703C75.4609 212.838 76.3251 211.709 77.6685 211.709C78.8065 211.709 79.4824 212.436 79.6536 213.403H81.6644ZM82.9478 219.238H85.0784V213.959C85.0784 212.684 85.8057 211.905 87.0122 211.905C87.3716 211.905 87.6967 211.957 87.8764 212.025V210.1C87.7224 210.066 87.4828 210.014 87.209 210.014C86.1394 210.014 85.3437 210.648 85.0356 211.751H84.9929V210.168H82.9478V219.238ZM90.084 208.799C90.7343 208.799 91.2477 208.277 91.2477 207.644C91.2477 207.002 90.7343 206.489 90.084 206.489C89.4337 206.489 88.9118 207.002 88.9118 207.644C88.9118 208.277 89.4337 208.799 90.084 208.799ZM89.023 219.238H91.1536V210.168H89.023V219.238ZM98.0159 219.384C100.309 219.384 101.755 217.604 101.755 214.703C101.755 211.803 100.301 210.014 98.0159 210.014C96.7324 210.014 95.6971 210.665 95.1837 211.726H95.1324V206.891H93.0018V219.238H95.0896V217.69H95.1324C95.6629 218.742 96.6811 219.384 98.0159 219.384ZM97.3571 211.768C98.7176 211.768 99.5732 212.906 99.5732 214.703C99.5732 216.509 98.7261 217.638 97.3571 217.638C96.0394 217.638 95.1238 216.483 95.1238 214.703C95.1238 212.941 96.0394 211.768 97.3571 211.768ZM109.148 216.526C108.917 217.279 108.164 217.775 107.171 217.775C105.777 217.775 104.887 216.8 104.887 215.345V215.217H111.227V214.524C111.227 211.768 109.619 209.98 107.043 209.98C104.425 209.98 102.765 211.871 102.765 214.738C102.765 217.63 104.408 219.418 107.129 219.418C109.276 219.418 110.868 218.237 111.142 216.526H109.148ZM107.052 211.632C108.275 211.632 109.097 212.53 109.139 213.813H104.904C104.99 212.547 105.854 211.632 107.052 211.632Z" fill="#0364D3"/>
<path d="M121.726 218.555C121.278 218.124 121.277 217.407 121.725 216.976L126.127 212.738L121.725 208.501C121.277 208.07 121.278 207.353 121.726 206.922L121.754 206.896C122.178 206.489 122.847 206.489 123.271 206.896L128.531 211.949C128.98 212.38 128.98 213.097 128.531 213.528L123.271 218.581C122.847 218.988 122.178 218.988 121.754 218.581L121.726 218.555Z" fill="#0364D3"/>
<rect width="131.429" height="236.571" transform="translate(335.571 5.19043)" fill="#FDF8FF"/>
<rect width="121.093" height="88.3872" rx="7.66667" transform="matrix(-0.970463 -0.241251 -0.241251 0.970463 499.962 80.0879)" stroke="#502160" stroke-width="2.19048" stroke-miterlimit="10"/>
<rect x="-1.32711" y="0.798661" width="57.0989" height="12.1817" rx="3.28571" transform="matrix(-0.970463 -0.241251 -0.241251 0.970463 481.68 93.6448)" stroke="#502160" stroke-width="2.19048" stroke-miterlimit="10"/>
<path d="M351.159 169.211L408.118 161.481L415.622 160.433C418.432 160.032 420.475 157.731 420.731 155.02C420.723 154.6 420.753 154.241 420.707 153.76L416.322 121.399C415.913 118.17 412.879 115.906 409.688 116.376L345.163 125.192C341.934 125.6 339.67 128.635 340.14 131.826L344.525 164.187C344.995 167.378 347.968 169.68 351.159 169.211Z" fill="#F5F5F5" stroke="#502160" stroke-width="2.19048" stroke-miterlimit="10"/>
<path fill-rule="evenodd" clip-rule="evenodd" d="M406.817 156.133L351.224 163.678C348.109 164.136 345.208 161.889 344.749 158.775L341.045 131.438C341.053 131.526 341.064 131.614 341.077 131.702L345.357 163.287C345.459 166.515 347.757 168.97 351.832 168.19L407.425 160.646L414.75 159.623C418.391 159.345 420.056 156.686 419.856 154.168C419.852 153.94 419.822 153.784 419.788 153.609C419.761 153.47 419.732 153.319 419.712 153.111L419.11 148.668C419.134 148.95 419.131 149.191 419.128 149.431C419.127 149.561 419.125 149.691 419.128 149.828C418.878 152.474 416.883 154.719 414.141 155.11L406.817 156.133Z" fill="#CDA5DC"/>
<path d="M340.055 133.961L417.068 123.494L418.387 133.201L341.374 143.668L340.055 133.961Z" fill="#502160"/>
<rect width="20.2749" height="14.3722" rx="3.28571" transform="matrix(-0.970463 -0.241251 -0.241251 0.970463 471.566 137.201)" fill="#CDA5DC"/>
<rect width="94.8422" height="14.3722" rx="4.38095" transform="matrix(-0.970463 -0.241251 -0.241251 0.970463 478.208 114.828)" fill="#733C86"/>
<path d="M471.079 120.459L457.451 117.071" stroke="#F5F5F5" stroke-width="2.19048" stroke-miterlimit="10" stroke-linecap="round"/>
<path d="M449.627 115.126L435.999 111.738" stroke="#F5F5F5" stroke-width="2.19048" stroke-miterlimit="10" stroke-linecap="round"/>
<path d="M428.172 109.791L414.544 106.403" stroke="#F5F5F5" stroke-width="2.19048" stroke-miterlimit="10" stroke-linecap="round"/>
<path d="M406.72 104.459L393.092 101.071" stroke="#F5F5F5" stroke-width="2.19048" stroke-miterlimit="10" stroke-linecap="round"/>
<path d="M413.79 146.15L403.287 147.485" stroke="#502160" stroke-width="2.19048" stroke-miterlimit="10" stroke-linecap="round"/>
<path d="M397.257 148.262L386.755 149.603" stroke="#502160" stroke-width="2.19048" stroke-miterlimit="10" stroke-linecap="round"/>
<path d="M380.724 150.373L370.222 151.714" stroke="#502160" stroke-width="2.19048" stroke-miterlimit="10" stroke-linecap="round"/>
<path d="M364.192 152.484L353.69 153.826" stroke="#502160" stroke-width="2.19048" stroke-miterlimit="10" stroke-linecap="round"/>
<path d="M432.98 154.596L417.006 120.679L420.025 151.779L432.98 154.596Z" fill="#502160"/>
<path d="M328.678 126.84C330.802 116.614 340.814 110.046 351.041 112.171" stroke="#502160" stroke-width="2.19048" stroke-miterlimit="10" stroke-linecap="round"/>
<path d="M317.316 121.929C320.644 105.909 336.329 95.62 352.35 98.9482" stroke="#502160" stroke-width="2.19048" stroke-miterlimit="10" stroke-linecap="round"/>
</g>
<rect x="7.54762" y="5.73805" width="458.905" height="235.476" rx="8.21429" stroke="#D7D9E0" stroke-width="1.09524"/>
</g>
<defs>
<filter id="filter0_d_40_17632" x="0.428571" y="0.809477" width="473.143" height="249.714" filterUnits="userSpaceOnUse" color-interpolation-filters="sRGB">
<feFlood flood-opacity="0" result="BackgroundImageFix"/>
<feColorMatrix in="SourceAlpha" type="matrix" values="0 0 0 0 0 0 0 0 0 0 0 0 0 0 0 0 0 0 127 0" result="hardAlpha"/>
<feOffset dy="2.19048"/>
<feGaussianBlur stdDeviation="3.28571"/>
<feColorMatrix type="matrix" values="0 0 0 0 0 0 0 0 0 0 0 0 0 0 0 0 0 0 0.05 0"/>
<feBlend mode="normal" in2="BackgroundImageFix" result="effect1_dropShadow_40_17632"/>
<feBlend mode="normal" in="SourceGraphic" in2="effect1_dropShadow_40_17632" result="shape"/>
</filter>
<clipPath id="clip0_40_17632">
<rect x="7" y="5.19043" width="460" height="236.571" rx="8.7619" fill="white"/>
</clipPath>
</defs>
</svg>
