<?xml version="1.0" standalone="no"?>
<!DOCTYPE svg PUBLIC "-//W3C//DTD SVG 20010904//EN"
 "http://www.w3.org/TR/2001/REC-SVG-20010904/DTD/svg10.dtd">
<svg version="1.0" xmlns="http://www.w3.org/2000/svg"
 width="500.000000pt" height="500.000000pt" viewBox="0 0 500.000000 500.000000"
 preserveAspectRatio="xMidYMid meet">
<metadata>
Created by potrace 1.11, written by Peter Selinger 2001-2013
</metadata>
<g transform="translate(0.000000,500.000000) scale(0.100000,-0.100000)"
fill="#000000" stroke="none">
<path d="M400 4600 l-400 -400 845 -845 c465 -465 845 -849 845 -855 0 -6
-380 -390 -845 -855 l-845 -845 400 -400 400 -400 845 845 c465 465 849 845
855 845 6 0 390 -380 855 -845 l845 -845 400 400 400 400 -850 850 -850 850
850 850 850 850 -400 400 -400 400 -850 -850 -850 -850 -850 850 -850 850
-400 -400z"/>
</g>
</svg>
