<svg width="200" height="232" viewBox="0 0 200 232" fill="none" xmlns="http://www.w3.org/2000/svg">
<g clip-path="url(#clip0_63_17743)">
<rect y="32" width="200" height="200" rx="100" fill="#F1D4D4"/>
<path fill-rule="evenodd" clip-rule="evenodd" d="M7.28188 285.312C39.1381 290.141 71.5721 290.384 103.693 288.63C116.405 287.681 129.156 287.51 141.858 288.724C149.364 289.281 182.273 291.791 184.961 285.083C183.269 249.363 179.842 213.339 169.328 178.986C165.003 166.788 161.29 156.664 152.85 146.569C150.191 143.813 144.455 138.033 141.168 136.148C138.32 134.515 137.13 135.098 135.495 132.34C133.87 129.293 132.672 124.204 130.365 122.054C128.016 119.865 124.535 120.648 120.22 121.353C121.013 110.664 116.068 107.942 109.257 105.909C97.283 101.349 85.4578 103.64 82.4442 118.185C76.8564 118.185 73.7176 120.584 70.3243 122.89C68.9372 123.832 69.9022 126.233 68.2453 126.974C65.1799 128.063 59.7628 127.796 56.8113 129.137C43.3896 135.232 31.4353 144.07 23.5846 156.978C5.98438 184.538 -6.10564 242.591 -4.01352 275.255C-4.93015 276.689 -3.6626 278.746 -3.34042 280.289C-2.93373 281.63 -1.61675 282.523 -0.2423 282.37C1.6757 284.428 4.64232 284.886 7.28188 285.312Z" fill="white"/>
<path fill-rule="evenodd" clip-rule="evenodd" d="M139.14 135.34C138.944 135.231 139.116 134.952 139.313 135.044C148.76 139.467 156.008 147.226 161.107 156.191C166.388 165.474 169.398 176.013 171.992 186.314L172.086 186.686C174.853 197.706 177.205 208.84 179.323 220C181.468 231.303 183.19 242.675 184.575 254.094C185.26 259.74 185.871 265.396 186.348 271.064C186.586 273.896 186.802 276.73 186.996 279.566C187.074 280.7 187.147 281.834 187.21 282.969L187.255 283.82C187.293 284.593 187.385 285.367 187.194 286.129C187.029 286.785 186.681 287.38 186.374 287.983C185.768 289.175 184.106 288.978 183.453 287.983L183.263 287.693C182.83 287.025 182.47 286.404 182.334 285.573C182.203 284.768 182.198 283.924 182.139 283.111C182.03 281.615 181.938 280.117 181.833 278.621C181.611 275.47 181.363 272.322 181.088 269.176C180.544 262.965 179.96 256.76 179.244 250.566C177.97 239.558 176.373 228.58 174.489 217.66C172.649 206.993 170.322 196.433 167.895 185.887L167.643 184.797C163.393 166.384 156.843 145.18 139.14 135.34ZM38.5106 207.439C38.5801 207.255 38.8791 207.213 38.9295 207.439C39.566 210.298 39.6289 213.243 39.7262 216.171C39.822 219.058 39.8181 221.959 39.7759 224.848C39.6203 235.467 39.3282 246.077 39.0756 256.694C38.9493 262.005 38.8308 267.317 38.7398 272.628C38.7055 274.62 38.6766 276.613 38.6525 278.605L38.6232 281.232C38.6085 282.394 38.578 283.541 38.436 284.702C38.3424 285.465 38.1429 286.193 37.7206 286.848C37.4209 287.312 36.9937 287.548 36.5774 287.863L36.4995 287.923C35.9684 288.342 35.409 288.345 34.8831 287.923L34.7303 287.803C34.2279 287.411 33.7937 287.105 33.4729 286.485C33.0267 285.622 32.9553 284.686 32.8794 283.736C32.7643 282.296 32.8407 280.834 32.8555 279.389C32.8853 276.492 32.9255 273.594 32.9765 270.697C33.1635 260.071 33.5332 249.443 34.2069 238.836C34.5243 233.84 34.9546 228.828 35.5319 223.852L35.6419 222.92C35.817 221.456 35.9767 219.965 36.1566 218.471C33.4703 216.585 31.1089 214.297 29.0953 211.702C28.9471 211.511 29.1911 211.243 29.3701 211.428C31.4276 213.554 33.7868 215.249 36.3985 216.581C36.8264 213.452 37.4148 210.34 38.5106 207.439ZM83.3896 112.721C83.4265 112.692 83.484 112.68 83.5191 112.721C84.0965 113.392 83.9794 114.419 83.998 115.271L84.0002 115.35C84.0417 116.594 84.0495 117.835 84.0453 119.08L84.0324 123.044V123.044C84.0307 123.589 83.9864 124.156 84.0144 124.705L84.029 124.917V124.917C84.3323 125.227 84.4733 125.675 84.3704 126.125C84.3518 126.702 84.0495 127.183 83.6084 127.486L84.5538 128.824V128.824L85.5001 130.162C87.4505 132.922 89.4224 135.658 91.4775 138.343C93.573 141.08 95.8086 143.714 98.1479 146.246C99.2908 147.484 100.453 148.704 101.643 149.897C102.126 150.382 102.621 150.854 103.111 151.333L103.599 151.813C103.887 152.1 104.249 152.385 104.44 152.749C104.553 152.964 104.578 153.493 104.618 153.581C104.979 154.372 104.364 155.634 103.34 155.239L103.387 155.209C103.573 155.079 103.454 155.077 103.029 155.203C102.76 155.202 102.509 155.141 102.274 155.019L102.204 154.98C101.873 154.812 101.578 154.488 101.309 154.228L101.242 154.165C100.628 153.59 100.042 152.98 99.4525 152.38C98.2228 151.126 97.0209 149.846 95.8573 148.532C93.536 145.91 91.3353 143.181 89.2513 140.367C87.1284 137.502 85.1553 134.489 83.4584 131.353C82.8144 130.162 82.2241 128.949 81.6581 127.722C80.5565 127.369 80.3007 126.2 80.3775 124.883C79.971 123.939 79.6048 122.975 79.3883 121.99C79.3588 121.855 79.5326 121.727 79.6367 121.845C79.9891 122.245 80.3153 122.67 80.6289 123.106C80.8181 122.183 81.0576 121.333 81.1702 120.791L81.6586 118.4V118.4C78.9064 118.257 75.8906 119.385 73.9933 121.36C73.8914 121.875 73.4947 122.243 73.108 122.724C72.6661 123.273 72.2806 123.89 71.9931 124.535C71.3555 125.965 71.7154 128.072 70.4779 129.121C70.3489 129.23 70.2048 129.306 70.0561 129.353C70.6433 132.226 70.3768 135.391 70.364 138.306L70.3636 138.563C70.3665 141.825 70.2573 145.09 70.1309 148.349L70.0024 151.575C69.8359 155.877 69.7278 160.181 70.1468 164.46C72.0597 162.769 74.0377 161.156 76.0838 159.619C77.4291 158.608 78.8014 157.633 80.1986 156.695L81.3339 155.938C82.6943 155.028 84.0878 154.091 85.5774 153.439C87.5256 152.587 89.3783 152.88 91.2593 153.754C93.1324 154.625 94.9498 155.636 96.7871 156.58C98.6559 157.54 100.529 158.491 102.4 159.445C103.64 160.077 105.456 160.648 106.366 161.812C106.424 161.554 106.491 161.297 106.57 161.042C106.48 160.652 106.515 160.23 106.734 159.829C109.789 154.227 112.616 148.491 115.423 142.762C116.844 139.863 118.195 136.93 119.618 134.033L121.002 131.211C121.233 130.741 121.465 130.271 121.699 129.802C122.048 129.1 122.411 128.404 122.764 127.704C122.914 127.408 123.101 127.114 123.246 126.815L123.315 126.665C123.318 126.658 123.653 125.605 123.394 125.706L123.372 125.716C123.24 125.791 123.134 125.625 123.22 125.519C123.586 125.068 124.096 125.468 124.305 125.886C124.881 127.037 123.826 128.844 123.42 129.946L123.398 130.008C122.138 133.565 120.712 137.055 119.251 140.533C116.45 147.202 113.44 153.768 110.437 160.345L110.402 160.458V160.458C111.042 159.969 111.726 159.524 112.311 159.092C113.788 158 115.308 156.962 116.826 155.927C119.609 154.03 122.468 152.258 125.374 150.555L125.955 150.216C127.407 149.372 128.845 148.688 130.568 148.941C132.169 149.176 133.657 150.034 135.103 150.731L135.252 150.803L139.721 152.923C139.243 151.022 138.726 149.13 138.186 147.246C137.134 143.57 135.976 139.925 134.72 136.313C133.547 132.938 132.279 129.6 130.938 126.288L130.534 125.294C129.988 123.931 129.444 122.444 127.881 122.024C126.319 121.604 124.528 122.227 123.1 121.338C122.971 121.258 122.987 121.044 123.144 121.005L124.025 120.783C125.679 120.373 127.617 119.96 129.181 120.359C130.883 120.794 132.291 122.219 133.117 123.701C134.035 125.349 134.682 127.193 135.378 128.951L135.489 129.227C136.288 131.216 137.057 133.217 137.793 135.23C139.265 139.255 140.604 143.328 141.816 147.437C142.401 149.418 142.955 151.408 143.488 153.403C143.641 153.977 143.893 154.672 144.101 155.398C144.338 155.629 144.563 155.887 144.774 156.181C145.124 156.669 144.873 157.241 144.438 157.534C144.421 158.033 144.31 158.502 144.044 158.905C143.006 160.476 140.263 160.072 140.375 157.959C140.392 157.636 140.518 157.327 140.709 157.066L140.704 157.024V157.024L140.682 156.946V156.946C140.206 156.718 139.728 156.465 139.224 156.216L134.534 153.904V153.904C133.176 153.234 131.671 152.199 130.16 151.944C128.752 151.706 127.267 152.753 126.057 153.385L125.978 153.425C123.053 154.921 120.15 156.467 117.258 158.025C115.847 158.786 114.454 159.578 113.047 160.348C111.872 160.992 110.603 161.916 109.281 162.279C108.717 162.717 108.046 162.659 107.507 162.327C107.753 163.849 107.738 165.411 107.814 166.967C107.916 169.047 107.931 171.133 107.965 173.216L107.978 173.997C108.067 178.602 108.115 183.208 108.132 187.814C108.195 204.216 108.013 220.622 107.97 237.023C107.949 245.264 107.785 253.511 107.571 261.749C107.48 265.239 107.29 268.725 107.084 272.211L106.971 274.112C106.732 278.123 106.591 282.178 105.847 286.135C105.75 286.651 104.874 286.664 104.788 286.135C104.103 281.895 104.065 277.562 103.934 273.272L103.906 272.415C103.748 267.809 103.673 263.206 103.689 258.597C103.747 242.19 104.175 225.792 104.524 209.389C104.7 201.147 104.818 192.902 105.091 184.663C105.228 180.541 105.383 176.421 105.566 172.3C105.648 170.46 105.727 168.622 105.849 166.785L105.904 165.998C105.942 165.484 105.973 164.977 106.01 164.474C104.347 165.08 102.825 163.958 101.329 163.19C99.6036 162.304 97.8795 161.417 96.1538 160.534L94.4268 159.651V159.651L90.9706 157.892C89.4144 157.099 88.2154 156.311 86.5556 157.24C80.576 160.588 75.0811 165.042 70.1014 169.716C69.1466 170.612 67.1288 170.371 66.8869 168.869C65.8537 162.451 66.4821 155.941 67.0096 149.504L67.2041 147.114C67.4397 144.26 67.6963 141.405 68.0383 138.563C68.1913 137.291 68.3436 136.02 68.5121 134.751L68.6418 133.799C68.8525 132.295 68.99 130.799 69.4392 129.357C69.2975 129.311 69.1612 129.236 69.0393 129.121C67.6889 127.842 68.34 125.624 68.9561 124.103C69.5645 122.602 70.4923 121.292 71.6542 120.165C71.9076 119.918 72.2648 119.76 72.6237 119.752C75.4408 117.89 78.5312 116.96 81.7476 117.977C81.838 117.546 81.9301 117.115 82.0271 116.686L82.1258 116.257C82.376 115.192 82.4689 113.433 83.3896 112.721ZM112.261 280.904C113.136 280.664 114.093 280.916 114.733 281.556C115.374 282.195 115.627 283.15 115.386 284.022C115.266 284.451 115.048 284.824 114.733 285.141C114.439 285.432 114.096 285.64 113.703 285.765L113.612 285.792L113.469 285.852C113.031 285.969 112.593 285.969 112.155 285.852C111.736 285.735 111.372 285.523 111.063 285.217C110.757 284.909 110.545 284.547 110.428 284.128C110.31 283.691 110.31 283.254 110.428 282.817L110.487 282.674V282.674C110.608 282.245 110.825 281.872 111.14 281.556C111.457 281.242 111.831 281.024 112.261 280.904ZM164.167 193.983C164.311 193.818 164.544 194.029 164.454 194.204C163.093 196.867 161.575 199.512 160.084 202.108C160.203 202.827 160.322 203.541 160.458 204.236C161.039 207.202 161.751 210.113 162.215 213.106C163.883 223.865 164.748 234.741 165.491 245.597C166.237 256.492 166.332 267.391 166.444 278.307C166.454 279.253 165.724 280.353 164.747 280.531C164.299 280.612 163.965 280.597 163.518 280.531C162.501 280.382 161.865 279.219 161.821 278.307C161.53 272.206 161.137 266.113 160.683 260.022C159.877 249.223 159.385 238.395 158.734 227.585L158.505 223.806C158.259 219.712 158.034 215.616 157.961 211.515C157.912 208.799 158.057 206.083 157.968 203.37C157.885 200.865 157.631 198.142 158.184 195.681C158.205 195.588 158.351 195.565 158.393 195.653C158.968 196.862 159.333 198.176 159.614 199.517C161.097 197.646 162.607 195.77 164.167 193.983ZM67.0228 127.814C67.2311 127.799 67.2228 128.111 67.0228 128.134C64.1124 128.471 61.3008 129.653 58.5527 130.657L58.3173 130.743C55.541 131.748 52.8341 132.917 50.2292 134.31C45.1362 137.034 40.4594 140.547 36.3244 144.568C19.8153 160.62 12.2917 183.767 6.77874 205.52C3.71565 217.606 1.53744 229.896 0.125622 242.28C-0.572486 248.404 -1.06601 254.553 -1.35374 260.71C-1.50102 263.866 -1.59392 267.025 -1.63269 270.183C-1.65269 271.802 -1.65854 273.42 -1.65659 275.038C-1.65562 275.78 -1.52297 276.713 -1.7217 277.433C-1.90604 278.1 -2.4259 278.688 -2.81043 279.243C-3.26617 279.903 -4.08522 279.868 -4.54729 279.243L-4.71768 279.016C-5.21049 278.364 -5.69267 277.74 -5.76307 276.888C-5.83841 275.974 -5.78526 275.032 -5.78867 274.113C-5.79647 272.264 -5.77355 270.414 -5.73649 268.565C-5.66504 265.021 -5.52508 261.479 -5.31709 257.94C-4.89476 250.759 -4.19958 243.592 -3.20423 236.467C-1.43494 223.802 1.21704 211.259 4.69076 198.951C7.96794 187.34 11.8503 175.764 17.3811 165.009C22.5163 155.023 29.2531 145.734 38.1424 138.755C42.2762 135.51 46.7762 132.805 51.6279 130.768C54.0748 129.741 56.6444 128.902 59.2576 128.424C61.8418 127.951 64.4147 128.017 67.0228 127.814ZM112.762 260.381C113.224 260.378 113.739 260.479 114.135 260.734L114.664 261.142V261.142C114.807 261.325 114.95 261.51 115.092 261.695C115.423 262.125 115.467 262.821 115.398 263.334C115.382 263.676 115.28 263.994 115.092 264.289L114.689 264.81V264.81C114.302 265.125 113.979 265.35 113.51 265.501C113.265 265.58 113.029 265.597 112.794 265.585L112.715 265.58L112.762 265.586L112.68 265.577V265.577C112.603 265.57 112.527 265.562 112.45 265.552C112.397 265.545 112.344 265.541 112.292 265.534C112.242 265.53 112.193 265.528 112.142 265.532C111.546 265.588 110.947 265.251 110.524 264.864C110.143 264.515 109.801 263.774 109.854 263.249L109.876 263.03C109.917 262.66 109.949 262.514 110.107 262.143C110.259 261.781 110.473 261.462 110.763 261.193C111.319 260.677 111.999 260.386 112.762 260.381ZM110.918 233.304C111.709 232.444 113.067 232.381 114.048 232.901C114.287 233.028 114.507 233.232 114.717 233.402C115.248 233.83 115.457 234.602 115.486 235.253C115.515 235.897 115.175 236.661 114.717 237.105L114.606 237.213V237.213C114.333 237.478 113.941 237.708 113.559 237.778C112.942 237.892 112.424 237.888 111.85 237.646C111.357 237.439 110.932 237.105 110.642 236.652L110.595 236.575C110.576 236.543 110.557 236.511 110.539 236.478L110.514 236.428C109.964 235.373 110.112 234.18 110.918 233.304ZM111.327 206.085C111.684 205.973 112.041 205.957 112.397 206.037C112.64 206.038 112.865 206.099 113.075 206.22C113.302 206.283 113.499 206.398 113.667 206.564C113.868 206.683 114.029 206.843 114.148 207.044C114.385 207.303 114.545 207.606 114.628 207.955L114.724 208.666L114.628 209.378L114.358 210.018V210.018C114.283 210.115 114.208 210.212 114.133 210.308C114.013 210.51 113.852 210.671 113.65 210.79C113.519 210.92 113.368 211.018 113.2 211.085C112.602 211.513 111.806 211.652 111.098 211.457C110.678 211.34 110.313 211.128 110.004 210.821C109.696 210.512 109.483 210.148 109.366 209.728L109.317 209.394C109.255 208.944 109.245 208.696 109.372 208.125C109.428 207.874 109.59 207.52 109.675 207.37C110.038 206.734 110.631 206.298 111.327 206.085ZM142.303 186.502C143.327 186.495 144.351 186.497 145.376 186.508L146.144 186.519C147.43 186.539 148.532 186.407 149.543 187.297C150.277 187.943 149.953 189.028 149.257 189.514C148.201 190.252 146.877 189.881 145.664 189.8C144.384 189.714 143.104 189.643 141.822 189.585C139.342 189.475 136.86 189.404 134.377 189.393C131.9 189.383 129.418 189.406 126.941 189.446C124.42 189.487 121.796 189.721 119.289 189.461C118.945 189.425 118.867 188.973 119.207 188.856C121.569 188.04 124.226 187.776 126.702 187.464C129.255 187.143 131.808 186.915 134.377 186.767C137.016 186.616 139.659 186.521 142.303 186.502ZM111.323 178.494L111.407 178.496C111.858 178.497 112.28 178.603 112.674 178.813L112.757 178.86L113.299 179.277C113.63 179.61 113.86 180.003 113.986 180.455L114.082 181.164V181.164C114.096 181.532 114.019 181.874 113.852 182.193C113.744 182.523 113.559 182.81 113.299 183.051C113.056 183.312 112.769 183.496 112.438 183.603C112.144 183.757 111.828 183.835 111.492 183.835L111.407 183.833C110.925 183.832 110.475 183.71 110.058 183.469L109.516 183.051V183.051C109.185 182.718 108.955 182.326 108.828 181.874L108.733 181.164V181.164C108.719 180.797 108.796 180.454 108.963 180.136C109.071 179.805 109.255 179.519 109.516 179.277C109.758 179.017 110.045 178.833 110.377 178.725C110.671 178.571 110.986 178.494 111.323 178.494V178.494ZM119.252 115.799C119.828 114.966 120.873 115.707 120.723 116.377C120.763 118.257 120.859 120.082 121.288 121.924C121.484 122.768 121.741 123.612 122.138 124.385L122.305 124.71C122.818 125.722 123.217 126.677 122.525 127.788C122.199 128.311 121.61 128.704 120.972 128.677C118.139 128.555 117.75 124.621 117.578 122.425C117.401 120.164 117.953 117.678 119.252 115.799Z" fill="black"/>
<path fill-rule="evenodd" clip-rule="evenodd" d="M142.091 73.7651C141.566 69.1628 142.246 59.5431 142.291 58.9587C142.579 55.264 140.844 40.6742 137.564 42.0185C132.063 37.6727 124.735 36.713 117.883 36.2546C103.651 35.3023 88.5107 37.4885 77.5209 47.0458C72.086 52.0092 66.7949 59.2281 67.2202 66.7445C62.2823 73.8692 55.3209 83.6424 61.4734 91.9718C63.5647 94.6329 66.8885 95.6239 69.5157 97.6393C74.8001 101.892 78.1154 107.996 83.45 112.224C97.5829 124.896 121.581 127.544 135.466 113.13C146.204 102.691 144.468 87.0734 142.579 73.7651C141.309 64.8178 143.115 82.7436 142.091 73.7651Z" fill="white"/>
<path fill-rule="evenodd" clip-rule="evenodd" d="M98.8711 16.7375C102.677 15.9711 106.586 15.4942 110.473 15.6378L110.773 15.6494C113.697 15.766 117.401 16.024 119.952 17.721C120.099 17.574 120.335 17.4986 120.549 17.6006C123.581 19.0446 126.916 20.0887 130.108 21.1262C133.286 22.1586 136.583 22.8401 139.913 23.1148C141.166 23.2182 142.239 24.5683 141.445 25.7793C141.256 26.0679 141.073 26.3594 140.89 26.6516C141.196 26.6197 141.502 26.5869 141.808 26.556C142.816 26.4548 143.823 27.528 143.763 28.5071C143.726 29.1229 143.659 29.7315 143.561 30.3327C143.945 30.3247 144.326 30.3821 144.695 30.5376C146.562 31.3242 146.432 33.543 146.292 35.2311C146.098 37.5737 145.22 40.055 143.59 41.8083C144.807 43.0699 145.669 44.5765 146.183 46.3658C146.556 47.6724 146.763 49.0642 146.661 50.4243L146.628 50.8315C146.502 52.3075 146.25 53.9417 145.186 55.0035C144.639 55.5509 143.966 55.7505 143.325 55.6872C143.713 59.0887 143.962 62.5097 144.196 65.9185L144.305 67.5478C144.828 75.4263 145.22 83.356 145.117 91.2475C145.022 98.6223 143.562 105.781 139.029 111.769C134.9 117.221 128.973 121.241 122.267 122.769C118.654 123.594 114.964 123.652 111.307 123.126C109.534 122.871 107.749 122.479 106.067 121.861C104.204 121.175 102.865 120.165 101.612 118.652C101.019 117.934 101.304 116.406 102.485 116.55C104.27 116.766 105.9 117.026 107.611 117.553L107.856 117.63C109.561 118.175 111.326 118.581 113.109 118.754C116.759 119.107 120.465 118.752 123.962 117.647C129.656 115.847 134.559 111.834 137.702 106.793C141.433 100.817 141.855 94.0334 141.801 87.1623C141.743 79.6224 141.497 72.0781 141.096 64.546L141.028 63.2907C140.816 59.4148 140.611 55.5363 140.431 51.6579C140.375 50.4414 140.289 49.2151 140.136 48.0009C138.729 47.1785 137.468 46.0447 136.646 44.6456C134.996 45.3269 133.26 45.8184 131.662 46.2101C127.962 47.1182 124.121 47.3386 120.355 46.77C119.339 47.1887 118.303 47.5569 117.251 47.8737C116.967 47.9995 116.682 48.1231 116.398 48.2442C113.862 49.327 111.29 50.2443 108.612 50.9158L107.955 51.0795C106.546 51.426 105.016 51.7673 103.516 51.8745C103.27 51.9694 103.004 52.0497 102.714 52.1202C101.348 52.4511 99.9315 52.5557 98.5322 52.439C97.1689 52.3246 96.1838 50.9499 96.9348 49.6627C97.4834 48.7236 98.0372 47.7868 98.5956 46.8525C96.6522 47.6603 94.6454 48.3318 92.6215 48.9012C90.5782 49.4754 88.5055 49.9596 86.4302 50.4049C85.3208 50.6409 84.2067 50.8501 83.0996 51.0861C82.3072 51.254 81.0904 51.3416 80.444 51.8623C79.7298 52.4341 79.5274 53.7675 79.2565 54.5899C78.9005 55.658 78.5665 56.731 78.2617 57.8162C77.6547 59.9817 77.1573 62.1788 76.7721 64.3978C76.3868 66.6193 76.1281 68.8626 75.9842 71.1133C75.8406 73.3615 75.9037 75.6243 75.6723 77.8628C75.5477 79.0502 74.2703 79.6609 73.3266 78.8312C73.2159 78.7339 73.1043 78.6355 72.9939 78.536L72.8292 78.3859C72.0218 77.656 71.2391 76.8823 70.5932 76.0112C70.4762 75.8506 70.364 75.6827 70.2591 75.5124C70.2421 75.5124 70.2274 75.5075 70.2104 75.4954L70.0313 75.3609C68.0592 73.8962 64.7645 71.9866 62.8416 74.4199C62.2288 75.1951 61.9151 76.1822 61.6547 77.1344L61.1978 78.8387C60.9023 79.9513 60.6242 81.07 60.4615 82.2084C60.0933 84.7583 60.2786 87.6975 62.0369 89.7414C62.7392 90.5589 63.7072 91.1429 64.7872 91.2962C65.3897 91.3789 65.9847 91.2767 66.5821 91.2013C67.1892 91.1258 67.7742 91.2475 68.3816 91.1891C69.3472 91.0942 69.769 92.2475 69.4081 92.9726C69.2131 93.3619 68.9836 93.6977 68.723 93.9823C68.9324 94.1624 69.1326 94.357 69.3252 94.5614C69.8958 94.7439 70.4076 95.1357 70.7907 95.6539C71.1004 96.0724 71.2611 96.5274 71.2881 97.0067C71.322 97.126 71.3513 97.2476 71.3784 97.3717L71.9015 98.2189C72.0165 98.4047 72.1312 98.5883 72.2462 98.7683C73.5775 100.861 75.0554 102.632 76.8915 104.301C78.6594 105.907 80.5781 107.345 82.2389 109.068L82.4345 109.272C83.9828 110.9 85.6148 112.871 85.0089 115.238C84.8528 115.847 84.0016 116.284 83.4459 115.873C81.6586 114.55 80.7586 112.452 79.2421 110.846C77.6813 109.192 75.9525 107.705 74.3873 106.056C72.907 104.498 71.739 102.734 70.859 100.793C70.5076 101.18 69.9958 101.455 69.2862 101.562C68.067 101.744 66.9305 101.031 66.3992 99.9776C66.0576 100.128 65.7091 100.265 65.3578 100.372C63.5095 100.936 62.3466 98.8851 63.044 97.3693C63.4168 96.5566 63.8825 95.851 64.4607 95.2573C62.6536 95.0091 60.815 94.0772 59.6276 92.9142C56.6481 89.992 56.2385 85.6002 56.909 81.695C57.265 79.6244 57.8792 77.5295 58.6768 75.5854C58.8156 75.2472 58.9646 74.9065 59.1277 74.5708C59.0375 74.5683 58.9448 74.5294 58.8863 74.454C58.3474 73.7192 57.6917 73.1182 57.2916 72.2958C56.9234 71.5415 56.514 70.7775 56.2236 69.9916C55.6264 68.3833 55.3338 66.5682 55.1387 64.8674C54.7364 61.3856 54.8922 57.9257 55.4265 54.4658C56.3357 48.5727 58.5322 42.9332 61.7682 37.9847C61.592 37.8923 61.4232 37.7808 61.2658 37.6489L61.1881 37.5812L61.0618 37.4674C60.1384 36.6335 60.2181 35.0707 61.0618 34.2262L61.3283 33.9597C61.6657 33.6252 61.9567 33.3602 62.5017 32.996C62.5821 32.9422 62.6643 32.8916 62.7475 32.8444C62.4622 32.3184 62.3632 31.7033 62.5619 31.0247C63.2544 28.6606 66.6633 28.7443 68.8239 29.7753C71.2143 27.6465 73.8648 25.7985 76.7377 24.3022C83.58 20.74 91.3167 18.2558 98.8711 16.7375ZM63.5025 79.0015C64.7802 78.5855 66.4773 79.459 67.6258 79.9845C69.0815 80.6512 70.3202 81.6366 71.5199 82.678C72.1173 83.1987 72.2243 84.0503 72.0758 84.7778C72.0609 84.8508 72.0465 84.9262 72.0292 85.0017C71.8707 85.7778 71.0027 86.3885 70.2346 86.3666C68.6277 86.3228 67.8623 84.9384 66.9525 83.7656C66.8455 83.9554 66.7114 84.1306 66.5453 84.262L66.4332 84.3496C66.0557 84.6364 65.6396 84.8656 65.1408 84.8435C64.7872 84.8265 64.4485 84.7364 64.1362 84.5734C63.3559 84.1622 63.0123 83.1549 63.2242 82.3349C63.3559 81.8191 63.6583 81.4152 64.0533 81.1354L63.906 81.0349C63.591 80.8161 63.3036 80.5855 63.0797 80.2451L63.0292 80.1646H63.0487C62.8048 79.7461 62.9636 79.1767 63.5025 79.0015Z" fill="black"/>
<path fill-rule="evenodd" clip-rule="evenodd" d="M123.684 103.487C121.888 104.006 119.96 104.052 118.129 103.516C116.468 103.03 114.763 101.959 113.541 100.543C112.455 99.2851 111.752 97.7563 111.78 96.1243C111.783 95.9379 111.85 95.7824 111.952 95.6616C112.063 95.5316 112.217 95.4424 112.383 95.4036C112.553 95.3638 112.733 95.3779 112.886 95.4473C113.025 95.5102 113.144 95.617 113.218 95.773C113.406 96.0193 113.593 96.2618 113.781 96.4977C115.291 98.3586 116.754 99.7493 119.025 100.248C120.257 100.519 121.488 100.399 122.617 99.9858C123.826 99.5437 124.918 98.7664 125.775 97.7717C126.161 97.3221 126.618 97.1387 127.065 97.1356C127.571 97.1321 128.072 97.3668 128.449 97.742C128.819 98.1107 129.067 98.6118 129.09 99.136C129.109 99.5961 128.959 100.077 128.559 100.505C127.241 101.918 125.533 102.952 123.684 103.487ZM123.629 80.1791C125.47 81.2959 128.276 83.9001 126.295 86.6688C123.963 89.1101 120.606 86.311 118.952 85.0451C117.418 84.064 115.695 86.5873 117.118 87.7329C129.072 96.564 133.923 80.4711 124.56 78.866C123.529 78.6891 123.147 79.8336 123.629 80.1791ZM106.404 75.2648C105.813 74.8872 105.116 74.7575 104.345 75.1078C103.742 75.3814 102.685 76.2935 101.949 77.4925C101.445 78.3127 101.088 79.275 101.162 80.2773C101.18 80.5101 101.093 80.6817 100.958 80.8086C100.85 80.9089 100.695 80.9825 100.513 81.0056C100.358 81.0251 100.185 81.0075 100.044 80.9636C99.7765 80.8802 99.6348 80.7069 99.5814 80.5654C99.0661 79.1999 99.2881 77.6761 99.8656 76.3013C100.645 74.446 102.06 72.892 102.988 72.3909C104.574 71.5332 106.446 71.4938 108.035 72.3675C109.388 73.1112 110.234 74.3119 111.075 75.5357C111.254 75.7959 111.432 76.0542 111.615 76.3079C111.983 76.8163 112.019 77.3205 111.877 77.7528C111.719 78.2318 111.317 78.6361 110.814 78.8476C110.349 79.0431 109.81 79.0707 109.333 78.8698C108.929 78.7 108.559 78.3692 108.325 77.8079C107.931 76.8625 107.274 75.8195 106.404 75.2648V75.2648ZM136.461 77.3681C136.056 77.5788 135.739 77.6424 135.289 77.508C135.041 77.4334 134.795 77.2906 134.603 77.0986C134.412 76.9084 134.274 76.6718 134.221 76.4093C134.089 75.7615 133.734 75.1552 133.228 74.7599C132.795 74.422 132.249 74.2429 131.644 74.344C130.99 74.4528 130.367 74.8711 129.938 75.3643C129.795 75.5293 129.683 75.7167 129.57 75.9028C129.358 76.2509 129.153 76.5745 128.862 76.8301C128.751 76.9274 128.585 76.9948 128.423 76.9948C128.358 76.9948 128.291 76.9841 128.228 76.9644C127.578 76.3129 127.452 75.8187 127.473 75.3284C127.495 74.8144 127.699 74.2939 128.027 73.8082C128.797 72.669 130.259 71.735 131.245 71.5235C132.596 71.2338 133.938 71.5815 135.013 72.3345C136.12 73.1092 136.94 74.312 137.196 75.6675C137.258 75.994 137.232 76.3464 137.107 76.6519C136.985 76.9505 136.773 77.2062 136.461 77.3681ZM109.384 63.1192C108.573 63.9075 107.614 64.0295 106.643 64.1381C106.103 64.199 105.673 64.2481 105.249 64.3435C104.084 64.6059 102.933 65.001 101.883 65.57C100.785 66.1648 99.5886 66.8822 98.7278 67.8013C98.5231 68.0199 98.3302 68.2494 98.1369 68.4794C97.9608 68.6891 97.791 68.891 97.6122 69.0857C97.4067 69.3093 97.2117 69.5436 97.0176 69.7773C96.8977 69.9745 96.874 70.023 96.8498 70.0735C96.8134 70.1494 96.7711 70.2343 96.7228 70.3254C96.6567 70.4502 96.5792 70.5868 96.498 70.7106C96.363 70.9369 96.2906 70.9992 96.228 71.0271C96.1241 71.0733 96.0256 71.096 95.93 71.0837C95.8404 71.0722 95.7559 71.0292 95.6725 70.9589C95.2563 70.608 95.1335 70.0321 95.1461 69.4207C95.1652 68.493 95.5081 67.4659 95.8242 66.8345C96.5592 65.3674 97.5786 63.8422 98.8043 62.7473C100.203 61.4974 101.733 60.5511 103.491 59.8991C104.583 59.4938 105.848 59.1217 107.038 59.1687C107.894 59.2025 108.712 59.4566 109.387 60.0911C109.802 60.4805 110.001 61.0345 110.001 61.5881C110.001 62.1527 109.794 62.7207 109.384 63.1192ZM138.11 70.3371C138.059 70.4214 137.987 70.4796 137.908 70.5145C137.825 70.551 137.732 70.5616 137.643 70.5466C137.554 70.5317 137.469 70.4915 137.402 70.4301C137.338 70.3713 137.289 70.2933 137.268 70.1977C136.729 67.8386 135.684 66.0835 133.453 64.9516C132.356 64.3948 131.094 64.0411 129.899 63.759C129.552 63.6771 129.185 63.6239 128.816 63.5701C127.658 63.4015 126.492 63.2083 125.738 62.2745C125.283 61.712 125.092 60.9927 125.2 60.3348C125.301 59.7154 125.664 59.1474 126.324 58.807C127.965 57.9601 130.005 58.7912 131.663 59.4992C131.786 59.5517 131.907 59.6032 132.025 59.653C133.646 60.3358 135.125 61.2371 136.34 62.5262C137.305 63.5488 138.198 65.0605 138.558 66.6157C138.857 67.9096 138.787 69.2304 138.11 70.3371Z" fill="black"/>
<path fill-rule="evenodd" clip-rule="evenodd" d="M101.906 105.198C103.88 100.583 108.189 97.1911 113.149 95.9511C116.792 95.0428 120.616 95.0718 124.329 95.4323C126.275 95.6198 128.362 95.7735 130.195 96.4945C131.761 97.1105 133.037 98.2748 133.997 99.6415C135.139 101.261 135.916 103.115 136.461 105.014C136.538 105.285 136.611 105.557 136.679 105.83C136.442 107.264 135.938 108.484 134.608 109.385C133.309 110.265 131.76 110.625 130.216 110.753C130.064 110.68 129.918 110.606 129.784 110.529C127.377 109.155 125.683 105.906 122.646 106.345C119.935 106.738 118.15 110.141 116.538 112.137C111.364 112.739 106.193 111.187 101.983 108.235C101.769 107.224 101.756 106.205 101.906 105.198M140.196 101.697C139.782 100.538 139.261 99.4152 138.643 98.3576C136.6 94.8601 133.463 92.0734 129.74 90.4804C120.932 86.7172 109.536 89.37 102.423 95.5419C99.9928 97.6517 97.536 100.752 96.793 104.087C96.5712 104.131 96.3617 104.246 96.1893 104.408C91.0502 101.18 85.7579 98.0736 81.6167 93.5982C78.6093 90.3465 76.5175 86.4982 75.2366 82.2696C75.1319 81.9215 74.5694 81.9724 74.5864 82.3575C74.5913 82.4476 74.5962 82.5375 74.6011 82.6276C74.5475 82.462 74.2942 82.5472 74.2747 82.708C73.5856 87.845 72.7236 93.2913 73.5174 98.455C73.9923 101.536 75.3949 103.792 77.27 106.228C79.279 108.839 81.5534 111.267 83.8789 113.596C85.3546 115.074 86.8961 116.779 88.703 117.863C90.8045 119.122 93.1885 120.08 95.4313 121.051C97.713 122.043 100.029 122.959 102.388 123.753C107.105 125.346 111.981 126.447 116.941 126.929C120.913 127.314 125.452 127.733 129.258 126.242C132.175 125.1 134.53 123.034 136.398 120.55C138.431 117.844 140.038 114.761 140.927 111.511C141.85 108.134 140.391 102.241 140.196 101.697" fill="black"/>
<path fill-rule="evenodd" clip-rule="evenodd" d="M144.189 82.3575C142.548 84.5583 139.504 85.2593 136.697 85.0172C130.642 84.4356 128.736 77.5739 128.538 72.2408C132.598 73.3804 128.194 65.3087 142.073 64.4211C146.966 64.0143 145.617 66.9628 147.779 69.1171C147.734 73.6383 146.98 78.5511 144.189 82.3575M115.35 77.1623C111.776 93.8665 92.2008 89.8932 90.1445 74.8354C92.0433 73.4982 91.5432 70.1962 93.9021 68.9998C97.6406 66.6163 102.314 66.7183 106.559 66.7742C111.986 67.1462 113.532 69.3894 116.32 71.8366C116.186 73.4712 115.799 75.4085 115.35 77.1623M151.944 61.6547C151.743 61.6213 151.542 61.5899 151.341 61.5605C151.184 61.4717 151 61.4033 150.786 61.3622C150.297 61.2383 149.812 61.1549 149.327 61.1099C142.37 59.5476 126.275 61.7658 125.611 67.6901C123.395 68.428 121.478 67.7672 118.91 67.8329C116.956 59.6807 83.1637 60.8313 81.5385 65.7462C81.5324 65.7445 81.5263 65.7431 81.52 65.7411C79.9584 65.2589 77.6564 65.3752 75.869 65.2988C72.0527 65.219 68.232 65.5584 64.4981 66.3616C57.5061 67.4703 47.9634 68.7684 52.8263 77.481C52.8273 77.4825 52.828 77.4842 52.8292 77.4856L52.83 77.4849C53.668 78.3421 55.0904 77.6518 55.1433 76.4914C53.5083 72.3639 57.201 71.8682 60.0422 70.6821C67.1118 68.1477 74.3094 67.7964 81.6212 68.5803C82.1713 69.2266 83.0059 69.7901 83.8881 70.085C88.7768 70.8947 86.2004 74.5133 89.2906 75.0396C88.7229 87.6535 104.07 94.5388 112.963 86.2469C116.513 82.783 117.36 77.6518 118.183 73.0267C118.618 72.9291 118.895 72.6916 119.057 72.3772C120.103 71.3344 120.761 70.3714 122.831 70.085C124.901 69.7989 126.494 70.3733 126.71 70.5492C126.764 70.6585 126.823 70.768 126.89 70.8775C126.985 71.0407 127.114 71.1709 127.26 71.2733C125.216 83.8342 134.988 91.7779 144.854 85.2631C149.14 81.2395 150.046 75.0792 150.225 69.5808C150.806 69.231 151.174 68.5528 150.973 67.7003C150.696 66.5251 151.346 65.5075 152.381 64.9966C153.727 64.3331 153.489 61.9099 151.944 61.6547" fill="black"/>
</g>
<path fill-rule="evenodd" clip-rule="evenodd" d="M142.096 73.9902C141.572 69.3865 142.25 59.764 142.295 59.1794C142.582 55.4836 140.852 40.8894 137.582 42.2341C132.097 37.887 124.79 36.9271 117.958 36.4685C103.768 35.5159 88.6711 37.7028 77.7133 47.263C72.2942 52.2278 67.0185 59.4488 67.4426 66.9675C62.519 74.0944 55.5779 83.8704 61.7124 92.2023C63.7977 94.8642 67.1118 95.8555 69.7314 97.8715C75.0004 102.126 78.3061 108.231 83.6251 112.461C97.7169 125.137 121.645 127.785 135.49 113.367C146.196 102.924 144.465 87.3024 142.582 73.9902C141.316 65.0403 143.117 82.9714 142.096 73.9902Z" fill="white"/>
<path fill-rule="evenodd" clip-rule="evenodd" d="M99.0014 16.9459C102.797 16.1792 106.694 15.7022 110.57 15.8458L110.868 15.8574C113.784 15.9741 117.477 16.2321 120.021 17.9296C120.168 17.7826 120.403 17.7072 120.617 17.8092C123.64 19.2537 126.965 20.298 130.148 21.3358C133.316 22.3685 136.603 23.0502 139.924 23.325C141.174 23.4285 142.243 24.779 141.452 25.9904C141.264 26.279 141.08 26.5706 140.898 26.8629C141.203 26.831 141.508 26.7981 141.814 26.7672C142.819 26.666 143.822 27.7396 143.763 28.719C143.726 29.335 143.659 29.9437 143.561 30.5451C143.944 30.537 144.324 30.5945 144.692 30.75C146.553 31.5369 146.424 33.7563 146.284 35.4449C146.091 37.7883 145.216 40.2703 143.59 42.0241C144.804 43.2861 145.663 44.7932 146.176 46.583C146.547 47.89 146.754 49.2822 146.652 50.6427L146.62 51.05C146.493 52.5265 146.242 54.1611 145.181 55.2232C144.637 55.7708 143.966 55.9704 143.326 55.9071C143.713 59.3097 143.961 62.7317 144.194 66.1415L144.304 67.7713C144.824 75.6521 145.216 83.5842 145.113 91.478C145.018 98.8551 143.562 106.015 139.042 112.005C134.926 117.46 129.016 121.48 122.33 123.009C118.726 123.834 115.048 123.892 111.401 123.367C109.633 123.111 107.854 122.719 106.176 122.101C104.319 121.415 102.984 120.404 101.734 118.891C101.143 118.173 101.428 116.644 102.605 116.788C104.385 117.004 106.01 117.264 107.716 117.791L107.96 117.868C109.66 118.414 111.42 118.82 113.197 118.993C116.837 119.346 120.533 118.99 124.019 117.885C129.696 116.084 134.586 112.071 137.72 107.028C141.44 101.05 141.86 94.2648 141.806 87.3916C141.749 79.8494 141.504 72.3029 141.104 64.7686L141.036 63.513C140.824 59.6358 140.62 55.7562 140.44 51.8767C140.384 50.6597 140.299 49.4331 140.146 48.2186C138.743 47.3959 137.486 46.2617 136.667 44.8623C135.021 45.5438 133.29 46.0354 131.697 46.4272C128.008 47.3356 124.178 47.5561 120.423 46.9873C119.41 47.4061 118.377 47.7744 117.328 48.0913C117.044 48.2171 116.761 48.3408 116.478 48.462C113.949 49.545 111.384 50.4626 108.714 51.1343L108.059 51.298C106.654 51.6447 105.128 51.9861 103.633 52.0933C103.387 52.1882 103.122 52.2685 102.833 52.3391C101.472 52.6701 100.059 52.7748 98.6635 52.6579C97.3042 52.5435 96.3219 51.1684 97.0707 49.8809C97.6178 48.9414 98.1699 48.0044 98.7267 47.0698C96.789 47.8778 94.788 48.5496 92.77 49.1191C90.7326 49.6935 88.666 50.1778 86.5968 50.6232C85.4905 50.8593 84.3797 51.0686 83.2759 51.3047C82.4857 51.4726 81.2725 51.5603 80.6279 52.0811C79.9158 52.6531 79.714 53.9868 79.4439 54.8095C79.0889 55.8779 78.7558 56.9513 78.4519 58.0368C77.8468 60.2029 77.3508 62.4007 76.9667 64.6204C76.5825 66.8425 76.3246 69.0865 76.1811 71.3378C76.0379 73.5867 76.1009 75.8502 75.8702 78.0894C75.7459 79.2771 74.4722 79.888 73.5313 79.058C73.4209 78.9607 73.3096 78.8623 73.1995 78.7627L73.0353 78.6126C72.2303 77.8825 71.4498 77.1085 70.8058 76.2372C70.6891 76.0766 70.5772 75.9086 70.4727 75.7383C70.4557 75.7383 70.4411 75.7334 70.4241 75.7212L70.2455 75.5867C68.2791 74.1216 64.994 72.2114 63.0767 74.6455C62.4657 75.4209 62.1529 76.4082 61.8933 77.3608L61.4377 79.0655C61.1431 80.1784 60.8658 81.2975 60.7035 82.4362C60.3364 84.9869 60.5212 87.927 62.2744 89.9715C62.9746 90.7893 63.9398 91.3734 65.0166 91.5267C65.6174 91.6095 66.2106 91.5072 66.8063 91.4318C67.4117 91.3563 67.995 91.478 68.6006 91.4196C69.5634 91.3247 69.984 92.4784 69.6242 93.2036C69.4297 93.5931 69.2009 93.9289 68.941 94.2137C69.1498 94.3938 69.3494 94.5885 69.5415 94.793C70.1104 94.9755 70.6208 95.3674 71.0027 95.8858C71.3115 96.3044 71.4717 96.7595 71.4987 97.239C71.5325 97.3583 71.5617 97.4799 71.5887 97.6041L72.1103 98.4515C72.225 98.6374 72.3393 98.821 72.4539 99.0011C73.7814 101.094 75.255 102.866 77.0858 104.536C78.8485 106.142 80.7617 107.58 82.4176 109.304L82.6127 109.508C84.1565 111.137 85.7837 113.108 85.1796 115.476C85.024 116.084 84.1752 116.522 83.6211 116.111C81.839 114.787 80.9416 112.689 79.4296 111.083C77.8733 109.428 76.1495 107.941 74.5889 106.291C73.1128 104.733 71.9482 102.968 71.0708 101.026C70.7204 101.413 70.2101 101.688 69.5026 101.795C68.287 101.978 67.1537 101.265 66.624 100.211C66.2833 100.362 65.9359 100.498 65.5856 100.605C63.7426 101.17 62.5832 99.1179 63.2785 97.6016C63.6502 96.7887 64.1146 96.0829 64.6911 95.489C62.8893 95.2408 61.0561 94.3086 59.872 93.1452C56.9012 90.2222 56.4928 85.8291 57.1614 81.9227C57.5163 79.8515 58.1288 77.7559 58.9241 75.8113C59.0624 75.473 59.211 75.1322 59.3736 74.7963C59.2837 74.7939 59.1913 74.755 59.1329 74.6795C58.5956 73.9445 57.9418 73.3433 57.5428 72.5207C57.1757 71.7662 56.7675 71.002 56.4779 70.2158C55.8825 68.607 55.5908 66.7914 55.3963 65.0901C54.9951 61.6072 55.1505 58.1463 55.6832 54.6853C56.5898 48.7905 58.7799 43.1493 62.0065 38.1993C61.8308 38.1069 61.6624 37.9954 61.5055 37.8635L61.428 37.7958L61.3021 37.6819C60.3814 36.8478 60.4609 35.2845 61.3021 34.4397L61.5678 34.1731C61.9042 33.8386 62.1943 33.5735 62.7378 33.2092C62.818 33.1554 62.9 33.1048 62.9829 33.0576C62.6984 32.5314 62.5997 31.9161 62.7978 31.2373C63.4883 28.8725 66.8873 28.9563 69.0416 29.9875C71.425 27.8581 74.0678 26.0096 76.9324 24.5128C83.7548 20.9496 91.4691 18.4646 99.0014 16.9459ZM63.7357 79.2284C65.0097 78.8122 66.7018 79.686 67.847 80.2117C69.2984 80.8786 70.5335 81.8643 71.7297 82.906C72.3254 83.4268 72.4321 84.2787 72.2841 85.0064C72.2692 85.0794 72.2549 85.1549 72.2376 85.2303C72.0796 86.0067 71.2141 86.6176 70.4482 86.5957C68.846 86.5519 68.0828 85.1671 67.1757 83.9939C67.069 84.1838 66.9352 84.359 66.7697 84.4904L66.6579 84.578C66.2815 84.865 65.8666 85.0943 65.3692 85.0721C65.0167 85.0551 64.679 84.965 64.3675 84.802C63.5895 84.3907 63.247 83.383 63.4582 82.5628C63.5895 82.0468 63.891 81.6428 64.2849 81.3629L64.1381 81.2624C63.8239 81.0435 63.5374 80.8128 63.3141 80.4724L63.2637 80.3918H63.2832C63.0401 79.9732 63.1983 79.4037 63.7357 79.2284Z" fill="black"/>
<path fill-rule="evenodd" clip-rule="evenodd" d="M123.521 103.195C121.711 103.712 119.768 103.759 117.924 103.225C116.25 102.74 114.532 101.674 113.301 100.264C112.207 99.0111 111.498 97.4884 111.526 95.8632C111.529 95.6775 111.597 95.5226 111.7 95.4023C111.812 95.2729 111.967 95.184 112.134 95.1454C112.305 95.1057 112.487 95.1198 112.641 95.1889C112.781 95.2515 112.9 95.3579 112.975 95.5133C113.165 95.7585 113.353 96.0001 113.542 96.235C115.064 98.0883 116.538 99.4734 118.826 99.9702C120.067 100.24 121.307 100.12 122.445 99.7089C123.663 99.2686 124.764 98.4944 125.626 97.5038C126.016 97.0561 126.477 96.8734 126.927 96.8703C127.437 96.8668 127.941 97.1006 128.321 97.4742C128.694 97.8414 128.944 98.3405 128.967 98.8626C128.986 99.3207 128.835 99.7994 128.432 100.226C127.104 101.633 125.383 102.663 123.521 103.195ZM123.465 79.983C125.32 81.0952 128.147 83.6888 126.151 86.4462C123.802 88.8776 120.419 86.0899 118.753 84.8291C117.207 83.852 115.471 86.3651 116.905 87.506C128.949 96.3011 133.836 80.2738 124.403 78.6752C123.364 78.4991 122.979 79.6389 123.465 79.983ZM106.11 75.0888C105.514 74.7127 104.813 74.5836 104.035 74.9324C103.428 75.2049 102.363 76.1132 101.621 77.3073C101.114 78.1242 100.754 79.0826 100.829 80.0808C100.846 80.3126 100.76 80.4836 100.623 80.61C100.514 80.7098 100.358 80.7831 100.175 80.8061C100.019 80.8255 99.8442 80.808 99.7024 80.7643C99.4326 80.6813 99.2898 80.5086 99.236 80.3677C98.7169 79.0078 98.9405 77.4902 99.5224 76.1211C100.308 74.2733 101.734 72.7256 102.668 72.2266C104.267 71.3724 106.153 71.3331 107.754 72.2033C109.117 72.944 109.969 74.1397 110.816 75.3586C110.997 75.6177 111.175 75.8749 111.36 76.1276C111.731 76.6339 111.768 77.136 111.624 77.5666C111.465 78.0437 111.06 78.4463 110.553 78.6569C110.085 78.8517 109.542 78.8791 109.061 78.679C108.654 78.51 108.281 78.1805 108.046 77.6214C107.648 76.6799 106.986 75.6412 106.11 75.0888V75.0888ZM136.394 77.1835C135.985 77.3933 135.666 77.4566 135.213 77.3228C134.962 77.2485 134.715 77.1063 134.521 76.9151C134.329 76.7256 134.19 76.49 134.136 76.2286C134.004 75.5835 133.646 74.9796 133.136 74.5859C132.7 74.2494 132.15 74.0711 131.54 74.1717C130.881 74.2801 130.254 74.6967 129.822 75.1878C129.677 75.3521 129.564 75.5388 129.45 75.7242C129.237 76.0709 129.03 76.3931 128.737 76.6477C128.626 76.7446 128.458 76.8117 128.295 76.8117C128.229 76.8117 128.162 76.8011 128.099 76.7814C127.443 76.1326 127.317 75.6404 127.338 75.1521C127.36 74.6402 127.565 74.1218 127.896 73.6381C128.671 72.5036 130.144 71.5734 131.138 71.3627C132.499 71.0742 133.851 71.4205 134.935 72.1704C136.05 72.9419 136.876 74.1399 137.134 75.4898C137.196 75.815 137.17 76.1659 137.044 76.4702C136.922 76.7675 136.708 77.0222 136.394 77.1835ZM109.112 62.9928C108.296 63.7778 107.329 63.8994 106.351 64.0075C105.807 64.0682 105.373 64.1171 104.946 64.2121C103.773 64.4733 102.613 64.8668 101.555 65.4335C100.449 66.0259 99.2433 66.7404 98.376 67.6557C98.1698 67.8735 97.9754 68.102 97.7807 68.331C97.6032 68.5399 97.4322 68.741 97.252 68.9348C97.045 69.1575 96.8484 69.3909 96.653 69.6237C96.5321 69.8201 96.5082 69.8684 96.4838 69.9187C96.4472 69.9942 96.4046 70.0788 96.3559 70.1695C96.2893 70.2938 96.2112 70.4298 96.1294 70.5531C95.9934 70.7785 95.9204 70.8406 95.8573 70.8684C95.7527 70.9143 95.6534 70.937 95.5571 70.9247C95.4668 70.9132 95.3817 70.8705 95.2977 70.8004C94.8784 70.4509 94.7547 69.8774 94.7673 69.2685C94.7866 68.3446 95.1321 67.3217 95.4506 66.6929C96.1911 65.2317 97.2182 63.7128 98.4531 62.6223C99.8623 61.3775 101.404 60.4351 103.175 59.7858C104.275 59.3821 105.549 59.0115 106.748 59.0584C107.611 59.092 108.435 59.3451 109.116 59.9769C109.533 60.3648 109.734 60.9165 109.734 61.4679C109.734 62.0302 109.526 62.5958 109.112 62.9928ZM138.055 70.1812C138.003 70.2652 137.931 70.323 137.851 70.3578C137.767 70.3942 137.674 70.4047 137.584 70.3898C137.494 70.3749 137.409 70.3349 137.342 70.2738C137.277 70.2152 137.228 70.1375 137.206 70.0423C136.664 67.6929 135.611 65.9449 133.363 64.8177C132.257 64.2632 130.986 63.9108 129.782 63.6299C129.433 63.5483 129.063 63.4954 128.691 63.4418C127.524 63.2738 126.35 63.0814 125.589 62.1515C125.131 61.5913 124.939 60.8749 125.047 60.2197C125.15 59.6028 125.515 59.0371 126.18 58.6982C127.834 57.8547 129.889 58.6824 131.559 59.3874C131.683 59.4397 131.805 59.4911 131.924 59.5406C133.557 60.2207 135.047 61.1183 136.272 62.4021C137.243 63.4205 138.144 64.9261 138.506 66.475C138.808 67.7635 138.737 69.079 138.055 70.1812Z" fill="black"/>
<path fill-rule="evenodd" clip-rule="evenodd" d="M102.09 105.177C104.057 100.559 108.348 97.1653 113.289 95.9244C116.917 95.0155 120.725 95.0445 124.424 95.4052C126.361 95.5929 128.44 95.7467 130.266 96.4682C131.826 97.0846 133.097 98.2497 134.052 99.6173C135.19 101.238 135.963 103.093 136.507 104.994C136.584 105.264 136.656 105.536 136.724 105.81C136.488 107.245 135.986 108.465 134.661 109.367C133.368 110.248 131.825 110.608 130.287 110.736C130.136 110.664 129.99 110.589 129.856 110.512C127.459 109.137 125.772 105.886 122.747 106.326C120.047 106.719 118.27 110.124 116.664 112.122C111.51 112.724 106.36 111.171 102.167 108.216C101.954 107.205 101.942 106.185 102.09 105.177M140.227 101.674C139.815 100.514 139.295 99.3908 138.68 98.3325C136.645 94.8327 133.521 92.0441 129.813 90.45C121.04 86.6843 109.69 89.3388 102.605 95.5149C100.185 97.6262 97.7382 100.729 96.9983 104.066C96.7773 104.11 96.5687 104.225 96.397 104.387C91.2786 101.157 86.0076 98.0483 81.883 93.5699C78.8877 90.316 76.8043 86.4651 75.5286 82.2336C75.4243 81.8853 74.8641 81.9362 74.881 82.3216C74.8859 82.4118 74.8907 82.5017 74.8956 82.5919C74.8422 82.4261 74.59 82.5114 74.5706 82.6723C73.8842 87.8128 73.0256 93.2628 73.8163 98.43C74.2892 101.513 75.6862 103.771 77.5538 106.208C79.5547 108.821 81.82 111.251 84.1362 113.581C85.6059 115.06 87.1412 116.766 88.9408 117.851C91.0339 119.111 93.4083 120.069 95.642 121.042C97.9146 122.034 100.221 122.95 102.571 123.745C107.269 125.339 112.125 126.44 117.065 126.923C121.021 127.308 125.542 127.728 129.333 126.236C132.238 125.093 134.583 123.026 136.444 120.54C138.469 117.832 140.07 114.747 140.955 111.494C141.875 108.116 140.421 102.219 140.227 101.674" fill="black"/>
<path fill-rule="evenodd" clip-rule="evenodd" d="M144.41 82.2229C142.761 84.4514 139.705 85.1612 136.885 84.916C130.804 84.3272 128.89 77.3791 128.691 71.9788C132.769 73.1328 128.346 64.9595 142.285 64.0607C147.199 63.6488 145.844 66.6344 148.015 68.8158C147.971 73.394 147.213 78.3686 144.41 82.2229M115.446 76.9622C111.856 93.8767 92.1958 89.8534 90.1306 74.6061C92.0376 73.2521 91.5353 69.9085 93.9045 68.697C97.6593 66.2835 102.353 66.3868 106.617 66.4434C112.067 66.8201 113.62 69.0915 116.42 71.5695C116.285 73.2247 115.897 75.1864 115.446 76.9622M152.198 61.2594C151.997 61.2257 151.795 61.1939 151.593 61.1641C151.436 61.0741 151.251 61.0049 151.036 60.9633C150.545 60.8379 150.057 60.7534 149.57 60.7078C142.583 59.1258 126.418 61.372 125.751 67.3708C123.526 68.1181 121.6 67.4489 119.021 67.5154C117.058 59.2606 83.1194 60.4257 81.4872 65.4025C81.4811 65.4008 81.4749 65.3993 81.4686 65.3973C79.9002 64.909 77.5882 65.0268 75.7931 64.9494C71.9602 64.8686 68.1229 65.2123 64.3727 66.0256C57.3503 67.1483 47.7662 68.4627 52.6502 77.285C52.6512 77.2865 52.6519 77.2882 52.6531 77.2897L52.6539 77.2889C53.4956 78.1569 54.9241 77.4579 54.9772 76.283C53.3352 72.1034 57.0439 71.6016 59.8975 70.4005C66.9978 67.8342 74.2267 67.4785 81.5702 68.2723C82.1227 68.9267 82.961 69.4973 83.847 69.7959C88.757 70.6158 86.1694 74.2799 89.273 74.8128C88.7029 87.5855 104.117 94.5575 113.048 86.1612C116.614 82.6538 117.464 77.4579 118.291 72.7746C118.728 72.6758 119.006 72.4353 119.168 72.117C120.22 71.061 120.88 70.0859 122.959 69.7959C125.038 69.5061 126.639 70.0878 126.855 70.266C126.91 70.3766 126.968 70.4875 127.036 70.5983C127.131 70.7636 127.261 70.8955 127.408 70.9992C125.355 83.7181 135.169 91.7618 145.078 85.1651C149.383 81.0908 150.293 74.853 150.473 69.2854C151.056 68.9311 151.426 68.2444 151.224 67.3811C150.945 66.1911 151.598 65.1608 152.638 64.6434C153.989 63.9715 153.75 61.5179 152.198 61.2594" fill="black"/>
<defs>
<clipPath id="clip0_63_17743">
<rect y="32" width="200" height="200" rx="100" fill="white"/>
</clipPath>
</defs>
</svg>
