<svg width="474" height="250" viewBox="0 0 474 250" fill="none" xmlns="http://www.w3.org/2000/svg">
<g filter="url(#filter0_d_40_18514)">
<g clip-path="url(#clip0_40_18514)">
<rect x="7" y="4.38086" width="460" height="236.571" rx="8.7619" fill="white"/>
<path d="M44.6767 43.9043H48.11L42.7408 28.4704H38.9438L33.5852 43.9043H36.9009L38.0774 40.1608H43.5001L44.6767 43.9043ZM40.7514 31.4224H40.8262L42.8049 37.7436H38.7727L40.7514 31.4224ZM53.2546 44.0861C54.9445 44.0861 56.2708 43.1984 56.827 41.9363H56.8804V43.9043H59.9608V28.4704H56.8377V34.4065H56.7735C56.2173 33.1337 54.9338 32.2567 53.276 32.2567C50.3989 32.2567 48.5806 34.5135 48.5806 38.15C48.5806 41.8186 50.3882 44.0861 53.2546 44.0861ZM54.3135 34.7595C55.8644 34.7595 56.8591 36.0858 56.8591 38.1714C56.8591 40.2678 55.8644 41.5726 54.3135 41.5726C52.7412 41.5726 51.7786 40.2785 51.7786 38.1714C51.7786 36.0751 52.7412 34.7595 54.3135 34.7595ZM66.3033 44.0861C67.9933 44.0861 69.3195 43.1984 69.8757 41.9363H69.9292V43.9043H73.0095V28.4704H69.8864V34.4065H69.8222C69.266 33.1337 67.9826 32.2567 66.3247 32.2567C63.4476 32.2567 61.6293 34.5135 61.6293 38.15C61.6293 41.8186 63.4369 44.0861 66.3033 44.0861ZM67.3622 34.7595C68.9131 34.7595 69.9078 36.0858 69.9078 38.1714C69.9078 40.2678 68.9131 41.5726 67.3622 41.5726C65.79 41.5726 64.8273 40.2785 64.8273 38.1714C64.8273 36.0751 65.79 34.7595 67.3622 34.7595ZM86.1331 32.2567C84.4753 32.2567 83.2025 33.091 82.5822 34.4386H82.518V32.4385H79.4376V47.6478H82.5608V41.9791H82.625C83.2346 43.2733 84.5181 44.0861 86.1866 44.0861C89.0531 44.0861 90.8285 41.8614 90.8285 38.1714C90.8285 34.4707 89.0424 32.2567 86.1331 32.2567ZM85.085 41.5726C83.5555 41.5726 82.5501 40.2464 82.5501 38.1714C82.5501 36.1178 83.5555 34.7595 85.085 34.7595C86.6465 34.7595 87.6305 36.0964 87.6305 38.1714C87.6305 40.2571 86.6465 41.5726 85.085 41.5726ZM100.038 40.3961C99.7488 41.2732 98.8717 41.84 97.7273 41.84C96.1336 41.84 95.0961 40.717 95.0961 39.0805V38.888H103V37.9361C103 34.4493 100.893 32.1925 97.5561 32.1925C94.1656 32.1925 92.0265 34.567 92.0265 38.2249C92.0265 41.8935 94.1442 44.1503 97.6738 44.1503C100.508 44.1503 102.562 42.6422 102.904 40.3961H100.038ZM97.5882 34.5028C98.9787 34.5028 99.9306 35.5082 99.9948 36.9735H95.1282C95.2352 35.5403 96.2192 34.5028 97.5882 34.5028ZM109.878 44.1503C113.343 44.1503 115.557 41.9363 115.557 38.1607C115.557 34.4386 113.311 32.1925 109.878 32.1925C106.444 32.1925 104.198 34.4493 104.198 38.1607C104.198 41.9256 106.412 44.1503 109.878 44.1503ZM109.878 41.7652C108.337 41.7652 107.364 40.471 107.364 38.1714C107.364 35.8932 108.359 34.5777 109.878 34.5777C111.396 34.5777 112.38 35.8932 112.38 38.1714C112.38 40.471 111.407 41.7652 109.878 41.7652ZM123.868 32.2567C122.21 32.2567 120.937 33.091 120.317 34.4386H120.252V32.4385H117.172V47.6478H120.295V41.9791H120.359C120.969 43.2733 122.252 44.0861 123.921 44.0861C126.787 44.0861 128.563 41.8614 128.563 38.1714C128.563 34.4707 126.777 32.2567 123.868 32.2567ZM122.819 41.5726C121.29 41.5726 120.284 40.2464 120.284 38.1714C120.284 36.1178 121.29 34.7595 122.819 34.7595C124.381 34.7595 125.365 36.0964 125.365 38.1714C125.365 40.2571 124.381 41.5726 122.819 41.5726ZM130.253 43.9043H133.376V28.4704H130.253V43.9043ZM143.077 40.3961C142.788 41.2732 141.911 41.84 140.767 41.84C139.173 41.84 138.136 40.717 138.136 39.0805V38.888H146.04V37.9361C146.04 34.4493 143.933 32.1925 140.596 32.1925C137.205 32.1925 135.066 34.567 135.066 38.2249C135.066 41.8935 137.184 44.1503 140.713 44.1503C143.548 44.1503 145.601 42.6422 145.943 40.3961H143.077ZM140.628 34.5028C142.018 34.5028 142.97 35.5082 143.034 36.9735H138.168C138.275 35.5403 139.259 34.5028 140.628 34.5028ZM152.831 29.7967V32.4385H151.216V34.7916H152.831V40.8132C152.831 43.0486 153.88 43.9471 156.575 43.9471C157.206 43.9471 157.741 43.8936 158.062 43.8187V41.5192C157.869 41.5512 157.58 41.5726 157.302 41.5726C156.382 41.5726 155.955 41.1555 155.955 40.2785V34.7916H158.072V32.4385H155.955V29.7967H152.831ZM164.875 44.1503C168.34 44.1503 170.554 41.9363 170.554 38.1607C170.554 34.4386 168.308 32.1925 164.875 32.1925C161.441 32.1925 159.195 34.4493 159.195 38.1607C159.195 41.9256 161.409 44.1503 164.875 44.1503ZM164.875 41.7652C163.335 41.7652 162.361 40.471 162.361 38.1714C162.361 35.8932 163.356 34.5777 164.875 34.5777C166.394 34.5777 167.378 35.8932 167.378 38.1714C167.378 40.471 166.404 41.7652 164.875 41.7652ZM177.988 48.1505C180.908 48.1505 182.352 47.0916 183.325 44.1503L187.272 32.4385H183.977L181.549 41.4015H181.485L179.047 32.4385H175.624L179.613 43.9043C179.624 43.9578 179.506 44.407 179.506 44.4605C179.293 45.3696 178.726 45.7333 177.592 45.7333C177.474 45.7333 176.907 45.7226 176.8 45.7012V48.1184C176.907 48.1398 177.87 48.1505 177.988 48.1505ZM193.368 44.1503C196.833 44.1503 199.047 41.9363 199.047 38.1607C199.047 34.4386 196.801 32.1925 193.368 32.1925C189.935 32.1925 187.689 34.4493 187.689 38.1607C187.689 41.9256 189.903 44.1503 193.368 44.1503ZM193.368 41.7652C191.828 41.7652 190.855 40.471 190.855 38.1714C190.855 35.8932 191.849 34.5777 193.368 34.5777C194.887 34.5777 195.871 35.8932 195.871 38.1714C195.871 40.471 194.898 41.7652 193.368 41.7652ZM211.251 32.4385H208.128V39.0057C208.128 40.5245 207.262 41.5192 205.871 41.5192C204.492 41.5192 203.732 40.7063 203.732 39.1768V32.4385H200.609V39.8292C200.609 42.5032 202.256 44.1182 204.738 44.1182C206.47 44.1182 207.604 43.2839 208.171 41.84H208.235V43.9043H211.251V32.4385ZM213.283 43.9043H216.407V37.4976C216.407 35.8825 217.305 34.9413 218.845 34.9413C219.294 34.9413 219.722 35.0162 219.979 35.1231V32.3743C219.765 32.3102 219.455 32.2567 219.091 32.2567C217.744 32.2567 216.77 33.0482 216.364 34.5028H216.3V32.4385H213.283V43.9043ZM236.087 32.4385H232.824L230.45 41.1448H230.386L228.001 32.4385H224.653L228.621 43.9043H232.151L236.087 32.4385ZM240.301 44.0861C241.734 44.0861 243.156 43.3695 243.798 42.1502H243.862V43.9043H246.879V36.0216C246.879 33.7113 244.964 32.1925 242.023 32.1925C238.985 32.1925 237.092 33.722 236.974 35.9467H239.83C239.98 35.1017 240.718 34.5242 241.884 34.5242C243.06 34.5242 243.809 35.1445 243.809 36.2141V36.9735L240.921 37.1446C238.065 37.3158 236.461 38.5244 236.461 40.61C236.461 42.6743 238.119 44.0861 240.301 44.0861ZM241.328 41.8293C240.269 41.8293 239.563 41.2945 239.563 40.4389C239.563 39.626 240.226 39.1019 241.392 39.0164L243.809 38.8666V39.7009C243.809 40.9416 242.686 41.8293 241.328 41.8293ZM259.489 32.4385H256.366V39.0057C256.366 40.5245 255.499 41.5192 254.109 41.5192C252.729 41.5192 251.97 40.7063 251.97 39.1768V32.4385H248.847V39.8292C248.847 42.5032 250.494 44.1182 252.975 44.1182C254.708 44.1182 255.842 43.2839 256.408 41.84H256.473V43.9043H259.489V32.4385ZM261.596 43.9043H264.719V28.4704H261.596V43.9043ZM267.66 29.7967V32.4385H266.045V34.7916H267.66V40.8132C267.66 43.0486 268.708 43.9471 271.404 43.9471C272.035 43.9471 272.57 43.8936 272.89 43.8187V41.5192C272.698 41.5512 272.409 41.5726 272.131 41.5726C271.211 41.5726 270.783 41.1555 270.783 40.2785V34.7916H272.901V32.4385H270.783V29.7967H267.66ZM274.42 35.8077C274.42 37.5297 275.543 38.642 277.757 39.1126L279.714 39.5191C280.837 39.7758 281.233 40.118 281.233 40.7277C281.233 41.4764 280.506 41.9577 279.329 41.9577C278.089 41.9577 277.372 41.4229 277.179 40.4175H274.131C274.334 42.6743 276.163 44.1503 279.329 44.1503C282.281 44.1503 284.346 42.6636 284.346 40.4068C284.346 38.7276 283.362 37.7864 280.966 37.2837L279.008 36.8665C277.853 36.6205 277.425 36.2248 277.425 35.6365C277.425 34.8771 278.142 34.3851 279.222 34.3851C280.377 34.3851 281.073 35.0162 281.169 35.9467H284.046C283.982 33.7006 282.164 32.1925 279.222 32.1925C276.302 32.1925 274.42 33.6257 274.42 35.8077Z" fill="#333333"/>
<path d="M42.5097 76.666H44.1269L39.5748 64.3189H38.0518L33.4997 76.666H35.1169L36.3576 73.1322H41.269L42.5097 76.666ZM38.7876 66.1928H38.839L40.8155 71.823H36.8111L38.7876 66.1928ZM48.5079 76.82C49.7913 76.82 50.8096 76.1868 51.3829 75.1601H51.4085V76.666H52.8289V64.3189H51.3401V69.2133H51.3059C50.7753 68.2378 49.7486 67.6132 48.4736 67.6132C46.2318 67.6132 44.7002 69.4272 44.7002 72.2166C44.7002 75.006 46.2404 76.82 48.5079 76.82ZM48.7902 68.9223C50.3219 68.9223 51.3486 70.2315 51.3486 72.2166C51.3486 74.2103 50.3219 75.5109 48.7902 75.5109C47.2158 75.5109 46.2233 74.236 46.2233 72.2166C46.2233 70.2058 47.2158 68.9223 48.7902 68.9223ZM58.211 76.82C59.4945 76.82 60.5127 76.1868 61.086 75.1601H61.1117V76.666H62.532V64.3189H61.0432V69.2133H61.009C60.4785 68.2378 59.4517 67.6132 58.1768 67.6132C55.9349 67.6132 54.4033 69.4272 54.4033 72.2166C54.4033 75.006 55.9435 76.82 58.211 76.82ZM58.4934 68.9223C60.025 68.9223 61.0518 70.2315 61.0518 72.2166C61.0518 74.2103 60.025 75.5109 58.4934 75.5109C56.919 75.5109 55.9264 74.236 55.9264 72.2166C55.9264 70.2058 56.919 68.9223 58.4934 68.9223ZM68.881 79.9945C70.4896 79.9945 71.2255 79.3699 71.987 77.2906L75.4867 67.7672H73.9208L71.4565 75.1772H71.4309L68.9666 67.7672H67.3751L70.6608 76.6746L70.4554 77.2992C70.1131 78.3345 69.6511 78.7367 68.8211 78.7367C68.6329 78.7367 68.4018 78.7281 68.2393 78.6939V79.9432C68.4018 79.9774 68.7013 79.9945 68.881 79.9945ZM80.0901 76.82C82.5458 76.82 84.2058 75.0488 84.2058 72.2166C84.2058 69.3758 82.5458 67.6132 80.0901 67.6132C77.6258 67.6132 75.9658 69.3758 75.9658 72.2166C75.9658 75.0488 77.6258 76.82 80.0901 76.82ZM80.0901 75.5109C78.5157 75.5109 77.4803 74.313 77.4803 72.2166C77.4803 70.1203 78.5157 68.9223 80.0901 68.9223C81.6645 68.9223 82.6913 70.1203 82.6913 72.2166C82.6913 74.313 81.6645 75.5109 80.0901 75.5109ZM93.019 67.7672H91.5302V72.9953C91.5302 74.5098 90.6574 75.5023 89.2114 75.5023C87.8338 75.5023 87.1578 74.7237 87.1578 73.2776V67.7672H85.6689V73.5429C85.6689 75.5622 86.807 76.82 88.7493 76.82C90.1184 76.82 91.0425 76.2467 91.573 75.22H91.6072V76.666H93.019V67.7672ZM94.9528 76.666H96.4416V71.1214C96.4416 69.8636 97.1946 69.0336 98.3498 69.0336C98.7091 69.0336 99.0257 69.0764 99.1455 69.1191V67.6731C99.0257 67.656 98.8033 67.6132 98.5466 67.6132C97.5027 67.6132 96.6812 68.2378 96.3903 69.2218H96.3561V67.7672H94.9528V76.666ZM104.776 66.1842C105.298 66.1842 105.708 65.765 105.708 65.2516C105.708 64.7296 105.298 64.3189 104.776 64.3189C104.262 64.3189 103.843 64.7296 103.843 65.2516C103.843 65.765 104.262 66.1842 104.776 66.1842ZM104.031 76.666H105.52V67.7672H104.031V76.666ZM107.531 76.666H109.02V71.4294C109.02 69.9235 109.935 68.9309 111.339 68.9309C112.708 68.9309 113.384 69.7181 113.384 71.1556V76.666H114.872V70.8903C114.872 68.871 113.743 67.6132 111.792 67.6132C110.414 67.6132 109.465 68.2293 108.968 69.1876H108.934V67.7672H107.531V76.666ZM124.071 67.7672H122.522L120.058 75.0831H120.023L117.568 67.7672H116.002L119.279 76.666H120.802L124.071 67.7672ZM126.064 66.1842C126.586 66.1842 126.997 65.765 126.997 65.2516C126.997 64.7296 126.586 64.3189 126.064 64.3189C125.551 64.3189 125.132 64.7296 125.132 65.2516C125.132 65.765 125.551 66.1842 126.064 66.1842ZM125.32 76.666H126.809V67.7672H125.32V76.666ZM129.299 65.6195V67.7672H127.973V68.9908H129.299V74.3557C129.299 76.0671 129.932 76.7345 131.566 76.7345C131.917 76.7345 132.328 76.7088 132.507 76.666V75.4168C132.405 75.4339 132.063 75.4595 131.891 75.4595C131.13 75.4595 130.788 75.0916 130.788 74.2787V68.9908H132.516V67.7672H130.788V65.6195H129.299ZM139.755 74.1162C139.507 74.9547 138.677 75.528 137.547 75.528C135.947 75.528 134.946 74.4071 134.946 72.7043V72.6188H141.329V72.054C141.329 69.3587 139.849 67.6132 137.445 67.6132C134.989 67.6132 133.414 69.4871 133.414 72.2508C133.414 75.0488 134.963 76.82 137.513 76.82C139.455 76.82 140.961 75.6735 141.218 74.1162H139.755ZM137.419 68.9052C138.822 68.9052 139.755 69.9662 139.789 71.4551H134.955C135.049 69.9748 136.024 68.9052 137.419 68.9052ZM146.207 76.82C147.49 76.82 148.508 76.1868 149.082 75.1601H149.107V76.666H150.528V64.3189H149.039V69.2133H149.005C148.474 68.2378 147.447 67.6132 146.172 67.6132C143.93 67.6132 142.399 69.4272 142.399 72.2166C142.399 75.006 143.939 76.82 146.207 76.82ZM146.489 68.9223C148.021 68.9223 149.047 70.2315 149.047 72.2166C149.047 74.2103 148.021 75.5109 146.489 75.5109C144.914 75.5109 143.922 74.236 143.922 72.2166C143.922 70.2058 144.914 68.9223 146.489 68.9223ZM156.611 65.6195V67.7672H155.285V68.9908H156.611V74.3557C156.611 76.0671 157.244 76.7345 158.879 76.7345C159.23 76.7345 159.64 76.7088 159.82 76.666V75.4168C159.717 75.4339 159.375 75.4595 159.204 75.4595C158.442 75.4595 158.1 75.0916 158.1 74.2787V68.9908H159.829V67.7672H158.1V65.6195H156.611ZM167.067 74.1162C166.819 74.9547 165.989 75.528 164.86 75.528C163.26 75.528 162.259 74.4071 162.259 72.7043V72.6188H168.642V72.054C168.642 69.3587 167.162 67.6132 164.757 67.6132C162.301 67.6132 160.727 69.4871 160.727 72.2508C160.727 75.0488 162.276 76.82 164.826 76.82C166.768 76.82 168.274 75.6735 168.531 74.1162H167.067ZM164.731 68.9052C166.135 68.9052 167.067 69.9662 167.102 71.4551H162.267C162.361 69.9748 163.337 68.9052 164.731 68.9052ZM172.749 76.82C173.947 76.82 175.076 76.1526 175.607 75.1344H175.641V76.666H177.053V70.5139C177.053 68.7427 175.735 67.6132 173.647 67.6132C171.542 67.6132 170.225 68.794 170.122 70.3342H171.56C171.748 69.4614 172.467 68.9223 173.613 68.9223C174.845 68.9223 175.564 69.5726 175.564 70.6593V71.4037L173.014 71.5492C170.961 71.669 169.788 72.6273 169.788 74.1504C169.788 75.7505 170.978 76.82 172.749 76.82ZM173.083 75.5537C172.013 75.5537 171.303 74.9975 171.303 74.1504C171.303 73.3118 171.987 72.7813 173.185 72.7043L175.564 72.5589V73.2862C175.564 74.5697 174.486 75.5537 173.083 75.5537ZM178.944 76.666H180.433V71.0871C180.433 69.855 181.288 68.9309 182.469 68.9309C183.573 68.9309 184.292 69.6325 184.292 70.7021V76.666H185.781V71.0101C185.781 69.8037 186.611 68.9309 187.791 68.9309C188.964 68.9309 189.64 69.6496 189.64 70.8647V76.666H191.128V70.5224C191.128 68.7598 189.99 67.6132 188.228 67.6132C186.978 67.6132 185.935 68.2464 185.438 69.3074H185.404C185.019 68.2293 184.121 67.6132 182.906 67.6132C181.708 67.6132 180.801 68.2464 180.381 69.1876H180.347V67.7672H178.944V76.666ZM196.622 76.666H198.111V71.0871C198.111 69.855 198.966 68.9309 200.147 68.9309C201.251 68.9309 201.97 69.6325 201.97 70.7021V76.666H203.458V71.0101C203.458 69.8037 204.288 68.9309 205.469 68.9309C206.641 68.9309 207.317 69.6496 207.317 70.8647V76.666H208.806V70.5224C208.806 68.7598 207.668 67.6132 205.906 67.6132C204.656 67.6132 203.612 68.2464 203.116 69.3074H203.082C202.697 68.2293 201.798 67.6132 200.583 67.6132C199.385 67.6132 198.478 68.2464 198.059 69.1876H198.025V67.7672H196.622V76.666ZM216.61 74.1162C216.362 74.9547 215.532 75.528 214.402 75.528C212.802 75.528 211.801 74.4071 211.801 72.7043V72.6188H218.184V72.054C218.184 69.3587 216.704 67.6132 214.3 67.6132C211.844 67.6132 210.269 69.4871 210.269 72.2508C210.269 75.0488 211.818 76.82 214.368 76.82C216.31 76.82 217.816 75.6735 218.073 74.1162H216.61ZM214.274 68.9052C215.677 68.9052 216.61 69.9662 216.644 71.4551H211.81C211.904 69.9748 212.879 68.9052 214.274 68.9052ZM219.69 76.666H221.179V71.0871C221.179 69.855 222.035 68.9309 223.215 68.9309C224.319 68.9309 225.038 69.6325 225.038 70.7021V76.666H226.527V71.0101C226.527 69.8037 227.357 68.9309 228.538 68.9309C229.71 68.9309 230.386 69.6496 230.386 70.8647V76.666H231.875V70.5224C231.875 68.7598 230.737 67.6132 228.974 67.6132C227.725 67.6132 226.681 68.2464 226.185 69.3074H226.15C225.765 68.2293 224.867 67.6132 223.652 67.6132C222.454 67.6132 221.547 68.2464 221.128 69.1876H221.093V67.7672H219.69V76.666ZM238.198 76.82C240.474 76.82 241.98 75.0146 241.98 72.2166C241.98 69.4272 240.465 67.6132 238.224 67.6132C236.966 67.6132 235.93 68.2378 235.374 69.256H235.34V64.3189H233.851V76.666H235.272V75.1601H235.306C235.879 76.1868 236.897 76.82 238.198 76.82ZM237.907 68.9223C239.481 68.9223 240.457 70.1973 240.457 72.2166C240.457 74.2531 239.481 75.5109 237.907 75.5109C236.401 75.5109 235.332 74.2017 235.332 72.2166C235.332 70.24 236.401 68.9223 237.907 68.9223ZM249.398 74.1162C249.15 74.9547 248.32 75.528 247.191 75.528C245.591 75.528 244.59 74.4071 244.59 72.7043V72.6188H250.973V72.054C250.973 69.3587 249.493 67.6132 247.088 67.6132C244.632 67.6132 243.058 69.4871 243.058 72.2508C243.058 75.0488 244.607 76.82 247.157 76.82C249.099 76.82 250.605 75.6735 250.862 74.1162H249.398ZM247.063 68.9052C248.466 68.9052 249.398 69.9662 249.433 71.4551H244.598C244.692 69.9748 245.668 68.9052 247.063 68.9052ZM252.479 76.666H253.968V71.1214C253.968 69.8636 254.721 69.0336 255.876 69.0336C256.235 69.0336 256.552 69.0764 256.672 69.1191V67.6731C256.552 67.656 256.329 67.6132 256.073 67.6132C255.029 67.6132 254.207 68.2378 253.916 69.2218H253.882V67.7672H252.479V76.666ZM257.733 70.2229C257.733 71.5064 258.545 72.2851 260.223 72.6872L261.634 73.0295C262.653 73.2776 263.003 73.6456 263.003 74.2873C263.003 75.0916 262.259 75.605 261.053 75.605C259.846 75.605 259.162 75.1173 258.982 74.0991H257.493C257.664 75.7676 258.965 76.82 261.053 76.82C263.038 76.82 264.501 75.7248 264.501 74.1761C264.501 72.9011 263.85 72.1995 262.054 71.7631L260.642 71.4209C259.649 71.1813 259.196 70.762 259.196 70.1459C259.196 69.3673 259.914 68.8282 261.001 68.8282C262.096 68.8282 262.781 69.4015 262.892 70.3342H264.313C264.253 68.7598 262.952 67.6132 261.001 67.6132C259.076 67.6132 257.733 68.6999 257.733 70.2229ZM270.122 65.6195V67.7672H268.796V68.9908H270.122V74.3557C270.122 76.0671 270.756 76.7345 272.39 76.7345C272.741 76.7345 273.151 76.7088 273.331 76.666V75.4168C273.228 75.4339 272.886 75.4595 272.715 75.4595C271.954 75.4595 271.611 75.0916 271.611 74.2787V68.9908H273.34V67.7672H271.611V65.6195H270.122ZM278.362 76.82C280.818 76.82 282.478 75.0488 282.478 72.2166C282.478 69.3758 280.818 67.6132 278.362 67.6132C275.898 67.6132 274.238 69.3758 274.238 72.2166C274.238 75.0488 275.898 76.82 278.362 76.82ZM278.362 75.5109C276.788 75.5109 275.753 74.313 275.753 72.2166C275.753 70.1203 276.788 68.9223 278.362 68.9223C279.937 68.9223 280.964 70.1203 280.964 72.2166C280.964 74.313 279.937 75.5109 278.362 75.5109ZM41.5514 90.7672H40.0027L37.5384 98.0831H37.5041L35.0484 90.7672H33.4826L36.7597 99.666H38.2828L41.5514 90.7672ZM45.1537 99.82C46.3516 99.82 47.4811 99.1526 48.0116 98.1344H48.0458V99.666H49.4576V93.5139C49.4576 91.7427 48.1399 90.6132 46.0521 90.6132C43.9472 90.6132 42.6295 91.794 42.5268 93.3342H43.9643C44.1526 92.4614 44.8713 91.9223 46.0179 91.9223C47.2501 91.9223 47.9688 92.5726 47.9688 93.6593V94.4037L45.419 94.5492C43.3654 94.669 42.1931 95.6273 42.1931 97.1504C42.1931 98.7505 43.3825 99.82 45.1537 99.82ZM45.4874 98.5537C44.4178 98.5537 43.7076 97.9975 43.7076 97.1504C43.7076 96.3118 44.3922 95.7813 45.5901 95.7043L47.9688 95.5589V96.2862C47.9688 97.5697 46.8907 98.5537 45.4874 98.5537ZM58.6559 90.7672H57.1671V95.9953C57.1671 97.5098 56.2943 98.5023 54.8483 98.5023C53.4707 98.5023 52.7947 97.7237 52.7947 96.2776V90.7672H51.3059V96.5429C51.3059 98.5622 52.4439 99.82 54.3862 99.82C55.7553 99.82 56.6794 99.2467 57.2099 98.22H57.2441V99.666H58.6559V90.7672ZM60.6667 99.666H62.1556V87.3189H60.6667V99.666ZM64.6455 88.6195V90.7672H63.3192V91.9908H64.6455V97.3557C64.6455 99.0671 65.2787 99.7345 66.913 99.7345C67.2638 99.7345 67.6745 99.7088 67.8542 99.666V98.4168C67.7515 98.4339 67.4093 98.4595 67.2381 98.4595C66.4766 98.4595 66.1344 98.0916 66.1344 97.2787V91.9908H67.8628V90.7672H66.1344V88.6195H64.6455ZM69.3003 93.2229C69.3003 94.5064 70.1131 95.2851 71.7902 95.6872L73.2021 96.0295C74.2203 96.2776 74.5711 96.6456 74.5711 97.2873C74.5711 98.0916 73.8267 98.605 72.6202 98.605C71.4137 98.605 70.7292 98.1173 70.5495 97.0991H69.0607C69.2318 98.7676 70.5324 99.82 72.6202 99.82C74.6053 99.82 76.0685 98.7248 76.0685 97.1761C76.0685 95.9011 75.4182 95.1995 73.6213 94.7631L72.2095 94.4209C71.2169 94.1813 70.7634 93.762 70.7634 93.1459C70.7634 92.3673 71.4822 91.8282 72.5689 91.8282C73.6641 91.8282 74.3486 92.4015 74.4599 93.3342H75.8803C75.8204 91.7598 74.5198 90.6132 72.5689 90.6132C70.6437 90.6132 69.3003 91.6999 69.3003 93.2229ZM81.057 93.2229C81.057 94.5064 81.8698 95.2851 83.5469 95.6872L84.9588 96.0295C85.977 96.2776 86.3278 96.6456 86.3278 97.2873C86.3278 98.0916 85.5834 98.605 84.3769 98.605C83.1704 98.605 82.4859 98.1173 82.3062 97.0991H80.8174C80.9885 98.7676 82.2891 99.82 84.3769 99.82C86.362 99.82 87.8252 98.7248 87.8252 97.1761C87.8252 95.9011 87.1749 95.1995 85.378 94.7631L83.9662 94.4209C82.9736 94.1813 82.5201 93.762 82.5201 93.1459C82.5201 92.3673 83.2389 91.8282 84.3256 91.8282C85.4208 91.8282 86.1053 92.4015 86.2166 93.3342H87.637C87.5771 91.7598 86.2765 90.6132 84.3256 90.6132C82.4004 90.6132 81.057 91.6999 81.057 93.2229ZM93.0618 99.82C95.5175 99.82 97.1775 98.0488 97.1775 95.2166C97.1775 92.3758 95.5175 90.6132 93.0618 90.6132C90.5975 90.6132 88.9376 92.3758 88.9376 95.2166C88.9376 98.0488 90.5975 99.82 93.0618 99.82ZM93.0618 98.5109C91.4874 98.5109 90.4521 97.313 90.4521 95.2166C90.4521 93.1203 91.4874 91.9223 93.0618 91.9223C94.6362 91.9223 95.663 93.1203 95.663 95.2166C95.663 97.313 94.6362 98.5109 93.0618 98.5109ZM102.756 88.6195V90.7672H101.43V91.9908H102.756V97.3557C102.756 99.0671 103.39 99.7345 105.024 99.7345C105.375 99.7345 105.785 99.7088 105.965 99.666V98.4168C105.862 98.4339 105.52 98.4595 105.349 98.4595C104.587 98.4595 104.245 98.0916 104.245 97.2787V91.9908H105.974V90.7672H104.245V88.6195H102.756ZM107.642 99.666H109.131V94.4807C109.131 92.9406 110.047 91.9309 111.527 91.9309C112.922 91.9309 113.632 92.778 113.632 94.1898V99.666H115.121V93.916C115.121 91.9309 113.94 90.6132 111.989 90.6132C110.637 90.6132 109.662 91.195 109.165 92.1876H109.131V87.3189H107.642V99.666ZM122.916 97.1162C122.667 97.9547 121.837 98.528 120.708 98.528C119.108 98.528 118.107 97.4071 118.107 95.7043V95.6188H124.49V95.054C124.49 92.3587 123.01 90.6132 120.605 90.6132C118.15 90.6132 116.575 92.4871 116.575 95.2508C116.575 98.0488 118.124 99.82 120.674 99.82C122.616 99.82 124.122 98.6735 124.379 97.1162H122.916ZM120.58 91.9052C121.983 91.9052 122.916 92.9662 122.95 94.4551H118.115C118.209 92.9748 119.185 91.9052 120.58 91.9052ZM126.74 102.995C128.349 102.995 129.085 102.37 129.846 100.291L133.346 90.7672H131.78L129.316 98.1772H129.29L126.826 90.7672H125.234L128.52 99.6746L128.315 100.299C127.973 101.335 127.51 101.737 126.68 101.737C126.492 101.737 126.261 101.728 126.099 101.694V102.943C126.261 102.977 126.561 102.995 126.74 102.995ZM145.505 93.685C145.317 92.0849 143.99 90.6132 141.766 90.6132C139.31 90.6132 137.676 92.4101 137.676 95.2166C137.676 98.0831 139.319 99.82 141.783 99.82C143.802 99.82 145.291 98.5708 145.522 96.7996H144.059C143.802 97.8691 143.006 98.5109 141.791 98.5109C140.251 98.5109 139.19 97.2873 139.19 95.2166C139.19 93.1973 140.234 91.9223 141.774 91.9223C143.083 91.9223 143.836 92.7181 144.05 93.685H145.505ZM149.492 99.82C150.69 99.82 151.82 99.1526 152.35 98.1344H152.384V99.666H153.796V93.5139C153.796 91.7427 152.478 90.6132 150.391 90.6132C148.286 90.6132 146.968 91.794 146.865 93.3342H148.303C148.491 92.4614 149.21 91.9223 150.356 91.9223C151.589 91.9223 152.307 92.5726 152.307 93.6593V94.4037L149.757 94.5492C147.704 94.669 146.532 95.6273 146.532 97.1504C146.532 98.7505 147.721 99.82 149.492 99.82ZM149.826 98.5537C148.756 98.5537 148.046 97.9975 148.046 97.1504C148.046 96.3118 148.731 95.7813 149.929 95.7043L152.307 95.5589V96.2862C152.307 97.5697 151.229 98.5537 149.826 98.5537ZM155.687 99.666H157.176V94.4294C157.176 92.9235 158.092 91.9309 159.495 91.9309C160.864 91.9309 161.54 92.7181 161.54 94.1556V99.666H163.029V93.8903C163.029 91.871 161.899 90.6132 159.948 90.6132C158.571 90.6132 157.621 91.2293 157.125 92.1876H157.09V90.7672H155.687V99.666ZM168.368 93.2229C168.368 94.5064 169.181 95.2851 170.858 95.6872L172.27 96.0295C173.288 96.2776 173.639 96.6456 173.639 97.2873C173.639 98.0916 172.894 98.605 171.688 98.605C170.481 98.605 169.797 98.1173 169.617 97.0991H168.128C168.3 98.7676 169.6 99.82 171.688 99.82C173.673 99.82 175.136 98.7248 175.136 97.1761C175.136 95.9011 174.486 95.1995 172.689 94.7631L171.277 94.4209C170.285 94.1813 169.831 93.762 169.831 93.1459C169.831 92.3673 170.55 91.8282 171.637 91.8282C172.732 91.8282 173.416 92.4015 173.528 93.3342H174.948C174.888 91.7598 173.587 90.6132 171.637 90.6132C169.711 90.6132 168.368 91.6999 168.368 93.2229ZM177.164 88.6195V90.7672H175.838V91.9908H177.164V97.3557C177.164 99.0671 177.797 99.7345 179.432 99.7345C179.782 99.7345 180.193 99.7088 180.373 99.666V98.4168C180.27 98.4339 179.928 98.4595 179.757 98.4595C178.995 98.4595 178.653 98.0916 178.653 97.2787V91.9908H180.381V90.7672H178.653V88.6195H177.164ZM184.403 99.82C185.601 99.82 186.73 99.1526 187.261 98.1344H187.295V99.666H188.707V93.5139C188.707 91.7427 187.389 90.6132 185.301 90.6132C183.196 90.6132 181.879 91.794 181.776 93.3342H183.214C183.402 92.4614 184.121 91.9223 185.267 91.9223C186.499 91.9223 187.218 92.5726 187.218 93.6593V94.4037L184.668 94.5492C182.615 94.669 181.442 95.6273 181.442 97.1504C181.442 98.7505 182.632 99.82 184.403 99.82ZM184.737 98.5537C183.667 98.5537 182.957 97.9975 182.957 97.1504C182.957 96.3118 183.641 95.7813 184.839 95.7043L187.218 95.5589V96.2862C187.218 97.5697 186.14 98.5537 184.737 98.5537ZM190.598 99.666H192.087V94.1214C192.087 92.8636 192.84 92.0336 193.995 92.0336C194.354 92.0336 194.671 92.0764 194.791 92.1191V90.6731C194.671 90.656 194.448 90.6132 194.192 90.6132C193.148 90.6132 192.326 91.2378 192.035 92.2218H192.001V90.7672H190.598V99.666ZM196.485 88.6195V90.7672H195.159V91.9908H196.485V97.3557C196.485 99.0671 197.118 99.7345 198.752 99.7345C199.103 99.7345 199.514 99.7088 199.694 99.666V98.4168C199.591 98.4339 199.249 98.4595 199.077 98.4595C198.316 98.4595 197.974 98.0916 197.974 97.2787V91.9908H199.702V90.7672H197.974V88.6195H196.485ZM207.489 99.82C208.686 99.82 209.816 99.1526 210.346 98.1344H210.381V99.666H211.792V93.5139C211.792 91.7427 210.475 90.6132 208.387 90.6132C206.282 90.6132 204.964 91.794 204.862 93.3342H206.299C206.487 92.4614 207.206 91.9223 208.353 91.9223C209.585 91.9223 210.304 92.5726 210.304 93.6593V94.4037L207.754 94.5492C205.7 94.669 204.528 95.6273 204.528 97.1504C204.528 98.7505 205.717 99.82 207.489 99.82ZM207.822 98.5537C206.753 98.5537 206.042 97.9975 206.042 97.1504C206.042 96.3118 206.727 95.7813 207.925 95.7043L210.304 95.5589V96.2862C210.304 97.5697 209.226 98.5537 207.822 98.5537ZM217.055 99.82C218.338 99.82 219.356 99.1868 219.93 98.1601H219.955V99.666H221.376V87.3189H219.887V92.2133H219.853C219.322 91.2378 218.295 90.6132 217.021 90.6132C214.779 90.6132 213.247 92.4272 213.247 95.2166C213.247 98.006 214.787 99.82 217.055 99.82ZM217.337 91.9223C218.869 91.9223 219.896 93.2315 219.896 95.2166C219.896 97.2103 218.869 98.5109 217.337 98.5109C215.763 98.5109 214.77 97.236 214.77 95.2166C214.77 93.2058 215.763 91.9223 217.337 91.9223ZM226.758 99.82C228.041 99.82 229.06 99.1868 229.633 98.1601H229.659V99.666H231.079V87.3189H229.59V92.2133H229.556C229.025 91.2378 227.999 90.6132 226.724 90.6132C224.482 90.6132 222.95 92.4272 222.95 95.2166C222.95 98.006 224.49 99.82 226.758 99.82ZM227.04 91.9223C228.572 91.9223 229.599 93.2315 229.599 95.2166C229.599 97.2103 228.572 98.5109 227.04 98.5109C225.466 98.5109 224.473 97.236 224.473 95.2166C224.473 93.2058 225.466 91.9223 227.04 91.9223ZM233.911 89.1842C234.433 89.1842 234.844 88.765 234.844 88.2516C234.844 87.7296 234.433 87.3189 233.911 87.3189C233.398 87.3189 232.978 87.7296 232.978 88.2516C232.978 88.765 233.398 89.1842 233.911 89.1842ZM233.167 99.666H234.656V90.7672H233.167V99.666ZM236.666 99.666H238.155V94.4294C238.155 92.9235 239.071 91.9309 240.474 91.9309C241.843 91.9309 242.519 92.7181 242.519 94.1556V99.666H244.008V93.8903C244.008 91.871 242.878 90.6132 240.928 90.6132C239.55 90.6132 238.6 91.2293 238.104 92.1876H238.07V90.7672H236.666V99.666ZM249.578 103.02C252.034 103.02 253.6 101.608 253.6 99.4863V90.7672H252.179V92.2646H252.154C251.563 91.2293 250.519 90.6132 249.262 90.6132C246.96 90.6132 245.471 92.393 245.471 95.1824C245.471 97.9461 246.96 99.7345 249.227 99.7345C250.477 99.7345 251.529 99.1013 252.077 98.1344H252.111V99.5377C252.111 100.864 251.178 101.754 249.638 101.754C248.526 101.754 247.644 101.215 247.353 100.402H245.822C246.07 101.916 247.619 103.02 249.578 103.02ZM249.527 98.4253C247.995 98.4253 246.994 97.1761 246.994 95.1824C246.994 93.1887 247.995 91.9223 249.527 91.9223C251.076 91.9223 252.111 93.2229 252.111 95.1824C252.111 97.1418 251.076 98.4253 249.527 98.4253ZM261.737 99.82C262.935 99.82 264.064 99.1526 264.595 98.1344H264.629V99.666H266.041V93.5139C266.041 91.7427 264.723 90.6132 262.635 90.6132C260.531 90.6132 259.213 91.794 259.11 93.3342H260.548C260.736 92.4614 261.455 91.9223 262.601 91.9223C263.833 91.9223 264.552 92.5726 264.552 93.6593V94.4037L262.002 94.5492C259.949 94.669 258.776 95.6273 258.776 97.1504C258.776 98.7505 259.966 99.82 261.737 99.82ZM262.071 98.5537C261.001 98.5537 260.291 97.9975 260.291 97.1504C260.291 96.3118 260.975 95.7813 262.173 95.7043L264.552 95.5589V96.2862C264.552 97.5697 263.474 98.5537 262.071 98.5537ZM267.932 99.666H269.421V94.4294C269.421 92.9235 270.336 91.9309 271.74 91.9309C273.109 91.9309 273.785 92.7181 273.785 94.1556V99.666H275.273V93.8903C275.273 91.871 274.144 90.6132 272.193 90.6132C270.816 90.6132 269.866 91.2293 269.369 92.1876H269.335V90.7672H267.932V99.666ZM280.544 99.82C281.828 99.82 282.846 99.1868 283.419 98.1601H283.445V99.666H284.865V87.3189H283.377V92.2133H283.342C282.812 91.2378 281.785 90.6132 280.51 90.6132C278.268 90.6132 276.737 92.4272 276.737 95.2166C276.737 98.006 278.277 99.82 280.544 99.82ZM280.827 91.9223C282.358 91.9223 283.385 93.2315 283.385 95.2166C283.385 97.2103 282.358 98.5109 280.827 98.5109C279.252 98.5109 278.26 97.236 278.26 95.2166C278.26 93.2058 279.252 91.9223 280.827 91.9223ZM36.8538 122.82C38.0518 122.82 39.1812 122.153 39.7117 121.134H39.746V122.666H41.1578V116.514C41.1578 114.743 39.8401 113.613 37.7523 113.613C35.6474 113.613 34.3297 114.794 34.227 116.334H35.6645C35.8527 115.461 36.5715 114.922 37.7181 114.922C38.9502 114.922 39.669 115.573 39.669 116.659V117.404L37.1191 117.549C35.0655 117.669 33.8933 118.627 33.8933 120.15C33.8933 121.75 35.0826 122.82 36.8538 122.82ZM37.1876 121.554C36.118 121.554 35.4078 120.997 35.4078 120.15C35.4078 119.312 36.0923 118.781 37.2902 118.704L39.669 118.559V119.286C39.669 120.57 38.5908 121.554 37.1876 121.554ZM50.4416 116.685C50.2534 115.085 48.9271 113.613 46.7024 113.613C44.2467 113.613 42.6124 115.41 42.6124 118.217C42.6124 121.083 44.2553 122.82 46.7195 122.82C48.7389 122.82 50.2277 121.571 50.4588 119.8H48.9956C48.7389 120.869 47.9431 121.511 46.7281 121.511C45.1879 121.511 44.1269 120.287 44.1269 118.217C44.1269 116.197 45.1708 114.922 46.711 114.922C48.0201 114.922 48.7731 115.718 48.987 116.685H50.4416ZM59.2207 116.685C59.0324 115.085 57.7062 113.613 55.4815 113.613C53.0257 113.613 51.3914 115.41 51.3914 118.217C51.3914 121.083 53.0343 122.82 55.4986 122.82C57.5179 122.82 59.0067 121.571 59.2378 119.8H57.7746C57.5179 120.869 56.7222 121.511 55.5071 121.511C53.9669 121.511 52.9059 120.287 52.9059 118.217C52.9059 116.197 53.9498 114.922 55.49 114.922C56.7992 114.922 57.5521 115.718 57.7661 116.685H59.2207ZM66.5108 120.116C66.2627 120.955 65.4327 121.528 64.3033 121.528C62.7032 121.528 61.7021 120.407 61.7021 118.704V118.619H68.0852V118.054C68.0852 115.359 66.605 113.613 64.2006 113.613C61.7448 113.613 60.1704 115.487 60.1704 118.251C60.1704 121.049 61.7192 122.82 64.269 122.82C66.2114 122.82 67.7173 121.673 67.974 120.116H66.5108ZM64.1749 114.905C65.5782 114.905 66.5108 115.966 66.5451 117.455H61.7106C61.8047 115.975 62.7802 114.905 64.1749 114.905ZM69.4372 116.223C69.4372 117.506 70.25 118.285 71.9271 118.687L73.339 119.029C74.3572 119.278 74.708 119.646 74.708 120.287C74.708 121.092 73.9636 121.605 72.7571 121.605C71.5506 121.605 70.8661 121.117 70.6864 120.099H69.1976C69.3687 121.768 70.6693 122.82 72.7571 122.82C74.7422 122.82 76.2054 121.725 76.2054 120.176C76.2054 118.901 75.5551 118.199 73.7582 117.763L72.3464 117.421C71.3538 117.181 70.9003 116.762 70.9003 116.146C70.9003 115.367 71.6191 114.828 72.7058 114.828C73.801 114.828 74.4855 115.402 74.5968 116.334H76.0172C75.9573 114.76 74.6567 113.613 72.7058 113.613C70.7806 113.613 69.4372 114.7 69.4372 116.223ZM77.6001 116.223C77.6001 117.506 78.413 118.285 80.0901 118.687L81.5019 119.029C82.5201 119.278 82.871 119.646 82.871 120.287C82.871 121.092 82.1265 121.605 80.9201 121.605C79.7136 121.605 79.0291 121.117 78.8494 120.099H77.3605C77.5317 121.768 78.8323 122.82 80.9201 122.82C82.9052 122.82 84.3684 121.725 84.3684 120.176C84.3684 118.901 83.7181 118.199 81.9212 117.763L80.5094 117.421C79.5168 117.181 79.0633 116.762 79.0633 116.146C79.0633 115.367 79.782 114.828 80.8687 114.828C81.964 114.828 82.6485 115.402 82.7597 116.334H84.1801C84.1202 114.76 82.8196 113.613 80.8687 113.613C78.9435 113.613 77.6001 114.7 77.6001 116.223ZM86.7385 112.184C87.2605 112.184 87.6712 111.765 87.6712 111.252C87.6712 110.73 87.2605 110.319 86.7385 110.319C86.2251 110.319 85.8059 110.73 85.8059 111.252C85.8059 111.765 86.2251 112.184 86.7385 112.184ZM85.9941 122.666H87.4829V113.767H85.9941V122.666ZM89.4937 122.666H90.9826V117.429C90.9826 115.923 91.8981 114.931 93.3014 114.931C94.6704 114.931 95.3464 115.718 95.3464 117.156V122.666H96.8352V116.89C96.8352 114.871 95.7058 113.613 93.7549 113.613C92.3773 113.613 91.4275 114.229 90.9312 115.188H90.897V113.767H89.4937V122.666ZM102.406 126.02C104.861 126.02 106.427 124.608 106.427 122.486V113.767H105.007V115.265H104.981C104.391 114.229 103.347 113.613 102.089 113.613C99.7873 113.613 98.2984 115.393 98.2984 118.182C98.2984 120.946 99.7873 122.734 102.055 122.734C103.304 122.734 104.356 122.101 104.904 121.134H104.938V122.538C104.938 123.864 104.006 124.754 102.465 124.754C101.353 124.754 100.472 124.215 100.181 123.402H98.6492C98.8974 124.916 100.446 126.02 102.406 126.02ZM102.354 121.425C100.823 121.425 99.8215 120.176 99.8215 118.182C99.8215 116.189 100.823 114.922 102.354 114.922C103.903 114.922 104.938 116.223 104.938 118.182C104.938 120.142 103.903 121.425 102.354 121.425ZM112.442 111.62V113.767H111.116V114.991H112.442V120.356C112.442 122.067 113.076 122.734 114.71 122.734C115.061 122.734 115.471 122.709 115.651 122.666V121.417C115.548 121.434 115.206 121.46 115.035 121.46C114.273 121.46 113.931 121.092 113.931 120.279V114.991H115.66V113.767H113.931V111.62H112.442ZM117.328 122.666H118.817V117.481C118.817 115.941 119.733 114.931 121.213 114.931C122.608 114.931 123.318 115.778 123.318 117.19V122.666H124.807V116.916C124.807 114.931 123.626 113.613 121.675 113.613C120.323 113.613 119.348 114.195 118.851 115.188H118.817V110.319H117.328V122.666ZM132.602 120.116C132.353 120.955 131.523 121.528 130.394 121.528C128.794 121.528 127.793 120.407 127.793 118.704V118.619H134.176V118.054C134.176 115.359 132.696 113.613 130.291 113.613C127.836 113.613 126.261 115.487 126.261 118.251C126.261 121.049 127.81 122.82 130.36 122.82C132.302 122.82 133.808 121.673 134.065 120.116H132.602ZM130.266 114.905C131.669 114.905 132.602 115.966 132.636 117.455H127.801C127.896 115.975 128.871 114.905 130.266 114.905ZM136.503 112.184C137.025 112.184 137.436 111.765 137.436 111.252C137.436 110.73 137.025 110.319 136.503 110.319C135.99 110.319 135.571 110.73 135.571 111.252C135.571 111.765 135.99 112.184 136.503 112.184ZM135.759 122.666H137.248V113.767H135.759V122.666ZM139.259 122.666H140.747V117.121C140.747 115.864 141.5 115.034 142.656 115.034C143.015 115.034 143.332 115.076 143.451 115.119V113.673C143.332 113.656 143.109 113.613 142.852 113.613C141.808 113.613 140.987 114.238 140.696 115.222H140.662V113.767H139.259V122.666ZM148.337 122.666H149.826V110.319H148.337V122.666ZM155.525 122.82C157.98 122.82 159.64 121.049 159.64 118.217C159.64 115.376 157.98 113.613 155.525 113.613C153.06 113.613 151.4 115.376 151.4 118.217C151.4 121.049 153.06 122.82 155.525 122.82ZM155.525 121.511C153.95 121.511 152.915 120.313 152.915 118.217C152.915 116.12 153.95 114.922 155.525 114.922C157.099 114.922 158.126 116.12 158.126 118.217C158.126 120.313 157.099 121.511 155.525 121.511ZM164.817 126.02C167.273 126.02 168.839 124.608 168.839 122.486V113.767H167.418V115.265H167.393C166.802 114.229 165.758 113.613 164.5 113.613C162.199 113.613 160.71 115.393 160.71 118.182C160.71 120.946 162.199 122.734 164.466 122.734C165.715 122.734 166.768 122.101 167.316 121.134H167.35V122.538C167.35 123.864 166.417 124.754 164.877 124.754C163.765 124.754 162.883 124.215 162.592 123.402H161.061C161.309 124.916 162.858 126.02 164.817 126.02ZM164.766 121.425C163.234 121.425 162.233 120.176 162.233 118.182C162.233 116.189 163.234 114.922 164.766 114.922C166.314 114.922 167.35 116.223 167.35 118.182C167.35 120.142 166.314 121.425 164.766 121.425ZM171.602 112.184C172.124 112.184 172.535 111.765 172.535 111.252C172.535 110.73 172.124 110.319 171.602 110.319C171.089 110.319 170.67 110.73 170.67 111.252C170.67 111.765 171.089 112.184 171.602 112.184ZM170.858 122.666H172.347V113.767H170.858V122.666ZM174.358 122.666H175.846V117.429C175.846 115.923 176.762 114.931 178.165 114.931C179.534 114.931 180.21 115.718 180.21 117.156V122.666H181.699V116.89C181.699 114.871 180.57 113.613 178.619 113.613C177.241 113.613 176.291 114.229 175.795 115.188H175.761V113.767H174.358V122.666ZM183.445 116.223C183.445 117.506 184.257 118.285 185.935 118.687L187.346 119.029C188.365 119.278 188.715 119.646 188.715 120.287C188.715 121.092 187.971 121.605 186.765 121.605C185.558 121.605 184.874 121.117 184.694 120.099H183.205C183.376 121.768 184.677 122.82 186.765 122.82C188.75 122.82 190.213 121.725 190.213 120.176C190.213 118.901 189.563 118.199 187.766 117.763L186.354 117.421C185.361 117.181 184.908 116.762 184.908 116.146C184.908 115.367 185.627 114.828 186.713 114.828C187.808 114.828 188.493 115.402 188.604 116.334H190.025C189.965 114.76 188.664 113.613 186.713 113.613C184.788 113.613 183.445 114.7 183.445 116.223ZM197.957 122.82C199.154 122.82 200.284 122.153 200.814 121.134H200.849V122.666H202.26V116.514C202.26 114.743 200.943 113.613 198.855 113.613C196.75 113.613 195.432 114.794 195.33 116.334H196.767C196.955 115.461 197.674 114.922 198.821 114.922C200.053 114.922 200.772 115.573 200.772 116.659V117.404L198.222 117.549C196.168 117.669 194.996 118.627 194.996 120.15C194.996 121.75 196.185 122.82 197.957 122.82ZM198.29 121.554C197.221 121.554 196.51 120.997 196.51 120.15C196.51 119.312 197.195 118.781 198.393 118.704L200.772 118.559V119.286C200.772 120.57 199.694 121.554 198.29 121.554ZM204.151 122.666H205.64V117.429C205.64 115.923 206.556 114.931 207.959 114.931C209.328 114.931 210.004 115.718 210.004 117.156V122.666H211.493V116.89C211.493 114.871 210.364 113.613 208.413 113.613C207.035 113.613 206.085 114.229 205.589 115.188H205.555V113.767H204.151V122.666ZM216.764 122.82C218.047 122.82 219.066 122.187 219.639 121.16H219.664V122.666H221.085V110.319H219.596V115.213H219.562C219.031 114.238 218.005 113.613 216.73 113.613C214.488 113.613 212.956 115.427 212.956 118.217C212.956 121.006 214.496 122.82 216.764 122.82ZM217.046 114.922C218.578 114.922 219.605 116.231 219.605 118.217C219.605 120.21 218.578 121.511 217.046 121.511C215.472 121.511 214.479 120.236 214.479 118.217C214.479 116.206 215.472 114.922 217.046 114.922ZM230.377 122.82C232.833 122.82 234.493 121.049 234.493 118.217C234.493 115.376 232.833 113.613 230.377 113.613C227.913 113.613 226.253 115.376 226.253 118.217C226.253 121.049 227.913 122.82 230.377 122.82ZM230.377 121.511C228.803 121.511 227.768 120.313 227.768 118.217C227.768 116.12 228.803 114.922 230.377 114.922C231.952 114.922 232.978 116.12 232.978 118.217C232.978 120.313 231.952 121.511 230.377 121.511ZM236.478 111.62V113.767H235.152V114.991H236.478V120.356C236.478 122.067 237.111 122.734 238.746 122.734C239.096 122.734 239.507 122.709 239.687 122.666V121.417C239.584 121.434 239.242 121.46 239.071 121.46C238.309 121.46 237.967 121.092 237.967 120.279V114.991H239.695V113.767H237.967V111.62H236.478ZM241.364 122.666H242.853V117.481C242.853 115.941 243.768 114.931 245.249 114.931C246.643 114.931 247.353 115.778 247.353 117.19V122.666H248.842V116.916C248.842 114.931 247.662 113.613 245.711 113.613C244.359 113.613 243.383 114.195 242.887 115.188H242.853V110.319H241.364V122.666ZM256.637 120.116C256.389 120.955 255.559 121.528 254.43 121.528C252.83 121.528 251.829 120.407 251.829 118.704V118.619H258.212V118.054C258.212 115.359 256.731 113.613 254.327 113.613C251.871 113.613 250.297 115.487 250.297 118.251C250.297 121.049 251.846 122.82 254.396 122.82C256.338 122.82 257.844 121.673 258.1 120.116H256.637ZM254.301 114.905C255.705 114.905 256.637 115.966 256.672 117.455H251.837C251.931 115.975 252.907 114.905 254.301 114.905ZM259.718 122.666H261.207V117.121C261.207 115.864 261.959 115.034 263.115 115.034C263.474 115.034 263.791 115.076 263.91 115.119V113.673C263.791 113.656 263.568 113.613 263.311 113.613C262.268 113.613 261.446 114.238 261.155 115.222H261.121V113.767H259.718V122.666ZM35.0741 135.184C35.596 135.184 36.0067 134.765 36.0067 134.252C36.0067 133.73 35.596 133.319 35.0741 133.319C34.5607 133.319 34.1414 133.73 34.1414 134.252C34.1414 134.765 34.5607 135.184 35.0741 135.184ZM34.3297 145.666H35.8185V136.767H34.3297V145.666ZM38.3085 134.62V136.767H36.9822V137.991H38.3085V143.356C38.3085 145.067 38.9416 145.734 40.5759 145.734C40.9268 145.734 41.3375 145.709 41.5172 145.666V144.417C41.4145 144.434 41.0722 144.46 40.9011 144.46C40.1396 144.46 39.7973 144.092 39.7973 143.279V137.991H41.5257V136.767H39.7973V134.62H38.3085ZM48.7646 143.116C48.5164 143.955 47.6864 144.528 46.557 144.528C44.9569 144.528 43.9558 143.407 43.9558 141.704V141.619H50.339V141.054C50.339 138.359 48.8587 136.613 46.4543 136.613C43.9986 136.613 42.4242 138.487 42.4242 141.251C42.4242 144.049 43.9729 145.82 46.5227 145.82C48.4651 145.82 49.971 144.673 50.2277 143.116H48.7646ZM46.4286 137.905C47.8319 137.905 48.7646 138.966 48.7988 140.455H43.9643C44.0585 138.975 45.0339 137.905 46.4286 137.905ZM51.8449 145.666H53.3338V140.087C53.3338 138.855 54.1894 137.931 55.3702 137.931C56.474 137.931 57.1928 138.633 57.1928 139.702V145.666H58.6816V140.01C58.6816 138.804 59.5116 137.931 60.6924 137.931C61.8646 137.931 62.5406 138.65 62.5406 139.865V145.666H64.0294V139.522C64.0294 137.76 62.8914 136.613 61.1288 136.613C59.8795 136.613 58.8356 137.246 58.3393 138.307H58.3051C57.9201 137.229 57.0216 136.613 55.8066 136.613C54.6087 136.613 53.7017 137.246 53.2824 138.188H53.2482V136.767H51.8449V145.666ZM65.775 139.223C65.775 140.506 66.5878 141.285 68.2649 141.687L69.6768 142.029C70.695 142.278 71.0458 142.646 71.0458 143.287C71.0458 144.092 70.3014 144.605 69.0949 144.605C67.8884 144.605 67.2039 144.117 67.0242 143.099H65.5354C65.7065 144.768 67.0071 145.82 69.0949 145.82C71.08 145.82 72.5432 144.725 72.5432 143.176C72.5432 141.901 71.8929 141.199 70.096 140.763L68.6842 140.421C67.6916 140.181 67.2381 139.762 67.2381 139.146C67.2381 138.367 67.9569 137.828 69.0436 137.828C70.1388 137.828 70.8233 138.402 70.9346 139.334H72.355C72.2951 137.76 70.9945 136.613 69.0436 136.613C67.1184 136.613 65.775 137.7 65.775 139.223ZM75.3498 145.752C75.8974 145.752 76.3252 145.324 76.3252 144.776C76.3252 144.229 75.8974 143.801 75.3498 143.801C74.8021 143.801 74.3743 144.229 74.3743 144.776C74.3743 145.324 74.8021 145.752 75.3498 145.752Z" fill="#333333"/>
<rect x="33.2858" y="181.81" width="258.476" height="1.09524" fill="#D7D9E0"/>
<path d="M42.4413 218.429H44.7687L40.3877 206.082H37.8977L33.5168 218.429H35.7928L36.8453 215.237H41.3888L42.4413 218.429ZM39.0871 208.264H39.147L40.8669 213.534H37.3587L39.0871 208.264ZM48.9785 218.574C50.3047 218.574 51.3486 217.898 51.8449 216.88H51.8791V218.429H53.9669V206.082H51.8364V210.882H51.785C51.3059 209.881 50.2791 209.205 48.9785 209.205C46.6939 209.205 45.2136 211.019 45.2136 213.885C45.2136 216.769 46.6939 218.574 48.9785 218.574ZM49.6202 210.959C50.9636 210.959 51.8449 212.114 51.8449 213.894C51.8449 215.691 50.9636 216.829 49.6202 216.829C48.2426 216.829 47.3955 215.699 47.3955 213.894C47.3955 212.097 48.2512 210.959 49.6202 210.959ZM59.1437 218.574C60.4699 218.574 61.5138 217.898 62.0101 216.88H62.0443V218.429H64.1321V206.082H62.0015V210.882H61.9502C61.471 209.881 60.4442 209.205 59.1437 209.205C56.8591 209.205 55.3788 211.019 55.3788 213.885C55.3788 216.769 56.8591 218.574 59.1437 218.574ZM59.7854 210.959C61.1288 210.959 62.0101 212.114 62.0101 213.894C62.0101 215.691 61.1288 216.829 59.7854 216.829C58.4078 216.829 57.5607 215.699 57.5607 213.894C57.5607 212.097 58.4163 210.959 59.7854 210.959ZM74.4085 209.205C73.0908 209.205 72.064 209.872 71.5506 210.925H71.5079V209.359H69.4286V221.415H71.5592V216.923H71.602C72.0983 217.941 73.1251 218.574 74.4428 218.574C76.7188 218.574 78.1734 216.786 78.1734 213.894C78.1734 210.993 76.7102 209.205 74.4085 209.205ZM73.7582 216.829C72.432 216.829 71.5506 215.674 71.5421 213.894C71.5506 212.131 72.432 210.959 73.7582 210.959C75.1358 210.959 75.9915 212.105 75.9915 213.894C75.9915 215.691 75.1358 216.829 73.7582 216.829ZM85.5492 215.716C85.3181 216.469 84.5652 216.966 83.5726 216.966C82.1779 216.966 81.288 215.99 81.288 214.535V214.407H87.6284V213.714C87.6284 210.959 86.0198 209.171 83.4442 209.171C80.8259 209.171 79.166 211.062 79.166 213.928C79.166 216.82 80.8088 218.608 83.5298 218.608C85.6775 218.608 87.269 217.428 87.5428 215.716H85.5492ZM83.4528 210.822C84.6764 210.822 85.4978 211.72 85.5406 213.004H81.3051C81.3907 211.737 82.2549 210.822 83.4528 210.822ZM93.019 218.608C95.6801 218.608 97.4085 216.837 97.4085 213.894C97.4085 210.959 95.663 209.171 93.019 209.171C90.3751 209.171 88.6295 210.967 88.6295 213.894C88.6295 216.837 90.3579 218.608 93.019 218.608ZM93.019 216.923C91.6671 216.923 90.7943 215.828 90.7943 213.894C90.7943 211.969 91.6756 210.865 93.019 210.865C94.371 210.865 95.2437 211.969 95.2437 213.894C95.2437 215.828 94.371 216.923 93.019 216.923ZM103.757 209.205C102.44 209.205 101.413 209.872 100.9 210.925H100.857V209.359H98.7776V221.415H100.908V216.923H100.951C101.447 217.941 102.474 218.574 103.792 218.574C106.068 218.574 107.522 216.786 107.522 213.894C107.522 210.993 106.059 209.205 103.757 209.205ZM103.107 216.829C101.781 216.829 100.9 215.674 100.891 213.894C100.9 212.131 101.781 210.959 103.107 210.959C104.485 210.959 105.34 212.105 105.34 213.894C105.34 215.691 104.485 216.829 103.107 216.829ZM108.951 218.429H111.082V206.082H108.951V218.429ZM118.903 215.716C118.672 216.469 117.919 216.966 116.926 216.966C115.531 216.966 114.641 215.99 114.641 214.535V214.407H120.982V213.714C120.982 210.959 119.373 209.171 116.798 209.171C114.179 209.171 112.519 211.062 112.519 213.928C112.519 216.82 114.162 218.608 116.883 218.608C119.031 218.608 120.622 217.428 120.896 215.716H118.903ZM116.806 210.822C118.03 210.822 118.851 211.72 118.894 213.004H114.659C114.744 211.737 115.608 210.822 116.806 210.822ZM126.458 207.237V209.359H125.157V211.002H126.458V216.016C126.458 217.778 127.228 218.471 129.188 218.471C129.641 218.471 130.06 218.437 130.291 218.386V216.76C130.154 216.786 129.881 216.803 129.684 216.803C128.931 216.803 128.589 216.461 128.589 215.716V211.002H130.3V209.359H128.589V207.237H126.458ZM135.596 218.608C138.257 218.608 139.986 216.837 139.986 213.894C139.986 210.959 138.24 209.171 135.596 209.171C132.952 209.171 131.207 210.967 131.207 213.894C131.207 216.837 132.935 218.608 135.596 218.608ZM135.596 216.923C134.244 216.923 133.372 215.828 133.372 213.894C133.372 211.969 134.253 210.865 135.596 210.865C136.948 210.865 137.821 211.969 137.821 213.894C137.821 215.828 136.948 216.923 135.596 216.923ZM152.846 209.359H150.622L148.517 216.452H148.474L146.369 209.359H144.093L147.31 218.429H149.655L152.846 209.359ZM156.295 218.574C157.458 218.574 158.596 217.967 159.118 216.983H159.161V218.429H161.215V212.182C161.215 210.36 159.752 209.171 157.501 209.171C155.191 209.171 153.745 210.386 153.651 212.08H155.627C155.764 211.327 156.406 210.839 157.416 210.839C158.468 210.839 159.11 211.387 159.11 212.336V212.987L156.714 213.124C154.506 213.261 153.266 214.227 153.266 215.836C153.266 217.47 154.541 218.574 156.295 218.574ZM156.936 216.966C156.012 216.966 155.396 216.495 155.396 215.751C155.396 215.032 155.987 214.57 157.013 214.501L159.11 214.373V215.066C159.11 216.161 158.143 216.966 156.936 216.966ZM170.978 209.359H168.847V214.604C168.847 215.922 168.086 216.794 166.853 216.794C165.656 216.794 165.022 216.093 165.022 214.792V209.359H162.892V215.22C162.892 217.316 164.141 218.591 166.109 218.591C167.487 218.591 168.402 217.958 168.881 216.854H168.924V218.429H170.978V209.359ZM172.783 218.429H174.914V206.082H172.783V218.429ZM177.318 207.237V209.359H176.018V211.002H177.318V216.016C177.318 217.778 178.088 218.471 180.048 218.471C180.501 218.471 180.92 218.437 181.151 218.386V216.76C181.015 216.786 180.741 216.803 180.544 216.803C179.791 216.803 179.449 216.461 179.449 215.716V211.002H181.16V209.359H179.449V207.237H177.318ZM182.452 211.96C182.452 213.303 183.325 214.159 185.062 214.544L186.568 214.878C187.518 215.092 187.843 215.4 187.843 215.947C187.843 216.623 187.201 217.051 186.166 217.051C185.087 217.051 184.48 216.606 184.317 215.725H182.221C182.392 217.479 183.795 218.608 186.166 218.608C188.39 218.608 189.965 217.453 189.965 215.742C189.965 214.424 189.237 213.697 187.355 213.278L185.849 212.944C184.899 212.73 184.523 212.371 184.523 211.849C184.523 211.181 185.147 210.736 186.089 210.736C187.073 210.736 187.68 211.258 187.766 212.08H189.751C189.699 210.36 188.296 209.171 186.089 209.171C183.898 209.171 182.452 210.3 182.452 211.96Z" fill="#0364D3"/>
<path d="M200.583 217.745C200.135 217.314 200.135 216.597 200.583 216.166L204.984 211.929L200.583 207.692C200.135 207.26 200.135 206.543 200.583 206.113L200.611 206.086C201.035 205.679 201.705 205.679 202.128 206.086L207.389 211.139C207.837 211.57 207.837 212.288 207.389 212.719L202.128 217.771C201.705 218.179 201.035 218.179 200.611 217.771L200.583 217.745Z" fill="#0364D3"/>
<g clip-path="url(#clip1_40_18514)">
<rect width="130.333" height="236.571" transform="translate(336.667 4.38086)" fill="#FFF9FC"/>
<path d="M415.129 162.965C410.823 150.833 412.945 147.691 413.716 146.412C414.706 145.333 421.098 142.923 420.579 144.366C419.009 148.73 421.696 154.864 423.62 159.174C426.843 166.392 432.86 176.632 437.046 182.677C438.074 178.562 439.82 170.221 446.862 165.311C453.116 160.951 457.135 162.874 456.397 165.443C455.658 168.012 452.472 173.062 450.904 176.489C446.828 185.402 450.666 191.045 452.641 195.469C454.546 199.733 457.157 205.582 456.916 210.292C459.672 218.215 466.916 236.888 471.564 243.097L447.168 253.99L443.392 243.462C439.346 232.18 428.693 225.264 418.64 218.738L418.636 218.735C412.308 214.627 409.336 209.585 407.585 205.664C406.229 200.956 408.734 198.153 410.437 198.739C406.087 193.086 412.046 188.357 414.747 188.977C413.166 184.745 413.585 183.153 415.923 181.405C418.025 179.833 421.097 179.897 421.097 179.897C419.289 175.974 417.702 170.216 415.129 162.965Z" fill="#FFF9FC"/>
<path d="M421.097 179.897C419.289 175.974 417.702 170.216 415.129 162.965C410.823 150.833 412.945 147.691 413.716 146.412C414.706 145.333 421.098 142.923 420.579 144.366C419.009 148.73 421.696 154.864 423.62 159.174C426.843 166.392 432.86 176.632 437.046 182.677C438.074 178.562 439.82 170.221 446.862 165.311C453.116 160.951 457.135 162.874 456.397 165.443C455.658 168.012 452.472 173.062 450.904 176.489C446.828 185.402 450.666 191.045 452.641 195.469C454.546 199.733 457.157 205.582 456.916 210.292M421.097 179.897C421.097 179.897 418.025 179.833 415.923 181.405C413.585 183.153 413.166 184.745 414.747 188.977M421.097 179.897C430.116 188.954 435.127 194.328 438.249 197.561C445.349 204.911 437.287 209.443 430.328 203.049M414.747 188.977C412.046 188.357 406.087 193.086 410.437 198.739M414.747 188.977C419.443 194.717 427.567 200.513 430.328 203.049M410.437 198.739C408.734 198.153 406.229 200.956 407.585 205.664M410.437 198.739C414.625 203.021 421.915 210.76 427.545 212.861M407.585 205.664C409.336 209.585 412.308 214.627 418.636 218.735C428.69 225.263 439.346 232.179 443.392 243.462L447.167 253.99L471.564 243.097C466.916 236.888 459.672 218.215 456.916 210.292M407.585 205.664C410.278 211.431 413.811 214.589 420.518 218.922C424.771 221.669 430.057 218.489 427.545 212.861M452.399 217.061C455.538 215.659 456.768 213.191 456.916 210.292M430.328 203.049C434.844 205.526 435.883 213.373 427.545 212.861" stroke="#A32751" stroke-width="1.64286" stroke-miterlimit="10" stroke-linecap="round" stroke-linejoin="round"/>
<path d="M413.089 215.361L404.541 228.418" stroke="#A32751" stroke-width="1.64286" stroke-miterlimit="10" stroke-linecap="round" stroke-linejoin="round"/>
<path d="M433.837 183.106L430.733 188.13" stroke="#A32751" stroke-width="1.64286" stroke-miterlimit="10" stroke-linecap="round" stroke-linejoin="round"/>
<circle cx="390.517" cy="97.2449" r="55.4782" transform="rotate(-24.061 390.517 97.2449)" fill="#F17BA5" stroke="#A32751" stroke-width="1.64286" stroke-miterlimit="10" stroke-linecap="round" stroke-linejoin="round"/>
<path fill-rule="evenodd" clip-rule="evenodd" d="M427.322 74.2649C427.511 74.5168 427.908 74.3119 427.796 74.0174V74.0174C420.199 54.0733 397.872 44.0645 377.927 51.6621C375.557 52.5652 373.326 53.6764 371.249 54.967C367.065 57.5671 371.844 61.3452 376.448 59.5914V59.5914C395.214 52.4424 415.833 58.9744 427.322 74.2649Z" fill="#FFF9FC"/>
<path fill-rule="evenodd" clip-rule="evenodd" d="M445.83 101.651C441.791 117.528 430.792 131.471 414.671 138.668C386.694 151.161 353.886 138.607 341.394 110.63C337.469 101.838 336.016 92.5698 336.739 83.6048C333.768 95.2828 334.564 108.007 339.858 119.864C352.35 147.842 385.157 160.395 413.135 147.903C432.321 139.337 444.254 121.216 445.83 101.651Z" fill="#A32751"/>
<path d="M397.492 97.6677L361.857 103.474L357.157 104.221C355.396 104.496 353.746 103.489 353.095 101.907C353.023 101.653 352.939 101.443 352.879 101.146L349.576 80.901C349.229 78.8861 350.636 76.9695 352.639 76.6663L393.018 70.1246C395.033 69.7777 396.95 71.185 397.253 73.1881L400.556 93.4329C400.859 95.4361 399.495 97.3645 397.492 97.6677Z" fill="#F17BA5" stroke="#A32751" stroke-width="1.64286" stroke-miterlimit="10" stroke-linecap="round" stroke-linejoin="round"/>
<path d="M377.426 100.145L357.965 103.65C355.56 104.195 353.503 103.518 353.102 100.136L351.042 87.4428C351.042 87.4428 364.12 78.2236 366.114 90.2895C367.786 100.769 377.426 100.145 377.426 100.145Z" fill="#FFF9FC"/>
<path d="M365.956 75.2433L390.925 71.1975C394.465 70.6351 396.669 70.0469 397.186 75.1316L399.809 93.3412C399.809 93.3412 383.698 98.8123 380.724 87.6662C378.544 74.3786 365.956 75.2433 365.956 75.2433Z" fill="#FFF9FC"/>
<path d="M397.695 74.4547L349.511 82.2959L350.5 88.3691L398.684 80.5279L397.695 74.4547Z" fill="#A32751"/>
<path d="M461.996 224.635C455.711 231 444.965 233.722 440.378 234.288L441.531 240.356C450.903 240.441 460.978 234.163 464.844 231.014L461.996 224.635Z" fill="#A32751"/>
<path d="M320.061 107.342C313.447 118.188 332.16 142.42 375.461 135.052" stroke="#D3376C" stroke-width="1.64286" stroke-miterlimit="10" stroke-linecap="round" stroke-linejoin="round"/>
<path d="M460.826 96.0342C473.708 101.388 463.486 120.651 425.656 131.097" stroke="#D3376C" stroke-width="1.64286" stroke-miterlimit="10" stroke-linecap="round" stroke-linejoin="round"/>
<path d="M414.955 119.832C420.321 119.617 431.189 116.226 435.465 112.855" stroke="#D3376C" stroke-width="1.64286" stroke-miterlimit="10" stroke-linecap="round" stroke-linejoin="round"/>
<path d="M359.187 125.914C363.042 126.987 369.628 126.155 372.555 125.564" stroke="#D3376C" stroke-width="1.64286" stroke-miterlimit="10" stroke-linecap="round" stroke-linejoin="round"/>
<path d="M450.259 86.3208C458.916 82.4552 460.344 72.373 452.229 71.7086" stroke="#D3376C" stroke-width="1.64286" stroke-miterlimit="10" stroke-linecap="round" stroke-linejoin="round"/>
<ellipse cx="436.926" cy="176.289" rx="7.30424" ry="9.92083" transform="rotate(-51.0032 436.926 176.289)" stroke="#A32751" stroke-width="1.64286" stroke-miterlimit="10" stroke-linecap="round" stroke-linejoin="round"/>
<path d="M407.603 223.751L401.933 220.15" stroke="#A32751" stroke-width="1.64286" stroke-miterlimit="10" stroke-linecap="round" stroke-linejoin="round"/>
<path d="M411.052 217.888L401.371 211.25" stroke="#A32751" stroke-width="1.64286" stroke-miterlimit="10" stroke-linecap="round" stroke-linejoin="round"/>
<rect x="411.232" y="83.873" width="22.1321" height="22.1321" rx="10.9524" transform="rotate(2.74139 411.232 83.873)" fill="#FFF9FC"/>
<path d="M432.099 224.135C430.222 223.877 423.615 220.67 421.445 219.682C430.32 220.151 429.109 215.244 428.123 213.548C436.997 212.738 433.447 206.737 432.246 204.631L434.887 205.295C438.548 213.496 435.734 221.448 432.099 224.135Z" fill="#A32751"/>
<rect x="378.434" y="124.733" width="44.1656" height="14.1813" rx="7.09067" transform="rotate(-42.144 378.434 124.733)" fill="#F17BA5" stroke="#A32751" stroke-width="1.64286" stroke-miterlimit="10" stroke-linecap="round" stroke-linejoin="round"/>
<circle cx="389.361" cy="124.517" r="2.44598" transform="rotate(-42.144 389.361 124.517)" fill="#A32751"/>
<circle cx="396.387" cy="118.159" r="2.44598" transform="rotate(-42.144 396.387 118.159)" fill="#A32751"/>
<circle cx="403.411" cy="111.8" r="2.44598" transform="rotate(-42.144 403.411 111.8)" fill="#A32751"/>
<circle cx="410.437" cy="105.443" r="2.44598" transform="rotate(-42.144 410.437 105.443)" fill="#A32751"/>
</g>
</g>
<rect x="7.54762" y="4.92848" width="458.905" height="235.476" rx="8.21429" stroke="#D7D9E0" stroke-width="1.09524"/>
</g>
<defs>
<filter id="filter0_d_40_18514" x="0.428571" y="-9.32217e-05" width="473.143" height="249.714" filterUnits="userSpaceOnUse" color-interpolation-filters="sRGB">
<feFlood flood-opacity="0" result="BackgroundImageFix"/>
<feColorMatrix in="SourceAlpha" type="matrix" values="0 0 0 0 0 0 0 0 0 0 0 0 0 0 0 0 0 0 127 0" result="hardAlpha"/>
<feOffset dy="2.19048"/>
<feGaussianBlur stdDeviation="3.28571"/>
<feColorMatrix type="matrix" values="0 0 0 0 0 0 0 0 0 0 0 0 0 0 0 0 0 0 0.05 0"/>
<feBlend mode="normal" in2="BackgroundImageFix" result="effect1_dropShadow_40_18514"/>
<feBlend mode="normal" in="SourceGraphic" in2="effect1_dropShadow_40_18514" result="shape"/>
</filter>
<clipPath id="clip0_40_18514">
<rect x="7" y="4.38086" width="460" height="236.571" rx="8.7619" fill="white"/>
</clipPath>
<clipPath id="clip1_40_18514">
<rect width="157.714" height="236.571" fill="white" transform="translate(309.286 4.38086)"/>
</clipPath>
</defs>
</svg>
