<svg width="474" height="251" viewBox="0 0 474 251" fill="none" xmlns="http://www.w3.org/2000/svg">
<g filter="url(#filter0_d_38_16849)">
<g clip-path="url(#clip0_38_16849)">
<rect x="7" y="5.04785" width="460" height="236.571" rx="8.7619" fill="white"/>
<path d="M41.393 44.7324C45.1793 44.7324 47.8211 42.5612 48.1848 39.1171H45.0403C44.698 40.9461 43.3183 42.0691 41.4037 42.0691C38.933 42.0691 37.3822 40.037 37.3822 36.7427C37.3822 33.4912 38.9544 31.4483 41.393 31.4483C43.2755 31.4483 44.7301 32.689 45.0296 34.5822H48.1741C47.9281 31.1275 45.1044 28.7744 41.393 28.7744C36.9222 28.7744 34.0879 31.7799 34.0879 36.7534C34.0879 41.7376 36.9009 44.7324 41.393 44.7324Z" fill="#333333"/>
<path d="M49.9175 44.4757H53.0406V38.069C53.0406 36.4539 53.9391 35.5127 55.4793 35.5127C55.9285 35.5127 56.3563 35.5876 56.613 35.6945V32.9457C56.3991 32.8816 56.0889 32.8281 55.7253 32.8281C54.3776 32.8281 53.4043 33.6196 52.9979 35.0742H52.9337V33.0099H49.9175V44.4757Z" fill="#333333"/>
<path d="M65.1054 40.9675C64.8166 41.8445 63.9395 42.4114 62.7951 42.4114C61.2015 42.4114 60.164 41.2884 60.164 39.6519V39.4594H68.0681V38.5075C68.0681 35.0207 65.961 32.7639 62.624 32.7639C59.2334 32.7639 57.0943 35.1383 57.0943 38.7963C57.0943 42.4649 59.2121 44.7217 62.7416 44.7217C65.576 44.7217 67.6296 43.2136 67.9718 40.9675H65.1054ZM62.6561 35.0742C64.0465 35.0742 64.9984 36.0796 65.0626 37.5449H60.1961C60.303 36.1117 61.287 35.0742 62.6561 35.0742Z" fill="#333333"/>
<path d="M73.0844 44.6575C74.5176 44.6575 75.9401 43.9409 76.5818 42.7216H76.646V44.4757H79.6622V36.593C79.6622 34.2827 77.7477 32.7639 74.8064 32.7639C71.7688 32.7639 69.8757 34.2934 69.758 36.5181H72.6137C72.7635 35.6731 73.5015 35.0956 74.6673 35.0956C75.8438 35.0956 76.5925 35.7159 76.5925 36.7855V37.5449L73.7047 37.716C70.849 37.8871 69.2446 39.0957 69.2446 41.1814C69.2446 43.2457 70.9024 44.6575 73.0844 44.6575ZM74.1111 42.4007C73.0523 42.4007 72.3464 41.8659 72.3464 41.0103C72.3464 40.1974 73.0095 39.6733 74.1753 39.5878L76.5925 39.438V40.2723C76.5925 41.513 75.4695 42.4007 74.1111 42.4007Z" fill="#333333"/>
<path d="M82.5179 30.3681V33.0099H80.9029V35.363H82.5179V41.3846C82.5179 43.62 83.5661 44.5185 86.2614 44.5185C86.8925 44.5185 87.4273 44.465 87.7481 44.3901V42.0905C87.5556 42.1226 87.2668 42.144 86.9887 42.144C86.0689 42.144 85.6411 41.7269 85.6411 40.8498V35.363H87.7588V33.0099H85.6411V30.3681H82.5179Z" fill="#333333"/>
<path d="M96.8929 40.9675C96.6042 41.8445 95.7271 42.4114 94.5827 42.4114C92.989 42.4114 91.9515 41.2884 91.9515 39.6519V39.4594H99.8557V38.5075C99.8557 35.0207 97.7486 32.7639 94.4116 32.7639C91.021 32.7639 88.8819 35.1383 88.8819 38.7963C88.8819 42.4649 90.9996 44.7217 94.5292 44.7217C97.3636 44.7217 99.4171 43.2136 99.7594 40.9675H96.8929ZM94.4436 35.0742C95.8341 35.0742 96.786 36.0796 96.8502 37.5449H91.9836C92.0906 36.1117 93.0746 35.0742 94.4436 35.0742Z" fill="#333333"/>
<path d="M105.621 36.379C105.621 38.1011 106.744 39.2134 108.958 39.684L110.915 40.0904C112.038 40.3471 112.434 40.6894 112.434 41.2991C112.434 42.0478 111.706 42.5291 110.53 42.5291C109.289 42.5291 108.573 41.9943 108.38 40.9889H105.332C105.535 43.2457 107.364 44.7217 110.53 44.7217C113.482 44.7217 115.546 43.235 115.546 40.9782C115.546 39.299 114.562 38.3577 112.166 37.8551L110.209 37.4379C109.054 37.1919 108.626 36.7962 108.626 36.2079C108.626 35.4485 109.343 34.9565 110.423 34.9565C111.578 34.9565 112.273 35.5876 112.37 36.5181H115.247C115.183 34.272 113.364 32.7639 110.423 32.7639C107.503 32.7639 105.621 34.1971 105.621 36.379Z" fill="#333333"/>
<path d="M117.161 44.4757H120.284V37.9299C120.284 36.4218 121.151 35.3843 122.627 35.3843C124.049 35.3843 124.777 36.2828 124.777 37.7588V44.4757H127.9V37.0957C127.9 34.4431 126.445 32.796 123.9 32.796C122.156 32.796 120.905 33.6089 120.295 35.0528H120.231V29.0418H117.161V44.4757Z" fill="#333333"/>
<path d="M133.301 44.6575C134.734 44.6575 136.157 43.9409 136.799 42.7216H136.863V44.4757H139.879V36.593C139.879 34.2827 137.964 32.7639 135.023 32.7639C131.985 32.7639 130.092 34.2934 129.975 36.5181H132.83C132.98 35.6731 133.718 35.0956 134.884 35.0956C136.061 35.0956 136.809 35.7159 136.809 36.7855V37.5449L133.921 37.716C131.066 37.8871 129.461 39.0957 129.461 41.1814C129.461 43.2457 131.119 44.6575 133.301 44.6575ZM134.328 42.4007C133.269 42.4007 132.563 41.8659 132.563 41.0103C132.563 40.1974 133.226 39.6733 134.392 39.5878L136.809 39.438V40.2723C136.809 41.513 135.686 42.4007 134.328 42.4007Z" fill="#333333"/>
<path d="M141.9 44.4757H145.024V38.069C145.024 36.4539 145.922 35.5127 147.462 35.5127C147.911 35.5127 148.339 35.5876 148.596 35.6945V32.9457C148.382 32.8816 148.072 32.8281 147.708 32.8281C146.36 32.8281 145.387 33.6196 144.981 35.0742H144.917V33.0099H141.9V44.4757Z" fill="#333333"/>
<path d="M157.088 40.9675C156.799 41.8445 155.922 42.4114 154.778 42.4114C153.184 42.4114 152.147 41.2884 152.147 39.6519V39.4594H160.051V38.5075C160.051 35.0207 157.944 32.7639 154.607 32.7639C151.216 32.7639 149.077 35.1383 149.077 38.7963C149.077 42.4649 151.195 44.7217 154.725 44.7217C157.559 44.7217 159.612 43.2136 159.955 40.9675H157.088ZM154.639 35.0742C156.029 35.0742 156.981 36.0796 157.045 37.5449H152.179C152.286 36.1117 153.27 35.0742 154.639 35.0742Z" fill="#333333"/>
<path d="M165.923 44.6575C167.613 44.6575 168.939 43.7698 169.495 42.5077H169.549V44.4757H172.629V29.0418H169.506V34.9779H169.442C168.886 33.7051 167.602 32.8281 165.944 32.8281C163.067 32.8281 161.249 35.0849 161.249 38.7214C161.249 42.39 163.056 44.6575 165.923 44.6575ZM166.982 35.3309C168.533 35.3309 169.527 36.6571 169.527 38.7428C169.527 40.8391 168.533 42.144 166.982 42.144C165.41 42.144 164.447 40.8498 164.447 38.7428C164.447 36.6464 165.41 35.3309 166.982 35.3309Z" fill="#333333"/>
<path d="M189.539 33.0099H186.277L183.902 41.7162H183.838L181.453 33.0099H178.105L182.073 44.4757H185.603L189.539 33.0099Z" fill="#333333"/>
<path d="M193.753 44.6575C195.186 44.6575 196.609 43.9409 197.251 42.7216H197.315V44.4757H200.331V36.593C200.331 34.2827 198.416 32.7639 195.475 32.7639C192.437 32.7639 190.544 34.2934 190.427 36.5181H193.282C193.432 35.6731 194.17 35.0956 195.336 35.0956C196.513 35.0956 197.261 35.7159 197.261 36.7855V37.5449L194.373 37.716C191.518 37.8871 189.913 39.0957 189.913 41.1814C189.913 43.2457 191.571 44.6575 193.753 44.6575ZM194.78 42.4007C193.721 42.4007 193.015 41.8659 193.015 41.0103C193.015 40.1974 193.678 39.6733 194.844 39.5878L197.261 39.438V40.2723C197.261 41.513 196.138 42.4007 194.78 42.4007Z" fill="#333333"/>
<path d="M212.941 33.0099H209.818V39.5771C209.818 41.0958 208.952 42.0905 207.561 42.0905C206.181 42.0905 205.422 41.2777 205.422 39.7482V33.0099H202.299V40.4006C202.299 43.0745 203.946 44.6896 206.427 44.6896C208.16 44.6896 209.294 43.8553 209.861 42.4114H209.925V44.4757H212.941V33.0099Z" fill="#333333"/>
<path d="M215.048 44.4757H218.171V29.0418H215.048V44.4757Z" fill="#333333"/>
<path d="M221.113 30.3681V33.0099H219.498V35.363H221.113V41.3846C221.113 43.62 222.161 44.5185 224.856 44.5185C225.487 44.5185 226.022 44.465 226.343 44.3901V42.0905C226.15 42.1226 225.862 42.144 225.583 42.144C224.664 42.144 224.236 41.7269 224.236 40.8498V35.363H226.354V33.0099H224.236V30.3681H221.113Z" fill="#333333"/>
<path d="M227.872 36.379C227.872 38.1011 228.995 39.2134 231.209 39.684L233.167 40.0904C234.29 40.3471 234.685 40.6894 234.685 41.2991C234.685 42.0478 233.958 42.5291 232.782 42.5291C231.541 42.5291 230.824 41.9943 230.632 40.9889H227.584C227.787 43.2457 229.616 44.7217 232.782 44.7217C235.734 44.7217 237.798 43.235 237.798 40.9782C237.798 39.299 236.814 38.3577 234.418 37.8551L232.461 37.4379C231.306 37.1919 230.878 36.7962 230.878 36.2079C230.878 35.4485 231.594 34.9565 232.675 34.9565C233.83 34.9565 234.525 35.5876 234.621 36.5181H237.498C237.434 34.272 235.616 32.7639 232.675 32.7639C229.755 32.7639 227.872 34.1971 227.872 36.379Z" fill="#333333"/>
<path d="M39.5663 77.5391C42.2958 77.5391 44.1269 76.1786 44.6916 73.74H43.1344C42.6894 75.2459 41.3888 76.1187 39.5748 76.1187C37.1362 76.1187 35.5875 74.1849 35.5875 71.1559C35.5875 68.1525 37.1533 66.2016 39.5663 66.2016C41.3289 66.2016 42.7408 67.2626 43.1344 68.8798H44.6916C44.298 66.4156 42.253 64.7812 39.5663 64.7812C36.1864 64.7812 34.0045 67.2798 34.0045 71.1559C34.0045 75.0662 36.1608 77.5391 39.5663 77.5391Z" fill="#333333"/>
<path d="M46.2832 77.3337H47.772V71.7891C47.772 70.5312 48.525 69.7013 49.6801 69.7013C50.0395 69.7013 50.3561 69.744 50.4759 69.7868V68.3408C50.3561 68.3237 50.1336 68.2809 49.8769 68.2809C48.833 68.2809 48.0116 68.9055 47.7207 69.8895H47.6864V68.4349H46.2832V77.3337Z" fill="#333333"/>
<path d="M57.1671 74.7839C56.919 75.6224 56.089 76.1957 54.9595 76.1957C53.3594 76.1957 52.3583 75.0748 52.3583 73.372V73.2865H58.7415V72.7217C58.7415 70.0264 57.2612 68.2809 54.8568 68.2809C52.4011 68.2809 50.8267 70.1548 50.8267 72.9185C50.8267 75.7165 52.3754 77.4877 54.9253 77.4877C56.8676 77.4877 58.3736 76.3411 58.6303 74.7839H57.1671ZM54.8312 69.5729C56.2344 69.5729 57.1671 70.6339 57.2013 72.1228H52.3669C52.461 70.6425 53.4364 69.5729 54.8312 69.5729Z" fill="#333333"/>
<path d="M62.8486 77.4877C64.0466 77.4877 65.176 76.8203 65.7065 75.8021H65.7408V77.3337H67.1526V71.1815C67.1526 69.4103 65.8349 68.2809 63.7471 68.2809C61.6422 68.2809 60.3245 69.4617 60.2218 71.0019H61.6593C61.8475 70.1291 62.5663 69.59 63.7128 69.59C64.945 69.59 65.6637 70.2403 65.6637 71.327V72.0714L63.1139 72.2169C61.0603 72.3367 59.8881 73.295 59.8881 74.8181C59.8881 76.4182 61.0774 77.4877 62.8486 77.4877ZM63.1823 76.2214C62.1128 76.2214 61.4026 75.6652 61.4026 74.8181C61.4026 73.9795 62.0871 73.449 63.285 73.372L65.6637 73.2266V73.9539C65.6637 75.2374 64.5856 76.2214 63.1823 76.2214Z" fill="#333333"/>
<path d="M69.5227 66.2872V68.4349H68.1965V69.6585H69.5227V75.0234C69.5227 76.7347 70.1559 77.4022 71.7902 77.4022C72.141 77.4022 72.5518 77.3765 72.7315 77.3337V76.0844C72.6288 76.1016 72.2865 76.1272 72.1154 76.1272C71.3538 76.1272 71.0116 75.7593 71.0116 74.9464V69.6585H72.74V68.4349H71.0116V66.2872H69.5227Z" fill="#333333"/>
<path d="M79.9788 74.7839C79.7307 75.6224 78.9007 76.1957 77.7713 76.1957C76.1712 76.1957 75.1701 75.0748 75.1701 73.372V73.2865H81.5533V72.7217C81.5533 70.0264 80.073 68.2809 77.6686 68.2809C75.2128 68.2809 73.6384 70.1548 73.6384 72.9185C73.6384 75.7165 75.1872 77.4877 77.737 77.4877C79.6794 77.4877 81.1853 76.3411 81.442 74.7839H79.9788ZM77.6429 69.5729C79.0462 69.5729 79.9788 70.6339 80.0131 72.1228H75.1786C75.2727 70.6425 76.2482 69.5729 77.6429 69.5729Z" fill="#333333"/>
<path d="M89.2541 77.4877C90.4521 77.4877 91.5815 76.8203 92.112 75.8021H92.1463V77.3337H93.5581V71.1815C93.5581 69.4103 92.2404 68.2809 90.1526 68.2809C88.0477 68.2809 86.73 69.4617 86.6273 71.0019H88.0648C88.253 70.1291 88.9718 69.59 90.1184 69.59C91.3505 69.59 92.0692 70.2403 92.0692 71.327V72.0714L89.5194 72.2169C87.4658 72.3367 86.2936 73.295 86.2936 74.8181C86.2936 76.4182 87.4829 77.4877 89.2541 77.4877ZM89.5878 76.2214C88.5183 76.2214 87.8081 75.6652 87.8081 74.8181C87.8081 73.9795 88.4926 73.449 89.6905 73.372L92.0692 73.2266V73.9539C92.0692 75.2374 90.9911 76.2214 89.5878 76.2214Z" fill="#333333"/>
<path d="M98.8204 77.4877C100.104 77.4877 101.122 76.8545 101.695 75.8278H101.721V77.3337H103.141V64.9866H101.653V69.881H101.618C101.088 68.9055 100.061 68.2809 98.7861 68.2809C96.5443 68.2809 95.0127 70.0949 95.0127 72.8843C95.0127 75.6737 96.5529 77.4877 98.8204 77.4877ZM99.1027 69.59C100.634 69.59 101.661 70.8992 101.661 72.8843C101.661 74.878 100.634 76.1786 99.1027 76.1786C97.5283 76.1786 96.5358 74.9036 96.5358 72.8843C96.5358 70.8735 97.5283 69.59 99.1027 69.59Z" fill="#333333"/>
<path d="M108.523 77.4877C109.807 77.4877 110.825 76.8545 111.398 75.8278H111.424V77.3337H112.845V64.9866H111.356V69.881H111.321C110.791 68.9055 109.764 68.2809 108.489 68.2809C106.247 68.2809 104.716 70.0949 104.716 72.8843C104.716 75.6737 106.256 77.4877 108.523 77.4877ZM108.806 69.59C110.337 69.59 111.364 70.8992 111.364 72.8843C111.364 74.878 110.337 76.1786 108.806 76.1786C107.231 76.1786 106.239 74.9036 106.239 72.8843C106.239 70.8735 107.231 69.59 108.806 69.59Z" fill="#333333"/>
<path d="M115.677 66.8519C116.199 66.8519 116.609 66.4327 116.609 65.9193C116.609 65.3973 116.199 64.9866 115.677 64.9866C115.163 64.9866 114.744 65.3973 114.744 65.9193C114.744 66.4327 115.163 66.8519 115.677 66.8519ZM114.932 77.3337H116.421V68.4349H114.932V77.3337Z" fill="#333333"/>
<path d="M118.911 66.2872V68.4349H117.585V69.6585H118.911V75.0234C118.911 76.7347 119.544 77.4022 121.179 77.4022C121.529 77.4022 121.94 77.3765 122.12 77.3337V76.0844C122.017 76.1016 121.675 76.1272 121.504 76.1272C120.742 76.1272 120.4 75.7593 120.4 74.9464V69.6585H122.128V68.4349H120.4V66.2872H118.911Z" fill="#333333"/>
<path d="M124.541 66.8519C125.063 66.8519 125.474 66.4327 125.474 65.9193C125.474 65.3973 125.063 64.9866 124.541 64.9866C124.028 64.9866 123.609 65.3973 123.609 65.9193C123.609 66.4327 124.028 66.8519 124.541 66.8519ZM123.797 77.3337H125.286V68.4349H123.797V77.3337Z" fill="#333333"/>
<path d="M130.984 77.4877C133.44 77.4877 135.1 75.7165 135.1 72.8843C135.1 70.0435 133.44 68.2809 130.984 68.2809C128.52 68.2809 126.86 70.0435 126.86 72.8843C126.86 75.7165 128.52 77.4877 130.984 77.4877ZM130.984 76.1786C129.41 76.1786 128.375 74.9807 128.375 72.8843C128.375 70.7879 129.41 69.59 130.984 69.59C132.559 69.59 133.586 70.7879 133.586 72.8843C133.586 74.9807 132.559 76.1786 130.984 76.1786Z" fill="#333333"/>
<path d="M136.606 77.3337H138.095V72.0971C138.095 70.5911 139.01 69.5986 140.414 69.5986C141.783 69.5986 142.459 70.3858 142.459 71.8233V77.3337H143.948V71.558C143.948 69.5387 142.818 68.2809 140.867 68.2809C139.49 68.2809 138.54 68.8969 138.044 69.8553H138.009V68.4349H136.606V77.3337Z" fill="#333333"/>
<path d="M148.448 77.4877C149.646 77.4877 150.776 76.8203 151.306 75.8021H151.34V77.3337H152.752V71.1815C152.752 69.4103 151.435 68.2809 149.347 68.2809C147.242 68.2809 145.924 69.4617 145.821 71.0019H147.259C147.447 70.1291 148.166 69.59 149.313 69.59C150.545 69.59 151.263 70.2403 151.263 71.327V72.0714L148.714 72.2169C146.66 72.3367 145.488 73.295 145.488 74.8181C145.488 76.4182 146.677 77.4877 148.448 77.4877ZM148.782 76.2214C147.712 76.2214 147.002 75.6652 147.002 74.8181C147.002 73.9795 147.687 73.449 148.885 73.372L151.263 73.2266V73.9539C151.263 75.2374 150.185 76.2214 148.782 76.2214Z" fill="#333333"/>
<path d="M154.72 77.3337H156.209V64.9866H154.72V77.3337Z" fill="#333333"/>
<path d="M169.112 68.4349H167.564L165.099 75.7507H165.065L162.609 68.4349H161.044L164.321 77.3337H165.844L169.112 68.4349Z" fill="#333333"/>
<path d="M172.715 77.4877C173.913 77.4877 175.042 76.8203 175.573 75.8021H175.607V77.3337H177.019V71.1815C177.019 69.4103 175.701 68.2809 173.613 68.2809C171.508 68.2809 170.191 69.4617 170.088 71.0019H171.525C171.714 70.1291 172.432 69.59 173.579 69.59C174.811 69.59 175.53 70.2403 175.53 71.327V72.0714L172.98 72.2169C170.926 72.3367 169.754 73.295 169.754 74.8181C169.754 76.4182 170.944 77.4877 172.715 77.4877ZM173.048 76.2214C171.979 76.2214 171.269 75.6652 171.269 74.8181C171.269 73.9795 171.953 73.449 173.151 73.372L175.53 73.2266V73.9539C175.53 75.2374 174.452 76.2214 173.048 76.2214Z" fill="#333333"/>
<path d="M186.217 68.4349H184.728V73.6629C184.728 75.1775 183.855 76.17 182.409 76.17C181.032 76.17 180.356 75.3914 180.356 73.9453V68.4349H178.867V74.2106C178.867 76.2299 180.005 77.4877 181.947 77.4877C183.316 77.4877 184.24 76.9144 184.771 75.8876H184.805V77.3337H186.217V68.4349Z" fill="#333333"/>
<path d="M188.228 77.3337H189.717V64.9866H188.228V77.3337Z" fill="#333333"/>
<path d="M192.207 66.2872V68.4349H190.88V69.6585H192.207V75.0234C192.207 76.7347 192.84 77.4022 194.474 77.4022C194.825 77.4022 195.236 77.3765 195.415 77.3337V76.0844C195.313 76.1016 194.97 76.1272 194.799 76.1272C194.038 76.1272 193.695 75.7593 193.695 74.9464V69.6585H195.424V68.4349H193.695V66.2872H192.207Z" fill="#333333"/>
<path d="M196.861 70.8906C196.861 72.1741 197.674 72.9528 199.351 73.3549L200.763 73.6972C201.781 73.9453 202.132 74.3132 202.132 74.955C202.132 75.7593 201.388 76.2727 200.181 76.2727C198.975 76.2727 198.29 75.785 198.111 74.7667H196.622C196.793 76.4353 198.093 77.4877 200.181 77.4877C202.166 77.4877 203.63 76.3925 203.63 74.8437C203.63 73.5688 202.979 72.8672 201.182 72.4308L199.771 72.0885C198.778 71.849 198.324 71.4297 198.324 70.8136C198.324 70.035 199.043 69.4959 200.13 69.4959C201.225 69.4959 201.91 70.0692 202.021 71.0019H203.441C203.381 69.4275 202.081 68.2809 200.13 68.2809C198.205 68.2809 196.861 69.3676 196.861 70.8906Z" fill="#333333"/>
<path d="M209.251 66.2872V68.4349H207.925V69.6585H209.251V75.0234C209.251 76.7347 209.884 77.4022 211.519 77.4022C211.869 77.4022 212.28 77.3765 212.46 77.3337V76.0844C212.357 76.1016 212.015 76.1272 211.844 76.1272C211.082 76.1272 210.74 75.7593 210.74 74.9464V69.6585H212.468V68.4349H210.74V66.2872H209.251Z" fill="#333333"/>
<path d="M217.491 77.4877C219.947 77.4877 221.607 75.7165 221.607 72.8843C221.607 70.0435 219.947 68.2809 217.491 68.2809C215.027 68.2809 213.367 70.0435 213.367 72.8843C213.367 75.7165 215.027 77.4877 217.491 77.4877ZM217.491 76.1786C215.917 76.1786 214.881 74.9807 214.881 72.8843C214.881 70.7879 215.917 69.59 217.491 69.59C219.066 69.59 220.092 70.7879 220.092 72.8843C220.092 74.9807 219.066 76.1786 217.491 76.1786Z" fill="#333333"/>
<path d="M34.3297 100.334H35.8185V95.1484C35.8185 93.6083 36.7341 92.5986 38.2143 92.5986C39.6091 92.5986 40.3192 93.4457 40.3192 94.8575V100.334H41.8081V94.5837C41.8081 92.5986 40.6273 91.2809 38.6764 91.2809C37.3245 91.2809 36.349 91.8627 35.8527 92.8553H35.8185V87.9866H34.3297V100.334Z" fill="#333333"/>
<path d="M49.6031 97.7839C49.355 98.6224 48.525 99.1957 47.3955 99.1957C45.7954 99.1957 44.7943 98.0748 44.7943 96.372V96.2865H51.1775V95.7217C51.1775 93.0264 49.6972 91.2809 47.2928 91.2809C44.8371 91.2809 43.2627 93.1548 43.2627 95.9185C43.2627 98.7165 44.8114 100.488 47.3613 100.488C49.3036 100.488 50.8096 99.3411 51.0663 97.7839H49.6031ZM47.2672 92.5729C48.6704 92.5729 49.6031 93.6339 49.6373 95.1228H44.8029C44.897 93.6425 45.8724 92.5729 47.2672 92.5729Z" fill="#333333"/>
<path d="M52.7605 100.334H54.2493V87.9866H52.7605V100.334Z" fill="#333333"/>
<path d="M60.5812 91.2809C59.2891 91.2809 58.2538 91.9397 57.7062 92.9408H57.6719V91.4349H56.2601V103.303H57.7489V98.8876H57.7832C58.3137 99.8631 59.3405 100.488 60.6154 100.488C62.8572 100.488 64.3888 98.6737 64.3888 95.8843C64.3888 93.0949 62.8486 91.2809 60.5812 91.2809ZM60.2902 99.1786C58.7672 99.1786 57.7404 97.8694 57.7404 95.8843C57.7404 93.9077 58.7672 92.59 60.2902 92.59C61.8732 92.59 62.8658 93.8735 62.8658 95.8843C62.8658 97.9036 61.8732 99.1786 60.2902 99.1786Z" fill="#333333"/>
<path d="M70.2329 103.662C71.8416 103.662 72.5774 103.038 73.339 100.958L76.8386 91.4349H75.2727L72.8085 98.8449H72.7828L70.3185 91.4349H68.727L72.0127 100.342L71.8073 100.967C71.4651 102.002 71.003 102.404 70.173 102.404C69.9848 102.404 69.7538 102.396 69.5912 102.362V103.611C69.7538 103.645 70.0533 103.662 70.2329 103.662Z" fill="#333333"/>
<path d="M81.442 100.488C83.8977 100.488 85.5577 98.7165 85.5577 95.8843C85.5577 93.0435 83.8977 91.2809 81.442 91.2809C78.9777 91.2809 77.3178 93.0435 77.3178 95.8843C77.3178 98.7165 78.9777 100.488 81.442 100.488ZM81.442 99.1786C79.8676 99.1786 78.8323 97.9807 78.8323 95.8843C78.8323 93.7879 79.8676 92.59 81.442 92.59C83.0164 92.59 84.0432 93.7879 84.0432 95.8843C84.0432 97.9807 83.0164 99.1786 81.442 99.1786Z" fill="#333333"/>
<path d="M94.371 91.4349H92.8821V96.6629C92.8821 98.1775 92.0094 99.17 90.5633 99.17C89.1857 99.17 88.5097 98.3914 88.5097 96.9453V91.4349H87.0209V97.2106C87.0209 99.2299 88.1589 100.488 90.1012 100.488C91.4703 100.488 92.3944 99.9144 92.9249 98.8876H92.9591V100.334H94.371V91.4349Z" fill="#333333"/>
<path d="M103.586 100.488C106.042 100.488 107.702 98.7165 107.702 95.8843C107.702 93.0435 106.042 91.2809 103.586 91.2809C101.122 91.2809 99.4621 93.0435 99.4621 95.8843C99.4621 98.7165 101.122 100.488 103.586 100.488ZM103.586 99.1786C102.012 99.1786 100.977 97.9807 100.977 95.8843C100.977 93.7879 102.012 92.59 103.586 92.59C105.161 92.59 106.188 93.7879 106.188 95.8843C106.188 97.9807 105.161 99.1786 103.586 99.1786Z" fill="#333333"/>
<path d="M109.208 100.334H110.697V94.7891C110.697 93.5312 111.45 92.7013 112.605 92.7013C112.964 92.7013 113.281 92.744 113.401 92.7868V91.3408C113.281 91.3237 113.058 91.2809 112.802 91.2809C111.758 91.2809 110.936 91.9055 110.646 92.8895H110.611V91.4349H109.208V100.334Z" fill="#333333"/>
<path d="M117.859 103.688C120.314 103.688 121.88 102.276 121.88 100.154V91.4349H120.46V92.9323H120.434C119.844 91.8969 118.8 91.2809 117.542 91.2809C115.24 91.2809 113.752 93.0606 113.752 95.8501C113.752 98.6138 115.24 100.402 117.508 100.402C118.757 100.402 119.81 99.769 120.357 98.8021H120.391V100.205C120.391 101.532 119.459 102.422 117.919 102.422C116.806 102.422 115.925 101.882 115.634 101.07H114.102C114.35 102.584 115.899 103.688 117.859 103.688ZM117.807 99.093C116.276 99.093 115.275 97.8437 115.275 95.8501C115.275 93.8564 116.276 92.59 117.807 92.59C119.356 92.59 120.391 93.8906 120.391 95.8501C120.391 97.8095 119.356 99.093 117.807 99.093Z" fill="#333333"/>
<path d="M126.424 100.488C127.622 100.488 128.751 99.8203 129.282 98.8021H129.316V100.334H130.728V94.1815C130.728 92.4103 129.41 91.2809 127.322 91.2809C125.217 91.2809 123.9 92.4617 123.797 94.0019H125.234C125.423 93.1291 126.141 92.59 127.288 92.59C128.52 92.59 129.239 93.2403 129.239 94.327V95.0714L126.689 95.2169C124.635 95.3367 123.463 96.295 123.463 97.8181C123.463 99.4182 124.653 100.488 126.424 100.488ZM126.757 99.2214C125.688 99.2214 124.978 98.6652 124.978 97.8181C124.978 96.9795 125.662 96.449 126.86 96.372L129.239 96.2266V96.9539C129.239 98.2374 128.161 99.2214 126.757 99.2214Z" fill="#333333"/>
<path d="M132.619 100.334H134.108V95.0971C134.108 93.5911 135.023 92.5986 136.426 92.5986C137.795 92.5986 138.471 93.3858 138.471 94.8233V100.334H139.96V94.558C139.96 92.5387 138.831 91.2809 136.88 91.2809C135.502 91.2809 134.553 91.8969 134.056 92.8553H134.022V91.4349H132.619V100.334Z" fill="#333333"/>
<path d="M142.681 89.8519C143.203 89.8519 143.614 89.4327 143.614 88.9193C143.614 88.3973 143.203 87.9866 142.681 87.9866C142.168 87.9866 141.749 88.3973 141.749 88.9193C141.749 89.4327 142.168 89.8519 142.681 89.8519ZM141.937 100.334H143.426V91.4349H141.937V100.334Z" fill="#333333"/>
<path d="M145.248 100.334H151.888V99.1101H146.968V99.0844L151.862 92.5216V91.4349H145.257V92.6585H150.177V92.6842L145.248 99.2727V100.334Z" fill="#333333"/>
<path d="M159.195 97.7839C158.947 98.6224 158.117 99.1957 156.988 99.1957C155.388 99.1957 154.387 98.0748 154.387 96.372V96.2865H160.77V95.7217C160.77 93.0264 159.289 91.2809 156.885 91.2809C154.429 91.2809 152.855 93.1548 152.855 95.9185C152.855 98.7165 154.404 100.488 156.954 100.488C158.896 100.488 160.402 99.3411 160.659 97.7839H159.195ZM156.859 92.5729C158.263 92.5729 159.195 93.6339 159.23 95.1228H154.395C154.489 93.6425 155.465 92.5729 156.859 92.5729Z" fill="#333333"/>
<path d="M168.471 100.488C169.669 100.488 170.798 99.8203 171.329 98.8021H171.363V100.334H172.775V94.1815C172.775 92.4103 171.457 91.2809 169.369 91.2809C167.264 91.2809 165.946 92.4617 165.844 94.0019H167.281C167.47 93.1291 168.188 92.59 169.335 92.59C170.567 92.59 171.286 93.2403 171.286 94.327V95.0714L168.736 95.2169C166.682 95.3367 165.51 96.295 165.51 97.8181C165.51 99.4182 166.699 100.488 168.471 100.488ZM168.804 99.2214C167.735 99.2214 167.025 98.6652 167.025 97.8181C167.025 96.9795 167.709 96.449 168.907 96.372L171.286 96.2266V96.9539C171.286 98.2374 170.208 99.2214 168.804 99.2214Z" fill="#333333"/>
<path d="M174.666 100.334H176.154V95.0971C176.154 93.5911 177.07 92.5986 178.473 92.5986C179.842 92.5986 180.518 93.3858 180.518 94.8233V100.334H182.007V94.558C182.007 92.5387 180.878 91.2809 178.927 91.2809C177.549 91.2809 176.599 91.8969 176.103 92.8553H176.069V91.4349H174.666V100.334Z" fill="#333333"/>
<path d="M187.278 100.488C188.561 100.488 189.58 99.8545 190.153 98.8278H190.179V100.334H191.599V87.9866H190.11V92.881H190.076C189.545 91.9055 188.519 91.2809 187.244 91.2809C185.002 91.2809 183.47 93.0949 183.47 95.8843C183.47 98.6737 185.01 100.488 187.278 100.488ZM187.56 92.59C189.092 92.59 190.119 93.8992 190.119 95.8843C190.119 97.878 189.092 99.1786 187.56 99.1786C185.986 99.1786 184.993 97.9036 184.993 95.8843C184.993 93.8735 185.986 92.59 187.56 92.59Z" fill="#333333"/>
<path d="M197.05 93.8906C197.05 95.1741 197.862 95.9528 199.539 96.3549L200.951 96.6972C201.97 96.9453 202.32 97.3132 202.32 97.955C202.32 98.7593 201.576 99.2727 200.369 99.2727C199.163 99.2727 198.478 98.785 198.299 97.7667H196.81C196.981 99.4353 198.282 100.488 200.369 100.488C202.355 100.488 203.818 99.3925 203.818 97.8437C203.818 96.5688 203.167 95.8672 201.371 95.4308L199.959 95.0885C198.966 94.849 198.513 94.4297 198.513 93.8136C198.513 93.035 199.231 92.4959 200.318 92.4959C201.413 92.4959 202.098 93.0692 202.209 94.0019H203.63C203.57 92.4275 202.269 91.2809 200.318 91.2809C198.393 91.2809 197.05 92.3676 197.05 93.8906Z" fill="#333333"/>
<path d="M205.444 100.334H206.932V95.1484C206.932 93.6083 207.848 92.5986 209.328 92.5986C210.723 92.5986 211.433 93.4457 211.433 94.8575V100.334H212.922V94.5837C212.922 92.5986 211.741 91.2809 209.79 91.2809C208.438 91.2809 207.463 91.8627 206.967 92.8553H206.932V87.9866H205.444V100.334Z" fill="#333333"/>
<path d="M217.414 100.488C218.612 100.488 219.741 99.8203 220.272 98.8021H220.306V100.334H221.718V94.1815C221.718 92.4103 220.4 91.2809 218.313 91.2809C216.208 91.2809 214.89 92.4617 214.787 94.0019H216.225C216.413 93.1291 217.132 92.59 218.278 92.59C219.51 92.59 220.229 93.2403 220.229 94.327V95.0714L217.679 95.2169C215.626 95.3367 214.454 96.295 214.454 97.8181C214.454 99.4182 215.643 100.488 217.414 100.488ZM217.748 99.2214C216.678 99.2214 215.968 98.6652 215.968 97.8181C215.968 96.9795 216.653 96.449 217.85 96.372L220.229 96.2266V96.9539C220.229 98.2374 219.151 99.2214 217.748 99.2214Z" fill="#333333"/>
<path d="M223.609 100.334H225.098V94.7891C225.098 93.5312 225.851 92.7013 227.006 92.7013C227.365 92.7013 227.682 92.744 227.802 92.7868V91.3408C227.682 91.3237 227.46 91.2809 227.203 91.2809C226.159 91.2809 225.337 91.9055 225.047 92.8895H225.012V91.4349H223.609V100.334Z" fill="#333333"/>
<path d="M234.493 97.7839C234.245 98.6224 233.415 99.1957 232.285 99.1957C230.685 99.1957 229.684 98.0748 229.684 96.372V96.2865H236.067V95.7217C236.067 93.0264 234.587 91.2809 232.183 91.2809C229.727 91.2809 228.153 93.1548 228.153 95.9185C228.153 98.7165 229.701 100.488 232.251 100.488C234.194 100.488 235.699 99.3411 235.956 97.7839H234.493ZM232.157 92.5729C233.56 92.5729 234.493 93.6339 234.527 95.1228H229.693C229.787 93.6425 230.762 92.5729 232.157 92.5729Z" fill="#333333"/>
<path d="M35.0741 112.852C35.596 112.852 36.0067 112.433 36.0067 111.919C36.0067 111.397 35.596 110.987 35.0741 110.987C34.5607 110.987 34.1414 111.397 34.1414 111.919C34.1414 112.433 34.5607 112.852 35.0741 112.852ZM34.3297 123.334H35.8185V114.435H34.3297V123.334Z" fill="#333333"/>
<path d="M37.8293 123.334H39.3181V118.097C39.3181 116.591 40.2337 115.599 41.637 115.599C43.006 115.599 43.682 116.386 43.682 117.823V123.334H45.1708V117.558C45.1708 115.539 44.0413 114.281 42.0905 114.281C40.7128 114.281 39.7631 114.897 39.2668 115.855H39.2326V114.435H37.8293V123.334Z" fill="#333333"/>
<path d="M47.5495 123.334H49.0384V115.658H50.8524V114.435H49.0298V113.451C49.0298 112.57 49.4149 112.142 50.2192 112.142C50.4673 112.142 50.7155 112.167 50.8951 112.193V110.987C50.6812 110.952 50.3219 110.918 49.9881 110.918C48.3453 110.918 47.5495 111.731 47.5495 113.442V114.435H46.3088V115.658H47.5495V123.334Z" fill="#333333"/>
<path d="M55.6526 123.488C58.1083 123.488 59.7683 121.717 59.7683 118.884C59.7683 116.044 58.1083 114.281 55.6526 114.281C53.1883 114.281 51.5283 116.044 51.5283 118.884C51.5283 121.717 53.1883 123.488 55.6526 123.488ZM55.6526 122.179C54.0782 122.179 53.0428 120.981 53.0428 118.884C53.0428 116.788 54.0782 115.59 55.6526 115.59C57.227 115.59 58.2538 116.788 58.2538 118.884C58.2538 120.981 57.227 122.179 55.6526 122.179Z" fill="#333333"/>
<path d="M61.2742 123.334H62.7631V117.789C62.7631 116.531 63.516 115.701 64.6712 115.701C65.0306 115.701 65.3472 115.744 65.4669 115.787V114.341C65.3472 114.324 65.1247 114.281 64.868 114.281C63.8241 114.281 63.0027 114.906 62.7117 115.89H62.6775V114.435H61.2742V123.334Z" fill="#333333"/>
<path d="M66.682 123.334H68.1708V117.755C68.1708 116.523 69.0265 115.599 70.2073 115.599C71.3111 115.599 72.0298 116.3 72.0298 117.37V123.334H73.5187V117.678C73.5187 116.471 74.3486 115.599 75.5294 115.599C76.7017 115.599 77.3777 116.317 77.3777 117.532V123.334H78.8665V117.19C78.8665 115.427 77.7285 114.281 75.9658 114.281C74.7166 114.281 73.6727 114.914 73.1764 115.975H73.1422C72.7571 114.897 71.8587 114.281 70.6437 114.281C69.4457 114.281 68.5387 114.914 68.1195 115.855H68.0852V114.435H66.682V123.334Z" fill="#333333"/>
<path d="M83.3672 123.488C84.5652 123.488 85.6946 122.82 86.2251 121.802H86.2594V123.334H87.6712V117.182C87.6712 115.41 86.3535 114.281 84.2657 114.281C82.1608 114.281 80.8431 115.462 80.7404 117.002H82.1779C82.3661 116.129 83.0849 115.59 84.2315 115.59C85.4636 115.59 86.1823 116.24 86.1823 117.327V118.071L83.6325 118.217C81.5789 118.337 80.4067 119.295 80.4067 120.818C80.4067 122.418 81.596 123.488 83.3672 123.488ZM83.7009 122.221C82.6314 122.221 81.9212 121.665 81.9212 120.818C81.9212 119.98 82.6057 119.449 83.8036 119.372L86.1823 119.227V119.954C86.1823 121.237 85.1042 122.221 83.7009 122.221Z" fill="#333333"/>
<path d="M90.0413 112.287V114.435H88.7151V115.658H90.0413V121.023C90.0413 122.735 90.6745 123.402 92.3088 123.402C92.6597 123.402 93.0704 123.376 93.2501 123.334V122.084C93.1474 122.102 92.8051 122.127 92.634 122.127C91.8724 122.127 91.5302 121.759 91.5302 120.946V115.658H93.2586V114.435H91.5302V112.287H90.0413Z" fill="#333333"/>
<path d="M95.6716 112.852C96.1935 112.852 96.6042 112.433 96.6042 111.919C96.6042 111.397 96.1935 110.987 95.6716 110.987C95.1582 110.987 94.7389 111.397 94.7389 111.919C94.7389 112.433 95.1582 112.852 95.6716 112.852ZM94.9271 123.334H96.416V114.435H94.9271V123.334Z" fill="#333333"/>
<path d="M102.115 123.488C104.57 123.488 106.23 121.717 106.23 118.884C106.23 116.044 104.57 114.281 102.115 114.281C99.6503 114.281 97.9904 116.044 97.9904 118.884C97.9904 121.717 99.6503 123.488 102.115 123.488ZM102.115 122.179C100.54 122.179 99.5049 120.981 99.5049 118.884C99.5049 116.788 100.54 115.59 102.115 115.59C103.689 115.59 104.716 116.788 104.716 118.884C104.716 120.981 103.689 122.179 102.115 122.179Z" fill="#333333"/>
<path d="M107.736 123.334H109.225V118.097C109.225 116.591 110.141 115.599 111.544 115.599C112.913 115.599 113.589 116.386 113.589 117.823V123.334H115.078V117.558C115.078 115.539 113.948 114.281 111.997 114.281C110.62 114.281 109.67 114.897 109.174 115.855H109.14V114.435H107.736V123.334Z" fill="#333333"/>
<path d="M131.891 114.435H130.42L128.64 121.674H128.606L126.586 114.435H125.149L123.138 121.674H123.104L121.324 114.435H119.844L122.334 123.334H123.848L125.85 116.446H125.885L127.896 123.334H129.41L131.891 114.435Z" fill="#333333"/>
<path d="M133.936 112.852C134.458 112.852 134.869 112.433 134.869 111.919C134.869 111.397 134.458 110.987 133.936 110.987C133.423 110.987 133.004 111.397 133.004 111.919C133.004 112.433 133.423 112.852 133.936 112.852ZM133.192 123.334H134.681V114.435H133.192V123.334Z" fill="#333333"/>
<path d="M137.171 112.287V114.435H135.845V115.658H137.171V121.023C137.171 122.735 137.804 123.402 139.438 123.402C139.789 123.402 140.2 123.376 140.38 123.334V122.084C140.277 122.102 139.935 122.127 139.763 122.127C139.002 122.127 138.66 121.759 138.66 120.946V115.658H140.388V114.435H138.66V112.287H137.171Z" fill="#333333"/>
<path d="M142.057 123.334H143.545V118.148C143.545 116.608 144.461 115.599 145.941 115.599C147.336 115.599 148.046 116.446 148.046 117.858V123.334H149.535V117.584C149.535 115.599 148.354 114.281 146.403 114.281C145.051 114.281 144.076 114.863 143.58 115.855H143.545V110.987H142.057V123.334Z" fill="#333333"/>
<path d="M152.247 112.852C152.769 112.852 153.18 112.433 153.18 111.919C153.18 111.397 152.769 110.987 152.247 110.987C151.734 110.987 151.315 111.397 151.315 111.919C151.315 112.433 151.734 112.852 152.247 112.852ZM151.503 123.334H152.992V114.435H151.503V123.334Z" fill="#333333"/>
<path d="M155.003 123.334H156.491V118.097C156.491 116.591 157.407 115.599 158.81 115.599C160.179 115.599 160.855 116.386 160.855 117.823V123.334H162.344V117.558C162.344 115.539 161.215 114.281 159.264 114.281C157.886 114.281 156.936 114.897 156.44 115.855H156.406V114.435H155.003V123.334Z" fill="#333333"/>
<path d="M168.582 126.662C170.191 126.662 170.926 126.038 171.688 123.958L175.188 114.435H173.622L171.157 121.845H171.132L168.667 114.435H167.076L170.362 123.342L170.156 123.967C169.814 125.002 169.352 125.404 168.522 125.404C168.334 125.404 168.103 125.396 167.94 125.362V126.611C168.103 126.645 168.402 126.662 168.582 126.662Z" fill="#333333"/>
<path d="M179.791 123.488C182.247 123.488 183.907 121.717 183.907 118.884C183.907 116.044 182.247 114.281 179.791 114.281C177.327 114.281 175.667 116.044 175.667 118.884C175.667 121.717 177.327 123.488 179.791 123.488ZM179.791 122.179C178.217 122.179 177.181 120.981 177.181 118.884C177.181 116.788 178.217 115.59 179.791 115.59C181.365 115.59 182.392 116.788 182.392 118.884C182.392 120.981 181.365 122.179 179.791 122.179Z" fill="#333333"/>
<path d="M192.72 114.435H191.231V119.663C191.231 121.177 190.358 122.17 188.912 122.17C187.535 122.17 186.859 121.391 186.859 119.945V114.435H185.37V120.211C185.37 122.23 186.508 123.488 188.45 123.488C189.819 123.488 190.743 122.914 191.274 121.888H191.308V123.334H192.72V114.435Z" fill="#333333"/>
<path d="M194.654 123.334H196.143V117.789C196.143 116.531 196.896 115.701 198.051 115.701C198.41 115.701 198.727 115.744 198.846 115.787V114.341C198.727 114.324 198.504 114.281 198.247 114.281C197.204 114.281 196.382 114.906 196.091 115.89H196.057V114.435H194.654V123.334Z" fill="#333333"/>
<path d="M204.134 112.287V114.435H202.808V115.658H204.134V121.023C204.134 122.735 204.768 123.402 206.402 123.402C206.753 123.402 207.163 123.376 207.343 123.334V122.084C207.24 122.102 206.898 122.127 206.727 122.127C205.965 122.127 205.623 121.759 205.623 120.946V115.658H207.352V114.435H205.623V112.287H204.134Z" fill="#333333"/>
<path d="M214.59 120.784C214.342 121.622 213.512 122.196 212.383 122.196C210.783 122.196 209.782 121.075 209.782 119.372V119.286H216.165V118.722C216.165 116.026 214.685 114.281 212.28 114.281C209.824 114.281 208.25 116.155 208.25 118.919C208.25 121.717 209.799 123.488 212.349 123.488C214.291 123.488 215.797 122.341 216.054 120.784H214.59ZM212.255 115.573C213.658 115.573 214.59 116.634 214.625 118.123H209.79C209.884 116.642 210.86 115.573 212.255 115.573Z" fill="#333333"/>
<path d="M220.272 123.488C221.47 123.488 222.599 122.82 223.13 121.802H223.164V123.334H224.576V117.182C224.576 115.41 223.258 114.281 221.17 114.281C219.066 114.281 217.748 115.462 217.645 117.002H219.083C219.271 116.129 219.99 115.59 221.136 115.59C222.368 115.59 223.087 116.24 223.087 117.327V118.071L220.537 118.217C218.484 118.337 217.311 119.295 217.311 120.818C217.311 122.418 218.501 123.488 220.272 123.488ZM220.606 122.221C219.536 122.221 218.826 121.665 218.826 120.818C218.826 119.98 219.51 119.449 220.708 119.372L223.087 119.227V119.954C223.087 121.237 222.009 122.221 220.606 122.221Z" fill="#333333"/>
<path d="M226.467 123.334H227.956V117.755C227.956 116.523 228.811 115.599 229.992 115.599C231.096 115.599 231.815 116.3 231.815 117.37V123.334H233.304V117.678C233.304 116.471 234.134 115.599 235.314 115.599C236.487 115.599 237.163 116.317 237.163 117.532V123.334H238.651V117.19C238.651 115.427 237.513 114.281 235.751 114.281C234.502 114.281 233.458 114.914 232.961 115.975H232.927C232.542 114.897 231.644 114.281 230.429 114.281C229.231 114.281 228.324 114.914 227.904 115.855H227.87V114.435H226.467V123.334Z" fill="#333333"/>
<path d="M241.809 123.419C242.356 123.419 242.784 122.991 242.784 122.444C242.784 121.896 242.356 121.468 241.809 121.468C241.261 121.468 240.833 121.896 240.833 122.444C240.833 122.991 241.261 123.419 241.809 123.419Z" fill="#333333"/>
<rect x="33.2856" y="182.477" width="258.476" height="1.09524" fill="#D7D9E0"/>
<path d="M39.0271 214.045C41.9449 214.045 43.9642 212.445 44.3493 209.801H42.1845C41.8422 211.29 40.6699 212.171 39.0356 212.171C36.8965 212.171 35.5446 210.434 35.5446 207.662C35.5446 204.907 36.9051 203.161 39.0271 203.161C40.6272 203.161 41.885 204.179 42.1759 205.728H44.3493C44.0755 203.075 41.8935 201.287 39.0271 201.287C35.5189 201.287 33.2856 203.726 33.2856 207.662C33.2856 211.623 35.5018 214.045 39.0271 214.045Z" fill="#0364D3"/>
<path d="M45.8124 213.84H47.943V208.56C47.943 207.285 48.6703 206.507 49.8768 206.507C50.2362 206.507 50.5613 206.558 50.741 206.626V204.701C50.587 204.667 50.3474 204.616 50.0736 204.616C49.004 204.616 48.2083 205.249 47.9002 206.353H47.8574V204.77H45.8124V213.84Z" fill="#0364D3"/>
<path d="M57.5007 211.127C57.2696 211.88 56.5167 212.376 55.5241 212.376C54.1294 212.376 53.2395 211.401 53.2395 209.946V209.818H59.5799V209.125C59.5799 206.37 57.9713 204.581 55.3958 204.581C52.7775 204.581 51.1175 206.472 51.1175 209.339C51.1175 212.231 52.7603 214.019 55.4813 214.019C57.629 214.019 59.2205 212.838 59.4943 211.127H57.5007ZM55.4043 206.233C56.6279 206.233 57.4493 207.131 57.4921 208.415H53.2566C53.3422 207.148 54.2064 206.233 55.4043 206.233Z" fill="#0364D3"/>
<path d="M63.6272 213.985C64.7909 213.985 65.9289 213.378 66.4508 212.394H66.4936V213.84H68.5472V207.593C68.5472 205.771 67.084 204.581 64.8336 204.581C62.5234 204.581 61.0773 205.796 60.9832 207.491H62.9598C63.0967 206.738 63.7384 206.25 64.7481 206.25C65.8005 206.25 66.4423 206.798 66.4423 207.747V208.398L64.0464 208.535C61.8388 208.671 60.5981 209.638 60.5981 211.247C60.5981 212.881 61.8731 213.985 63.6272 213.985ZM64.2689 212.376C63.3448 212.376 62.7287 211.906 62.7287 211.161C62.7287 210.443 63.3191 209.981 64.3459 209.912L66.4423 209.784V210.477C66.4423 211.572 65.4754 212.376 64.2689 212.376Z" fill="#0364D3"/>
<path d="M70.8574 202.648V204.77H69.5568V206.412H70.8574V211.427C70.8574 213.189 71.6275 213.882 73.587 213.882C74.0405 213.882 74.4598 213.848 74.6908 213.797V212.171C74.5539 212.197 74.2801 212.214 74.0833 212.214C73.3303 212.214 72.988 211.872 72.988 211.127V206.412H74.6993V204.77H72.988V202.648H70.8574Z" fill="#0364D3"/>
<path d="M81.9895 211.127C81.7585 211.88 81.0055 212.376 80.013 212.376C78.6182 212.376 77.7284 211.401 77.7284 209.946V209.818H84.0688V209.125C84.0688 206.37 82.4601 204.581 79.8846 204.581C77.2663 204.581 75.6063 206.472 75.6063 209.339C75.6063 212.231 77.2492 214.019 79.9702 214.019C82.1179 214.019 83.7094 212.838 83.9832 211.127H81.9895ZM79.8932 206.233C81.1167 206.233 81.9382 207.131 81.981 208.415H77.7455C77.831 207.148 78.6952 206.233 79.8932 206.233Z" fill="#0364D3"/>
<path d="M91.6242 213.985C92.7879 213.985 93.9259 213.378 94.4478 212.394H94.4906V213.84H96.5442V207.593C96.5442 205.771 95.081 204.581 92.8307 204.581C90.5204 204.581 89.0743 205.796 88.9802 207.491H90.9568C91.0937 206.738 91.7354 206.25 92.7451 206.25C93.7975 206.25 94.4393 206.798 94.4393 207.747V208.398L92.0435 208.535C89.8359 208.671 88.5952 209.638 88.5952 211.247C88.5952 212.881 89.8701 213.985 91.6242 213.985ZM92.2659 212.376C91.3418 212.376 90.7257 211.906 90.7257 211.161C90.7257 210.443 91.3162 209.981 92.3429 209.912L94.4393 209.784V210.477C94.4393 211.572 93.4724 212.376 92.2659 212.376Z" fill="#0364D3"/>
<path d="M107.959 213.84L112.254 201.492H109.875L106.744 211.469H106.692L103.561 201.492H101.131L105.426 213.84H107.959Z" fill="#0364D3"/>
<path d="M114.795 213.985C115.959 213.985 117.097 213.378 117.619 212.394H117.662V213.84H119.715V207.593C119.715 205.771 118.252 204.581 116.002 204.581C113.692 204.581 112.245 205.796 112.151 207.491H114.128C114.265 206.738 114.907 206.25 115.916 206.25C116.969 206.25 117.61 206.798 117.61 207.747V208.398L115.215 208.535C113.007 208.671 111.766 209.638 111.766 211.247C111.766 212.881 113.041 213.985 114.795 213.985ZM115.437 212.376C114.513 212.376 113.897 211.906 113.897 211.161C113.897 210.443 114.487 209.981 115.514 209.912L117.61 209.784V210.477C117.61 211.572 116.644 212.376 115.437 212.376Z" fill="#0364D3"/>
<path d="M129.478 204.77H127.348V210.015C127.348 211.332 126.586 212.205 125.354 212.205C124.156 212.205 123.523 211.504 123.523 210.203V204.77H121.392V210.631C121.392 212.727 122.642 214.002 124.61 214.002C125.987 214.002 126.903 213.369 127.382 212.265H127.425V213.84H129.478V204.77Z" fill="#0364D3"/>
<path d="M131.284 213.84H133.414V201.492H131.284V213.84Z" fill="#0364D3"/>
<path d="M135.819 202.648V204.77H134.518V206.412H135.819V211.427C135.819 213.189 136.589 213.882 138.548 213.882C139.002 213.882 139.421 213.848 139.652 213.797V212.171C139.515 212.197 139.241 212.214 139.045 212.214C138.292 212.214 137.949 211.872 137.949 211.127V206.412H139.661V204.77H137.949V202.648H135.819Z" fill="#0364D3"/>
<path d="M149.244 213.482C148.796 213.052 148.795 212.335 149.243 211.903L153.645 207.666L149.243 203.429C148.795 202.998 148.796 202.281 149.244 201.85L149.272 201.824C149.695 201.416 150.365 201.416 150.789 201.824L156.049 206.876C156.498 207.307 156.498 208.025 156.049 208.456L150.789 213.509C150.365 213.916 149.695 213.916 149.272 213.509L149.244 213.482Z" fill="#0364D3"/>
<rect width="131.429" height="236.571" transform="translate(335.571 5.04785)" fill="#F3FFF6"/>
<mask id="mask0_38_16849" style="mask-type:alpha" maskUnits="userSpaceOnUse" x="281" y="33" width="209" height="209">
<path d="M281.292 43.9863L474.605 33.7017C477.021 33.5731 479.084 35.4276 479.213 37.8437L489.497 231.157L296.184 241.442C293.768 241.57 291.705 239.716 291.577 237.3L281.292 43.9863Z" fill="white"/>
</mask>
<g mask="url(#mask0_38_16849)">
<ellipse cx="403.113" cy="110.679" rx="69.5622" ry="68.8207" transform="rotate(142.955 403.113 110.679)" stroke="#79D9AB" stroke-width="1.09524" stroke-miterlimit="16" stroke-linecap="round" stroke-dasharray="5.48 10.95"/>
<ellipse cx="402.997" cy="111.688" rx="36.6556" ry="36.7537" transform="rotate(143.955 402.997 111.688)" stroke="#79D9AB" stroke-width="1.09524" stroke-linecap="round" stroke-linejoin="round" stroke-dasharray="8.76 8.76"/>
<path fill-rule="evenodd" clip-rule="evenodd" d="M434.639 42.2172L422.849 44.9491C422.26 45.0856 421.893 45.674 422.029 46.2633L427.12 68.2366C427.257 68.8259 427.845 69.1929 428.435 69.0564L447.194 64.7099C447.783 64.5733 448.15 63.9849 448.013 63.3957L444.537 48.3911L434.639 42.2172Z" fill="white" stroke="#79D9AB" stroke-width="1.09524" stroke-linecap="round" stroke-linejoin="round"/>
<path d="M430.7 61.7577L441.95 59.151" stroke="#79D9AB" stroke-width="1.09524" stroke-linecap="round" stroke-linejoin="round"/>
<path d="M429.583 56.9354L440.833 54.3287" stroke="#79D9AB" stroke-width="1.09524" stroke-linecap="round" stroke-linejoin="round"/>
<path d="M428.465 52.1151L431.68 51.3703" stroke="#79D9AB" stroke-width="1.09524" stroke-linecap="round" stroke-linejoin="round"/>
<path d="M434.639 42.2168L436.501 50.2526L444.537 48.3907" stroke="#79D9AB" stroke-width="1.09524" stroke-linecap="round" stroke-linejoin="round"/>
<path d="M327.922 84.9253C330.575 80.677 336.168 79.3811 340.418 82.03" stroke="#79D9AB" stroke-width="1.09524" stroke-linecap="round" stroke-linejoin="round"/>
<circle cx="335.621" cy="89.7262" r="2.4746" transform="rotate(-13.0454 335.621 89.7262)" fill="#6AE4A9" stroke="#79D9AB" stroke-width="1.09524" stroke-linecap="round" stroke-linejoin="round"/>
<path d="M322.323 81.4331C326.904 74.0914 336.568 71.852 343.912 76.4309" stroke="#79D9AB" stroke-width="1.09524" stroke-linecap="round" stroke-linejoin="round"/>
<path fill-rule="evenodd" clip-rule="evenodd" d="M476.804 106.219C480.569 107.367 482.691 111.35 481.543 115.114L478.043 126.596C476.895 130.361 472.912 132.483 469.147 131.335L457.666 127.834C453.901 126.687 451.779 122.704 452.927 118.939L456.427 107.458C457.575 103.693 461.558 101.571 465.323 102.719L476.804 106.219Z" fill="white" stroke="#79D9AB" stroke-width="1.09524" stroke-linecap="round" stroke-linejoin="round"/>
<path fill-rule="evenodd" clip-rule="evenodd" d="M469.286 110.3C467.057 109.62 464.699 110.876 464.019 113.106C463.536 114.69 464.031 116.34 465.158 117.406L463.253 123.656L466.841 124.75L468.747 118.5C470.278 118.244 471.609 117.152 472.092 115.567C472.771 113.338 471.515 110.98 469.286 110.3Z" fill="#6AE4A9"/>
<path fill-rule="evenodd" clip-rule="evenodd" d="M441.432 181.656L445.581 178.957L448.582 164.783C449.261 164.584 449.931 164.319 450.555 163.913C453.991 161.678 454.965 157.078 452.73 153.642C450.494 150.206 445.895 149.232 442.458 151.467C439.022 153.703 438.048 158.302 440.284 161.738C440.689 162.362 441.195 162.876 441.735 163.333L440.667 168.378L443.365 172.526L439.217 175.225L438.734 177.508L441.432 181.656Z" fill="white" stroke="#79D9AB" stroke-width="1.09524" stroke-linecap="round" stroke-linejoin="round"/>
<ellipse rx="2.47459" ry="2.4746" transform="matrix(-0.838238 0.545304 -0.545302 -0.83824 446.507 157.69)" fill="#D8FFE0" stroke="#79D9AB" stroke-width="1.09524" stroke-linecap="round" stroke-linejoin="round"/>
<path fill-rule="evenodd" clip-rule="evenodd" d="M319.665 82.1069C319.408 77.2747 323.117 73.149 327.949 72.8919L409.294 68.5642C414.127 68.3071 418.252 72.016 418.509 76.8483L422.487 151.604C422.744 156.436 419.035 160.562 414.203 160.819L332.858 165.146C328.025 165.403 323.9 161.695 323.643 156.862L319.665 82.1069Z" fill="white" stroke="#43A670" stroke-width="2.19048"/>
<path d="M332.279 81.4694L405.9 77.5526C408.014 77.4401 409.819 79.0628 409.931 81.1769L413.497 148.208C413.61 150.322 411.987 152.127 409.873 152.239L336.253 156.156C334.138 156.269 332.333 154.646 332.221 152.532L328.655 85.5009C328.542 83.3868 330.165 81.5818 332.279 81.4694Z" fill="white" stroke="#43A670" stroke-width="1.09524"/>
<path fill-rule="evenodd" clip-rule="evenodd" d="M373.039 138.225C385.322 137.572 394.749 127.085 394.096 114.802C393.442 102.519 382.955 93.092 370.673 93.7455C358.39 94.399 348.962 104.886 349.616 117.169C350.269 129.451 360.756 138.879 373.039 138.225ZM381.385 131.344C381.618 131.174 382.091 130.739 382.173 129.966C382.251 129.265 381.88 128.733 381.689 128.511L377.443 124.633C377.293 124.524 377.029 124.368 376.687 124.306C376.215 124.216 375.776 124.348 375.591 124.418C376.033 124.234 376.553 123.935 376.629 123.89L376.626 123.888C375.414 124.609 374.013 125.055 372.507 125.135C371.293 125.2 370.122 125.021 369.043 124.641C368.824 124.587 368.464 124.54 368.082 124.656C367.621 124.791 367.329 125.089 367.256 125.169L368.079 124.238C368.077 124.237 368.074 124.236 368.072 124.234L362.104 130.978C365.2 133.052 368.969 134.178 372.976 133.964C376.064 133.8 378.926 132.861 381.385 131.344ZM386.84 126.103C386.838 126.106 386.836 126.109 386.833 126.112L380.16 120.018C380.787 118.704 381.105 117.219 381.022 115.663C380.935 114.025 380.415 112.512 379.58 111.23L385.549 104.485C385.551 104.487 385.553 104.489 385.555 104.492L384.003 106.243C384.003 106.243 384.643 105.543 385.58 105.623C386.297 105.68 386.734 106.077 386.935 106.317C388.626 108.877 389.678 111.907 389.853 115.191C390.022 118.378 389.345 121.414 388.018 124.081C387.843 124.338 387.412 124.805 386.689 124.98C385.943 125.165 385.37 124.75 385.187 124.593L386.84 126.103ZM380.123 102.708C380.285 102.478 380.618 101.899 380.462 101.193C380.309 100.481 379.835 100.115 379.567 99.9562C376.999 98.7571 374.107 98.1539 371.08 98.315C367.151 98.524 363.587 99.9881 360.756 102.298L367.431 108.394C367.434 108.392 367.438 108.39 367.441 108.388L366.52 107.547C366.601 107.619 366.923 107.884 367.396 107.97C367.844 108.055 368.251 107.944 368.449 107.873C369.405 107.459 370.449 107.206 371.55 107.147C372.974 107.071 374.339 107.331 375.567 107.857L375.574 107.849C375.498 107.818 374.938 107.597 374.477 107.46C374.668 107.51 375.127 107.568 375.586 107.428C375.929 107.328 376.178 107.137 376.314 107.013L380.123 102.708ZM354.203 117.088C353.989 113.06 355.128 109.273 357.222 106.168L357.229 106.174C356.563 107.149 356.14 108.014 356.019 108.263L356.002 108.296C356.088 108.129 356.449 107.468 357.34 107.3C358.043 107.164 358.624 107.497 358.859 107.663L363.109 111.544C363.23 111.684 363.398 111.92 363.486 112.246C363.586 112.613 363.564 112.959 363.519 113.181C363.146 114.253 362.97 115.415 363.034 116.62C363.094 117.743 363.357 118.807 363.785 119.778C363.85 120.002 363.905 120.342 363.828 120.695C363.751 121.068 363.586 121.363 363.483 121.512L359.633 125.863C359.404 126.072 358.926 126.405 358.274 126.316C357.376 126.196 356.885 125.583 356.791 125.421C356.895 125.609 357.456 126.513 358.231 127.448L358.223 127.457C355.892 124.618 354.414 121.037 354.203 117.088ZM361.91 102.308C361.806 103.242 362.5 103.876 362.5 103.876L360.77 102.296C361.719 101.515 362.605 100.978 362.791 100.868C362.632 100.966 362.006 101.407 361.91 102.308ZM380.013 111.166C380.086 110.692 380.353 110.371 380.423 110.288L379.593 111.225C379.593 111.225 379.919 111.724 380.163 112.239C380.079 112.061 379.935 111.64 380.013 111.166ZM380.61 118.92C380.451 119.429 380.172 120.016 380.172 120.016L381.1 120.862C381.014 120.784 380.743 120.464 380.596 120.008C380.445 119.552 380.551 119.109 380.61 118.92ZM363.249 130.841C363.047 129.924 363.67 129.22 363.67 129.22L362.117 130.975C363.132 131.657 364.07 132.119 364.266 132.209C364.097 132.128 363.44 131.727 363.249 130.841Z" fill="#43A670"/>
<path fill-rule="evenodd" clip-rule="evenodd" d="M326.375 94.4526C325.771 94.4847 325.308 95.0004 325.34 95.6044L325.924 106.596C325.957 107.2 326.472 107.664 327.076 107.632L331.479 107.398C332.083 107.365 332.546 106.85 332.514 106.246L331.929 95.2539C331.897 94.6498 331.381 94.1862 330.777 94.2183L326.375 94.4526ZM328.303 130.694C327.699 130.727 327.236 131.242 327.268 131.846L327.853 142.838C327.885 143.442 328.4 143.906 329.004 143.874L333.407 143.639C334.011 143.607 334.474 143.092 334.442 142.488L333.857 131.496C333.825 130.892 333.31 130.428 332.706 130.46L328.303 130.694Z" fill="#43A670"/>
<path d="M321.672 150.874L324.967 150.699L325.261 156.222C325.485 160.45 329.095 163.696 333.324 163.471L413.561 159.202C417.789 158.977 421.035 155.367 420.81 151.139L420.516 145.615L423.811 145.44L424.281 154.272C424.602 160.312 419.966 165.469 413.926 165.791L333.661 170.061C327.62 170.382 322.463 165.746 322.142 159.706L321.672 150.874Z" fill="#43A670"/>
</g>
</g>
<rect x="7.54762" y="5.59547" width="458.905" height="235.476" rx="8.21429" stroke="#D7D9E0" stroke-width="1.09524"/>
</g>
<defs>
<filter id="filter0_d_38_16849" x="0.428571" y="0.666899" width="473.143" height="249.714" filterUnits="userSpaceOnUse" color-interpolation-filters="sRGB">
<feFlood flood-opacity="0" result="BackgroundImageFix"/>
<feColorMatrix in="SourceAlpha" type="matrix" values="0 0 0 0 0 0 0 0 0 0 0 0 0 0 0 0 0 0 127 0" result="hardAlpha"/>
<feOffset dy="2.19048"/>
<feGaussianBlur stdDeviation="3.28571"/>
<feColorMatrix type="matrix" values="0 0 0 0 0 0 0 0 0 0 0 0 0 0 0 0 0 0 0.05 0"/>
<feBlend mode="normal" in2="BackgroundImageFix" result="effect1_dropShadow_38_16849"/>
<feBlend mode="normal" in="SourceGraphic" in2="effect1_dropShadow_38_16849" result="shape"/>
</filter>
<clipPath id="clip0_38_16849">
<rect x="7" y="5.04785" width="460" height="236.571" rx="8.7619" fill="white"/>
</clipPath>
</defs>
</svg>
