<svg width="474" height="251" viewBox="0 0 474 251" fill="none" xmlns="http://www.w3.org/2000/svg">
<g filter="url(#filter0_d_40_18595)">
<g clip-path="url(#clip0_40_18595)">
<rect x="7" y="5.28613" width="460" height="236.571" rx="8.7619" fill="white"/>
<path d="M44.6767 44.8096H48.11L42.7408 29.3757H38.9438L33.5852 44.8096H36.9009L38.0774 41.0661H43.5001L44.6767 44.8096ZM40.7514 32.3277H40.8262L42.8049 38.6489H38.7727L40.7514 32.3277ZM49.5004 44.8096H52.6236V29.3757H49.5004V44.8096ZM54.8055 44.8096H57.9286V29.3757H54.8055V44.8096ZM65.8541 49.0558C68.774 49.0558 70.218 47.9969 71.1913 45.0556L75.138 33.3438H71.8437L69.4158 42.3068H69.3516L66.913 33.3438H63.4904L67.4799 44.8096C67.4906 44.863 67.3729 45.3123 67.3729 45.3657C67.159 46.2749 66.5921 46.6385 65.4584 46.6385C65.3407 46.6385 64.7739 46.6278 64.6669 46.6064V49.0237C64.7739 49.0451 65.7365 49.0558 65.8541 49.0558ZM81.2345 45.0556C84.6999 45.0556 86.9139 42.8416 86.9139 39.066C86.9139 35.3439 84.6678 33.0978 81.2345 33.0978C77.8012 33.0978 75.5551 35.3546 75.5551 39.066C75.5551 42.8309 77.7691 45.0556 81.2345 45.0556ZM81.2345 42.6704C79.6943 42.6704 78.721 41.3763 78.721 39.0767C78.721 36.7985 79.7157 35.4829 81.2345 35.4829C82.7533 35.4829 83.7373 36.7985 83.7373 39.0767C83.7373 41.3763 82.764 42.6704 81.2345 42.6704ZM99.1177 33.3438H95.9946V39.9109C95.9946 41.4297 95.1282 42.4244 93.7378 42.4244C92.358 42.4244 91.5986 41.6116 91.5986 40.0821V33.3438H88.4755V40.7345C88.4755 43.4084 90.1226 45.0235 92.604 45.0235C94.3367 45.0235 95.4705 44.1892 96.0373 42.7453H96.1015V44.8096H99.1177V33.3438ZM101.15 44.8096H104.273V38.4029C104.273 36.7878 105.171 35.8466 106.712 35.8466C107.161 35.8466 107.589 35.9215 107.845 36.0284V33.2796C107.631 33.2154 107.321 33.162 106.958 33.162C105.61 33.162 104.637 33.9535 104.23 35.4081H104.166V33.3438H101.15V44.8096ZM120.167 33.162C118.509 33.162 117.236 33.9962 116.616 35.3439H116.552V33.3438H113.471V48.5531H116.594V42.8843H116.659C117.268 44.1785 118.552 44.9914 120.22 44.9914C123.087 44.9914 124.862 42.7667 124.862 39.0767C124.862 35.376 123.076 33.162 120.167 33.162ZM119.119 42.4779C117.589 42.4779 116.584 41.1516 116.584 39.0767C116.584 37.0231 117.589 35.6648 119.119 35.6648C120.68 35.6648 121.664 37.0017 121.664 39.0767C121.664 41.1623 120.68 42.4779 119.119 42.4779ZM129.878 44.9914C131.312 44.9914 132.734 44.2748 133.376 43.0555H133.44V44.8096H136.456V36.9269C136.456 34.6166 134.542 33.0978 131.6 33.0978C128.563 33.0978 126.67 34.6273 126.552 36.852H129.408C129.558 36.007 130.296 35.4295 131.461 35.4295C132.638 35.4295 133.387 36.0498 133.387 37.1194V37.8788L130.499 38.0499C127.643 38.221 126.039 39.4296 126.039 41.5153C126.039 43.5796 127.697 44.9914 129.878 44.9914ZM130.905 42.7346C129.846 42.7346 129.14 42.1998 129.14 41.3442C129.14 40.5313 129.804 40.0072 130.969 39.9216L133.387 39.7719V40.6062C133.387 41.8469 132.264 42.7346 130.905 42.7346ZM138.285 36.7129C138.285 38.4349 139.408 39.5473 141.622 40.0179L143.58 40.4243C144.703 40.681 145.098 41.0233 145.098 41.633C145.098 42.3816 144.371 42.863 143.195 42.863C141.954 42.863 141.237 42.3282 141.045 41.3228H137.997C138.2 43.5796 140.029 45.0556 143.195 45.0556C146.147 45.0556 148.211 43.5689 148.211 41.3121C148.211 39.6329 147.227 38.6916 144.831 38.1889L142.874 37.7718C141.719 37.5258 141.291 37.1301 141.291 36.5418C141.291 35.7824 142.007 35.2904 143.088 35.2904C144.243 35.2904 144.938 35.9215 145.034 36.852H147.911C147.847 34.6059 146.029 33.0978 143.088 33.0978C140.168 33.0978 138.285 34.531 138.285 36.7129ZM149.559 36.7129C149.559 38.4349 150.682 39.5473 152.896 40.0179L154.853 40.4243C155.976 40.681 156.372 41.0233 156.372 41.633C156.372 42.3816 155.644 42.863 154.468 42.863C153.227 42.863 152.511 42.3282 152.318 41.3228H149.27C149.473 43.5796 151.302 45.0556 154.468 45.0556C157.42 45.0556 159.484 43.5689 159.484 41.3121C159.484 39.6329 158.5 38.6916 156.104 38.1889L154.147 37.7718C152.992 37.5258 152.564 37.1301 152.564 36.5418C152.564 35.7824 153.281 35.2904 154.361 35.2904C155.516 35.2904 156.211 35.9215 156.308 36.852H159.185C159.12 34.6059 157.302 33.0978 154.361 33.0978C151.441 33.0978 149.559 34.531 149.559 36.7129ZM177.046 33.3438H173.966L172.223 41.8469H172.159L170.116 33.3438H167.121L165.089 41.8469H165.025L163.292 33.3438H160.147L163.196 44.8096H166.479L168.543 36.7022H168.608L170.683 44.8096H174.009L177.046 33.3438ZM183.357 45.0556C186.822 45.0556 189.036 42.8416 189.036 39.066C189.036 35.3439 186.79 33.0978 183.357 33.0978C179.924 33.0978 177.678 35.3546 177.678 39.066C177.678 42.8309 179.892 45.0556 183.357 45.0556ZM183.357 42.6704C181.817 42.6704 180.843 41.3763 180.843 39.0767C180.843 36.7985 181.838 35.4829 183.357 35.4829C184.876 35.4829 185.86 36.7985 185.86 39.0767C185.86 41.3763 184.886 42.6704 183.357 42.6704ZM190.651 44.8096H193.775V38.4029C193.775 36.7878 194.673 35.8466 196.213 35.8466C196.662 35.8466 197.09 35.9215 197.347 36.0284V33.2796C197.133 33.2154 196.823 33.162 196.459 33.162C195.111 33.162 194.138 33.9535 193.732 35.4081H193.668V33.3438H190.651V44.8096ZM202.502 44.9914C204.192 44.9914 205.518 44.1037 206.075 42.8416H206.128V44.8096H209.208V29.3757H206.085V35.3118H206.021C205.465 34.039 204.181 33.162 202.524 33.162C199.646 33.162 197.828 35.4188 197.828 39.0553C197.828 42.7239 199.636 44.9914 202.502 44.9914ZM203.561 35.6648C205.112 35.6648 206.107 36.991 206.107 39.0767C206.107 41.173 205.112 42.4779 203.561 42.4779C201.989 42.4779 201.026 41.1837 201.026 39.0767C201.026 36.9803 201.989 35.6648 203.561 35.6648ZM211.102 36.7129C211.102 38.4349 212.225 39.5473 214.439 40.0179L216.396 40.4243C217.519 40.681 217.915 41.0233 217.915 41.633C217.915 42.3816 217.187 42.863 216.011 42.863C214.77 42.863 214.054 42.3282 213.861 41.3228H210.813C211.016 43.5796 212.845 45.0556 216.011 45.0556C218.963 45.0556 221.027 43.5689 221.027 41.3121C221.027 39.6329 220.043 38.6916 217.647 38.1889L215.69 37.7718C214.535 37.5258 214.107 37.1301 214.107 36.5418C214.107 35.7824 214.824 35.2904 215.904 35.2904C217.059 35.2904 217.754 35.9215 217.85 36.852H220.728C220.663 34.6059 218.845 33.0978 215.904 33.0978C212.984 33.0978 211.102 34.531 211.102 36.7129ZM232.172 45.0556C235.637 45.0556 237.851 42.8416 237.851 39.066C237.851 35.3439 235.605 33.0978 232.172 33.0978C228.739 33.0978 226.493 35.3546 226.493 39.066C226.493 42.8309 228.707 45.0556 232.172 45.0556ZM232.172 42.6704C230.632 42.6704 229.659 41.3763 229.659 39.0767C229.659 36.7985 230.653 35.4829 232.172 35.4829C233.691 35.4829 234.675 36.7985 234.675 39.0767C234.675 41.3763 233.702 42.6704 232.172 42.6704ZM239.466 44.8096H242.59V38.2317C242.59 36.745 243.477 35.7182 244.879 35.7182C246.28 35.7182 246.986 36.5739 246.986 38.0713V44.8096H250.109V37.4189C250.109 34.7342 248.675 33.1299 246.13 33.1299C244.365 33.1299 243.156 33.9641 242.547 35.3867H242.483V33.3438H239.466V44.8096ZM259.831 44.9914C261.264 44.9914 262.687 44.2748 263.329 43.0555H263.393V44.8096H266.409V36.9269C266.409 34.6166 264.494 33.0978 261.553 33.0978C258.515 33.0978 256.622 34.6273 256.505 36.852H259.36C259.51 36.007 260.248 35.4295 261.414 35.4295C262.591 35.4295 263.339 36.0498 263.339 37.1194V37.8788L260.451 38.0499C257.596 38.221 255.991 39.4296 255.991 41.5153C255.991 43.5796 257.649 44.9914 259.831 44.9914ZM260.858 42.7346C259.799 42.7346 259.093 42.1998 259.093 41.3442C259.093 40.5313 259.756 40.0072 260.922 39.9216L263.339 39.7719V40.6062C263.339 41.8469 262.216 42.7346 260.858 42.7346ZM268.505 44.8096H271.628V29.3757H268.505V44.8096ZM273.81 44.8096H276.933V29.3757H273.81V44.8096ZM35.7779 77.0558C38.6978 77.0558 40.1417 75.9969 41.115 73.0556L45.0617 61.3438H41.7674L39.3395 70.3068H39.2754L36.8367 61.3438H33.4141L37.4036 72.8096C37.4143 72.863 37.2966 73.3123 37.2966 73.3657C37.0827 74.2749 36.5159 74.6385 35.3821 74.6385C35.2645 74.6385 34.6976 74.6278 34.5906 74.6064V77.0237C34.6976 77.0451 35.6602 77.0558 35.7779 77.0558ZM51.1583 73.0556C54.6237 73.0556 56.8377 70.8416 56.8377 67.066C56.8377 63.3439 54.5916 61.0978 51.1583 61.0978C47.7249 61.0978 45.4788 63.3546 45.4788 67.066C45.4788 70.8309 47.6929 73.0556 51.1583 73.0556ZM51.1583 70.6704C49.6181 70.6704 48.6448 69.3763 48.6448 67.0767C48.6448 64.7985 49.6395 63.4829 51.1583 63.4829C52.677 63.4829 53.661 64.7985 53.661 67.0767C53.661 69.3763 52.6877 70.6704 51.1583 70.6704ZM69.0414 61.3438H65.9183V67.9109C65.9183 69.4297 65.052 70.4244 63.6615 70.4244C62.2818 70.4244 61.5224 69.6116 61.5224 68.0821V61.3438H58.3992V68.7345C58.3992 71.4084 60.0464 73.0235 62.5278 73.0235C64.2605 73.0235 65.3942 72.1892 65.9611 70.7453H66.0253V72.8096H69.0414V61.3438ZM71.0736 72.8096H74.1968V66.4029C74.1968 64.7878 75.0952 63.8466 76.6354 63.8466C77.0846 63.8466 77.5124 63.9215 77.7691 64.0284V61.2796C77.5552 61.2154 77.245 61.162 76.8814 61.162C75.5337 61.162 74.5604 61.9535 74.154 63.4081H74.0898V61.3438H71.0736V72.8096ZM87.6519 72.9914C89.3419 72.9914 90.6681 72.1037 91.2243 70.8416H91.2778V72.8096H94.3581V57.3757H91.235V63.3118H91.1708C90.6146 62.039 89.3312 61.162 87.6733 61.162C84.7962 61.162 82.9779 63.4188 82.9779 67.0553C82.9779 70.7239 84.7855 72.9914 87.6519 72.9914ZM88.7108 63.6648C90.2617 63.6648 91.2564 64.991 91.2564 67.0767C91.2564 69.173 90.2617 70.4779 88.7108 70.4779C87.1385 70.4779 86.1759 69.1837 86.1759 67.0767C86.1759 64.9803 87.1385 63.6648 88.7108 63.6648ZM104.038 69.3014C103.749 70.1784 102.872 70.7453 101.727 70.7453C100.134 70.7453 99.0963 69.6223 99.0963 67.9858V67.7933H107V66.8414C107 63.3546 104.893 61.0978 101.556 61.0978C98.1658 61.0978 96.0267 63.4722 96.0267 67.1302C96.0267 70.7988 98.1444 73.0556 101.674 73.0556C104.508 73.0556 106.562 71.5475 106.904 69.3014H104.038ZM101.588 63.4081C102.979 63.4081 103.931 64.4135 103.995 65.8788H99.1284C99.2354 64.4455 100.219 63.4081 101.588 63.4081ZM118.926 61.3438H115.664L113.289 70.0501H113.225L110.84 61.3438H107.492L111.461 72.8096H114.99L118.926 61.3438ZM121.621 59.7929C122.531 59.7929 123.247 59.0656 123.247 58.1886C123.247 57.3008 122.531 56.5842 121.621 56.5842C120.712 56.5842 119.996 57.3008 119.996 58.1886C119.996 59.0656 120.712 59.7929 121.621 59.7929ZM120.071 72.8096H123.194V61.3438H120.071V72.8096ZM135.697 65.6114C135.558 63.0123 133.59 61.0978 130.488 61.0978C127.055 61.0978 124.862 63.3867 124.862 67.066C124.862 70.8095 127.055 73.0556 130.51 73.0556C133.526 73.0556 135.547 71.3122 135.708 68.6062H132.798C132.606 69.8576 131.793 70.6063 130.542 70.6063C128.991 70.6063 128.028 69.3228 128.028 67.066C128.028 64.852 128.991 63.5471 130.531 63.5471C131.814 63.5471 132.617 64.4028 132.798 65.6114H135.697ZM144.81 69.3014C144.521 70.1784 143.644 70.7453 142.499 70.7453C140.906 70.7453 139.868 69.6223 139.868 67.9858V67.7933H147.772V66.8414C147.772 63.3546 145.665 61.0978 142.328 61.0978C138.938 61.0978 136.799 63.4722 136.799 67.1302C136.799 70.7988 138.916 73.0556 142.446 73.0556C145.28 73.0556 147.334 71.5475 147.676 69.3014H144.81ZM142.36 63.4081C143.751 63.4081 144.703 64.4135 144.767 65.8788H139.9C140.007 64.4455 140.991 63.4081 142.36 63.4081ZM149.195 64.7129C149.195 66.4349 150.318 67.5473 152.532 68.0179L154.489 68.4243C155.612 68.681 156.008 69.0233 156.008 69.633C156.008 70.3816 155.281 70.863 154.104 70.863C152.864 70.863 152.147 70.3282 151.954 69.3228H148.906C149.109 71.5796 150.938 73.0556 154.104 73.0556C157.056 73.0556 159.12 71.5689 159.12 69.3121C159.12 67.6329 158.136 66.6916 155.741 66.1889L153.783 65.7718C152.628 65.5258 152.2 65.1301 152.2 64.5418C152.2 63.7824 152.917 63.2904 153.997 63.2904C155.152 63.2904 155.848 63.9215 155.944 64.852H158.821C158.757 62.6059 156.939 61.0978 153.997 61.0978C151.077 61.0978 149.195 62.531 149.195 64.7129Z" fill="#333333"/>
<path d="M36.0239 93.2242H34.4837V101.242C34.4837 103.877 36.3233 105.777 39.3866 105.777C42.4498 105.777 44.2895 103.877 44.2895 101.242V93.2242H42.7493V101.139C42.7493 103.004 41.5257 104.356 39.3866 104.356C37.2474 104.356 36.0239 103.004 36.0239 101.139V93.2242ZM46.3003 99.1282C46.3003 100.412 47.1131 101.19 48.7902 101.592L50.2021 101.935C51.2203 102.183 51.5711 102.551 51.5711 103.193C51.5711 103.997 50.8267 104.51 49.6202 104.51C48.4137 104.51 47.7292 104.023 47.5495 103.004H46.0607C46.2318 104.673 47.5324 105.725 49.6202 105.725C51.6053 105.725 53.0685 104.63 53.0685 103.081C53.0685 101.806 52.4182 101.105 50.6213 100.668L49.2095 100.326C48.2169 100.087 47.7634 99.6673 47.7634 99.0512C47.7634 98.2726 48.4822 97.7335 49.5689 97.7335C50.6641 97.7335 51.3486 98.3068 51.4599 99.2394H52.8803C52.8204 97.665 51.5198 96.5185 49.5689 96.5185C47.6437 96.5185 46.3003 97.6051 46.3003 99.1282ZM60.5213 103.021C60.2731 103.86 59.4431 104.433 58.3137 104.433C56.7136 104.433 55.7125 103.312 55.7125 101.61V101.524H62.0957V100.959C62.0957 98.264 60.6154 96.5185 58.211 96.5185C55.7553 96.5185 54.1809 98.3923 54.1809 101.156C54.1809 103.954 55.7296 105.725 58.2794 105.725C60.2218 105.725 61.7277 104.579 61.9844 103.021H60.5213ZM58.1853 97.8105C59.5886 97.8105 60.5213 98.8715 60.5555 100.36H55.721C55.8152 98.8801 56.7906 97.8105 58.1853 97.8105ZM70.3784 105.571H71.8672V93.2242H70.3613L67.0756 95.5858V97.1345L70.3442 94.8585H70.3784V105.571ZM75.1957 93.2242V105.571H76.7359V101.165H79.5852C81.9041 101.165 83.5555 99.5304 83.5555 97.1859C83.5555 94.8499 81.9212 93.2242 79.6024 93.2242H75.1957ZM76.7359 94.5932H79.2002C80.9714 94.5932 81.9725 95.5516 81.9725 97.1859C81.9725 98.8287 80.9629 99.7956 79.2002 99.7956H76.7359V94.5932ZM86.9268 105.725C88.1247 105.725 89.2541 105.058 89.7847 104.04H89.8189V105.571H91.2307V99.4191C91.2307 97.6479 89.913 96.5185 87.8252 96.5185C85.7203 96.5185 84.4026 97.6993 84.2999 99.2394H85.7374C85.9256 98.3667 86.6444 97.8276 87.791 97.8276C89.0231 97.8276 89.7419 98.4779 89.7419 99.5646V100.309L87.192 100.454C85.1384 100.574 83.9662 101.533 83.9662 103.056C83.9662 104.656 85.1556 105.725 86.9268 105.725ZM87.2605 104.459C86.1909 104.459 85.4807 103.903 85.4807 103.056C85.4807 102.217 86.1652 101.687 87.3631 101.61L89.7419 101.464V102.191C89.7419 103.475 88.6637 104.459 87.2605 104.459ZM92.9677 99.1282C92.9677 100.412 93.7806 101.19 95.4576 101.592L96.8695 101.935C97.8877 102.183 98.2385 102.551 98.2385 103.193C98.2385 103.997 97.4941 104.51 96.2876 104.51C95.0812 104.51 94.3966 104.023 94.2169 103.004H92.7281C92.8992 104.673 94.1998 105.725 96.2876 105.725C98.2727 105.725 99.7359 104.63 99.7359 103.081C99.7359 101.806 99.0856 101.105 97.2887 100.668L95.8769 100.326C94.8844 100.087 94.4309 99.6673 94.4309 99.0512C94.4309 98.2726 95.1496 97.7335 96.2363 97.7335C97.3315 97.7335 98.0161 98.3068 98.1273 99.2394H99.5477C99.4878 97.665 98.1872 96.5185 96.2363 96.5185C94.3111 96.5185 92.9677 97.6051 92.9677 99.1282ZM101.131 99.1282C101.131 100.412 101.944 101.19 103.621 101.592L105.032 101.935C106.051 102.183 106.401 102.551 106.401 103.193C106.401 103.997 105.657 104.51 104.451 104.51C103.244 104.51 102.56 104.023 102.38 103.004H100.891C101.062 104.673 102.363 105.725 104.451 105.725C106.436 105.725 107.899 104.63 107.899 103.081C107.899 101.806 107.249 101.105 105.452 100.668L104.04 100.326C103.047 100.087 102.594 99.6673 102.594 99.0512C102.594 98.2726 103.313 97.7335 104.399 97.7335C105.494 97.7335 106.179 98.3068 106.29 99.2394H107.711C107.651 97.665 106.35 96.5185 104.399 96.5185C102.474 96.5185 101.131 97.6051 101.131 99.1282ZM120.768 96.6725H119.296L117.516 103.911H117.482L115.463 96.6725H114.025L112.015 103.911H111.98L110.201 96.6725H108.72L111.21 105.571H112.725L114.727 98.6833H114.761L116.772 105.571H118.287L120.768 96.6725ZM125.679 105.725C128.135 105.725 129.795 103.954 129.795 101.122C129.795 98.2811 128.135 96.5185 125.679 96.5185C123.215 96.5185 121.555 98.2811 121.555 101.122C121.555 103.954 123.215 105.725 125.679 105.725ZM125.679 104.416C124.105 104.416 123.07 103.218 123.07 101.122C123.07 99.0255 124.105 97.8276 125.679 97.8276C127.254 97.8276 128.281 99.0255 128.281 101.122C128.281 103.218 127.254 104.416 125.679 104.416ZM131.301 105.571H132.79V100.027C132.79 98.7688 133.543 97.9388 134.698 97.9388C135.057 97.9388 135.374 97.9816 135.494 98.0244V96.5784C135.374 96.5612 135.151 96.5185 134.895 96.5185C133.851 96.5185 133.029 97.1431 132.739 98.1271H132.704V96.6725H131.301V105.571ZM139.652 105.725C140.936 105.725 141.954 105.092 142.527 104.065H142.553V105.571H143.973V93.2242H142.484V98.1185H142.45C141.92 97.1431 140.893 96.5185 139.618 96.5185C137.376 96.5185 135.845 98.3324 135.845 101.122C135.845 103.911 137.385 105.725 139.652 105.725ZM139.935 97.8276C141.466 97.8276 142.493 99.1368 142.493 101.122C142.493 103.116 141.466 104.416 139.935 104.416C138.36 104.416 137.368 103.141 137.368 101.122C137.368 99.1111 138.36 97.8276 139.935 97.8276ZM155.482 103.021C155.234 103.86 154.404 104.433 153.274 104.433C151.674 104.433 150.673 103.312 150.673 101.61V101.524H157.056V100.959C157.056 98.264 155.576 96.5185 153.172 96.5185C150.716 96.5185 149.141 98.3923 149.141 101.156C149.141 103.954 150.69 105.725 153.24 105.725C155.182 105.725 156.688 104.579 156.945 103.021H155.482ZM153.146 97.8105C154.549 97.8105 155.482 98.8715 155.516 100.36H150.682C150.776 98.8801 151.751 97.8105 153.146 97.8105ZM165.861 96.6725H164.312L161.848 103.988H161.814L159.358 96.6725H157.792L161.069 105.571H162.592L165.861 96.6725ZM172.68 103.021C172.432 103.86 171.602 104.433 170.473 104.433C168.873 104.433 167.872 103.312 167.872 101.61V101.524H174.255V100.959C174.255 98.264 172.775 96.5185 170.37 96.5185C167.914 96.5185 166.34 98.3923 166.34 101.156C166.34 103.954 167.889 105.725 170.439 105.725C172.381 105.725 173.887 104.579 174.144 103.021H172.68ZM170.345 97.8105C171.748 97.8105 172.68 98.8715 172.715 100.36H167.88C167.974 98.8801 168.95 97.8105 170.345 97.8105ZM175.761 105.571H177.25V100.027C177.25 98.7688 178.003 97.9388 179.158 97.9388C179.517 97.9388 179.834 97.9816 179.954 98.0244V96.5784C179.834 96.5612 179.611 96.5185 179.355 96.5185C178.311 96.5185 177.489 97.1431 177.198 98.1271H177.164V96.6725H175.761V105.571ZM181.913 108.9C183.522 108.9 184.257 108.275 185.019 106.196L188.519 96.6725H186.953L184.489 104.082H184.463L181.999 96.6725H180.407L183.693 105.58L183.487 106.204C183.145 107.24 182.683 107.642 181.853 107.642C181.665 107.642 181.434 107.633 181.271 107.599V108.848C181.434 108.883 181.733 108.9 181.913 108.9ZM201.011 96.6725H199.539L197.76 103.911H197.726L195.706 96.6725H194.269L192.258 103.911H192.224L190.444 96.6725H188.964L191.454 105.571H192.968L194.97 98.6833H195.005L197.015 105.571H198.53L201.011 96.6725ZM202.312 105.571H203.801V100.386C203.801 98.8458 204.716 97.8362 206.196 97.8362C207.591 97.8362 208.301 98.6833 208.301 100.095V105.571H209.79V99.8213C209.79 97.8362 208.609 96.5185 206.659 96.5185C205.307 96.5185 204.331 97.1003 203.835 98.0929H203.801V93.2242H202.312V105.571ZM217.585 103.021C217.337 103.86 216.507 104.433 215.378 104.433C213.778 104.433 212.776 103.312 212.776 101.61V101.524H219.16V100.959C219.16 98.264 217.679 96.5185 215.275 96.5185C212.819 96.5185 211.245 98.3923 211.245 101.156C211.245 103.954 212.794 105.725 215.343 105.725C217.286 105.725 218.792 104.579 219.048 103.021H217.585ZM215.249 97.8105C216.653 97.8105 217.585 98.8715 217.619 100.36H212.785C212.879 98.8801 213.855 97.8105 215.249 97.8105ZM220.666 105.571H222.154V100.027C222.154 98.7688 222.907 97.9388 224.063 97.9388C224.422 97.9388 224.739 97.9816 224.858 98.0244V96.5784C224.739 96.5612 224.516 96.5185 224.259 96.5185C223.215 96.5185 222.394 97.1431 222.103 98.1271H222.069V96.6725H220.666V105.571ZM231.55 103.021C231.301 103.86 230.471 104.433 229.342 104.433C227.742 104.433 226.741 103.312 226.741 101.61V101.524H233.124V100.959C233.124 98.264 231.644 96.5185 229.239 96.5185C226.784 96.5185 225.209 98.3923 225.209 101.156C225.209 103.954 226.758 105.725 229.308 105.725C231.25 105.725 232.756 104.579 233.013 103.021H231.55ZM229.214 97.8105C230.617 97.8105 231.55 98.8715 231.584 100.36H226.749C226.843 98.8801 227.819 97.8105 229.214 97.8105ZM238.968 108.9C240.577 108.9 241.313 108.275 242.074 106.196L245.574 96.6725H244.008L241.544 104.082H241.518L239.054 96.6725H237.462L240.748 105.58L240.542 106.204C240.2 107.24 239.738 107.642 238.908 107.642C238.72 107.642 238.489 107.633 238.326 107.599V108.848C238.489 108.883 238.788 108.9 238.968 108.9ZM250.177 105.725C252.633 105.725 254.293 103.954 254.293 101.122C254.293 98.2811 252.633 96.5185 250.177 96.5185C247.713 96.5185 246.053 98.2811 246.053 101.122C246.053 103.954 247.713 105.725 250.177 105.725ZM250.177 104.416C248.603 104.416 247.567 103.218 247.567 101.122C247.567 99.0255 248.603 97.8276 250.177 97.8276C251.752 97.8276 252.778 99.0255 252.778 101.122C252.778 103.218 251.752 104.416 250.177 104.416ZM263.106 96.6725H261.617V101.901C261.617 103.415 260.744 104.408 259.298 104.408C257.921 104.408 257.245 103.629 257.245 102.183V96.6725H255.756V102.448C255.756 104.467 256.894 105.725 258.836 105.725C260.205 105.725 261.13 105.152 261.66 104.125H261.694V105.571H263.106V96.6725ZM45.573 119.672H44.1012L42.3215 126.911H42.2873L40.2679 119.672H38.8304L36.8196 126.911H36.7854L35.0056 119.672H33.5253L36.0153 128.571H37.5298L39.532 121.683H39.5663L41.5771 128.571H43.0916L45.573 119.672ZM50.4844 128.725C52.9402 128.725 54.6001 126.954 54.6001 124.122C54.6001 121.281 52.9402 119.518 50.4844 119.518C48.0201 119.518 46.3602 121.281 46.3602 124.122C46.3602 126.954 48.0201 128.725 50.4844 128.725ZM50.4844 127.416C48.91 127.416 47.8747 126.218 47.8747 124.122C47.8747 122.026 48.91 120.828 50.4844 120.828C52.0588 120.828 53.0856 122.026 53.0856 124.122C53.0856 126.218 52.0588 127.416 50.4844 127.416ZM56.1061 128.571H57.5949V123.027C57.5949 121.769 58.3479 120.939 59.503 120.939C59.8624 120.939 60.179 120.982 60.2988 121.024V119.578C60.179 119.561 59.9565 119.518 59.6998 119.518C58.6559 119.518 57.8345 120.143 57.5436 121.127H57.5094V119.672H56.1061V128.571ZM63.0797 125.217L63.9096 124.43L67.2125 128.571H68.9409L64.9621 123.514L68.8211 119.672H67.0157L63.0797 123.626V116.224H61.5908V128.571H63.0797V125.217ZM71.2768 128.657C71.8245 128.657 72.2523 128.229 72.2523 127.681C72.2523 127.134 71.8245 126.706 71.2768 126.706C70.7292 126.706 70.3014 127.134 70.3014 127.681C70.3014 128.229 70.7292 128.657 71.2768 128.657ZM77.4376 116.224V128.571H81.5875C85.2582 128.571 87.4145 126.287 87.4145 122.393C87.4145 118.509 85.2497 116.224 81.5875 116.224H77.4376ZM78.9777 117.61H81.4848C84.2913 117.61 85.8401 119.322 85.8401 122.411C85.8401 125.474 84.2828 127.185 81.4848 127.185H78.9777V117.61ZM92.788 128.725C95.2437 128.725 96.9037 126.954 96.9037 124.122C96.9037 121.281 95.2437 119.518 92.788 119.518C90.3237 119.518 88.6637 121.281 88.6637 124.122C88.6637 126.954 90.3237 128.725 92.788 128.725ZM92.788 127.416C91.2136 127.416 90.1783 126.218 90.1783 124.122C90.1783 122.026 91.2136 120.828 92.788 120.828C94.3624 120.828 95.3892 122.026 95.3892 124.122C95.3892 126.218 94.3624 127.416 92.788 127.416ZM109.73 119.672H108.258L106.478 126.911H106.444L104.425 119.672H102.987L100.977 126.911H100.942L99.1626 119.672H97.6823L100.172 128.571H101.687L103.689 121.683H103.723L105.734 128.571H107.249L109.73 119.672ZM110.954 128.571H112.442V123.335C112.442 121.829 113.358 120.836 114.761 120.836C116.13 120.836 116.806 121.623 116.806 123.061V128.571H118.295V122.796C118.295 120.776 117.166 119.518 115.215 119.518C113.837 119.518 112.887 120.135 112.391 121.093H112.357V119.672H110.954V128.571ZM120.272 128.571H121.76V116.224H120.272V128.571ZM127.459 128.725C129.915 128.725 131.575 126.954 131.575 124.122C131.575 121.281 129.915 119.518 127.459 119.518C124.995 119.518 123.335 121.281 123.335 124.122C123.335 126.954 124.995 128.725 127.459 128.725ZM127.459 127.416C125.885 127.416 124.849 126.218 124.849 124.122C124.849 122.026 125.885 120.828 127.459 120.828C129.034 120.828 130.06 122.026 130.06 124.122C130.06 126.218 129.034 127.416 127.459 127.416ZM135.682 128.725C136.88 128.725 138.009 128.058 138.54 127.04H138.574V128.571H139.986V122.419C139.986 120.648 138.668 119.518 136.58 119.518C134.475 119.518 133.158 120.699 133.055 122.239H134.493C134.681 121.367 135.4 120.828 136.546 120.828C137.778 120.828 138.497 121.478 138.497 122.565V123.309L135.947 123.454C133.894 123.574 132.721 124.533 132.721 126.056C132.721 127.656 133.911 128.725 135.682 128.725ZM136.016 127.459C134.946 127.459 134.236 126.903 134.236 126.056C134.236 125.217 134.92 124.687 136.118 124.61L138.497 124.464V125.191C138.497 126.475 137.419 127.459 136.016 127.459ZM145.248 128.725C146.532 128.725 147.55 128.092 148.123 127.065H148.149V128.571H149.569V116.224H148.08V121.119H148.046C147.516 120.143 146.489 119.518 145.214 119.518C142.972 119.518 141.441 121.332 141.441 124.122C141.441 126.911 142.981 128.725 145.248 128.725ZM145.531 120.828C147.062 120.828 148.089 122.137 148.089 124.122C148.089 126.116 147.062 127.416 145.531 127.416C143.956 127.416 142.964 126.141 142.964 124.122C142.964 122.111 143.956 120.828 145.531 120.828ZM158.862 128.725C161.317 128.725 162.977 126.954 162.977 124.122C162.977 121.281 161.317 119.518 158.862 119.518C156.397 119.518 154.737 121.281 154.737 124.122C154.737 126.954 156.397 128.725 158.862 128.725ZM158.862 127.416C157.287 127.416 156.252 126.218 156.252 124.122C156.252 122.026 157.287 120.828 158.862 120.828C160.436 120.828 161.463 122.026 161.463 124.122C161.463 126.218 160.436 127.416 158.862 127.416ZM171.791 119.672H170.302V124.901C170.302 126.415 169.429 127.408 167.983 127.408C166.605 127.408 165.929 126.629 165.929 125.183V119.672H164.441V125.448C164.441 127.467 165.579 128.725 167.521 128.725C168.89 128.725 169.814 128.152 170.345 127.125H170.379V128.571H171.791V119.672ZM173.724 128.571H175.213V123.027C175.213 121.769 175.966 120.939 177.121 120.939C177.481 120.939 177.797 120.982 177.917 121.024V119.578C177.797 119.561 177.575 119.518 177.318 119.518C176.274 119.518 175.453 120.143 175.162 121.127H175.128V119.672H173.724V128.571ZM186.097 128.725C187.381 128.725 188.399 128.092 188.972 127.065H188.998V128.571H190.418V116.224H188.929V121.119H188.895C188.365 120.143 187.338 119.518 186.063 119.518C183.821 119.518 182.289 121.332 182.289 124.122C182.289 126.911 183.83 128.725 186.097 128.725ZM186.38 120.828C187.911 120.828 188.938 122.137 188.938 124.122C188.938 126.116 187.911 127.416 186.38 127.416C184.805 127.416 183.813 126.141 183.813 124.122C183.813 122.111 184.805 120.828 186.38 120.828ZM198.333 126.021C198.085 126.86 197.255 127.433 196.125 127.433C194.525 127.433 193.524 126.312 193.524 124.61V124.524H199.907V123.959C199.907 121.264 198.427 119.518 196.023 119.518C193.567 119.518 191.993 121.392 191.993 124.156C191.993 126.954 193.541 128.725 196.091 128.725C198.034 128.725 199.539 127.579 199.796 126.021H198.333ZM195.997 120.811C197.4 120.811 198.333 121.872 198.367 123.36H193.533C193.627 121.88 194.602 120.811 195.997 120.811ZM201.259 122.128C201.259 123.412 202.072 124.19 203.749 124.592L205.161 124.935C206.179 125.183 206.53 125.551 206.53 126.193C206.53 126.997 205.786 127.51 204.579 127.51C203.373 127.51 202.688 127.023 202.509 126.004H201.02C201.191 127.673 202.492 128.725 204.579 128.725C206.564 128.725 208.028 127.63 208.028 126.081C208.028 124.806 207.377 124.105 205.58 123.668L204.169 123.326C203.176 123.087 202.723 122.667 202.723 122.051C202.723 121.273 203.441 120.733 204.528 120.733C205.623 120.733 206.308 121.307 206.419 122.239H207.839C207.779 120.665 206.479 119.518 204.528 119.518C202.603 119.518 201.259 120.605 201.259 122.128ZM211.142 125.217L211.972 124.43L215.275 128.571H217.003L213.025 123.514L216.884 119.672H215.078L211.142 123.626V116.224H209.653V128.571H211.142V125.217ZM218.561 117.525V119.672H217.234V120.896H218.561V126.261C218.561 127.972 219.194 128.64 220.828 128.64C221.179 128.64 221.59 128.614 221.769 128.571V127.322C221.667 127.339 221.324 127.365 221.153 127.365C220.392 127.365 220.05 126.997 220.05 126.184V120.896H221.778V119.672H220.05V117.525H218.561ZM226.801 128.725C229.256 128.725 230.916 126.954 230.916 124.122C230.916 121.281 229.256 119.518 226.801 119.518C224.336 119.518 222.676 121.281 222.676 124.122C222.676 126.954 224.336 128.725 226.801 128.725ZM226.801 127.416C225.226 127.416 224.191 126.218 224.191 124.122C224.191 122.026 225.226 120.828 226.801 120.828C228.375 120.828 229.402 122.026 229.402 124.122C229.402 126.218 228.375 127.416 226.801 127.416ZM236.743 119.518C235.451 119.518 234.416 120.177 233.868 121.178H233.834V119.672H232.422V131.54H233.911V127.125H233.945C234.476 128.101 235.503 128.725 236.778 128.725C239.019 128.725 240.551 126.911 240.551 124.122C240.551 121.332 239.011 119.518 236.743 119.518ZM236.452 127.416C234.929 127.416 233.903 126.107 233.903 124.122C233.903 122.145 234.929 120.828 236.452 120.828C238.035 120.828 239.028 122.111 239.028 124.122C239.028 126.141 238.035 127.416 236.452 127.416ZM248.252 128.725C249.45 128.725 250.579 128.058 251.11 127.04H251.144V128.571H252.556V122.419C252.556 120.648 251.238 119.518 249.15 119.518C247.045 119.518 245.728 120.699 245.625 122.239H247.063C247.251 121.367 247.97 120.828 249.116 120.828C250.348 120.828 251.067 121.478 251.067 122.565V123.309L248.517 123.454C246.464 123.574 245.291 124.533 245.291 126.056C245.291 127.656 246.481 128.725 248.252 128.725ZM248.586 127.459C247.516 127.459 246.806 126.903 246.806 126.056C246.806 125.217 247.49 124.687 248.688 124.61L251.067 124.464V125.191C251.067 126.475 249.989 127.459 248.586 127.459ZM254.447 128.571H255.936V123.335C255.936 121.829 256.851 120.836 258.255 120.836C259.624 120.836 260.3 121.623 260.3 123.061V128.571H261.788V122.796C261.788 120.776 260.659 119.518 258.708 119.518C257.33 119.518 256.381 120.135 255.884 121.093H255.85V119.672H254.447V128.571ZM267.059 128.725C268.343 128.725 269.361 128.092 269.934 127.065H269.96V128.571H271.38V116.224H269.891V121.119H269.857C269.327 120.143 268.3 119.518 267.025 119.518C264.783 119.518 263.252 121.332 263.252 124.122C263.252 126.911 264.792 128.725 267.059 128.725ZM267.342 120.828C268.873 120.828 269.9 122.137 269.9 124.122C269.9 126.116 268.873 127.416 267.342 127.416C265.767 127.416 264.775 126.141 264.775 124.122C264.775 122.111 265.767 120.828 267.342 120.828ZM34.2527 151.571H35.7415V145.992C35.7415 144.76 36.5972 143.836 37.778 143.836C38.8817 143.836 39.6005 144.538 39.6005 145.607V151.571H41.0893V145.915C41.0893 144.709 41.9193 143.836 43.1001 143.836C44.2724 143.836 44.9483 144.555 44.9483 145.77V151.571H46.4372V145.428C46.4372 143.665 45.2992 142.518 43.5365 142.518C42.2873 142.518 41.2434 143.152 40.7471 144.213H40.7128C40.3278 143.135 39.4294 142.518 38.2143 142.518C37.0164 142.518 36.1094 143.152 35.6902 144.093H35.6559V142.672H34.2527V151.571ZM52.0246 151.725C54.4803 151.725 56.1403 149.954 56.1403 147.122C56.1403 144.281 54.4803 142.518 52.0246 142.518C49.5603 142.518 47.9003 144.281 47.9003 147.122C47.9003 149.954 49.5603 151.725 52.0246 151.725ZM52.0246 150.416C50.4502 150.416 49.4149 149.218 49.4149 147.122C49.4149 145.026 50.4502 143.828 52.0246 143.828C53.599 143.828 54.6258 145.026 54.6258 147.122C54.6258 149.218 53.599 150.416 52.0246 150.416ZM62.07 151.725C64.346 151.725 65.852 149.92 65.852 147.122C65.852 144.332 64.3375 142.518 62.0957 142.518C60.8378 142.518 59.8025 143.143 59.2463 144.161H59.2121V139.224H57.7233V151.571H59.1437V150.065H59.1779C59.7512 151.092 60.7694 151.725 62.07 151.725ZM61.7791 143.828C63.3535 143.828 64.3289 145.103 64.3289 147.122C64.3289 149.158 63.3535 150.416 61.7791 150.416C60.2731 150.416 59.2035 149.107 59.2035 147.122C59.2035 145.145 60.2731 143.828 61.7791 143.828ZM68.1879 141.09C68.7099 141.09 69.1206 140.67 69.1206 140.157C69.1206 139.635 68.7099 139.224 68.1879 139.224C67.6745 139.224 67.2553 139.635 67.2553 140.157C67.2553 140.67 67.6745 141.09 68.1879 141.09ZM67.4435 151.571H68.9323V142.672H67.4435V151.571ZM71.0201 151.571H72.509V139.224H71.0201V151.571ZM80.4238 149.021C80.1756 149.86 79.3457 150.433 78.2162 150.433C76.6161 150.433 75.615 149.312 75.615 147.61V147.524H81.9982V146.959C81.9982 144.264 80.5179 142.518 78.1135 142.518C75.6578 142.518 74.0834 144.392 74.0834 147.156C74.0834 149.954 75.6321 151.725 78.182 151.725C80.1243 151.725 81.6303 150.579 81.887 149.021H80.4238ZM78.0878 143.811C79.4911 143.811 80.4238 144.872 80.458 146.36H75.6236C75.7177 144.88 76.6931 143.811 78.0878 143.811ZM89.6991 151.725C90.897 151.725 92.0265 151.058 92.557 150.04H92.5912V151.571H94.003V145.419C94.003 143.648 92.6853 142.518 90.5975 142.518C88.4926 142.518 87.1749 143.699 87.0722 145.239H88.5097C88.698 144.367 89.4167 143.828 90.5633 143.828C91.7954 143.828 92.5142 144.478 92.5142 145.565V146.309L89.9643 146.454C87.9108 146.574 86.7385 147.533 86.7385 149.056C86.7385 150.656 87.9279 151.725 89.6991 151.725ZM90.0328 150.459C88.9632 150.459 88.253 149.903 88.253 149.056C88.253 148.217 88.9376 147.687 90.1355 147.61L92.5142 147.464V148.191C92.5142 149.475 91.4361 150.459 90.0328 150.459ZM100.215 142.518C98.923 142.518 97.8877 143.177 97.3401 144.178H97.3059V142.672H95.894V154.54H97.3829V150.125H97.4171C97.9476 151.101 98.9744 151.725 100.249 151.725C102.491 151.725 104.023 149.911 104.023 147.122C104.023 144.332 102.483 142.518 100.215 142.518ZM99.9242 150.416C98.4011 150.416 97.3743 149.107 97.3743 147.122C97.3743 145.145 98.4011 143.828 99.9242 143.828C101.507 143.828 102.5 145.111 102.5 147.122C102.5 149.141 101.507 150.416 99.9242 150.416ZM109.85 142.518C108.558 142.518 107.522 143.177 106.975 144.178H106.941V142.672H105.529V154.54H107.018V150.125H107.052C107.582 151.101 108.609 151.725 109.884 151.725C112.126 151.725 113.657 149.911 113.657 147.122C113.657 144.332 112.117 142.518 109.85 142.518ZM109.559 150.416C108.036 150.416 107.009 149.107 107.009 147.122C107.009 145.145 108.036 143.828 109.559 143.828C111.142 143.828 112.134 145.111 112.134 147.122C112.134 149.141 111.142 150.416 109.559 150.416ZM115.009 145.128C115.009 146.412 115.822 147.19 117.499 147.592L118.911 147.935C119.929 148.183 120.28 148.551 120.28 149.193C120.28 149.997 119.536 150.51 118.329 150.51C117.123 150.51 116.438 150.023 116.259 149.004H114.77C114.941 150.673 116.241 151.725 118.329 151.725C120.314 151.725 121.778 150.63 121.778 149.081C121.778 147.806 121.127 147.105 119.33 146.668L117.919 146.326C116.926 146.087 116.473 145.667 116.473 145.051C116.473 144.273 117.191 143.733 118.278 143.733C119.373 143.733 120.058 144.307 120.169 145.239H121.589C121.529 143.665 120.229 142.518 118.278 142.518C116.353 142.518 115.009 143.605 115.009 145.128ZM124.584 151.657C125.132 151.657 125.56 151.229 125.56 150.681C125.56 150.134 125.132 149.706 124.584 149.706C124.037 149.706 123.609 150.134 123.609 150.681C123.609 151.229 124.037 151.657 124.584 151.657Z" fill="#333333"/>
<rect x="33.2858" y="182.715" width="258.476" height="1.09524" fill="#D7D9E0"/>
<path d="M45.1794 214.183V212.865H40.0454V214.551H43.0231L43.0146 214.756C42.9803 216.485 41.6883 217.665 39.823 217.665C37.5983 217.665 36.2121 215.928 36.2121 213.088C36.2121 210.307 37.5384 208.655 39.7631 208.655C41.2776 208.655 42.4242 209.494 42.8434 210.914H45.0852C44.6831 208.441 42.5611 206.782 39.7545 206.782C36.1864 206.782 33.9532 209.194 33.9532 213.113C33.9532 217.092 36.195 219.539 39.7973 219.539C43.1771 219.539 45.1794 217.529 45.1794 214.183ZM52.7776 216.622C52.5466 217.375 51.7936 217.871 50.801 217.871C49.4063 217.871 48.5164 216.895 48.5164 215.441V215.312H54.8568V214.619C54.8568 211.864 53.2482 210.076 50.6727 210.076C48.0544 210.076 46.3944 211.967 46.3944 214.833C46.3944 217.725 48.0373 219.514 50.7582 219.514C52.9059 219.514 54.4974 218.333 54.7713 216.622H52.7776ZM50.6812 211.727C51.9048 211.727 52.7262 212.626 52.769 213.909H48.5335C48.6191 212.643 49.4833 211.727 50.6812 211.727ZM56.8248 208.142V210.264H55.5242V211.907H56.8248V216.921C56.8248 218.684 57.5949 219.377 59.5544 219.377C60.0079 219.377 60.4271 219.343 60.6582 219.291V217.665C60.5213 217.691 60.2474 217.708 60.0506 217.708C59.2977 217.708 58.9554 217.366 58.9554 216.622V211.907H60.6667V210.264H58.9554V208.142H56.8248ZM66.2199 208.142V210.264H64.9193V211.907H66.2199V216.921C66.2199 218.684 66.99 219.377 68.9495 219.377C69.403 219.377 69.8222 219.343 70.0533 219.291V217.665C69.9163 217.691 69.6425 217.708 69.4457 217.708C68.6928 217.708 68.3505 217.366 68.3505 216.622V211.907H70.0618V210.264H68.3505V208.142H66.2199ZM71.5763 219.334H73.7069V214.123C73.7069 212.788 74.4855 211.898 75.769 211.898C77.0012 211.898 77.6344 212.66 77.6344 213.926V219.334H79.7649V213.49C79.7649 211.411 78.5927 210.093 76.5905 210.093C75.2129 210.093 74.2117 210.718 73.724 211.821H73.6812V206.987H71.5763V219.334ZM87.4829 216.622C87.2519 217.375 86.4989 217.871 85.5064 217.871C84.1117 217.871 83.2218 216.895 83.2218 215.441V215.312H89.5622V214.619C89.5622 211.864 87.9536 210.076 85.378 210.076C82.7597 210.076 81.0998 211.967 81.0998 214.833C81.0998 217.725 82.7426 219.514 85.4636 219.514C87.6113 219.514 89.2028 218.333 89.4766 216.622H87.4829ZM85.3866 211.727C86.6102 211.727 87.4316 212.626 87.4744 213.909H83.2389C83.3245 212.643 84.1887 211.727 85.3866 211.727ZM97.1176 219.479C98.2813 219.479 99.4193 218.872 99.9413 217.888H99.9841V219.334H102.038V213.088C102.038 211.265 100.574 210.076 98.3241 210.076C96.0138 210.076 94.5678 211.291 94.4736 212.985H96.4502C96.5871 212.232 97.2288 211.744 98.2385 211.744C99.291 211.744 99.9327 212.292 99.9327 213.242V213.892L97.5369 214.029C95.3293 214.166 94.0886 215.133 94.0886 216.741C94.0886 218.376 95.3635 219.479 97.1176 219.479ZM97.7594 217.871C96.8352 217.871 96.2192 217.4 96.2192 216.656C96.2192 215.937 96.8096 215.475 97.8364 215.407L99.9327 215.278V215.971C99.9327 217.066 98.9658 217.871 97.7594 217.871ZM108.737 210.11C107.42 210.11 106.393 210.777 105.88 211.83H105.837V210.264H103.757V222.32H105.888V217.828H105.931C106.427 218.846 107.454 219.479 108.772 219.479C111.048 219.479 112.502 217.691 112.502 214.799C112.502 211.898 111.039 210.11 108.737 210.11ZM108.087 217.734C106.761 217.734 105.88 216.579 105.871 214.799C105.88 213.036 106.761 211.864 108.087 211.864C109.465 211.864 110.32 213.011 110.32 214.799C110.32 216.596 109.465 217.734 108.087 217.734ZM118.851 210.11C117.534 210.11 116.507 210.777 115.993 211.83H115.951V210.264H113.871V222.32H116.002V217.828H116.045C116.541 218.846 117.568 219.479 118.885 219.479C121.162 219.479 122.616 217.691 122.616 214.799C122.616 211.898 121.153 210.11 118.851 210.11ZM118.201 217.734C116.875 217.734 115.993 216.579 115.985 214.799C115.993 213.036 116.875 211.864 118.201 211.864C119.579 211.864 120.434 213.011 120.434 214.799C120.434 216.596 119.579 217.734 118.201 217.734ZM123.823 212.865C123.823 214.209 124.695 215.064 126.432 215.449L127.938 215.783C128.888 215.997 129.213 216.305 129.213 216.853C129.213 217.529 128.571 217.956 127.536 217.956C126.458 217.956 125.85 217.511 125.688 216.63H123.592C123.763 218.384 125.166 219.514 127.536 219.514C129.761 219.514 131.335 218.359 131.335 216.647C131.335 215.33 130.608 214.602 128.725 214.183L127.22 213.849C126.27 213.635 125.893 213.276 125.893 212.754C125.893 212.087 126.518 211.642 127.459 211.642C128.443 211.642 129.051 212.164 129.136 212.985H131.121C131.07 211.265 129.667 210.076 127.459 210.076C125.269 210.076 123.823 211.205 123.823 212.865Z" fill="#0364D3"/>
<path d="M141.441 218.65C140.992 218.22 140.992 217.503 141.44 217.071L145.841 212.834L141.44 208.597C140.992 208.166 140.992 207.449 141.441 207.018L141.468 206.991C141.892 206.584 142.562 206.584 142.986 206.991L148.246 212.044C148.695 212.475 148.695 213.193 148.246 213.624L142.986 218.677C142.562 219.084 141.892 219.084 141.468 218.677L141.441 218.65Z" fill="#0364D3"/>
<g clip-path="url(#clip1_40_18595)">
<rect width="131.429" height="236.571" transform="translate(335.571 5.28613)" fill="#F1FAFF"/>
<path fill-rule="evenodd" clip-rule="evenodd" d="M336.079 146.014C334.588 152.513 338.544 159.052 345.041 160.718L547.544 212.636C554.144 214.328 560.866 210.349 562.558 203.749L561.224 203.408C558.423 207.742 553.072 210.01 547.798 208.658L345.294 156.74C340.136 155.418 336.579 151.023 336.079 146.014Z" fill="#034EA6"/>
<path d="M336.101 145.909L562.505 203.955V203.955C560.813 210.554 554.091 214.533 547.491 212.841L344.988 160.923C338.388 159.231 334.409 152.509 336.101 145.909V145.909Z" fill="white" stroke="#034EA6" stroke-width="1.09524" stroke-miterlimit="10" stroke-linecap="round" stroke-linejoin="round"/>
<path d="M424.851 168.572L473.805 181.123V181.123C473.239 183.331 470.991 184.662 468.783 184.096L427.823 173.595C425.616 173.029 424.285 170.78 424.851 168.572V168.572Z" fill="#034EA6"/>
<path d="M378.926 46.4091C380.428 40.5497 386.396 37.0176 392.255 38.5198L564.945 82.794C570.804 84.2963 574.336 90.264 572.834 96.1233L546.256 199.789L352.348 150.075L378.926 46.4091Z" fill="white" stroke="#034EA6" stroke-width="2.19048" stroke-miterlimit="10" stroke-linecap="round" stroke-linejoin="round"/>
<g clip-path="url(#clip2_40_18595)">
<path d="M386.532 50.6382C387.133 48.2945 389.52 46.8816 391.864 47.4825L561.612 91.0026C563.956 91.6035 565.368 93.9906 564.767 96.3343L538.76 197.775L360.525 152.079L386.532 50.6382Z" fill="#F1FAFF"/>
<g clip-path="url(#clip3_40_18595)">
<rect width="37.2381" height="107.333" transform="translate(388.798 48.1172) rotate(14.2675)" fill="#02346E"/>
<rect opacity="0.4" x="389.841" y="52.9033" width="4.38095" height="4.38095" rx="2.19048" transform="rotate(14.2675 389.841 52.9033)" fill="white"/>
<rect opacity="0.4" x="395.94" y="55.585" width="17.5238" height="2.19048" rx="1.09524" transform="rotate(14.2675 395.94 55.585)" fill="white"/>
<rect opacity="0.4" x="387.142" y="63.5166" width="4.38095" height="4.38095" rx="2.19048" transform="rotate(14.2675 387.142 63.5166)" fill="white"/>
<rect opacity="0.4" x="393.24" y="66.1982" width="17.5238" height="2.19048" rx="1.09524" transform="rotate(14.2675 393.24 66.1982)" fill="white"/>
<rect opacity="0.4" x="384.982" y="72.0098" width="4.38095" height="4.38095" rx="2.19048" transform="rotate(14.2675 384.982 72.0098)" fill="white"/>
<rect opacity="0.4" x="391.081" y="74.6904" width="17.5238" height="2.19048" rx="1.09524" transform="rotate(14.2675 391.081 74.6904)" fill="white"/>
<rect opacity="0.4" x="376.885" y="103.853" width="4.38095" height="4.38095" rx="2.19048" transform="rotate(14.2675 376.885 103.853)" fill="white"/>
<rect opacity="0.4" x="382.983" y="106.534" width="17.5238" height="2.19048" rx="1.09524" transform="rotate(14.2675 382.983 106.534)" fill="white"/>
<rect opacity="0.4" x="382.823" y="80.501" width="4.38095" height="4.38095" rx="2.19048" transform="rotate(14.2675 382.823 80.501)" fill="white"/>
<rect opacity="0.4" x="388.922" y="83.1826" width="17.5238" height="2.19048" rx="1.09524" transform="rotate(14.2675 388.922 83.1826)" fill="white"/>
<rect opacity="0.4" x="374.725" y="112.345" width="4.38095" height="4.38095" rx="2.19048" transform="rotate(14.2675 374.725 112.345)" fill="white"/>
<rect opacity="0.4" x="380.824" y="115.026" width="17.5238" height="2.19048" rx="1.09524" transform="rotate(14.2675 380.824 115.026)" fill="white"/>
<rect opacity="0.4" x="380.663" y="88.9922" width="4.38095" height="4.38095" rx="2.19048" transform="rotate(14.2675 380.663 88.9922)" fill="white"/>
<rect opacity="0.4" x="386.762" y="91.6738" width="17.5238" height="2.19048" rx="1.09524" transform="rotate(14.2675 386.762 91.6738)" fill="white"/>
<rect opacity="0.4" x="372.566" y="120.837" width="4.38095" height="4.38095" rx="2.19048" transform="rotate(14.2675 372.566 120.837)" fill="white"/>
<rect opacity="0.4" x="378.665" y="123.518" width="17.5238" height="2.19048" rx="1.09524" transform="rotate(14.2675 378.665 123.518)" fill="white"/>
<rect x="378.504" y="97.4844" width="27.381" height="2.19048" rx="1.09524" transform="rotate(14.2675 378.504 97.4844)" fill="white" fill-opacity="0.3"/>
</g>
<g clip-path="url(#clip4_40_18595)">
<rect width="33.9524" height="92" transform="translate(421.378 71.0947) rotate(14.2675)" fill="black" fill-opacity="0.05"/>
<rect x="422.421" y="75.8818" width="4.38095" height="4.38095" rx="1.09524" transform="rotate(14.2675 422.421 75.8818)" fill="black" fill-opacity="0.1"/>
<rect x="428.52" y="78.5615" width="21.9048" height="2.19048" rx="1.09524" transform="rotate(14.2675 428.52 78.5615)" fill="black" fill-opacity="0.1"/>
<rect x="420.262" y="84.373" width="4.38095" height="4.38095" rx="1.09524" transform="rotate(14.2675 420.262 84.373)" fill="black" fill-opacity="0.1"/>
<rect x="426.361" y="87.0537" width="21.9048" height="2.19048" rx="1.09524" transform="rotate(14.2675 426.361 87.0537)" fill="black" fill-opacity="0.1"/>
<rect x="418.103" y="92.8643" width="4.38095" height="4.38095" rx="1.09524" transform="rotate(14.2675 418.103 92.8643)" fill="black" fill-opacity="0.1"/>
<rect x="424.201" y="95.5449" width="21.9048" height="2.19048" rx="1.09524" transform="rotate(14.2675 424.201 95.5449)" fill="black" fill-opacity="0.1"/>
<rect x="415.943" y="101.356" width="4.38095" height="4.38095" rx="1.09524" transform="rotate(14.2675 415.943 101.356)" fill="black" fill-opacity="0.1"/>
<rect x="422.042" y="104.037" width="21.9048" height="2.19048" rx="1.09524" transform="rotate(14.2675 422.042 104.037)" fill="black" fill-opacity="0.1"/>
<rect x="413.784" y="109.848" width="4.38095" height="4.38095" rx="1.09524" transform="rotate(14.2675 413.784 109.848)" fill="black" fill-opacity="0.1"/>
<rect x="419.883" y="112.527" width="21.9048" height="2.19048" rx="1.09524" transform="rotate(14.2675 419.883 112.527)" fill="black" fill-opacity="0.1"/>
</g>
<g clip-path="url(#clip5_40_18595)">
<rect width="143.476" height="14.2381" transform="translate(424.887 57.2949) rotate(14.2675)" fill="white"/>
</g>
<rect x="460.885" y="89.0518" width="16.4286" height="16.4286" rx="2.19048" transform="rotate(14.2675 460.885 89.0518)" fill="#C2EAFF"/>
<rect x="452.284" y="113.985" width="96.381" height="12.0476" rx="2.19048" transform="rotate(14.2675 452.284 113.985)" fill="white"/>
<rect x="448.505" y="128.847" width="96.381" height="12.0476" rx="2.19048" transform="rotate(14.2675 448.505 128.847)" fill="white"/>
<rect x="444.728" y="143.707" width="96.381" height="12.0476" rx="2.19048" transform="rotate(14.2675 444.728 143.707)" fill="white"/>
<rect x="454.659" y="117.979" width="9.85714" height="2.19048" rx="1.09524" transform="rotate(14.2675 454.659 117.979)" fill="#C2EAFF"/>
<rect x="450.88" y="132.84" width="9.85714" height="2.19048" rx="1.09524" transform="rotate(14.2675 450.88 132.84)" fill="#C2EAFF"/>
<rect x="447.101" y="147.7" width="9.85714" height="2.19048" rx="1.09524" transform="rotate(14.2675 447.101 147.7)" fill="#C2EAFF"/>
<rect x="453.579" y="122.226" width="58.0476" height="2.19048" rx="1.09524" transform="rotate(14.2675 453.579 122.226)" fill="#C2EAFF"/>
<rect x="449.8" y="137.086" width="58.0476" height="2.19048" rx="1.09524" transform="rotate(14.2675 449.8 137.086)" fill="#C2EAFF"/>
<rect x="446.022" y="151.946" width="58.0476" height="2.19048" rx="1.09524" transform="rotate(14.2675 446.022 151.946)" fill="#C2EAFF"/>
<rect x="453.364" y="109.74" width="96.381" height="1.09524" rx="0.547619" transform="rotate(14.2675 453.364 109.74)" fill="#C2EAFF"/>
<rect width="182.905" height="54.7619" transform="matrix(0.969156 0.246449 0.246449 -0.969156 361.014 152.932)" fill="white"/>
<rect width="182.905" height="2.19048" transform="matrix(0.969156 0.246449 0.246449 -0.969156 373.97 101.982)" fill="#C2EAFF"/>
<rect x="372.081" y="109.413" width="182.905" height="1.09524" transform="rotate(14.2675 372.081 109.413)" fill="#C2EAFF"/>
<rect width="182.905" height="54.7619" transform="translate(387.736 47.8477) rotate(14.2675)" fill="white"/>
<rect x="375.571" y="100.13" width="180.714" height="2.19048" transform="rotate(14.2675 375.571 100.13)" fill="#C2EAFF"/>
<rect x="376.669" y="91.3672" width="182.905" height="1.09524" transform="rotate(14.2675 376.669 91.3672)" fill="#C2EAFF"/>
<path d="M477.463 127.24C475.159 135.749 466.48 140.9 458.09 138.766C449.7 136.633 444.747 128.016 447.051 119.507C449.354 110.998 458.034 105.848 466.424 107.981C474.814 110.115 479.767 118.731 477.463 127.24Z" fill="white" stroke="#034EA6" stroke-width="1.09524"/>
<path fill-rule="evenodd" clip-rule="evenodd" d="M465.415 111.697C471.788 113.318 475.54 119.859 473.794 126.307C472.049 132.755 465.467 136.669 459.093 135.048C452.72 133.428 448.968 126.886 450.714 120.438C452.459 113.99 459.041 110.076 465.415 111.697Z" fill="#0572EC"/>
<path fill-rule="evenodd" clip-rule="evenodd" d="M464.771 114.085C469.841 115.374 472.825 120.577 471.436 125.707C470.048 130.836 464.812 133.949 459.742 132.66C454.672 131.371 451.688 126.168 453.077 121.038C454.465 115.909 459.701 112.796 464.771 114.085Z" fill="white"/>
<path fill-rule="evenodd" clip-rule="evenodd" d="M463.466 118.913C465.9 119.531 467.333 122.029 466.667 124.491C466 126.953 463.487 128.447 461.053 127.828C458.619 127.209 457.186 124.712 457.852 122.25C458.519 119.788 461.032 118.294 463.466 118.913Z" fill="#F1FAFF"/>
<path fill-rule="evenodd" clip-rule="evenodd" d="M461.924 116.146L466.205 117.234L462.591 130.602L458.311 129.513L461.924 116.146ZM464.298 124.289L462.926 125.131L463.695 126.517L464.298 124.289ZM460.82 120.23L460.218 122.458L461.589 121.616L460.82 120.23Z" fill="#0572EC"/>
</g>
<path d="M391.592 48.5435L561.34 92.0635C563.098 92.5142 564.157 94.3045 563.707 96.0623L537.971 196.443L361.857 151.291L387.593 50.9102C388.044 49.1524 389.834 48.0928 391.592 48.5435Z" stroke="#034EA6" stroke-width="2.19048" stroke-miterlimit="10" stroke-linecap="round" stroke-linejoin="round"/>
<rect width="86.1772" height="109.249" rx="6.57143" transform="matrix(0.997102 -0.0760745 0.0765128 0.997069 342.556 73)" fill="white" stroke="#034EA6" stroke-width="2.19048" stroke-miterlimit="10" stroke-linecap="round" stroke-linejoin="round"/>
<path d="M436.852 170.774L437.119 81.3433C437.145 72.6968 429.976 65.7594 421.334 66.0684C423.672 67.3239 428.234 67.3519 429.064 72.9582L436.852 170.774Z" fill="#034EA6"/>
<g clip-path="url(#clip6_40_18595)">
<rect x="349.386" y="79.3164" width="73.381" height="92" rx="2.19048" transform="rotate(-4.18782 349.386 79.3164)" fill="#F1FAFF"/>
<rect width="70.0952" height="10.9524" transform="translate(351.093 81.249) rotate(-4.34928)" fill="#1A8CFF"/>
<circle cx="358.061" cy="86.2107" r="3.28571" transform="rotate(-4.34928 358.061 86.2107)" fill="white" fill-opacity="0.4"/>
<rect x="375.451" y="83.7891" width="23" height="2.19048" rx="1.09524" transform="rotate(-4.34928 375.451 83.7891)" fill="white" fill-opacity="0.5"/>
<g clip-path="url(#clip7_40_18595)">
<rect width="25.1905" height="77.7619" transform="translate(351.924 92.1699) rotate(-4.34928)" fill="white"/>
<rect x="354.44" y="96.3721" width="4.38095" height="4.38095" rx="1.09524" transform="rotate(-4.34928 354.44 96.3721)" fill="#E6E6E8"/>
<rect x="361.076" y="96.9658" width="14.2381" height="2.19048" rx="1.09524" transform="rotate(-4.34928 361.076 96.9658)" fill="#E6E6E8"/>
<rect x="355.104" y="105.109" width="4.38095" height="4.38095" rx="1.09524" transform="rotate(-4.34928 355.104 105.109)" fill="#E6E6E8"/>
<rect x="361.74" y="105.703" width="14.2381" height="2.19048" rx="1.09524" transform="rotate(-4.34928 361.74 105.703)" fill="#E6E6E8"/>
<rect x="355.769" y="113.846" width="4.38095" height="4.38095" rx="1.09524" transform="rotate(-4.34928 355.769 113.846)" fill="#E6E6E8"/>
<rect x="362.405" y="114.439" width="14.2381" height="2.19048" rx="1.09524" transform="rotate(-4.34928 362.405 114.439)" fill="#E6E6E8"/>
<rect x="356.433" y="122.582" width="4.38095" height="4.38095" rx="1.09524" transform="rotate(-4.34928 356.433 122.582)" fill="#E6E6E8"/>
<rect x="363.069" y="123.176" width="14.2381" height="2.19048" rx="1.09524" transform="rotate(-4.34928 363.069 123.176)" fill="#E6E6E8"/>
<rect x="357.015" y="130.227" width="15.3333" height="1.09524" rx="0.547619" transform="rotate(-4.34928 357.015 130.227)" fill="#E6E6E8"/>
</g>
<g clip-path="url(#clip8_40_18595)">
<rect x="380.484" y="92.1953" width="37.2381" height="10.9524" rx="1.09524" transform="rotate(-4.34928 380.484 92.1953)" fill="white"/>
<circle cx="386.36" cy="97.2409" r="3.28571" transform="rotate(-4.34928 386.36 97.2409)" fill="#C2EAFF"/>
<rect x="391.571" y="93.5498" width="24.0952" height="2.19048" rx="1.09524" transform="rotate(-4.34928 391.571 93.5498)" fill="#C2EAFF"/>
<rect x="391.903" y="97.918" width="16.4286" height="2.19048" rx="1.09524" transform="rotate(-4.34928 391.903 97.918)" fill="#C2EAFF"/>
</g>
<g clip-path="url(#clip9_40_18595)">
<rect x="381.564" y="106.392" width="37.2381" height="10.9524" rx="1.09524" transform="rotate(-4.34928 381.564 106.392)" fill="white"/>
<circle cx="387.439" cy="111.436" r="3.28571" transform="rotate(-4.34928 387.439 111.436)" fill="#C2EAFF"/>
<rect x="392.651" y="107.745" width="24.0952" height="2.19048" rx="1.09524" transform="rotate(-4.34928 392.651 107.745)" fill="#C2EAFF"/>
<rect x="392.983" y="112.113" width="16.4286" height="2.19048" rx="1.09524" transform="rotate(-4.34928 392.983 112.113)" fill="#C2EAFF"/>
</g>
<g clip-path="url(#clip10_40_18595)">
<rect x="382.643" y="120.589" width="37.2381" height="10.9524" rx="1.09524" transform="rotate(-4.34928 382.643 120.589)" fill="white"/>
<circle cx="388.519" cy="125.634" r="3.28571" transform="rotate(-4.34928 388.519 125.634)" fill="#C2EAFF"/>
<rect x="393.73" y="121.943" width="24.0952" height="2.19048" rx="1.09524" transform="rotate(-4.34928 393.73 121.943)" fill="#C2EAFF"/>
<rect x="394.063" y="126.312" width="16.4286" height="2.19048" rx="1.09524" transform="rotate(-4.34928 394.063 126.312)" fill="#C2EAFF"/>
</g>
<g clip-path="url(#clip11_40_18595)">
<rect x="383.723" y="134.786" width="37.2381" height="10.9524" rx="1.09524" transform="rotate(-4.34928 383.723 134.786)" fill="white"/>
<circle cx="389.599" cy="139.831" r="3.28571" transform="rotate(-4.34928 389.599 139.831)" fill="#C2EAFF"/>
<rect x="394.81" y="136.14" width="24.0952" height="2.19048" rx="1.09524" transform="rotate(-4.34928 394.81 136.14)" fill="#C2EAFF"/>
<rect x="395.142" y="140.509" width="16.4286" height="2.19048" rx="1.09524" transform="rotate(-4.34928 395.142 140.509)" fill="#C2EAFF"/>
</g>
<rect width="71.1905" height="44.9048" transform="matrix(0.99712 -0.0758364 -0.0758364 -0.99712 356.729 169.792)" fill="white"/>
<rect width="72.2857" height="2.19048" transform="matrix(0.99712 -0.0758364 -0.0758364 -0.99712 353.406 126.108)" fill="#C2EAFF"/>
<rect x="353.655" y="129.385" width="71.1905" height="1.09524" transform="rotate(-4.34928 353.655 129.385)" fill="#C2EAFF"/>
<rect width="71.1905" height="44.9048" transform="translate(349.918 80.2412) rotate(-4.34928)" fill="white"/>
<rect x="354.332" y="123.842" width="70.0952" height="2.19048" transform="rotate(-4.34928 354.332 123.842)" fill="#C2EAFF"/>
<rect x="352.908" y="119.557" width="71.1905" height="1.09524" transform="rotate(-4.34928 352.908 119.557)" fill="#C2EAFF"/>
<path d="M399.696 121.518C400.157 127.865 395.404 133.396 389.085 133.875C382.767 134.354 377.268 129.601 376.808 123.255C376.348 116.908 381.1 111.378 387.419 110.898C393.738 110.419 399.236 115.172 399.696 121.518Z" fill="white" stroke="#034EA6" stroke-width="1.09524"/>
<path fill-rule="evenodd" clip-rule="evenodd" d="M387.611 113.56C392.467 113.192 396.69 116.845 397.044 121.719C397.397 126.593 393.747 130.843 388.891 131.211C384.035 131.58 379.812 127.927 379.458 123.053C379.105 118.179 382.755 113.929 387.611 113.56Z" fill="#0572EC"/>
<path fill-rule="evenodd" clip-rule="evenodd" d="M387.743 115.365C391.606 115.072 394.965 117.977 395.247 121.854C395.528 125.732 392.624 129.112 388.762 129.405C384.899 129.698 381.539 126.793 381.258 122.916C380.977 119.039 383.88 115.658 387.743 115.365Z" fill="white"/>
<path fill-rule="evenodd" clip-rule="evenodd" d="M388.01 119.015C389.864 118.874 391.477 120.269 391.612 122.13C391.747 123.991 390.353 125.613 388.498 125.754C386.644 125.895 385.031 124.5 384.896 122.639C384.761 120.778 386.155 119.155 388.01 119.015Z" fill="#F1FAFF"/>
<path fill-rule="evenodd" clip-rule="evenodd" d="M386.217 117.46L389.556 117.207L390.289 127.311L386.95 127.564L386.217 117.46ZM389.943 122.54L389.17 123.445L390.065 124.224L389.943 122.54ZM386.441 120.547L386.564 122.232L387.337 121.326L386.441 120.547Z" fill="#0572EC"/>
</g>
<rect x="350.559" y="80.3287" width="71.1905" height="89.8095" rx="1.09524" transform="rotate(-4.18782 350.559 80.3287)" stroke="#034EA6" stroke-width="2.19048"/>
<rect width="45.5613" height="83.9611" rx="6.57143" transform="matrix(0.915393 -0.402563 0.40797 0.912996 310.517 115.126)" fill="white" stroke="#034EA6" stroke-width="2.19048" stroke-miterlimit="10" stroke-linecap="round" stroke-linejoin="round"/>
<g clip-path="url(#clip12_40_18595)">
<rect x="317.692" y="118.056" width="35.0476" height="65.7143" rx="2.19048" transform="rotate(-23.6733 317.692 118.056)" fill="white"/>
<g clip-path="url(#clip13_40_18595)">
<rect width="32.8571" height="62.4286" transform="translate(319.321 119.296) rotate(-23.7194)" fill="#F1FAFF"/>
<g clip-path="url(#clip14_40_18595)">
<rect x="328.057" y="131.01" width="26.2857" height="10.9524" rx="1.09524" transform="rotate(-23.7194 328.057 131.01)" fill="white"/>
<circle cx="335.273" cy="133.819" r="3.28571" transform="rotate(-23.7194 335.273 133.819)" fill="#C2EAFF"/>
<rect x="338.965" y="128.608" width="13.1429" height="2.19048" rx="1.09524" transform="rotate(-23.7194 338.965 128.608)" fill="#C2EAFF"/>
<rect x="340.727" y="132.62" width="8.7619" height="2.19048" rx="1.09524" transform="rotate(-23.7194 340.727 132.62)" fill="#C2EAFF"/>
</g>
<g clip-path="url(#clip15_40_18595)">
<rect x="333.784" y="144.044" width="26.2857" height="10.9524" rx="1.09524" transform="rotate(-23.7194 333.784 144.044)" fill="white"/>
<circle cx="341.001" cy="146.854" r="3.28571" transform="rotate(-23.7194 341.001 146.854)" fill="#C2EAFF"/>
<rect x="344.692" y="141.644" width="13.1429" height="2.19048" rx="1.09524" transform="rotate(-23.7194 344.692 141.644)" fill="#C2EAFF"/>
<rect x="346.455" y="145.654" width="8.7619" height="2.19048" rx="1.09524" transform="rotate(-23.7194 346.455 145.654)" fill="#C2EAFF"/>
</g>
<g clip-path="url(#clip16_40_18595)">
<rect x="339.511" y="157.08" width="26.2857" height="10.9524" rx="1.09524" transform="rotate(-23.7194 339.511 157.08)" fill="white"/>
<circle cx="346.728" cy="159.891" r="3.28571" transform="rotate(-23.7194 346.728 159.891)" fill="#C2EAFF"/>
<rect x="350.42" y="154.68" width="13.1429" height="2.19048" rx="1.09524" transform="rotate(-23.7194 350.42 154.68)" fill="#C2EAFF"/>
<rect x="352.182" y="158.69" width="8.7619" height="2.19048" rx="1.09524" transform="rotate(-23.7194 352.182 158.69)" fill="#C2EAFF"/>
</g>
</g>
<g clip-path="url(#clip17_40_18595)">
<rect width="32.8571" height="10.9524" transform="translate(319.321 119.296) rotate(-23.7194)" fill="#1A8CFF"/>
<rect x="329.105" y="119.782" width="15.3333" height="2.19048" rx="1.09524" transform="rotate(-23.7194 329.105 119.782)" fill="white" fill-opacity="0.5"/>
</g>
<rect width="32.8571" height="32.8571" transform="matrix(0.915526 -0.402258 -0.402258 -0.915526 344.874 177.453)" fill="white"/>
<rect width="32.8571" height="2.19048" transform="matrix(0.915526 -0.402258 -0.402258 -0.915526 332.098 148.374)" fill="#C2EAFF"/>
<rect x="333.419" y="151.382" width="32.8571" height="1.09524" transform="rotate(-23.7194 333.419 151.382)" fill="#C2EAFF"/>
<rect width="32.8571" height="32.8571" transform="translate(318.44 117.29) rotate(-23.7194)" fill="white"/>
<rect x="331.217" y="146.368" width="32.8571" height="2.19048" transform="rotate(-23.7194 331.217 146.368)" fill="#C2EAFF"/>
<rect x="329.454" y="142.357" width="32.8571" height="1.09524" transform="rotate(-23.7194 329.454 142.357)" fill="#C2EAFF"/>
<circle r="8.21429" transform="matrix(0.915873 -0.401468 0.40157 0.915828 346.708 140.767)" fill="white" stroke="#034EA6" stroke-width="1.09524"/>
<path fill-rule="evenodd" clip-rule="evenodd" d="M344.127 134.881C347.377 133.457 351.167 134.936 352.592 138.186C354.017 141.436 352.538 145.226 349.288 146.65C346.037 148.075 342.247 146.595 340.822 143.345C339.397 140.096 340.877 136.306 344.127 134.881Z" fill="#0572EC"/>
<path fill-rule="evenodd" clip-rule="evenodd" d="M344.655 136.085C347.241 134.951 350.255 136.129 351.389 138.714C352.523 141.299 351.346 144.313 348.76 145.447C346.175 146.58 343.16 145.403 342.027 142.818C340.893 140.232 342.07 137.218 344.655 136.085Z" fill="white"/>
<path fill-rule="evenodd" clip-rule="evenodd" d="M345.722 138.519C346.963 137.975 348.41 138.54 348.954 139.781C349.499 141.022 348.934 142.469 347.693 143.013C346.452 143.557 345.005 142.992 344.461 141.751C343.916 140.51 344.481 139.063 345.722 138.519Z" fill="#F1FAFF"/>
<path fill-rule="evenodd" clip-rule="evenodd" d="M344.107 137.889L346.354 136.904L349.309 143.644L347.062 144.629L344.107 137.889ZM347.914 140.461L347.598 141.269L348.406 141.585L347.914 140.461ZM345.01 139.948L345.502 141.072L345.818 140.264L345.01 139.948Z" fill="#0572EC"/>
</g>
<rect x="319.135" y="118.619" width="32.8571" height="63.5238" rx="1.09524" transform="rotate(-23.6733 319.135 118.619)" stroke="#034EA6" stroke-width="2.19048"/>
<rect width="10.8017" height="4.76264" rx="2.38132" transform="matrix(0.915393 -0.402562 0.40797 0.912995 357.029 176.614)" fill="#034EA6"/>
<path d="M384.805 168.011L362.31 105.543C360.049 99.262 353.096 96.035 346.825 98.3562C349.279 98.7647 354.063 101.151 354.724 102.388L384.805 168.011Z" fill="#034EA6"/>
</g>
</g>
<rect x="7.54762" y="5.83375" width="458.905" height="235.476" rx="8.21429" stroke="#D7D9E0" stroke-width="1.09524"/>
</g>
<defs>
<filter id="filter0_d_40_18595" x="0.428571" y="0.90518" width="473.143" height="249.714" filterUnits="userSpaceOnUse" color-interpolation-filters="sRGB">
<feFlood flood-opacity="0" result="BackgroundImageFix"/>
<feColorMatrix in="SourceAlpha" type="matrix" values="0 0 0 0 0 0 0 0 0 0 0 0 0 0 0 0 0 0 127 0" result="hardAlpha"/>
<feOffset dy="2.19048"/>
<feGaussianBlur stdDeviation="3.28571"/>
<feColorMatrix type="matrix" values="0 0 0 0 0 0 0 0 0 0 0 0 0 0 0 0 0 0 0.05 0"/>
<feBlend mode="normal" in2="BackgroundImageFix" result="effect1_dropShadow_40_18595"/>
<feBlend mode="normal" in="SourceGraphic" in2="effect1_dropShadow_40_18595" result="shape"/>
</filter>
<clipPath id="clip0_40_18595">
<rect x="7" y="5.28613" width="460" height="236.571" rx="8.7619" fill="white"/>
</clipPath>
<clipPath id="clip1_40_18595">
<rect width="157.714" height="236.571" fill="white" transform="translate(309.286 5.28613)"/>
</clipPath>
<clipPath id="clip2_40_18595">
<path d="M386.532 50.6382C387.133 48.2945 389.52 46.8816 391.864 47.4825L561.612 91.0026C563.956 91.6035 565.368 93.9906 564.767 96.3343L538.76 197.775L360.525 152.079L386.532 50.6382Z" fill="white"/>
</clipPath>
<clipPath id="clip3_40_18595">
<rect width="37.2381" height="107.333" fill="white" transform="translate(388.798 48.1172) rotate(14.2675)"/>
</clipPath>
<clipPath id="clip4_40_18595">
<rect width="33.9524" height="92" fill="white" transform="translate(421.378 71.0947) rotate(14.2675)"/>
</clipPath>
<clipPath id="clip5_40_18595">
<rect width="143.476" height="14.2381" fill="white" transform="translate(424.887 57.2949) rotate(14.2675)"/>
</clipPath>
<clipPath id="clip6_40_18595">
<rect x="349.386" y="79.3164" width="73.381" height="92" rx="2.19048" transform="rotate(-4.18782 349.386 79.3164)" fill="white"/>
</clipPath>
<clipPath id="clip7_40_18595">
<rect width="25.1905" height="77.7619" fill="white" transform="translate(351.924 92.1699) rotate(-4.34928)"/>
</clipPath>
<clipPath id="clip8_40_18595">
<rect x="380.484" y="92.1953" width="37.2381" height="10.9524" rx="1.09524" transform="rotate(-4.34928 380.484 92.1953)" fill="white"/>
</clipPath>
<clipPath id="clip9_40_18595">
<rect x="381.564" y="106.392" width="37.2381" height="10.9524" rx="1.09524" transform="rotate(-4.34928 381.564 106.392)" fill="white"/>
</clipPath>
<clipPath id="clip10_40_18595">
<rect x="382.643" y="120.589" width="37.2381" height="10.9524" rx="1.09524" transform="rotate(-4.34928 382.643 120.589)" fill="white"/>
</clipPath>
<clipPath id="clip11_40_18595">
<rect x="383.723" y="134.786" width="37.2381" height="10.9524" rx="1.09524" transform="rotate(-4.34928 383.723 134.786)" fill="white"/>
</clipPath>
<clipPath id="clip12_40_18595">
<rect x="317.692" y="118.056" width="35.0476" height="65.7143" rx="2.19048" transform="rotate(-23.6733 317.692 118.056)" fill="white"/>
</clipPath>
<clipPath id="clip13_40_18595">
<rect width="32.8571" height="62.4286" fill="white" transform="translate(319.321 119.296) rotate(-23.7194)"/>
</clipPath>
<clipPath id="clip14_40_18595">
<rect x="328.057" y="131.01" width="26.2857" height="10.9524" rx="1.09524" transform="rotate(-23.7194 328.057 131.01)" fill="white"/>
</clipPath>
<clipPath id="clip15_40_18595">
<rect x="333.784" y="144.044" width="26.2857" height="10.9524" rx="1.09524" transform="rotate(-23.7194 333.784 144.044)" fill="white"/>
</clipPath>
<clipPath id="clip16_40_18595">
<rect x="339.511" y="157.08" width="26.2857" height="10.9524" rx="1.09524" transform="rotate(-23.7194 339.511 157.08)" fill="white"/>
</clipPath>
<clipPath id="clip17_40_18595">
<rect width="32.8571" height="10.9524" fill="white" transform="translate(319.321 119.296) rotate(-23.7194)"/>
</clipPath>
</defs>
</svg>
