<svg width="200" height="235" viewBox="0 0 200 235" fill="none" xmlns="http://www.w3.org/2000/svg">
<g clip-path="url(#clip0_63_17742)">
<rect y="35" width="200" height="200" rx="100" fill="#CFE7E4"/>
<path fill-rule="evenodd" clip-rule="evenodd" d="M176.762 202.019C175.186 197.208 177.063 191.651 175.836 186.465C175.416 184.413 174.617 176.792 173.814 172.335C173.365 169.842 176.051 169.068 176.463 168.073C179.367 159.135 158.182 138.107 156.888 137.332C154.951 136.22 153.236 135.262 151.342 134.125C145.819 132.198 139.195 126.835 134.187 130.279C125.511 117.447 128.944 101.637 124.236 99.7582C119.528 97.8791 105.625 94.0813 97.6762 98.931C92.9119 102.433 93.2631 108.462 91.0893 113.434C89.8133 115.775 89.1864 119.165 87.7011 120.692C82.6542 125.879 76.3606 126.773 69.3247 127.653C68.7888 127.72 68.225 126.272 67.7043 126.451C55.8358 130.527 42.0256 131.716 28.5846 154.537C26.6863 157.8 21.5655 163.037 23.2778 166.808C11.9957 192.874 0.894525 251.541 31.8514 266.172C32.841 266.801 39.554 263.429 40.6478 263.46C42.4711 263.512 38.9775 267.911 40.6478 267.127C52.9105 268.052 120.386 265.667 146.25 268.052C164.036 267.919 175.302 271.018 179.409 267.919C177.767 263.977 177.843 259.755 178.362 255.587C182.142 252.793 177.469 233.099 177.865 227.332C181.403 223.118 178.586 207.313 176.762 202.019Z" fill="white"/>
<path fill-rule="evenodd" clip-rule="evenodd" d="M171.123 173.172C169.426 175.623 167.867 178.148 166.458 180.773C165.731 182.127 165.054 183.508 164.443 184.918C164.317 181.871 164.289 178.788 163.93 175.771C163.905 175.553 163.539 175.447 163.501 175.712C163.105 178.448 163.039 181.255 162.89 184.02C162.717 183.967 162.527 183.937 162.317 183.937C160.281 183.937 158.275 184.103 156.246 184.266C155.337 184.339 154.386 184.395 153.458 184.539C154.205 183.72 154.9 182.855 155.542 181.953C156.196 181.032 156.944 179.594 155.804 178.709C154.544 177.733 152.073 179.01 150.855 179.507C150.238 179.758 149.633 180.032 149.037 180.323C148.285 178.23 145.98 177.952 144.004 178.241C142.595 178.447 141.227 178.926 139.854 179.291C138.11 179.754 136.36 180.189 134.602 180.598C131.438 181.334 128.252 181.977 125.052 182.534C124.967 182.437 124.85 182.36 124.693 182.321C123.597 182.049 122.388 182.257 121.263 182.278C120.107 182.299 118.951 182.297 117.796 182.274C115.731 182.232 113.668 182.215 111.603 182.179C111.017 181.826 110.273 181.318 110.09 180.653C109.863 179.823 110.573 178.903 110.903 178.197C112.169 175.483 112.612 172.447 112.115 169.491C112.027 168.964 111.844 168.388 111.581 167.849C113.843 168.089 116.075 168.252 118.349 168.326C122.891 168.473 127.431 168.627 131.975 168.66C141.058 168.727 150.142 168.728 159.226 168.662C164.362 168.625 169.487 168.578 174.617 168.317C174.198 168.844 173.792 169.381 173.395 169.928C173.313 169.903 173.206 169.947 173.218 170.048C173.222 170.084 173.226 170.119 173.231 170.154C172.506 171.159 171.809 172.18 171.123 173.172M161.022 266.48C158.911 266.414 156.801 266.347 154.69 266.28C150.546 266.149 146.403 266.018 142.26 265.887C134.051 265.627 125.843 265.377 117.633 265.152C109.444 264.928 101.25 264.69 93.0576 264.944C84.8468 265.199 76.657 265.857 68.4615 266.385C63.9054 266.679 59.3459 266.933 54.7813 267.055C50.4339 267.171 46.0482 266.995 41.7077 267.304C41.5618 266.237 41.669 265.174 41.6532 264.112C43.0771 263.295 44.4745 262.427 45.8556 261.573C50.8909 258.462 55.6505 254.942 60.14 251.093C60.8301 250.502 61.5067 249.898 62.1766 249.287C61.7104 250.299 62.0835 251.604 63.4196 252.033C65.0489 252.555 66.7172 252.369 68.4094 252.33C70.1279 252.29 71.8463 252.252 73.5649 252.216C76.9238 252.145 80.2829 252.081 83.6419 252.025C90.2041 251.916 96.7664 251.836 103.329 251.783C116.532 251.677 129.727 251.855 142.928 252.092C146.64 252.159 150.349 252.241 154.061 252.158C155.918 252.116 157.783 252.103 159.638 252.003C161.124 251.924 162.619 251.715 164.105 251.527C164.293 254.098 164.489 256.669 164.707 259.238C164.851 260.934 165 262.631 165.146 264.327C165.207 265.027 165.211 265.741 165.31 266.406C163.884 266.484 162.466 266.526 161.022 266.48M162.474 193.87C162.422 195.838 162.394 197.808 162.38 199.778C162.209 199.68 162.016 199.609 161.798 199.576C159.49 199.226 157.02 199.491 154.684 199.531C152.426 199.568 150.161 199.555 147.905 199.661C145.645 199.767 143.386 199.894 141.126 200.01C140.066 200.065 139.018 200.112 137.966 200.255C137.245 200.352 136.323 200.345 135.553 200.549C138.783 197.441 141.996 194.315 145.218 191.198C145.314 191.104 145.384 191.005 145.433 190.905C147.581 189.604 149.642 188.141 151.51 186.465C152.99 187.032 154.676 187.104 156.246 187.23C158.276 187.394 160.28 187.559 162.317 187.559C162.455 187.559 162.584 187.546 162.705 187.522C162.605 189.637 162.53 191.752 162.474 193.87M78.6038 232.107C83.5352 233.671 88.8781 233.654 94.0084 233.967C99.4776 234.301 104.939 234.579 110.414 234.791C121.35 235.213 132.279 235.787 143.213 236.243C149.459 236.504 155.703 236.791 161.946 237.103C162.389 237.125 162.811 237.012 163.184 236.806C163.393 240.89 163.639 244.973 163.925 249.054C163.96 249.564 164 250.074 164.036 250.584C161.098 250.218 158.182 249.868 155.222 249.619C151.898 249.34 148.575 249.105 145.246 248.886C138.759 248.459 132.262 247.886 125.763 247.678C112.515 247.252 99.2384 247.397 85.9857 247.491C82.2358 247.517 78.4862 247.553 74.7366 247.598C72.8619 247.621 70.9872 247.646 69.1125 247.673C67.2284 247.7 65.2036 247.506 63.4196 248.159C63.4026 248.165 63.3883 248.174 63.3715 248.18C68.7536 243.114 73.5751 237.515 78.6038 232.107M95.9394 215.909C104.181 217.4 112.551 217.297 120.905 217.445C129.453 217.596 138.012 217.496 146.562 217.514C151.418 217.524 156.316 217.736 161.155 217.306C161.727 217.256 162.17 217.04 162.486 216.734C162.574 221.848 162.736 226.959 162.959 232.068C162.645 231.936 162.302 231.855 161.946 231.834C151.021 231.196 140.096 230.616 129.159 230.263C118.23 229.909 107.287 229.489 96.3523 229.621C91.016 229.685 85.3731 229.346 80.1101 230.501C82.1102 228.39 84.1532 226.317 86.2902 224.333C89.4058 221.44 92.7305 218.731 95.9394 215.909M102.236 209.89C102.247 209.877 102.252 209.863 102.261 209.851C102.29 209.872 102.327 209.887 102.374 209.886C110.089 209.714 118.744 212.132 125.959 208.421C129.18 206.764 131.848 204.146 134.438 201.629C134.439 201.648 134.441 201.666 134.442 201.685C134.459 201.889 134.546 202.135 134.754 202.226C135.605 202.597 136.602 202.621 137.516 202.753C138.567 202.905 139.599 202.994 140.659 203.057C142.996 203.197 145.334 203.344 147.672 203.476C150.004 203.607 152.348 203.617 154.684 203.675C157.026 203.733 159.48 204.015 161.799 203.683C162.011 203.652 162.201 203.586 162.369 203.494C162.372 206.474 162.4 209.453 162.428 212.431C162.432 212.917 162.442 213.402 162.447 213.887C162.134 213.602 161.704 213.403 161.155 213.355C156.856 212.979 152.524 213.146 148.209 213.16C143.973 213.174 139.736 213.188 135.499 213.202C126.944 213.231 118.396 213.313 109.842 213.475C105.683 213.554 101.542 213.902 97.4429 214.57C99.1024 213.068 100.716 211.522 102.236 209.89M35.2043 264.068C33.6249 264.548 32.0571 264.34 30.4746 264.669C30.3773 264.689 30.2875 264.726 30.2052 264.776C25.4664 262.764 22.3077 258.728 20.1459 254.204C17.8673 249.436 16.2966 244.34 15.2445 239.173C13.0752 228.521 13.0714 217.477 14.1942 206.701C15.2975 196.114 17.4819 185.585 20.5992 175.403C22.7395 168.412 25.4671 161.349 29.2545 154.975C33.6277 157.886 37.0193 162.078 40.2144 166.175C44.0323 171.071 47.473 176.252 50.5527 181.636C50.2343 182.558 50.1848 183.715 50.0321 184.539C49.7377 186.129 49.4719 187.738 49.2628 189.341C48.8162 192.768 48.3877 196.196 47.9311 199.622C47.0282 206.395 45.9502 213.149 44.7592 219.878C44.6628 220.424 44.8169 220.884 45.1005 221.23C42.7384 222.467 40.4072 223.759 38.1358 225.159C33.1422 228.238 28.4753 231.824 24.8112 236.424C24.716 236.543 24.8652 236.703 24.983 236.595C32.8405 229.382 42.6024 224.853 52.1868 220.377C57.0847 218.09 61.9586 215.766 66.6578 213.091C71.572 210.295 76.2584 207.135 80.7503 203.711C85.8794 199.801 90.7075 195.526 95.2335 190.939C95.7666 190.399 95.6375 189.722 95.2363 189.294C95.3719 189.253 95.4812 189.136 95.4883 188.94C95.5969 185.945 96.5022 183.393 98.2746 180.969C99.9188 178.72 102.014 176.866 103.905 174.832C104.745 173.927 105.547 172.985 106.264 171.98C107.002 170.946 107.452 169.804 108.094 168.723C108.844 167.46 109.482 168.105 109.83 169.249C110.224 170.545 110.2 172.062 110.041 173.394C109.874 174.804 109.442 176.178 108.819 177.452C108.235 178.649 107.561 179.866 107.954 181.238C108.601 183.493 111.373 184.798 113.472 185.306C115.811 185.871 118.256 185.761 120.624 185.468C123.589 185.101 126.54 184.563 129.471 183.991C132.865 183.329 136.239 182.565 139.587 181.702C141.16 181.296 142.723 180.762 144.312 180.426C144.879 180.306 145.927 180.127 146.593 180.42C138.034 185.489 128.703 188.866 119.225 191.809C118.048 192.175 118.531 193.941 119.736 193.649C129.917 191.175 139.496 186.585 148.613 181.557C148.752 181.48 148.871 181.361 148.958 181.22C149.875 180.899 150.807 180.621 151.758 180.391C152.183 180.289 154.369 179.572 154.642 179.847C155.029 180.237 153.689 181.503 153.354 181.872C150.972 184.494 148.138 186.634 145.071 188.403C141.96 190.197 138.649 191.628 135.323 192.978C131.597 194.49 127.659 195.678 124.037 197.417C122.599 198.107 123.608 200.453 125.124 199.977C127.077 199.364 128.975 198.463 130.874 197.697C132.486 197.047 134.099 196.397 135.702 195.725C136.82 195.256 137.931 194.772 139.03 194.265C137.383 195.805 135.736 197.345 134.089 198.886C131.237 201.553 128.528 204.592 125.041 206.463C121.597 208.312 117.667 208.527 113.833 208.487C111.908 208.467 109.992 208.406 108.067 208.483C106.041 208.564 104.242 208.873 102.323 209.507C102.287 209.519 102.262 209.54 102.24 209.564C102.173 209.482 102.059 209.442 101.941 209.511C96.7247 212.575 91.9696 216.55 87.3965 220.479C82.6832 224.529 78.2482 228.835 74.0224 233.383C69.9777 237.737 65.9653 242.107 61.564 246.113C57.2666 250.024 52.6742 253.575 47.8788 256.862C45.2659 258.653 42.5885 260.378 39.8182 261.92C38.3378 262.743 36.8343 263.573 35.2043 264.068M35.6429 146.188C37.511 144.103 39.5217 142.171 41.6492 140.383C42.588 140.659 43.5734 140.736 44.5664 140.747C46.0817 140.762 47.6002 140.824 49.1155 140.809C52.0331 140.779 54.9496 140.688 57.8679 140.672C63.8349 140.64 69.8038 140.638 75.7708 140.689C76.5526 140.696 77.1166 140.364 77.4647 139.882C78.6726 141.242 79.9176 142.571 81.1728 143.879C83.2123 146.005 85.3865 148.032 87.701 149.88C87.2504 149.883 86.8 149.887 86.3519 149.884C84.288 149.87 82.2238 149.858 80.1601 149.847C76.0183 149.824 71.8765 149.807 67.7347 149.796C59.5005 149.774 51.2407 149.843 43.0172 150.262C40.7348 150.378 38.4344 150.425 36.16 150.646C34.9264 150.766 33.6942 150.905 32.4618 151.036C32.2096 151.063 31.9677 151.096 31.7304 151.134C32.9374 149.411 34.2375 147.756 35.6429 146.188M68.6216 127.605C68.5659 127.642 68.5058 127.676 68.4526 127.716C68.3314 127.806 68.3505 127.97 68.4933 128.025C68.6833 128.098 68.8829 128.154 69.0885 128.198C69.7126 129.098 70.2002 130.209 70.5408 130.773C71.5191 132.392 72.6441 133.934 73.7886 135.44C74.0187 135.742 74.2532 136.041 74.4886 136.339C68.9463 136.326 63.4069 136.354 57.8679 136.563C54.9517 136.672 52.0256 136.764 49.1155 136.982C47.9189 137.071 46.723 137.221 45.5302 137.37C51.7383 132.911 58.7199 129.507 65.9526 126.979C65.9427 126.99 65.9325 126.998 65.9226 127.009C65.7633 127.185 66.0011 127.412 66.1805 127.265C67.1214 126.492 67.938 126.855 68.6216 127.605M96.6255 180.011C96.4681 180.249 96.3132 180.493 96.1621 180.744C95.7987 180.384 95.291 180.143 94.637 180.123C87.3765 179.898 80.1196 179.702 72.8551 179.697C69.2726 179.694 65.6575 179.574 62.0795 179.75C60.2828 179.839 58.4868 179.944 56.6911 180.046C55.4356 180.116 54.1018 180.204 52.8757 180.565C50.05 175.655 46.9132 170.934 43.4877 166.42C51.2598 167.367 59.1652 167.266 66.9814 167.529C75.837 167.827 84.6976 167.891 93.5563 168.1C95.9863 168.157 98.4163 168.22 100.846 168.287C102.1 168.322 103.354 168.358 104.608 168.396C105 168.407 105.405 168.418 105.812 168.408C105.781 168.471 105.75 168.534 105.719 168.596C105.036 169.999 104.176 171.29 103.174 172.489C101.044 175.037 98.4707 177.232 96.6255 180.011M87.1005 195.137C86.8316 194.395 86.1763 193.823 85.1325 193.871C79.1836 194.139 73.2237 194.325 67.2817 194.714C64.3871 194.904 61.4808 195.031 58.591 195.283C57.1005 195.413 55.6126 195.654 54.1284 195.846C53.1109 195.978 52.0456 196.131 51.0696 196.49C51.2589 194.414 51.4257 192.337 51.5707 190.256C51.6869 188.585 51.7222 186.898 51.7133 185.222C51.7088 184.374 51.6798 183.521 51.6386 182.673C51.7262 182.691 51.8142 182.699 51.9004 182.689C52.0527 182.67 52.1948 182.652 52.3268 182.617C53.6945 183.149 55.2425 183.266 56.6911 183.369C58.4093 183.491 60.127 183.62 61.8452 183.742C65.501 184.001 69.1912 183.984 72.855 184.103C80.0674 184.336 87.2813 184.472 94.4951 184.664C94.1604 186.091 94.1486 187.556 94.6843 188.937C94.3112 188.814 93.8816 188.872 93.5148 189.232C91.437 191.271 89.2971 193.238 87.1005 195.137M66.1159 210.308C65.9691 209.905 65.6919 209.534 65.3638 209.283C64.1024 208.317 61.7997 208.873 60.2856 208.946C58.4932 209.034 56.7005 209.121 54.9081 209.208C54.3641 209.234 51.5876 209.375 49.5484 209.807C49.9699 206.645 50.3522 203.479 50.6939 200.306C50.7656 199.64 50.832 198.974 50.8978 198.308C51.8585 198.615 52.9026 198.727 53.8934 198.774C55.3783 198.844 56.87 198.963 58.3562 198.987C61.3257 199.033 64.3117 198.887 67.2816 198.838C72.6299 198.75 77.979 198.496 83.3249 198.287C77.9575 202.615 72.2861 206.565 66.3702 210.157C66.2858 210.209 66.2003 210.257 66.1159 210.308M49.2234 212.184C49.6752 212.244 50.1233 212.263 50.466 212.298C52.1865 212.47 53.8802 212.627 55.6095 212.652C57.3241 212.677 59.0386 212.702 60.7532 212.727C61.1178 212.732 61.4824 212.737 61.8471 212.742C57.3322 215.193 52.6787 217.387 48.0909 219.698C48.4951 217.197 48.8725 214.693 49.2234 212.184M98.4201 156.39C108.709 160.734 121.907 161.128 130.749 153.912C131.628 154.151 132.6 154.23 133.376 154.308C135.119 154.482 136.846 154.642 138.598 154.696C142.012 154.802 145.429 154.961 148.844 155.003C155.753 155.087 162.663 155.127 169.573 155.188C170.161 155.193 170.631 155.015 170.988 154.729C171.688 155.908 172.339 157.116 172.933 158.355C173.8 160.162 174.534 162.03 175.137 163.939C175.008 163.917 174.874 163.902 174.73 163.899C165.649 163.743 156.562 164.003 147.48 164.04C138.396 164.078 129.313 164.039 120.229 164.104C117.715 164.122 115.219 164.122 112.712 164.307C111.407 164.404 110.086 164.446 108.794 164.655C108.649 164.678 108.502 164.699 108.354 164.72C106.622 163.714 104.472 163.924 102.492 163.887C100.219 163.844 97.9456 163.806 95.6726 163.773C91.2048 163.707 86.7366 163.659 82.2683 163.629C73.4004 163.568 64.5542 163.793 55.692 164.1C51.2827 164.253 46.8901 164.512 42.5376 165.186C42.2453 164.81 41.9559 164.433 41.6599 164.06C38.5758 160.176 34.9198 155.205 29.8449 154.001C30.0396 153.686 30.2371 153.373 30.4376 153.062C33.9537 153.983 37.8325 153.936 41.4249 154.129C45.5657 154.351 49.6979 154.505 53.8437 154.606C62.0847 154.807 70.324 154.933 78.5666 155.058C80.8542 155.092 83.1418 155.129 85.4294 155.167C86.6633 155.187 87.8974 155.211 89.1314 155.229C89.8208 155.24 90.4372 155.238 91.094 155.011C91.7024 154.8 92.2954 154.484 92.8837 154.223C93.0889 154.131 93.2558 153.996 93.392 153.837C95.0075 154.796 96.6814 155.656 98.4201 156.39M138.626 141.945C139.921 142.302 141.256 142.361 142.624 142.463C144.42 142.599 146.212 142.621 148.013 142.633C150.884 142.651 153.755 142.631 156.625 142.553C157.858 142.519 158.579 141.699 158.792 140.76C158.822 140.784 158.853 140.807 158.882 140.832C162.376 143.691 165.541 146.962 168.223 150.582C161.764 150.602 155.303 150.606 148.844 150.649C145.429 150.672 142.012 150.811 138.598 150.899C136.923 150.941 135.273 151.079 133.605 151.237C133.572 151.24 133.537 151.243 133.503 151.246C133.68 151.043 133.855 150.838 134.027 150.627C136.02 148.172 137.66 145.148 138.626 141.945M180.624 270.783C181.194 269.225 180.972 267.554 180.94 265.916C180.907 264.235 180.889 262.555 180.883 260.874C180.872 257.588 180.85 254.302 180.813 251.016C180.739 244.368 180.662 237.715 180.399 231.072C179.878 217.938 178.876 204.837 177.24 191.791C176.444 185.449 175.457 179.122 174.118 172.869C174.137 172.844 174.155 172.818 174.174 172.793C175.508 171.022 177.025 169.385 178.335 167.602C178.451 167.444 178.5 167.241 178.499 167.036C178.547 167.013 178.595 166.989 178.643 166.961C179.73 166.346 178.749 164.67 177.662 165.293C177.787 165.221 175.982 160.619 175.791 160.156C175.104 158.491 174.332 156.864 173.461 155.286C172.935 154.335 172.372 153.403 171.783 152.489C171.68 151.806 171.309 151.173 170.671 150.835C169.552 149.242 168.343 147.711 167.055 146.252C161.78 140.281 155.191 135.46 147.993 132.027C146.953 131.531 145.882 131.117 144.814 130.684C143.678 130.223 142.625 129.619 141.505 129.135C139.684 128.347 137.885 128.392 136.096 129.227C135.943 129.298 136.052 129.532 136.208 129.491C137.36 129.193 138.54 129.143 139.695 129.467C140.826 129.785 141.687 130.486 142.675 131.072C144.436 132.115 146.404 132.795 148.209 133.769C150.595 135.057 152.927 136.472 155.158 138.025C152.847 138.146 150.534 138.234 148.22 138.295C146.501 138.34 144.784 138.348 143.068 138.447C141.846 138.518 140.576 138.498 139.355 138.694C139.65 136.683 139.65 134.655 139.282 132.697C139.282 132.696 139.282 132.695 139.282 132.695C139.193 132.223 139.086 131.754 138.953 131.291C138.671 130.306 137.767 130.159 137.111 130.531C137.046 130.484 136.98 130.437 136.917 130.386C136.131 129.752 135.424 128.993 134.809 128.196C133.53 126.539 132.497 124.621 131.715 122.688C130.923 120.731 130.361 118.682 129.811 116.647C129.536 115.627 129.237 114.612 128.956 113.592C128.712 112.706 128.534 111.727 128.086 110.919C128.002 110.768 127.749 110.797 127.708 110.969C127.471 111.98 127.596 113.134 127.64 114.165C127.688 115.31 127.754 116.445 127.908 117.581C128.226 119.938 128.738 122.256 129.56 124.495C130.348 126.642 131.388 128.645 132.8 130.454C133.739 131.655 135.071 133.246 136.615 133.894C136.817 136.149 136.793 138.407 136.257 140.64C135.556 143.563 134.213 146.341 132.367 148.722C128.498 153.713 122.511 156.533 116.265 157.114C109.804 157.715 103.191 156.279 97.3849 153.456C90.9267 150.315 85.5692 145.47 80.7571 140.24C77.983 137.225 75.1066 134.259 72.5357 131.069C72.0801 130.504 71.3509 129.356 70.4859 128.322C71.3662 128.314 72.2696 128.184 73.0488 128.084C74.6609 127.879 76.2365 127.56 77.8119 127.162C80.7573 126.418 83.8633 125.383 86.437 123.745C91.8832 120.278 94.0091 115.881 94.7353 109.824C94.9648 107.908 91.6319 107.443 91.3215 109.364C90.8447 112.317 90.1232 113.754 89.1746 116.591C88.2622 119.317 86.9407 120.333 84.4148 121.835C82.0435 123.247 79.3486 124.066 76.7362 124.913C75.2886 125.382 73.8238 125.81 72.3639 126.242C71.4346 126.517 70.3313 126.756 69.3885 127.18C68.8966 126.751 68.3835 126.428 67.8669 126.306C67.9048 126.242 67.8556 126.143 67.7604 126.162C67.6086 126.192 67.4573 126.226 67.3055 126.257C67.153 126.268 67.0012 126.298 66.8496 126.352C57.7505 128.31 49.0125 132.478 41.6028 138.158C41.2293 138.312 40.8679 138.502 40.5241 138.742C40.3471 138.866 40.2297 139.062 40.196 139.265C39.0821 140.168 38.0012 141.106 36.9569 142.076C28.546 149.892 23.2168 160.289 19.486 170.983C15.8109 181.519 13.3231 192.567 11.9552 203.628C10.5606 214.903 10.3998 226.413 12.4225 237.624C13.5086 243.644 15.2669 249.56 17.8621 255.113C20.1926 260.1 23.9861 265.781 29.9443 266.388C29.9634 266.407 29.9813 266.427 30.0028 266.445C32.3406 268.357 35.8213 267.036 38.2654 265.894C38.6529 265.712 39.0373 265.522 39.4201 265.327C39.2179 266.1 39.1266 266.91 39.0845 267.669C38.9965 269.245 41.2335 269.334 41.657 268.026C45.2831 268.66 49.0276 268.669 52.6952 268.648C56.7931 268.626 60.8897 268.485 64.983 268.293C73.1044 267.913 81.2162 267.331 89.3431 267.067C105.799 266.532 122.299 267.675 138.741 268.252C143.354 268.413 147.966 268.575 152.579 268.737C157.292 268.902 162 268.933 166.674 269.566C168.393 269.799 169.052 268.126 168.567 267.083C168.688 266.382 168.567 265.615 168.501 264.79C168.378 263.248 168.261 261.706 168.152 260.163C167.938 257.156 167.732 254.147 167.536 251.138C167.14 245.04 166.799 238.938 166.467 232.837C165.807 220.706 165.302 208.566 164.931 196.422C164.84 193.463 164.722 190.502 164.572 187.544C164.75 187.264 164.928 186.983 165.099 186.699C165.67 185.752 166.231 184.799 166.809 183.857C167.97 181.967 169.138 180.09 170.358 178.238C171.412 176.639 172.5 175.064 173.636 173.522C175.046 185.355 176.3 197.201 176.875 209.11C177.509 222.226 177.845 235.363 178.028 248.493C178.079 252.162 178.114 255.83 178.153 259.499C178.174 261.409 178.194 263.318 178.178 265.228C178.163 267.055 177.885 269.054 178.538 270.783C178.918 271.791 180.248 271.809 180.624 270.783Z" fill="black"/>
<path fill-rule="evenodd" clip-rule="evenodd" d="M145.443 39.8923C138.36 30.2057 125.317 27.42 114.006 29.776C91.8937 33.7807 70.7675 50.5419 66.8604 73.3369C60.7648 87.1273 64.6573 108.849 82.385 110.471C84.9089 110.613 87.4088 110.036 89.9372 110.347C105.368 112.796 123.603 123.28 137.263 110.917C137.947 111.404 138.849 111.639 139.617 111.345C145.431 109.112 145.704 102.655 146.2 97.3462C146.84 90.4872 147.44 83.6244 148.001 76.7588C148.201 64.9187 152.924 50.1232 145.443 39.8923V39.8923Z" fill="white"/>
<path fill-rule="evenodd" clip-rule="evenodd" d="M102.572 15.2089C111.882 14.7171 129.036 18.9537 137.158 23.9207C150.391 32.0133 151.417 48.1565 150.877 50.9478C150.672 52.013 150.017 52.9989 148.992 52.6713C149.862 60.0052 149.793 64.1971 149.939 71.5734L150.04 76.4981C150.105 79.7813 150.161 83.0648 150.175 86.3493C150.51 86.2254 150.84 86.3774 150.962 86.6961C150.993 86.7733 150.887 86.8155 150.835 86.771C150.246 86.2603 150.665 87.4241 150.868 87.6608C151.148 87.9863 151.615 88.2931 151.943 88.5718L152.832 89.3371V89.3371L153.722 90.1009C154.872 91.0862 155.983 92.0734 157.056 93.1347L157.347 93.4261C159.301 95.3978 161.75 97.306 162.966 99.8564C164.128 102.292 163.77 105.052 161.839 106.994C161.137 107.698 160.317 108.237 159.426 108.645C161.012 111.239 161.243 114.67 159.589 117.339C157.932 120.018 154.745 121.421 151.676 121.206C151.582 121.587 151.436 121.96 151.243 122.313C150.026 124.535 147.605 124.823 145.31 124.704L145.221 124.699C140.054 124.404 135.084 123.119 130.558 120.62C128.989 120.726 127.589 119.444 127.282 118.039C126.457 118.009 125.628 117.941 124.782 117.845C122.271 117.557 119.698 117.021 117.485 115.754C117.145 115.56 117.303 115.047 117.68 115.037C120.377 114.976 123.075 115.162 125.767 114.871C128.237 114.606 130.87 113.93 133.172 113.01C137.311 111.352 140.86 108.539 142.819 104.643C145.355 99.5986 145.124 93.5408 145.4 88.0613C145.705 81.9958 146.081 75.9361 146.484 69.8769L146.679 66.9724C147.069 61.3112 147.392 58.2827 148.381 52.4067C145.4 52.6713 133.015 48.2423 129.163 40.9977C121.853 56.4095 84.8175 50.1021 83.175 73.8285C83.161 74.0297 82.8403 73.9736 82.8285 73.7814L82.7979 73.2407C82.7831 72.9735 82.7697 72.7105 82.7606 72.4496L82.7531 72.1893L82.1709 72.1963C82.1709 72.2687 82.0672 72.2947 82.0413 72.2174C81.4921 70.6693 78.8759 71.1681 77.7376 71.5359C76.7123 71.8682 75.746 72.3787 74.8786 73.0089C73.1369 74.2734 71.7863 75.9758 71.3385 78.1042C70.4877 82.1462 73.0779 86.2629 76.5167 88.2135C78.685 89.4429 81.0608 90.2367 83.1396 91.63C84.9756 92.8594 86.6868 94.2995 88.1693 95.9364C94.0427 102.421 97.4979 112.256 94.7191 120.815C94.507 121.468 93.9461 122.215 93.2036 122.32C91.9757 122.496 90.7477 122.318 90.0595 121.156C89.7908 120.702 89.6636 120.185 89.6918 119.674C89.2157 121.299 87.672 122.906 86.2484 123.51C84.3086 124.334 82.1238 124.088 80.4127 123.025L80.1965 123.184C77.4138 125.219 74.3052 127.074 70.7399 126.699C68.1567 126.428 65.6206 125.121 64.1924 123.06C62.2927 124.121 60.2634 124.966 58.1704 125.542L57.9477 125.603C55.0682 126.382 51.3952 127.096 48.7074 125.514C46.1266 123.994 45.2687 120.676 45.8744 117.906C45.9475 117.576 46.0394 117.255 46.1525 116.944C44.2104 117.047 42.2707 116.862 40.4276 116.295C38.5444 115.716 36.7484 114.604 35.8457 112.801C34.8275 110.761 35.0986 108.443 35.8575 106.366C37.0713 103.034 39.0228 100.069 41.4528 97.4866C43.7896 95.0008 46.6084 92.892 49.5378 91.1341L50.0317 90.8405C52.6687 89.2778 55.8488 87.4467 58.9647 87.5672C58.9553 87.5274 58.9482 87.4897 58.9435 87.4501C58.4721 84.0008 58.5263 80.4836 58.4156 77.0061C58.3142 73.8074 58.1987 70.6086 58.1233 67.4075C58.0007 61.9652 58.0408 56.4999 58.755 51.0953C59.389 46.2995 60.5297 41.6229 62.6109 37.2322C64.7957 32.6193 68.086 28.683 72.1493 25.5872C80.6766 19.089 91.9403 15.7709 102.572 15.2089ZM73.6082 79.13C74.5368 77.3901 76.651 76.8421 78.5059 77.1559C81.1056 77.5962 82.8732 79.8538 84.3911 81.7951C85.9844 83.8298 82.6611 85.7476 81.8056 83.7761L81.6028 83.3104C80.9162 81.7468 80.1052 80.0982 78.7039 79.0785C77.2143 77.9966 75.1119 77.8374 73.7968 79.2752C73.7025 79.3805 73.5446 79.2447 73.6082 79.13Z" fill="black"/>
<path fill-rule="evenodd" clip-rule="evenodd" d="M112.57 87.8739C116.61 87.3867 120.526 88.6157 124.476 89.2352C126.561 89.562 128.649 89.8061 130.759 89.8969C131.184 89.9153 131.609 89.926 132.033 89.9347C132.073 89.5632 132.282 89.2221 132.736 89.0177C133.665 88.5991 134.409 88.4103 135.43 88.4507C136.364 88.4873 137.301 88.5828 138.221 88.7501C139.891 89.0543 141.569 89.7447 142.791 90.9443C145.618 93.7199 145.188 98.1783 143.003 101.202C138.489 107.449 130.251 107.738 123.194 107.657L122.543 107.649C116.118 107.557 106.927 108.509 104.008 101.247C102.934 98.5759 103.083 95.4804 104.398 92.9189C105.965 89.8637 109.265 88.2724 112.57 87.8739ZM132.638 98.2754L132.581 98.2777C129.619 98.3911 126.657 98.4709 123.693 98.5229C123.782 99.2791 123.872 100.036 123.976 100.79C124.057 101.384 124.144 101.977 124.234 102.57C124.273 102.82 124.413 103.21 124.374 103.458L124.359 103.556V103.556C124.512 103.625 124.65 103.735 124.752 103.895C124.788 103.95 124.814 104.006 124.84 104.061C127.141 104.079 129.617 104.035 131.963 103.619L131.968 103.569V103.569C132.01 103.271 132.135 103.071 132.3 102.933C132.465 101.984 132.45 100.972 132.514 100.03C132.554 99.445 132.597 98.8603 132.638 98.2754ZM121.429 98.563C119.294 98.5991 117.158 98.6269 115.024 98.601L114.055 98.5861V98.5861C114.259 99.6769 114.482 100.764 114.667 101.862C114.86 103.007 113.846 103.734 112.969 103.705C113.067 103.721 113.166 103.737 113.264 103.751C116.006 104.136 118.853 104.034 121.635 104.031C121.485 103.163 121.546 102.184 121.523 101.459L121.519 101.347C121.476 100.418 121.447 99.4908 121.429 98.563ZM106.927 98.3629C107.001 98.9301 107.145 99.4852 107.361 100.002C108.272 102.185 110.362 103.204 112.572 103.633C112.189 103.502 111.884 103.186 111.807 102.644C111.616 101.298 111.547 99.9287 111.542 98.5614C110.001 98.5472 108.45 98.5145 106.927 98.3629ZM140.673 97.8967C139.576 98.1538 138.301 98.036 137.225 98.0845C136.217 98.13 135.208 98.1697 134.2 98.2103C134.248 98.8941 134.294 99.5778 134.344 100.261C134.409 101.145 134.415 102.078 134.585 102.958C136.615 102.27 138.433 101.166 139.797 99.4019C140.137 98.9623 140.441 98.4464 140.673 97.8967ZM112.106 91.4564C110.28 91.886 108.552 92.7934 107.623 94.4535C107.072 95.4386 106.829 96.6062 106.876 97.7567C108.419 97.5782 109.989 97.5105 111.551 97.4545C111.557 97.175 111.563 96.8958 111.572 96.6172L111.596 95.903C111.638 94.541 111.66 92.8306 112.106 91.4564ZM121.557 91.6225L120.753 91.5328C118.521 91.2801 116.289 91.0148 114.056 91.1668C113.733 91.189 113.405 91.224 113.076 91.2718C113.471 92.6867 113.438 94.3485 113.603 95.7491C113.666 96.2907 113.747 96.8278 113.836 97.3628L114.223 97.3449V97.3449C116.619 97.2158 119.017 97.1365 121.415 97.042C121.415 96.5947 121.417 96.1472 121.425 95.6994L121.433 95.2517C121.461 94.1082 121.386 92.82 121.557 91.6225ZM132.769 91.441C130.43 91.816 128.014 91.8958 125.717 91.8986C124.799 91.8997 123.882 91.8437 122.966 91.763C123.025 92.2479 123.056 92.7383 123.101 93.2164C123.192 94.1826 123.295 95.1472 123.408 96.111L123.508 96.9543V96.9543C126.455 96.8215 129.402 96.678 132.348 96.5294L132.764 96.5072V96.5072L132.881 94.8866C132.96 93.8059 133.047 92.7254 133.171 91.6496L133.078 91.6165V91.6165C132.97 91.5722 132.866 91.511 132.769 91.441ZM133.784 91.8433C133.913 93.3713 133.985 94.9057 134.079 96.4363L136.022 96.3332C136.345 96.3157 136.669 96.2978 136.993 96.2793C138.252 96.2072 139.869 95.8285 141.113 96.1817C141.208 95.0578 140.885 93.9628 139.864 93.2078C138.072 91.8815 135.789 92.3538 133.784 91.8433ZM127.148 78.1833C130.04 76.5376 137.298 74.8556 137.757 80.0272C137.969 82.407 136.188 84.3789 134.108 85.2588L134.03 85.2913C132.08 86.088 128.623 86.9876 126.935 85.2602C125.531 83.8224 127.394 81.2444 129.139 82.4223C130.036 83.0274 131.924 82.5815 132.925 82.2936L132.988 82.2755C134.068 81.96 135.508 80.9505 135.062 79.6291C134.666 78.4601 132.985 78.2466 131.931 78.2086C130.359 78.1527 128.829 78.5154 127.271 78.6334C127.024 78.6521 126.948 78.2971 127.148 78.1833ZM139.129 69.8674C143.055 69.6847 145.497 73.9433 144.594 77.4327C144.438 78.0347 143.761 78.6258 143.106 78.5581L142.941 78.543C142.858 78.535 142.774 78.5245 142.696 78.5033C142.075 78.3323 141.518 77.6903 141.563 77.0247L141.575 76.8308C141.667 75.1825 141.487 73.2834 139.515 72.8842C137.843 72.5456 136.909 74.1447 136.89 75.6167C136.886 75.878 136.59 76.0604 136.358 75.9199C135.149 75.1891 134.94 73.7351 135.401 72.483C135.987 70.8965 137.451 69.9453 139.129 69.8674ZM109.997 70.7807C112.854 69.8337 115.936 71.3467 117.319 73.8561C117.805 73.9956 118.289 74.3673 118.222 74.9363C118.125 75.7549 117.978 76.271 117.407 76.8918C116.513 77.863 114.839 77.3664 114.468 76.171L114.452 76.117C114.03 74.5717 112.318 73.5521 110.759 74.093C108.937 74.7248 108.99 76.6366 107.712 77.7503C107.562 77.8812 107.382 77.902 107.201 77.8156C105.844 77.1639 106.088 75.2025 106.572 74.0799C107.207 72.6068 108.44 71.2966 109.997 70.7807ZM106.107 62.1616C108.422 59.8147 114.458 57.5437 116.042 61.8775C116.343 62.703 115.701 63.816 114.836 63.9872C113.42 64.2672 112.163 63.6563 110.756 63.7659C109.617 63.8551 108.429 64.2333 107.518 64.9344C104.996 66.8761 104.441 70.1603 102.683 72.6318C102.598 72.7521 102.431 72.7015 102.416 72.5596C102.015 68.9616 103.571 64.7318 106.107 62.1616ZM136.298 59.8513C137.834 59.3122 139.573 59.3584 141.118 59.8365C142.673 60.3184 144.101 61.2336 145.202 62.4293C145.701 62.9721 146.163 63.5711 146.533 64.2087C146.73 64.5466 146.937 65.2447 147.161 65.6603C148.371 66.3545 148.888 67.9363 147.805 69.0617L147.756 69.111L147.611 69.2539C147.028 69.8267 146.15 70.0749 145.355 69.8461C143.576 69.3347 143.36 67.9425 142.744 66.4649C142.337 65.4889 141.64 64.6253 140.795 63.9909C138.798 62.4922 135.524 62.0148 133.12 62.721C132.992 62.7587 132.841 62.5967 132.933 62.4791C133.388 61.8928 133.651 61.4116 134.261 60.9385C134.88 60.4585 135.556 60.1117 136.298 59.8513Z" fill="black"/>
<path fill-rule="evenodd" clip-rule="evenodd" d="M143.79 60.5986C149.322 60.5986 152.479 61.7806 153.636 61.8727L153.67 61.8752C154.152 61.9058 154.583 61.9457 155.036 62.1197C156.701 62.7569 156.973 64.4922 156.001 65.5859C155.933 67.8488 156.232 70.4929 155.718 72.7631C155.084 82.3339 150.554 83.949 147.979 84.5385C146.686 84.8345 145.154 84.9523 143.781 84.6398C141.438 84.5531 139.122 83.8244 137.14 82.5556C134.38 80.7871 132.331 78.069 131.666 74.8431C131.35 73.3055 131.203 71.705 131.375 70.142L131.4 69.9267C130.503 69.5004 129.463 69.4197 128.392 69.3821C127.88 69.364 127.375 69.3478 126.885 69.3694C126.406 69.4226 125.933 69.4933 125.458 69.5897C124.94 69.7452 124.45 70.0017 123.998 70.408L123.967 71.001C123.882 72.4824 123.686 73.9682 123.384 75.4216C122.938 77.566 122.221 79.614 120.695 81.1351C120.178 81.9017 119.539 82.5859 118.763 83.1785C115.944 85.3349 112.114 86.1266 108.599 85.8284C101.463 85.2234 97.3385 79.5952 96.3879 77.1896L96.3311 77.0438C95.6444 75.2553 95.0972 72.9348 92.9273 72.5506L92.4658 72.4682C91.4757 72.2835 90.562 72.0265 89.9815 71.0666C89.727 70.6476 89.5961 70.179 89.564 69.7012C89.2253 69.7271 88.887 69.7518 88.5499 69.7757C85.8611 70.3407 69.7333 70.8197 68.446 70.8197C68.446 70.8197 65.9714 71.8545 64.9267 71.0528C64.2025 70.4953 63.9643 69.7522 64.3629 68.9104C64.9644 67.6439 67.7393 66.8821 68.9715 66.6408C68.9715 66.6408 88.8556 66.8049 90.2867 66.5353C91.1722 65.6282 92.7561 65.7523 94.0796 65.6089C95.1752 64.8327 96.708 64.3128 97.9187 63.9648C98.1654 63.872 98.4098 63.7821 98.6473 63.6975C100.867 62.9121 103.174 62.4962 105.516 62.2728C107.932 62.0447 110.354 62.1479 112.755 62.4748C113.767 62.6112 114.77 62.7875 115.765 63.0182C117.547 63.2516 119.319 63.6361 121.102 64.0923L121.459 64.1844C123.337 64.6735 125.266 65.0965 127.21 64.765C128.792 64.4968 130.314 63.8918 131.773 63.2376L131.963 63.152C135.171 61.6967 140.18 60.5986 143.79 60.5986ZM115.572 65.9195C114.389 65.6609 113.883 67.474 115.07 67.7333C115.911 67.917 116.624 68.3383 117.105 69.052L117.156 69.1296C117.802 70.151 119.436 69.2081 118.785 68.1801C118.053 67.0232 116.916 66.213 115.572 65.9195ZM150.239 64.7953C149.822 64.5033 149.19 64.7201 148.948 65.1328C148.682 65.5872 148.856 66.0931 149.247 66.3904L149.287 66.4194C149.645 66.6704 149.995 67.1204 150.038 67.5814L150.042 67.6391C150.089 68.8455 151.976 68.8517 151.929 67.6391C151.883 66.4528 151.192 65.4617 150.239 64.7953Z" fill="black"/>
</g>
<path fill-rule="evenodd" clip-rule="evenodd" d="M145.443 39.6811C138.36 29.8976 125.317 27.084 114.006 29.4636C91.8937 33.5084 70.7675 50.4371 66.8604 73.4601C60.7648 87.3884 64.6573 109.327 82.385 110.966C84.9089 111.109 87.4088 110.526 89.9372 110.841C105.368 113.314 123.603 123.902 137.263 111.416C137.947 111.908 138.849 112.146 139.617 111.848C145.431 109.593 145.704 103.071 146.2 97.7095C146.84 90.7819 147.44 83.8505 148.001 76.9162C148.201 64.9577 152.924 50.0142 145.443 39.6811V39.6811Z" fill="white"/>
<path fill-rule="evenodd" clip-rule="evenodd" d="M102.572 14.7512C111.882 14.2546 129.036 18.5335 137.158 23.5502C150.391 31.7237 151.417 48.0283 150.877 50.8475C150.672 51.9234 150.017 52.9191 148.992 52.5883C149.862 59.9956 149.793 64.2293 149.939 71.6794L150.04 76.6533C150.105 79.9694 150.161 83.2857 150.175 86.603C150.51 86.4779 150.84 86.6314 150.962 86.9533C150.993 87.0314 150.887 87.0739 150.835 87.029C150.246 86.5132 150.665 87.6886 150.868 87.9277C151.148 88.2565 151.615 88.5663 151.943 88.8478L152.832 89.6208V89.6208L153.722 90.3922C154.872 91.3873 155.983 92.3844 157.056 93.4564L157.347 93.7506C159.301 95.7421 161.75 97.6694 162.966 100.245C164.128 102.705 163.77 105.493 161.839 107.454C161.137 108.166 160.317 108.71 159.426 109.121C161.012 111.742 161.243 115.207 159.589 117.903C157.932 120.609 154.745 122.026 151.676 121.808C151.582 122.193 151.436 122.57 151.243 122.926C150.026 125.17 147.605 125.462 145.31 125.342L145.221 125.337C140.054 125.038 135.084 123.74 130.558 121.217C128.989 121.323 127.589 120.029 127.282 118.61C126.457 118.58 125.628 118.511 124.782 118.414C122.271 118.123 119.698 117.581 117.485 116.302C117.145 116.106 117.303 115.588 117.68 115.578C120.377 115.517 123.075 115.704 125.767 115.41C128.237 115.143 130.87 114.46 133.172 113.53C137.311 111.856 140.86 109.015 142.819 105.079C145.355 99.9848 145.124 93.8665 145.4 88.3322C145.705 82.2061 146.081 76.0857 146.484 69.9659L146.679 67.0324C147.069 61.3146 147.392 58.2558 148.381 52.321C145.4 52.5883 133.015 48.115 129.163 40.798C121.853 56.3639 84.8175 49.9934 83.175 73.957C83.161 74.1603 82.8403 74.1037 82.8285 73.9095L82.7979 73.3634C82.7831 73.0935 82.7697 72.8279 82.7606 72.5644L82.7531 72.3015L82.1709 72.3086C82.1709 72.3816 82.0672 72.4079 82.0413 72.3298C81.4921 70.7663 78.8759 71.27 77.7376 71.6416C76.7123 71.9772 75.746 72.4928 74.8786 73.1292C73.1369 74.4064 71.7863 76.1258 71.3385 78.2755C70.4877 82.3579 73.0779 86.5158 76.5167 88.4859C78.685 89.7276 81.0608 90.5294 83.1396 91.9366C84.9756 93.1783 86.6868 94.6328 88.1693 96.286C94.0427 102.835 97.4979 112.768 94.7191 121.413C94.507 122.073 93.9461 122.827 93.2036 122.934C91.9757 123.111 90.7477 122.931 90.0595 121.758C89.7908 121.299 89.6636 120.777 89.6918 120.261C89.2157 121.902 87.672 123.525 86.2484 124.135C84.3086 124.968 82.1238 124.719 80.4127 123.645L80.1965 123.806C77.4138 125.861 74.3052 127.735 70.7399 127.356C68.1567 127.082 65.6206 125.762 64.1924 123.681C62.2927 124.753 60.2634 125.606 58.1704 126.188L57.9477 126.249C55.0682 127.036 51.3952 127.757 48.7074 126.159C46.1266 124.625 45.2687 121.273 45.8744 118.475C45.9475 118.142 46.0394 117.818 46.1525 117.503C44.2104 117.607 42.2707 117.421 40.4276 116.848C38.5444 116.264 36.7484 115.14 35.8457 113.32C34.8275 111.259 35.0986 108.918 35.8575 106.82C37.0713 103.454 39.0228 100.46 41.4528 97.8517C43.7896 95.3411 46.6084 93.2112 49.5378 91.4357L50.0317 91.1391C52.6687 89.5609 55.8488 87.7114 58.9647 87.8331C58.9553 87.7929 58.9482 87.7549 58.9435 87.7149C58.4721 84.2311 58.5263 80.6787 58.4156 77.1665C58.3142 73.9357 58.1987 70.705 58.1233 67.4719C58.0007 61.9752 58.0408 56.4552 58.755 50.9966C59.389 46.1528 60.5297 41.4294 62.6109 36.9949C64.7957 32.3358 68.086 28.3601 72.1493 25.2334C80.6766 18.6702 91.9403 15.3189 102.572 14.7512ZM73.6082 79.3116C74.5368 77.5543 76.651 77.0009 78.5059 77.3178C81.1056 77.7624 82.8732 80.0426 84.3911 82.0033C85.9844 84.0584 82.6611 85.9954 81.8056 84.0042L81.6028 83.5338C80.9162 81.9546 80.1052 80.2894 78.7039 79.2595C77.2143 78.1669 75.1119 78.006 73.7968 79.4582C73.7025 79.5646 73.5446 79.4275 73.6082 79.3116Z" fill="black"/>
<path fill-rule="evenodd" clip-rule="evenodd" d="M112.57 88.1428C116.61 87.6507 120.526 88.8919 124.476 89.5176C126.561 89.8478 128.649 90.0943 130.759 90.1859C131.184 90.2045 131.609 90.2154 132.033 90.2241C132.073 89.8489 132.282 89.5044 132.736 89.298C133.665 88.8752 134.409 88.6845 135.43 88.7253C136.364 88.7623 137.301 88.8587 138.221 89.0277C139.891 89.335 141.569 90.0323 142.791 91.2438C145.618 94.0472 145.188 98.5502 143.003 101.604C138.489 107.913 130.251 108.206 123.194 108.124L122.543 108.115C116.118 108.023 106.927 108.984 104.008 101.649C102.934 98.9517 103.083 95.8253 104.398 93.2382C105.965 90.1525 109.265 88.5453 112.57 88.1428ZM132.638 98.6482L132.581 98.6506C129.619 98.7651 126.657 98.8457 123.693 98.8983C123.782 99.662 123.872 100.426 123.976 101.188C124.057 101.788 124.144 102.387 124.234 102.985C124.273 103.239 124.413 103.632 124.374 103.883L124.359 103.982V103.982C124.512 104.051 124.65 104.162 124.752 104.324C124.788 104.38 124.814 104.436 124.84 104.492C127.141 104.51 129.617 104.465 131.963 104.046L131.968 103.995V103.995C132.01 103.694 132.135 103.491 132.3 103.353C132.465 102.394 132.45 101.372 132.514 100.421C132.554 99.8296 132.597 99.239 132.638 98.6482ZM121.429 98.9388C119.294 98.9752 117.158 99.0033 115.024 98.9771L114.055 98.9621V98.9621C114.259 100.064 114.482 101.162 114.667 102.271C114.86 103.427 113.846 104.161 112.969 104.132C113.067 104.148 113.166 104.165 113.264 104.179C116.006 104.568 118.853 104.465 121.635 104.461C121.485 103.585 121.546 102.596 121.523 101.864L121.519 101.75C121.476 100.813 121.447 99.8758 121.429 98.9388ZM106.927 98.7366C107.001 99.3095 107.145 99.8701 107.361 100.392C108.272 102.597 110.362 103.627 112.572 104.06C112.189 103.927 111.884 103.608 111.807 103.061C111.616 101.701 111.547 100.318 111.542 98.9371C110.001 98.9228 108.45 98.8898 106.927 98.7366ZM140.673 98.2657C139.576 98.5254 138.301 98.4064 137.225 98.4554C136.217 98.5014 135.208 98.5415 134.2 98.5825C134.248 99.2732 134.294 99.9637 134.344 100.654C134.409 101.546 134.415 102.489 134.585 103.377C136.615 102.682 138.433 101.568 139.797 99.786C140.137 99.342 140.441 98.821 140.673 98.2657ZM112.106 91.7611C110.28 92.1949 108.552 93.1114 107.623 94.7881C107.072 95.7831 106.829 96.9623 106.876 98.1243C108.419 97.9441 109.989 97.8757 111.551 97.8192C111.557 97.5368 111.563 97.2548 111.572 96.9734L111.596 96.2522C111.638 94.8765 111.66 93.149 112.106 91.7611ZM121.557 91.9289L120.753 91.8383C118.521 91.583 116.289 91.315 114.056 91.4686C113.733 91.491 113.405 91.5264 113.076 91.5747C113.471 93.0037 113.438 94.6821 113.603 96.0967C113.666 96.6437 113.747 97.1862 113.836 97.7265L114.223 97.7084V97.7084C116.619 97.5781 119.017 97.498 121.415 97.4025C121.415 96.9508 121.417 96.4987 121.425 96.0465L121.433 95.5943C121.461 94.4393 121.386 93.1383 121.557 91.9289ZM132.769 91.7455C130.43 92.1242 128.014 92.2048 125.717 92.2077C124.799 92.2088 123.882 92.1523 122.966 92.0707C123.025 92.5604 123.056 93.0558 123.101 93.5387C123.192 94.5145 123.295 95.4888 123.408 96.4622L123.508 97.3139V97.3139C126.455 97.1798 129.402 97.0349 132.348 96.8848L132.764 96.8624V96.8624L132.881 95.2255C132.96 94.134 133.047 93.0428 133.171 91.9562L133.078 91.9227V91.9227C132.97 91.878 132.866 91.8162 132.769 91.7455ZM133.784 92.1518C133.913 93.6951 133.985 95.2448 134.079 96.7907L136.022 96.6866C136.345 96.6689 136.669 96.6508 136.993 96.6321C138.252 96.5593 139.869 96.1768 141.113 96.5336C141.208 95.3985 140.885 94.2925 139.864 93.5299C138.072 92.1904 135.789 92.6674 133.784 92.1518ZM127.148 78.3553C130.04 76.6931 137.298 74.9942 137.757 80.2176C137.969 82.6212 136.188 84.6128 134.108 85.5015L134.03 85.5343C132.08 86.3389 128.623 87.2476 126.935 85.5029C125.531 84.0507 127.394 81.4469 129.139 82.6366C130.036 83.2477 131.924 82.7974 132.925 82.5066L132.988 82.4883C134.068 82.1697 135.508 81.1501 135.062 79.8155C134.666 78.6348 132.985 78.4191 131.931 78.3808C130.359 78.3243 128.829 78.6906 127.271 78.8098C127.024 78.8288 126.948 78.4702 127.148 78.3553ZM139.129 69.9561C143.055 69.7717 145.497 74.0728 144.594 77.5971C144.438 78.2052 143.761 78.8021 143.106 78.7338L142.941 78.7185C142.858 78.7105 142.774 78.6998 142.696 78.6784C142.075 78.5058 141.518 77.8573 141.563 77.1851L141.575 76.9892C141.667 75.3244 141.487 73.4063 139.515 73.0031C137.843 72.6611 136.909 74.2762 136.89 75.7629C136.886 76.0269 136.59 76.2111 136.358 76.0692C135.149 75.3311 134.94 73.8626 135.401 72.598C135.987 70.9956 137.451 70.0349 139.129 69.9561ZM109.997 70.8786C112.854 69.9222 115.936 71.4503 117.319 73.9847C117.805 74.1257 118.289 74.501 118.222 75.0757C118.125 75.9026 117.978 76.4239 117.407 77.0508C116.513 78.0317 114.839 77.5302 114.468 76.3228L114.452 76.2682C114.03 74.7075 112.318 73.6777 110.759 74.2241C108.937 74.8622 108.99 76.7931 107.712 77.9179C107.562 78.0501 107.382 78.0712 107.201 77.9839C105.844 77.3257 106.088 75.3447 106.572 74.2108C107.207 72.7229 108.44 71.3997 109.997 70.8786ZM106.107 62.1733C108.422 59.803 114.458 57.5093 116.042 61.8864C116.343 62.7201 115.701 63.8442 114.836 64.0171C113.42 64.3 112.163 63.6829 110.756 63.7936C109.617 63.8837 108.429 64.2657 107.518 64.9738C104.996 66.935 104.441 70.252 102.683 72.7482C102.598 72.8697 102.431 72.8187 102.416 72.6753C102.015 69.0413 103.571 64.7692 106.107 62.1733ZM136.298 59.8399C137.834 59.2954 139.573 59.342 141.118 59.825C142.673 60.3117 144.101 61.236 145.202 62.4436C145.701 62.9919 146.163 63.5969 146.533 64.2409C146.73 64.5822 146.937 65.2872 147.161 65.707C148.371 66.4081 148.888 68.0058 147.805 69.1424L147.756 69.1922L147.611 69.3365C147.028 69.915 146.15 70.1657 145.355 69.9347C143.576 69.4181 143.36 68.0121 142.744 66.5197C142.337 65.5339 141.64 64.6616 140.795 64.0209C138.798 62.5073 135.524 62.025 133.12 62.7383C132.992 62.7764 132.841 62.6127 132.933 62.494C133.388 61.9018 133.651 61.4158 134.261 60.938C134.88 60.4532 135.556 60.1029 136.298 59.8399Z" fill="black"/>
<path fill-rule="evenodd" clip-rule="evenodd" d="M143.79 60.5947C149.322 60.5947 152.479 61.7885 153.636 61.8815L153.67 61.884C154.152 61.9149 154.583 61.9553 155.036 62.131C156.701 62.7746 156.973 64.5273 156.001 65.6318C155.933 67.9174 156.232 70.5879 155.718 72.8809C155.084 82.5473 150.554 84.1786 147.979 84.774C146.686 85.073 145.154 85.192 143.781 84.8763C141.438 84.7887 139.122 84.0527 137.14 82.7712C134.38 80.9851 132.331 78.2398 131.666 74.9817C131.35 73.4287 131.203 71.8122 131.375 70.2336L131.4 70.0161C130.503 69.5855 129.463 69.504 128.392 69.466C127.88 69.4478 127.375 69.4314 126.885 69.4532C126.406 69.5069 125.933 69.5784 125.458 69.6757C124.94 69.8327 124.45 70.0918 123.998 70.5022L123.967 71.1011C123.882 72.5973 123.686 74.098 123.384 75.5659C122.938 77.7318 122.221 79.8003 120.695 81.3366C120.178 82.1108 119.539 82.8019 118.763 83.4004C115.944 85.5783 112.114 86.378 108.599 86.0768C101.463 85.4658 97.3385 79.7813 96.3879 77.3516L96.3311 77.2044C95.6444 75.398 95.0972 73.0543 92.9273 72.6662L92.4658 72.583C91.4757 72.3965 90.562 72.1368 89.9815 71.1674C89.727 70.7442 89.5961 70.2709 89.564 69.7883C89.2253 69.8144 88.887 69.8394 88.5499 69.8636C85.8611 70.4342 69.7333 70.918 68.446 70.918C68.446 70.918 65.9714 71.9632 64.9267 71.1534C64.2025 70.5903 63.9643 69.8399 64.3629 68.9896C64.9644 67.7104 67.7393 66.941 68.9715 66.6974C68.9715 66.6974 88.8556 66.8631 90.2867 66.5908C91.1722 65.6746 92.7561 65.8 94.0796 65.6551C95.1752 64.8712 96.708 64.3461 97.9187 63.9946C98.1654 63.9008 98.4098 63.8101 98.6473 63.7246C100.867 62.9314 103.174 62.5112 105.516 62.2856C107.932 62.0553 110.354 62.1595 112.755 62.4896C113.767 62.6274 114.77 62.8055 115.765 63.0385C117.547 63.2742 119.319 63.6626 121.102 64.1233L121.459 64.2164C123.337 64.7104 125.266 65.1376 127.21 64.8028C128.792 64.5319 130.314 63.9208 131.773 63.26L131.963 63.1736C135.171 61.7038 140.18 60.5947 143.79 60.5947ZM115.572 65.9688C114.389 65.7076 113.883 67.5388 115.07 67.8008C115.911 67.9863 116.624 68.4118 117.105 69.1326L117.156 69.211C117.802 70.2426 119.436 69.2903 118.785 68.252C118.053 67.0836 116.916 66.2652 115.572 65.9688ZM150.239 64.8334C149.822 64.5384 149.19 64.7574 148.948 65.1742C148.682 65.6331 148.856 66.1442 149.247 66.4444L149.287 66.4737C149.645 66.7272 149.995 67.1817 150.038 67.6473L150.042 67.7056C150.089 68.9241 151.976 68.9303 151.929 67.7056C151.883 66.5074 151.192 65.5064 150.239 64.8334Z" fill="black"/>
<defs>
<clipPath id="clip0_63_17742">
<rect y="35" width="200" height="200" rx="100" fill="white"/>
</clipPath>
</defs>
</svg>
