<svg width="474" height="251" viewBox="0 0 474 251" fill="none" xmlns="http://www.w3.org/2000/svg">
<g filter="url(#filter0_d_40_18452)">
<g clip-path="url(#clip0_40_18452)">
<rect x="7" y="5.23828" width="460" height="236.571" rx="8.7619" fill="white"/>
<path d="M33.981 40.3551C34.0772 43.2643 36.5266 45.0184 40.2059 45.0184C44.067 45.0184 46.4308 43.1146 46.4308 40.0984C46.4308 37.756 45.0082 36.4405 41.7461 35.788L40.1096 35.4565C38.2913 35.0928 37.5426 34.5046 37.5426 33.5526C37.5426 32.4189 38.6122 31.6702 40.2059 31.6702C41.8316 31.6702 42.9761 32.4617 43.083 33.7773H46.1313C46.0778 30.9429 43.8103 29.0605 40.2059 29.0605C36.7726 29.0605 34.3126 30.9322 34.3126 33.7559C34.3126 36.0554 35.8206 37.5314 38.901 38.1411L40.5267 38.462C42.4627 38.8577 43.19 39.4353 43.19 40.4514C43.19 41.5851 42.0134 42.4194 40.2914 42.4194C38.5373 42.4194 37.2325 41.6493 37.0293 40.3551H33.981ZM55.736 41.2535C55.4472 42.1306 54.5702 42.6975 53.4257 42.6975C51.8321 42.6975 50.7946 41.5744 50.7946 39.938V39.7454H58.6987V38.7935C58.6987 35.3067 56.5917 33.0499 53.2546 33.0499C49.8641 33.0499 47.7249 35.4244 47.7249 39.0823C47.7249 42.7509 49.8427 45.0077 53.3723 45.0077C56.2066 45.0077 58.2602 43.4996 58.6025 41.2535H55.736ZM53.2867 35.3602C54.6771 35.3602 55.6291 36.3656 55.6932 37.8309H50.8267C50.9336 36.3977 51.9176 35.3602 53.2867 35.3602ZM61.148 30.6541V33.2959H59.533V35.649H61.148V41.6707C61.148 43.9061 62.1962 44.8045 64.8915 44.8045C65.5226 44.8045 66.0573 44.751 66.3782 44.6762V42.3766C66.1857 42.4087 65.8969 42.4301 65.6188 42.4301C64.699 42.4301 64.2712 42.0129 64.2712 41.1359V35.649H66.3889V33.2959H64.2712V30.6541H61.148ZM78.6889 33.2959H75.5658V39.8631C75.5658 41.3819 74.6995 42.3766 73.309 42.3766C71.9293 42.3766 71.1699 41.5637 71.1699 40.0342V33.2959H68.0467V40.6867C68.0467 43.3606 69.6939 44.9756 72.1753 44.9756C73.908 44.9756 75.0417 44.1414 75.6086 42.6975H75.6728V44.7617H78.6889V33.2959ZM87.4166 33.1141C85.7588 33.1141 84.486 33.9484 83.8657 35.296H83.8015V33.2959H80.7211V48.5052H83.8443V42.8365H83.9084C84.5181 44.1307 85.8016 44.9435 87.4701 44.9435C90.3365 44.9435 92.112 42.7188 92.112 39.0288C92.112 35.3281 90.3259 33.1141 87.4166 33.1141ZM86.3684 42.4301C84.839 42.4301 83.8336 41.1038 83.8336 39.0288C83.8336 36.9753 84.839 35.6169 86.3684 35.6169C87.93 35.6169 88.914 36.9539 88.914 39.0288C88.914 41.1145 87.93 42.4301 86.3684 42.4301ZM105.257 44.7617V31.9911H109.728V29.3278H97.5668V31.9911H102.027V44.7617H105.257ZM126.263 33.2959H123.183L121.44 41.799H121.375L119.333 33.2959H116.338L114.306 41.799H114.241L112.509 33.2959H109.364L112.412 44.7617H115.696L117.76 36.6544H117.824L119.899 44.7617H123.226L126.263 33.2959ZM132.574 45.0077C136.039 45.0077 138.253 42.7937 138.253 39.0181C138.253 35.296 136.007 33.0499 132.574 33.0499C129.14 33.0499 126.894 35.3067 126.894 39.0181C126.894 42.783 129.108 45.0077 132.574 45.0077ZM132.574 42.6226C131.034 42.6226 130.06 41.3284 130.06 39.0288C130.06 36.7507 131.055 35.4351 132.574 35.4351C134.093 35.4351 135.077 36.7507 135.077 39.0288C135.077 41.3284 134.103 42.6226 132.574 42.6226ZM147.206 39.8524V37.125H140.178V39.8524H147.206ZM150.393 44.7617H153.516V35.649H155.719V33.3494H153.441V32.59C153.441 31.7772 153.89 31.3279 154.917 31.3279C155.227 31.3279 155.537 31.3493 155.762 31.3921V29.3278C155.398 29.253 154.746 29.1888 154.168 29.1888C151.452 29.1888 150.393 30.237 150.393 32.4831V33.3494H148.831V35.649H150.393V44.7617ZM160.169 44.9435C161.602 44.9435 163.024 44.2269 163.666 43.0076H163.73V44.7617H166.747V36.879C166.747 34.5687 164.832 33.0499 161.891 33.0499C158.853 33.0499 156.96 34.5794 156.842 36.8041H159.698C159.848 35.9592 160.586 35.3816 161.752 35.3816C162.928 35.3816 163.677 36.002 163.677 37.0715V37.8309L160.789 38.002C157.933 38.1732 156.329 39.3818 156.329 41.4674C156.329 43.5317 157.987 44.9435 160.169 44.9435ZM161.195 42.6868C160.137 42.6868 159.431 42.152 159.431 41.2963C159.431 40.4834 160.094 39.9594 161.26 39.8738L163.677 39.7241V40.5583C163.677 41.799 162.554 42.6868 161.195 42.6868ZM179.186 37.5635C179.047 34.9645 177.079 33.0499 173.977 33.0499C170.543 33.0499 168.351 35.3388 168.351 39.0181C168.351 42.7616 170.543 45.0077 173.998 45.0077C177.014 45.0077 179.036 43.2643 179.196 40.5583H176.287C176.095 41.8097 175.282 42.5584 174.03 42.5584C172.479 42.5584 171.517 41.2749 171.517 39.0181C171.517 36.8041 172.479 35.4993 174.02 35.4993C175.303 35.4993 176.105 36.3549 176.287 37.5635H179.186ZM181.539 30.6541V33.2959H179.924V35.649H181.539V41.6707C181.539 43.9061 182.587 44.8045 185.282 44.8045C185.913 44.8045 186.448 44.751 186.769 44.6762V42.3766C186.576 42.4087 186.288 42.4301 186.009 42.4301C185.09 42.4301 184.662 42.0129 184.662 41.1359V35.649H186.78V33.2959H184.662V30.6541H181.539ZM193.582 45.0077C197.047 45.0077 199.261 42.7937 199.261 39.0181C199.261 35.296 197.015 33.0499 193.582 33.0499C190.149 33.0499 187.903 35.3067 187.903 39.0181C187.903 42.783 190.117 45.0077 193.582 45.0077ZM193.582 42.6226C192.042 42.6226 191.069 41.3284 191.069 39.0288C191.069 36.7507 192.063 35.4351 193.582 35.4351C195.101 35.4351 196.085 36.7507 196.085 39.0288C196.085 41.3284 195.111 42.6226 193.582 42.6226ZM200.876 44.7617H204V38.355C204 36.74 204.898 35.7987 206.438 35.7987C206.887 35.7987 207.315 35.8736 207.572 35.9806V33.2318C207.358 33.1676 207.048 33.1141 206.684 33.1141C205.337 33.1141 204.363 33.9056 203.957 35.3602H203.893V33.2959H200.876V44.7617ZM44.6767 72.7617H48.11L42.7408 57.3278H38.9438L33.5852 72.7617H36.9009L38.0774 69.0182H43.5001L44.6767 72.7617ZM40.7514 60.2799H40.8262L42.8049 66.601H38.7727L40.7514 60.2799ZM59.6292 61.2959H56.5061V67.8631C56.5061 69.3819 55.6397 70.3766 54.2493 70.3766C52.8696 70.3766 52.1102 69.5637 52.1102 68.0342V61.2959H48.987V68.6867C48.987 71.3606 50.6342 72.9756 53.1156 72.9756C54.8483 72.9756 55.982 72.1414 56.5489 70.6975H56.6131V72.7617H59.6292V61.2959ZM62.4957 58.6541V61.2959H60.8806V63.649H62.4957V69.6707C62.4957 71.9061 63.5439 72.8045 66.2392 72.8045C66.8702 72.8045 67.405 72.751 67.7259 72.6762V70.3766C67.5333 70.4087 67.2446 70.4301 66.9665 70.4301C66.0466 70.4301 65.6188 70.0129 65.6188 69.1359V63.649H67.7366V61.2959H65.6188V58.6541H62.4957ZM69.5227 72.7617H72.6459V66.216C72.6459 64.7079 73.5122 63.6704 74.9882 63.6704C76.4108 63.6704 77.1381 64.5688 77.1381 66.0448V72.7617H80.2612V65.3817C80.2612 62.7292 78.8066 61.082 76.261 61.082C74.5176 61.082 73.2662 61.8949 72.6566 63.3388H72.5924V57.3278H69.5227V72.7617ZM89.8552 69.2535C89.5665 70.1306 88.6894 70.6975 87.545 70.6975C85.9513 70.6975 84.9138 69.5744 84.9138 67.938V67.7454H92.8179V66.7935C92.8179 63.3067 90.7109 61.0499 87.3738 61.0499C83.9833 61.0499 81.8442 63.4244 81.8442 67.0823C81.8442 70.7509 83.9619 73.0077 87.4915 73.0077C90.3259 73.0077 92.3794 71.4996 92.7217 69.2535H89.8552ZM87.4059 63.3602C88.7964 63.3602 89.7483 64.3656 89.8125 65.8309H84.9459C85.0529 64.3977 86.0369 63.3602 87.4059 63.3602ZM94.433 72.7617H97.5561V66.1839C97.5561 64.6972 98.4439 63.6704 99.845 63.6704C101.246 63.6704 101.952 64.526 101.952 66.0234V72.7617H105.075V65.371C105.075 62.6864 103.642 61.082 101.096 61.082C99.3316 61.082 98.123 61.9163 97.5134 63.3388H97.4492V61.2959H94.433V72.7617ZM107.888 58.6541V61.2959H106.273V63.649H107.888V69.6707C107.888 71.9061 108.936 72.8045 111.632 72.8045C112.263 72.8045 112.797 72.751 113.118 72.6762V70.3766C112.926 70.4087 112.637 70.4301 112.359 70.4301C111.439 70.4301 111.011 70.0129 111.011 69.1359V63.649H113.129V61.2959H111.011V58.6541H107.888ZM116.445 59.7451C117.354 59.7451 118.07 59.0178 118.07 58.1407C118.07 57.253 117.354 56.5364 116.445 56.5364C115.536 56.5364 114.819 57.253 114.819 58.1407C114.819 59.0178 115.536 59.7451 116.445 59.7451ZM114.894 72.7617H118.017V61.2959H114.894V72.7617ZM130.52 65.5635C130.381 62.9645 128.413 61.0499 125.311 61.0499C121.878 61.0499 119.686 63.3388 119.686 67.0181C119.686 70.7616 121.878 73.0077 125.333 73.0077C128.349 73.0077 130.37 71.2643 130.531 68.5583H127.622C127.429 69.8097 126.616 70.5584 125.365 70.5584C123.814 70.5584 122.851 69.2749 122.851 67.0181C122.851 64.8041 123.814 63.4993 125.354 63.4993C126.638 63.4993 127.44 64.3549 127.622 65.5635H130.52ZM135.44 72.9435C136.873 72.9435 138.296 72.2269 138.938 71.0076H139.002V72.7617H142.018V64.879C142.018 62.5687 140.104 61.0499 137.162 61.0499C134.125 61.0499 132.232 62.5794 132.114 64.8041H134.97C135.119 63.9592 135.857 63.3816 137.023 63.3816C138.2 63.3816 138.948 64.002 138.948 65.0715V65.8309L136.061 66.002C133.205 66.1732 131.601 67.3818 131.601 69.4674C131.601 71.5317 133.258 72.9435 135.44 72.9435ZM136.467 70.6868C135.408 70.6868 134.702 70.152 134.702 69.2963C134.702 68.4834 135.365 67.9594 136.531 67.8738L138.948 67.7241V68.5583C138.948 69.799 137.825 70.6868 136.467 70.6868ZM144.874 58.6541V61.2959H143.259V63.649H144.874V69.6707C144.874 71.9061 145.922 72.8045 148.617 72.8045C149.248 72.8045 149.783 72.751 150.104 72.6762V70.3766C149.912 70.4087 149.623 70.4301 149.345 70.4301C148.425 70.4301 147.997 70.0129 147.997 69.1359V63.649H150.115V61.2959H147.997V58.6541H144.874ZM153.43 59.7451C154.34 59.7451 155.056 59.0178 155.056 58.1407C155.056 57.253 154.34 56.5364 153.43 56.5364C152.521 56.5364 151.805 57.253 151.805 58.1407C151.805 59.0178 152.521 59.7451 153.43 59.7451ZM151.88 72.7617H155.003V61.2959H151.88V72.7617ZM162.351 73.0077C165.816 73.0077 168.03 70.7937 168.03 67.0181C168.03 63.296 165.784 61.0499 162.351 61.0499C158.917 61.0499 156.671 63.3067 156.671 67.0181C156.671 70.783 158.885 73.0077 162.351 73.0077ZM162.351 70.6226C160.81 70.6226 159.837 69.3284 159.837 67.0288C159.837 64.7507 160.832 63.4351 162.351 63.4351C163.869 63.4351 164.853 64.7507 164.853 67.0288C164.853 69.3284 163.88 70.6226 162.351 70.6226ZM169.645 72.7617H172.768V66.1839C172.768 64.6972 173.656 63.6704 175.057 63.6704C176.458 63.6704 177.164 64.526 177.164 66.0234V72.7617H180.287V65.371C180.287 62.6864 178.854 61.082 176.308 61.082C174.544 61.082 173.335 61.9163 172.725 63.3388H172.661V61.2959H169.645V72.7617Z" fill="#333333"/>
<path d="M36.0239 100.638H38.9759L41.6198 105.523H43.4253L40.5674 100.398C42.1161 99.9103 43.0488 98.5755 43.0488 96.8557C43.0488 94.631 41.4915 93.1763 39.1128 93.1763H34.4837V105.523H36.0239V100.638ZM36.0239 94.5454H38.9074C40.4989 94.5454 41.4573 95.4267 41.4573 96.907C41.4573 98.4215 40.5588 99.2772 38.9759 99.2772H36.0239V94.5454ZM50.6641 102.974C50.416 103.812 49.586 104.385 48.4565 104.385C46.8565 104.385 45.8553 103.265 45.8553 101.562V101.476H52.2385V100.911C52.2385 98.2161 50.7582 96.4706 48.3538 96.4706C45.8981 96.4706 44.3237 98.3445 44.3237 101.108C44.3237 103.906 45.8724 105.677 48.4223 105.677C50.3646 105.677 51.8706 104.531 52.1273 102.974H50.6641ZM48.3282 97.7626C49.7315 97.7626 50.6641 98.8237 50.6983 100.313H45.8639C45.958 98.8322 46.9335 97.7626 48.3282 97.7626ZM57.0986 96.4706C54.814 96.4706 53.3081 98.276 53.3081 101.074C53.3081 103.863 54.814 105.677 57.0644 105.677C58.3222 105.677 59.3576 105.053 59.9137 104.035H59.948V108.493H61.4368V96.6246H60.0164V98.1306H59.9822C59.4089 97.1038 58.3907 96.4706 57.0986 96.4706ZM57.3639 104.368C55.8066 104.368 54.8312 103.102 54.8312 101.074C54.8312 99.0376 55.8066 97.7798 57.3639 97.7798C58.887 97.7798 59.948 99.0889 59.948 101.074C59.948 103.059 58.887 104.368 57.3639 104.368ZM70.6864 96.6246H69.1976V101.853C69.1976 103.367 68.3248 104.36 66.8788 104.36C65.5012 104.36 64.8252 103.581 64.8252 102.135V96.6246H63.3364V102.4C63.3364 104.42 64.4744 105.677 66.4167 105.677C67.7858 105.677 68.7099 105.104 69.2404 104.077H69.2746V105.523H70.6864V96.6246ZM73.4416 95.0417C73.9636 95.0417 74.3743 94.6224 74.3743 94.109C74.3743 93.5871 73.9636 93.1763 73.4416 93.1763C72.9283 93.1763 72.509 93.5871 72.509 94.109C72.509 94.6224 72.9283 95.0417 73.4416 95.0417ZM72.6972 105.523H74.1861V96.6246H72.6972V105.523ZM76.1969 105.523H77.6857V99.9788C77.6857 98.721 78.4387 97.891 79.5938 97.891C79.9532 97.891 80.2698 97.9338 80.3896 97.9766V96.5305C80.2698 96.5134 80.0473 96.4706 79.7906 96.4706C78.7467 96.4706 77.9253 97.0952 77.6344 98.0792H77.6001V96.6246H76.1969V105.523ZM87.0808 102.974C86.8326 103.812 86.0027 104.385 84.8732 104.385C83.2731 104.385 82.272 103.265 82.272 101.562V101.476H88.6552V100.911C88.6552 98.2161 87.1749 96.4706 84.7705 96.4706C82.3148 96.4706 80.7404 98.3445 80.7404 101.108C80.7404 103.906 82.2891 105.677 84.839 105.677C86.7813 105.677 88.2873 104.531 88.544 102.974H87.0808ZM84.7448 97.7626C86.1481 97.7626 87.0808 98.8237 87.115 100.313H82.2806C82.3747 98.8322 83.3501 97.7626 84.7448 97.7626ZM96.3561 105.677C97.554 105.677 98.6835 105.01 99.214 103.992H99.2482V105.523H100.66V99.3713C100.66 97.6001 99.3423 96.4706 97.2545 96.4706C95.1496 96.4706 93.8319 97.6514 93.7292 99.1916H95.1667C95.355 98.3188 96.0737 97.7798 97.2203 97.7798C98.4524 97.7798 99.1712 98.4301 99.1712 99.5167V100.261L96.6213 100.407C94.5678 100.526 93.3955 101.485 93.3955 103.008C93.3955 104.608 94.5849 105.677 96.3561 105.677ZM96.6898 104.411C95.6202 104.411 94.91 103.855 94.91 103.008C94.91 102.169 95.5945 101.639 96.7925 101.562L99.1712 101.416V102.144C99.1712 103.427 98.0931 104.411 96.6898 104.411ZM105.922 105.677C107.206 105.677 108.224 105.044 108.797 104.017H108.823V105.523H110.243V93.1763H108.755V98.0707H108.72C108.19 97.0952 107.163 96.4706 105.888 96.4706C103.646 96.4706 102.115 98.2846 102.115 101.074C102.115 103.863 103.655 105.677 105.922 105.677ZM106.205 97.7798C107.736 97.7798 108.763 99.0889 108.763 101.074C108.763 103.068 107.736 104.368 106.205 104.368C104.63 104.368 103.638 103.093 103.638 101.074C103.638 99.0632 104.63 97.7798 106.205 97.7798ZM115.625 105.677C116.909 105.677 117.927 105.044 118.5 104.017H118.526V105.523H119.946V93.1763H118.458V98.0707H118.423C117.893 97.0952 116.866 96.4706 115.591 96.4706C113.349 96.4706 111.818 98.2846 111.818 101.074C111.818 103.863 113.358 105.677 115.625 105.677ZM115.908 97.7798C117.439 97.7798 118.466 99.0889 118.466 101.074C118.466 103.068 117.439 104.368 115.908 104.368C114.333 104.368 113.341 103.093 113.341 101.074C113.341 99.0632 114.333 97.7798 115.908 97.7798ZM122.779 95.0417C123.301 95.0417 123.711 94.6224 123.711 94.109C123.711 93.5871 123.301 93.1763 122.779 93.1763C122.265 93.1763 121.846 93.5871 121.846 94.109C121.846 94.6224 122.265 95.0417 122.779 95.0417ZM122.034 105.523H123.523V96.6246H122.034V105.523ZM126.013 94.4769V96.6246H124.687V97.8482H126.013V103.213C126.013 104.924 126.646 105.592 128.281 105.592C128.631 105.592 129.042 105.566 129.222 105.523V104.274C129.119 104.291 128.777 104.317 128.606 104.317C127.844 104.317 127.502 103.949 127.502 103.136V97.8482H129.23V96.6246H127.502V94.4769H126.013ZM131.643 95.0417C132.165 95.0417 132.576 94.6224 132.576 94.109C132.576 93.5871 132.165 93.1763 131.643 93.1763C131.13 93.1763 130.711 93.5871 130.711 94.109C130.711 94.6224 131.13 95.0417 131.643 95.0417ZM130.899 105.523H132.388V96.6246H130.899V105.523ZM138.086 105.677C140.542 105.677 142.202 103.906 142.202 101.074C142.202 98.2333 140.542 96.4706 138.086 96.4706C135.622 96.4706 133.962 98.2333 133.962 101.074C133.962 103.906 135.622 105.677 138.086 105.677ZM138.086 104.368C136.512 104.368 135.477 103.17 135.477 101.074C135.477 98.9777 136.512 97.7798 138.086 97.7798C139.661 97.7798 140.688 98.9777 140.688 101.074C140.688 103.17 139.661 104.368 138.086 104.368ZM143.708 105.523H145.197V100.287C145.197 98.7809 146.112 97.7883 147.516 97.7883C148.885 97.7883 149.561 98.5755 149.561 100.013V105.523H151.05V99.7478C151.05 97.7284 149.92 96.4706 147.969 96.4706C146.592 96.4706 145.642 97.0867 145.146 98.045H145.111V96.6246H143.708V105.523ZM155.55 105.677C156.748 105.677 157.878 105.01 158.408 103.992H158.442V105.523H159.854V99.3713C159.854 97.6001 158.537 96.4706 156.449 96.4706C154.344 96.4706 153.026 97.6514 152.923 99.1916H154.361C154.549 98.3188 155.268 97.7798 156.414 97.7798C157.647 97.7798 158.365 98.4301 158.365 99.5167V100.261L155.816 100.407C153.762 100.526 152.59 101.485 152.59 103.008C152.59 104.608 153.779 105.677 155.55 105.677ZM155.884 104.411C154.814 104.411 154.104 103.855 154.104 103.008C154.104 102.169 154.789 101.639 155.987 101.562L158.365 101.416V102.144C158.365 103.427 157.287 104.411 155.884 104.411ZM161.822 105.523H163.311V93.1763H161.822V105.523ZM171.517 105.677C172.715 105.677 173.844 105.01 174.375 103.992H174.409V105.523H175.821V99.3713C175.821 97.6001 174.503 96.4706 172.415 96.4706C170.31 96.4706 168.993 97.6514 168.89 99.1916H170.327C170.516 98.3188 171.234 97.7798 172.381 97.7798C173.613 97.7798 174.332 98.4301 174.332 99.5167V100.261L171.782 100.407C169.728 100.526 168.556 101.485 168.556 103.008C168.556 104.608 169.746 105.677 171.517 105.677ZM171.851 104.411C170.781 104.411 170.071 103.855 170.071 103.008C170.071 102.169 170.755 101.639 171.953 101.562L174.332 101.416V102.144C174.332 103.427 173.254 104.411 171.851 104.411ZM185.019 96.6246H183.53V101.853C183.53 103.367 182.657 104.36 181.211 104.36C179.834 104.36 179.158 103.581 179.158 102.135V96.6246H177.669V102.4C177.669 104.42 178.807 105.677 180.749 105.677C182.118 105.677 183.042 105.104 183.573 104.077H183.607V105.523H185.019V96.6246ZM187.432 94.4769V96.6246H186.106V97.8482H187.432V103.213C187.432 104.924 188.065 105.592 189.699 105.592C190.05 105.592 190.461 105.566 190.641 105.523V104.274C190.538 104.291 190.196 104.317 190.025 104.317C189.263 104.317 188.921 103.949 188.921 103.136V97.8482H190.649V96.6246H188.921V94.4769H187.432ZM192.318 105.523H193.807V100.338C193.807 98.798 194.722 97.7883 196.202 97.7883C197.597 97.7883 198.307 98.6354 198.307 100.047V105.523H199.796V99.7734C199.796 97.7883 198.615 96.4706 196.664 96.4706C195.313 96.4706 194.337 97.0525 193.841 98.045H193.807V93.1763H192.318V105.523ZM207.591 102.974C207.343 103.812 206.513 104.385 205.384 104.385C203.784 104.385 202.782 103.265 202.782 101.562V101.476H209.166V100.911C209.166 98.2161 207.685 96.4706 205.281 96.4706C202.825 96.4706 201.251 98.3445 201.251 101.108C201.251 103.906 202.8 105.677 205.349 105.677C207.292 105.677 208.798 104.531 209.054 102.974H207.591ZM205.255 97.7626C206.659 97.7626 207.591 98.8237 207.625 100.313H202.791C202.885 98.8322 203.861 97.7626 205.255 97.7626ZM210.672 105.523H212.16V100.287C212.16 98.7809 213.076 97.7883 214.479 97.7883C215.848 97.7883 216.524 98.5755 216.524 100.013V105.523H218.013V99.7478C218.013 97.7284 216.884 96.4706 214.933 96.4706C213.555 96.4706 212.605 97.0867 212.109 98.045H212.075V96.6246H210.672V105.523ZM220.392 94.4769V96.6246H219.066V97.8482H220.392V103.213C220.392 104.924 221.025 105.592 222.659 105.592C223.01 105.592 223.421 105.566 223.601 105.523V104.274C223.498 104.291 223.156 104.317 222.984 104.317C222.223 104.317 221.881 103.949 221.881 103.136V97.8482H223.609V96.6246H221.881V94.4769H220.392ZM226.022 95.0417C226.544 95.0417 226.955 94.6224 226.955 94.109C226.955 93.5871 226.544 93.1763 226.022 93.1763C225.509 93.1763 225.089 93.5871 225.089 94.109C225.089 94.6224 225.509 95.0417 226.022 95.0417ZM225.278 105.523H226.766V96.6246H225.278V105.523ZM236.17 99.5424C235.982 97.9423 234.656 96.4706 232.431 96.4706C229.975 96.4706 228.341 98.2675 228.341 101.074C228.341 103.94 229.984 105.677 232.448 105.677C234.467 105.677 235.956 104.428 236.187 102.657H234.724C234.467 103.727 233.672 104.368 232.457 104.368C230.916 104.368 229.855 103.145 229.855 101.074C229.855 99.0547 230.899 97.7798 232.439 97.7798C233.749 97.7798 234.502 98.5755 234.715 99.5424H236.17ZM240.157 105.677C241.355 105.677 242.485 105.01 243.015 103.992H243.05V105.523H244.461V99.3713C244.461 97.6001 243.144 96.4706 241.056 96.4706C238.951 96.4706 237.633 97.6514 237.531 99.1916H238.968C239.156 98.3188 239.875 97.7798 241.022 97.7798C242.254 97.7798 242.973 98.4301 242.973 99.5167V100.261L240.423 100.407C238.369 100.526 237.197 101.485 237.197 103.008C237.197 104.608 238.386 105.677 240.157 105.677ZM240.491 104.411C239.422 104.411 238.711 103.855 238.711 103.008C238.711 102.169 239.396 101.639 240.594 101.562L242.973 101.416V102.144C242.973 103.427 241.894 104.411 240.491 104.411ZM246.832 94.4769V96.6246H245.505V97.8482H246.832V103.213C246.832 104.924 247.465 105.592 249.099 105.592C249.45 105.592 249.861 105.566 250.04 105.523V104.274C249.938 104.291 249.595 104.317 249.424 104.317C248.663 104.317 248.32 103.949 248.32 103.136V97.8482H250.049V96.6246H248.32V94.4769H246.832ZM252.462 95.0417C252.984 95.0417 253.394 94.6224 253.394 94.109C253.394 93.5871 252.984 93.1763 252.462 93.1763C251.948 93.1763 251.529 93.5871 251.529 94.109C251.529 94.6224 251.948 95.0417 252.462 95.0417ZM251.717 105.523H253.206V96.6246H251.717V105.523ZM258.905 105.677C261.361 105.677 263.021 103.906 263.021 101.074C263.021 98.2333 261.361 96.4706 258.905 96.4706C256.441 96.4706 254.781 98.2333 254.781 101.074C254.781 103.906 256.441 105.677 258.905 105.677ZM258.905 104.368C257.33 104.368 256.295 103.17 256.295 101.074C256.295 98.9777 257.33 97.7798 258.905 97.7798C260.479 97.7798 261.506 98.9777 261.506 101.074C261.506 103.17 260.479 104.368 258.905 104.368ZM264.526 105.523H266.015V100.287C266.015 98.7809 266.931 97.7883 268.334 97.7883C269.703 97.7883 270.379 98.5755 270.379 100.013V105.523H271.868V99.7478C271.868 97.7284 270.739 96.4706 268.788 96.4706C267.41 96.4706 266.46 97.0867 265.964 98.045H265.93V96.6246H264.526V105.523ZM45.573 119.625H44.1012L42.3215 126.863H42.2873L40.2679 119.625H38.8304L36.8196 126.863H36.7854L35.0056 119.625H33.5253L36.0153 128.523H37.5298L39.532 121.635H39.5663L41.5771 128.523H43.0916L45.573 119.625ZM46.8736 128.523H48.3624V123.338C48.3624 121.798 49.278 120.788 50.7582 120.788C52.153 120.788 52.8631 121.635 52.8631 123.047V128.523H54.352V122.773C54.352 120.788 53.1712 119.471 51.2203 119.471C49.8684 119.471 48.8929 120.052 48.3966 121.045H48.3624V116.176H46.8736V128.523ZM62.147 125.974C61.8989 126.812 61.0689 127.385 59.9394 127.385C58.3393 127.385 57.3382 126.265 57.3382 124.562V124.476H63.7214V123.911C63.7214 121.216 62.2411 119.471 59.8367 119.471C57.381 119.471 55.8066 121.344 55.8066 124.108C55.8066 126.906 57.3553 128.677 59.9052 128.677C61.8475 128.677 63.3535 127.531 63.6102 125.974H62.147ZM59.8111 120.763C61.2143 120.763 62.147 121.824 62.1812 123.313H57.3468C57.4409 121.832 58.4163 120.763 59.8111 120.763ZM65.2274 128.523H66.7162V123.287C66.7162 121.781 67.6317 120.788 69.035 120.788C70.4041 120.788 71.08 121.576 71.08 123.013V128.523H72.5689V122.748C72.5689 120.728 71.4394 119.471 69.4885 119.471C68.1109 119.471 67.1611 120.087 66.6649 121.045H66.6306V119.625H65.2274V128.523ZM78.5413 117.477V119.625H77.2151V120.848H78.5413V126.213C78.5413 127.924 79.1745 128.592 80.8088 128.592C81.1597 128.592 81.5704 128.566 81.7501 128.523V127.274C81.6474 127.291 81.3051 127.317 81.134 127.317C80.3724 127.317 80.0302 126.949 80.0302 126.136V120.848H81.7586V119.625H80.0302V117.477H78.5413ZM88.9974 125.974C88.7493 126.812 87.9193 127.385 86.7899 127.385C85.1898 127.385 84.1887 126.265 84.1887 124.562V124.476H90.5719V123.911C90.5719 121.216 89.0916 119.471 86.6872 119.471C84.2315 119.471 82.657 121.344 82.657 124.108C82.657 126.906 84.2058 128.677 86.7556 128.677C88.698 128.677 90.2039 127.531 90.4606 125.974H88.9974ZM86.6615 120.763C88.0648 120.763 88.9974 121.824 89.0317 123.313H84.1972C84.2913 121.832 85.2668 120.763 86.6615 120.763ZM94.679 128.677C95.8769 128.677 97.0064 128.01 97.5369 126.992H97.5711V128.523H98.9829V122.371C98.9829 120.6 97.6652 119.471 95.5774 119.471C93.4725 119.471 92.1548 120.651 92.0521 122.192H93.4896C93.6779 121.319 94.3966 120.78 95.5432 120.78C96.7754 120.78 97.4941 121.43 97.4941 122.517V123.261L94.9442 123.407C92.8907 123.526 91.7184 124.485 91.7184 126.008C91.7184 127.608 92.9078 128.677 94.679 128.677ZM95.0127 127.411C93.9431 127.411 93.2329 126.855 93.2329 126.008C93.2329 125.169 93.9175 124.639 95.1154 124.562L97.4941 124.416V125.144C97.4941 126.427 96.416 127.411 95.0127 127.411ZM100.874 128.523H102.363V122.945C102.363 121.712 103.218 120.788 104.399 120.788C105.503 120.788 106.222 121.49 106.222 122.56V128.523H107.711V122.868C107.711 121.661 108.541 120.788 109.721 120.788C110.894 120.788 111.57 121.507 111.57 122.722V128.523H113.058V122.38C113.058 120.617 111.92 119.471 110.158 119.471C108.909 119.471 107.865 120.104 107.368 121.165H107.334C106.949 120.087 106.051 119.471 104.836 119.471C103.638 119.471 102.731 120.104 102.311 121.045H102.277V119.625H100.874V128.523ZM118.552 128.523H120.041V122.945C120.041 121.712 120.896 120.788 122.077 120.788C123.181 120.788 123.9 121.49 123.9 122.56V128.523H125.388V122.868C125.388 121.661 126.218 120.788 127.399 120.788C128.571 120.788 129.247 121.507 129.247 122.722V128.523H130.736V122.38C130.736 120.617 129.598 119.471 127.836 119.471C126.586 119.471 125.542 120.104 125.046 121.165H125.012C124.627 120.087 123.728 119.471 122.513 119.471C121.316 119.471 120.409 120.104 119.989 121.045H119.955V119.625H118.552V128.523ZM138.54 125.974C138.292 126.812 137.462 127.385 136.332 127.385C134.732 127.385 133.731 126.265 133.731 124.562V124.476H140.114V123.911C140.114 121.216 138.634 119.471 136.23 119.471C133.774 119.471 132.199 121.344 132.199 124.108C132.199 126.906 133.748 128.677 136.298 128.677C138.24 128.677 139.746 127.531 140.003 125.974H138.54ZM136.204 120.763C137.607 120.763 138.54 121.824 138.574 123.313H133.74C133.834 121.832 134.809 120.763 136.204 120.763ZM141.62 128.523H143.109V122.945C143.109 121.712 143.965 120.788 145.146 120.788C146.249 120.788 146.968 121.49 146.968 122.56V128.523H148.457V122.868C148.457 121.661 149.287 120.788 150.468 120.788C151.64 120.788 152.316 121.507 152.316 122.722V128.523H153.805V122.38C153.805 120.617 152.667 119.471 150.904 119.471C149.655 119.471 148.611 120.104 148.115 121.165H148.08C147.695 120.087 146.797 119.471 145.582 119.471C144.384 119.471 143.477 120.104 143.058 121.045H143.023V119.625H141.62V128.523ZM160.128 128.677C162.404 128.677 163.91 126.872 163.91 124.074C163.91 121.285 162.396 119.471 160.154 119.471C158.896 119.471 157.861 120.095 157.304 121.113H157.27V116.176H155.781V128.523H157.202V127.017H157.236C157.809 128.044 158.827 128.677 160.128 128.677ZM159.837 120.78C161.412 120.78 162.387 122.055 162.387 124.074C162.387 126.11 161.412 127.368 159.837 127.368C158.331 127.368 157.262 126.059 157.262 124.074C157.262 122.097 158.331 120.78 159.837 120.78ZM171.329 125.974C171.08 126.812 170.25 127.385 169.121 127.385C167.521 127.385 166.52 126.265 166.52 124.562V124.476H172.903V123.911C172.903 121.216 171.423 119.471 169.018 119.471C166.563 119.471 164.988 121.344 164.988 124.108C164.988 126.906 166.537 128.677 169.087 128.677C171.029 128.677 172.535 127.531 172.792 125.974H171.329ZM168.993 120.763C170.396 120.763 171.329 121.824 171.363 123.313H166.528C166.622 121.832 167.598 120.763 168.993 120.763ZM174.409 128.523H175.898V122.979C175.898 121.721 176.651 120.891 177.806 120.891C178.165 120.891 178.482 120.934 178.602 120.977V119.531C178.482 119.513 178.259 119.471 178.003 119.471C176.959 119.471 176.137 120.095 175.846 121.079H175.812V119.625H174.409V128.523ZM179.663 122.08C179.663 123.364 180.475 124.142 182.153 124.545L183.564 124.887C184.583 125.135 184.933 125.503 184.933 126.145C184.933 126.949 184.189 127.462 182.983 127.462C181.776 127.462 181.092 126.975 180.912 125.956H179.423C179.594 127.625 180.895 128.677 182.983 128.677C184.968 128.677 186.431 127.582 186.431 126.033C186.431 124.759 185.781 124.057 183.984 123.621L182.572 123.278C181.579 123.039 181.126 122.619 181.126 122.003C181.126 121.225 181.845 120.686 182.931 120.686C184.026 120.686 184.711 121.259 184.822 122.192H186.243C186.183 120.617 184.882 119.471 182.931 119.471C181.006 119.471 179.663 120.557 179.663 122.08ZM191.419 122.08C191.419 123.364 192.232 124.142 193.909 124.545L195.321 124.887C196.339 125.135 196.69 125.503 196.69 126.145C196.69 126.949 195.946 127.462 194.739 127.462C193.533 127.462 192.848 126.975 192.669 125.956H191.18C191.351 127.625 192.651 128.677 194.739 128.677C196.724 128.677 198.188 127.582 198.188 126.033C198.188 124.759 197.537 124.057 195.74 123.621L194.329 123.278C193.336 123.039 192.882 122.619 192.882 122.003C192.882 121.225 193.601 120.686 194.688 120.686C195.783 120.686 196.468 121.259 196.579 122.192H197.999C197.939 120.617 196.639 119.471 194.688 119.471C192.763 119.471 191.419 120.557 191.419 122.08ZM200.558 118.042C201.08 118.042 201.49 117.622 201.49 117.109C201.49 116.587 201.08 116.176 200.558 116.176C200.044 116.176 199.625 116.587 199.625 117.109C199.625 117.622 200.044 118.042 200.558 118.042ZM199.813 128.523H201.302V119.625H199.813V128.523ZM206.984 131.878C209.439 131.878 211.005 130.466 211.005 128.344V119.625H209.585V121.122H209.559C208.969 120.087 207.925 119.471 206.667 119.471C204.365 119.471 202.877 121.25 202.877 124.04C202.877 126.804 204.365 128.592 206.633 128.592C207.882 128.592 208.935 127.959 209.482 126.992H209.516V128.395C209.516 129.721 208.584 130.611 207.044 130.611C205.931 130.611 205.05 130.072 204.759 129.259H203.227C203.476 130.774 205.024 131.878 206.984 131.878ZM206.932 127.283C205.401 127.283 204.4 126.033 204.4 124.04C204.4 122.046 205.401 120.78 206.932 120.78C208.481 120.78 209.516 122.08 209.516 124.04C209.516 125.999 208.481 127.283 206.932 127.283ZM212.948 128.523H214.436V123.287C214.436 121.781 215.352 120.788 216.755 120.788C218.124 120.788 218.8 121.576 218.8 123.013V128.523H220.289V122.748C220.289 120.728 219.16 119.471 217.209 119.471C215.831 119.471 214.881 120.087 214.385 121.045H214.351V119.625H212.948V128.523ZM226.604 118.042C227.126 118.042 227.537 117.622 227.537 117.109C227.537 116.587 227.126 116.176 226.604 116.176C226.09 116.176 225.671 116.587 225.671 117.109C225.671 117.622 226.09 118.042 226.604 118.042ZM225.859 128.523H227.348V119.625H225.859V128.523ZM229.359 128.523H230.848V123.287C230.848 121.781 231.763 120.788 233.167 120.788C234.536 120.788 235.212 121.576 235.212 123.013V128.523H236.701V122.748C236.701 120.728 235.571 119.471 233.62 119.471C232.243 119.471 231.293 120.087 230.797 121.045H230.762V119.625H229.359V128.523ZM242.673 117.477V119.625H241.347V120.848H242.673V126.213C242.673 127.924 243.306 128.592 244.941 128.592C245.291 128.592 245.702 128.566 245.882 128.523V127.274C245.779 127.291 245.437 127.317 245.266 127.317C244.504 127.317 244.162 126.949 244.162 126.136V120.848H245.89V119.625H244.162V117.477H242.673ZM250.913 128.677C253.369 128.677 255.029 126.906 255.029 124.074C255.029 121.233 253.369 119.471 250.913 119.471C248.449 119.471 246.789 121.233 246.789 124.074C246.789 126.906 248.449 128.677 250.913 128.677ZM250.913 127.368C249.339 127.368 248.303 126.17 248.303 124.074C248.303 121.978 249.339 120.78 250.913 120.78C252.487 120.78 253.514 121.978 253.514 124.074C253.514 126.17 252.487 127.368 250.913 127.368ZM37.4357 151.523H38.9245V139.176H37.4186L34.1329 141.538V143.087L37.4015 140.811H37.4357V151.523ZM42.253 139.176V151.523H43.7932V147.117H46.6425C48.9614 147.117 50.6128 145.483 50.6128 143.138C50.6128 140.802 48.9785 139.176 46.6597 139.176H42.253ZM43.7932 140.545H46.2575C48.0287 140.545 49.0298 141.504 49.0298 143.138C49.0298 144.781 48.0201 145.748 46.2575 145.748H43.7932V140.545ZM53.9841 151.677C55.182 151.677 56.3114 151.01 56.8419 149.992H56.8762V151.523H58.288V145.371C58.288 143.6 56.9703 142.471 54.8825 142.471C52.7776 142.471 51.4599 143.651 51.3572 145.192H52.7947C52.9829 144.319 53.7017 143.78 54.8483 143.78C56.0804 143.78 56.7992 144.43 56.7992 145.517V146.261L54.2493 146.407C52.1957 146.526 51.0235 147.485 51.0235 149.008C51.0235 150.608 52.2128 151.677 53.9841 151.677ZM54.3178 150.411C53.2482 150.411 52.538 149.855 52.538 149.008C52.538 148.169 53.2225 147.639 54.4204 147.562L56.7992 147.416V148.144C56.7992 149.427 55.721 150.411 54.3178 150.411ZM60.025 145.08C60.025 146.364 60.8378 147.142 62.5149 147.545L63.9268 147.887C64.945 148.135 65.2958 148.503 65.2958 149.145C65.2958 149.949 64.5514 150.462 63.3449 150.462C62.1384 150.462 61.4539 149.975 61.2742 148.956H59.7854C59.9565 150.625 61.2571 151.677 63.3449 151.677C65.33 151.677 66.7932 150.582 66.7932 149.033C66.7932 147.759 66.1429 147.057 64.346 146.621L62.9342 146.278C61.9416 146.039 61.4881 145.619 61.4881 145.003C61.4881 144.225 62.2069 143.686 63.2936 143.686C64.3888 143.686 65.0733 144.259 65.1846 145.192H66.605C66.5451 143.617 65.2445 142.471 63.2936 142.471C61.3684 142.471 60.025 143.557 60.025 145.08ZM68.1879 145.08C68.1879 146.364 69.0008 147.142 70.6779 147.545L72.0897 147.887C73.1079 148.135 73.4588 148.503 73.4588 149.145C73.4588 149.949 72.7143 150.462 71.5079 150.462C70.3014 150.462 69.6169 149.975 69.4372 148.956H67.9483C68.1195 150.625 69.4201 151.677 71.5079 151.677C73.493 151.677 74.9562 150.582 74.9562 149.033C74.9562 147.759 74.3059 147.057 72.509 146.621L71.0972 146.278C70.1046 146.039 69.6511 145.619 69.6511 145.003C69.6511 144.225 70.3698 143.686 71.4565 143.686C72.5518 143.686 73.2363 144.259 73.3475 145.192H74.7679C74.708 143.617 73.4074 142.471 71.4565 142.471C69.5313 142.471 68.1879 143.557 68.1879 145.08ZM87.8252 142.625H86.3535L84.5737 149.863H84.5395L82.5201 142.625H81.0826L79.0719 149.863H79.0376L77.2579 142.625H75.7776L78.2675 151.523H79.782L81.7843 144.635H81.8185L83.8293 151.523H85.3438L87.8252 142.625ZM92.7367 151.677C95.1924 151.677 96.8524 149.906 96.8524 147.074C96.8524 144.233 95.1924 142.471 92.7367 142.471C90.2724 142.471 88.6124 144.233 88.6124 147.074C88.6124 149.906 90.2724 151.677 92.7367 151.677ZM92.7367 150.368C91.1623 150.368 90.1269 149.17 90.1269 147.074C90.1269 144.978 91.1623 143.78 92.7367 143.78C94.3111 143.78 95.3379 144.978 95.3379 147.074C95.3379 149.17 94.3111 150.368 92.7367 150.368ZM98.3583 151.523H99.8471V145.979C99.8471 144.721 100.6 143.891 101.755 143.891C102.115 143.891 102.431 143.934 102.551 143.977V142.531C102.431 142.513 102.209 142.471 101.952 142.471C100.908 142.471 100.087 143.095 99.7958 144.079H99.7616V142.625H98.3583V151.523ZM106.709 151.677C107.993 151.677 109.011 151.044 109.584 150.017H109.61V151.523H111.031V139.176H109.542V144.071H109.507C108.977 143.095 107.95 142.471 106.675 142.471C104.433 142.471 102.902 144.285 102.902 147.074C102.902 149.863 104.442 151.677 106.709 151.677ZM106.992 143.78C108.523 143.78 109.55 145.089 109.55 147.074C109.55 149.068 108.523 150.368 106.992 150.368C105.417 150.368 104.425 149.093 104.425 147.074C104.425 145.063 105.417 143.78 106.992 143.78ZM120.323 151.677C122.779 151.677 124.439 149.906 124.439 147.074C124.439 144.233 122.779 142.471 120.323 142.471C117.859 142.471 116.199 144.233 116.199 147.074C116.199 149.906 117.859 151.677 120.323 151.677ZM120.323 150.368C118.749 150.368 117.713 149.17 117.713 147.074C117.713 144.978 118.749 143.78 120.323 143.78C121.897 143.78 122.924 144.978 122.924 147.074C122.924 149.17 121.897 150.368 120.323 150.368ZM125.945 151.523H127.433V146.287C127.433 144.781 128.349 143.788 129.752 143.788C131.121 143.788 131.797 144.576 131.797 146.013V151.523H133.286V145.748C133.286 143.728 132.157 142.471 130.206 142.471C128.828 142.471 127.878 143.087 127.382 144.045H127.348V142.625H125.945V151.523ZM141.381 151.677C142.579 151.677 143.708 151.01 144.239 149.992H144.273V151.523H145.685V145.371C145.685 143.6 144.367 142.471 142.279 142.471C140.174 142.471 138.856 143.651 138.754 145.192H140.191C140.38 144.319 141.098 143.78 142.245 143.78C143.477 143.78 144.196 144.43 144.196 145.517V146.261L141.646 146.407C139.592 146.526 138.42 147.485 138.42 149.008C138.42 150.608 139.609 151.677 141.381 151.677ZM141.714 150.411C140.645 150.411 139.935 149.855 139.935 149.008C139.935 148.169 140.619 147.639 141.817 147.562L144.196 147.416V148.144C144.196 149.427 143.118 150.411 141.714 150.411ZM151.169 151.523H152.658V146.287C152.658 144.781 153.574 143.788 154.977 143.788C156.346 143.788 157.022 144.576 157.022 146.013V151.523H158.511V145.748C158.511 143.728 157.381 142.471 155.43 142.471C154.053 142.471 153.103 143.087 152.607 144.045H152.573V142.625H151.169V151.523ZM166.314 148.974C166.066 149.812 165.236 150.385 164.107 150.385C162.507 150.385 161.506 149.265 161.506 147.562V147.476H167.889V146.911C167.889 144.216 166.409 142.471 164.004 142.471C161.548 142.471 159.974 144.344 159.974 147.108C159.974 149.906 161.523 151.677 164.073 151.677C166.015 151.677 167.521 150.531 167.778 148.974H166.314ZM163.978 143.763C165.382 143.763 166.314 144.824 166.349 146.313H161.514C161.608 144.832 162.584 143.763 163.978 143.763ZM180.715 142.625H179.243L177.464 149.863H177.429L175.41 142.625H173.973L171.962 149.863H171.928L170.148 142.625H168.667L171.157 151.523H172.672L174.674 144.635H174.708L176.719 151.523H178.234L180.715 142.625ZM188.904 151.677C190.187 151.677 191.205 151.044 191.779 150.017H191.804V151.523H193.225V139.176H191.736V144.071H191.702C191.171 143.095 190.144 142.471 188.869 142.471C186.628 142.471 185.096 144.285 185.096 147.074C185.096 149.863 186.636 151.677 188.904 151.677ZM189.186 143.78C190.718 143.78 191.744 145.089 191.744 147.074C191.744 149.068 190.718 150.368 189.186 150.368C187.612 150.368 186.619 149.093 186.619 147.074C186.619 145.063 187.612 143.78 189.186 143.78ZM201.14 148.974C200.891 149.812 200.061 150.385 198.932 150.385C197.332 150.385 196.331 149.265 196.331 147.562V147.476H202.714V146.911C202.714 144.216 201.234 142.471 198.829 142.471C196.374 142.471 194.799 144.344 194.799 147.108C194.799 149.906 196.348 151.677 198.898 151.677C200.84 151.677 202.346 150.531 202.603 148.974H201.14ZM198.804 143.763C200.207 143.763 201.14 144.824 201.174 146.313H196.339C196.433 144.832 197.409 143.763 198.804 143.763ZM211.519 142.625H209.97L207.506 149.94H207.471L205.016 142.625H203.45L206.727 151.523H208.25L211.519 142.625ZM213.512 141.042C214.034 141.042 214.445 140.622 214.445 140.109C214.445 139.587 214.034 139.176 213.512 139.176C212.999 139.176 212.58 139.587 212.58 140.109C212.58 140.622 212.999 141.042 213.512 141.042ZM212.768 151.523H214.257V142.625H212.768V151.523ZM223.66 145.542C223.472 143.942 222.146 142.471 219.921 142.471C217.465 142.471 215.831 144.267 215.831 147.074C215.831 149.94 217.474 151.677 219.938 151.677C221.958 151.677 223.446 150.428 223.678 148.657H222.214C221.958 149.727 221.162 150.368 219.947 150.368C218.407 150.368 217.346 149.145 217.346 147.074C217.346 145.055 218.39 143.78 219.93 143.78C221.239 143.78 221.992 144.576 222.206 145.542H223.66ZM230.951 148.974C230.702 149.812 229.872 150.385 228.743 150.385C227.143 150.385 226.142 149.265 226.142 147.562V147.476H232.525V146.911C232.525 144.216 231.045 142.471 228.64 142.471C226.185 142.471 224.61 144.344 224.61 147.108C224.61 149.906 226.159 151.677 228.709 151.677C230.651 151.677 232.157 150.531 232.414 148.974H230.951ZM228.615 143.763C230.018 143.763 230.951 144.824 230.985 146.313H226.15C226.244 144.832 227.22 143.763 228.615 143.763ZM235.289 151.609C235.836 151.609 236.264 151.181 236.264 150.634C236.264 150.086 235.836 149.658 235.289 149.658C234.741 149.658 234.313 150.086 234.313 150.634C234.313 151.181 234.741 151.609 235.289 151.609Z" fill="#333333"/>
<rect x="33.2858" y="182.667" width="258.476" height="1.09524" fill="#D7D9E0"/>
<path d="M40.3449 219.286L44.6403 206.939H42.2616L39.1299 216.916H39.0785L35.9469 206.939H33.5168L37.8122 219.286H40.3449ZM46.6853 208.847C47.3356 208.847 47.849 208.325 47.849 207.692C47.849 207.05 47.3356 206.537 46.6853 206.537C46.035 206.537 45.5131 207.05 45.5131 207.692C45.5131 208.325 46.035 208.847 46.6853 208.847ZM45.6243 219.286H47.7549V210.216H45.6243V219.286ZM55.5499 216.574C55.3189 217.327 54.5659 217.823 53.5733 217.823C52.1786 217.823 51.2887 216.848 51.2887 215.393V215.265H57.6291V214.571C57.6291 211.816 56.0205 210.028 53.445 210.028C50.8267 210.028 49.1667 211.919 49.1667 214.785C49.1667 217.678 50.8096 219.466 53.5306 219.466C55.6783 219.466 57.2698 218.285 57.5436 216.574H55.5499ZM53.4535 211.679C54.6771 211.679 55.4986 212.578 55.5413 213.861H51.3059C51.3914 212.595 52.2556 211.679 53.4535 211.679ZM71.2768 210.216H69.1719L67.6403 217.181H67.589L65.8178 210.216H63.7727L62.0015 217.181H61.9588L60.4271 210.216H58.288L60.7437 219.286H62.9684L64.7482 212.655H64.791L66.5793 219.286H68.8211L71.2768 210.216ZM75.769 210.627H77.8397C77.8397 209.369 78.8494 208.462 80.1842 208.462C81.4078 208.462 82.2207 209.284 82.2207 210.362C82.2207 211.286 81.8613 211.902 80.2527 213.485L75.8888 217.78V219.286H84.5652V217.481H78.8066V217.438L81.5276 214.768C83.6838 212.646 84.3769 211.688 84.3769 210.225C84.3769 208.24 82.6998 206.691 80.1842 206.691C77.6172 206.691 75.769 208.325 75.769 210.627ZM88.6038 219.286V214.246H93.7806V212.449H88.6038V208.804H94.2683V206.939H86.3963V219.286H88.6038ZM103.09 219.286H105.417L101.037 206.939H98.5466L94.1656 219.286H96.4416L97.4941 216.095H102.038L103.09 219.286ZM99.7359 209.121H99.7958L101.516 214.392H98.0075L99.7359 209.121ZM109.875 212.817C109.875 214.161 110.748 215.016 112.485 215.401L113.991 215.735C114.941 215.949 115.266 216.257 115.266 216.805C115.266 217.481 114.624 217.909 113.589 217.909C112.511 217.909 111.903 217.464 111.741 216.582H109.644C109.816 218.336 111.219 219.466 113.589 219.466C115.814 219.466 117.388 218.311 117.388 216.599C117.388 215.282 116.661 214.554 114.778 214.135L113.272 213.801C112.323 213.587 111.946 213.228 111.946 212.706C111.946 212.039 112.571 211.594 113.512 211.594C114.496 211.594 115.103 212.116 115.189 212.937H117.174C117.123 211.217 115.72 210.028 113.512 210.028C111.321 210.028 109.875 211.157 109.875 212.817ZM124.755 216.574C124.524 217.327 123.771 217.823 122.779 217.823C121.384 217.823 120.494 216.848 120.494 215.393V215.265H126.834V214.571C126.834 211.816 125.226 210.028 122.65 210.028C120.032 210.028 118.372 211.919 118.372 214.785C118.372 217.678 120.015 219.466 122.736 219.466C124.884 219.466 126.475 218.285 126.749 216.574H124.755ZM122.659 211.679C123.882 211.679 124.704 212.578 124.747 213.861H120.511C120.597 212.595 121.461 211.679 122.659 211.679ZM128.803 208.094V210.216H127.502V211.859H128.803V216.873C128.803 218.636 129.573 219.329 131.532 219.329C131.986 219.329 132.405 219.295 132.636 219.243V217.618C132.499 217.643 132.225 217.66 132.028 217.66C131.275 217.66 130.933 217.318 130.933 216.574V211.859H132.644V210.216H130.933V208.094H128.803ZM142.142 210.216H140.012V215.461C140.012 216.779 139.25 217.652 138.018 217.652C136.82 217.652 136.187 216.95 136.187 215.65V210.216H134.056V216.077C134.056 218.174 135.305 219.449 137.273 219.449C138.651 219.449 139.567 218.816 140.046 217.712H140.089V219.286H142.142V210.216ZM148.868 210.062C147.55 210.062 146.523 210.73 146.01 211.782H145.967V210.216H143.888V222.272H146.018V217.78H146.061C146.557 218.798 147.584 219.432 148.902 219.432C151.178 219.432 152.632 217.643 152.632 214.751C152.632 211.85 151.169 210.062 148.868 210.062ZM148.217 217.686C146.891 217.686 146.01 216.531 146.001 214.751C146.01 212.989 146.891 211.816 148.217 211.816C149.595 211.816 150.451 212.963 150.451 214.751C150.451 216.548 149.595 217.686 148.217 217.686Z" fill="#0364D3"/>
<path d="M163.345 218.602C162.897 218.172 162.897 217.455 163.344 217.024L167.746 212.786L163.344 208.549C162.897 208.118 162.897 207.401 163.345 206.97L163.373 206.944C163.797 206.536 164.466 206.536 164.89 206.944L170.151 211.996C170.599 212.427 170.599 213.145 170.151 213.576L164.89 218.629C164.466 219.036 163.797 219.036 163.373 218.629L163.345 218.602Z" fill="#0364D3"/>
<g clip-path="url(#clip1_40_18452)">
<rect width="131.429" height="236.571" transform="translate(335.571 5.23828)" fill="#FFFDF2"/>
<rect x="388.138" y="178.606" width="74.8224" height="131.869" rx="9.43943" transform="rotate(-133.897 388.138 178.606)" stroke="#02346E" stroke-width="1.88789" stroke-miterlimit="10" stroke-linecap="round" stroke-linejoin="round" stroke-dasharray="9.44 9.44"/>
<rect x="390.566" y="187.778" width="74.8224" height="131.869" rx="9.43943" transform="rotate(-123.908 390.566 187.778)" fill="#F5F5F5" stroke="#02346E" stroke-width="1.88789" stroke-miterlimit="10" stroke-linecap="round" stroke-linejoin="round"/>
<path d="M345.19 200.63L319.792 162.845L356.997 137.837L382.395 175.622L345.19 200.63Z" fill="#F5F5F5" stroke="#02346E" stroke-width="1.88789" stroke-miterlimit="10" stroke-linecap="round" stroke-linejoin="round"/>
<rect x="347.034" y="194.196" width="7.39008" height="32.6382" transform="rotate(-123.908 347.034 194.196)" fill="#FFDC26"/>
<rect x="330.569" y="169.7" width="7.39008" height="32.6382" transform="rotate(-123.908 330.569 169.7)" fill="#FFDC26"/>
<rect x="346.049" y="183.004" width="7.39008" height="27.2114" transform="rotate(-123.908 346.049 183.004)" fill="#FFDC26"/>
<rect x="340.561" y="174.839" width="7.39008" height="27.2114" transform="rotate(-123.908 340.561 174.839)" fill="#FFDC26"/>
<path d="M371.339 183.055L345.941 145.27L356.997 137.838L382.396 175.623L371.339 183.055Z" fill="#02346E"/>
<circle cx="462.983" cy="93.5352" r="9.3204" transform="rotate(4.35998 462.983 93.5352)" fill="#FFDC26" stroke="#02346E" stroke-width="1.88789" stroke-miterlimit="10" stroke-linecap="round" stroke-linejoin="round"/>
<path fill-rule="evenodd" clip-rule="evenodd" d="M471.712 96.808C472.013 96.0035 472.207 95.1434 472.276 94.2437C472.667 89.1111 468.824 84.6331 463.691 84.2418C458.559 83.8504 454.081 87.694 453.689 92.8266C453.621 93.7265 453.682 94.6063 453.858 95.4474C455.275 91.6618 459.063 89.1041 463.296 89.4269C467.529 89.7496 470.885 92.8516 471.712 96.808Z" fill="#02346E"/>
<circle cx="421.365" cy="121.043" r="22.2155" transform="rotate(-123.908 421.365 121.043)" fill="#FFDC26"/>
</g>
</g>
<rect x="7.54762" y="5.7859" width="458.905" height="235.476" rx="8.21429" stroke="#D7D9E0" stroke-width="1.09524"/>
</g>
<defs>
<filter id="filter0_d_40_18452" x="0.428571" y="0.857329" width="473.143" height="249.714" filterUnits="userSpaceOnUse" color-interpolation-filters="sRGB">
<feFlood flood-opacity="0" result="BackgroundImageFix"/>
<feColorMatrix in="SourceAlpha" type="matrix" values="0 0 0 0 0 0 0 0 0 0 0 0 0 0 0 0 0 0 127 0" result="hardAlpha"/>
<feOffset dy="2.19048"/>
<feGaussianBlur stdDeviation="3.28571"/>
<feColorMatrix type="matrix" values="0 0 0 0 0 0 0 0 0 0 0 0 0 0 0 0 0 0 0.05 0"/>
<feBlend mode="normal" in2="BackgroundImageFix" result="effect1_dropShadow_40_18452"/>
<feBlend mode="normal" in="SourceGraphic" in2="effect1_dropShadow_40_18452" result="shape"/>
</filter>
<clipPath id="clip0_40_18452">
<rect x="7" y="5.23828" width="460" height="236.571" rx="8.7619" fill="white"/>
</clipPath>
<clipPath id="clip1_40_18452">
<rect width="157.714" height="236.571" fill="white" transform="translate(309.286 5.23828)"/>
</clipPath>
</defs>
</svg>
