<svg fill="none" height="152" viewBox="0 0 152 152" width="152" xmlns="http://www.w3.org/2000/svg"><path d="m0 0h152v152h-152z" fill="#1d1e21"/><path d="m96.696 49c-7.384 0-13.52 4.264-17.056 10.504l-.312-.624c-3.328-6.656-9.36-9.88-16.224-9.88-6.032 0-11.544 2.808-15.184 7.28v-6.656h-10.92v53.664h10.92v-31.824c0-6.448 5.2-11.752 11.544-11.752s11.544 5.304 11.544 11.752v31.824h10.816v-31.824c0-6.448 5.096-11.752 11.544-11.752 6.344 0 11.544 5.304 11.544 11.752v31.824h10.816v-32.656c0-13.936-8.944-21.632-19.032-21.632z" fill="#fff"/></svg>