<svg width="100" height="100" viewBox="0 0 100 100" fill="none" xmlns="http://www.w3.org/2000/svg">
<path fill-rule="evenodd" clip-rule="evenodd" d="M8 18H91V80H8V18Z" fill="#1A202C"/>
<path d="M15.2695 64V60.582L20.0742 59.9961V40.7383H15.2109V37.4766L25.7578 35.5625V59.9961L30.5625 60.582V64H15.2695Z" fill="white"/>
<path d="M32.9648 64V60.582L37.7695 59.9961V40.7383H32.9062V37.4766L43.4531 35.5625V59.9961L48.2578 60.582V64H32.9648Z" fill="white"/>
<path d="M59.6836 64.4102C58.1081 64.4102 56.6367 64.2604 55.2695 63.9609C53.9154 63.6615 52.6133 63.2318 51.3633 62.6719L51.3047 56.6953H55.2695L56.0312 59.7422C56.474 59.9635 56.9557 60.1393 57.4766 60.2695C58.0104 60.3997 58.6159 60.4648 59.293 60.4648C60.569 60.4648 61.4674 60.2565 61.9883 59.8398C62.5091 59.4232 62.7695 58.9023 62.7695 58.2773C62.7695 57.6914 62.4896 57.1771 61.9297 56.7344C61.3698 56.2786 60.2695 55.8815 58.6289 55.543C56.1159 55.0221 54.2669 54.2148 53.082 53.1211C51.9102 52.0273 51.3242 50.6276 51.3242 48.9219C51.3242 47.763 51.6172 46.6953 52.2031 45.7188C52.8021 44.7422 53.707 43.9674 54.918 43.3945C56.1419 42.8086 57.7044 42.5156 59.6055 42.5156C61.194 42.5156 62.6458 42.6719 63.9609 42.9844C65.2891 43.2839 66.4023 43.681 67.3008 44.1758L67.3594 49.957H63.4141L62.8086 47.1836C62.0534 46.6628 61.1029 46.4023 59.957 46.4023C58.9674 46.4023 58.1992 46.6107 57.6523 47.0273C57.1185 47.431 56.8516 47.9453 56.8516 48.5703C56.8516 49.1172 57.0859 49.612 57.5547 50.0547C58.0365 50.4844 59.0846 50.8815 60.6992 51.2461C63.3164 51.8451 65.224 52.6458 66.4219 53.6484C67.6198 54.638 68.2188 56.0312 68.2188 57.8281C68.2188 59.7943 67.5026 61.3828 66.0703 62.5938C64.651 63.8047 62.5221 64.4102 59.6836 64.4102Z" fill="white"/>
<path d="M79.1172 64.4102C77.151 64.4102 75.6341 63.8698 74.5664 62.7891C73.5117 61.7083 72.9844 59.9961 72.9844 57.6523V46.8711H70.0742V42.8672H72.9844V37.6914H78.668V42.8672H82.5547V46.8711H78.668V57.6328C78.668 58.4531 78.8372 59.0391 79.1758 59.3906C79.5273 59.7422 80.0026 59.918 80.6016 59.918C80.9141 59.918 81.2526 59.8984 81.6172 59.8594C81.9818 59.8073 82.2943 59.7552 82.5547 59.7031L83.043 63.8242C82.4701 63.9935 81.8385 64.1302 81.1484 64.2344C80.4583 64.3516 79.7812 64.4102 79.1172 64.4102Z" fill="white"/>
</svg>
