<?xml version="1.0" encoding="utf-8"?>
<!-- Generator: Adobe Illustrator 16.0.0, SVG Export Plug-In . SVG Version: 6.00 Build 0)  -->
<!DOCTYPE svg PUBLIC "-//W3C//DTD SVG 1.1//EN" "http://www.w3.org/Graphics/SVG/1.1/DTD/svg11.dtd">
<svg version="1.1" id="Layer_1" xmlns="http://www.w3.org/2000/svg" xmlns:xlink="http://www.w3.org/1999/xlink" x="0px" y="0px"
	 width="250px" height="250px" viewBox="0 0 250 250" enable-background="new 0 0 250 250" xml:space="preserve">
<polygon fill="none" points="149.13,131.541 163.796,157.052 185.146,157.052 160.044,112.765 "/>
<polygon fill="none" points="101.423,131.371 90.834,112.883 65.183,157.055 86.516,157.055 "/>
<path fill="none" d="M138.445,112.951l8.101,14.093l21.688-37.315l0.324-0.562c0.102-0.173,0.225-0.33,0.361-0.467
	c0.415-0.413,0.98-0.653,1.582-0.653c0.003,0,0.004,0,0.004,0c0.003,0,0.003,0,0.003,0c0.083,0.001,0.161,0.023,0.243,0.033
	c0.508,0.058,0.98,0.269,1.34,0.625c0.139,0.139,0.26,0.297,0.359,0.47l59.29,103.166l7.981-14.099L170.566,57.621L138.445,112.951z
	"/>
<polygon fill="none" points="112.842,157.052 116.133,157.052 114.498,154.199 "/>
<path fill="#243248" d="M244.259,177.119L172.529,52.006c-0.102-0.177-0.223-0.334-0.361-0.473
	c-0.018-0.017-0.037-0.026-0.055-0.042c-0.125-0.118-0.258-0.227-0.408-0.313c-0.025-0.015-0.061-0.021-0.087-0.035
	c-0.144-0.076-0.291-0.146-0.45-0.188c-0.059-0.016-0.123-0.014-0.184-0.024c-0.133-0.024-0.262-0.054-0.398-0.054
	c-0.002,0-0.004,0-0.007,0h-21.142c-0.803,0-1.541,0.426-1.941,1.119L125.343,90.16L103.44,52.058
	c-0.01-0.019-0.013-0.04-0.024-0.059c-0.401-0.697-1.144-1.128-1.949-1.126l-21.225,0.005c-0.801,0-1.542,0.426-1.943,1.119
	L5.743,177.104c-0.002,0.004-0.002,0.008-0.005,0.013c-0.002,0.003-0.005,0.005-0.007,0.01c-0.041,0.073-0.059,0.153-0.092,0.229
	c-0.044,0.104-0.097,0.203-0.125,0.312c-0.021,0.08-0.021,0.163-0.033,0.244c-0.016,0.112-0.04,0.223-0.039,0.336
	c0,0.085,0.022,0.169,0.033,0.255c0.013,0.107,0.018,0.217,0.047,0.322c0.024,0.09,0.072,0.174,0.108,0.262
	c0.036,0.09,0.061,0.182,0.109,0.27c0.004,0.004,0.009,0.01,0.013,0.016s0.005,0.014,0.009,0.021l11.229,18.644
	c0.407,0.677,1.137,1.088,1.926,1.088l143.839,0.001c0.009,0,0.013,0.003,0.021,0.003c0.002,0,0.002,0,0.004,0
	c0.006,0,0.013-0.003,0.019-0.003h68.96c0.001,0,0.003,0,0.006,0h0.002c0.002,0,0.006,0,0.01,0c0.185-0.003,0.359-0.031,0.531-0.074
	c0.041-0.01,0.082-0.023,0.125-0.035c0.139-0.046,0.271-0.103,0.397-0.17c0.032-0.019,0.065-0.035,0.099-0.053
	c0.315-0.193,0.576-0.461,0.764-0.777c0.007-0.013,0.018-0.021,0.021-0.031l10.555-18.641
	C244.658,178.652,244.654,177.807,244.259,177.119z M231.742,192.341l-59.29-103.166c-0.101-0.173-0.222-0.331-0.359-0.47
	c-0.358-0.356-0.832-0.567-1.34-0.625c-0.082-0.01-0.16-0.032-0.243-0.033c0,0,0,0-0.003,0c0,0-0.001,0-0.004,0
	c-0.601,0-1.167,0.24-1.582,0.653c-0.138,0.137-0.261,0.294-0.36,0.467l-0.326,0.562l-21.688,37.315l-8.102-14.093l32.121-55.33
	l69.158,120.621L231.742,192.341z M101.455,57.622l68.04,118.364l-16.109,0.002l-0.471-0.82l-49.399-86.241
	c-0.307-0.535-0.814-0.908-1.396-1.057c-0.195-0.056-0.399-0.088-0.607-0.088c-0.002,0-0.004,0-0.007,0
	c-0.8,0-1.541,0.425-1.943,1.118l-39.577,68.155H43.649L101.455,57.622z M112.842,157.052l1.656-2.853l1.635,2.853H112.842z
	 M195.876,175.98h-21.2l-8.296-14.433h21.313L195.876,175.98z M163.796,157.052l-14.666-25.511l10.914-18.776l25.103,44.287H163.796
	z M90.834,112.883l10.589,18.488l-14.907,25.684H65.183L90.834,112.883z M166.676,55.37l-30.816,53.082l-7.93-13.794l22.803-39.288
	H166.676z M97.562,55.368l-56.103,96.51l-3.66,6.297c-0.203,0.349-0.304,0.736-0.305,1.124c0,0.195,0.025,0.389,0.075,0.578
	c0.05,0.189,0.125,0.374,0.225,0.548c0.401,0.698,1.144,1.126,1.949,1.126l48.067-0.002c0.801,0,1.542-0.426,1.943-1.117
	l14.25-24.555l7.913,13.814l-4.922,8.48c-0.403,0.694-0.405,1.553-0.003,2.248c0.4,0.698,1.143,1.128,1.947,1.128h9.769
	l8.268,14.433l-115.386,0.002l69.949-120.61L97.562,55.368z M130.852,180.477c0.803,0,1.543-0.427,1.944-1.121
	c0.401-0.691,0.404-1.547,0.005-2.244l-39.349-68.702l8.096-13.875l48.584,84.819c0.401,0.698,1.146,1.129,1.951,1.129l47.651-0.002
	c0.801,0,1.539-0.426,1.94-1.114c0.403-0.692,0.408-1.546,0.015-2.241l-39.021-68.845l7.826-13.489l57.379,99.84l-207.688-0.002
	l-8.521-14.146L130.852,180.477z"/>
<polygon fill="none" points="135.857,108.452 166.676,55.37 150.73,55.37 127.93,94.658 "/>
<path fill="none" d="M126.975,175.98l-8.268-14.433h-9.769c-0.804,0-1.547-0.43-1.947-1.128c-0.402-0.695-0.4-1.554,0.003-2.248
	l4.922-8.48l-7.913-13.814l-14.25,24.555c-0.402,0.691-1.143,1.117-1.943,1.117l-48.067,0.002c-0.805,0-1.548-0.428-1.949-1.126
	c-0.1-0.174-0.175-0.358-0.225-0.548c-0.05-0.189-0.075-0.383-0.075-0.578c0.001-0.388,0.103-0.775,0.305-1.124l3.66-6.297
	l56.103-96.51l-16.023,0.004l-69.95,120.61L126.975,175.98z"/>
<polygon fill="none" points="174.676,175.98 195.876,175.98 187.693,161.549 166.38,161.549 "/>
<path fill="none" d="M59.986,157.055L99.563,88.9c0.402-0.693,1.143-1.118,1.943-1.118c0.003,0,0.005,0,0.007,0
	c0.208,0,0.412,0.032,0.607,0.088c0.582,0.148,1.089,0.521,1.396,1.057l49.399,86.241l0.471,0.82l16.109-0.002l-68.04-118.364
	l-57.806,99.435L59.986,157.055z"/>
<path fill="none" d="M227.874,194.63l-57.379-99.84l-7.826,13.489l39.021,68.845c0.396,0.694,0.391,1.549-0.014,2.241
	c-0.402,0.689-1.141,1.115-1.941,1.115l-47.65,0.002c-0.807,0-1.55-0.432-1.951-1.131l-48.584-84.818l-8.096,13.875l39.349,68.703
	c0.399,0.695,0.396,1.552-0.005,2.244c-0.4,0.693-1.143,1.119-1.945,1.119L11.665,180.48l8.521,14.146L227.874,194.63z"/>
</svg>
