<?xml version="1.0" encoding="utf-8"?>
<!-- Generator: Adobe Illustrator 16.0.0, SVG Export Plug-In . SVG Version: 6.00 Build 0)  -->
<!DOCTYPE svg PUBLIC "-//W3C//DTD SVG 1.1//EN" "http://www.w3.org/Graphics/SVG/1.1/DTD/svg11.dtd">
<svg version="1.1" id="Layer_1" xmlns="http://www.w3.org/2000/svg" xmlns:xlink="http://www.w3.org/1999/xlink" x="0px" y="0px"
	 width="26.417px" height="26.333px" viewBox="0 0 26.417 26.333" enable-background="new 0 0 26.417 26.333" xml:space="preserve">
<circle fill="#E0EBEE" stroke="#1994AC" stroke-width="12" stroke-miterlimit="10" cx="-146.346" cy="-378.25" r="63.333"/>
<circle fill="#1994AC" cx="-169.346" cy="-395.375" r="10"/>
<circle fill="#1994AC" cx="-123.346" cy="-395.375" r="10"/>
<path fill="none" stroke="#1994AC" stroke-width="10" stroke-linecap="round" stroke-miterlimit="10" d="M-169.925-341.443
	c0,0,22.338-22.045,46.227-0.045"/>
<g>
	<g>
		<circle fill="#E0EBEE" cx="-142.869" cy="-647.25" r="13.702"/>
		<path fill="#1994AC" d="M-142.869-632.25c-8.271,0-15-6.729-15-15s6.729-15,15-15s15,6.729,15,15S-134.598-632.25-142.869-632.25z
			 M-142.869-659.654c-6.839,0-12.404,5.564-12.404,12.404c0,6.84,5.564,12.404,12.404,12.404s12.404-5.564,12.404-12.404
			C-130.465-654.089-136.029-659.654-142.869-659.654z"/>
	</g>
	<circle fill="#1994AC" cx="-147.845" cy="-650.955" r="2.164"/>
	<circle fill="#1994AC" cx="-137.893" cy="-650.955" r="2.164"/>
	<path fill="#1994AC" d="M-147.969-638.208c-0.28,0-0.561-0.108-0.772-0.324c-0.417-0.426-0.413-1.107,0.011-1.525
		c0.056-0.055,5.635-5.432,11.494-0.036c0.439,0.405,0.468,1.089,0.063,1.528c-0.404,0.439-1.089,0.468-1.528,0.063
		c-1.815-1.671-3.769-2.198-5.806-1.568c-1.605,0.498-2.695,1.544-2.706,1.555C-147.423-638.31-147.696-638.208-147.969-638.208z"/>
</g>
<g>
	<g>
		<circle fill="#F9EBEC" cx="-144.702" cy="13.25" r="11.418"/>
		<path fill="#EF4747" d="M-144.702,25.75c-6.893,0-12.5-5.607-12.5-12.5s5.607-12.5,12.5-12.5s12.5,5.607,12.5,12.5
			S-137.809,25.75-144.702,25.75z M-144.702,2.914c-5.699,0-10.336,4.638-10.336,10.336c0,5.7,4.637,10.337,10.336,10.337
			s10.336-4.637,10.336-10.337C-134.365,7.552-139.002,2.914-144.702,2.914z"/>
	</g>
	<g>
		<circle fill="#EF4747" cx="-148.848" cy="10.162" r="1.803"/>
		<circle fill="#EF4747" cx="-140.555" cy="10.162" r="1.803"/>
		<path fill="#EF4747" d="M-148.952,20.785c-0.233,0-0.467-0.09-0.643-0.27c-0.348-0.354-0.344-0.921,0.009-1.271
			c0.046-0.046,4.695-4.525,9.578-0.029c0.366,0.338,0.39,0.908,0.053,1.274c-0.337,0.366-0.907,0.39-1.273,0.052
			c-1.513-1.394-3.141-1.832-4.838-1.307c-1.338,0.414-2.246,1.287-2.254,1.296C-148.497,20.7-148.725,20.785-148.952,20.785z"/>
	</g>
</g>
<circle fill="#E0EBEE" stroke="#1994AC" stroke-width="12" stroke-miterlimit="10" cx="68.321" cy="-384.25" r="63.333"/>
<circle fill="#1994AC" cx="45.321" cy="-401.375" r="10"/>
<circle fill="#1994AC" cx="91.321" cy="-401.375" r="10"/>
<path fill="none" stroke="#1994AC" stroke-width="10" stroke-linecap="round" stroke-miterlimit="10" d="M44.742-352.354
	c0,0,20.807,0.011,46.227,0.011"/>
<g>
	<g>
		<circle fill="#E0EBEE" cx="69.131" cy="-643.25" r="13.702"/>
		<path fill="#1994AC" d="M69.131-628.25c-8.271,0-15-6.729-15-15c0-8.271,6.729-15,15-15s15,6.729,15,15
			C84.131-634.979,77.403-628.25,69.131-628.25z M69.131-655.654c-6.84,0-12.404,5.564-12.404,12.404s5.564,12.404,12.404,12.404
			s12.404-5.564,12.404-12.404S75.971-655.654,69.131-655.654z"/>
	</g>
	<circle fill="#1994AC" cx="64.155" cy="-646.955" r="2.164"/>
	<circle fill="#1994AC" cx="74.107" cy="-646.955" r="2.164"/>
	<path fill="#1994AC" d="M74.031-635.266c-5.499,0-10.001-0.002-10.001-0.002c-0.598,0-1.082-0.484-1.081-1.082
		c0-0.598,0.484-1.081,1.081-1.081c0.001,0,0.001,0,0.001,0s4.501,0.002,10,0.002c0.598,0,1.082,0.484,1.082,1.082
		C75.113-635.75,74.628-635.266,74.031-635.266z"/>
</g>
<circle fill="#E0EBEE" stroke="#1994AC" stroke-width="12" stroke-miterlimit="10" cx="299.987" cy="-379.25" r="63.333"/>
<circle fill="#1994AC" cx="276.987" cy="-396.375" r="10"/>
<circle fill="#1994AC" cx="322.987" cy="-396.375" r="10"/>
<path fill="none" stroke="#1994AC" stroke-width="10" stroke-linecap="round" stroke-miterlimit="10" d="M276.408-352.254
	c0,0,22.338,22.045,46.227,0.045"/>
<g>
	<g>
		<circle fill="#E0EBEE" cx="300.798" cy="-641.25" r="13.702"/>
		<path fill="#1994AC" d="M300.798-626.25c-8.271,0-15-6.729-15-15s6.729-15,15-15s15,6.729,15,15S309.07-626.25,300.798-626.25z
			 M300.798-653.654c-6.84,0-12.403,5.564-12.403,12.404s5.563,12.404,12.403,12.404s12.403-5.564,12.403-12.404
			S307.638-653.654,300.798-653.654z"/>
	</g>
	<circle fill="#1994AC" cx="295.822" cy="-644.955" r="2.164"/>
	<circle fill="#1994AC" cx="305.774" cy="-644.955" r="2.164"/>
	<path fill="#1994AC" d="M300.856-632.203c-3.392,0-5.882-2.399-5.919-2.437c-0.425-0.42-0.43-1.104-0.01-1.529
		c0.419-0.425,1.102-0.43,1.527-0.013c0.022,0.021,1.108,1.06,2.705,1.554c2.037,0.632,3.99,0.104,5.806-1.567
		c0.439-0.405,1.124-0.377,1.528,0.062c0.405,0.439,0.377,1.124-0.062,1.528C304.476-632.804,302.553-632.203,300.856-632.203z"/>
</g>
<circle fill="#E0EBEE" stroke="#1994AC" stroke-width="12" stroke-miterlimit="10" cx="551.987" cy="-380.25" r="63.333"/>
<circle fill="#1994AC" cx="528.987" cy="-397.375" r="10"/>
<circle fill="#1994AC" cx="574.987" cy="-397.375" r="10"/>
<path fill="#1994AC" stroke="#1994AC" stroke-width="10" stroke-linecap="round" stroke-linejoin="round" stroke-miterlimit="10" d="
	M527.173-356.089c5.665,21.514,40.771,22.213,48.5,0H527.173z"/>
<g>
	<g>
		<circle fill="#E0EBEE" cx="550.798" cy="-639.25" r="13.702"/>
		<path fill="#1994AC" d="M550.798-624.25c-8.271,0-15-6.729-15-15c0-8.271,6.729-15,15-15s15,6.729,15,15
			C565.798-630.979,559.07-624.25,550.798-624.25z M550.798-651.654c-6.84,0-12.403,5.564-12.403,12.404s5.563,12.404,12.403,12.404
			s12.403-5.564,12.403-12.404S557.638-651.654,550.798-651.654z"/>
	</g>
	<circle fill="#1994AC" cx="545.822" cy="-642.955" r="2.164"/>
	<circle fill="#1994AC" cx="555.774" cy="-642.955" r="2.164"/>
	<g>
		<path fill="#1994AC" d="M545.43-634.022c1.226,4.654,8.82,4.806,10.492,0H545.43z"/>
		<path fill="#1994AC" d="M550.564-629.394L550.564-629.394c-3.011,0-5.494-1.75-6.18-4.354c-0.086-0.324-0.016-0.67,0.189-0.936
			c0.204-0.267,0.521-0.422,0.856-0.422h10.492c0.351,0,0.68,0.17,0.882,0.455c0.203,0.285,0.255,0.651,0.141,0.982
			C556.042-631.071,553.537-629.394,550.564-629.394z M547.184-632.941c0.866,1,2.243,1.385,3.379,1.385h0.001
			c1.118,0,2.505-0.386,3.463-1.385H547.184z"/>
	</g>
</g>
<g>
	<circle fill="#E0EBEE" cx="-396.013" cy="-380.25" r="63.333"/>
	<path fill="#1994AC" d="M-396.013-310.917c-38.23,0-69.333-31.103-69.333-69.333s31.103-69.333,69.333-69.333
		s69.333,31.103,69.333,69.333S-357.783-310.917-396.013-310.917z M-396.013-437.583c-31.614,0-57.333,25.72-57.333,57.333
		c0,31.613,25.719,57.333,57.333,57.333s57.333-25.72,57.333-57.333C-338.68-411.864-364.399-437.583-396.013-437.583z"/>
</g>
<circle fill="#1994AC" cx="-419.013" cy="-397.375" r="10"/>
<circle fill="#1994AC" cx="-373.013" cy="-397.375" r="10"/>
<path fill="#1994AC" d="M-372.324-336.25c-1.917,0-3.745-1.107-4.572-2.972c-3.196-7.195-11.022-11.864-19.938-11.894
	c-0.028,0-0.058,0-0.086,0c-8.743,0-15.972,4.452-19.351,11.925c-1.138,2.516-4.101,3.634-6.616,2.495
	c-2.516-1.138-3.634-4.1-2.496-6.616c4.97-10.989,15.87-17.804,28.464-17.804c0.04,0,0.078,0,0.117,0
	c12.851,0.043,24.251,7.044,29.043,17.835c1.121,2.523-0.016,5.478-2.54,6.599C-370.957-336.389-371.646-336.25-372.324-336.25z"/>
<g>
	<g>
		<circle fill="#E0EBEE" cx="-395.869" cy="-647.25" r="13.702"/>
		<path fill="#1994AC" d="M-395.869-632.25c-8.271,0-15-6.729-15-15s6.729-15,15-15s15,6.729,15,15S-387.598-632.25-395.869-632.25z
			 M-395.869-659.654c-6.839,0-12.404,5.564-12.404,12.404s5.564,12.404,12.404,12.404s12.404-5.564,12.404-12.404
			S-389.029-659.654-395.869-659.654z"/>
	</g>
	<circle fill="#1994AC" cx="-400.845" cy="-650.955" r="2.164"/>
	<circle fill="#1994AC" cx="-390.893" cy="-650.955" r="2.164"/>
	<path fill="#1994AC" d="M-390.744-637.73c-0.415,0-0.81-0.24-0.989-0.643c-0.691-1.558-2.384-2.567-4.313-2.573
		c-0.006-0.001-0.012-0.001-0.019-0.001c-1.892,0-3.456,0.964-4.187,2.58c-0.246,0.545-0.887,0.786-1.431,0.54
		c-0.544-0.246-0.786-0.887-0.54-1.432c1.075-2.377,3.434-3.852,6.158-3.852c0.009,0,0.017,0,0.025,0
		c2.78,0.01,5.247,1.524,6.284,3.858c0.242,0.546-0.004,1.186-0.55,1.428C-390.448-637.761-390.597-637.73-390.744-637.73z"/>
</g>
<ellipse fill="#E6E7E8" cx="557.131" cy="-101.881" rx="53.968" ry="13.667"/>
<g>
	<path fill="#2395B0" d="M593.394-137.454c-10.596,11.278-32.844,35.032-32.844,35.032c-1.88,2.007-4.965,2.016-6.856,0.02
		l-29.809-31.476c-1.892-1.996-4.937-5.309-6.768-7.36c0,0-2.397-2.687-2.405-2.692c-7.207-7.611-9.68-18.975-9.68-30.255
		c0-28.773,23.326-52.1,52.1-52.1c28.771,0,52.098,23.326,52.098,52.1c0,15.428-7.142,25.95-7.142,25.95
		c-1.544,2.275-4.3,5.821-6.123,7.879L593.394-137.454z"/>
</g>
<ellipse fill="#E6E7E8" cx="300.798" cy="-101.881" rx="53.968" ry="13.667"/>
<g>
	<path fill="#2395B0" d="M337.061-137.454c-10.596,11.278-32.844,35.032-32.844,35.032c-1.88,2.007-4.965,2.016-6.856,0.02
		l-29.809-31.476c-1.892-1.996-4.937-5.309-6.768-7.36c0,0-2.397-2.687-2.405-2.692c-7.207-7.611-9.68-18.975-9.68-30.255
		c0-28.773,23.326-52.1,52.1-52.1c28.771,0,52.098,23.326,52.098,52.1c0,15.428-7.142,25.95-7.142,25.95
		c-1.544,2.275-4.3,5.821-6.123,7.879L337.061-137.454z"/>
</g>
<ellipse fill="#E6E7E8" cx="69.131" cy="-101.881" rx="53.968" ry="13.667"/>
<g>
	<path fill="#2395B0" d="M105.394-137.454c-10.596,11.278-32.844,35.032-32.844,35.032c-1.88,2.007-4.965,2.016-6.856,0.02
		l-29.809-31.476c-1.891-1.996-4.936-5.309-6.767-7.36c0,0-2.397-2.687-2.405-2.692c-7.207-7.611-9.68-18.975-9.68-30.255
		c0-28.773,23.326-52.1,52.1-52.1c28.771,0,52.098,23.326,52.098,52.1c0,15.428-7.142,25.95-7.142,25.95
		c-1.544,2.275-4.3,5.821-6.123,7.879L105.394-137.454z"/>
</g>
<ellipse fill="#E6E7E8" cx="-142.869" cy="-101.881" rx="53.968" ry="13.667"/>
<g>
	<path fill="#2395B0" d="M-106.606-137.454c-10.596,11.278-32.844,35.032-32.844,35.032c-1.88,2.007-4.965,2.016-6.856,0.02
		l-29.81-31.476c-1.891-1.996-4.936-5.309-6.767-7.36c0,0-2.397-2.687-2.405-2.692c-7.207-7.611-9.68-18.975-9.68-30.255
		c0-28.773,23.326-52.1,52.1-52.1c28.771,0,52.098,23.326,52.098,52.1c0,15.428-7.141,25.95-7.141,25.95
		c-1.544,2.275-4.3,5.821-6.124,7.879L-106.606-137.454z"/>
</g>
<ellipse fill="#E6E7E8" cx="-395.869" cy="-101.881" rx="53.968" ry="13.667"/>
<g>
	<path fill="#2395B0" d="M-359.606-137.454c-10.596,11.278-32.844,35.032-32.844,35.032c-1.88,2.007-4.965,2.016-6.856,0.02
		l-29.81-31.476c-1.891-1.996-4.936-5.309-6.767-7.36c0,0-2.397-2.687-2.405-2.692c-7.207-7.611-9.68-18.975-9.68-30.255
		c0-28.773,23.326-52.1,52.1-52.1c28.771,0,52.098,23.326,52.098,52.1c0,15.428-7.141,25.95-7.141,25.95
		c-1.544,2.275-4.3,5.821-6.124,7.879L-359.606-137.454z"/>
</g>
<g>
	<circle fill="#E0EBEE" cx="-395.868" cy="-174.707" r="36.975"/>
	<path fill="#1994AC" d="M-395.868-134.23c-22.32,0-40.479-18.158-40.479-40.477c0-22.32,18.158-40.479,40.479-40.479
		c22.318,0,40.477,18.158,40.477,40.479C-355.391-152.389-373.549-134.23-395.868-134.23z M-395.868-208.18
		c-18.457,0-33.473,15.016-33.473,33.473c0,18.455,15.016,33.471,33.473,33.471s33.471-15.016,33.471-33.471
		C-362.397-193.164-377.411-208.18-395.868-208.18z"/>
</g>
<circle fill="#1994AC" cx="-409.296" cy="-184.705" r="5.839"/>
<circle fill="#1994AC" cx="-382.44" cy="-184.705" r="5.838"/>
<path fill="#1994AC" d="M-382.038-149.02c-1.119,0-2.188-0.646-2.67-1.735c-1.865-4.2-6.436-6.927-11.641-6.943
	c-0.016,0-0.033,0-0.049,0c-5.105,0-9.326,2.6-11.299,6.962c-0.664,1.468-2.393,2.121-3.861,1.457
	c-1.469-0.665-2.121-2.395-1.457-3.863c2.9-6.415,9.266-10.394,16.617-10.394c0.023,0,0.045,0,0.068,0
	c7.504,0.024,14.16,4.112,16.957,10.412c0.654,1.474-0.01,3.198-1.484,3.853C-381.241-149.101-381.643-149.02-382.038-149.02z"/>
<g>
	<g>
		<circle fill="#E0EBEE" cx="-142.869" cy="-174.73" r="37.255"/>
		<path fill="#1994AC" d="M-142.87-133.947c-22.487,0-40.783-18.293-40.783-40.783s18.296-40.783,40.783-40.783
			c22.488,0,40.784,18.293,40.784,40.783S-120.381-133.947-142.87-133.947z M-142.87-208.457c-18.595,0-33.725,15.13-33.725,33.727
			s15.13,33.727,33.725,33.727c18.596,0,33.726-15.13,33.726-33.727S-124.274-208.457-142.87-208.457z"/>
	</g>
	<path fill="#1994AC" d="M-150.516-184.805c0,3.25-2.634,5.884-5.883,5.884s-5.883-2.634-5.883-5.884
		c0-3.246,2.634-5.881,5.883-5.881S-150.516-188.051-150.516-184.805z"/>
	<path fill="#1994AC" d="M-123.457-184.805c0,3.25-2.634,5.884-5.883,5.884s-5.883-2.634-5.883-5.884
		c0-3.246,2.634-5.881,5.883-5.881S-123.457-188.051-123.457-184.805z"/>
	<path fill="#1994AC" d="M-156.737-150.144c-0.763,0-1.524-0.294-2.1-0.882c-1.134-1.157-1.121-3.01,0.031-4.147
		c0.152-0.149,15.32-14.769,31.25-0.095c1.194,1.099,1.271,2.957,0.171,4.152c-1.1,1.195-2.961,1.274-4.155,0.172
		c-4.935-4.543-10.246-5.977-15.785-4.262c-4.365,1.352-7.327,4.195-7.355,4.228C-155.253-150.423-155.995-150.144-156.737-150.144z
		"/>
</g>
<g>
	<g>
		<circle fill="#E0EBEE" cx="69.132" cy="-175.053" r="37.042"/>
		<path fill="#1994AC" d="M69.131-134.503c-22.36,0-40.55-18.192-40.55-40.55c0-22.36,18.189-40.551,40.55-40.551
			s40.551,18.19,40.551,40.551C109.682-152.695,91.492-134.503,69.131-134.503z M69.131-208.586c-18.49,0-33.53,15.042-33.53,33.533
			c0,18.49,15.04,33.532,33.53,33.532c18.491,0,33.533-15.042,33.533-33.532C102.665-193.544,87.623-208.586,69.131-208.586z"/>
	</g>
	<circle fill="#1994AC" cx="55.68" cy="-185.069" r="5.849"/>
	<circle fill="#1994AC" cx="82.584" cy="-185.069" r="5.849"/>
	<path fill="#1994AC" d="M82.376-153.469c-14.865,0-27.036-0.005-27.036-0.005c-1.616,0-2.926-1.31-2.923-2.925
		c0-1.616,1.309-2.924,2.923-2.924c0.002,0,0.002,0,0.002,0s12.168,0.007,27.033,0.007c1.616,0,2.925,1.309,2.925,2.925
		C85.301-154.778,83.993-153.469,82.376-153.469z"/>
</g>
<g>
	<g>
		<circle fill="#E0EBEE" cx="300.799" cy="-174.893" r="37.202"/>
		<path fill="#1994AC" d="M300.798-134.166c-22.457,0-40.727-18.269-40.727-40.727s18.27-40.727,40.727-40.727
			c22.459,0,40.727,18.269,40.727,40.727S323.257-134.166,300.798-134.166z M300.798-208.572c-18.57,0-33.676,15.108-33.676,33.68
			s15.105,33.68,33.676,33.68c18.572,0,33.678-15.108,33.678-33.68S319.371-208.572,300.798-208.572z"/>
	</g>
	<circle fill="#1994AC" cx="287.289" cy="-184.952" r="5.875"/>
	<circle fill="#1994AC" cx="314.309" cy="-184.952" r="5.874"/>
	<path fill="#1994AC" d="M300.955-150.329c-9.209,0-15.969-6.516-16.07-6.616c-1.152-1.14-1.166-2.998-0.025-4.151
		c1.137-1.153,2.99-1.167,4.146-0.034c0.061,0.059,3.01,2.877,7.344,4.219c5.531,1.716,10.834,0.28,15.764-4.257
		c1.193-1.1,3.053-1.023,4.15,0.171c1.1,1.191,1.023,3.051-0.17,4.148C310.785-151.96,305.564-150.329,300.955-150.329z"/>
</g>
<g>
	<g>
		<circle fill="#E0EBEE" cx="557.132" cy="-175.074" r="37.011"/>
		<path fill="#1994AC" d="M557.132-134.558c-22.344,0-40.518-18.178-40.518-40.517c0-22.344,18.174-40.518,40.518-40.518
			c22.343,0,40.517,18.174,40.517,40.518C597.649-152.735,579.475-134.558,557.132-134.558z M557.132-208.58
			c-18.477,0-33.503,15.03-33.503,33.506s15.026,33.505,33.503,33.505c18.476,0,33.502-15.029,33.502-33.505
			S575.608-208.58,557.132-208.58z"/>
	</g>
	<circle fill="#1994AC" cx="543.691" cy="-185.083" r="5.844"/>
	<circle fill="#1994AC" cx="570.573" cy="-185.083" r="5.844"/>
	<g>
		<path fill="#1994AC" d="M542.632-160.954c3.31,12.571,23.825,12.98,28.34,0H542.632z"/>
		<path fill="#1994AC" d="M556.499-148.452h-0.003c-8.13,0-14.837-4.726-16.689-11.759c-0.232-0.875-0.042-1.809,0.513-2.527
			c0.552-0.72,1.405-1.138,2.313-1.138h28.34c0.947,0,1.836,0.458,2.383,1.228c0.549,0.771,0.688,1.759,0.38,2.654
			C571.294-152.982,564.529-148.452,556.499-148.452z M547.37-158.034c2.34,2.701,6.059,3.74,9.126,3.74h0.003
			c3.02,0,6.767-1.042,9.354-3.74H547.37z"/>
	</g>
</g>
<g>
	<g>
		<circle fill="#E1EFDC" cx="-75.743" cy="13.166" r="11.418"/>
		<path fill="#5FAF46" d="M-75.743,25.666c-6.893,0-12.5-5.607-12.5-12.5s5.607-12.5,12.5-12.5s12.5,5.607,12.5,12.5
			S-68.85,25.666-75.743,25.666z M-75.743,2.83c-5.7,0-10.336,4.637-10.336,10.336c0,5.701,4.636,10.338,10.336,10.338
			s10.336-4.637,10.336-10.338C-65.407,7.467-70.043,2.83-75.743,2.83z"/>
	</g>
	<circle fill="#58AD46" cx="-79.89" cy="10.078" r="1.803"/>
	<circle fill="#58AD46" cx="-71.596" cy="10.078" r="1.803"/>
	<path fill="#58AD46" d="M-75.695,20.705c-2.826,0-4.901-1.998-4.932-2.029c-0.354-0.35-0.358-0.922-0.008-1.275
		c0.349-0.354,0.918-0.357,1.273-0.01c0.019,0.018,0.923,0.883,2.254,1.295c1.698,0.525,3.325,0.086,4.838-1.307
		c0.366-0.338,0.937-0.314,1.273,0.053c0.338,0.365,0.314,0.936-0.052,1.273C-72.678,20.205-74.281,20.705-75.695,20.705z"/>
</g>
<g>
	<circle fill="#FDFAD6" cx="13.208" cy="13.25" r="11.418"/>
	<path fill="#FEC70E" d="M13.208,25.75c-6.893,0-12.5-5.607-12.5-12.5s5.607-12.5,12.5-12.5s12.5,5.607,12.5,12.5
		S20.102,25.75,13.208,25.75z M13.208,2.913c-5.7,0-10.336,4.637-10.336,10.337s4.637,10.337,10.336,10.337
		S23.545,18.95,23.545,13.25S18.908,2.913,13.208,2.913z"/>
</g>
<circle fill="#FEC70E" cx="9.062" cy="10.162" r="1.803"/>
<circle fill="#FEC70E" cx="17.355" cy="10.162" r="1.803"/>
<path fill="#FEC70E" d="M17.457,18.521c-4.544,0.593-8.265,1.076-8.265,1.076c-0.493,0.063-0.946-0.284-1.009-0.778
	c-0.064-0.494,0.284-0.946,0.777-1.01c0.001,0,0.001,0,0.001,0s3.72-0.482,8.264-1.074c0.494-0.064,0.946,0.283,1.011,0.777
	C18.298,18.005,17.95,18.458,17.457,18.521z"/>
<path fill="none" stroke="#1994AC" stroke-width="3" stroke-linecap="round" stroke-miterlimit="10" d="M62.655,24.472
	c0,0,20.807,0.011,46.227,0.011"/>
</svg>
