<?xml version="1.0" encoding="utf-8"?>
<!-- Generator: Adobe Illustrator 16.0.0, SVG Export Plug-In . SVG Version: 6.00 Build 0)  -->
<!DOCTYPE svg PUBLIC "-//W3C//DTD SVG 1.1//EN" "http://www.w3.org/Graphics/SVG/1.1/DTD/svg11.dtd">
<svg version="1.1" id="Layer_1" xmlns="http://www.w3.org/2000/svg" xmlns:xlink="http://www.w3.org/1999/xlink" x="0px" y="0px"
	 width="150px" height="150px" viewBox="0 0 150 150" enable-background="new 0 0 150 150" xml:space="preserve">
<circle fill="#E0EBEE" stroke="#1994AC" stroke-width="12" stroke-miterlimit="10" cx="-372.145" cy="78" r="63.333"/>
<circle fill="#1994AC" cx="-395.145" cy="60.875" r="10"/>
<circle fill="#1994AC" cx="-349.145" cy="60.875" r="10"/>
<path fill="none" stroke="#1994AC" stroke-width="10" stroke-linecap="round" stroke-miterlimit="10" d="M-395.724,114.807
	c0,0,22.338-22.045,46.227-0.045"/>
<g>
	<g>
		<circle fill="#E0EBEE" cx="-368.667" cy="-191" r="13.702"/>
		<path fill="#1994AC" d="M-368.667-176c-8.271,0-15-6.729-15-15s6.729-15,15-15s15,6.729,15,15S-360.396-176-368.667-176z
			 M-368.667-203.404c-6.839,0-12.404,5.564-12.404,12.404c0,6.84,5.564,12.404,12.404,12.404s12.404-5.564,12.404-12.404
			C-356.263-197.839-361.828-203.404-368.667-203.404z"/>
	</g>
	<circle fill="#1994AC" cx="-373.643" cy="-194.705" r="2.164"/>
	<circle fill="#1994AC" cx="-363.691" cy="-194.705" r="2.164"/>
	<path fill="#1994AC" d="M-373.768-181.958c-0.28,0-0.561-0.108-0.772-0.324c-0.417-0.426-0.413-1.107,0.011-1.525
		c0.056-0.055,5.635-5.432,11.494-0.036c0.439,0.405,0.468,1.089,0.063,1.528c-0.404,0.439-1.089,0.468-1.528,0.063
		c-1.815-1.671-3.769-2.198-5.806-1.568c-1.605,0.498-2.695,1.544-2.706,1.555C-373.222-182.06-373.495-181.958-373.768-181.958z"/>
</g>
<circle fill="#E0EBEE" stroke="#1994AC" stroke-width="12" stroke-miterlimit="10" cx="-157.478" cy="72" r="63.333"/>
<circle fill="#1994AC" cx="-180.478" cy="54.875" r="10"/>
<circle fill="#1994AC" cx="-134.478" cy="54.875" r="10"/>
<path fill="none" stroke="#1994AC" stroke-width="10" stroke-linecap="round" stroke-miterlimit="10" d="M-181.057,103.896
	c0,0,20.807,0.011,46.227,0.011"/>
<g>
	<g>
		<circle fill="#E0EBEE" cx="-156.667" cy="-187" r="13.702"/>
		<path fill="#1994AC" d="M-156.667-172c-8.271,0-15-6.729-15-15c0-8.271,6.729-15,15-15s15,6.729,15,15
			C-141.667-178.729-148.396-172-156.667-172z M-156.667-199.404c-6.84,0-12.404,5.564-12.404,12.404s5.564,12.404,12.404,12.404
			s12.404-5.564,12.404-12.404S-149.827-199.404-156.667-199.404z"/>
	</g>
	<circle fill="#1994AC" cx="-161.643" cy="-190.705" r="2.164"/>
	<circle fill="#1994AC" cx="-151.691" cy="-190.705" r="2.164"/>
	<path fill="#1994AC" d="M-151.768-179.016c-5.499,0-10.001-0.002-10.001-0.002c-0.598,0-1.082-0.484-1.081-1.082
		c0-0.598,0.484-1.081,1.081-1.081c0.001,0,0.001,0,0.001,0s4.501,0.002,10,0.002c0.598,0,1.082,0.484,1.082,1.082
		C-150.686-179.5-151.17-179.016-151.768-179.016z"/>
</g>
<circle fill="#E0EBEE" stroke="#1994AC" stroke-width="12" stroke-miterlimit="10" cx="74.188" cy="77" r="63.333"/>
<circle fill="#1994AC" cx="51.188" cy="59.875" r="10"/>
<circle fill="#1994AC" cx="97.188" cy="59.875" r="10"/>
<path fill="none" stroke="#1994AC" stroke-width="10" stroke-linecap="round" stroke-miterlimit="10" d="M50.609,103.996
	c0,0,22.338,22.045,46.227,0.045"/>
<g>
	<g>
		<circle fill="#E0EBEE" cx="75" cy="-185" r="13.702"/>
		<path fill="#1994AC" d="M75-170c-8.271,0-15-6.729-15-15s6.729-15,15-15s15,6.729,15,15S83.271-170,75-170z M75-197.404
			c-6.84,0-12.403,5.564-12.403,12.404S68.16-172.596,75-172.596S87.403-178.16,87.403-185S81.84-197.404,75-197.404z"/>
	</g>
	<circle fill="#1994AC" cx="70.024" cy="-188.705" r="2.164"/>
	<circle fill="#1994AC" cx="79.976" cy="-188.705" r="2.164"/>
	<path fill="#1994AC" d="M75.058-175.953c-3.392,0-5.882-2.399-5.919-2.437c-0.425-0.42-0.43-1.104-0.01-1.529
		c0.419-0.425,1.102-0.43,1.527-0.013c0.022,0.021,1.108,1.06,2.705,1.554c2.037,0.632,3.99,0.104,5.806-1.567
		c0.439-0.405,1.124-0.377,1.528,0.062c0.405,0.439,0.377,1.124-0.062,1.528C78.678-176.554,76.755-175.953,75.058-175.953z"/>
</g>
<circle fill="#E0EBEE" stroke="#1994AC" stroke-width="12" stroke-miterlimit="10" cx="326.188" cy="76" r="63.333"/>
<circle fill="#1994AC" cx="303.188" cy="58.875" r="10"/>
<circle fill="#1994AC" cx="349.188" cy="58.875" r="10"/>
<ellipse fill="#E6E7E8" cx="256.333" cy="465.75" rx="38.5" ry="9.75"/>
<g>
	<path fill="#1994AC" d="M282.955,439.631c-7.559,8.046-23.197,24.692-23.197,24.692c-1.883,2.005-4.971,2.011-6.862,0.015
		l-19.295-20.374c-1.892-1.996-4.937-5.309-6.769-7.36c0,0-0.756-0.847-0.76-0.852c-5.143-5.43-6.906-13.536-6.906-21.584
		c0-20.526,16.641-37.167,37.167-37.167s37.167,16.641,37.167,37.167c0,8.062-4.654,17.164-4.654,17.164
		c-1.252,2.449-3.817,6.092-5.7,8.096L282.955,439.631z"/>
</g>
<path fill="#1994AC" stroke="#1994AC" stroke-width="10" stroke-linecap="round" stroke-linejoin="round" stroke-miterlimit="10" d="
	M301.375,100.161c5.665,21.514,40.771,22.213,48.5,0H301.375z"/>
<g>
	<g>
		<circle fill="#E0EBEE" cx="325" cy="-183" r="13.702"/>
		<path fill="#1994AC" d="M325-168c-8.271,0-15-6.729-15-15c0-8.271,6.729-15,15-15s15,6.729,15,15C340-174.729,333.271-168,325-168
			z M325-195.404c-6.84,0-12.403,5.564-12.403,12.404s5.563,12.404,12.403,12.404s12.403-5.564,12.403-12.404
			S331.84-195.404,325-195.404z"/>
	</g>
	<circle fill="#1994AC" cx="320.024" cy="-186.705" r="2.164"/>
	<circle fill="#1994AC" cx="329.976" cy="-186.705" r="2.164"/>
	<g>
		<path fill="#1994AC" d="M319.632-177.772c1.226,4.654,8.82,4.806,10.492,0H319.632z"/>
		<path fill="#1994AC" d="M324.766-173.144L324.766-173.144c-3.011,0-5.494-1.75-6.18-4.354c-0.086-0.324-0.016-0.67,0.189-0.936
			c0.204-0.267,0.521-0.422,0.856-0.422h10.492c0.351,0,0.68,0.17,0.882,0.455c0.203,0.285,0.255,0.651,0.141,0.982
			C330.243-174.821,327.738-173.144,324.766-173.144z M321.386-176.691c0.866,1,2.243,1.385,3.379,1.385h0.001
			c1.118,0,2.505-0.386,3.463-1.385H321.386z"/>
	</g>
</g>
<circle fill="#E0EBEE" stroke="#1994AC" stroke-width="12" stroke-miterlimit="10" cx="-621.812" cy="76" r="63.333"/>
<circle fill="#1994AC" cx="-644.812" cy="58.875" r="10"/>
<circle fill="#1994AC" cx="-598.812" cy="58.875" r="10"/>
<path fill="none" stroke="#1994AC" stroke-width="10" stroke-linecap="round" stroke-linejoin="round" stroke-miterlimit="10" d="
	M-646.625,114.999c9.395-20.776,40.133-18.839,48.5,0"/>
<g>
	<g>
		<circle fill="#E0EBEE" cx="-621.667" cy="-191" r="13.702"/>
		<path fill="#1994AC" d="M-621.667-176c-8.271,0-15-6.729-15-15s6.729-15,15-15s15,6.729,15,15S-613.396-176-621.667-176z
			 M-621.667-203.404c-6.839,0-12.404,5.564-12.404,12.404s5.564,12.404,12.404,12.404s12.404-5.564,12.404-12.404
			S-614.828-203.404-621.667-203.404z"/>
	</g>
	<circle fill="#1994AC" cx="-626.643" cy="-194.705" r="2.164"/>
	<circle fill="#1994AC" cx="-616.691" cy="-194.705" r="2.164"/>
	<path fill="#1994AC" d="M-616.542-181.48c-0.415,0-0.81-0.24-0.989-0.643c-0.691-1.558-2.384-2.567-4.313-2.573
		c-0.006-0.001-0.012-0.001-0.019-0.001c-1.892,0-3.456,0.964-4.187,2.58c-0.246,0.545-0.887,0.786-1.431,0.54
		c-0.544-0.246-0.786-0.887-0.54-1.432c1.075-2.377,3.434-3.852,6.158-3.852c0.009,0,0.017,0,0.025,0
		c2.78,0.01,5.247,1.524,6.284,3.858c0.242,0.546-0.004,1.186-0.55,1.428C-616.246-181.511-616.395-181.48-616.542-181.48z"/>
</g>
</svg>
