<?xml version="1.0" encoding="utf-8"?>
<!-- Generator: Adobe Illustrator 16.0.0, SVG Export Plug-In . SVG Version: 6.00 Build 0)  -->
<!DOCTYPE svg PUBLIC "-//W3C//DTD SVG 1.1//EN" "http://www.w3.org/Graphics/SVG/1.1/DTD/svg11.dtd">
<svg version="1.1" id="Layer_1" xmlns="http://www.w3.org/2000/svg" xmlns:xlink="http://www.w3.org/1999/xlink" x="0px" y="0px"
	 width="255.557px" height="62.257px" viewBox="0 0 255.557 62.257" enable-background="new 0 0 255.557 62.257"
	 xml:space="preserve">
<text transform="matrix(1 0 0 1 0 54.624)" fill="#1A94AC" font-family="'Aleo-BoldItalic'" font-size="42.2883" letter-spacing="-1">moodmemo</text>
<g>
	<path fill="#1A94AC" d="M222.488,0l-4.098,29.16v-0.003l-0.447,3.188l4.582-3.188h28.934L255.557,0H222.488z M247.837,25.512
		h-24.801l3.072-21.867h24.801L247.837,25.512z"/>
	<polygon fill="#1A94AC" points="237.271,9.864 248.127,9.864 248.509,7.151 237.652,7.151 	"/>
	<polygon fill="#1A94AC" points="226.353,15.493 247.337,15.493 247.718,12.78 226.735,12.78 	"/>
	<polygon fill="#1A94AC" points="239.505,20.92 246.574,20.92 246.956,18.207 239.888,18.207 	"/>
	<polygon fill="#1A94AC" points="225.591,20.92 234.667,20.92 235.048,18.207 225.972,18.207 	"/>
	<polygon fill="#1A94AC" points="227.145,9.864 233.218,9.864 233.599,7.151 227.527,7.151 	"/>
</g>
</svg>
