<?xml version="1.0" encoding="utf-8"?>
<!-- Generator: Adobe Illustrator 16.0.0, SVG Export Plug-In . SVG Version: 6.00 Build 0)  -->
<!DOCTYPE svg PUBLIC "-//W3C//DTD SVG 1.1//EN" "http://www.w3.org/Graphics/SVG/1.1/DTD/svg11.dtd">
<svg version="1.1" id="Layer_1" xmlns="http://www.w3.org/2000/svg" xmlns:xlink="http://www.w3.org/1999/xlink" x="0px" y="0px"
	 width="604px" height="123.763px" viewBox="-146.528 -27.743 604 123.763" enable-background="new -146.528 -27.743 604 123.763"
	 xml:space="preserve">
<g>
	<path fill="#FFFFFF" d="M-68.067,89.705l-0.686,5.601h-7.215H-87.73l3.819-31.097c0.381-3.109-0.014-5.45-1.186-7.023
		c-1.173-1.571-3.076-2.355-5.712-2.355c-1.205,0-2.35,0.204-3.433,0.617c-1.082,0.413-2.06,1.008-2.935,1.785
		c-0.875,0.776-1.604,1.756-2.193,2.929c-0.588,1.175-0.977,2.523-1.164,4.048l-1.139,9.265l-0.869,7.085l-0.653,5.306l-1.158,9.443
		h-11.809l3.817-31.095c0.401-3.271,0.036-5.65-1.099-7.146c-1.135-1.49-2.989-2.237-5.56-2.237c-1.681,0-3.313,0.42-4.894,1.262
		c-1.582,0.842-3.094,1.994-4.543,3.454l-2.317,18.871l-2.074,16.893h-11.758l2.417-19.685l2.423-19.733
		c-1.165-0.209-2.083-0.376-2.753-0.5c-0.671-0.124-1.135-0.208-1.389-0.256c-0.251-0.047-0.448-0.084-0.584-0.11
		c-1.548-0.34-2.221-1.331-2.018-2.977l0.688-5.601h7.215h7.192c1.522,0,2.434,0.714,2.735,2.143l0.319,3.621
		c0.974-0.954,1.979-1.827,3.013-2.621c1.036-0.795,2.122-1.477,3.25-2.047c1.133-0.57,2.333-1.024,3.595-1.357
		c1.263-0.332,2.625-0.5,4.087-0.5c3.08,0,5.508,0.834,7.288,2.5c1.777,1.667,2.99,3.882,3.637,6.644
		c0.958-1.617,2.081-3.006,3.37-4.168c1.284-1.156,2.654-2.1,4.11-2.832c1.453-0.729,2.971-1.271,4.556-1.619
		c1.583-0.35,3.153-0.525,4.708-0.525c2.696,0,5.042,0.414,7.039,1.24c1.994,0.826,3.607,2.031,4.84,3.618
		c1.235,1.59,2.084,3.526,2.55,5.812c0.466,2.287,0.518,4.907,0.154,7.857l-2.659,21.655c1.164,0.21,2.083,0.377,2.753,0.502
		c0.673,0.12,1.135,0.205,1.389,0.255c0.251,0.046,0.448,0.083,0.584,0.107C-68.535,87.07-67.862,88.062-68.067,89.705z"/>
	<path fill="#FFFFFF" d="M-27.398,47.443c2.826,1.176,5.153,2.842,6.982,5.001c1.829,2.159,3.125,4.794,3.887,7.905
		c0.761,3.11,0.904,6.587,0.435,10.432c-0.477,3.872-1.475,7.363-3.001,10.475c-1.526,3.11-3.471,5.761-5.835,7.954
		c-2.363,2.189-5.103,3.872-8.214,5.045c-3.113,1.178-6.496,1.762-10.146,1.762s-6.896-0.588-9.736-1.762
		c-2.84-1.173-5.183-2.855-7.023-5.045c-1.843-2.193-3.152-4.844-3.929-7.954c-0.777-3.111-0.928-6.603-0.452-10.475
		c0.472-3.845,1.477-7.321,3.019-10.432c1.539-3.111,3.498-5.746,5.875-7.905c2.375-2.159,5.13-3.825,8.258-5.001
		c3.128-1.175,6.517-1.762,10.168-1.762C-33.459,45.683-30.222,46.271-27.398,47.443z M-32.651,82.874
		c2.288-2.73,3.754-6.73,4.401-12.001c0.647-5.27,0.163-9.287-1.449-12.048c-1.612-2.763-4.453-4.144-8.517-4.144
		c-4.128,0-7.345,1.389-9.654,4.168c-2.308,2.776-3.785,6.787-4.429,12.023c-0.642,5.239-0.148,9.23,1.484,11.979
		c1.629,2.744,4.509,4.119,8.636,4.119C-38.115,86.971-34.94,85.607-32.651,82.874z"/>
	<path fill="#FFFFFF" d="M26.9,47.443c2.826,1.176,5.152,2.842,6.981,5.001c1.83,2.159,3.125,4.794,3.888,7.905
		c0.76,3.11,0.904,6.587,0.434,10.432c-0.476,3.872-1.475,7.363-3.001,10.475c-1.525,3.11-3.471,5.761-5.834,7.954
		c-2.364,2.189-5.104,3.872-8.215,5.045c-3.113,1.178-6.495,1.762-10.145,1.762s-6.897-0.588-9.737-1.762
		c-2.839-1.173-5.183-2.855-7.022-5.045c-1.842-2.193-3.152-4.844-3.929-7.954c-0.777-3.111-0.928-6.603-0.452-10.475
		c0.472-3.845,1.477-7.321,3.018-10.432c1.54-3.111,3.499-5.746,5.876-7.905c2.376-2.159,5.129-3.825,8.257-5.001
		c3.129-1.175,6.517-1.762,10.169-1.762C20.84,45.683,24.077,46.271,26.9,47.443z M21.646,82.874
		c2.288-2.73,3.755-6.73,4.402-12.001c0.646-5.27,0.164-9.287-1.45-12.048c-1.612-2.763-4.452-4.144-8.518-4.144
		c-4.127,0-7.345,1.389-9.653,4.168c-2.309,2.776-3.786,6.787-4.428,12.023c-0.644,5.239-0.15,9.23,1.482,11.979
		c1.63,2.744,4.509,4.119,8.637,4.119C16.183,86.971,19.356,85.607,21.646,82.874z"/>
	<path fill="#FFFFFF" d="M92.905,95.109h-6.642l-7.191,0.004c-0.762,0-1.391-0.177-1.888-0.525c-0.495-0.35-0.778-0.89-0.85-1.617
		l-0.397-4.527c-2.243,2.253-4.729,4.079-7.457,5.478c-2.727,1.396-5.805,2.096-9.233,2.096c-2.667,0-5.037-0.558-7.105-1.669
		c-2.071-1.112-3.778-2.724-5.121-4.834c-1.343-2.108-2.262-4.713-2.756-7.811s-0.494-6.646-0.002-10.642
		c0.448-3.648,1.355-7.032,2.722-10.144c1.365-3.111,3.103-5.81,5.208-8.094c2.105-2.288,4.532-4.071,7.275-5.359
		c2.746-1.287,5.723-1.927,8.928-1.927c2.762,0,5.051,0.42,6.87,1.263c1.819,0.841,3.398,2.008,4.738,3.5l2.004-16.322
		c-1.165-0.21-2.083-0.377-2.752-0.5c-0.668-0.121-1.13-0.208-1.386-0.255c-0.254-0.047-0.448-0.084-0.584-0.107
		c-1.548-0.341-2.22-1.334-2.018-2.98l0.688-5.599h7.211H94.93l-7.519,61.232c0.996,0.181,1.788,0.326,2.379,0.435
		c0.589,0.109,0.999,0.184,1.229,0.227c0.228,0.042,0.415,0.076,0.56,0.104c1.548,0.342,2.22,1.333,2.018,2.979L92.905,95.109z
		 M78.946,58.921c-1.131-1.653-2.443-2.804-3.933-3.454c-1.491-0.651-3.143-0.976-4.954-0.976c-1.777,0-3.43,0.333-4.956,0.999
		c-1.526,0.667-2.873,1.682-4.042,3.048c-1.167,1.367-2.147,3.088-2.944,5.168c-0.794,2.078-1.364,4.532-1.712,7.357
		c-0.351,2.854-0.417,5.275-0.203,7.262c0.216,1.985,0.678,3.595,1.385,4.832c0.704,1.236,1.631,2.143,2.784,2.715
		c1.153,0.572,2.508,0.858,4.063,0.858c2.442,0,4.594-0.517,6.45-1.546c1.856-1.033,3.646-2.485,5.369-4.359L78.946,58.921z"/>
	<path fill="#FFFFFF" d="M178.416,89.705l-0.689,5.601h-7.216H158.75l3.818-31.097c0.38-3.109-0.014-5.45-1.188-7.023
		c-1.173-1.571-3.074-2.355-5.709-2.355c-1.207,0-2.351,0.204-3.434,0.617c-1.082,0.413-2.06,1.008-2.935,1.785
		c-0.875,0.776-1.604,1.756-2.193,2.929c-0.587,1.175-0.977,2.523-1.164,4.048l-1.139,9.265l-0.869,7.085l-0.653,5.306l-1.158,9.443
		h-11.809l3.817-31.095c0.401-3.271,0.036-5.65-1.099-7.146c-1.135-1.49-2.989-2.237-5.56-2.237c-1.681,0-3.313,0.42-4.894,1.262
		c-1.582,0.842-3.094,1.994-4.543,3.454l-2.317,18.871l-2.074,16.893h-11.76l2.417-19.685l2.423-19.733
		c-1.165-0.209-2.083-0.376-2.753-0.5c-0.671-0.124-1.135-0.208-1.389-0.256c-0.251-0.047-0.448-0.084-0.584-0.11
		c-1.548-0.34-2.221-1.331-2.018-2.977l0.688-5.601h7.215h7.192c1.522,0,2.434,0.714,2.736,2.143l0.317,3.621
		c0.974-0.954,1.979-1.827,3.014-2.621c1.036-0.795,2.122-1.477,3.25-2.047c1.133-0.57,2.333-1.024,3.595-1.357
		c1.263-0.332,2.625-0.5,4.087-0.5c3.08,0,5.508,0.834,7.288,2.5c1.779,1.665,2.99,3.882,3.637,6.644
		c0.958-1.617,2.081-3.006,3.37-4.168c1.284-1.156,2.654-2.1,4.11-2.832c1.453-0.729,2.971-1.271,4.556-1.619
		c1.583-0.35,3.154-0.525,4.709-0.525c2.696,0,5.041,0.414,7.036,1.24c1.995,0.826,3.61,2.031,4.844,3.618
		c1.232,1.59,2.084,3.526,2.55,5.812c0.463,2.287,0.517,4.907,0.154,7.857l-2.662,21.655c1.166,0.21,2.086,0.377,2.754,0.502
		c0.672,0.12,1.133,0.205,1.387,0.255c0.254,0.046,0.449,0.083,0.584,0.107C177.943,87.07,178.617,88.062,178.416,89.705z"/>
	<path fill="#FFFFFF" d="M221.853,63.779c-0.871,1.809-2.435,3.428-4.691,4.858c-2.257,1.429-5.31,2.66-9.166,3.691
		c-3.858,1.029-8.77,1.848-14.738,2.45v0.619c0,7.682,3.254,11.522,9.764,11.522c1.395,0,2.633-0.133,3.713-0.403
		c1.079-0.271,2.021-0.598,2.832-0.976c0.811-0.382,1.538-0.811,2.189-1.287c0.651-0.476,1.256-0.904,1.813-1.284
		c0.553-0.383,1.102-0.705,1.64-0.978c0.54-0.27,1.127-0.403,1.763-0.403c0.381,0,0.761,0.088,1.143,0.261
		c0.379,0.177,0.697,0.438,0.951,0.786l3,3.62c-1.683,1.682-3.334,3.144-4.955,4.382c-1.619,1.239-3.269,2.255-4.953,3.048
		c-1.684,0.795-3.461,1.381-5.333,1.762c-1.874,0.382-3.922,0.572-6.144,0.572c-2.855,0-5.444-0.484-7.761-1.452
		c-2.317-0.968-4.302-2.336-5.953-4.095c-1.651-1.763-2.927-3.891-3.831-6.382c-0.905-2.49-1.358-5.279-1.358-8.357
		c0-2.571,0.28-5.096,0.834-7.572c0.557-2.478,1.357-4.824,2.408-7.048c1.044-2.222,2.335-4.269,3.856-6.144
		c1.524-1.871,3.245-3.49,5.168-4.856c1.922-1.365,4.03-2.43,6.331-3.19c2.301-0.764,4.771-1.145,7.407-1.145
		c2.572,0,4.818,0.366,6.739,1.095c1.921,0.731,3.524,1.675,4.809,2.832c1.287,1.16,2.245,2.451,2.881,3.881
		c0.634,1.43,0.953,2.828,0.953,4.191C223.163,59.968,222.725,61.97,221.853,63.779z M202.683,54.945
		c-1.363,0.65-2.593,1.563-3.688,2.739c-1.099,1.177-2.051,2.58-2.857,4.215c-0.811,1.636-1.452,3.422-1.928,5.359
		c3.935-0.539,7.102-1.127,9.498-1.763c2.397-0.634,4.256-1.333,5.573-2.094c1.315-0.764,2.189-1.57,2.618-2.427
		c0.43-0.859,0.643-1.778,0.643-2.762c0-0.478-0.104-0.969-0.309-1.477c-0.206-0.51-0.524-0.96-0.951-1.357
		c-0.43-0.395-0.986-0.729-1.669-1c-0.686-0.271-1.515-0.403-2.498-0.403C205.527,53.971,204.05,54.297,202.683,54.945z"/>
	<path fill="#FFFFFF" d="M306.727,89.705l-0.688,5.601h-7.216h-11.763l3.818-31.097c0.38-3.109-0.012-5.45-1.188-7.023
		c-1.171-1.571-3.074-2.355-5.707-2.355c-1.206,0-2.352,0.204-3.435,0.617s-2.062,1.008-2.935,1.785
		c-0.871,0.776-1.602,1.756-2.192,2.929c-0.59,1.175-0.978,2.523-1.164,4.048l-1.137,9.265l-0.868,7.085l-0.653,5.306l-1.16,9.443
		h-11.809l3.817-31.095c0.402-3.271,0.035-5.65-1.1-7.146c-1.138-1.49-2.988-2.237-5.559-2.237c-1.682,0-3.316,0.42-4.893,1.262
		c-1.583,0.842-3.096,1.994-4.544,3.454l-2.32,18.871l-2.072,16.893h-11.761h-0.002l2.418-19.685l2.422-19.733
		c-1.166-0.209-2.084-0.376-2.754-0.5c-0.673-0.122-1.132-0.208-1.387-0.256c-0.254-0.047-0.449-0.084-0.584-0.11
		c-1.548-0.34-2.22-1.331-2.019-2.977l0.689-5.601h7.214h7.191c1.523,0,2.436,0.714,2.737,2.143l0.318,3.621
		c0.972-0.954,1.979-1.827,3.01-2.621c1.037-0.795,2.122-1.477,3.253-2.047c1.133-0.57,2.333-1.024,3.594-1.357
		c1.264-0.332,2.625-0.5,4.086-0.5c3.077,0,5.508,0.834,7.287,2.5c1.778,1.667,2.991,3.882,3.639,6.644
		c0.958-1.617,2.08-3.006,3.369-4.168c1.284-1.156,2.655-2.1,4.111-2.832c1.45-0.729,2.969-1.271,4.556-1.619
		c1.582-0.35,3.153-0.525,4.709-0.525c2.694,0,5.041,0.414,7.036,1.24c1.993,0.826,3.606,2.031,4.844,3.618
		c1.232,1.59,2.083,3.526,2.546,5.812c0.467,2.287,0.519,4.907,0.154,7.857l-2.658,21.655c1.164,0.21,2.082,0.377,2.754,0.502
		c0.668,0.122,1.133,0.205,1.387,0.255c0.253,0.046,0.447,0.083,0.584,0.107C306.258,87.07,306.926,88.062,306.727,89.705z"/>
	<path fill="#FFFFFF" d="M347.395,47.443c2.824,1.176,5.15,2.842,6.982,5.001c1.83,2.159,3.125,4.794,3.885,7.905
		c0.763,3.11,0.906,6.587,0.437,10.432c-0.477,3.872-1.476,7.363-3,10.475c-1.525,3.11-3.473,5.761-5.835,7.954
		c-2.363,2.189-5.104,3.872-8.215,5.045c-3.115,1.178-6.495,1.762-10.148,1.762c-3.648,0-6.895-0.588-9.732-1.762
		c-2.841-1.173-5.182-2.855-7.025-5.045c-1.844-2.193-3.153-4.844-3.928-7.954c-0.777-3.111-0.927-6.603-0.451-10.475
		c0.473-3.845,1.479-7.321,3.02-10.432c1.54-3.111,3.499-5.746,5.874-7.905c2.376-2.159,5.128-3.825,8.257-5.001
		c3.128-1.175,6.518-1.762,10.171-1.762C341.333,45.683,344.571,46.271,347.395,47.443z M342.14,82.874
		c2.289-2.73,3.755-6.73,4.401-12.001c0.647-5.27,0.164-9.287-1.447-12.048c-1.613-2.763-4.454-4.144-8.516-4.144
		c-4.129,0-7.346,1.389-9.654,4.168c-2.311,2.776-3.785,6.787-4.431,12.023c-0.642,5.239-0.147,9.23,1.482,11.979
		c1.633,2.744,4.512,4.119,8.639,4.119C336.676,86.971,339.851,85.607,342.14,82.874z"/>
</g>
<path fill="#FFFFFF" d="M382.98-27.743l-14.342,73.901l11.085-8.21l65.075-0.012l12.673-65.679H382.98z M437.068,29.727h-55.866
	l9.504-49.258h55.867L437.068,29.727z"/>
<g>
	<polygon fill="#FFFFFF" points="415.071,-4.492 439.526,-4.492 440.706,-10.604 416.249,-10.604 	"/>
	<polygon fill="#FFFFFF" points="389.813,8.187 437.078,8.187 438.263,2.075 390.992,2.075 	"/>
	<polygon fill="#FFFFFF" points="418.801,20.413 434.722,20.413 435.9,14.3 419.98,14.3 	"/>
	<polygon fill="#FFFFFF" points="387.459,20.413 407.902,20.413 409.08,14.3 388.634,14.3 	"/>
	<polygon fill="#FFFFFF" points="392.262,-4.492 405.941,-4.492 407.121,-10.604 393.439,-10.604 	"/>
</g>
</svg>
