<?xml version="1.0" encoding="utf-8"?>
<!-- Generator: Adobe Illustrator 16.0.0, SVG Export Plug-In . SVG Version: 6.00 Build 0)  -->
<!DOCTYPE svg PUBLIC "-//W3C//DTD SVG 1.1//EN" "http://www.w3.org/Graphics/SVG/1.1/DTD/svg11.dtd">
<svg version="1.1" id="Layer_1" xmlns="http://www.w3.org/2000/svg" xmlns:xlink="http://www.w3.org/1999/xlink" x="0px" y="0px"
	 width="310px" height="95px" viewBox="0 0 310 95" enable-background="new 0 0 310 95" xml:space="preserve">
<g>
	<path fill="#FFFFFF" d="M41.802,62.395l-0.349,2.848h-3.669h-5.981l1.942-15.812c0.194-1.582-0.007-2.771-0.603-3.572
		c-0.596-0.799-1.564-1.198-2.904-1.198c-0.613,0-1.195,0.104-1.746,0.314c-0.55,0.21-1.047,0.513-1.492,0.908
		s-0.816,0.893-1.115,1.489c-0.299,0.598-0.497,1.283-0.592,2.059l-0.579,4.711l-0.442,3.603l-0.332,2.698l-0.589,4.802h-6.005
		l1.941-15.812c0.204-1.664,0.018-2.874-0.559-3.634c-0.577-0.758-1.52-1.138-2.827-1.138c-0.855,0-1.685,0.214-2.489,0.642
		c-0.804,0.428-1.573,1.014-2.31,1.756l-1.178,9.596l-1.055,8.59H2.89l1.229-10.01L5.351,45.2c-0.592-0.106-1.059-0.191-1.4-0.254
		c-0.341-0.063-0.577-0.106-0.706-0.13c-0.128-0.024-0.228-0.043-0.297-0.056c-0.787-0.173-1.129-0.677-1.026-1.514l0.35-2.848
		h3.669h3.657c0.774,0,1.238,0.363,1.391,1.09l0.162,1.841c0.495-0.485,1.006-0.929,1.532-1.333
		c0.527-0.404,1.079-0.751,1.653-1.041c0.576-0.29,1.186-0.521,1.828-0.69s1.335-0.254,2.078-0.254c1.566,0,2.801,0.424,3.706,1.271
		c0.904,0.848,1.521,1.974,1.85,3.378c0.487-0.822,1.058-1.528,1.713-2.119c0.653-0.588,1.35-1.068,2.09-1.44
		c0.739-0.371,1.511-0.646,2.317-0.823c0.805-0.178,1.603-0.267,2.394-0.267c1.371,0,2.564,0.21,3.579,0.63
		c1.014,0.42,1.834,1.033,2.461,1.84c0.628,0.808,1.06,1.793,1.297,2.955c0.237,1.163,0.263,2.495,0.078,3.996l-1.352,11.012
		c0.592,0.106,1.059,0.191,1.4,0.255c0.342,0.062,0.577,0.104,0.706,0.13c0.128,0.023,0.228,0.042,0.297,0.055
		C41.564,61.055,41.906,61.559,41.802,62.395z"/>
	<path fill="#FFFFFF" d="M62.482,40.904c1.437,0.598,2.62,1.445,3.55,2.543c0.93,1.098,1.589,2.438,1.977,4.02
		c0.387,1.582,0.46,3.35,0.221,5.305c-0.242,1.969-0.75,3.744-1.526,5.326s-1.765,2.93-2.967,4.045
		c-1.202,1.113-2.595,1.969-4.177,2.565c-1.583,0.599-3.303,0.896-5.159,0.896s-3.507-0.299-4.951-0.896
		c-1.444-0.597-2.635-1.452-3.571-2.565c-0.937-1.115-1.603-2.463-1.998-4.045s-0.472-3.357-0.23-5.326
		c0.24-1.955,0.751-3.723,1.535-5.305c0.783-1.582,1.779-2.922,2.988-4.02c1.208-1.098,2.608-1.945,4.199-2.543
		c1.591-0.598,3.314-0.896,5.171-0.896C59.4,40.009,61.046,40.308,62.482,40.904z M59.811,58.921
		c1.163-1.389,1.909-3.423,2.238-6.103c0.329-2.68,0.083-4.723-0.737-6.126c-0.82-1.405-2.264-2.107-4.331-2.107
		c-2.099,0-3.735,0.706-4.909,2.119c-1.174,1.412-1.925,3.451-2.252,6.114c-0.327,2.664-0.076,4.693,0.754,6.091
		c0.829,1.396,2.293,2.095,4.392,2.095C57.032,61.004,58.647,60.311,59.811,58.921z"/>
	<path fill="#FFFFFF" d="M90.093,40.904c1.437,0.598,2.62,1.445,3.55,2.543c0.93,1.098,1.589,2.438,1.977,4.02
		c0.387,1.582,0.46,3.35,0.221,5.305c-0.242,1.969-0.75,3.744-1.526,5.326s-1.765,2.93-2.967,4.045
		c-1.202,1.113-2.595,1.969-4.177,2.565c-1.583,0.599-3.303,0.896-5.159,0.896s-3.507-0.299-4.951-0.896s-2.635-1.452-3.571-2.565
		c-0.937-1.115-1.603-2.463-1.998-4.045s-0.472-3.357-0.23-5.326c0.24-1.955,0.751-3.723,1.535-5.305
		c0.783-1.582,1.779-2.922,2.988-4.02c1.208-1.098,2.608-1.945,4.199-2.543c1.591-0.598,3.314-0.896,5.171-0.896
		C87.011,40.009,88.657,40.308,90.093,40.904z M87.421,58.921c1.163-1.389,1.909-3.423,2.238-6.103
		c0.329-2.68,0.083-4.723-0.737-6.126c-0.82-1.405-2.264-2.107-4.331-2.107c-2.099,0-3.735,0.706-4.909,2.119
		c-1.174,1.412-1.925,3.451-2.252,6.114c-0.327,2.664-0.076,4.693,0.754,6.091c0.829,1.396,2.293,2.095,4.392,2.095
		C84.643,61.004,86.257,60.311,87.421,58.921z"/>
	<path fill="#FFFFFF" d="M123.656,65.143h-3.377l-3.657,0.002c-0.387,0-0.707-0.09-0.96-0.268c-0.252-0.178-0.396-0.452-0.432-0.822
		l-0.202-2.302c-1.141,1.146-2.405,2.074-3.792,2.785c-1.387,0.71-2.952,1.065-4.695,1.065c-1.356,0-2.561-0.283-3.613-0.849
		c-1.053-0.565-1.921-1.385-2.604-2.458c-0.683-1.072-1.15-2.396-1.401-3.972s-0.251-3.38-0.001-5.411
		c0.228-1.855,0.689-3.576,1.384-5.158c0.694-1.582,1.578-2.954,2.648-4.116c1.071-1.163,2.305-2.07,3.7-2.725
		c1.396-0.654,2.91-0.98,4.54-0.98c1.404,0,2.568,0.214,3.493,0.642c0.925,0.428,1.728,1.021,2.409,1.78l1.019-8.3
		c-0.592-0.107-1.059-0.192-1.399-0.254c-0.34-0.062-0.575-0.105-0.705-0.13c-0.129-0.024-0.228-0.043-0.297-0.055
		c-0.787-0.173-1.129-0.678-1.026-1.515l0.35-2.847h3.667h5.981l-3.823,31.137c0.506,0.092,0.909,0.166,1.209,0.221
		c0.3,0.056,0.508,0.094,0.625,0.115c0.116,0.021,0.211,0.039,0.285,0.053c0.787,0.174,1.129,0.678,1.026,1.515L123.656,65.143z
		 M116.558,46.74c-0.575-0.84-1.242-1.425-2-1.756c-0.758-0.331-1.598-0.496-2.519-0.496c-0.903,0-1.744,0.169-2.52,0.508
		s-1.461,0.855-2.055,1.55c-0.594,0.695-1.092,1.57-1.497,2.628c-0.404,1.057-0.694,2.305-0.871,3.741
		c-0.178,1.451-0.212,2.683-0.103,3.692c0.11,1.01,0.345,1.828,0.704,2.457c0.358,0.629,0.83,1.09,1.416,1.381
		c0.586,0.291,1.275,0.437,2.066,0.437c1.242,0,2.336-0.263,3.28-0.786c0.944-0.525,1.854-1.264,2.73-2.217L116.558,46.74z"/>
	<path fill="#FFFFFF" d="M167.139,62.395l-0.351,2.848h-3.669h-5.98l1.941-15.812c0.193-1.582-0.007-2.771-0.604-3.572
		c-0.597-0.799-1.563-1.198-2.903-1.198c-0.613,0-1.195,0.104-1.746,0.314c-0.55,0.21-1.047,0.513-1.492,0.908
		s-0.816,0.893-1.115,1.489c-0.299,0.598-0.497,1.283-0.592,2.059l-0.579,4.711l-0.442,3.603l-0.332,2.698l-0.589,4.802h-6.005
		l1.941-15.812c0.204-1.664,0.018-2.874-0.559-3.634c-0.577-0.758-1.52-1.138-2.827-1.138c-0.855,0-1.685,0.214-2.489,0.642
		c-0.804,0.428-1.573,1.014-2.31,1.756l-1.178,9.596l-1.055,8.59h-5.98l1.229-10.01l1.232-10.034
		c-0.592-0.106-1.059-0.191-1.4-0.254c-0.341-0.063-0.577-0.106-0.706-0.13c-0.128-0.024-0.228-0.043-0.297-0.056
		c-0.787-0.173-1.129-0.677-1.026-1.514l0.35-2.848h3.669h3.657c0.774,0,1.238,0.363,1.391,1.09l0.162,1.841
		c0.495-0.485,1.006-0.929,1.532-1.333c0.527-0.404,1.079-0.751,1.653-1.041c0.576-0.29,1.186-0.521,1.828-0.69
		s1.335-0.254,2.078-0.254c1.566,0,2.801,0.424,3.706,1.271c0.905,0.847,1.521,1.974,1.85,3.378
		c0.487-0.822,1.058-1.528,1.713-2.119c0.653-0.588,1.35-1.068,2.09-1.44c0.739-0.371,1.511-0.646,2.317-0.823
		c0.805-0.178,1.604-0.267,2.395-0.267c1.371,0,2.563,0.21,3.578,0.63s1.836,1.033,2.463,1.84c0.627,0.808,1.06,1.793,1.297,2.955
		c0.235,1.163,0.263,2.495,0.078,3.996l-1.354,11.012c0.593,0.106,1.061,0.191,1.4,0.255c0.342,0.062,0.576,0.104,0.705,0.13
		c0.129,0.023,0.229,0.042,0.297,0.055C166.898,61.055,167.241,61.559,167.139,62.395z"/>
	<path fill="#FFFFFF" d="M189.227,49.211c-0.443,0.92-1.238,1.743-2.386,2.471c-1.147,0.727-2.7,1.353-4.661,1.877
		c-1.962,0.523-4.459,0.939-7.494,1.246v0.314c0,3.906,1.654,5.859,4.965,5.859c0.709,0,1.339-0.067,1.888-0.205
		s1.028-0.304,1.44-0.496c0.412-0.194,0.782-0.412,1.113-0.654s0.639-0.46,0.922-0.653c0.281-0.194,0.561-0.358,0.834-0.497
		c0.274-0.137,0.573-0.205,0.896-0.205c0.193,0,0.387,0.045,0.581,0.133c0.192,0.09,0.354,0.223,0.483,0.399l1.525,1.841
		c-0.855,0.855-1.695,1.599-2.52,2.229c-0.823,0.63-1.662,1.146-2.519,1.55c-0.856,0.404-1.76,0.702-2.712,0.896
		c-0.953,0.194-1.994,0.291-3.124,0.291c-1.452,0-2.769-0.246-3.946-0.738c-1.179-0.492-2.188-1.188-3.027-2.082
		c-0.84-0.896-1.488-1.979-1.948-3.245s-0.69-2.685-0.69-4.25c0-1.308,0.143-2.591,0.424-3.851c0.283-1.26,0.69-2.453,1.225-3.583
		c0.531-1.13,1.188-2.171,1.961-3.124c0.775-0.952,1.65-1.775,2.628-2.47c0.978-0.694,2.05-1.235,3.22-1.622
		c1.17-0.388,2.426-0.582,3.767-0.582c1.308,0,2.45,0.186,3.427,0.557c0.977,0.372,1.792,0.852,2.445,1.44
		c0.654,0.59,1.142,1.247,1.465,1.974c0.322,0.727,0.484,1.438,0.484,2.131C189.893,47.273,189.67,48.291,189.227,49.211z
		 M179.479,44.719c-0.693,0.331-1.318,0.795-1.875,1.393c-0.559,0.598-1.043,1.312-1.453,2.143c-0.412,0.832-0.738,1.74-0.98,2.726
		c2.001-0.274,3.611-0.573,4.83-0.896c1.219-0.322,2.164-0.678,2.834-1.064c0.669-0.389,1.113-0.799,1.331-1.234
		c0.219-0.437,0.327-0.904,0.327-1.404c0-0.243-0.053-0.493-0.157-0.751c-0.104-0.259-0.267-0.488-0.483-0.69
		c-0.219-0.201-0.502-0.371-0.849-0.509c-0.349-0.137-0.771-0.205-1.271-0.205C180.925,44.223,180.174,44.389,179.479,44.719z"/>
	<path fill="#FFFFFF" d="M232.385,62.395l-0.35,2.848h-3.669h-5.981l1.941-15.812c0.193-1.582-0.006-2.771-0.604-3.572
		c-0.596-0.799-1.563-1.198-2.902-1.198c-0.613,0-1.195,0.104-1.746,0.314s-1.049,0.513-1.492,0.908s-0.814,0.893-1.115,1.489
		c-0.3,0.598-0.497,1.283-0.592,2.059l-0.578,4.711l-0.441,3.603l-0.332,2.698l-0.59,4.802h-6.005l1.941-15.812
		c0.204-1.664,0.018-2.874-0.56-3.634c-0.578-0.758-1.52-1.138-2.826-1.138c-0.855,0-1.687,0.214-2.488,0.642
		c-0.805,0.428-1.574,1.014-2.311,1.756l-1.18,9.596l-1.054,8.59h-5.98h-0.001l1.229-10.01l1.231-10.034
		c-0.593-0.106-1.06-0.191-1.4-0.254c-0.342-0.062-0.575-0.106-0.705-0.13c-0.129-0.024-0.229-0.043-0.297-0.056
		c-0.787-0.173-1.129-0.677-1.026-1.514l0.351-2.848h3.668h3.657c0.774,0,1.238,0.363,1.392,1.09l0.162,1.841
		c0.494-0.485,1.006-0.929,1.53-1.333c0.527-0.404,1.079-0.751,1.654-1.041c0.576-0.29,1.187-0.521,1.827-0.69
		c0.643-0.169,1.335-0.254,2.078-0.254c1.564,0,2.801,0.424,3.705,1.271c0.904,0.848,1.521,1.974,1.851,3.378
		c0.487-0.822,1.058-1.528,1.713-2.119c0.653-0.588,1.351-1.068,2.091-1.44c0.737-0.371,1.51-0.646,2.316-0.823
		c0.805-0.178,1.604-0.267,2.395-0.267c1.37,0,2.563,0.21,3.578,0.63c1.014,0.42,1.834,1.033,2.463,1.84
		c0.627,0.808,1.06,1.793,1.295,2.955c0.237,1.163,0.264,2.495,0.078,3.996l-1.352,11.012c0.592,0.106,1.059,0.191,1.4,0.255
		c0.34,0.062,0.576,0.104,0.705,0.13c0.129,0.023,0.228,0.042,0.297,0.055C232.146,61.055,232.486,61.559,232.385,62.395z"/>
	<path fill="#FFFFFF" d="M253.064,40.904c1.437,0.598,2.619,1.445,3.551,2.543c0.931,1.098,1.589,2.438,1.976,4.02
		c0.388,1.582,0.461,3.35,0.222,5.305c-0.242,1.969-0.75,3.744-1.525,5.326s-1.766,2.93-2.967,4.045
		c-1.202,1.113-2.596,1.969-4.178,2.565c-1.584,0.599-3.303,0.896-5.16,0.896c-1.855,0-3.506-0.299-4.949-0.896
		c-1.444-0.597-2.635-1.452-3.572-2.565c-0.938-1.115-1.604-2.463-1.997-4.045c-0.396-1.582-0.472-3.357-0.229-5.326
		c0.24-1.955,0.752-3.723,1.535-5.305s1.779-2.922,2.987-4.02c1.208-1.098,2.607-1.945,4.198-2.543
		c1.591-0.598,3.314-0.896,5.172-0.896C249.982,40.009,251.629,40.308,253.064,40.904z M250.393,58.921
		c1.164-1.389,1.909-3.423,2.238-6.103s0.083-4.723-0.736-6.126c-0.82-1.405-2.265-2.107-4.33-2.107c-2.1,0-3.735,0.706-4.909,2.119
		c-1.175,1.412-1.925,3.451-2.253,6.114c-0.326,2.664-0.075,4.693,0.754,6.091c0.83,1.396,2.294,2.095,4.393,2.095
		C247.614,61.004,249.229,60.311,250.393,58.921z"/>
</g>
<path fill="#FFFFFF" d="M271.16,2.672l-7.293,37.579l5.637-4.175l33.091-0.006l6.444-33.398H271.16z M298.664,31.895h-28.408
	l4.833-25.048h28.408L298.664,31.895z"/>
<g>
	<polygon fill="#FFFFFF" points="287.479,14.495 299.914,14.495 300.514,11.387 288.077,11.387 	"/>
	<polygon fill="#FFFFFF" points="274.635,20.942 298.669,20.942 299.271,17.834 275.234,17.834 	"/>
	<polygon fill="#FFFFFF" points="289.375,27.159 297.471,27.159 298.07,24.051 289.975,24.051 	"/>
	<polygon fill="#FFFFFF" points="273.438,27.159 283.833,27.159 284.432,24.051 274.035,24.051 	"/>
	<polygon fill="#FFFFFF" points="275.88,14.495 282.836,14.495 283.436,11.387 276.479,11.387 	"/>
</g>
<g>
	<path fill="#FFFFFF" d="M38.805,85.744c-0.252,0-0.492-0.108-0.647-0.324l-2.231-2.949l-0.624,0.742v1.691
		c0,0.455-0.384,0.84-0.864,0.84c-0.456,0-0.839-0.385-0.839-0.84v-6.465c0-0.455,0.384-0.84,0.864-0.84
		c0.456,0,0.839,0.385,0.839,0.84v2.807l2.639-3.334c0.144-0.191,0.384-0.288,0.611-0.288c0.432,0,0.816,0.349,0.816,0.78
		c0,0.18-0.06,0.359-0.18,0.503l-2.135,2.519l2.411,3.012c0.108,0.144,0.168,0.312,0.168,0.479
		C39.633,85.336,39.273,85.744,38.805,85.744z"/>
	<path fill="#FFFFFF" d="M45.669,83.261h-3.574c0.096,0.732,0.684,1.345,1.667,1.345c0.324,0,0.768-0.097,1.127-0.289
		c0.096-0.047,0.204-0.07,0.3-0.07c0.324,0,0.647,0.251,0.647,0.611c0,0.684-1.475,0.959-2.243,0.959
		c-1.763,0-3.094-1.188-3.094-3.047c0-1.679,1.235-3.033,2.999-3.033c1.307,0,2.303,0.755,2.71,1.955
		c0.084,0.264,0.168,0.586,0.168,0.875C46.377,82.938,46.065,83.261,45.669,83.261z M43.499,80.945
		c-0.948,0-1.355,0.709-1.427,1.283h2.854C44.89,81.678,44.506,80.945,43.499,80.945z"/>
	<path fill="#FFFFFF" d="M52.305,83.261h-3.574c0.096,0.732,0.684,1.345,1.667,1.345c0.324,0,0.768-0.097,1.127-0.289
		c0.096-0.047,0.204-0.07,0.3-0.07c0.324,0,0.647,0.251,0.647,0.611c0,0.684-1.475,0.959-2.243,0.959
		c-1.763,0-3.094-1.188-3.094-3.047c0-1.679,1.235-3.033,2.999-3.033c1.307,0,2.303,0.755,2.71,1.955
		c0.084,0.264,0.168,0.586,0.168,0.875C53.013,82.938,52.701,83.261,52.305,83.261z M50.135,80.945
		c-0.948,0-1.355,0.709-1.427,1.283h2.854C51.526,81.678,51.142,80.945,50.135,80.945z"/>
	<path fill="#FFFFFF" d="M57.454,85.814c-0.684,0-1.319-0.287-1.787-0.887v2.278c0,0.408-0.336,0.743-0.768,0.743
		c-0.42,0-0.756-0.335-0.756-0.743V80.55c0-0.407,0.336-0.743,0.78-0.743c0.408,0,0.744,0.336,0.744,0.743v0.06
		c0.444-0.562,1.079-0.875,1.787-0.875c1.487,0,2.566,1.104,2.566,3.035C60.02,84.699,58.941,85.814,57.454,85.814z M56.974,81.091
		c-0.492,0-1.055,0.287-1.307,0.659v2.051c0.252,0.36,0.815,0.66,1.307,0.66c0.875,0,1.463-0.684,1.463-1.691
		C58.438,81.773,57.85,81.091,56.974,81.091z"/>
	<path fill="#FFFFFF" d="M66.155,85.814c-1.068,0-1.643-0.551-1.643-1.582V81.21H64.14c-0.36,0-0.66-0.3-0.66-0.685
		c0-0.348,0.3-0.646,0.66-0.646h0.372V78.98c0-0.42,0.335-0.756,0.779-0.756c0.42,0,0.756,0.336,0.756,0.756v0.898h0.6
		c0.348,0,0.647,0.301,0.647,0.672c0,0.359-0.3,0.659-0.647,0.659h-0.6v2.615c0,0.454,0.288,0.636,0.527,0.636
		c0.036,0,0.096,0,0.132,0c0.432,0,0.672,0.287,0.672,0.659C67.378,85.504,67.15,85.814,66.155,85.814z"/>
	<path fill="#FFFFFF" d="M70.979,81.234c-0.468,0.06-0.912,0.252-1.188,0.61v3.144c0,0.42-0.336,0.756-0.744,0.756h-0.024
		c-0.42,0-0.756-0.336-0.756-0.756V80.55c0-0.407,0.336-0.743,0.78-0.743c0.408,0,0.744,0.336,0.744,0.743v0.12
		c0.288-0.384,0.671-0.84,1.247-0.84c0.444,0,0.672,0.275,0.672,0.624C71.71,80.91,71.398,81.175,70.979,81.234z"/>
	<path fill="#FFFFFF" d="M76.845,85.744h-0.12c-0.12,0-0.66-0.098-0.66-0.672c-0.396,0.468-1.08,0.742-1.835,0.742
		c-0.923,0-2.015-0.623-2.015-1.918c0-1.354,1.091-1.871,2.015-1.871c0.768,0,1.452,0.252,1.835,0.707v-0.778
		c0-0.588-0.504-0.972-1.271-0.972c-0.456,0-0.899,0.107-1.295,0.371c-0.084,0.049-0.18,0.084-0.276,0.084
		c-0.276,0-0.576-0.229-0.576-0.588c0-0.107,0.036-0.216,0.084-0.3c0.36-0.575,1.655-0.815,2.327-0.815
		c1.319,0,2.531,0.527,2.531,2.195v3.059C77.589,85.408,77.253,85.744,76.845,85.744z M76.066,83.561
		c-0.252-0.334-0.732-0.502-1.224-0.502c-0.6,0-1.091,0.312-1.091,0.875c0,0.539,0.492,0.852,1.091,0.852
		c0.492,0,0.972-0.168,1.224-0.504V83.561z"/>
	<path fill="#FFFFFF" d="M83.637,85.24c-0.42,0.336-1.02,0.574-1.835,0.574c-1.787,0-3.07-1.258-3.07-3.045
		c0-1.775,1.283-3.035,3.07-3.035c0.899,0,1.739,0.324,1.991,0.791c0.048,0.084,0.072,0.182,0.072,0.276
		c0,0.407-0.384,0.647-0.72,0.647c-0.144,0-0.288-0.036-0.42-0.12c-0.252-0.155-0.552-0.239-0.852-0.239
		c-0.923,0-1.571,0.671-1.571,1.68c0,1.008,0.647,1.69,1.571,1.69c0.312,0,0.6-0.084,0.864-0.252c0.132-0.084,0.264-0.12,0.408-0.12
		c0.372,0,0.731,0.264,0.731,0.659C83.877,84.93,83.793,85.12,83.637,85.24z"/>
	<path fill="#FFFFFF" d="M89.301,85.744c-0.24,0-0.492-0.108-0.636-0.324l-1.355-1.979l-0.696,0.742v0.805
		c0,0.42-0.336,0.756-0.768,0.756c-0.42,0-0.756-0.336-0.756-0.756v-6.646c0-0.407,0.336-0.743,0.78-0.743
		c0.408,0,0.744,0.336,0.744,0.743v4.114l2.051-2.423c0.132-0.156,0.324-0.24,0.516-0.24c0.384,0,0.72,0.336,0.72,0.72
		c0,0.168-0.06,0.324-0.168,0.457l-1.343,1.534l1.523,2.039c0.096,0.132,0.144,0.287,0.144,0.433
		C90.057,85.348,89.745,85.744,89.301,85.744z"/>
	<path fill="#FFFFFF" d="M97.27,85.814c-1.907,0-3.058-1.391-3.058-3.045c0-1.645,1.151-3.035,3.058-3.035
		c1.919,0,3.07,1.392,3.07,3.035C100.34,84.425,99.188,85.814,97.27,85.814z M97.27,81.091c-0.947,0-1.475,0.779-1.475,1.679
		c0,0.912,0.528,1.691,1.475,1.691c0.948,0,1.487-0.779,1.487-1.691C98.757,81.87,98.217,81.091,97.27,81.091z"/>
	<path fill="#FFFFFF" d="M104.614,78.836c-0.18,0-0.288-0.084-0.552-0.084c-0.42,0-0.72,0.275-0.72,0.814v0.312h0.6
		c0.348,0,0.648,0.301,0.648,0.672c0,0.359-0.3,0.659-0.648,0.659h-0.6v3.778c0,0.42-0.336,0.756-0.779,0.756
		c-0.42,0-0.756-0.336-0.756-0.756V81.21h-0.372c-0.36,0-0.66-0.3-0.66-0.685c0-0.348,0.3-0.646,0.66-0.646h0.372v-0.312
		c0-1.234,0.792-2.015,1.955-2.015c0.828,0,1.367,0.3,1.367,0.707C105.129,78.645,104.854,78.836,104.614,78.836z"/>
	<path fill="#FFFFFF" d="M113.552,80.826l-2.339,5.793c-0.408,1.008-1.139,1.402-1.991,1.402c-0.528,0-0.936-0.264-0.936-0.684
		c0-0.359,0.288-0.672,0.72-0.672c0.06,0,0.132,0,0.192-0.012c0.252-0.049,0.468-0.168,0.576-0.407l0.216-0.492l-1.979-4.94
		c-0.036-0.084-0.048-0.168-0.048-0.252c0-0.373,0.3-0.756,0.768-0.756c0.3,0,0.587,0.191,0.708,0.504l1.343,3.599l1.343-3.599
		c0.108-0.301,0.408-0.504,0.731-0.504c0.456,0,0.744,0.371,0.744,0.743C113.6,80.646,113.588,80.742,113.552,80.826z"/>
	<path fill="#FFFFFF" d="M117.309,85.814c-1.907,0-3.058-1.391-3.058-3.045c0-1.645,1.151-3.035,3.058-3.035
		c1.919,0,3.07,1.392,3.07,3.035C120.379,84.425,119.228,85.814,117.309,85.814z M117.309,81.091c-0.947,0-1.475,0.779-1.475,1.679
		c0,0.912,0.528,1.691,1.475,1.691c0.948,0,1.487-0.779,1.487-1.691C118.796,81.87,118.257,81.091,117.309,81.091z"/>
	<path fill="#FFFFFF" d="M126.176,85.744c-0.419,0-0.755-0.336-0.755-0.756v-0.049c-0.396,0.443-1.091,0.875-2.039,0.875
		c-1.271,0-1.871-0.694-1.871-1.821v-3.442c0-0.408,0.336-0.744,0.78-0.744c0.408,0,0.744,0.336,0.744,0.744v2.844
		c0,0.803,0.42,1.066,1.067,1.066c0.588,0,1.055-0.324,1.319-0.66v-3.25c0-0.408,0.336-0.744,0.779-0.744
		c0.408,0,0.744,0.336,0.744,0.744v4.438C126.944,85.408,126.608,85.744,126.176,85.744z"/>
	<path fill="#FFFFFF" d="M131.169,81.234c-0.468,0.06-0.912,0.252-1.188,0.61v3.144c0,0.42-0.336,0.756-0.744,0.756h-0.024
		c-0.42,0-0.756-0.336-0.756-0.756V80.55c0-0.407,0.336-0.743,0.78-0.743c0.408,0,0.744,0.336,0.744,0.743v0.12
		c0.288-0.384,0.671-0.84,1.247-0.84c0.444,0,0.672,0.275,0.672,0.624C131.901,80.91,131.589,81.175,131.169,81.234z"/>
	<path fill="#FFFFFF" d="M143.791,85.744c-0.42,0-0.756-0.336-0.756-0.756v-2.975c0-0.539-0.24-0.924-0.863-0.924
		c-0.54,0-0.984,0.359-1.199,0.671v3.228c0,0.42-0.336,0.756-0.78,0.756c-0.42,0-0.755-0.336-0.755-0.756v-2.975
		c0-0.539-0.24-0.924-0.864-0.924c-0.528,0-0.972,0.359-1.199,0.684v3.215c0,0.42-0.336,0.756-0.768,0.756
		c-0.42,0-0.756-0.336-0.756-0.756V80.55c0-0.407,0.336-0.743,0.78-0.743c0.407,0,0.743,0.336,0.743,0.743v0.084
		c0.239-0.348,1.007-0.899,1.896-0.899c0.852,0,1.391,0.396,1.606,1.057c0.336-0.527,1.104-1.057,1.991-1.057
		c1.067,0,1.703,0.563,1.703,1.752v3.502C144.57,85.408,144.234,85.744,143.791,85.744z"/>
	<path fill="#FFFFFF" d="M148.761,85.814c-1.907,0-3.059-1.391-3.059-3.045c0-1.645,1.151-3.035,3.059-3.035
		c1.918,0,3.07,1.392,3.07,3.035C151.832,84.425,150.679,85.814,148.761,85.814z M148.761,81.091c-0.947,0-1.476,0.779-1.476,1.679
		c0,0.912,0.528,1.691,1.476,1.691c0.948,0,1.486-0.779,1.486-1.691C150.248,81.87,149.708,81.091,148.761,81.091z"/>
	<path fill="#FFFFFF" d="M155.648,85.814c-1.906,0-3.059-1.391-3.059-3.045c0-1.645,1.151-3.035,3.059-3.035
		c1.92,0,3.07,1.392,3.07,3.035C158.719,84.425,157.568,85.814,155.648,85.814z M155.648,81.091c-0.947,0-1.476,0.779-1.476,1.679
		c0,0.912,0.527,1.691,1.476,1.691c0.949,0,1.488-0.779,1.488-1.691C157.137,81.87,156.598,81.091,155.648,81.091z"/>
	<path fill="#FFFFFF" d="M164.588,85.744c-0.42,0-0.756-0.336-0.756-0.756v-0.061c-0.455,0.575-1.091,0.887-1.787,0.887
		c-1.463,0-2.566-1.103-2.566-3.033c0-1.896,1.092-3.047,2.566-3.047c0.684,0,1.332,0.301,1.787,0.889v-2.268
		c0-0.42,0.336-0.756,0.779-0.756c0.42,0,0.756,0.336,0.756,0.756v6.633C165.367,85.408,165.031,85.744,164.588,85.744z
		 M163.832,81.75c-0.252-0.384-0.803-0.659-1.318-0.659c-0.863,0-1.463,0.685-1.463,1.69c0,0.996,0.6,1.68,1.463,1.68
		c0.517,0,1.066-0.275,1.318-0.66V81.75z"/>
	<path fill="#FFFFFF" d="M168.969,85.814c-0.755,0-1.967-0.252-2.326-0.768c-0.072-0.096-0.106-0.203-0.106-0.322
		c0-0.36,0.312-0.637,0.635-0.637c0.108,0,0.218,0.023,0.312,0.084c0.455,0.264,1.056,0.469,1.56,0.469
		c0.66,0,0.972-0.265,0.972-0.625c0-0.959-3.441-0.18-3.441-2.457c0-0.973,0.852-1.824,2.375-1.824c0.756,0,1.787,0.24,2.111,0.707
		c0.06,0.084,0.096,0.192,0.096,0.301c0,0.324-0.288,0.576-0.601,0.576c-0.096,0-0.204-0.024-0.288-0.072
		c-0.371-0.216-0.839-0.348-1.308-0.348c-0.551,0-0.911,0.252-0.911,0.576c0,0.862,3.432,0.144,3.432,2.481
		C171.477,85.014,170.576,85.814,168.969,85.814z"/>
	<path fill="#FFFFFF" d="M173.387,85.805c-0.527,0-0.973-0.443-0.973-0.973c0-0.527,0.443-0.971,0.973-0.971
		c0.527,0,0.971,0.443,0.971,0.971S173.914,85.805,173.387,85.805z"/>
	<path fill="#FFFFFF" d="M182.527,82.829h-2.039v2.075c0,0.455-0.383,0.84-0.863,0.84c-0.455,0-0.838-0.385-0.838-0.84v-6.272
		c0-0.526,0.432-0.96,0.959-0.96h2.781c1.74,0,2.688,1.176,2.688,2.579C185.215,81.643,184.256,82.829,182.527,82.829z
		 M182.301,79.172h-1.812v2.158h1.812c0.672,0,1.176-0.42,1.176-1.079C183.477,79.579,182.973,79.172,182.301,79.172z"/>
	<path fill="#FFFFFF" d="M188.949,81.234c-0.469,0.06-0.912,0.252-1.188,0.61v3.144c0,0.42-0.336,0.756-0.743,0.756h-0.023
		c-0.42,0-0.756-0.336-0.756-0.756V80.55c0-0.407,0.336-0.743,0.779-0.743c0.407,0,0.744,0.336,0.744,0.743v0.12
		c0.286-0.384,0.672-0.84,1.247-0.84c0.443,0,0.671,0.275,0.671,0.624C189.68,80.91,189.369,81.175,188.949,81.234z"/>
	<path fill="#FFFFFF" d="M192.225,78.344c0,0.504-0.408,0.912-0.912,0.912c-0.489,0-0.91-0.408-0.91-0.912s0.421-0.898,0.91-0.898
		C191.816,77.443,192.225,77.84,192.225,78.344z M191.312,85.744c-0.418,0-0.754-0.336-0.754-0.756V80.55
		c0-0.407,0.336-0.743,0.778-0.743c0.408,0,0.742,0.336,0.742,0.743v4.438C192.08,85.408,191.746,85.744,191.312,85.744z"/>
	<path fill="#FFFFFF" d="M198.68,80.839l-1.69,4.187c-0.181,0.432-0.601,0.72-1.056,0.72h-0.024c-0.468,0-0.897-0.288-1.066-0.72
		l-1.69-4.187c-0.037-0.084-0.062-0.181-0.062-0.276c0-0.358,0.312-0.742,0.779-0.742c0.301,0,0.576,0.18,0.685,0.468l1.354,3.622
		l1.354-3.61c0.107-0.3,0.396-0.479,0.695-0.479c0.469,0,0.768,0.371,0.768,0.756C198.727,80.658,198.715,80.755,198.68,80.839z"/>
	<path fill="#FFFFFF" d="M204.008,85.744h-0.119c-0.121,0-0.66-0.098-0.66-0.672c-0.396,0.468-1.08,0.742-1.836,0.742
		c-0.922,0-2.014-0.623-2.014-1.918c0-1.354,1.092-1.871,2.014-1.871c0.769,0,1.451,0.252,1.836,0.707v-0.778
		c0-0.588-0.504-0.972-1.271-0.972c-0.455,0-0.899,0.107-1.295,0.371c-0.084,0.049-0.181,0.084-0.274,0.084
		c-0.277,0-0.576-0.229-0.576-0.588c0-0.107,0.035-0.216,0.084-0.3c0.358-0.575,1.653-0.815,2.326-0.815
		c1.319,0,2.53,0.527,2.53,2.195v3.059C204.752,85.408,204.416,85.744,204.008,85.744z M203.229,83.561
		c-0.252-0.334-0.731-0.502-1.223-0.502c-0.6,0-1.092,0.312-1.092,0.875c0,0.539,0.492,0.852,1.092,0.852
		c0.49,0,0.971-0.168,1.223-0.504V83.561z"/>
	<path fill="#FFFFFF" d="M208.209,85.814c-1.068,0-1.643-0.551-1.643-1.582V81.21h-0.373c-0.359,0-0.658-0.3-0.658-0.685
		c0-0.348,0.299-0.646,0.658-0.646h0.373V78.98c0-0.42,0.336-0.756,0.779-0.756c0.42,0,0.756,0.336,0.756,0.756v0.898h0.6
		c0.348,0,0.646,0.301,0.646,0.672c0,0.359-0.3,0.659-0.646,0.659h-0.6v2.615c0,0.454,0.287,0.636,0.526,0.636
		c0.035,0,0.097,0,0.131,0c0.433,0,0.673,0.287,0.673,0.659C209.432,85.504,209.205,85.814,208.209,85.814z"/>
	<path fill="#FFFFFF" d="M215.119,83.261h-3.574c0.096,0.732,0.684,1.345,1.666,1.345c0.324,0,0.768-0.097,1.129-0.289
		c0.096-0.047,0.203-0.07,0.299-0.07c0.324,0,0.648,0.251,0.648,0.611c0,0.684-1.475,0.959-2.242,0.959
		c-1.764,0-3.096-1.188-3.096-3.047c0-1.679,1.236-3.033,2.998-3.033c1.309,0,2.303,0.755,2.711,1.955
		c0.084,0.264,0.168,0.586,0.168,0.875C215.826,82.938,215.514,83.261,215.119,83.261z M212.947,80.945
		c-0.947,0-1.354,0.709-1.426,1.283h2.854C214.34,81.678,213.955,80.945,212.947,80.945z"/>
	<path fill="#FFFFFF" d="M217.713,85.744c-0.418,0-0.754-0.336-0.754-0.756v-6.646c0-0.407,0.336-0.743,0.779-0.743
		c0.408,0,0.742,0.336,0.742,0.743v6.646C218.48,85.408,218.146,85.744,217.713,85.744z"/>
	<path fill="#FFFFFF" d="M225.078,80.826l-2.338,5.793c-0.408,1.008-1.141,1.402-1.992,1.402c-0.527,0-0.936-0.264-0.936-0.684
		c0-0.359,0.289-0.672,0.721-0.672c0.061,0,0.131,0,0.191-0.012c0.252-0.049,0.469-0.168,0.575-0.407l0.216-0.492l-1.979-4.94
		c-0.035-0.084-0.048-0.168-0.048-0.252c0-0.373,0.3-0.756,0.769-0.756c0.3,0,0.588,0.191,0.707,0.504l1.345,3.599l1.342-3.599
		c0.108-0.301,0.408-0.504,0.731-0.504c0.455,0,0.744,0.371,0.744,0.743C225.127,80.646,225.115,80.742,225.078,80.826z"/>
	<path fill="#FFFFFF" d="M226.281,85.805c-0.527,0-0.971-0.443-0.971-0.973c0-0.527,0.442-0.971,0.971-0.971
		c0.527,0,0.973,0.443,0.973,0.971S226.809,85.805,226.281,85.805z"/>
</g>
</svg>
