<?xml version="1.0" encoding="utf-8"?>
<!-- Generator: Adobe Illustrator 16.0.0, SVG Export Plug-In . SVG Version: 6.00 Build 0)  -->
<!DOCTYPE svg PUBLIC "-//W3C//DTD SVG 1.1//EN" "http://www.w3.org/Graphics/SVG/1.1/DTD/svg11.dtd">
<svg version="1.1" id="Layer_1" xmlns="http://www.w3.org/2000/svg" xmlns:xlink="http://www.w3.org/1999/xlink" x="0px" y="0px"
	 width="17px" height="14.145px" viewBox="0 0 17 14.145" enable-background="new 0 0 17 14.145" xml:space="preserve">
<g>
	<path fill="#2195AD" d="M2.745,0L0,14.144l2.121-1.572l12.454-0.002L17,0H2.745z M13.096,10.998H2.404l1.819-9.427h10.691
		L13.096,10.998z"/>
	<g>
		<polygon fill="#2195AD" points="8.886,4.449 13.564,4.449 13.792,3.279 9.111,3.279 		"/>
		<polygon fill="#2195AD" points="4.052,6.876 13.098,6.876 13.323,5.706 4.278,5.706 		"/>
		<polygon fill="#2195AD" points="9.6,9.216 12.646,9.216 12.872,8.046 9.825,8.046 		"/>
		<polygon fill="#2195AD" points="3.601,9.216 7.514,9.216 7.739,8.046 3.827,8.046 		"/>
		<polygon fill="#2195AD" points="4.521,4.449 7.139,4.449 7.364,3.279 4.746,3.279 		"/>
	</g>
</g>
</svg>
