<?xml version="1.0" encoding="utf-8"?>
<!-- Generator: Adobe Illustrator 16.0.0, SVG Export Plug-In . SVG Version: 6.00 Build 0)  -->
<!DOCTYPE svg PUBLIC "-//W3C//DTD SVG 1.1//EN" "http://www.w3.org/Graphics/SVG/1.1/DTD/svg11.dtd">
<svg version="1.1" id="Layer_1" xmlns="http://www.w3.org/2000/svg" xmlns:xlink="http://www.w3.org/1999/xlink" x="0px" y="0px"
	 width="150px" height="150px" viewBox="0 0 150 150" enable-background="new 0 0 150 150" xml:space="preserve">
<circle fill="#E0EBEE" stroke="#1994AC" stroke-width="12" stroke-miterlimit="10" cx="-140.478" cy="78" r="63.333"/>
<circle fill="#1994AC" cx="-163.478" cy="60.875" r="10"/>
<circle fill="#1994AC" cx="-117.478" cy="60.875" r="10"/>
<path fill="none" stroke="#1994AC" stroke-width="10" stroke-linecap="round" stroke-miterlimit="10" d="M-164.057,114.807
	c0,0,22.338-22.045,46.227-0.045"/>
<g>
	<g>
		<circle fill="#E0EBEE" cx="-137" cy="-191" r="13.702"/>
		<path fill="#1994AC" d="M-137-176c-8.271,0-15-6.729-15-15s6.729-15,15-15s15,6.729,15,15S-128.729-176-137-176z M-137-203.404
			c-6.839,0-12.404,5.564-12.404,12.404c0,6.84,5.564,12.404,12.404,12.404s12.404-5.564,12.404-12.404
			C-124.596-197.839-130.161-203.404-137-203.404z"/>
	</g>
	<circle fill="#1994AC" cx="-141.976" cy="-194.705" r="2.164"/>
	<circle fill="#1994AC" cx="-132.024" cy="-194.705" r="2.164"/>
	<path fill="#1994AC" d="M-142.101-181.958c-0.28,0-0.561-0.108-0.772-0.324c-0.417-0.426-0.413-1.107,0.011-1.525
		c0.056-0.055,5.635-5.432,11.494-0.036c0.439,0.405,0.468,1.089,0.063,1.528c-0.404,0.439-1.089,0.468-1.528,0.063
		c-1.815-1.671-3.769-2.198-5.806-1.568c-1.605,0.498-2.695,1.544-2.706,1.555C-141.555-182.06-141.828-181.958-142.101-181.958z"/>
</g>
<circle fill="#E0EBEE" stroke="#1994AC" stroke-width="12" stroke-miterlimit="10" cx="74.189" cy="72" r="63.333"/>
<circle fill="#1994AC" cx="51.189" cy="54.875" r="10"/>
<circle fill="#1994AC" cx="97.189" cy="54.875" r="10"/>
<path fill="none" stroke="#1994AC" stroke-width="10" stroke-linecap="round" stroke-miterlimit="10" d="M50.61,103.896
	c0,0,20.807,0.011,46.227,0.011"/>
<g>
	<g>
		<circle fill="#E0EBEE" cx="75" cy="-187" r="13.702"/>
		<path fill="#1994AC" d="M75-172c-8.271,0-15-6.729-15-15c0-8.271,6.729-15,15-15s15,6.729,15,15C90-178.729,83.271-172,75-172z
			 M75-199.404c-6.84,0-12.404,5.564-12.404,12.404S68.16-174.596,75-174.596S87.404-180.16,87.404-187S81.84-199.404,75-199.404z"
			/>
	</g>
	<circle fill="#1994AC" cx="70.024" cy="-190.705" r="2.164"/>
	<circle fill="#1994AC" cx="79.976" cy="-190.705" r="2.164"/>
	<path fill="#1994AC" d="M79.899-179.016c-5.499,0-10.001-0.002-10.001-0.002c-0.598,0-1.082-0.484-1.081-1.082
		c0-0.598,0.484-1.081,1.081-1.081c0.001,0,0.001,0,0.001,0s4.501,0.002,10,0.002c0.598,0,1.082,0.484,1.082,1.082
		C80.981-179.5,80.497-179.016,79.899-179.016z"/>
</g>
<circle fill="#E0EBEE" stroke="#1994AC" stroke-width="12" stroke-miterlimit="10" cx="305.855" cy="77" r="63.333"/>
<circle fill="#1994AC" cx="282.855" cy="59.875" r="10"/>
<circle fill="#1994AC" cx="328.855" cy="59.875" r="10"/>
<path fill="none" stroke="#1994AC" stroke-width="10" stroke-linecap="round" stroke-miterlimit="10" d="M282.276,103.996
	c0,0,22.338,22.045,46.227,0.045"/>
<g>
	<g>
		<circle fill="#E0EBEE" cx="306.667" cy="-185" r="13.702"/>
		<path fill="#1994AC" d="M306.667-170c-8.271,0-15-6.729-15-15s6.729-15,15-15s15,6.729,15,15S314.938-170,306.667-170z
			 M306.667-197.404c-6.84,0-12.403,5.564-12.403,12.404s5.563,12.404,12.403,12.404S319.07-178.16,319.07-185
			S313.507-197.404,306.667-197.404z"/>
	</g>
	<circle fill="#1994AC" cx="301.691" cy="-188.705" r="2.164"/>
	<circle fill="#1994AC" cx="311.643" cy="-188.705" r="2.164"/>
	<path fill="#1994AC" d="M306.725-175.953c-3.392,0-5.882-2.399-5.919-2.437c-0.425-0.42-0.43-1.104-0.01-1.529
		c0.419-0.425,1.102-0.43,1.527-0.013c0.022,0.021,1.108,1.06,2.705,1.554c2.037,0.632,3.99,0.104,5.806-1.567
		c0.439-0.405,1.124-0.377,1.528,0.062c0.405,0.439,0.377,1.124-0.062,1.528C310.345-176.554,308.422-175.953,306.725-175.953z"/>
</g>
<circle fill="#E0EBEE" stroke="#1994AC" stroke-width="12" stroke-miterlimit="10" cx="557.855" cy="76" r="63.333"/>
<circle fill="#1994AC" cx="534.855" cy="58.875" r="10"/>
<circle fill="#1994AC" cx="580.855" cy="58.875" r="10"/>
<ellipse fill="#E6E7E8" cx="488" cy="465.75" rx="38.5" ry="9.75"/>
<g>
	<path fill="#1994AC" d="M514.622,439.631c-7.559,8.046-23.197,24.692-23.197,24.692c-1.883,2.005-4.971,2.011-6.862,0.015
		l-19.295-20.374c-1.892-1.996-4.937-5.309-6.769-7.36c0,0-0.756-0.847-0.76-0.852c-5.143-5.43-6.906-13.536-6.906-21.584
		c0-20.526,16.641-37.167,37.167-37.167s37.167,16.641,37.167,37.167c0,8.062-4.654,17.164-4.654,17.164
		c-1.252,2.449-3.817,6.092-5.7,8.096L514.622,439.631z"/>
</g>
<path fill="#1994AC" stroke="#1994AC" stroke-width="10" stroke-linecap="round" stroke-linejoin="round" stroke-miterlimit="10" d="
	M533.042,100.161c5.665,21.514,40.771,22.213,48.5,0H533.042z"/>
<g>
	<g>
		<circle fill="#E0EBEE" cx="556.667" cy="-183" r="13.702"/>
		<path fill="#1994AC" d="M556.667-168c-8.271,0-15-6.729-15-15c0-8.271,6.729-15,15-15s15,6.729,15,15
			C571.667-174.729,564.938-168,556.667-168z M556.667-195.404c-6.84,0-12.403,5.564-12.403,12.404s5.563,12.404,12.403,12.404
			S569.07-176.16,569.07-183S563.507-195.404,556.667-195.404z"/>
	</g>
	<circle fill="#1994AC" cx="551.691" cy="-186.705" r="2.164"/>
	<circle fill="#1994AC" cx="561.643" cy="-186.705" r="2.164"/>
	<g>
		<path fill="#1994AC" d="M551.299-177.772c1.226,4.654,8.82,4.806,10.492,0H551.299z"/>
		<path fill="#1994AC" d="M556.433-173.144L556.433-173.144c-3.011,0-5.494-1.75-6.18-4.354c-0.086-0.324-0.016-0.67,0.189-0.936
			c0.204-0.267,0.521-0.422,0.856-0.422h10.492c0.351,0,0.68,0.17,0.882,0.455c0.203,0.285,0.255,0.651,0.141,0.982
			C561.91-174.821,559.405-173.144,556.433-173.144z M553.053-176.691c0.866,1,2.243,1.385,3.379,1.385h0.001
			c1.118,0,2.505-0.386,3.463-1.385H553.053z"/>
	</g>
</g>
<circle fill="#E0EBEE" stroke="#1994AC" stroke-width="12" stroke-miterlimit="10" cx="-390.145" cy="76" r="63.333"/>
<circle fill="#1994AC" cx="-413.145" cy="58.875" r="10"/>
<circle fill="#1994AC" cx="-367.145" cy="58.875" r="10"/>
<path fill="none" stroke="#1994AC" stroke-width="10" stroke-linecap="round" stroke-linejoin="round" stroke-miterlimit="10" d="
	M-414.958,114.999c9.395-20.776,40.133-18.839,48.5,0"/>
<g>
	<g>
		<circle fill="#E0EBEE" cx="-390" cy="-191" r="13.702"/>
		<path fill="#1994AC" d="M-390-176c-8.271,0-15-6.729-15-15s6.729-15,15-15s15,6.729,15,15S-381.729-176-390-176z M-390-203.404
			c-6.839,0-12.404,5.564-12.404,12.404s5.564,12.404,12.404,12.404s12.404-5.564,12.404-12.404S-383.161-203.404-390-203.404z"/>
	</g>
	<circle fill="#1994AC" cx="-394.976" cy="-194.705" r="2.164"/>
	<circle fill="#1994AC" cx="-385.024" cy="-194.705" r="2.164"/>
	<path fill="#1994AC" d="M-384.875-181.48c-0.415,0-0.81-0.24-0.989-0.643c-0.691-1.558-2.384-2.567-4.313-2.573
		c-0.006-0.001-0.012-0.001-0.019-0.001c-1.892,0-3.456,0.964-4.187,2.58c-0.246,0.545-0.887,0.786-1.431,0.54
		c-0.544-0.246-0.786-0.887-0.54-1.432c1.075-2.377,3.434-3.852,6.158-3.852c0.009,0,0.017,0,0.025,0
		c2.78,0.01,5.247,1.524,6.284,3.858c0.242,0.546-0.004,1.186-0.55,1.428C-384.579-181.511-384.728-181.48-384.875-181.48z"/>
</g>
</svg>
