<?xml version="1.0" encoding="utf-8"?>
<!-- Generator: Adobe Illustrator 16.0.0, SVG Export Plug-In . SVG Version: 6.00 Build 0)  -->
<!DOCTYPE svg PUBLIC "-//W3C//DTD SVG 1.1//EN" "http://www.w3.org/Graphics/SVG/1.1/DTD/svg11.dtd">
<svg version="1.1" id="Layer_1" xmlns="http://www.w3.org/2000/svg" xmlns:xlink="http://www.w3.org/1999/xlink" x="0px" y="0px"
	 width="26.167px" height="6.417px" viewBox="0 0 26.167 6.417" enable-background="new 0 0 26.167 6.417" xml:space="preserve">
<circle fill="#E0EBEE" stroke="#1994AC" stroke-width="12" stroke-miterlimit="10" cx="1000.522" cy="42.083" r="63.333"/>
<circle fill="#1994AC" cx="977.522" cy="24.958" r="10"/>
<circle fill="#1994AC" cx="1023.522" cy="24.958" r="10"/>
<path fill="none" stroke="#1994AC" stroke-width="10" stroke-linecap="round" stroke-miterlimit="10" d="M976.943,78.89
	c0,0,22.338-22.045,46.227-0.045"/>
<g>
	<g>
		<circle fill="#E0EBEE" cx="1004" cy="-226.917" r="13.702"/>
		<path fill="#1994AC" d="M1004-211.917c-8.271,0-15-6.729-15-15s6.729-15,15-15s15,6.729,15,15S1012.271-211.917,1004-211.917z
			 M1004-239.321c-6.839,0-12.404,5.564-12.404,12.404c0,6.84,5.564,12.404,12.404,12.404s12.404-5.564,12.404-12.404
			C1016.403-233.756,1010.839-239.321,1004-239.321z"/>
	</g>
	<circle fill="#1994AC" cx="999.023" cy="-230.622" r="2.164"/>
	<circle fill="#1994AC" cx="1008.976" cy="-230.622" r="2.164"/>
	<path fill="#1994AC" d="M998.899-217.875c-0.28,0-0.561-0.108-0.772-0.324c-0.417-0.426-0.413-1.107,0.011-1.525
		c0.056-0.055,5.635-5.432,11.494-0.036c0.439,0.405,0.468,1.089,0.063,1.528c-0.404,0.439-1.089,0.468-1.528,0.063
		c-1.815-1.671-3.769-2.198-5.806-1.568c-1.605,0.498-2.695,1.544-2.706,1.555C999.445-217.977,999.172-217.875,998.899-217.875z"/>
</g>
<g>
	<g>
		<circle fill="#F9EBEC" cx="1002.167" cy="433.583" r="11.418"/>
		<path fill="#EF4747" d="M1002.167,446.083c-6.893,0-12.5-5.607-12.5-12.5s5.607-12.5,12.5-12.5s12.5,5.607,12.5,12.5
			S1009.059,446.083,1002.167,446.083z M1002.167,423.247c-5.699,0-10.336,4.638-10.336,10.336c0,5.7,4.637,10.337,10.336,10.337
			s10.336-4.637,10.336-10.337C1012.503,427.885,1007.866,423.247,1002.167,423.247z"/>
	</g>
	<g>
		<circle fill="#EF4747" cx="998.02" cy="430.495" r="1.803"/>
		<circle fill="#EF4747" cx="1006.313" cy="430.495" r="1.803"/>
		<path fill="#EF4747" d="M997.916,441.118c-0.233,0-0.467-0.09-0.643-0.27c-0.348-0.354-0.344-0.921,0.009-1.271
			c0.046-0.046,4.695-4.525,9.578-0.029c0.366,0.338,0.39,0.908,0.053,1.274c-0.337,0.366-0.907,0.39-1.273,0.052
			c-1.513-1.394-3.141-1.832-4.838-1.307c-1.338,0.414-2.246,1.287-2.254,1.296C998.371,441.033,998.144,441.118,997.916,441.118z"
			/>
	</g>
</g>
<circle fill="#E0EBEE" stroke="#1994AC" stroke-width="12" stroke-miterlimit="10" cx="1215.189" cy="36.083" r="63.333"/>
<circle fill="#1994AC" cx="1192.189" cy="18.958" r="10"/>
<circle fill="#1994AC" cx="1238.189" cy="18.958" r="10"/>
<path fill="none" stroke="#1994AC" stroke-width="10" stroke-linecap="round" stroke-miterlimit="10" d="M1191.61,67.979
	c0,0,20.807,0.011,46.227,0.011"/>
<g>
	<g>
		<circle fill="#E0EBEE" cx="1216" cy="-222.917" r="13.702"/>
		<path fill="#1994AC" d="M1216-207.917c-8.271,0-15-6.729-15-15c0-8.271,6.729-15,15-15s15,6.729,15,15
			C1231-214.646,1224.271-207.917,1216-207.917z M1216-235.321c-6.84,0-12.404,5.564-12.404,12.404s5.564,12.404,12.404,12.404
			s12.404-5.564,12.404-12.404S1222.839-235.321,1216-235.321z"/>
	</g>
	<circle fill="#1994AC" cx="1211.023" cy="-226.622" r="2.164"/>
	<circle fill="#1994AC" cx="1220.976" cy="-226.622" r="2.164"/>
	<path fill="#1994AC" d="M1220.899-214.933c-5.499,0-10.001-0.002-10.001-0.002c-0.598,0-1.082-0.484-1.081-1.082
		c0-0.598,0.484-1.081,1.081-1.081c0.001,0,0.001,0,0.001,0s4.501,0.002,10,0.002c0.598,0,1.082,0.484,1.082,1.082
		C1221.981-215.417,1221.497-214.933,1220.899-214.933z"/>
</g>
<circle fill="#E0EBEE" stroke="#1994AC" stroke-width="12" stroke-miterlimit="10" cx="1446.855" cy="41.083" r="63.333"/>
<circle fill="#1994AC" cx="1423.855" cy="23.958" r="10"/>
<circle fill="#1994AC" cx="1469.855" cy="23.958" r="10"/>
<path fill="none" stroke="#1994AC" stroke-width="10" stroke-linecap="round" stroke-miterlimit="10" d="M1423.276,68.079
	c0,0,22.338,22.045,46.227,0.045"/>
<g>
	<g>
		<circle fill="#E0EBEE" cx="1447.667" cy="-220.917" r="13.702"/>
		<path fill="#1994AC" d="M1447.667-205.917c-8.271,0-15-6.729-15-15s6.729-15,15-15s15,6.729,15,15
			S1455.938-205.917,1447.667-205.917z M1447.667-233.321c-6.84,0-12.403,5.564-12.403,12.404s5.563,12.404,12.403,12.404
			s12.403-5.564,12.403-12.404S1454.506-233.321,1447.667-233.321z"/>
	</g>
	<circle fill="#1994AC" cx="1442.69" cy="-224.622" r="2.164"/>
	<circle fill="#1994AC" cx="1452.643" cy="-224.622" r="2.164"/>
	<path fill="#1994AC" d="M1447.724-211.87c-3.392,0-5.882-2.399-5.919-2.437c-0.425-0.42-0.43-1.104-0.01-1.529
		c0.419-0.425,1.102-0.43,1.527-0.013c0.022,0.021,1.108,1.06,2.705,1.554c2.037,0.632,3.99,0.104,5.806-1.567
		c0.439-0.405,1.124-0.377,1.528,0.062c0.405,0.439,0.377,1.124-0.062,1.528C1451.344-212.471,1449.421-211.87,1447.724-211.87z"/>
</g>
<circle fill="#E0EBEE" stroke="#1994AC" stroke-width="12" stroke-miterlimit="10" cx="1698.855" cy="40.083" r="63.333"/>
<circle fill="#1994AC" cx="1675.855" cy="22.958" r="10"/>
<circle fill="#1994AC" cx="1721.855" cy="22.958" r="10"/>
<path fill="#1994AC" stroke="#1994AC" stroke-width="10" stroke-linecap="round" stroke-linejoin="round" stroke-miterlimit="10" d="
	M1674.042,64.244c5.665,21.514,40.771,22.213,48.5,0H1674.042z"/>
<g>
	<g>
		<circle fill="#E0EBEE" cx="1697.667" cy="-218.917" r="13.702"/>
		<path fill="#1994AC" d="M1697.667-203.917c-8.271,0-15-6.729-15-15c0-8.271,6.729-15,15-15s15,6.729,15,15
			C1712.667-210.646,1705.938-203.917,1697.667-203.917z M1697.667-231.321c-6.84,0-12.403,5.564-12.403,12.404
			s5.563,12.404,12.403,12.404s12.403-5.564,12.403-12.404S1704.506-231.321,1697.667-231.321z"/>
	</g>
	<circle fill="#1994AC" cx="1692.69" cy="-222.622" r="2.164"/>
	<circle fill="#1994AC" cx="1702.643" cy="-222.622" r="2.164"/>
	<g>
		<path fill="#1994AC" d="M1692.298-213.689c1.226,4.654,8.82,4.806,10.492,0H1692.298z"/>
		<path fill="#1994AC" d="M1697.432-209.061L1697.432-209.061c-3.011,0-5.494-1.75-6.18-4.354c-0.086-0.324-0.016-0.67,0.189-0.936
			c0.204-0.267,0.521-0.422,0.856-0.422h10.492c0.351,0,0.68,0.17,0.882,0.455c0.203,0.285,0.255,0.651,0.141,0.982
			C1702.91-210.738,1700.405-209.061,1697.432-209.061z M1694.052-212.608c0.866,1,2.243,1.385,3.379,1.385h0.001
			c1.118,0,2.505-0.386,3.463-1.385H1694.052z"/>
	</g>
</g>
<g>
	<circle fill="#E0EBEE" cx="750.855" cy="40.083" r="63.333"/>
	<path fill="#1994AC" d="M750.855,109.416c-38.23,0-69.333-31.103-69.333-69.333s31.103-69.333,69.333-69.333
		s69.333,31.103,69.333,69.333S789.085,109.416,750.855,109.416z M750.855-17.25c-31.614,0-57.333,25.72-57.333,57.333
		c0,31.613,25.719,57.333,57.333,57.333s57.333-25.72,57.333-57.333C808.188,8.469,782.469-17.25,750.855-17.25z"/>
</g>
<circle fill="#1994AC" cx="727.855" cy="22.958" r="10"/>
<circle fill="#1994AC" cx="773.855" cy="22.958" r="10"/>
<path fill="#1994AC" d="M774.544,84.083c-1.917,0-3.745-1.107-4.572-2.972c-3.196-7.195-11.022-11.864-19.938-11.894
	c-0.028,0-0.058,0-0.086,0c-8.743,0-15.972,4.452-19.351,11.925c-1.138,2.516-4.101,3.634-6.616,2.495
	c-2.516-1.138-3.634-4.1-2.496-6.616c4.97-10.989,15.87-17.804,28.464-17.804c0.04,0,0.078,0,0.117,0
	c12.851,0.043,24.251,7.044,29.043,17.835c1.121,2.523-0.016,5.478-2.54,6.599C775.912,83.944,775.222,84.083,774.544,84.083z"/>
<g>
	<g>
		<circle fill="#E0EBEE" cx="751" cy="-226.917" r="13.702"/>
		<path fill="#1994AC" d="M751-211.917c-8.271,0-15-6.729-15-15s6.729-15,15-15s15,6.729,15,15S759.271-211.917,751-211.917z
			 M751-239.321c-6.839,0-12.404,5.564-12.404,12.404s5.564,12.404,12.404,12.404s12.404-5.564,12.404-12.404
			S757.839-239.321,751-239.321z"/>
	</g>
	<circle fill="#1994AC" cx="746.023" cy="-230.622" r="2.164"/>
	<circle fill="#1994AC" cx="755.976" cy="-230.622" r="2.164"/>
	<path fill="#1994AC" d="M756.125-217.397c-0.415,0-0.81-0.24-0.989-0.643c-0.691-1.558-2.384-2.567-4.313-2.573
		c-0.006-0.001-0.012-0.001-0.019-0.001c-1.892,0-3.456,0.964-4.187,2.58c-0.246,0.545-0.887,0.786-1.431,0.54
		c-0.544-0.246-0.786-0.887-0.54-1.432c1.075-2.377,3.434-3.852,6.158-3.852c0.009,0,0.017,0,0.025,0
		c2.78,0.01,5.247,1.524,6.284,3.858c0.242,0.546-0.004,1.186-0.55,1.428C756.42-217.428,756.271-217.397,756.125-217.397z"/>
</g>
<ellipse fill="#E6E7E8" cx="1704" cy="318.452" rx="53.968" ry="13.667"/>
<g>
	<path fill="#2395B0" d="M1740.262,282.879c-10.596,11.278-32.844,35.032-32.844,35.032c-1.88,2.007-4.965,2.016-6.856,0.02
		l-29.809-31.476c-1.892-1.996-4.937-5.309-6.768-7.36c0,0-2.397-2.687-2.405-2.692c-7.207-7.611-9.68-18.975-9.68-30.255
		c0-28.773,23.326-52.1,52.1-52.1c28.771,0,52.098,23.326,52.098,52.1c0,15.428-7.142,25.95-7.142,25.95
		c-1.544,2.275-4.3,5.821-6.123,7.879L1740.262,282.879z"/>
</g>
<ellipse fill="#E6E7E8" cx="1447.667" cy="318.452" rx="53.968" ry="13.667"/>
<g>
	<path fill="#2395B0" d="M1483.929,282.879c-10.596,11.278-32.844,35.032-32.844,35.032c-1.88,2.007-4.965,2.016-6.856,0.02
		l-29.809-31.476c-1.892-1.996-4.937-5.309-6.768-7.36c0,0-2.397-2.687-2.405-2.692c-7.207-7.611-9.68-18.975-9.68-30.255
		c0-28.773,23.326-52.1,52.1-52.1c28.771,0,52.098,23.326,52.098,52.1c0,15.428-7.142,25.95-7.142,25.95
		c-1.544,2.275-4.3,5.821-6.123,7.879L1483.929,282.879z"/>
</g>
<ellipse fill="#E6E7E8" cx="1216" cy="318.452" rx="53.968" ry="13.667"/>
<g>
	<path fill="#2395B0" d="M1252.262,282.879c-10.596,11.278-32.844,35.032-32.844,35.032c-1.88,2.007-4.965,2.016-6.856,0.02
		l-29.809-31.476c-1.891-1.996-4.936-5.309-6.767-7.36c0,0-2.397-2.687-2.405-2.692c-7.207-7.611-9.68-18.975-9.68-30.255
		c0-28.773,23.326-52.1,52.1-52.1c28.771,0,52.098,23.326,52.098,52.1c0,15.428-7.142,25.95-7.142,25.95
		c-1.544,2.275-4.3,5.821-6.123,7.879L1252.262,282.879z"/>
</g>
<ellipse fill="#E6E7E8" cx="1004" cy="318.452" rx="53.968" ry="13.667"/>
<g>
	<path fill="#2395B0" d="M1040.262,282.879c-10.596,11.278-32.844,35.032-32.844,35.032c-1.88,2.007-4.965,2.016-6.856,0.02
		l-29.81-31.476c-1.891-1.996-4.936-5.309-6.767-7.36c0,0-2.397-2.687-2.405-2.692c-7.207-7.611-9.68-18.975-9.68-30.255
		c0-28.773,23.326-52.1,52.1-52.1c28.771,0,52.098,23.326,52.098,52.1c0,15.428-7.141,25.95-7.141,25.95
		c-1.544,2.275-4.3,5.821-6.124,7.879L1040.262,282.879z"/>
</g>
<ellipse fill="#E6E7E8" cx="751" cy="318.452" rx="53.968" ry="13.667"/>
<g>
	<path fill="#2395B0" d="M787.262,282.879c-10.596,11.278-32.844,35.032-32.844,35.032c-1.88,2.007-4.965,2.016-6.856,0.02
		l-29.81-31.476c-1.891-1.996-4.936-5.309-6.767-7.36c0,0-2.397-2.687-2.405-2.692c-7.207-7.611-9.68-18.975-9.68-30.255
		c0-28.773,23.326-52.1,52.1-52.1c28.771,0,52.098,23.326,52.098,52.1c0,15.428-7.141,25.95-7.141,25.95
		c-1.544,2.275-4.3,5.821-6.124,7.879L787.262,282.879z"/>
</g>
<g>
	<circle fill="#E0EBEE" cx="751" cy="245.626" r="36.975"/>
	<path fill="#1994AC" d="M751,286.103c-22.32,0-40.479-18.158-40.479-40.477c0-22.32,18.158-40.479,40.479-40.479
		c22.318,0,40.477,18.158,40.477,40.479C791.477,267.944,773.319,286.103,751,286.103z M751,212.153
		c-18.457,0-33.473,15.016-33.473,33.473c0,18.455,15.016,33.471,33.473,33.471s33.471-15.016,33.471-33.471
		C784.471,227.169,769.458,212.153,751,212.153z"/>
</g>
<circle fill="#1994AC" cx="737.572" cy="235.628" r="5.839"/>
<circle fill="#1994AC" cx="764.428" cy="235.628" r="5.838"/>
<path fill="#1994AC" d="M764.831,271.313c-1.119,0-2.188-0.646-2.67-1.735c-1.865-4.2-6.436-6.927-11.641-6.943
	c-0.016,0-0.033,0-0.049,0c-5.105,0-9.326,2.6-11.299,6.962c-0.664,1.468-2.393,2.121-3.861,1.457
	c-1.469-0.665-2.121-2.395-1.457-3.863c2.9-6.415,9.266-10.394,16.617-10.394c0.023,0,0.045,0,0.068,0
	c7.504,0.024,14.16,4.112,16.957,10.412c0.654,1.474-0.01,3.198-1.484,3.853C765.627,271.232,765.225,271.313,764.831,271.313z"/>
<g>
	<g>
		<circle fill="#E0EBEE" cx="1003.999" cy="245.603" r="37.255"/>
		<path fill="#1994AC" d="M1003.999,286.386c-22.487,0-40.783-18.293-40.783-40.783s18.296-40.783,40.783-40.783
			c22.488,0,40.784,18.293,40.784,40.783S1026.487,286.386,1003.999,286.386z M1003.999,211.876
			c-18.595,0-33.725,15.13-33.725,33.727s15.13,33.727,33.725,33.727c18.596,0,33.726-15.13,33.726-33.727
			S1022.594,211.876,1003.999,211.876z"/>
	</g>
	<path fill="#1994AC" d="M996.352,235.528c0,3.25-2.634,5.884-5.883,5.884s-5.883-2.634-5.883-5.884
		c0-3.246,2.634-5.881,5.883-5.881S996.352,232.282,996.352,235.528z"/>
	<path fill="#1994AC" d="M1023.412,235.528c0,3.25-2.634,5.884-5.883,5.884s-5.883-2.634-5.883-5.884
		c0-3.246,2.634-5.881,5.883-5.881S1023.412,232.282,1023.412,235.528z"/>
	<path fill="#1994AC" d="M990.131,270.189c-0.763,0-1.524-0.294-2.1-0.882c-1.134-1.157-1.121-3.01,0.031-4.147
		c0.152-0.149,15.32-14.769,31.25-0.095c1.194,1.099,1.271,2.957,0.171,4.152c-1.1,1.195-2.961,1.274-4.155,0.172
		c-4.935-4.543-10.246-5.977-15.785-4.262c-4.365,1.352-7.327,4.195-7.355,4.228C991.615,269.91,990.874,270.189,990.131,270.189z"
		/>
</g>
<g>
	<g>
		<circle fill="#E0EBEE" cx="1216" cy="245.28" r="37.042"/>
		<path fill="#1994AC" d="M1216,285.83c-22.36,0-40.55-18.192-40.55-40.55c0-22.36,18.189-40.551,40.55-40.551
			s40.551,18.19,40.551,40.551C1256.55,267.638,1238.36,285.83,1216,285.83z M1216,211.747c-18.49,0-33.53,15.042-33.53,33.533
			c0,18.49,15.04,33.532,33.53,33.532c18.491,0,33.533-15.042,33.533-33.532C1249.533,226.789,1234.491,211.747,1216,211.747z"/>
	</g>
	<circle fill="#1994AC" cx="1202.548" cy="235.264" r="5.849"/>
	<circle fill="#1994AC" cx="1229.452" cy="235.264" r="5.849"/>
	<path fill="#1994AC" d="M1229.245,266.864c-14.865,0-27.036-0.005-27.036-0.005c-1.616,0-2.926-1.31-2.923-2.925
		c0-1.616,1.309-2.924,2.923-2.924c0.002,0,0.002,0,0.002,0s12.168,0.007,27.033,0.007c1.616,0,2.925,1.309,2.925,2.925
		C1232.169,265.555,1230.861,266.864,1229.245,266.864z"/>
</g>
<g>
	<g>
		<circle fill="#E0EBEE" cx="1447.667" cy="245.44" r="37.202"/>
		<path fill="#1994AC" d="M1447.667,286.167c-22.457,0-40.727-18.269-40.727-40.727s18.27-40.727,40.727-40.727
			c22.459,0,40.727,18.269,40.727,40.727S1470.125,286.167,1447.667,286.167z M1447.667,211.761
			c-18.57,0-33.676,15.108-33.676,33.68s15.105,33.68,33.676,33.68c18.572,0,33.678-15.108,33.678-33.68
			S1466.239,211.761,1447.667,211.761z"/>
	</g>
	<circle fill="#1994AC" cx="1434.157" cy="235.381" r="5.875"/>
	<circle fill="#1994AC" cx="1461.177" cy="235.381" r="5.874"/>
	<path fill="#1994AC" d="M1447.823,270.004c-9.209,0-15.969-6.516-16.07-6.616c-1.152-1.14-1.166-2.998-0.025-4.151
		c1.137-1.153,2.99-1.167,4.146-0.034c0.061,0.059,3.01,2.877,7.344,4.219c5.531,1.716,10.834,0.28,15.764-4.257
		c1.193-1.1,3.053-1.023,4.15,0.171c1.1,1.191,1.023,3.051-0.17,4.148C1457.653,268.373,1452.432,270.004,1447.823,270.004z"/>
</g>
<g>
	<g>
		<circle fill="#E0EBEE" cx="1704" cy="245.259" r="37.011"/>
		<path fill="#1994AC" d="M1704,285.775c-22.344,0-40.518-18.178-40.518-40.517c0-22.344,18.174-40.518,40.518-40.518
			c22.343,0,40.517,18.174,40.517,40.518C1744.517,267.598,1726.343,285.775,1704,285.775z M1704,211.753
			c-18.477,0-33.503,15.03-33.503,33.506s15.026,33.505,33.503,33.505c18.476,0,33.502-15.029,33.502-33.505
			S1722.476,211.753,1704,211.753z"/>
	</g>
	<circle fill="#1994AC" cx="1690.559" cy="235.25" r="5.844"/>
	<circle fill="#1994AC" cx="1717.441" cy="235.25" r="5.844"/>
	<g>
		<path fill="#1994AC" d="M1689.5,259.379c3.31,12.571,23.825,12.98,28.34,0H1689.5z"/>
		<path fill="#1994AC" d="M1703.367,271.881h-0.003c-8.13,0-14.837-4.726-16.689-11.759c-0.232-0.875-0.042-1.809,0.513-2.527
			c0.552-0.72,1.405-1.138,2.313-1.138h28.34c0.947,0,1.836,0.458,2.383,1.228c0.549,0.771,0.688,1.759,0.38,2.654
			C1718.163,267.351,1711.397,271.881,1703.367,271.881z M1694.238,262.299c2.34,2.701,6.059,3.74,9.126,3.74h0.003
			c3.02,0,6.767-1.042,9.354-3.74H1694.238z"/>
	</g>
</g>
<g>
	<g>
		<circle fill="#E1EFDC" cx="1071.125" cy="433.499" r="11.418"/>
		<path fill="#5FAF46" d="M1071.125,445.999c-6.893,0-12.5-5.607-12.5-12.5s5.607-12.5,12.5-12.5s12.5,5.607,12.5,12.5
			S1078.018,445.999,1071.125,445.999z M1071.125,423.163c-5.7,0-10.336,4.637-10.336,10.336c0,5.701,4.636,10.338,10.336,10.338
			s10.336-4.637,10.336-10.338C1081.461,427.8,1076.825,423.163,1071.125,423.163z"/>
	</g>
	<circle fill="#58AD46" cx="1066.978" cy="430.411" r="1.803"/>
	<circle fill="#58AD46" cx="1075.272" cy="430.411" r="1.803"/>
	<path fill="#58AD46" d="M1071.173,441.038c-2.826,0-4.901-1.998-4.932-2.029c-0.354-0.35-0.358-0.922-0.008-1.275
		c0.349-0.354,0.918-0.357,1.273-0.01c0.019,0.018,0.923,0.883,2.254,1.295c1.698,0.525,3.325,0.086,4.838-1.307
		c0.366-0.338,0.937-0.314,1.273,0.053c0.338,0.365,0.314,0.936-0.052,1.273C1074.19,440.538,1072.587,441.038,1071.173,441.038z"/>
</g>
<g>
	<circle fill="#FDFAD6" cx="1160.077" cy="433.583" r="11.418"/>
	<path fill="#FEC70E" d="M1160.077,446.083c-6.893,0-12.5-5.607-12.5-12.5s5.607-12.5,12.5-12.5s12.5,5.607,12.5,12.5
		S1166.97,446.083,1160.077,446.083z M1160.077,423.246c-5.7,0-10.336,4.637-10.336,10.337s4.637,10.337,10.336,10.337
		s10.337-4.637,10.337-10.337S1165.776,423.246,1160.077,423.246z"/>
</g>
<circle fill="#FEC70E" cx="1155.93" cy="430.495" r="1.803"/>
<circle fill="#FEC70E" cx="1164.223" cy="430.495" r="1.803"/>
<path fill="#FEC70E" d="M1164.325,438.854c-4.544,0.593-8.265,1.076-8.265,1.076c-0.493,0.063-0.946-0.284-1.009-0.778
	c-0.064-0.494,0.284-0.946,0.777-1.01c0.001,0,0.001,0,0.001,0s3.72-0.482,8.264-1.074c0.494-0.064,0.946,0.283,1.011,0.777
	C1165.167,438.338,1164.818,438.791,1164.325,438.854z"/>
<path fill="none" stroke="#1994AC" stroke-width="3" stroke-linecap="round" stroke-miterlimit="10" d="M1209.523,444.805
	c0,0,20.807,0.011,46.227,0.011"/>
<g>
	<g>
		<circle fill="#E0EBEE" cx="2068.073" cy="-431.822" r="13.702"/>
		<path fill="#1994AC" d="M2072.702-417.554c-7.866,2.552-16.345-1.77-18.897-9.638s1.772-16.345,9.638-18.897
			c7.867-2.553,16.345,1.77,18.897,9.638S2080.569-420.107,2072.702-417.554z M2064.243-443.62
			c-6.504,2.111-10.079,9.121-7.968,15.627s9.121,10.081,15.626,7.971c6.506-2.111,10.081-9.122,7.97-15.627
			S2070.749-445.731,2064.243-443.62z"/>
	</g>
	<circle fill="#1994AC" cx="2062.196" cy="-433.81" r="2.163"/>
	<circle fill="#1994AC" cx="2071.662" cy="-436.881" r="2.164"/>
	<path fill="#1994AC" d="M2075.885-424.349c-0.395,0.128-0.844,0.021-1.139-0.306c-1.139-1.268-3.061-1.706-4.898-1.116
		c-0.006,0.001-0.012,0.003-0.017,0.004c-1.801,0.584-2.989,1.983-3.187,3.747c-0.066,0.594-0.602,1.021-1.193,0.955
		c-0.595-0.066-1.022-0.601-0.957-1.195c0.29-2.593,2.077-4.723,4.669-5.564c0.01-0.003,0.017-0.006,0.024-0.008
		c2.648-0.849,5.46-0.169,7.167,1.731c0.399,0.444,0.362,1.129-0.081,1.527C2076.158-424.469,2076.026-424.394,2075.885-424.349z"/>
</g>
<g>
	<g>
		<circle fill="#E0EBEE" cx="2084.582" cy="-441.255" r="13.702"/>
		<path fill="#1994AC" d="M2088.667-426.822c-7.956,2.253-16.266-2.387-18.52-10.345c-2.254-7.958,2.389-16.267,10.346-18.52
			c7.958-2.254,16.266,2.386,18.52,10.345C2101.266-437.384,2096.626-429.076,2088.667-426.822z M2081.201-453.189
			c-6.579,1.863-10.417,8.733-8.553,15.314c1.863,6.581,8.733,10.418,15.312,8.555c6.581-1.864,10.419-8.733,8.555-15.314
			C2094.652-451.215,2087.782-455.053,2081.201-453.189z"/>
	</g>
	<circle fill="#1994AC" cx="2078.784" cy="-443.463" r="2.163"/>
	<circle fill="#1994AC" cx="2088.359" cy="-446.175" r="2.164"/>
	<path fill="#1994AC" d="M2082.138-431.165c-0.271,0.077-0.569,0.049-0.831-0.101c-0.518-0.296-0.7-0.953-0.406-1.471
		c0.04-0.069,3.941-6.761,11.05-3.167c0.533,0.27,0.747,0.92,0.477,1.454c-0.27,0.533-0.919,0.747-1.452,0.477
		c-2.201-1.114-4.227-1.088-6.015,0.073c-1.409,0.917-2.171,2.219-2.179,2.233C2082.634-431.411,2082.401-431.239,2082.138-431.165z
		"/>
</g>
<g>
	<g>
		<circle fill="#E0EBEE" cx="2102.094" cy="-444.012" r="13.702"/>
		<path fill="#1994AC" d="M2102.093-429.012c-8.271,0-15-6.729-15-15c0-8.271,6.729-15,15-15s15,6.729,15,15
			C2117.093-435.741,2110.365-429.012,2102.093-429.012z M2102.093-456.416c-6.84,0-12.402,5.564-12.402,12.404
			s5.562,12.404,12.402,12.404s12.404-5.564,12.404-12.404S2108.933-456.416,2102.093-456.416z"/>
	</g>
	<circle fill="#1994AC" cx="2097.118" cy="-447.717" r="2.163"/>
	<circle fill="#1994AC" cx="2107.07" cy="-447.717" r="2.164"/>
	<path fill="#1994AC" d="M2106.994-436.027c-5.5,0-10.002-0.002-10.002-0.002c-0.598,0-1.082-0.484-1.08-1.082
		c0-0.598,0.484-1.081,1.08-1.081c0.002,0,0.002,0,0.002,0s4.5,0.002,10,0.002c0.598,0,1.082,0.484,1.082,1.082
		C2108.076-436.512,2107.591-436.027,2106.994-436.027z"/>
</g>
<g>
	<g>
		<circle fill="#E0EBEE" cx="2123.368" cy="-441.254" r="13.702"/>
		<path fill="#1994AC" d="M2117.878-427.294c-7.698-3.026-11.498-11.75-8.472-19.448s11.75-11.498,19.448-8.472
			s11.498,11.75,8.472,19.448S2125.577-424.268,2117.878-427.294z M2127.905-452.798c-6.365-2.503-13.578,0.641-16.08,7.006
			c-2.503,6.365,0.638,13.579,7.004,16.082c6.365,2.503,13.58-0.64,16.082-7.005
			C2137.414-443.082,2134.271-450.296,2127.905-452.798z"/>
	</g>
	<circle fill="#1994AC" cx="2120.092" cy="-446.523" r="2.163"/>
	<circle fill="#1994AC" cx="2129.354" cy="-442.882" r="2.164"/>
	<path fill="#1994AC" d="M2120.111-432.813c-3.157-1.241-4.597-4.385-4.618-4.434c-0.24-0.546,0.005-1.185,0.551-1.427
		c0.547-0.242,1.183,0.003,1.426,0.547c0.015,0.029,0.646,1.392,1.949,2.436c1.665,1.333,3.676,1.556,5.978,0.666
		c0.558-0.216,1.184,0.06,1.398,0.617c0.218,0.558-0.06,1.184-0.617,1.399C2123.699-432.048,2121.691-432.192,2120.111-432.813z"/>
</g>
<g>
	<g>
		<circle fill="#E0EBEE" cx="2138.912" cy="-431.123" r="13.702"/>
		<path fill="#1994AC" d="M2129.281-419.623c-6.342-5.31-7.181-14.789-1.871-21.13c5.31-6.342,14.788-7.182,21.131-1.872
			c6.342,5.31,7.181,14.789,1.871,21.13C2145.102-415.153,2135.624-414.312,2129.281-419.623z M2146.874-440.634
			c-5.244-4.391-13.081-3.695-17.473,1.549c-4.391,5.244-3.697,13.082,1.547,17.473s13.083,3.697,17.474-1.547
			C2152.812-428.405,2152.118-436.243,2146.874-440.634z"/>
	</g>
	<circle fill="#1994AC" cx="2137.475" cy="-437.158" r="2.163"/>
	<circle fill="#1994AC" cx="2145.105" cy="-430.77" r="2.164"/>
	<g>
		<path fill="#1994AC" d="M2131.44-430.561c-2.05,4.355,3.678,9.347,8.044,6.736L2131.44-430.561z"/>
		<path fill="#1994AC" d="M2132.404-423.717L2132.404-423.717c-2.308-1.932-3.09-4.869-1.943-7.305
			c0.142-0.304,0.418-0.523,0.745-0.596c0.329-0.073,0.671,0.011,0.929,0.227l8.045,6.736c0.268,0.224,0.412,0.566,0.383,0.914
			c-0.027,0.349-0.222,0.664-0.522,0.844C2137.681-421.486,2134.683-421.809,2132.404-423.717z M2132.09-428.606
			c0.021,1.322,0.83,2.501,1.702,3.231l0,0c0.857,0.718,2.169,1.312,3.544,1.161L2132.09-428.606z"/>
	</g>
</g>
<g>
	
		<line fill="none" stroke="#E0E0E0" stroke-width="5" stroke-linecap="round" stroke-linejoin="round" stroke-miterlimit="10" x1="234.5" y1="9.917" x2="234.5" y2="146.583"/>
	
		<line fill="none" stroke="#E0E0E0" stroke-width="5" stroke-linecap="round" stroke-linejoin="round" stroke-miterlimit="10" x1="234.5" y1="28.583" x2="226.667" y2="28.583"/>
	
		<line fill="none" stroke="#E0E0E0" stroke-width="5" stroke-linecap="round" stroke-linejoin="round" stroke-miterlimit="10" x1="234.5" y1="48.583" x2="226.667" y2="48.583"/>
	
		<line fill="none" stroke="#E0E0E0" stroke-width="5" stroke-linecap="round" stroke-linejoin="round" stroke-miterlimit="10" x1="234.5" y1="68.583" x2="226.667" y2="68.583"/>
	
		<line fill="none" stroke="#E0E0E0" stroke-width="5" stroke-linecap="round" stroke-linejoin="round" stroke-miterlimit="10" x1="234.5" y1="88.583" x2="226.667" y2="88.583"/>
	
		<line fill="none" stroke="#E0E0E0" stroke-width="5" stroke-linecap="round" stroke-linejoin="round" stroke-miterlimit="10" x1="234.5" y1="108.583" x2="226.667" y2="108.583"/>
	
		<line fill="none" stroke="#E0E0E0" stroke-width="5" stroke-linecap="round" stroke-linejoin="round" stroke-miterlimit="10" x1="234.5" y1="128.583" x2="226.667" y2="128.583"/>
</g>
<g>
	
		<line fill="none" stroke="#E0E0E0" stroke-width="5" stroke-linecap="round" stroke-linejoin="round" stroke-miterlimit="10" x1="371.167" y1="146.583" x2="234.5" y2="146.583"/>
	
		<line fill="none" stroke="#E0E0E0" stroke-width="5" stroke-linecap="round" stroke-linejoin="round" stroke-miterlimit="10" x1="352.5" y1="146.583" x2="352.5" y2="154.417"/>
	
		<line fill="none" stroke="#E0E0E0" stroke-width="5" stroke-linecap="round" stroke-linejoin="round" stroke-miterlimit="10" x1="332.5" y1="146.583" x2="332.5" y2="154.417"/>
	
		<line fill="none" stroke="#E0E0E0" stroke-width="5" stroke-linecap="round" stroke-linejoin="round" stroke-miterlimit="10" x1="312.5" y1="146.583" x2="312.5" y2="154.417"/>
	
		<line fill="none" stroke="#E0E0E0" stroke-width="5" stroke-linecap="round" stroke-linejoin="round" stroke-miterlimit="10" x1="292.5" y1="146.583" x2="292.5" y2="154.417"/>
	
		<line fill="none" stroke="#E0E0E0" stroke-width="5" stroke-linecap="round" stroke-linejoin="round" stroke-miterlimit="10" x1="272.5" y1="146.583" x2="272.5" y2="154.417"/>
	
		<line fill="none" stroke="#E0E0E0" stroke-width="5" stroke-linecap="round" stroke-linejoin="round" stroke-miterlimit="10" x1="252.5" y1="146.583" x2="252.5" y2="154.417"/>
</g>
<g>
	
		<line fill="none" stroke="#E0E0E0" stroke-width="5" stroke-linecap="round" stroke-linejoin="round" stroke-miterlimit="10" x1="452.167" y1="146.583" x2="354.167" y2="146.583"/>
	
		<line fill="none" stroke="#E0E0E0" stroke-width="5" stroke-linecap="round" stroke-linejoin="round" stroke-miterlimit="10" x1="452.167" y1="146.583" x2="452.167" y2="154.417"/>
	
		<line fill="none" stroke="#E0E0E0" stroke-width="5" stroke-linecap="round" stroke-linejoin="round" stroke-miterlimit="10" x1="432.167" y1="146.583" x2="432.167" y2="154.417"/>
	
		<line fill="none" stroke="#E0E0E0" stroke-width="5" stroke-linecap="round" stroke-linejoin="round" stroke-miterlimit="10" x1="412.167" y1="146.583" x2="412.167" y2="154.417"/>
	
		<line fill="none" stroke="#E0E0E0" stroke-width="5" stroke-linecap="round" stroke-linejoin="round" stroke-miterlimit="10" x1="392.167" y1="146.583" x2="392.167" y2="154.417"/>
	
		<line fill="none" stroke="#E0E0E0" stroke-width="5" stroke-linecap="round" stroke-linejoin="round" stroke-miterlimit="10" x1="372.167" y1="146.583" x2="372.167" y2="154.417"/>
</g>
<g>
	<g>
		<circle fill="#E0EBEE" cx="350.613" cy="78.25" r="29.785"/>
		<path fill="#1994AC" d="M355.308,110.517c-17.793,2.589-34.373-9.779-36.962-27.571c-2.588-17.793,9.779-34.373,27.572-36.962
			s34.373,9.779,36.962,27.571C385.469,91.348,373.101,107.928,355.308,110.517z M346.731,51.566
			c-14.713,2.142-24.94,15.853-22.799,30.565c2.141,14.715,15.852,24.941,30.564,22.802c14.713-2.142,24.941-15.853,22.8-30.566
			S361.443,49.427,346.731,51.566z"/>
	</g>
	<path fill="#1994AC" d="M343.404,71.159c0.374,2.571-1.406,4.959-3.977,5.334c-2.571,0.374-4.958-1.407-5.332-3.979
		c-0.374-2.568,1.406-4.956,3.978-5.33C340.643,66.81,343.03,68.591,343.404,71.159z"/>
	<path fill="#1994AC" d="M364.812,68.044c0.374,2.572-1.406,4.96-3.978,5.334c-2.57,0.374-4.957-1.408-5.331-3.979
		c-0.374-2.568,1.407-4.956,3.977-5.33C362.051,63.694,364.438,65.476,364.812,68.044z"/>
	<path fill="#1994AC" d="M363.558,90.259c-11.508,3.238-20.931,5.884-20.931,5.884c-1.249,0.348-2.548-0.379-2.897-1.631
		c-0.352-1.251,0.377-2.55,1.626-2.897c0.002-0.001,0.002-0.001,0.002-0.001s9.421-2.643,20.928-5.877
		c1.25-0.352,2.549,0.376,2.901,1.627C365.538,88.612,364.809,89.912,363.558,90.259z"/>
</g>
<g>
	
		<circle fill="none" stroke="#E0E0E0" stroke-width="3" stroke-linecap="round" stroke-linejoin="round" stroke-miterlimit="10" cx="393.315" cy="80.485" r="3.478"/>
	<g>
		
			<circle fill="none" stroke="#E0E0E0" stroke-width="3" stroke-linecap="round" stroke-linejoin="round" stroke-miterlimit="10" cx="433.097" cy="39.015" r="3.478"/>
		
			<circle fill="none" stroke="#E0E0E0" stroke-width="3" stroke-linecap="round" stroke-linejoin="round" stroke-miterlimit="10" cx="453.315" cy="39.015" r="3.478"/>
		
			<circle fill="none" stroke="#E0E0E0" stroke-width="3" stroke-linecap="round" stroke-linejoin="round" stroke-miterlimit="10" cx="413.148" cy="80.485" r="3.478"/>
		<line fill="none" stroke="#E0E0E0" stroke-width="4" stroke-miterlimit="10" x1="449.838" y1="39.015" x2="436.556" y2="39.015"/>
		<line fill="none" stroke="#E0E0E0" stroke-width="4" stroke-miterlimit="10" x1="431.161" y1="41.435" x2="414.878" y2="77.133"/>
		<line fill="none" stroke="#E0E0E0" stroke-width="4" stroke-miterlimit="10" x1="410.479" y1="80.485" x2="397.197" y2="80.485"/>
	</g>
</g>
<g>
	
		<circle fill="none" stroke="#E0E0E0" stroke-width="3" stroke-linecap="round" stroke-linejoin="round" stroke-miterlimit="10" cx="291.948" cy="80.893" r="3.478"/>
	
		<circle fill="none" stroke="#E0E0E0" stroke-width="3" stroke-linecap="round" stroke-linejoin="round" stroke-miterlimit="10" cx="312.167" cy="80.893" r="3.478"/>
	
		<circle fill="none" stroke="#E0E0E0" stroke-width="3" stroke-linecap="round" stroke-linejoin="round" stroke-miterlimit="10" cx="272" cy="122.363" r="3.478"/>
	
		<circle fill="none" stroke="#E0E0E0" stroke-width="3" stroke-linecap="round" stroke-linejoin="round" stroke-miterlimit="10" cx="252.167" cy="122.363" r="3.478"/>
	<line fill="none" stroke="#E0E0E0" stroke-width="4" stroke-miterlimit="10" x1="308.689" y1="80.893" x2="295.407" y2="80.893"/>
	<line fill="none" stroke="#E0E0E0" stroke-width="4" stroke-miterlimit="10" x1="290.013" y1="83.312" x2="273.729" y2="119.011"/>
	
		<line fill="none" stroke="#E0E0E0" stroke-width="4" stroke-miterlimit="10" x1="269.331" y1="122.363" x2="256.048" y2="122.363"/>
</g>
<g>
	
		<line fill="none" stroke="#E0EBEE" stroke-width="3" stroke-linecap="round" stroke-linejoin="round" stroke-miterlimit="10" x1="235" y1="410.23" x2="235" y2="536.059"/>
</g>
<circle fill="#FFFFFF" cx="234.87" cy="432.674" r="8.5"/>
<g>
	<g>
		<circle fill="#E0EBEE" cx="234.87" cy="432.674" r="5.938"/>
		<path fill="#1994AC" d="M234.87,439.174c-3.584,0-6.5-2.916-6.5-6.5c0-3.585,2.916-6.5,6.5-6.5s6.5,2.915,6.5,6.5
			C241.37,436.258,238.454,439.174,234.87,439.174z M234.87,427.299c-2.964,0-5.375,2.412-5.375,5.375
			c0,2.964,2.411,5.375,5.375,5.375c2.964,0,5.375-2.411,5.375-5.375C240.245,429.711,237.833,427.299,234.87,427.299z"/>
	</g>
	<circle fill="#1994AC" cx="232.714" cy="431.068" r="0.938"/>
	<circle fill="#1994AC" cx="237.026" cy="431.068" r="0.938"/>
	<g>
		<path fill="#1994AC" d="M232.543,434.939c0.531,2.017,3.822,2.082,4.547,0H232.543z"/>
		<path fill="#1994AC" d="M234.768,436.944L234.768,436.944c-1.305,0-2.381-0.758-2.678-1.887c-0.037-0.139-0.007-0.289,0.082-0.405
			c0.088-0.114,0.226-0.183,0.371-0.183h4.547c0.151,0,0.294,0.074,0.382,0.198c0.088,0.123,0.111,0.282,0.061,0.425
			C237.141,436.218,236.056,436.944,234.768,436.944z M233.304,435.408c0.375,0.432,0.972,0.6,1.463,0.6h0.001
			c0.484,0,1.085-0.168,1.5-0.6H233.304z"/>
	</g>
</g>
<path fill="#E0EBEE" d="M344.833,445.288c0,1.13-1.122,2.045-2.506,2.045H254.34c-1.384,0-2.506-0.915-2.506-2.045V420.06
	c0-1.13,1.122-2.045,2.506-2.045h87.987c1.384,0,2.506,0.915,2.506,2.045V445.288z"/>
<polygon fill="#E0EBEE" stroke="#E0EBEE" stroke-width="2" stroke-linecap="round" stroke-linejoin="round" stroke-miterlimit="10" points="
	256.469,428.591 256.468,436.757 249.397,432.673 "/>
<g>
	<path fill="#C9E0E5" d="M324,426.312c0,0.256-0.301,0.462-0.672,0.462h-66.476c-0.371,0-0.672-0.206-0.672-0.462v-1.828
		c0-0.256,0.301-0.462,0.672-0.462h66.476c0.371,0,0.672,0.206,0.672,0.462V426.312z"/>
	<path fill="#C9E0E5" d="M336.167,433.588c0,0.256-0.355,0.462-0.792,0.462h-78.401c-0.438,0-0.792-0.206-0.792-0.462v-1.828
		c0-0.256,0.355-0.462,0.792-0.462h78.401c0.438,0,0.792,0.206,0.792,0.462V433.588z"/>
	<path fill="#C9E0E5" d="M331.667,441.025c0,0.256-0.335,0.462-0.748,0.462h-73.99c-0.413,0-0.748-0.206-0.748-0.462v-1.828
		c0-0.256,0.335-0.462,0.748-0.462h73.99c0.413,0,0.748,0.206,0.748,0.462V441.025z"/>
</g>
<circle fill="#FFFFFF" cx="234.87" cy="472.674" r="8.5"/>
<path fill="#E0EBEE" d="M344.833,485.288c0,1.13-1.122,2.045-2.506,2.045H254.34c-1.384,0-2.506-0.915-2.506-2.045V460.06
	c0-1.13,1.122-2.045,2.506-2.045h87.987c1.384,0,2.506,0.915,2.506,2.045V485.288z"/>
<polygon fill="#E0EBEE" stroke="#E0EBEE" stroke-width="2" stroke-linecap="round" stroke-linejoin="round" stroke-miterlimit="10" points="
	256.469,468.591 256.468,476.757 249.397,472.673 "/>
<g>
	<path fill="#C9E0E5" d="M324,466.312c0,0.256-0.301,0.462-0.672,0.462h-66.476c-0.371,0-0.672-0.206-0.672-0.462v-1.828
		c0-0.256,0.301-0.462,0.672-0.462h66.476c0.371,0,0.672,0.206,0.672,0.462V466.312z"/>
	<path fill="#C9E0E5" d="M336.167,473.588c0,0.256-0.355,0.462-0.792,0.462h-78.401c-0.438,0-0.792-0.206-0.792-0.462v-1.828
		c0-0.256,0.355-0.462,0.792-0.462h78.401c0.438,0,0.792,0.206,0.792,0.462V473.588z"/>
	<path fill="#C9E0E5" d="M331.667,481.025c0,0.256-0.335,0.462-0.748,0.462h-73.99c-0.413,0-0.748-0.206-0.748-0.462v-1.828
		c0-0.256,0.335-0.462,0.748-0.462h73.99c0.413,0,0.748,0.206,0.748,0.462V481.025z"/>
</g>
<g>
	<g>
		<circle fill="#E0EBEE" cx="234.801" cy="472.674" r="5.938"/>
		<path fill="#1994AC" d="M234.801,479.174c-3.584,0-6.5-2.915-6.5-6.5s2.916-6.5,6.5-6.5s6.5,2.915,6.5,6.5
			S238.385,479.174,234.801,479.174z M234.801,467.299c-2.963,0-5.375,2.411-5.375,5.375s2.412,5.375,5.375,5.375
			s5.375-2.411,5.375-5.375S237.764,467.299,234.801,467.299z"/>
	</g>
	<circle fill="#1994AC" cx="232.645" cy="471.068" r="0.938"/>
	<circle fill="#1994AC" cx="236.957" cy="471.068" r="0.938"/>
	<path fill="#1994AC" d="M237.021,476.799c-0.179,0-0.351-0.104-0.428-0.278c-0.3-0.675-1.033-1.112-1.87-1.115
		c-0.002,0-0.005,0-0.008,0c-0.82,0-1.498,0.418-1.814,1.117c-0.107,0.237-0.385,0.342-0.62,0.234
		c-0.236-0.106-0.341-0.384-0.234-0.62c0.466-1.03,1.488-1.669,2.668-1.669c0.004,0,0.008,0,0.011,0
		c1.205,0.004,2.273,0.661,2.723,1.672c0.104,0.236-0.002,0.514-0.238,0.618C237.15,476.785,237.085,476.799,237.021,476.799z"/>
</g>
<circle fill="#FFFFFF" cx="234.87" cy="512.674" r="8.5"/>
<path fill="#E0EBEE" d="M344.833,525.288c0,1.13-1.122,2.045-2.506,2.045H254.34c-1.384,0-2.506-0.915-2.506-2.045V500.06
	c0-1.13,1.122-2.045,2.506-2.045h87.987c1.384,0,2.506,0.915,2.506,2.045V525.288z"/>
<polygon fill="#E0EBEE" stroke="#E0EBEE" stroke-width="2" stroke-linecap="round" stroke-linejoin="round" stroke-miterlimit="10" points="
	256.469,508.591 256.468,516.757 249.397,512.673 "/>
<g>
	<path fill="#C9E0E5" d="M324,506.312c0,0.256-0.301,0.462-0.672,0.462h-66.476c-0.371,0-0.672-0.206-0.672-0.462v-1.828
		c0-0.256,0.301-0.462,0.672-0.462h66.476c0.371,0,0.672,0.206,0.672,0.462V506.312z"/>
	<path fill="#C9E0E5" d="M336.167,513.588c0,0.256-0.355,0.462-0.792,0.462h-78.401c-0.438,0-0.792-0.206-0.792-0.462v-1.828
		c0-0.256,0.355-0.462,0.792-0.462h78.401c0.438,0,0.792,0.206,0.792,0.462V513.588z"/>
	<path fill="#C9E0E5" d="M331.667,521.025c0,0.256-0.335,0.462-0.748,0.462h-73.99c-0.413,0-0.748-0.206-0.748-0.462v-1.828
		c0-0.256,0.335-0.462,0.748-0.462h73.99c0.413,0,0.748,0.206,0.748,0.462V521.025z"/>
</g>
<g>
	<g>
		<circle fill="#E0EBEE" cx="234.87" cy="512.674" r="5.938"/>
		<path fill="#1994AC" d="M234.87,519.174c-3.584,0-6.5-2.915-6.5-6.5s2.916-6.5,6.5-6.5s6.5,2.915,6.5,6.5
			S238.454,519.174,234.87,519.174z M234.87,507.299c-2.964,0-5.375,2.411-5.375,5.375s2.411,5.375,5.375,5.375
			s5.375-2.411,5.375-5.375S237.833,507.299,234.87,507.299z"/>
	</g>
	<circle fill="#1994AC" cx="232.713" cy="511.068" r="0.938"/>
	<circle fill="#1994AC" cx="237.026" cy="511.068" r="0.938"/>
	<path fill="#1994AC" d="M234.895,516.595c-1.47,0-2.549-1.041-2.565-1.057c-0.184-0.182-0.186-0.479-0.004-0.663
		c0.182-0.184,0.478-0.186,0.662-0.005c0.01,0.009,0.48,0.459,1.172,0.674c0.882,0.273,1.729,0.045,2.516-0.68
		c0.19-0.176,0.487-0.164,0.663,0.026c0.175,0.19,0.163,0.488-0.027,0.663C236.463,516.334,235.63,516.595,234.895,516.595z"/>
</g>
<g id="_x31_favt2_1_">
	
		<image overflow="visible" width="21" height="5" id="_x31_favt2" xlink:href="FEAF6C5E9B08CEF2.jpg"  transform="matrix(0.5 0 0 0.5 7.8169 -2.8242)">
	</image>
</g>
<circle fill="#D7D7D7" cx="3.304" cy="3.125" r="2.822"/>
<circle fill="#D7D7D7" cx="12.983" cy="3.125" r="2.822"/>
<circle fill="#D7D7D7" cx="22.661" cy="3.125" r="2.822"/>
</svg>
