<?xml version="1.0" encoding="utf-8"?>
<!-- Generator: Adobe Illustrator 16.0.0, SVG Export Plug-In . SVG Version: 6.00 Build 0)  -->
<!DOCTYPE svg PUBLIC "-//W3C//DTD SVG 1.1//EN" "http://www.w3.org/Graphics/SVG/1.1/DTD/svg11.dtd">
<svg version="1.1" id="Layer_1" xmlns="http://www.w3.org/2000/svg" xmlns:xlink="http://www.w3.org/1999/xlink" x="0px" y="0px"
	 width="150px" height="150px" viewBox="0 0 150 150" enable-background="new 0 0 150 150" xml:space="preserve">
<circle fill="#E0EBEE" stroke="#1994AC" stroke-width="12" stroke-miterlimit="10" cx="324.522" cy="78" r="63.333"/>
<circle fill="#1994AC" cx="301.522" cy="60.875" r="10"/>
<circle fill="#1994AC" cx="347.522" cy="60.875" r="10"/>
<path fill="none" stroke="#1994AC" stroke-width="10" stroke-linecap="round" stroke-miterlimit="10" d="M300.943,114.807
	c0,0,22.338-22.045,46.227-0.045"/>
<g>
	<g>
		<circle fill="#E0EBEE" cx="328" cy="-191" r="13.702"/>
		<path fill="#1994AC" d="M328-176c-8.271,0-15-6.729-15-15s6.729-15,15-15s15,6.729,15,15S336.271-176,328-176z M328-203.404
			c-6.839,0-12.404,5.564-12.404,12.404c0,6.84,5.564,12.404,12.404,12.404s12.404-5.564,12.404-12.404
			C340.404-197.839,334.839-203.404,328-203.404z"/>
	</g>
	<circle fill="#1994AC" cx="323.024" cy="-194.705" r="2.164"/>
	<circle fill="#1994AC" cx="332.976" cy="-194.705" r="2.164"/>
	<path fill="#1994AC" d="M322.899-181.958c-0.28,0-0.561-0.108-0.772-0.324c-0.417-0.426-0.413-1.107,0.011-1.525
		c0.056-0.055,5.635-5.432,11.494-0.036c0.439,0.405,0.468,1.089,0.063,1.528c-0.404,0.439-1.089,0.468-1.528,0.063
		c-1.815-1.671-3.769-2.198-5.806-1.568c-1.605,0.498-2.695,1.544-2.706,1.555C323.445-182.06,323.172-181.958,322.899-181.958z"/>
</g>
<circle fill="#E0EBEE" stroke="#1994AC" stroke-width="12" stroke-miterlimit="10" cx="539.189" cy="72" r="63.333"/>
<circle fill="#1994AC" cx="516.189" cy="54.875" r="10"/>
<circle fill="#1994AC" cx="562.189" cy="54.875" r="10"/>
<path fill="none" stroke="#1994AC" stroke-width="10" stroke-linecap="round" stroke-miterlimit="10" d="M515.61,103.896
	c0,0,20.807,0.011,46.227,0.011"/>
<g>
	<g>
		<circle fill="#E0EBEE" cx="540" cy="-187" r="13.702"/>
		<path fill="#1994AC" d="M540-172c-8.271,0-15-6.729-15-15c0-8.271,6.729-15,15-15s15,6.729,15,15C555-178.729,548.271-172,540-172
			z M540-199.404c-6.84,0-12.404,5.564-12.404,12.404s5.564,12.404,12.404,12.404s12.404-5.564,12.404-12.404
			S546.84-199.404,540-199.404z"/>
	</g>
	<circle fill="#1994AC" cx="535.024" cy="-190.705" r="2.164"/>
	<circle fill="#1994AC" cx="544.976" cy="-190.705" r="2.164"/>
	<path fill="#1994AC" d="M544.899-179.016c-5.499,0-10.001-0.002-10.001-0.002c-0.598,0-1.082-0.484-1.081-1.082
		c0-0.598,0.484-1.081,1.081-1.081c0.001,0,0.001,0,0.001,0s4.501,0.002,10,0.002c0.598,0,1.082,0.484,1.082,1.082
		C545.981-179.5,545.497-179.016,544.899-179.016z"/>
</g>
<circle fill="#E0EBEE" stroke="#1994AC" stroke-width="12" stroke-miterlimit="10" cx="770.855" cy="77" r="63.333"/>
<circle fill="#1994AC" cx="747.855" cy="59.875" r="10"/>
<circle fill="#1994AC" cx="793.855" cy="59.875" r="10"/>
<path fill="none" stroke="#1994AC" stroke-width="10" stroke-linecap="round" stroke-miterlimit="10" d="M747.276,103.996
	c0,0,22.338,22.045,46.227,0.045"/>
<g>
	<g>
		<circle fill="#E0EBEE" cx="771.667" cy="-185" r="13.702"/>
		<path fill="#1994AC" d="M771.667-170c-8.271,0-15-6.729-15-15s6.729-15,15-15s15,6.729,15,15S779.938-170,771.667-170z
			 M771.667-197.404c-6.84,0-12.403,5.564-12.403,12.404s5.563,12.404,12.403,12.404S784.07-178.16,784.07-185
			S778.507-197.404,771.667-197.404z"/>
	</g>
	<circle fill="#1994AC" cx="766.691" cy="-188.705" r="2.164"/>
	<circle fill="#1994AC" cx="776.643" cy="-188.705" r="2.164"/>
	<path fill="#1994AC" d="M771.725-175.953c-3.392,0-5.882-2.399-5.919-2.437c-0.425-0.42-0.43-1.104-0.01-1.529
		c0.419-0.425,1.102-0.43,1.527-0.013c0.022,0.021,1.108,1.06,2.705,1.554c2.037,0.632,3.99,0.104,5.806-1.567
		c0.439-0.405,1.124-0.377,1.528,0.062c0.405,0.439,0.377,1.124-0.062,1.528C775.345-176.554,773.422-175.953,771.725-175.953z"/>
</g>
<circle fill="#E0EBEE" stroke="#1994AC" stroke-width="12" stroke-miterlimit="10" cx="1022.855" cy="76" r="63.333"/>
<circle fill="#1994AC" cx="999.855" cy="58.875" r="10"/>
<circle fill="#1994AC" cx="1045.855" cy="58.875" r="10"/>
<path fill="#1994AC" stroke="#1994AC" stroke-width="10" stroke-linecap="round" stroke-linejoin="round" stroke-miterlimit="10" d="
	M998.042,100.161c5.665,21.514,40.771,22.213,48.5,0H998.042z"/>
<g>
	<g>
		<circle fill="#E0EBEE" cx="1021.667" cy="-183" r="13.702"/>
		<path fill="#1994AC" d="M1021.667-168c-8.271,0-15-6.729-15-15c0-8.271,6.729-15,15-15s15,6.729,15,15
			C1036.667-174.729,1029.938-168,1021.667-168z M1021.667-195.404c-6.84,0-12.403,5.564-12.403,12.404s5.563,12.404,12.403,12.404
			s12.403-5.564,12.403-12.404S1028.507-195.404,1021.667-195.404z"/>
	</g>
	<circle fill="#1994AC" cx="1016.691" cy="-186.705" r="2.164"/>
	<circle fill="#1994AC" cx="1026.643" cy="-186.705" r="2.164"/>
	<g>
		<path fill="#1994AC" d="M1016.299-177.772c1.226,4.654,8.82,4.806,10.492,0H1016.299z"/>
		<path fill="#1994AC" d="M1021.433-173.144L1021.433-173.144c-3.011,0-5.494-1.75-6.18-4.354c-0.086-0.324-0.016-0.67,0.189-0.936
			c0.204-0.267,0.521-0.422,0.856-0.422h10.492c0.351,0,0.68,0.17,0.882,0.455c0.203,0.285,0.255,0.651,0.141,0.982
			C1026.91-174.821,1024.405-173.144,1021.433-173.144z M1018.053-176.691c0.866,1,2.243,1.385,3.379,1.385h0.001
			c1.118,0,2.505-0.386,3.463-1.385H1018.053z"/>
	</g>
</g>
<g>
	<circle fill="#E0EBEE" cx="74.855" cy="76" r="63.333"/>
	<path fill="#1994AC" d="M74.855,145.333c-38.23,0-69.333-31.103-69.333-69.333S36.625,6.667,74.855,6.667S144.188,37.77,144.188,76
		S113.086,145.333,74.855,145.333z M74.855,18.667c-31.614,0-57.333,25.72-57.333,57.333c0,31.613,25.719,57.333,57.333,57.333
		s57.333-25.72,57.333-57.333C132.188,44.386,106.469,18.667,74.855,18.667z"/>
</g>
<circle fill="#1994AC" cx="51.855" cy="58.875" r="10"/>
<circle fill="#1994AC" cx="97.855" cy="58.875" r="10"/>
<path fill="#1994AC" d="M98.545,120c-1.917,0-3.745-1.107-4.572-2.972c-3.196-7.195-11.022-11.864-19.938-11.894
	c-0.028,0-0.058,0-0.086,0c-8.743,0-15.972,4.452-19.351,11.925c-1.138,2.516-4.101,3.634-6.616,2.495
	c-2.516-1.138-3.634-4.1-2.496-6.616c4.97-10.989,15.87-17.804,28.464-17.804c0.04,0,0.078,0,0.117,0
	c12.851,0.043,24.251,7.044,29.043,17.835c1.121,2.523-0.016,5.478-2.54,6.599C99.912,119.861,99.223,120,98.545,120z"/>
<g>
	<g>
		<circle fill="#E0EBEE" cx="75" cy="-191" r="13.702"/>
		<path fill="#1994AC" d="M75-176c-8.271,0-15-6.729-15-15s6.729-15,15-15s15,6.729,15,15S83.271-176,75-176z M75-203.404
			c-6.839,0-12.404,5.564-12.404,12.404S68.161-178.596,75-178.596S87.404-184.16,87.404-191S81.839-203.404,75-203.404z"/>
	</g>
	<circle fill="#1994AC" cx="70.024" cy="-194.705" r="2.164"/>
	<circle fill="#1994AC" cx="79.976" cy="-194.705" r="2.164"/>
	<path fill="#1994AC" d="M80.125-181.48c-0.415,0-0.81-0.24-0.989-0.643c-0.691-1.558-2.384-2.567-4.313-2.573
		c-0.006-0.001-0.012-0.001-0.019-0.001c-1.892,0-3.456,0.964-4.187,2.58c-0.246,0.545-0.887,0.786-1.431,0.54
		c-0.544-0.246-0.786-0.887-0.54-1.432c1.075-2.377,3.434-3.852,6.158-3.852c0.009,0,0.017,0,0.025,0
		c2.78,0.01,5.247,1.524,6.284,3.858c0.242,0.546-0.004,1.186-0.55,1.428C80.421-181.511,80.272-181.48,80.125-181.48z"/>
</g>
<ellipse fill="#E6E7E8" cx="953" cy="475.369" rx="53.968" ry="13.667"/>
<g>
	<path fill="#22A1B2" d="M989.263,439.796c-10.596,11.278-32.844,35.032-32.844,35.032c-1.879,2.007-4.965,2.016-6.855,0.02
		l-29.809-31.476c-1.893-1.996-4.938-5.309-6.768-7.36c0,0-2.398-2.687-2.406-2.692c-7.207-7.611-9.68-18.975-9.68-30.255
		c0-28.773,23.326-52.1,52.1-52.1c28.771,0,52.098,23.326,52.098,52.1c0,15.428-7.143,25.95-7.143,25.95
		c-1.543,2.275-4.299,5.821-6.123,7.879L989.263,439.796z"/>
</g>
<g>
	<circle fill="#E0EBEE" cx="953.001" cy="402.543" r="36.975"/>
	<path fill="#1994AC" d="M953.001,443.02c-22.32,0-40.479-18.158-40.479-40.477c0-22.32,18.158-40.479,40.479-40.479
		c22.318,0,40.477,18.158,40.477,40.479C993.478,424.861,975.319,443.02,953.001,443.02z M953.001,369.07
		c-18.457,0-33.473,15.016-33.473,33.473c0,18.455,15.016,33.471,33.473,33.471s33.471-15.016,33.471-33.471
		C986.472,384.086,971.458,369.07,953.001,369.07z"/>
</g>
<circle fill="#1994AC" cx="939.572" cy="392.545" r="5.839"/>
<circle fill="#1994AC" cx="966.429" cy="392.545" r="5.838"/>
<path fill="#1994AC" d="M966.831,428.23c-1.119,0-2.188-0.646-2.67-1.735c-1.865-4.2-6.436-6.927-11.641-6.943
	c-0.016,0-0.033,0-0.049,0c-5.105,0-9.326,2.6-11.299,6.962c-0.664,1.468-2.393,2.121-3.861,1.457
	c-1.469-0.665-2.121-2.395-1.457-3.863c2.9-6.415,9.266-10.394,16.617-10.394c0.023,0,0.045,0,0.068,0
	c7.504,0.024,14.16,4.112,16.957,10.412c0.654,1.474-0.01,3.198-1.484,3.853C967.628,428.149,967.226,428.23,966.831,428.23z"/>
</svg>
