<?xml version="1.0" encoding="utf-8"?>
<!-- Generator: Adobe Illustrator 16.0.0, SVG Export Plug-In . SVG Version: 6.00 Build 0)  -->
<!DOCTYPE svg PUBLIC "-//W3C//DTD SVG 1.1//EN" "http://www.w3.org/Graphics/SVG/1.1/DTD/svg11.dtd">
<svg version="1.1" id="Layer_1" xmlns="http://www.w3.org/2000/svg" xmlns:xlink="http://www.w3.org/1999/xlink" x="0px" y="0px"
	 width="150px" height="150px" viewBox="0 0 150 150" enable-background="new 0 0 150 150" xml:space="preserve">
<circle fill="#E0EBEE" stroke="#1994AC" stroke-width="12" stroke-miterlimit="10" cx="324.522" cy="-146" r="63.333"/>
<circle fill="#1994AC" cx="301.522" cy="-163.125" r="10"/>
<circle fill="#1994AC" cx="347.522" cy="-163.125" r="10"/>
<path fill="none" stroke="#1994AC" stroke-width="10" stroke-linecap="round" stroke-miterlimit="10" d="M300.943-109.193
	c0,0,22.338-22.045,46.227-0.045"/>
<g>
	<g>
		<circle fill="#E0EBEE" cx="328" cy="-415" r="13.702"/>
		<path fill="#1994AC" d="M328-400c-8.271,0-15-6.729-15-15s6.729-15,15-15s15,6.729,15,15S336.271-400,328-400z M328-427.404
			c-6.839,0-12.404,5.564-12.404,12.404c0,6.84,5.564,12.404,12.404,12.404s12.404-5.564,12.404-12.404
			C340.404-421.839,334.839-427.404,328-427.404z"/>
	</g>
	<circle fill="#1994AC" cx="323.024" cy="-418.705" r="2.164"/>
	<circle fill="#1994AC" cx="332.976" cy="-418.705" r="2.164"/>
	<path fill="#1994AC" d="M322.899-405.958c-0.28,0-0.561-0.108-0.772-0.324c-0.417-0.426-0.413-1.107,0.011-1.525
		c0.056-0.055,5.635-5.432,11.494-0.036c0.439,0.405,0.468,1.089,0.063,1.528c-0.404,0.439-1.089,0.468-1.528,0.063
		c-1.815-1.671-3.769-2.198-5.806-1.568c-1.605,0.498-2.695,1.544-2.706,1.555C323.445-406.06,323.172-405.958,322.899-405.958z"/>
</g>
<circle fill="#E0EBEE" stroke="#1994AC" stroke-width="12" stroke-miterlimit="10" cx="539.189" cy="-152" r="63.333"/>
<circle fill="#1994AC" cx="516.189" cy="-169.125" r="10"/>
<circle fill="#1994AC" cx="562.189" cy="-169.125" r="10"/>
<path fill="none" stroke="#1994AC" stroke-width="10" stroke-linecap="round" stroke-miterlimit="10" d="M515.61-120.104
	c0,0,20.807,0.011,46.227,0.011"/>
<g>
	<g>
		<circle fill="#E0EBEE" cx="540" cy="-411" r="13.702"/>
		<path fill="#1994AC" d="M540-396c-8.271,0-15-6.729-15-15c0-8.271,6.729-15,15-15s15,6.729,15,15C555-402.729,548.271-396,540-396
			z M540-423.404c-6.84,0-12.404,5.564-12.404,12.404s5.564,12.404,12.404,12.404s12.404-5.564,12.404-12.404
			S546.84-423.404,540-423.404z"/>
	</g>
	<circle fill="#1994AC" cx="535.024" cy="-414.705" r="2.164"/>
	<circle fill="#1994AC" cx="544.976" cy="-414.705" r="2.164"/>
	<path fill="#1994AC" d="M544.899-403.016c-5.499,0-10.001-0.002-10.001-0.002c-0.598,0-1.082-0.484-1.081-1.082
		c0-0.598,0.484-1.081,1.081-1.081c0.001,0,0.001,0,0.001,0s4.501,0.002,10,0.002c0.598,0,1.082,0.484,1.082,1.082
		C545.981-403.5,545.497-403.016,544.899-403.016z"/>
</g>
<circle fill="#E0EBEE" stroke="#1994AC" stroke-width="12" stroke-miterlimit="10" cx="770.855" cy="-147" r="63.333"/>
<circle fill="#1994AC" cx="747.855" cy="-164.125" r="10"/>
<circle fill="#1994AC" cx="793.855" cy="-164.125" r="10"/>
<path fill="none" stroke="#1994AC" stroke-width="10" stroke-linecap="round" stroke-miterlimit="10" d="M747.276-120.004
	c0,0,22.338,22.045,46.227,0.045"/>
<g>
	<g>
		<circle fill="#E0EBEE" cx="771.667" cy="-409" r="13.702"/>
		<path fill="#1994AC" d="M771.667-394c-8.271,0-15-6.729-15-15s6.729-15,15-15s15,6.729,15,15S779.938-394,771.667-394z
			 M771.667-421.404c-6.84,0-12.403,5.564-12.403,12.404s5.563,12.404,12.403,12.404S784.07-402.16,784.07-409
			S778.507-421.404,771.667-421.404z"/>
	</g>
	<circle fill="#1994AC" cx="766.691" cy="-412.705" r="2.164"/>
	<circle fill="#1994AC" cx="776.643" cy="-412.705" r="2.164"/>
	<path fill="#1994AC" d="M771.725-399.953c-3.392,0-5.882-2.399-5.919-2.437c-0.425-0.42-0.43-1.104-0.01-1.529
		c0.419-0.425,1.102-0.43,1.527-0.013c0.022,0.021,1.108,1.06,2.705,1.554c2.037,0.632,3.99,0.104,5.806-1.567
		c0.439-0.405,1.124-0.377,1.528,0.062c0.405,0.439,0.377,1.124-0.062,1.528C775.345-400.554,773.422-399.953,771.725-399.953z"/>
</g>
<circle fill="#E0EBEE" stroke="#1994AC" stroke-width="12" stroke-miterlimit="10" cx="1022.855" cy="-148" r="63.333"/>
<circle fill="#1994AC" cx="999.855" cy="-165.125" r="10"/>
<circle fill="#1994AC" cx="1045.855" cy="-165.125" r="10"/>
<path fill="#1994AC" stroke="#1994AC" stroke-width="10" stroke-linecap="round" stroke-linejoin="round" stroke-miterlimit="10" d="
	M998.042-123.839c5.665,21.514,40.771,22.213,48.5,0H998.042z"/>
<g>
	<g>
		<circle fill="#E0EBEE" cx="1021.667" cy="-407" r="13.702"/>
		<path fill="#1994AC" d="M1021.667-392c-8.271,0-15-6.729-15-15c0-8.271,6.729-15,15-15s15,6.729,15,15
			C1036.667-398.729,1029.938-392,1021.667-392z M1021.667-419.404c-6.84,0-12.403,5.564-12.403,12.404s5.563,12.404,12.403,12.404
			s12.403-5.564,12.403-12.404S1028.507-419.404,1021.667-419.404z"/>
	</g>
	<circle fill="#1994AC" cx="1016.691" cy="-410.705" r="2.164"/>
	<circle fill="#1994AC" cx="1026.643" cy="-410.705" r="2.164"/>
	<g>
		<path fill="#1994AC" d="M1016.299-401.772c1.226,4.654,8.82,4.806,10.492,0H1016.299z"/>
		<path fill="#1994AC" d="M1021.433-397.144L1021.433-397.144c-3.011,0-5.494-1.75-6.18-4.354c-0.086-0.324-0.016-0.67,0.189-0.936
			c0.204-0.267,0.521-0.422,0.856-0.422h10.492c0.351,0,0.68,0.17,0.882,0.455c0.203,0.285,0.255,0.651,0.141,0.982
			C1026.91-398.821,1024.405-397.144,1021.433-397.144z M1018.053-400.691c0.866,1,2.243,1.385,3.379,1.385h0.001
			c1.118,0,2.505-0.386,3.463-1.385H1018.053z"/>
	</g>
</g>
<g>
	<circle fill="#E0EBEE" cx="74.855" cy="-148" r="63.333"/>
	<path fill="#1994AC" d="M74.855-78.667c-38.23,0-69.333-31.103-69.333-69.333s31.103-69.333,69.333-69.333
		S144.188-186.23,144.188-148S113.086-78.667,74.855-78.667z M74.855-205.333c-31.614,0-57.333,25.72-57.333,57.333
		c0,31.613,25.719,57.333,57.333,57.333s57.333-25.72,57.333-57.333C132.188-179.614,106.469-205.333,74.855-205.333z"/>
</g>
<circle fill="#1994AC" cx="51.855" cy="-165.125" r="10"/>
<circle fill="#1994AC" cx="97.855" cy="-165.125" r="10"/>
<path fill="#1994AC" d="M98.545-104c-1.917,0-3.745-1.107-4.572-2.972c-3.196-7.195-11.022-11.864-19.938-11.894
	c-0.028,0-0.058,0-0.086,0c-8.743,0-15.972,4.452-19.351,11.925c-1.138,2.516-4.101,3.634-6.616,2.495
	c-2.516-1.138-3.634-4.1-2.496-6.616c4.97-10.989,15.87-17.804,28.464-17.804c0.04,0,0.078,0,0.117,0
	c12.851,0.043,24.251,7.044,29.043,17.835c1.121,2.523-0.016,5.478-2.54,6.599C99.912-104.139,99.223-104,98.545-104z"/>
<g>
	<g>
		<circle fill="#E0EBEE" cx="75" cy="-415" r="13.702"/>
		<path fill="#1994AC" d="M75-400c-8.271,0-15-6.729-15-15s6.729-15,15-15s15,6.729,15,15S83.271-400,75-400z M75-427.404
			c-6.839,0-12.404,5.564-12.404,12.404S68.161-402.596,75-402.596S87.404-408.16,87.404-415S81.839-427.404,75-427.404z"/>
	</g>
	<circle fill="#1994AC" cx="70.024" cy="-418.705" r="2.164"/>
	<circle fill="#1994AC" cx="79.976" cy="-418.705" r="2.164"/>
	<path fill="#1994AC" d="M80.125-405.48c-0.415,0-0.81-0.24-0.989-0.643c-0.691-1.558-2.384-2.567-4.313-2.573
		c-0.006-0.001-0.012-0.001-0.019-0.001c-1.892,0-3.456,0.964-4.187,2.58c-0.246,0.545-0.887,0.786-1.431,0.54
		c-0.544-0.246-0.786-0.887-0.54-1.432c1.075-2.377,3.434-3.852,6.158-3.852c0.009,0,0.017,0,0.025,0
		c2.78,0.01,5.247,1.524,6.284,3.858c0.242,0.546-0.004,1.186-0.55,1.428C80.421-405.511,80.272-405.48,80.125-405.48z"/>
</g>
<ellipse fill="#E6E7E8" cx="1028" cy="130.369" rx="53.968" ry="13.667"/>
<g>
	<path fill="#2395B0" d="M1064.263,94.796c-10.596,11.278-32.844,35.032-32.844,35.032c-1.88,2.007-4.965,2.016-6.856,0.02
		l-29.809-31.476c-1.892-1.996-4.937-5.309-6.768-7.36c0,0-2.397-2.687-2.405-2.692c-7.207-7.611-9.68-18.975-9.68-30.255
		c0-28.773,23.326-52.1,52.1-52.1c28.771,0,52.098,23.326,52.098,52.1c0,15.428-7.142,25.95-7.142,25.95
		c-1.544,2.275-4.3,5.821-6.123,7.879L1064.263,94.796z"/>
</g>
<ellipse fill="#E6E7E8" cx="771.667" cy="130.369" rx="53.968" ry="13.667"/>
<g>
	<path fill="#2395B0" d="M807.93,94.796c-10.596,11.278-32.844,35.032-32.844,35.032c-1.88,2.007-4.965,2.016-6.856,0.02
		l-29.809-31.476c-1.892-1.996-4.937-5.309-6.768-7.36c0,0-2.397-2.687-2.405-2.692c-7.207-7.611-9.68-18.975-9.68-30.255
		c0-28.773,23.326-52.1,52.1-52.1c28.771,0,52.098,23.326,52.098,52.1c0,15.428-7.142,25.95-7.142,25.95
		c-1.544,2.275-4.3,5.821-6.123,7.879L807.93,94.796z"/>
</g>
<ellipse fill="#E6E7E8" cx="540" cy="130.369" rx="53.968" ry="13.667"/>
<g>
	<path fill="#2395B0" d="M576.263,94.796c-10.596,11.278-32.844,35.032-32.844,35.032c-1.88,2.007-4.965,2.016-6.856,0.02
		l-29.809-31.476c-1.891-1.996-4.936-5.309-6.767-7.36c0,0-2.397-2.687-2.405-2.692c-7.207-7.611-9.68-18.975-9.68-30.255
		c0-28.773,23.326-52.1,52.1-52.1c28.771,0,52.098,23.326,52.098,52.1c0,15.428-7.142,25.95-7.142,25.95
		c-1.544,2.275-4.3,5.821-6.123,7.879L576.263,94.796z"/>
</g>
<ellipse fill="#E6E7E8" cx="328" cy="130.369" rx="53.968" ry="13.667"/>
<g>
	<path fill="#2395B0" d="M364.262,94.796c-10.596,11.278-32.844,35.032-32.844,35.032c-1.88,2.007-4.965,2.016-6.856,0.02
		l-29.81-31.476c-1.891-1.996-4.936-5.309-6.767-7.36c0,0-2.397-2.687-2.405-2.692c-7.207-7.611-9.68-18.975-9.68-30.255
		c0-28.773,23.326-52.1,52.1-52.1c28.771,0,52.098,23.326,52.098,52.1c0,15.428-7.141,25.95-7.141,25.95
		c-1.544,2.275-4.3,5.821-6.124,7.879L364.262,94.796z"/>
</g>
<ellipse fill="#E6E7E8" cx="75" cy="130.369" rx="53.968" ry="13.667"/>
<g>
	<path fill="#2395B0" d="M111.263,94.796c-10.596,11.278-32.844,35.032-32.844,35.032c-1.88,2.007-4.965,2.016-6.856,0.02
		l-29.81-31.476c-1.891-1.996-4.936-5.309-6.767-7.36c0,0-2.397-2.687-2.405-2.692c-7.207-7.611-9.68-18.975-9.68-30.255
		c0-28.773,23.326-52.1,52.1-52.1c28.771,0,52.098,23.326,52.098,52.1c0,15.428-7.141,25.95-7.141,25.95
		c-1.544,2.275-4.3,5.821-6.124,7.879L111.263,94.796z"/>
</g>
<g>
	<circle fill="#E0EBEE" cx="75.001" cy="57.543" r="36.975"/>
	<path fill="#1994AC" d="M75.001,98.02c-22.32,0-40.479-18.158-40.479-40.477c0-22.32,18.158-40.479,40.479-40.479
		c22.318,0,40.477,18.158,40.477,40.479C115.478,79.861,97.319,98.02,75.001,98.02z M75.001,24.07
		c-18.457,0-33.473,15.016-33.473,33.473c0,18.455,15.016,33.471,33.473,33.471s33.471-15.016,33.471-33.471
		C108.472,39.086,93.458,24.07,75.001,24.07z"/>
</g>
<circle fill="#1994AC" cx="61.572" cy="47.545" r="5.839"/>
<circle fill="#1994AC" cx="88.429" cy="47.545" r="5.838"/>
<path fill="#1994AC" d="M88.831,83.23c-1.119,0-2.188-0.646-2.67-1.735c-1.865-4.2-6.436-6.927-11.641-6.943
	c-0.016,0-0.033,0-0.049,0c-5.105,0-9.326,2.6-11.299,6.962c-0.664,1.468-2.393,2.121-3.861,1.457
	c-1.469-0.665-2.121-2.395-1.457-3.863c2.9-6.415,9.266-10.394,16.617-10.394c0.023,0,0.045,0,0.068,0
	c7.504,0.024,14.16,4.112,16.957,10.412c0.654,1.474-0.01,3.198-1.484,3.853C89.628,83.149,89.226,83.23,88.831,83.23z"/>
<g>
	<g>
		<circle fill="#E0EBEE" cx="328" cy="57.52" r="37.255"/>
		<path fill="#1994AC" d="M327.999,98.303c-22.487,0-40.783-18.293-40.783-40.783s18.296-40.783,40.783-40.783
			c22.488,0,40.784,18.293,40.784,40.783S350.487,98.303,327.999,98.303z M327.999,23.793c-18.595,0-33.725,15.13-33.725,33.727
			s15.13,33.727,33.725,33.727c18.596,0,33.726-15.13,33.726-33.727S346.595,23.793,327.999,23.793z"/>
	</g>
	<path fill="#1994AC" d="M320.353,47.445c0,3.25-2.634,5.884-5.883,5.884s-5.883-2.634-5.883-5.884c0-3.246,2.634-5.881,5.883-5.881
		S320.353,44.199,320.353,47.445z"/>
	<path fill="#1994AC" d="M347.412,47.445c0,3.25-2.634,5.884-5.883,5.884s-5.883-2.634-5.883-5.884c0-3.246,2.634-5.881,5.883-5.881
		S347.412,44.199,347.412,47.445z"/>
	<path fill="#1994AC" d="M314.132,82.106c-0.763,0-1.524-0.294-2.1-0.882c-1.134-1.157-1.121-3.01,0.031-4.147
		c0.152-0.149,15.32-14.769,31.25-0.095c1.194,1.099,1.271,2.957,0.171,4.152c-1.1,1.195-2.961,1.274-4.155,0.172
		c-4.935-4.543-10.246-5.977-15.785-4.262c-4.365,1.352-7.327,4.195-7.355,4.228C315.615,81.827,314.874,82.106,314.132,82.106z"/>
</g>
<g>
	<g>
		<circle fill="#E0EBEE" cx="540" cy="57.197" r="37.042"/>
		<path fill="#1994AC" d="M540,97.747c-22.36,0-40.55-18.192-40.55-40.55c0-22.36,18.189-40.551,40.55-40.551
			s40.551,18.19,40.551,40.551C580.551,79.555,562.36,97.747,540,97.747z M540,23.664c-18.49,0-33.53,15.042-33.53,33.533
			c0,18.49,15.04,33.532,33.53,33.532c18.491,0,33.533-15.042,33.533-33.532C573.533,38.706,558.491,23.664,540,23.664z"/>
	</g>
	<circle fill="#1994AC" cx="526.549" cy="47.181" r="5.849"/>
	<circle fill="#1994AC" cx="553.453" cy="47.181" r="5.849"/>
	<path fill="#1994AC" d="M553.245,78.781c-14.865,0-27.036-0.005-27.036-0.005c-1.616,0-2.926-1.31-2.923-2.925
		c0-1.616,1.309-2.924,2.923-2.924c0.002,0,0.002,0,0.002,0s12.168,0.007,27.033,0.007c1.616,0,2.925,1.309,2.925,2.925
		C556.17,77.472,554.861,78.781,553.245,78.781z"/>
</g>
<g>
	<g>
		<circle fill="#E0EBEE" cx="771.668" cy="57.357" r="37.202"/>
		<path fill="#1994AC" d="M771.667,98.084c-22.457,0-40.727-18.269-40.727-40.727s18.27-40.727,40.727-40.727
			c22.459,0,40.727,18.269,40.727,40.727S794.126,98.084,771.667,98.084z M771.667,23.678c-18.57,0-33.676,15.108-33.676,33.68
			s15.105,33.68,33.676,33.68c18.572,0,33.678-15.108,33.678-33.68S790.239,23.678,771.667,23.678z"/>
	</g>
	<circle fill="#1994AC" cx="758.157" cy="47.298" r="5.875"/>
	<circle fill="#1994AC" cx="785.178" cy="47.298" r="5.874"/>
	<path fill="#1994AC" d="M771.823,81.921c-9.209,0-15.969-6.516-16.07-6.616c-1.152-1.14-1.166-2.998-0.025-4.151
		c1.137-1.153,2.99-1.167,4.146-0.034c0.061,0.059,3.01,2.877,7.344,4.219c5.531,1.716,10.834,0.28,15.764-4.257
		c1.193-1.1,3.053-1.023,4.15,0.171c1.1,1.191,1.023,3.051-0.17,4.148C781.653,80.29,776.433,81.921,771.823,81.921z"/>
</g>
<g>
	<g>
		<circle fill="#E0EBEE" cx="1028" cy="57.176" r="37.011"/>
		<path fill="#1994AC" d="M1028.001,97.692c-22.344,0-40.518-18.178-40.518-40.517c0-22.344,18.174-40.518,40.518-40.518
			c22.343,0,40.517,18.174,40.517,40.518C1068.518,79.515,1050.344,97.692,1028.001,97.692z M1028.001,23.67
			c-18.477,0-33.503,15.03-33.503,33.506s15.026,33.505,33.503,33.505c18.476,0,33.502-15.029,33.502-33.505
			S1046.477,23.67,1028.001,23.67z"/>
	</g>
	<circle fill="#1994AC" cx="1014.56" cy="47.167" r="5.844"/>
	<circle fill="#1994AC" cx="1041.441" cy="47.167" r="5.844"/>
	<g>
		<path fill="#1994AC" d="M1013.501,71.296c3.31,12.571,23.825,12.98,28.34,0H1013.501z"/>
		<path fill="#1994AC" d="M1027.367,83.798h-0.003c-8.13,0-14.837-4.726-16.689-11.759c-0.232-0.875-0.042-1.809,0.513-2.527
			c0.552-0.72,1.405-1.138,2.313-1.138h28.34c0.947,0,1.836,0.458,2.383,1.228c0.549,0.771,0.688,1.759,0.38,2.654
			C1042.163,79.268,1035.397,83.798,1027.367,83.798z M1018.238,74.216c2.34,2.701,6.059,3.74,9.126,3.74h0.003
			c3.02,0,6.767-1.042,9.354-3.74H1018.238z"/>
	</g>
</g>
</svg>
