<?xml version="1.0" encoding="utf-8"?>
<!-- Generator: Adobe Illustrator 16.0.0, SVG Export Plug-In . SVG Version: 6.00 Build 0)  -->
<!DOCTYPE svg PUBLIC "-//W3C//DTD SVG 1.1//EN" "http://www.w3.org/Graphics/SVG/1.1/DTD/svg11.dtd">
<svg version="1.1" id="Layer_1" xmlns="http://www.w3.org/2000/svg" xmlns:xlink="http://www.w3.org/1999/xlink" x="0px" y="0px"
	 width="150px" height="150px" viewBox="0 0 150 150" enable-background="new 0 0 150 150" xml:space="preserve">
<circle fill="#E0EBEE" stroke="#1994AC" stroke-width="12" stroke-miterlimit="10" cx="-628.478" cy="-146" r="63.333"/>
<circle fill="#1994AC" cx="-651.478" cy="-163.125" r="10"/>
<circle fill="#1994AC" cx="-605.478" cy="-163.125" r="10"/>
<path fill="none" stroke="#1994AC" stroke-width="10" stroke-linecap="round" stroke-miterlimit="10" d="M-652.057-109.193
	c0,0,22.338-22.045,46.227-0.045"/>
<g>
	<g>
		<circle fill="#E0EBEE" cx="-625" cy="-415" r="13.702"/>
		<path fill="#1994AC" d="M-625-400c-8.271,0-15-6.729-15-15s6.729-15,15-15s15,6.729,15,15S-616.729-400-625-400z M-625-427.404
			c-6.839,0-12.404,5.564-12.404,12.404c0,6.84,5.564,12.404,12.404,12.404s12.404-5.564,12.404-12.404
			C-612.596-421.839-618.161-427.404-625-427.404z"/>
	</g>
	<circle fill="#1994AC" cx="-629.976" cy="-418.705" r="2.164"/>
	<circle fill="#1994AC" cx="-620.024" cy="-418.705" r="2.164"/>
	<path fill="#1994AC" d="M-630.101-405.958c-0.28,0-0.561-0.108-0.772-0.324c-0.417-0.426-0.413-1.107,0.011-1.525
		c0.056-0.055,5.635-5.432,11.494-0.036c0.439,0.405,0.468,1.089,0.063,1.528c-0.404,0.439-1.089,0.468-1.528,0.063
		c-1.815-1.671-3.769-2.198-5.806-1.568c-1.605,0.498-2.695,1.544-2.706,1.555C-629.555-406.06-629.828-405.958-630.101-405.958z"/>
</g>
<circle fill="#E0EBEE" stroke="#1994AC" stroke-width="12" stroke-miterlimit="10" cx="-413.811" cy="-152" r="63.333"/>
<circle fill="#1994AC" cx="-436.811" cy="-169.125" r="10"/>
<circle fill="#1994AC" cx="-390.811" cy="-169.125" r="10"/>
<path fill="none" stroke="#1994AC" stroke-width="10" stroke-linecap="round" stroke-miterlimit="10" d="M-437.39-120.104
	c0,0,20.807,0.011,46.227,0.011"/>
<g>
	<g>
		<circle fill="#E0EBEE" cx="-413" cy="-411" r="13.702"/>
		<path fill="#1994AC" d="M-413-396c-8.271,0-15-6.729-15-15c0-8.271,6.729-15,15-15s15,6.729,15,15
			C-398-402.729-404.729-396-413-396z M-413-423.404c-6.84,0-12.404,5.564-12.404,12.404s5.564,12.404,12.404,12.404
			s12.404-5.564,12.404-12.404S-406.16-423.404-413-423.404z"/>
	</g>
	<circle fill="#1994AC" cx="-417.976" cy="-414.705" r="2.164"/>
	<circle fill="#1994AC" cx="-408.024" cy="-414.705" r="2.164"/>
	<path fill="#1994AC" d="M-408.101-403.016c-5.499,0-10.001-0.002-10.001-0.002c-0.598,0-1.082-0.484-1.081-1.082
		c0-0.598,0.484-1.081,1.081-1.081c0.001,0,0.001,0,0.001,0s4.501,0.002,10,0.002c0.598,0,1.082,0.484,1.082,1.082
		C-407.019-403.5-407.503-403.016-408.101-403.016z"/>
</g>
<circle fill="#E0EBEE" stroke="#1994AC" stroke-width="12" stroke-miterlimit="10" cx="-182.145" cy="-147" r="63.333"/>
<circle fill="#1994AC" cx="-205.145" cy="-164.125" r="10"/>
<circle fill="#1994AC" cx="-159.145" cy="-164.125" r="10"/>
<path fill="none" stroke="#1994AC" stroke-width="10" stroke-linecap="round" stroke-miterlimit="10" d="M-205.724-120.004
	c0,0,22.338,22.045,46.227,0.045"/>
<g>
	<g>
		<circle fill="#E0EBEE" cx="-181.333" cy="-409" r="13.702"/>
		<path fill="#1994AC" d="M-181.333-394c-8.271,0-15-6.729-15-15s6.729-15,15-15s15,6.729,15,15S-173.062-394-181.333-394z
			 M-181.333-421.404c-6.84,0-12.403,5.564-12.403,12.404s5.563,12.404,12.403,12.404S-168.93-402.16-168.93-409
			S-174.493-421.404-181.333-421.404z"/>
	</g>
	<circle fill="#1994AC" cx="-186.309" cy="-412.705" r="2.164"/>
	<circle fill="#1994AC" cx="-176.357" cy="-412.705" r="2.164"/>
	<path fill="#1994AC" d="M-181.275-399.953c-3.392,0-5.882-2.399-5.919-2.437c-0.425-0.42-0.43-1.104-0.01-1.529
		c0.419-0.425,1.102-0.43,1.527-0.013c0.022,0.021,1.108,1.06,2.705,1.554c2.037,0.632,3.99,0.104,5.806-1.567
		c0.439-0.405,1.124-0.377,1.528,0.062c0.405,0.439,0.377,1.124-0.062,1.528C-177.655-400.554-179.578-399.953-181.275-399.953z"/>
</g>
<circle fill="#E0EBEE" stroke="#1994AC" stroke-width="12" stroke-miterlimit="10" cx="69.855" cy="-148" r="63.333"/>
<circle fill="#1994AC" cx="46.855" cy="-165.125" r="10"/>
<circle fill="#1994AC" cx="92.855" cy="-165.125" r="10"/>
<path fill="#1994AC" stroke="#1994AC" stroke-width="10" stroke-linecap="round" stroke-linejoin="round" stroke-miterlimit="10" d="
	M45.042-123.839c5.665,21.514,40.771,22.213,48.5,0H45.042z"/>
<g>
	<g>
		<circle fill="#E0EBEE" cx="68.667" cy="-407" r="13.702"/>
		<path fill="#1994AC" d="M68.667-392c-8.271,0-15-6.729-15-15c0-8.271,6.729-15,15-15s15,6.729,15,15
			C83.667-398.729,76.938-392,68.667-392z M68.667-419.404c-6.84,0-12.403,5.564-12.403,12.404s5.563,12.404,12.403,12.404
			S81.07-400.16,81.07-407S75.507-419.404,68.667-419.404z"/>
	</g>
	<circle fill="#1994AC" cx="63.691" cy="-410.705" r="2.164"/>
	<circle fill="#1994AC" cx="73.643" cy="-410.705" r="2.164"/>
	<g>
		<path fill="#1994AC" d="M63.299-401.772c1.226,4.654,8.82,4.806,10.492,0H63.299z"/>
		<path fill="#1994AC" d="M68.433-397.144L68.433-397.144c-3.011,0-5.494-1.75-6.18-4.354c-0.086-0.324-0.016-0.67,0.189-0.936
			c0.204-0.267,0.521-0.422,0.856-0.422h10.492c0.351,0,0.68,0.17,0.882,0.455c0.203,0.285,0.255,0.651,0.141,0.982
			C73.91-398.821,71.405-397.144,68.433-397.144z M65.053-400.691c0.866,1,2.243,1.385,3.379,1.385h0.001
			c1.118,0,2.505-0.386,3.463-1.385H65.053z"/>
	</g>
</g>
<g>
	<circle fill="#E0EBEE" cx="-878.145" cy="-148" r="63.333"/>
	<path fill="#1994AC" d="M-878.145-78.667c-38.23,0-69.333-31.103-69.333-69.333s31.103-69.333,69.333-69.333
		s69.333,31.103,69.333,69.333S-839.914-78.667-878.145-78.667z M-878.145-205.333c-31.614,0-57.333,25.72-57.333,57.333
		c0,31.613,25.719,57.333,57.333,57.333s57.333-25.72,57.333-57.333C-820.812-179.614-846.531-205.333-878.145-205.333z"/>
</g>
<circle fill="#1994AC" cx="-901.145" cy="-165.125" r="10"/>
<circle fill="#1994AC" cx="-855.145" cy="-165.125" r="10"/>
<path fill="#1994AC" d="M-854.455-104c-1.917,0-3.745-1.107-4.572-2.972c-3.196-7.195-11.022-11.864-19.938-11.894
	c-0.028,0-0.058,0-0.086,0c-8.743,0-15.972,4.452-19.351,11.925c-1.138,2.516-4.101,3.634-6.616,2.495
	c-2.516-1.138-3.634-4.1-2.496-6.616c4.97-10.989,15.87-17.804,28.464-17.804c0.04,0,0.078,0,0.117,0
	c12.851,0.043,24.251,7.044,29.043,17.835c1.121,2.523-0.016,5.478-2.54,6.599C-853.088-104.139-853.777-104-854.455-104z"/>
<g>
	<g>
		<circle fill="#E0EBEE" cx="-878" cy="-415" r="13.702"/>
		<path fill="#1994AC" d="M-878-400c-8.271,0-15-6.729-15-15s6.729-15,15-15s15,6.729,15,15S-869.729-400-878-400z M-878-427.404
			c-6.839,0-12.404,5.564-12.404,12.404s5.564,12.404,12.404,12.404s12.404-5.564,12.404-12.404S-871.161-427.404-878-427.404z"/>
	</g>
	<circle fill="#1994AC" cx="-882.976" cy="-418.705" r="2.164"/>
	<circle fill="#1994AC" cx="-873.024" cy="-418.705" r="2.164"/>
	<path fill="#1994AC" d="M-872.875-405.48c-0.415,0-0.81-0.24-0.989-0.643c-0.691-1.558-2.384-2.567-4.313-2.573
		c-0.006-0.001-0.012-0.001-0.019-0.001c-1.892,0-3.456,0.964-4.187,2.58c-0.246,0.545-0.887,0.786-1.431,0.54
		c-0.544-0.246-0.786-0.887-0.54-1.432c1.075-2.377,3.434-3.852,6.158-3.852c0.009,0,0.017,0,0.025,0
		c2.78,0.01,5.247,1.524,6.284,3.858c0.242,0.546-0.004,1.186-0.55,1.428C-872.579-405.511-872.728-405.48-872.875-405.48z"/>
</g>
<ellipse fill="#E6E7E8" cx="75" cy="130.369" rx="53.968" ry="13.667"/>
<g>
	<path fill="#2395B0" d="M111.263,94.796c-10.596,11.278-32.844,35.032-32.844,35.032c-1.88,2.007-4.965,2.016-6.856,0.02
		L41.754,98.372c-1.892-1.996-4.937-5.309-6.768-7.36c0,0-2.397-2.687-2.405-2.692c-7.207-7.611-9.68-18.975-9.68-30.255
		c0-28.773,23.326-52.1,52.1-52.1c28.771,0,52.098,23.326,52.098,52.1c0,15.428-7.142,25.95-7.142,25.95
		c-1.544,2.275-4.3,5.821-6.123,7.879L111.263,94.796z"/>
</g>
<ellipse fill="#E6E7E8" cx="-181.333" cy="130.369" rx="53.968" ry="13.667"/>
<g>
	<path fill="#2395B0" d="M-145.07,94.796c-10.596,11.278-32.844,35.032-32.844,35.032c-1.88,2.007-4.965,2.016-6.856,0.02
		l-29.809-31.476c-1.892-1.996-4.937-5.309-6.768-7.36c0,0-2.397-2.687-2.405-2.692c-7.207-7.611-9.68-18.975-9.68-30.255
		c0-28.773,23.326-52.1,52.1-52.1c28.771,0,52.098,23.326,52.098,52.1c0,15.428-7.142,25.95-7.142,25.95
		c-1.544,2.275-4.3,5.821-6.123,7.879L-145.07,94.796z"/>
</g>
<ellipse fill="#E6E7E8" cx="-413" cy="130.369" rx="53.968" ry="13.667"/>
<g>
	<path fill="#2395B0" d="M-376.737,94.796c-10.596,11.278-32.844,35.032-32.844,35.032c-1.88,2.007-4.965,2.016-6.856,0.02
		l-29.809-31.476c-1.891-1.996-4.936-5.309-6.767-7.36c0,0-2.397-2.687-2.405-2.692c-7.207-7.611-9.68-18.975-9.68-30.255
		c0-28.773,23.326-52.1,52.1-52.1c28.771,0,52.098,23.326,52.098,52.1c0,15.428-7.142,25.95-7.142,25.95
		c-1.544,2.275-4.3,5.821-6.123,7.879L-376.737,94.796z"/>
</g>
<ellipse fill="#E6E7E8" cx="-625" cy="130.369" rx="53.968" ry="13.667"/>
<g>
	<path fill="#2395B0" d="M-588.738,94.796c-10.596,11.278-32.844,35.032-32.844,35.032c-1.88,2.007-4.965,2.016-6.856,0.02
		l-29.81-31.476c-1.891-1.996-4.936-5.309-6.767-7.36c0,0-2.397-2.687-2.405-2.692c-7.207-7.611-9.68-18.975-9.68-30.255
		c0-28.773,23.326-52.1,52.1-52.1c28.771,0,52.098,23.326,52.098,52.1c0,15.428-7.141,25.95-7.141,25.95
		c-1.544,2.275-4.3,5.821-6.124,7.879L-588.738,94.796z"/>
</g>
<ellipse fill="#E6E7E8" cx="-878" cy="130.369" rx="53.968" ry="13.667"/>
<g>
	<path fill="#2395B0" d="M-841.737,94.796c-10.596,11.278-32.844,35.032-32.844,35.032c-1.88,2.007-4.965,2.016-6.856,0.02
		l-29.81-31.476c-1.891-1.996-4.936-5.309-6.767-7.36c0,0-2.397-2.687-2.405-2.692c-7.207-7.611-9.68-18.975-9.68-30.255
		c0-28.773,23.326-52.1,52.1-52.1c28.771,0,52.098,23.326,52.098,52.1c0,15.428-7.141,25.95-7.141,25.95
		c-1.544,2.275-4.3,5.821-6.124,7.879L-841.737,94.796z"/>
</g>
<g>
	<circle fill="#E0EBEE" cx="-877.999" cy="57.543" r="36.975"/>
	<path fill="#1994AC" d="M-877.999,98.02c-22.32,0-40.479-18.158-40.479-40.477c0-22.32,18.158-40.479,40.479-40.479
		c22.318,0,40.477,18.158,40.477,40.479C-837.522,79.861-855.681,98.02-877.999,98.02z M-877.999,24.07
		c-18.457,0-33.473,15.016-33.473,33.473c0,18.455,15.016,33.471,33.473,33.471s33.471-15.016,33.471-33.471
		C-844.528,39.086-859.542,24.07-877.999,24.07z"/>
</g>
<circle fill="#1994AC" cx="-891.428" cy="47.545" r="5.839"/>
<circle fill="#1994AC" cx="-864.571" cy="47.545" r="5.838"/>
<path fill="#1994AC" d="M-864.169,83.23c-1.119,0-2.188-0.646-2.67-1.735c-1.865-4.2-6.436-6.927-11.641-6.943
	c-0.016,0-0.033,0-0.049,0c-5.105,0-9.326,2.6-11.299,6.962c-0.664,1.468-2.393,2.121-3.861,1.457
	c-1.469-0.665-2.121-2.395-1.457-3.863c2.9-6.415,9.266-10.394,16.617-10.394c0.023,0,0.045,0,0.068,0
	c7.504,0.024,14.16,4.112,16.957,10.412c0.654,1.474-0.01,3.198-1.484,3.853C-863.372,83.149-863.774,83.23-864.169,83.23z"/>
<g>
	<g>
		<circle fill="#E0EBEE" cx="-625" cy="57.52" r="37.255"/>
		<path fill="#1994AC" d="M-625.001,98.303c-22.487,0-40.783-18.293-40.783-40.783s18.296-40.783,40.783-40.783
			c22.488,0,40.784,18.293,40.784,40.783S-602.513,98.303-625.001,98.303z M-625.001,23.793c-18.595,0-33.725,15.13-33.725,33.727
			s15.13,33.727,33.725,33.727c18.596,0,33.726-15.13,33.726-33.727S-606.405,23.793-625.001,23.793z"/>
	</g>
	<path fill="#1994AC" d="M-632.647,47.445c0,3.25-2.634,5.884-5.883,5.884s-5.883-2.634-5.883-5.884
		c0-3.246,2.634-5.881,5.883-5.881S-632.647,44.199-632.647,47.445z"/>
	<path fill="#1994AC" d="M-605.588,47.445c0,3.25-2.634,5.884-5.883,5.884s-5.883-2.634-5.883-5.884
		c0-3.246,2.634-5.881,5.883-5.881S-605.588,44.199-605.588,47.445z"/>
	<path fill="#1994AC" d="M-638.868,82.106c-0.763,0-1.524-0.294-2.1-0.882c-1.134-1.157-1.121-3.01,0.031-4.147
		c0.152-0.149,15.32-14.769,31.25-0.095c1.194,1.099,1.271,2.957,0.171,4.152c-1.1,1.195-2.961,1.274-4.155,0.172
		c-4.935-4.543-10.246-5.977-15.785-4.262c-4.365,1.352-7.327,4.195-7.355,4.228C-637.385,81.827-638.126,82.106-638.868,82.106z"/>
</g>
<g>
	<g>
		<circle fill="#E0EBEE" cx="-413" cy="57.197" r="37.042"/>
		<path fill="#1994AC" d="M-413,97.747c-22.36,0-40.55-18.192-40.55-40.55c0-22.36,18.189-40.551,40.55-40.551
			s40.551,18.19,40.551,40.551C-372.449,79.555-390.64,97.747-413,97.747z M-413,23.664c-18.49,0-33.53,15.042-33.53,33.533
			c0,18.49,15.04,33.532,33.53,33.532c18.491,0,33.533-15.042,33.533-33.532C-379.467,38.706-394.509,23.664-413,23.664z"/>
	</g>
	<circle fill="#1994AC" cx="-426.451" cy="47.181" r="5.849"/>
	<circle fill="#1994AC" cx="-399.547" cy="47.181" r="5.849"/>
	<path fill="#1994AC" d="M-399.755,78.781c-14.865,0-27.036-0.005-27.036-0.005c-1.616,0-2.926-1.31-2.923-2.925
		c0-1.616,1.309-2.924,2.923-2.924c0.002,0,0.002,0,0.002,0s12.168,0.007,27.033,0.007c1.616,0,2.925,1.309,2.925,2.925
		C-396.83,77.472-398.139,78.781-399.755,78.781z"/>
</g>
<g>
	<g>
		<circle fill="#E0EBEE" cx="-181.332" cy="57.357" r="37.202"/>
		<path fill="#1994AC" d="M-181.333,98.084c-22.457,0-40.727-18.269-40.727-40.727s18.27-40.727,40.727-40.727
			c22.459,0,40.727,18.269,40.727,40.727S-158.874,98.084-181.333,98.084z M-181.333,23.678c-18.57,0-33.676,15.108-33.676,33.68
			s15.105,33.68,33.676,33.68c18.572,0,33.678-15.108,33.678-33.68S-162.761,23.678-181.333,23.678z"/>
	</g>
	<circle fill="#1994AC" cx="-194.843" cy="47.298" r="5.875"/>
	<circle fill="#1994AC" cx="-167.822" cy="47.298" r="5.874"/>
	<path fill="#1994AC" d="M-181.177,81.921c-9.209,0-15.969-6.516-16.07-6.616c-1.152-1.14-1.166-2.998-0.025-4.151
		c1.137-1.153,2.99-1.167,4.146-0.034c0.061,0.059,3.01,2.877,7.344,4.219c5.531,1.716,10.834,0.28,15.764-4.257
		c1.193-1.1,3.053-1.023,4.15,0.171c1.1,1.191,1.023,3.051-0.17,4.148C-171.347,80.29-176.567,81.921-181.177,81.921z"/>
</g>
<g>
	<g>
		<circle fill="#E0EBEE" cx="75" cy="57.176" r="37.011"/>
		<path fill="#1994AC" d="M75.001,97.692c-22.344,0-40.518-18.178-40.518-40.517c0-22.344,18.174-40.518,40.518-40.518
			c22.343,0,40.517,18.174,40.517,40.518C115.518,79.515,97.344,97.692,75.001,97.692z M75.001,23.67
			c-18.477,0-33.503,15.03-33.503,33.506s15.026,33.505,33.503,33.505c18.476,0,33.502-15.029,33.502-33.505
			S93.477,23.67,75.001,23.67z"/>
	</g>
	<circle fill="#1994AC" cx="61.56" cy="47.167" r="5.844"/>
	<circle fill="#1994AC" cx="88.441" cy="47.167" r="5.844"/>
	<g>
		<path fill="#1994AC" d="M60.501,71.296c3.31,12.571,23.825,12.98,28.34,0H60.501z"/>
		<path fill="#1994AC" d="M74.367,83.798h-0.003c-8.13,0-14.837-4.726-16.689-11.759c-0.232-0.875-0.042-1.809,0.513-2.527
			c0.552-0.72,1.405-1.138,2.313-1.138h28.34c0.947,0,1.836,0.458,2.383,1.228c0.549,0.771,0.688,1.759,0.38,2.654
			C89.163,79.268,82.397,83.798,74.367,83.798z M65.238,74.216c2.34,2.701,6.059,3.74,9.126,3.74h0.003
			c3.02,0,6.767-1.042,9.354-3.74H65.238z"/>
	</g>
</g>
</svg>
