<?xml version="1.0" encoding="utf-8"?>
<!-- Generator: Adobe Illustrator 16.0.0, SVG Export Plug-In . SVG Version: 6.00 Build 0)  -->
<!DOCTYPE svg PUBLIC "-//W3C//DTD SVG 1.1//EN" "http://www.w3.org/Graphics/SVG/1.1/DTD/svg11.dtd">
<svg version="1.1" id="Layer_1" xmlns="http://www.w3.org/2000/svg" xmlns:xlink="http://www.w3.org/1999/xlink" x="0px" y="0px"
	 width="150px" height="150px" viewBox="0 0 150 150" enable-background="new 0 0 150 150" xml:space="preserve">
<circle fill="#E0EBEE" stroke="#1994AC" stroke-width="12" stroke-miterlimit="10" cx="-622.145" cy="78" r="63.333"/>
<circle fill="#1994AC" cx="-645.145" cy="60.875" r="10"/>
<circle fill="#1994AC" cx="-599.145" cy="60.875" r="10"/>
<path fill="none" stroke="#1994AC" stroke-width="10" stroke-linecap="round" stroke-miterlimit="10" d="M-645.724,114.807
	c0,0,22.338-22.045,46.227-0.045"/>
<g>
	<g>
		<circle fill="#E0EBEE" cx="-618.667" cy="-191" r="13.702"/>
		<path fill="#1994AC" d="M-618.667-176c-8.271,0-15-6.729-15-15s6.729-15,15-15s15,6.729,15,15S-610.396-176-618.667-176z
			 M-618.667-203.404c-6.839,0-12.404,5.564-12.404,12.404c0,6.84,5.564,12.404,12.404,12.404s12.404-5.564,12.404-12.404
			C-606.263-197.839-611.828-203.404-618.667-203.404z"/>
	</g>
	<circle fill="#1994AC" cx="-623.643" cy="-194.705" r="2.164"/>
	<circle fill="#1994AC" cx="-613.691" cy="-194.705" r="2.164"/>
	<path fill="#1994AC" d="M-623.768-181.958c-0.28,0-0.561-0.108-0.772-0.324c-0.417-0.426-0.413-1.107,0.011-1.525
		c0.056-0.055,5.635-5.432,11.494-0.036c0.439,0.405,0.468,1.089,0.063,1.528c-0.404,0.439-1.089,0.468-1.528,0.063
		c-1.815-1.671-3.769-2.198-5.806-1.568c-1.605,0.498-2.695,1.544-2.706,1.555C-623.222-182.06-623.495-181.958-623.768-181.958z"/>
</g>
<circle fill="#E0EBEE" stroke="#1994AC" stroke-width="12" stroke-miterlimit="10" cx="-407.478" cy="72" r="63.333"/>
<circle fill="#1994AC" cx="-430.478" cy="54.875" r="10"/>
<circle fill="#1994AC" cx="-384.478" cy="54.875" r="10"/>
<path fill="none" stroke="#1994AC" stroke-width="10" stroke-linecap="round" stroke-miterlimit="10" d="M-431.057,103.896
	c0,0,20.807,0.011,46.227,0.011"/>
<g>
	<g>
		<circle fill="#E0EBEE" cx="-406.667" cy="-187" r="13.702"/>
		<path fill="#1994AC" d="M-406.667-172c-8.271,0-15-6.729-15-15c0-8.271,6.729-15,15-15s15,6.729,15,15
			C-391.667-178.729-398.396-172-406.667-172z M-406.667-199.404c-6.84,0-12.404,5.564-12.404,12.404s5.564,12.404,12.404,12.404
			s12.404-5.564,12.404-12.404S-399.827-199.404-406.667-199.404z"/>
	</g>
	<circle fill="#1994AC" cx="-411.643" cy="-190.705" r="2.164"/>
	<circle fill="#1994AC" cx="-401.691" cy="-190.705" r="2.164"/>
	<path fill="#1994AC" d="M-401.768-179.016c-5.499,0-10.001-0.002-10.001-0.002c-0.598,0-1.082-0.484-1.081-1.082
		c0-0.598,0.484-1.081,1.081-1.081c0.001,0,0.001,0,0.001,0s4.501,0.002,10,0.002c0.598,0,1.082,0.484,1.082,1.082
		C-400.686-179.5-401.17-179.016-401.768-179.016z"/>
</g>
<circle fill="#E0EBEE" stroke="#1994AC" stroke-width="12" stroke-miterlimit="10" cx="-175.812" cy="77" r="63.333"/>
<circle fill="#1994AC" cx="-198.812" cy="59.875" r="10"/>
<circle fill="#1994AC" cx="-152.812" cy="59.875" r="10"/>
<path fill="none" stroke="#1994AC" stroke-width="10" stroke-linecap="round" stroke-miterlimit="10" d="M-199.391,103.996
	c0,0,22.338,22.045,46.227,0.045"/>
<g>
	<g>
		<circle fill="#E0EBEE" cx="-175" cy="-185" r="13.702"/>
		<path fill="#1994AC" d="M-175-170c-8.271,0-15-6.729-15-15s6.729-15,15-15s15,6.729,15,15S-166.729-170-175-170z M-175-197.404
			c-6.84,0-12.403,5.564-12.403,12.404s5.563,12.404,12.403,12.404s12.403-5.564,12.403-12.404S-168.16-197.404-175-197.404z"/>
	</g>
	<circle fill="#1994AC" cx="-179.976" cy="-188.705" r="2.164"/>
	<circle fill="#1994AC" cx="-170.024" cy="-188.705" r="2.164"/>
	<path fill="#1994AC" d="M-174.942-175.953c-3.392,0-5.882-2.399-5.919-2.437c-0.425-0.42-0.43-1.104-0.01-1.529
		c0.419-0.425,1.102-0.43,1.527-0.013c0.022,0.021,1.108,1.06,2.705,1.554c2.037,0.632,3.99,0.104,5.806-1.567
		c0.439-0.405,1.124-0.377,1.528,0.062c0.405,0.439,0.377,1.124-0.062,1.528C-171.322-176.554-173.245-175.953-174.942-175.953z"/>
</g>
<circle fill="#E0EBEE" stroke="#1994AC" stroke-width="12" stroke-miterlimit="10" cx="76.188" cy="76" r="63.333"/>
<circle fill="#1994AC" cx="53.188" cy="58.875" r="10"/>
<circle fill="#1994AC" cx="99.188" cy="58.875" r="10"/>
<ellipse fill="#E6E7E8" cx="6.333" cy="465.75" rx="38.5" ry="9.75"/>
<g>
	<path fill="#1994AC" d="M32.955,439.631c-7.559,8.046-23.197,24.692-23.197,24.692c-1.883,2.005-4.971,2.011-6.862,0.015
		l-19.295-20.374c-1.892-1.996-4.937-5.309-6.769-7.36c0,0-0.756-0.847-0.76-0.852c-5.143-5.43-6.906-13.536-6.906-21.584
		c0-20.526,16.641-37.167,37.167-37.167S43.5,393.642,43.5,414.168c0,8.062-4.654,17.164-4.654,17.164
		c-1.252,2.449-3.817,6.092-5.7,8.096L32.955,439.631z"/>
</g>
<path fill="#1994AC" stroke="#1994AC" stroke-width="10" stroke-linecap="round" stroke-linejoin="round" stroke-miterlimit="10" d="
	M51.375,100.161c5.665,21.514,40.771,22.213,48.5,0H51.375z"/>
<g>
	<g>
		<circle fill="#E0EBEE" cx="75" cy="-183" r="13.702"/>
		<path fill="#1994AC" d="M75-168c-8.271,0-15-6.729-15-15c0-8.271,6.729-15,15-15s15,6.729,15,15C90-174.729,83.271-168,75-168z
			 M75-195.404c-6.84,0-12.403,5.564-12.403,12.404S68.16-170.596,75-170.596S87.403-176.16,87.403-183S81.84-195.404,75-195.404z"
			/>
	</g>
	<circle fill="#1994AC" cx="70.024" cy="-186.705" r="2.164"/>
	<circle fill="#1994AC" cx="79.976" cy="-186.705" r="2.164"/>
	<g>
		<path fill="#1994AC" d="M69.632-177.772c1.226,4.654,8.82,4.806,10.492,0H69.632z"/>
		<path fill="#1994AC" d="M74.766-173.144L74.766-173.144c-3.011,0-5.494-1.75-6.18-4.354c-0.086-0.324-0.016-0.67,0.189-0.936
			c0.204-0.267,0.521-0.422,0.856-0.422h10.492c0.351,0,0.68,0.17,0.882,0.455c0.203,0.285,0.255,0.651,0.141,0.982
			C80.243-174.821,77.738-173.144,74.766-173.144z M71.386-176.691c0.866,1,2.243,1.385,3.379,1.385h0.001
			c1.118,0,2.505-0.386,3.463-1.385H71.386z"/>
	</g>
</g>
<circle fill="#E0EBEE" stroke="#1994AC" stroke-width="12" stroke-miterlimit="10" cx="-871.812" cy="76" r="63.333"/>
<circle fill="#1994AC" cx="-894.812" cy="58.875" r="10"/>
<circle fill="#1994AC" cx="-848.812" cy="58.875" r="10"/>
<path fill="none" stroke="#1994AC" stroke-width="10" stroke-linecap="round" stroke-linejoin="round" stroke-miterlimit="10" d="
	M-896.625,114.999c9.395-20.776,40.133-18.839,48.5,0"/>
<g>
	<g>
		<circle fill="#E0EBEE" cx="-871.667" cy="-191" r="13.702"/>
		<path fill="#1994AC" d="M-871.667-176c-8.271,0-15-6.729-15-15s6.729-15,15-15s15,6.729,15,15S-863.396-176-871.667-176z
			 M-871.667-203.404c-6.839,0-12.404,5.564-12.404,12.404s5.564,12.404,12.404,12.404s12.404-5.564,12.404-12.404
			S-864.828-203.404-871.667-203.404z"/>
	</g>
	<circle fill="#1994AC" cx="-876.643" cy="-194.705" r="2.164"/>
	<circle fill="#1994AC" cx="-866.691" cy="-194.705" r="2.164"/>
	<path fill="#1994AC" d="M-866.542-181.48c-0.415,0-0.81-0.24-0.989-0.643c-0.691-1.558-2.384-2.567-4.313-2.573
		c-0.006-0.001-0.012-0.001-0.019-0.001c-1.892,0-3.456,0.964-4.187,2.58c-0.246,0.545-0.887,0.786-1.431,0.54
		c-0.544-0.246-0.786-0.887-0.54-1.432c1.075-2.377,3.434-3.852,6.158-3.852c0.009,0,0.017,0,0.025,0
		c2.78,0.01,5.247,1.524,6.284,3.858c0.242,0.546-0.004,1.186-0.55,1.428C-866.246-181.511-866.395-181.48-866.542-181.48z"/>
</g>
</svg>
