<svg width="660" height="219" viewBox="0 0 660 219" fill="none" xmlns="http://www.w3.org/2000/svg">
<g clip-path="url(#clip0)">
<rect width="660" height="219" fill="white"/>
<path fill-rule="evenodd" clip-rule="evenodd" d="M654 173.5H56V172.5H654V173.5Z" fill="#A9A9A9"/>
<path fill-rule="evenodd" clip-rule="evenodd" d="M56.5 173V179H55.5V173H56.5Z" fill="#A9A9A9"/>
<path d="M52.104 185.68C52.104 188.236 53.412 190.072 55.512 190.072C57.6 190.072 58.896 188.284 58.896 185.68C58.896 183.064 57.612 181.288 55.512 181.288C53.352 181.288 52.104 183.052 52.104 185.68ZM53.352 185.68C53.352 183.76 54.144 182.5 55.512 182.5C56.796 182.5 57.636 183.772 57.636 185.68C57.636 187.54 56.844 188.86 55.512 188.86C54.252 188.86 53.352 187.588 53.352 185.68Z" fill="#A9A9A9"/>
<path fill-rule="evenodd" clip-rule="evenodd" d="M77.1206 173V179H76.1206V173H77.1206Z" fill="#A9A9A9"/>
<path d="M76.8128 181.36C76.8128 182.692 75.8048 183.436 74.6528 183.436H74.5688V184.612H74.6528C75.1568 184.612 76.0208 184.564 76.6208 184.12V190H77.8808V181.36H76.8128Z" fill="#A9A9A9"/>
<path fill-rule="evenodd" clip-rule="evenodd" d="M97.7412 173V179H96.7412V173H97.7412Z" fill="#A9A9A9"/>
<path d="M98.4651 186.94C99.2811 186.196 100.061 185.332 100.061 184.048C100.061 182.392 98.8971 181.288 97.2411 181.288C96.3651 181.288 95.6451 181.6 95.1291 182.152C94.6371 182.704 94.3491 183.484 94.3491 184.42H95.6091C95.5971 183.856 95.7771 183.34 96.1251 183.004C96.4011 182.716 96.7851 182.548 97.2531 182.548C98.1411 182.548 98.8011 183.16 98.8011 184.084C98.8011 184.912 98.2131 185.548 97.4331 186.28C96.4611 187.168 95.4651 188.056 94.4931 188.956C94.4931 188.956 94.4811 189.544 94.4811 190H100.037V188.752H96.4491C97.1211 188.152 97.7811 187.54 98.4651 186.94Z" fill="#A9A9A9"/>
<path fill-rule="evenodd" clip-rule="evenodd" d="M118.362 173V179H117.362V173H118.362Z" fill="#A9A9A9"/>
<path d="M116.113 187.312H114.865C114.865 188.764 116.149 190.072 117.805 190.072C119.557 190.072 120.793 188.8 120.793 187.144C120.793 185.608 119.461 184.456 117.985 184.684L120.565 182.584V181.36C120.565 181.36 118.669 181.36 117.889 181.36H116.209C115.705 181.36 115.765 181.36 115.297 181.36V182.596H115.369C115.381 182.596 115.933 182.596 115.969 182.596L117.841 182.584C118.453 182.584 118.957 182.584 118.957 182.584L116.053 184.9L116.713 185.812C118.069 184.996 119.545 185.764 119.545 187.156C119.545 188.116 118.801 188.872 117.841 188.872C117.301 188.872 116.857 188.656 116.545 188.332C116.293 188.056 116.137 187.696 116.113 187.312Z" fill="#A9A9A9"/>
<path fill-rule="evenodd" clip-rule="evenodd" d="M138.983 173V179H137.983V173H138.983Z" fill="#A9A9A9"/>
<path d="M141.109 186.676H139.861V181.36H138.481L134.713 186.676V187.888H138.613V190H139.861V187.888H141.109V186.676ZM136.093 186.676L138.613 183.136V186.676H136.093Z" fill="#A9A9A9"/>
<path fill-rule="evenodd" clip-rule="evenodd" d="M159.604 173V179H158.604V173H159.604Z" fill="#A9A9A9"/>
<path d="M159.286 184.252C158.458 184.252 157.858 184.708 157.666 184.888L157.966 182.584H161.566V181.36H156.91L156.322 186.028L157.45 186.28C157.714 185.836 158.302 185.344 159.094 185.344C160.066 185.344 160.822 186.16 160.822 187.12C160.822 188.08 160.042 188.872 159.082 188.872C158.626 188.872 158.206 188.68 157.906 188.392C157.594 188.104 157.39 187.72 157.354 187.312H156.106C156.106 188.74 157.426 190.072 159.082 190.072C160.75 190.072 162.07 188.8 162.07 187.156C162.07 185.548 160.858 184.252 159.286 184.252Z" fill="#A9A9A9"/>
<path fill-rule="evenodd" clip-rule="evenodd" d="M180.224 173V179H179.224V173H180.224Z" fill="#A9A9A9"/>
<path d="M182.429 187.06C182.429 185.512 181.145 184.252 179.657 184.252C178.577 184.252 177.809 184.984 177.581 185.368C177.581 183.664 178.361 182.476 179.489 182.476C180.545 182.476 180.941 183.304 181.001 183.676H182.237C182.189 182.968 181.553 181.288 179.477 181.288C178.625 181.288 177.965 181.576 177.485 182.08C176.657 182.932 176.321 184.372 176.321 185.992C176.321 188.224 177.353 190.072 179.453 190.072C181.325 190.072 182.429 188.668 182.429 187.06ZM181.181 187.132C181.181 188.08 180.413 188.836 179.465 188.836C178.505 188.836 177.749 188.08 177.749 187.132C177.749 186.184 178.493 185.404 179.465 185.404C180.437 185.404 181.181 186.184 181.181 187.132Z" fill="#A9A9A9"/>
<path fill-rule="evenodd" clip-rule="evenodd" d="M200.845 173V179H199.845V173H200.845Z" fill="#A9A9A9"/>
<path d="M203.184 181.36H197.508V182.584H201.804C200.664 185.056 199.512 187.528 198.36 190H199.764L203.184 182.584V181.36Z" fill="#A9A9A9"/>
<path fill-rule="evenodd" clip-rule="evenodd" d="M221.465 173V179H220.465V173H221.465Z" fill="#A9A9A9"/>
<path d="M222.097 185.224C222.601 184.816 222.997 184.24 222.997 183.52C222.997 182.188 221.857 181.288 220.465 181.288C219.073 181.288 217.945 182.188 217.945 183.52C217.945 184.228 218.329 184.804 218.821 185.2C218.125 185.596 217.501 186.28 217.501 187.372C217.501 188.98 218.893 190.072 220.465 190.072C222.133 190.072 223.429 188.908 223.429 187.372C223.429 186.292 222.793 185.62 222.097 185.224ZM219.133 183.58C219.133 182.92 219.709 182.44 220.465 182.44C221.209 182.44 221.797 182.872 221.797 183.58C221.797 184.264 221.209 184.72 220.465 184.72C219.673 184.72 219.133 184.204 219.133 183.58ZM220.465 188.86C219.493 188.86 218.773 188.212 218.773 187.36C218.773 186.388 219.589 185.896 220.465 185.896C221.485 185.896 222.169 186.388 222.169 187.36C222.169 188.32 221.341 188.86 220.465 188.86Z" fill="#A9A9A9"/>
<path fill-rule="evenodd" clip-rule="evenodd" d="M242.086 173V179H241.086V173H242.086Z" fill="#A9A9A9"/>
<path d="M237.883 184.288C237.883 185.836 239.167 187.096 240.655 187.096C241.735 187.096 242.503 186.364 242.731 185.98C242.731 187.684 241.951 188.872 240.823 188.872C239.767 188.872 239.371 188.044 239.311 187.672H238.075C238.135 188.38 238.759 190.06 240.835 190.06C241.687 190.06 242.347 189.772 242.827 189.268C243.655 188.416 243.991 186.976 243.991 185.356C243.991 183.124 242.959 181.276 240.859 181.276C238.987 181.276 237.883 182.68 237.883 184.288ZM239.131 184.216C239.131 183.268 239.899 182.512 240.847 182.512C241.807 182.512 242.563 183.268 242.563 184.216C242.563 185.164 241.819 185.944 240.847 185.944C239.875 185.944 239.131 185.164 239.131 184.216Z" fill="#A9A9A9"/>
<path fill-rule="evenodd" clip-rule="evenodd" d="M283.328 173V179H282.328V173H283.328Z" fill="#A9A9A9"/>
<path d="M280.764 181.36C280.764 182.692 279.756 183.436 278.604 183.436H278.52V184.612H278.604C279.108 184.612 279.972 184.564 280.572 184.12V190H281.832V181.36H280.764Z" fill="#A9A9A9"/>
<path d="M285.276 181.36C285.276 182.692 284.268 183.436 283.116 183.436H283.032V184.612H283.116C283.62 184.612 284.484 184.564 285.084 184.12V190H286.344V181.36H285.276Z" fill="#A9A9A9"/>
<path fill-rule="evenodd" clip-rule="evenodd" d="M324.569 173V179H323.569V173H324.569Z" fill="#A9A9A9"/>
<path d="M320.88 181.36C320.88 182.692 319.872 183.436 318.72 183.436H318.636V184.612H318.72C319.224 184.612 320.088 184.564 320.688 184.12V190H321.948V181.36H320.88Z" fill="#A9A9A9"/>
<path d="M324.576 187.312H323.328C323.328 188.764 324.612 190.072 326.268 190.072C328.02 190.072 329.256 188.8 329.256 187.144C329.256 185.608 327.924 184.456 326.448 184.684L329.028 182.584V181.36C329.028 181.36 327.132 181.36 326.352 181.36H324.672C324.168 181.36 324.228 181.36 323.76 181.36V182.596H323.832C323.844 182.596 324.396 182.596 324.432 182.596L326.304 182.584C326.916 182.584 327.42 182.584 327.42 182.584L324.516 184.9L325.176 185.812C326.532 184.996 328.008 185.764 328.008 187.156C328.008 188.116 327.264 188.872 326.304 188.872C325.764 188.872 325.32 188.656 325.008 188.332C324.756 188.056 324.6 187.696 324.576 187.312Z" fill="#A9A9A9"/>
<path fill-rule="evenodd" clip-rule="evenodd" d="M365.811 173V179H364.811V173H365.811Z" fill="#A9A9A9"/>
<path d="M362.134 181.36C362.134 182.692 361.126 183.436 359.974 183.436H359.89V184.612H359.974C360.478 184.612 361.342 184.564 361.942 184.12V190H363.202V181.36H362.134Z" fill="#A9A9A9"/>
<path d="M367.749 184.252C366.921 184.252 366.321 184.708 366.129 184.888L366.429 182.584H370.029V181.36H365.373L364.785 186.028L365.913 186.28C366.177 185.836 366.765 185.344 367.557 185.344C368.529 185.344 369.285 186.16 369.285 187.12C369.285 188.08 368.505 188.872 367.545 188.872C367.089 188.872 366.669 188.68 366.369 188.392C366.057 188.104 365.853 187.72 365.817 187.312H364.569C364.569 188.74 365.889 190.072 367.545 190.072C369.213 190.072 370.533 188.8 370.533 187.156C370.533 185.548 369.321 184.252 367.749 184.252Z" fill="#A9A9A9"/>
<path fill-rule="evenodd" clip-rule="evenodd" d="M407.052 173V179H406.052V173H407.052Z" fill="#A9A9A9"/>
<path d="M404.203 181.36C404.203 182.692 403.195 183.436 402.043 183.436H401.959V184.612H402.043C402.547 184.612 403.411 184.564 404.011 184.12V190H405.271V181.36H404.203Z" fill="#A9A9A9"/>
<path d="M412.147 181.36H406.471V182.584H410.767C409.627 185.056 408.475 187.528 407.323 190H408.727L412.147 182.584V181.36Z" fill="#A9A9A9"/>
<path fill-rule="evenodd" clip-rule="evenodd" d="M448.293 173V179H447.293V173H448.293Z" fill="#A9A9A9"/>
<path d="M444.446 181.36C444.446 182.692 443.438 183.436 442.286 183.436H442.202V184.612H442.286C442.79 184.612 443.654 184.564 444.254 184.12V190H445.514V181.36H444.446Z" fill="#A9A9A9"/>
<path d="M446.846 184.288C446.846 185.836 448.13 187.096 449.618 187.096C450.698 187.096 451.466 186.364 451.694 185.98C451.694 187.684 450.914 188.872 449.786 188.872C448.73 188.872 448.334 188.044 448.274 187.672H447.038C447.098 188.38 447.722 190.06 449.798 190.06C450.65 190.06 451.31 189.772 451.79 189.268C452.618 188.416 452.954 186.976 452.954 185.356C452.954 183.124 451.922 181.276 449.822 181.276C447.95 181.276 446.846 182.68 446.846 184.288ZM448.094 184.216C448.094 183.268 448.862 182.512 449.81 182.512C450.77 182.512 451.526 183.268 451.526 184.216C451.526 185.164 450.782 185.944 449.81 185.944C448.838 185.944 448.094 185.164 448.094 184.216Z" fill="#A9A9A9"/>
<path fill-rule="evenodd" clip-rule="evenodd" d="M489.535 173V179H488.535V173H489.535Z" fill="#A9A9A9"/>
<path d="M488.503 186.94C489.319 186.196 490.099 185.332 490.099 184.048C490.099 182.392 488.935 181.288 487.279 181.288C486.403 181.288 485.683 181.6 485.167 182.152C484.675 182.704 484.387 183.484 484.387 184.42H485.647C485.635 183.856 485.815 183.34 486.163 183.004C486.439 182.716 486.823 182.548 487.291 182.548C488.179 182.548 488.839 183.16 488.839 184.084C488.839 184.912 488.251 185.548 487.471 186.28C486.499 187.168 485.503 188.056 484.531 188.956C484.531 188.956 484.519 189.544 484.519 190H490.075V188.752H486.487C487.159 188.152 487.819 187.54 488.503 186.94Z" fill="#A9A9A9"/>
<path d="M492.967 181.36C492.967 182.692 491.959 183.436 490.807 183.436H490.723V184.612H490.807C491.311 184.612 492.175 184.564 492.775 184.12V190H494.035V181.36H492.967Z" fill="#A9A9A9"/>
<path fill-rule="evenodd" clip-rule="evenodd" d="M530.776 173V179H529.776V173H530.776Z" fill="#A9A9A9"/>
<path d="M528.119 186.94C528.935 186.196 529.715 185.332 529.715 184.048C529.715 182.392 528.551 181.288 526.895 181.288C526.019 181.288 525.299 181.6 524.783 182.152C524.291 182.704 524.003 183.484 524.003 184.42H525.263C525.251 183.856 525.431 183.34 525.779 183.004C526.055 182.716 526.439 182.548 526.907 182.548C527.795 182.548 528.455 183.16 528.455 184.084C528.455 184.912 527.867 185.548 527.087 186.28C526.115 187.168 525.119 188.056 524.147 188.956C524.147 188.956 524.135 189.544 524.135 190H529.691V188.752H526.103C526.775 188.152 527.435 187.54 528.119 186.94Z" fill="#A9A9A9"/>
<path d="M531.767 187.312H530.519C530.519 188.764 531.803 190.072 533.459 190.072C535.211 190.072 536.447 188.8 536.447 187.144C536.447 185.608 535.115 184.456 533.639 184.684L536.219 182.584V181.36C536.219 181.36 534.323 181.36 533.543 181.36H531.863C531.359 181.36 531.419 181.36 530.951 181.36V182.596H531.023C531.035 182.596 531.587 182.596 531.623 182.596L533.495 182.584C534.107 182.584 534.611 182.584 534.611 182.584L531.707 184.9L532.367 185.812C533.723 184.996 535.199 185.764 535.199 187.156C535.199 188.116 534.455 188.872 533.495 188.872C532.955 188.872 532.511 188.656 532.199 188.332C531.947 188.056 531.791 187.696 531.767 187.312Z" fill="#A9A9A9"/>
<path fill-rule="evenodd" clip-rule="evenodd" d="M572.017 173V179H571.017V173H572.017Z" fill="#A9A9A9"/>
<path d="M569.372 186.94C570.188 186.196 570.968 185.332 570.968 184.048C570.968 182.392 569.804 181.288 568.148 181.288C567.272 181.288 566.552 181.6 566.036 182.152C565.544 182.704 565.256 183.484 565.256 184.42H566.516C566.504 183.856 566.684 183.34 567.032 183.004C567.308 182.716 567.692 182.548 568.16 182.548C569.048 182.548 569.708 183.16 569.708 184.084C569.708 184.912 569.12 185.548 568.34 186.28C567.368 187.168 566.372 188.056 565.4 188.956C565.4 188.956 565.388 189.544 565.388 190H570.944V188.752H567.356C568.028 188.152 568.688 187.54 569.372 186.94Z" fill="#A9A9A9"/>
<path d="M574.94 184.252C574.112 184.252 573.512 184.708 573.32 184.888L573.62 182.584H577.22V181.36H572.564L571.976 186.028L573.104 186.28C573.368 185.836 573.956 185.344 574.748 185.344C575.72 185.344 576.476 186.16 576.476 187.12C576.476 188.08 575.696 188.872 574.736 188.872C574.28 188.872 573.86 188.68 573.56 188.392C573.248 188.104 573.044 187.72 573.008 187.312H571.76C571.76 188.74 573.08 190.072 574.736 190.072C576.404 190.072 577.724 188.8 577.724 187.156C577.724 185.548 576.512 184.252 574.94 184.252Z" fill="#A9A9A9"/>
<path fill-rule="evenodd" clip-rule="evenodd" d="M613.259 173V179H612.259V173H613.259Z" fill="#A9A9A9"/>
<path d="M611.442 186.94C612.258 186.196 613.038 185.332 613.038 184.048C613.038 182.392 611.874 181.288 610.218 181.288C609.342 181.288 608.622 181.6 608.106 182.152C607.614 182.704 607.326 183.484 607.326 184.42H608.586C608.574 183.856 608.754 183.34 609.102 183.004C609.378 182.716 609.762 182.548 610.23 182.548C611.118 182.548 611.778 183.16 611.778 184.084C611.778 184.912 611.19 185.548 610.41 186.28C609.438 187.168 608.442 188.056 607.47 188.956C607.47 188.956 607.458 189.544 607.458 190H613.014V188.752H609.426C610.098 188.152 610.758 187.54 611.442 186.94Z" fill="#A9A9A9"/>
<path d="M619.338 181.36H613.662V182.584H617.958C616.818 185.056 615.666 187.528 614.514 190H615.918L619.338 182.584V181.36Z" fill="#A9A9A9"/>
<path fill-rule="evenodd" clip-rule="evenodd" d="M654.5 173V179H653.5V173H654.5Z" fill="#A9A9A9"/>
<path d="M648.685 186.94C649.501 186.196 650.281 185.332 650.281 184.048C650.281 182.392 649.117 181.288 647.461 181.288C646.585 181.288 645.865 181.6 645.349 182.152C644.857 182.704 644.569 183.484 644.569 184.42H645.829C645.817 183.856 645.997 183.34 646.345 183.004C646.621 182.716 647.005 182.548 647.473 182.548C648.361 182.548 649.021 183.16 649.021 184.084C649.021 184.912 648.433 185.548 647.653 186.28C646.681 187.168 645.685 188.056 644.713 188.956C644.713 188.956 644.701 189.544 644.701 190H650.257V188.752H646.669C647.341 188.152 648.001 187.54 648.685 186.94Z" fill="#A9A9A9"/>
<path d="M651.037 184.288C651.037 185.836 652.321 187.096 653.809 187.096C654.889 187.096 655.657 186.364 655.885 185.98C655.885 187.684 655.105 188.872 653.977 188.872C652.921 188.872 652.525 188.044 652.465 187.672H651.229C651.289 188.38 651.913 190.06 653.989 190.06C654.841 190.06 655.501 189.772 655.981 189.268C656.809 188.416 657.145 186.976 657.145 185.356C657.145 183.124 656.113 181.276 654.013 181.276C652.141 181.276 651.037 182.68 651.037 184.288ZM652.285 184.216C652.285 183.268 653.053 182.512 654.001 182.512C654.961 182.512 655.717 183.268 655.717 184.216C655.717 185.164 654.973 185.944 654.001 185.944C653.029 185.944 652.285 185.164 652.285 184.216Z" fill="#A9A9A9"/>
<path fill-rule="evenodd" clip-rule="evenodd" d="M55.5 173V13H56.5V173H55.5Z" fill="#A9A9A9"/>
<path fill-rule="evenodd" clip-rule="evenodd" d="M56 173.5H50V172.5H56V173.5Z" fill="#A9A9A9"/>
<path d="M37.6079 167.68C37.6079 170.236 38.9159 172.072 41.0159 172.072C43.1039 172.072 44.3999 170.284 44.3999 167.68C44.3999 165.064 43.1159 163.288 41.0159 163.288C38.8559 163.288 37.6079 165.052 37.6079 167.68ZM38.8559 167.68C38.8559 165.76 39.6479 164.5 41.0159 164.5C42.2999 164.5 43.1399 165.772 43.1399 167.68C43.1399 169.54 42.3479 170.86 41.0159 170.86C39.7559 170.86 38.8559 169.588 38.8559 167.68Z" fill="#A9A9A9"/>
<path fill-rule="evenodd" clip-rule="evenodd" d="M56 133.5H50V132.5H56V133.5Z" fill="#A9A9A9"/>
<path d="M28.2059 123.36C28.2059 124.692 27.1979 125.436 26.0459 125.436H25.9619V126.612H26.0459C26.5499 126.612 27.4139 126.564 28.0139 126.12V132H29.2739V123.36H28.2059Z" fill="#A9A9A9"/>
<path d="M33.8216 126.252C32.9936 126.252 32.3936 126.708 32.2016 126.888L32.5016 124.584H36.1016V123.36H31.4456L30.8576 128.028L31.9856 128.28C32.2496 127.836 32.8376 127.344 33.6296 127.344C34.6016 127.344 35.3576 128.16 35.3576 129.12C35.3576 130.08 34.5776 130.872 33.6176 130.872C33.1616 130.872 32.7416 130.68 32.4416 130.392C32.1296 130.104 31.9256 129.72 31.8896 129.312H30.6416C30.6416 130.74 31.9616 132.072 33.6176 132.072C35.2856 132.072 36.6056 130.8 36.6056 129.156C36.6056 127.548 35.3936 126.252 33.8216 126.252Z" fill="#A9A9A9"/>
<path d="M37.6079 127.68C37.6079 130.236 38.9159 132.072 41.0159 132.072C43.1039 132.072 44.3999 130.284 44.3999 127.68C44.3999 125.064 43.1159 123.288 41.0159 123.288C38.8559 123.288 37.6079 125.052 37.6079 127.68ZM38.8559 127.68C38.8559 125.76 39.6479 124.5 41.0159 124.5C42.2999 124.5 43.1399 125.772 43.1399 127.68C43.1399 129.54 42.3479 130.86 41.0159 130.86C39.7559 130.86 38.8559 129.588 38.8559 127.68Z" fill="#A9A9A9"/>
<path fill-rule="evenodd" clip-rule="evenodd" d="M56.0005 93.5H50.0005V92.5H56.0005V93.5Z" fill="#A9A9A9"/>
<path d="M23.8862 89.3121H22.6382C22.6382 90.7641 23.9222 92.0721 25.5782 92.0721C27.3302 92.0721 28.5662 90.8001 28.5662 89.1441C28.5662 87.6081 27.2342 86.4561 25.7582 86.6841L28.3382 84.5841V83.3601C28.3382 83.3601 26.4422 83.3601 25.6622 83.3601H23.9822C23.4782 83.3601 23.5382 83.3601 23.0702 83.3601V84.5961H23.1422C23.1542 84.5961 23.7062 84.5961 23.7422 84.5961L25.6142 84.5841C26.2262 84.5841 26.7302 84.5841 26.7302 84.5841L23.8262 86.9001L24.4862 87.8121C25.8422 86.9961 27.3182 87.7641 27.3182 89.1561C27.3182 90.1161 26.5742 90.8721 25.6142 90.8721C25.0742 90.8721 24.6302 90.6561 24.3182 90.3321C24.0662 90.0561 23.9102 89.6961 23.8862 89.3121Z" fill="#A9A9A9"/>
<path d="M29.6159 87.6801C29.6159 90.2361 30.9239 92.0721 33.0239 92.0721C35.1119 92.0721 36.4079 90.2841 36.4079 87.6801C36.4079 85.0641 35.1239 83.2881 33.0239 83.2881C30.8639 83.2881 29.6159 85.0521 29.6159 87.6801ZM30.8639 87.6801C30.8639 85.7601 31.6559 84.5001 33.0239 84.5001C34.3079 84.5001 35.1479 85.7721 35.1479 87.6801C35.1479 89.5401 34.3559 90.8601 33.0239 90.8601C31.7639 90.8601 30.8639 89.5881 30.8639 87.6801Z" fill="#A9A9A9"/>
<path d="M37.6081 87.6801C37.6081 90.2361 38.9161 92.0721 41.0161 92.0721C43.1041 92.0721 44.4001 90.2841 44.4001 87.6801C44.4001 85.0641 43.1161 83.2881 41.0161 83.2881C38.8561 83.2881 37.6081 85.0521 37.6081 87.6801ZM38.8561 87.6801C38.8561 85.7601 39.6481 84.5001 41.0161 84.5001C42.3001 84.5001 43.1401 85.7721 43.1401 87.6801C43.1401 89.5401 42.3481 90.8601 41.0161 90.8601C39.7561 90.8601 38.8561 89.5881 38.8561 87.6801Z" fill="#A9A9A9"/>
<path fill-rule="evenodd" clip-rule="evenodd" d="M56.0005 53.5H50.0005V52.5H56.0005V53.5Z" fill="#A9A9A9"/>
<path d="M29.875 48.6761H28.627V43.3601H27.247L23.479 48.6761V49.8881H27.379V52.0001H28.627V49.8881H29.875V48.6761ZM24.859 48.6761L27.379 45.1361V48.6761H24.859Z" fill="#A9A9A9"/>
<path d="M33.822 46.2521C32.994 46.2521 32.394 46.7081 32.202 46.8881L32.502 44.5841H36.102V43.3601H31.446L30.858 48.0281L31.986 48.2801C32.25 47.8361 32.838 47.3441 33.63 47.3441C34.602 47.3441 35.358 48.1601 35.358 49.1201C35.358 50.0801 34.578 50.8721 33.618 50.8721C33.162 50.8721 32.742 50.6801 32.442 50.3921C32.13 50.1041 31.926 49.7201 31.89 49.3121H30.642C30.642 50.7401 31.962 52.0721 33.618 52.0721C35.286 52.0721 36.606 50.8001 36.606 49.1561C36.606 47.5481 35.394 46.2521 33.822 46.2521Z" fill="#A9A9A9"/>
<path d="M37.6083 47.6801C37.6083 50.2361 38.9163 52.0721 41.0163 52.0721C43.1043 52.0721 44.4003 50.2841 44.4003 47.6801C44.4003 45.0641 43.1163 43.2881 41.0163 43.2881C38.8563 43.2881 37.6083 45.0521 37.6083 47.6801ZM38.8563 47.6801C38.8563 45.7601 39.6483 44.5001 41.0163 44.5001C42.3003 44.5001 43.1403 45.7721 43.1403 47.6801C43.1403 49.5401 42.3483 50.8601 41.0163 50.8601C39.7563 50.8601 38.8563 49.5881 38.8563 47.6801Z" fill="#A9A9A9"/>
<path fill-rule="evenodd" clip-rule="evenodd" d="M56 13.5H50V12.5H56V13.5Z" fill="#A9A9A9"/>
<path d="M28.6817 13.0601C28.6817 11.5121 27.3977 10.2521 25.9097 10.2521C24.8297 10.2521 24.0617 10.9841 23.8337 11.3681C23.8337 9.66409 24.6137 8.47609 25.7417 8.47609C26.7977 8.47609 27.1937 9.30409 27.2537 9.67609H28.4897C28.4417 8.96809 27.8057 7.28809 25.7297 7.28809C24.8777 7.28809 24.2177 7.57609 23.7377 8.08009C22.9097 8.93209 22.5737 10.3721 22.5737 11.9921C22.5737 14.2241 23.6057 16.0721 25.7057 16.0721C27.5777 16.0721 28.6817 14.6681 28.6817 13.0601ZM27.4337 13.1321C27.4337 14.0801 26.6657 14.8361 25.7177 14.8361C24.7577 14.8361 24.0017 14.0801 24.0017 13.1321C24.0017 12.1841 24.7457 11.4041 25.7177 11.4041C26.6897 11.4041 27.4337 12.1841 27.4337 13.1321Z" fill="#A9A9A9"/>
<path d="M29.6159 11.6801C29.6159 14.2361 30.9239 16.0721 33.0239 16.0721C35.1119 16.0721 36.4079 14.2841 36.4079 11.6801C36.4079 9.06409 35.1239 7.28809 33.0239 7.28809C30.8639 7.28809 29.6159 9.05209 29.6159 11.6801ZM30.8639 11.6801C30.8639 9.76009 31.6559 8.50009 33.0239 8.50009C34.3079 8.50009 35.1479 9.77209 35.1479 11.6801C35.1479 13.5401 34.3559 14.8601 33.0239 14.8601C31.7639 14.8601 30.8639 13.5881 30.8639 11.6801Z" fill="#A9A9A9"/>
<path d="M37.608 11.6801C37.608 14.2361 38.916 16.0721 41.016 16.0721C43.104 16.0721 44.4 14.2841 44.4 11.6801C44.4 9.06409 43.116 7.28809 41.016 7.28809C38.856 7.28809 37.608 9.05209 37.608 11.6801ZM38.856 11.6801C38.856 9.76009 39.648 8.50009 41.016 8.50009C42.3 8.50009 43.14 9.77209 43.14 11.6801C43.14 13.5401 42.348 14.8601 41.016 14.8601C39.756 14.8601 38.856 13.5881 38.856 11.6801Z" fill="#A9A9A9"/>
<path fill-rule="evenodd" clip-rule="evenodd" d="M67.0107 40.1469L68.9891 39.8533L82.4352 130.457L98.0338 144.138L117.355 152.065L138.717 159.517L158.632 161.508L179.62 165.006L199.562 166.502L220.046 167.501L241.537 168.501L241.546 168.501L282.001 169.999L326.054 168.5L653.005 170L652.995 172L326.084 170.5L281.998 172.001L241.463 170.499L241.453 170.499L219.951 169.499L199.438 168.498L179.38 166.994L158.368 163.492L138.282 161.483L116.645 153.935L96.966 145.862L80.5646 131.476L67.0107 40.1469Z" fill="#E0257F"/>
<path fill-rule="evenodd" clip-rule="evenodd" d="M129.902 97.8196L128.903 97.774C128.967 96.3616 129 94.9364 129 93.5C129 92.0636 128.967 90.6384 128.903 89.2259L129.902 89.1804C129.967 90.6081 130 92.0484 130 93.5C130 94.9516 129.967 96.3919 129.902 97.8196ZM129.108 80.5899L128.118 80.7287C127.716 77.8581 127.181 75.0584 126.522 72.3439L127.494 72.1083C128.16 74.8551 128.702 77.6871 129.108 80.5899ZM125.026 63.8378L124.084 64.1748C123.105 61.4383 121.993 58.8199 120.762 56.3374L121.657 55.8931C122.906 58.4116 124.033 61.0659 125.026 63.8378ZM117.333 48.4289L116.503 48.9879C114.877 46.5745 113.121 44.3524 111.254 42.3448L111.986 41.6638C113.891 43.7118 115.679 45.9751 117.333 48.4289ZM105.561 35.9106L104.97 36.717C102.652 35.0175 100.221 33.6147 97.7005 32.5387L98.093 31.619C100.689 32.7271 103.186 34.1691 105.561 35.9106ZM89.8045 29.2979L89.6667 30.2883C88.2956 30.0976 86.9057 30 85.5 30C84.0943 30 82.7044 30.0976 81.3333 30.2883L81.1955 29.2979C82.612 29.1008 84.0479 29 85.5 29C86.9521 29 88.388 29.1008 89.8045 29.2979ZM72.907 31.619L73.2995 32.5387C70.7788 33.6147 68.3477 35.0175 66.03 36.717L65.4387 35.9106C67.8137 34.1691 70.311 32.7271 72.907 31.619ZM59.014 41.6638L59.7462 42.3448C57.8791 44.3524 56.1232 46.5745 54.4965 48.9879L53.6673 48.4289C55.3213 45.9751 57.1092 43.7118 59.014 41.6638ZM49.3426 55.8931L50.2384 56.3374C49.0072 58.8199 47.8954 61.4383 46.9159 64.1748L45.9744 63.8378C46.9666 61.0659 48.0935 58.4116 49.3426 55.8931ZM43.5058 72.1082L44.4777 72.3439C43.8195 75.0584 43.2842 77.8581 42.8819 80.7287L41.8916 80.5899C42.2984 77.6871 42.8398 74.8551 43.5058 72.1082ZM41.0982 89.1804C41.0331 90.6081 41 92.0484 41 93.5C41 94.9516 41.0331 96.392 41.0982 97.8196L42.0972 97.774C42.0327 96.3616 42 94.9364 42 93.5C42 92.0636 42.0327 90.6384 42.0972 89.226L41.0982 89.1804ZM41.8916 106.41L42.8819 106.271C43.2842 109.142 43.8195 111.942 44.4777 114.656L43.5058 114.892C42.8398 112.145 42.2984 109.313 41.8916 106.41ZM45.9744 123.162L46.9159 122.825C47.8954 125.562 49.0072 128.18 50.2384 130.663L49.3426 131.107C48.0935 128.588 46.9666 125.934 45.9744 123.162ZM53.6673 138.571L54.4965 138.012C56.1232 140.425 57.8791 142.648 59.7462 144.655L59.014 145.336C57.1092 143.288 55.3213 141.025 53.6673 138.571ZM65.4387 151.089L66.0301 150.283C68.3477 151.982 70.7788 153.385 73.2995 154.461L72.907 155.381C70.311 154.273 67.8137 152.831 65.4387 151.089ZM81.1955 157.702L81.3333 156.712C82.7044 156.902 84.0943 157 85.5 157C86.9057 157 88.2956 156.902 89.6667 156.712L89.8045 157.702C88.388 157.899 86.9521 158 85.5 158C84.0479 158 82.612 157.899 81.1955 157.702ZM98.093 155.381L97.7005 154.461C100.221 153.385 102.652 151.982 104.97 150.283L105.561 151.089C103.186 152.831 100.689 154.273 98.093 155.381ZM111.986 145.336L111.254 144.655C113.121 142.648 114.877 140.425 116.503 138.012L117.333 138.571C115.679 141.025 113.891 143.288 111.986 145.336ZM121.657 131.107L120.762 130.663C121.993 128.18 123.105 125.562 124.084 122.825L125.026 123.162C124.033 125.934 122.906 128.588 121.657 131.107ZM127.494 114.892L126.522 114.656C127.181 111.942 127.716 109.142 128.118 106.271L129.108 106.41C128.702 109.313 128.16 112.145 127.494 114.892Z" fill="#1D1E21"/>
<path d="M312.53 204.8H311.48V209.38C311.48 210.28 310.75 211.02 309.84 211.02C308.94 211.02 308.21 210.28 308.21 209.38V204.8H307.16V209.38C307.16 210.86 308.36 212.06 309.84 212.06C311.32 212.06 312.53 210.86 312.53 209.38V204.8Z" fill="#333333" fill-opacity="0.5"/>
<path d="M314.568 210.3H313.598C313.598 211.1 314.258 212.06 315.538 212.06C316.678 212.06 317.438 211.39 317.438 210.45C317.438 209.72 316.958 209.17 315.948 208.95L315.308 208.8C314.928 208.72 314.738 208.56 314.738 208.25C314.738 207.92 315.058 207.68 315.518 207.68C315.758 207.68 315.938 207.76 316.078 207.88C316.238 208.03 316.328 208.24 316.328 208.43H317.298C317.298 207.65 316.618 206.79 315.528 206.78C314.448 206.77 313.708 207.43 313.708 208.26C313.708 209.09 314.238 209.52 314.998 209.7L315.588 209.84C316.148 209.97 316.408 210.13 316.408 210.49C316.408 210.86 316.068 211.13 315.538 211.13C315.268 211.13 315.028 211.04 314.858 210.9C314.668 210.74 314.568 210.52 314.568 210.3Z" fill="#333333" fill-opacity="0.5"/>
<path d="M322.119 206.84V207.66C321.729 207.12 321.139 206.78 320.409 206.78H320.399C319.189 206.78 318.219 207.95 318.219 209.42C318.219 210.91 319.189 212.06 320.399 212.06H320.409C321.139 212.06 321.719 211.73 322.109 211.2C322.109 211.39 322.109 211.64 322.109 212H323.159V211.15V211.14C323.159 210.39 323.159 210.02 323.159 209.27V207.7V206.84H322.119ZM320.729 211.03H320.719C319.839 211.03 319.259 210.35 319.259 209.42C319.259 208.5 319.829 207.81 320.719 207.81H320.729C321.489 207.81 322.049 208.44 322.109 209.27V209.59C322.039 210.41 321.489 211.03 320.729 211.03Z" fill="#333333" fill-opacity="0.5"/>
<path d="M327.352 206.78H327.342C326.652 206.78 326.072 207.1 325.672 207.62V204.8H324.622V212H325.672V211.23C326.072 211.74 326.652 212.06 327.342 212.06H327.352C328.562 212.05 329.562 210.89 329.562 209.42C329.562 207.95 328.562 206.78 327.352 206.78ZM327.072 211.03H327.062C326.212 211.03 325.672 210.32 325.672 209.42C325.672 208.52 326.212 207.82 327.062 207.82H327.072C327.922 207.82 328.522 208.52 328.522 209.42C328.522 210.32 327.922 211.02 327.072 211.03Z" fill="#333333" fill-opacity="0.5"/>
<path d="M331.286 204.6C330.866 204.6 330.536 204.94 330.536 205.36C330.536 205.78 330.866 206.12 331.286 206.12C331.706 206.12 332.036 205.78 332.036 205.36C332.036 204.94 331.706 204.6 331.286 204.6ZM331.796 206.84H330.756V212H331.796V206.84Z" fill="#333333" fill-opacity="0.5"/>
<path d="M334.402 204.8H333.352V212H334.402V204.8Z" fill="#333333" fill-opacity="0.5"/>
<path d="M336.462 204.6C336.042 204.6 335.712 204.94 335.712 205.36C335.712 205.78 336.042 206.12 336.462 206.12C336.882 206.12 337.212 205.78 337.212 205.36C337.212 204.94 336.882 204.6 336.462 204.6ZM336.972 206.84H335.932V212H336.972V206.84Z" fill="#333333" fill-opacity="0.5"/>
<path d="M340.588 211.08C340.218 211.08 339.898 210.93 339.898 210.48V207.75H341.228V206.84H339.898V205.38H338.858V206.84H338.018V207.75H338.858V210.51C338.858 211.45 339.508 212.06 340.388 212.06C340.748 212.06 341.058 211.92 341.238 211.85V210.89C341.168 210.94 340.898 211.08 340.588 211.08Z" fill="#333333" fill-opacity="0.5"/>
<path d="M346.619 206.84H345.569V209.84C345.569 210.48 345.049 211.03 344.399 211.03C343.739 211.03 343.229 210.49 343.229 209.84V206.84H342.189V209.96C342.189 211.13 342.879 212.06 343.969 212.06C344.609 212.06 345.169 211.76 345.569 211.25V211.83C345.569 212.76 345.069 213.46 344.199 213.46C343.409 213.46 342.919 212.94 342.859 212.43H341.769C341.829 213.33 342.679 214.46 344.179 214.46C345.619 214.46 346.619 213.35 346.619 211.84V206.84Z" fill="#333333" fill-opacity="0.5"/>
<path d="M351.54 204.6C351.12 204.6 350.79 204.94 350.79 205.36C350.79 205.78 351.12 206.12 351.54 206.12C351.96 206.12 352.29 205.78 352.29 205.36C352.29 204.94 351.96 204.6 351.54 204.6ZM352.05 206.84H351.01V212H352.05V206.84Z" fill="#333333" fill-opacity="0.5"/>
<path d="M354.226 210.3H353.256C353.256 211.1 353.916 212.06 355.196 212.06C356.336 212.06 357.096 211.39 357.096 210.45C357.096 209.72 356.616 209.17 355.606 208.95L354.966 208.8C354.586 208.72 354.396 208.56 354.396 208.25C354.396 207.92 354.716 207.68 355.176 207.68C355.416 207.68 355.596 207.76 355.736 207.88C355.896 208.03 355.986 208.24 355.986 208.43H356.956C356.956 207.65 356.276 206.79 355.186 206.78C354.106 206.77 353.366 207.43 353.366 208.26C353.366 209.09 353.896 209.52 354.656 209.7L355.246 209.84C355.806 209.97 356.066 210.13 356.066 210.49C356.066 210.86 355.726 211.13 355.196 211.13C354.926 211.13 354.686 211.04 354.516 210.9C354.326 210.74 354.226 210.52 354.226 210.3Z" fill="#333333" fill-opacity="0.5"/>
<path d="M358.777 210.3H357.807C357.807 211.1 358.467 212.06 359.747 212.06C360.887 212.06 361.647 211.39 361.647 210.45C361.647 209.72 361.167 209.17 360.157 208.95L359.517 208.8C359.137 208.72 358.947 208.56 358.947 208.25C358.947 207.92 359.267 207.68 359.727 207.68C359.967 207.68 360.147 207.76 360.287 207.88C360.447 208.03 360.537 208.24 360.537 208.43H361.507C361.507 207.65 360.827 206.79 359.737 206.78C358.657 206.77 357.917 207.43 357.917 208.26C357.917 209.09 358.447 209.52 359.207 209.7L359.797 209.84C360.357 209.97 360.617 210.13 360.617 210.49C360.617 210.86 360.277 211.13 359.747 211.13C359.477 211.13 359.237 211.04 359.067 210.9C358.877 210.74 358.777 210.52 358.777 210.3Z" fill="#333333" fill-opacity="0.5"/>
<path d="M367.068 206.84H366.028V209.84C366.028 210.49 365.508 211.03 364.848 211.03C364.208 211.03 363.688 210.49 363.688 209.84V206.84H362.638V209.84C362.638 211.32 363.448 212.06 364.418 212.06C365.048 212.06 365.628 211.77 366.028 211.25V212H367.068V206.84Z" fill="#333333" fill-opacity="0.5"/>
<path d="M369.318 209.74H373.128C373.138 209.63 373.148 209.5 373.148 209.36C373.148 207.95 372.128 206.78 370.748 206.78C369.328 206.78 368.258 207.95 368.258 209.42C368.258 210.92 369.298 212.06 370.788 212.06C372.378 212.06 372.998 210.78 373.058 210.35H371.988C371.908 210.61 371.508 211.1 370.788 211.1C369.908 211.1 369.418 210.52 369.318 209.74ZM370.748 207.74C371.508 207.74 371.978 208.26 372.108 208.94H369.348C369.498 208.24 369.988 207.74 370.748 207.74Z" fill="#333333" fill-opacity="0.5"/>
<path d="M290.016 153.8H288.976V161H290.016V153.8Z" fill="#1D1E21"/>
<path d="M296.182 153.8H295.142V156.63C294.742 156.11 294.152 155.78 293.462 155.78C292.252 155.78 291.242 156.95 291.242 158.42C291.242 159.89 292.252 161.06 293.462 161.06C294.152 161.06 294.742 160.74 295.142 160.22V161H296.182V153.8ZM293.752 160.03C292.902 160.03 292.282 159.32 292.282 158.42C292.282 157.52 292.902 156.82 293.752 156.82C294.592 156.82 295.142 157.52 295.142 158.42C295.142 159.32 294.592 160.03 293.752 160.03Z" fill="#1D1E21"/>
<path d="M298.245 153.6C297.825 153.6 297.495 153.94 297.495 154.36C297.495 154.78 297.825 155.12 298.245 155.12C298.665 155.12 298.995 154.78 298.995 154.36C298.995 153.94 298.665 153.6 298.245 153.6ZM298.755 155.84H297.715V161H298.755V155.84Z" fill="#1D1E21"/>
<path d="M302.483 161.06H302.493C303.903 161.06 304.993 159.88 304.993 158.42C304.993 156.96 303.903 155.78 302.493 155.78H302.483C301.063 155.78 299.973 156.96 299.973 158.42C299.973 159.88 301.063 161.06 302.483 161.06ZM302.483 160.02C301.633 160.02 301.013 159.3 301.013 158.42C301.013 157.54 301.633 156.83 302.483 156.82H302.493C303.333 156.82 303.943 157.56 303.943 158.42C303.943 159.3 303.333 160.02 302.493 160.02H302.483Z" fill="#1D1E21"/>
<path d="M306.791 159.3H305.821C305.821 160.1 306.481 161.06 307.761 161.06C308.901 161.06 309.661 160.39 309.661 159.45C309.661 158.72 309.181 158.17 308.171 157.95L307.531 157.8C307.151 157.72 306.961 157.56 306.961 157.25C306.961 156.92 307.281 156.68 307.741 156.68C307.981 156.68 308.161 156.76 308.301 156.88C308.461 157.03 308.551 157.24 308.551 157.43H309.521C309.521 156.65 308.841 155.79 307.751 155.78C306.671 155.77 305.931 156.43 305.931 157.26C305.931 158.09 306.461 158.52 307.221 158.7L307.811 158.84C308.371 158.97 308.631 159.13 308.631 159.49C308.631 159.86 308.291 160.13 307.761 160.13C307.491 160.13 307.251 160.04 307.081 159.9C306.891 159.74 306.791 159.52 306.791 159.3Z" fill="#1D1E21"/>
<path d="M315.081 155.84H314.031V158.84C314.031 159.48 313.511 160.03 312.861 160.03C312.201 160.03 311.691 159.49 311.691 158.84V155.84H310.651V158.96C310.651 160.13 311.341 161.06 312.431 161.06C313.071 161.06 313.631 160.76 314.031 160.25V160.83C314.031 161.76 313.531 162.46 312.661 162.46C311.871 162.46 311.381 161.94 311.321 161.43H310.231C310.291 162.33 311.141 163.46 312.641 163.46C314.081 163.46 315.081 162.35 315.081 160.84V155.84Z" fill="#1D1E21"/>
<path d="M319.183 155.78C318.553 155.78 317.963 156.08 317.563 156.59V155.84H316.513V161H317.563V158C317.563 157.35 318.083 156.81 318.733 156.81C319.383 156.81 319.903 157.35 319.903 158V161H320.943V157.96C320.943 156.6 320.153 155.78 319.183 155.78Z" fill="#1D1E21"/>
<path d="M325.773 157.62H326.853C326.783 156.94 326.053 155.78 324.573 155.78C323.153 155.78 322.043 156.96 322.043 158.42C322.043 159.88 323.153 161.06 324.573 161.06C325.953 161.06 326.773 159.85 326.833 159.22H325.773C325.743 159.35 325.623 159.59 325.393 159.78C325.203 159.93 324.933 160.05 324.573 160.05C323.693 160.05 323.083 159.3 323.083 158.42C323.083 157.54 323.673 156.79 324.573 156.79C324.913 156.79 325.163 156.89 325.343 157.03C325.603 157.23 325.733 157.48 325.773 157.62Z" fill="#1D1E21"/>
<path d="M330.319 155.78C329.749 155.78 329.299 156.07 328.979 156.53V155.84H327.929V161H328.979V158.23C328.979 157.24 329.549 156.8 330.289 156.8C330.469 156.8 330.769 156.83 330.849 156.84V155.81C330.749 155.8 330.559 155.78 330.319 155.78Z" fill="#1D1E21"/>
<path d="M335.054 155.84V156.66C334.664 156.12 334.074 155.78 333.344 155.78H333.334C332.124 155.78 331.154 156.95 331.154 158.42C331.154 159.91 332.124 161.06 333.334 161.06H333.344C334.074 161.06 334.654 160.73 335.044 160.2C335.044 160.39 335.044 160.64 335.044 161H336.094V160.15V160.14C336.094 159.39 336.094 159.02 336.094 158.27V156.7V155.84H335.054ZM333.664 160.03H333.654C332.774 160.03 332.194 159.35 332.194 158.42C332.194 157.5 332.764 156.81 333.654 156.81H333.664C334.424 156.81 334.984 157.44 335.044 158.27V158.59C334.974 159.41 334.424 160.03 333.664 160.03Z" fill="#1D1E21"/>
<path d="M339.627 160.08C339.257 160.08 338.937 159.93 338.937 159.48V156.75H340.267V155.84H338.937V154.38H337.897V155.84H337.057V156.75H337.897V159.51C337.897 160.45 338.547 161.06 339.427 161.06C339.787 161.06 340.097 160.92 340.277 160.85V159.89C340.207 159.94 339.937 160.08 339.627 160.08Z" fill="#1D1E21"/>
<path d="M341.917 153.6C341.497 153.6 341.167 153.94 341.167 154.36C341.167 154.78 341.497 155.12 341.917 155.12C342.337 155.12 342.667 154.78 342.667 154.36C342.667 153.94 342.337 153.6 341.917 153.6ZM342.427 155.84H341.387V161H342.427V155.84Z" fill="#1D1E21"/>
<path d="M347.374 157.62H348.454C348.384 156.94 347.654 155.78 346.174 155.78C344.754 155.78 343.644 156.96 343.644 158.42C343.644 159.88 344.754 161.06 346.174 161.06C347.554 161.06 348.374 159.85 348.434 159.22H347.374C347.344 159.35 347.224 159.59 346.994 159.78C346.804 159.93 346.534 160.05 346.174 160.05C345.294 160.05 344.684 159.3 344.684 158.42C344.684 157.54 345.274 156.79 346.174 156.79C346.514 156.79 346.764 156.89 346.944 157.03C347.204 157.23 347.334 157.48 347.374 157.62Z" fill="#1D1E21"/>
<path d="M356.781 155.84H355.741V158.84C355.741 159.49 355.221 160.03 354.561 160.03C353.921 160.03 353.401 159.49 353.401 158.84V155.84H352.351V158.84C352.351 160.32 353.161 161.06 354.131 161.06C354.761 161.06 355.341 160.77 355.741 160.25V161H356.781V155.84Z" fill="#1D1E21"/>
<path d="M358.88 159.3H357.91C357.91 160.1 358.57 161.06 359.85 161.06C360.99 161.06 361.75 160.39 361.75 159.45C361.75 158.72 361.27 158.17 360.26 157.95L359.62 157.8C359.24 157.72 359.05 157.56 359.05 157.25C359.05 156.92 359.37 156.68 359.83 156.68C360.07 156.68 360.25 156.76 360.39 156.88C360.55 157.03 360.64 157.24 360.64 157.43H361.61C361.61 156.65 360.93 155.79 359.84 155.78C358.76 155.77 358.02 156.43 358.02 157.26C358.02 158.09 358.55 158.52 359.31 158.7L359.9 158.84C360.46 158.97 360.72 159.13 360.72 159.49C360.72 159.86 360.38 160.13 359.85 160.13C359.58 160.13 359.34 160.04 359.17 159.9C358.98 159.74 358.88 159.52 358.88 159.3Z" fill="#1D1E21"/>
<path d="M366.431 155.84V156.66C366.041 156.12 365.451 155.78 364.721 155.78H364.711C363.501 155.78 362.531 156.95 362.531 158.42C362.531 159.91 363.501 161.06 364.711 161.06H364.721C365.451 161.06 366.031 160.73 366.421 160.2C366.421 160.39 366.421 160.64 366.421 161H367.471V160.15V160.14C367.471 159.39 367.471 159.02 367.471 158.27V156.7V155.84H366.431ZM365.041 160.03H365.031C364.151 160.03 363.571 159.35 363.571 158.42C363.571 157.5 364.141 156.81 365.031 156.81H365.041C365.801 156.81 366.361 157.44 366.421 158.27V158.59C366.351 159.41 365.801 160.03 365.041 160.03Z" fill="#1D1E21"/>
<path d="M371.664 155.78H371.654C370.964 155.78 370.384 156.1 369.984 156.62V153.8H368.934V161H369.984V160.23C370.384 160.74 370.964 161.06 371.654 161.06H371.664C372.874 161.05 373.874 159.89 373.874 158.42C373.874 156.95 372.874 155.78 371.664 155.78ZM371.384 160.03H371.374C370.524 160.03 369.984 159.32 369.984 158.42C369.984 157.52 370.524 156.82 371.374 156.82H371.384C372.234 156.82 372.834 157.52 372.834 158.42C372.834 159.32 372.234 160.02 371.384 160.03Z" fill="#1D1E21"/>
<path d="M375.599 153.6C375.179 153.6 374.849 153.94 374.849 154.36C374.849 154.78 375.179 155.12 375.599 155.12C376.019 155.12 376.349 154.78 376.349 154.36C376.349 153.94 376.019 153.6 375.599 153.6ZM376.109 155.84H375.069V161H376.109V155.84Z" fill="#1D1E21"/>
<path d="M378.715 153.8H377.665V161H378.715V153.8Z" fill="#1D1E21"/>
<path d="M380.774 153.6C380.354 153.6 380.024 153.94 380.024 154.36C380.024 154.78 380.354 155.12 380.774 155.12C381.194 155.12 381.524 154.78 381.524 154.36C381.524 153.94 381.194 153.6 380.774 153.6ZM381.284 155.84H380.244V161H381.284V155.84Z" fill="#1D1E21"/>
<path d="M384.901 160.08C384.531 160.08 384.211 159.93 384.211 159.48V156.75H385.541V155.84H384.211V154.38H383.171V155.84H382.331V156.75H383.171V159.51C383.171 160.45 383.821 161.06 384.701 161.06C385.061 161.06 385.371 160.92 385.551 160.85V159.89C385.481 159.94 385.211 160.08 384.901 160.08Z" fill="#1D1E21"/>
<path d="M390.931 155.84H389.881V158.84C389.881 159.48 389.361 160.03 388.711 160.03C388.051 160.03 387.541 159.49 387.541 158.84V155.84H386.501V158.96C386.501 160.13 387.191 161.06 388.281 161.06C388.921 161.06 389.481 160.76 389.881 160.25V160.83C389.881 161.76 389.381 162.46 388.511 162.46C387.721 162.46 387.231 161.94 387.171 161.43H386.081C386.141 162.33 386.991 163.46 388.491 163.46C389.931 163.46 390.931 162.35 390.931 160.84V155.84Z" fill="#1D1E21"/>
<path d="M395.853 153.6C395.433 153.6 395.103 153.94 395.103 154.36C395.103 154.78 395.433 155.12 395.853 155.12C396.273 155.12 396.603 154.78 396.603 154.36C396.603 153.94 396.273 153.6 395.853 153.6ZM396.363 155.84H395.323V161H396.363V155.84Z" fill="#1D1E21"/>
<path d="M398.539 159.3H397.569C397.569 160.1 398.229 161.06 399.509 161.06C400.649 161.06 401.409 160.39 401.409 159.45C401.409 158.72 400.929 158.17 399.919 157.95L399.279 157.8C398.899 157.72 398.709 157.56 398.709 157.25C398.709 156.92 399.029 156.68 399.489 156.68C399.729 156.68 399.909 156.76 400.049 156.88C400.209 157.03 400.299 157.24 400.299 157.43H401.269C401.269 156.65 400.589 155.79 399.499 155.78C398.419 155.77 397.679 156.43 397.679 157.26C397.679 158.09 398.209 158.52 398.969 158.7L399.559 158.84C400.119 158.97 400.379 159.13 400.379 159.49C400.379 159.86 400.039 160.13 399.509 160.13C399.239 160.13 398.999 160.04 398.829 159.9C398.639 159.74 398.539 159.52 398.539 159.3Z" fill="#1D1E21"/>
<path d="M403.089 159.3H402.119C402.119 160.1 402.779 161.06 404.059 161.06C405.199 161.06 405.959 160.39 405.959 159.45C405.959 158.72 405.479 158.17 404.469 157.95L403.829 157.8C403.449 157.72 403.259 157.56 403.259 157.25C403.259 156.92 403.579 156.68 404.039 156.68C404.279 156.68 404.459 156.76 404.599 156.88C404.759 157.03 404.849 157.24 404.849 157.43H405.819C405.819 156.65 405.139 155.79 404.049 155.78C402.969 155.77 402.229 156.43 402.229 157.26C402.229 158.09 402.759 158.52 403.519 158.7L404.109 158.84C404.669 158.97 404.929 159.13 404.929 159.49C404.929 159.86 404.589 160.13 404.059 160.13C403.789 160.13 403.549 160.04 403.379 159.9C403.189 159.74 403.089 159.52 403.089 159.3Z" fill="#1D1E21"/>
<path d="M411.38 155.84H410.34V158.84C410.34 159.49 409.82 160.03 409.16 160.03C408.52 160.03 408 159.49 408 158.84V155.84H406.95V158.84C406.95 160.32 407.76 161.06 408.73 161.06C409.36 161.06 409.94 160.77 410.34 160.25V161H411.38V155.84Z" fill="#1D1E21"/>
<path d="M413.63 158.74H417.44C417.45 158.63 417.46 158.5 417.46 158.36C417.46 156.95 416.44 155.78 415.06 155.78C413.64 155.78 412.57 156.95 412.57 158.42C412.57 159.92 413.61 161.06 415.1 161.06C416.69 161.06 417.31 159.78 417.37 159.35H416.3C416.22 159.61 415.82 160.1 415.1 160.1C414.22 160.1 413.73 159.52 413.63 158.74ZM415.06 156.74C415.82 156.74 416.29 157.26 416.42 157.94H413.66C413.81 157.24 414.3 156.74 415.06 156.74Z" fill="#1D1E21"/>
<path d="M419.203 159.3H418.233C418.233 160.1 418.893 161.06 420.173 161.06C421.313 161.06 422.073 160.39 422.073 159.45C422.073 158.72 421.593 158.17 420.583 157.95L419.943 157.8C419.563 157.72 419.373 157.56 419.373 157.25C419.373 156.92 419.693 156.68 420.153 156.68C420.393 156.68 420.573 156.76 420.713 156.88C420.873 157.03 420.963 157.24 420.963 157.43H421.933C421.933 156.65 421.253 155.79 420.163 155.78C419.083 155.77 418.343 156.43 418.343 157.26C418.343 158.09 418.873 158.52 419.633 158.7L420.223 158.84C420.783 158.97 421.043 159.13 421.043 159.49C421.043 159.86 420.703 160.13 420.173 160.13C419.903 160.13 419.663 160.04 419.493 159.9C419.303 159.74 419.203 159.52 419.203 159.3Z" fill="#1D1E21"/>
<path d="M428.004 162.97L428.694 162.27C428.064 161.72 427.574 161.04 427.204 160.23C426.834 159.42 426.654 158.6 426.654 157.76C426.654 156.92 426.844 156.09 427.214 155.27C427.584 154.46 428.074 153.78 428.694 153.23L428.004 152.55C427.284 153.21 426.724 153.99 426.324 154.89C425.914 155.79 425.714 156.75 425.714 157.76C425.714 158.77 425.914 159.73 426.324 160.63C426.724 161.53 427.284 162.31 428.004 162.97Z" fill="#1D1E21"/>
<path d="M430.687 153.8H429.637V161H430.687V153.8Z" fill="#1D1E21"/>
<path d="M434.318 161.06H434.328C435.738 161.06 436.828 159.88 436.828 158.42C436.828 156.96 435.738 155.78 434.328 155.78H434.318C432.898 155.78 431.808 156.96 431.808 158.42C431.808 159.88 432.898 161.06 434.318 161.06ZM434.318 160.02C433.468 160.02 432.848 159.3 432.848 158.42C432.848 157.54 433.468 156.83 434.318 156.82H434.328C435.168 156.82 435.778 157.56 435.778 158.42C435.778 159.3 435.168 160.02 434.328 160.02H434.318Z" fill="#1D1E21"/>
<path d="M445.05 155.84H444L442.81 159.46L441.62 155.84H440.61L439.45 159.45L438.26 155.84H437.21L438.95 161H439.96L441.12 157.4L442.3 161H443.31L445.05 155.84Z" fill="#1D1E21"/>
<path d="M449.368 153.6C448.948 153.6 448.618 153.94 448.618 154.36C448.618 154.78 448.948 155.12 449.368 155.12C449.788 155.12 450.118 154.78 450.118 154.36C450.118 153.94 449.788 153.6 449.368 153.6ZM449.878 155.84H448.838V161H449.878V155.84Z" fill="#1D1E21"/>
<path d="M457.194 155.78C456.484 155.78 455.894 156.19 455.554 156.79L455.524 156.73C455.204 156.09 454.624 155.78 453.964 155.78C453.384 155.78 452.854 156.05 452.504 156.48V155.84H451.454V161H452.504V157.94C452.504 157.32 453.004 156.81 453.614 156.81C454.224 156.81 454.724 157.32 454.724 157.94V161H455.764V157.94C455.764 157.32 456.254 156.81 456.874 156.81C457.484 156.81 457.984 157.32 457.984 157.94V161H459.024V157.86C459.024 156.52 458.164 155.78 457.194 155.78Z" fill="#1D1E21"/>
<path d="M463.129 155.78C462.439 155.78 461.849 156.1 461.449 156.62V155.84H460.409V163.33H461.449V160.21C461.849 160.73 462.439 161.06 463.129 161.06C464.339 161.06 465.349 159.89 465.349 158.42C465.349 156.95 464.339 155.78 463.129 155.78ZM462.849 160.02C461.999 160.02 461.449 159.32 461.449 158.42C461.449 157.52 461.999 156.81 462.849 156.81C463.689 156.81 464.289 157.52 464.289 158.42C464.289 159.32 463.689 160.02 462.849 160.02Z" fill="#1D1E21"/>
<path d="M470.152 155.84V156.66C469.762 156.12 469.172 155.78 468.442 155.78H468.432C467.222 155.78 466.252 156.95 466.252 158.42C466.252 159.91 467.222 161.06 468.432 161.06H468.442C469.172 161.06 469.752 160.73 470.142 160.2C470.142 160.39 470.142 160.64 470.142 161H471.192V160.15V160.14C471.192 159.39 471.192 159.02 471.192 158.27V156.7V155.84H470.152ZM468.762 160.03H468.752C467.872 160.03 467.292 159.35 467.292 158.42C467.292 157.5 467.862 156.81 468.752 156.81H468.762C469.522 156.81 470.082 157.44 470.142 158.27V158.59C470.072 159.41 469.522 160.03 468.762 160.03Z" fill="#1D1E21"/>
<path d="M476.105 157.62H477.185C477.115 156.94 476.385 155.78 474.905 155.78C473.485 155.78 472.375 156.96 472.375 158.42C472.375 159.88 473.485 161.06 474.905 161.06C476.285 161.06 477.105 159.85 477.165 159.22H476.105C476.075 159.35 475.955 159.59 475.725 159.78C475.535 159.93 475.265 160.05 474.905 160.05C474.025 160.05 473.415 159.3 473.415 158.42C473.415 157.54 474.005 156.79 474.905 156.79C475.245 156.79 475.495 156.89 475.675 157.03C475.935 157.23 476.065 157.48 476.105 157.62Z" fill="#1D1E21"/>
<path d="M480.311 160.08C479.941 160.08 479.621 159.93 479.621 159.48V156.75H480.951V155.84H479.621V154.38H478.581V155.84H477.741V156.75H478.581V159.51C478.581 160.45 479.231 161.06 480.111 161.06C480.471 161.06 480.781 160.92 480.961 160.85V159.89C480.891 159.94 480.621 160.08 480.311 160.08Z" fill="#1D1E21"/>
<path d="M481.491 162.25L482.161 162.97C482.881 162.31 483.441 161.53 483.851 160.63C484.251 159.73 484.451 158.77 484.451 157.76C484.451 156.75 484.251 155.79 483.851 154.89C483.441 153.99 482.881 153.21 482.161 152.55L481.481 153.23C482.081 153.78 482.571 154.46 482.951 155.27C483.321 156.09 483.511 156.92 483.511 157.76C483.511 158.6 483.321 159.42 482.951 160.23C482.581 161.04 482.091 161.71 481.491 162.25Z" fill="#1D1E21"/>
<path d="M182.59 25.8001H181.55V28.8801H177.87V25.8001H176.83V33.0001H177.87V29.9201H181.55V33.0001H182.59V25.8001Z" fill="#1D1E21"/>
<path d="M184.752 25.6001C184.332 25.6001 184.002 25.9401 184.002 26.3601C184.002 26.7801 184.332 27.1201 184.752 27.1201C185.172 27.1201 185.502 26.7801 185.502 26.3601C185.502 25.9401 185.172 25.6001 184.752 25.6001ZM185.262 27.8401H184.222V33.0001H185.262V27.8401Z" fill="#1D1E21"/>
<path d="M191.529 27.8401H190.489V28.6301C190.089 28.1101 189.499 27.7801 188.809 27.7801C187.599 27.7801 186.589 28.9501 186.589 30.4201C186.589 31.8901 187.599 33.0601 188.809 33.0601C189.499 33.0601 190.089 32.7401 190.489 32.2201V32.8001C190.489 33.7601 189.859 34.4601 188.989 34.4601C188.169 34.4601 187.579 33.9501 187.519 33.4301H186.429C186.499 34.3801 187.449 35.4601 188.959 35.4601C190.449 35.4601 191.529 34.3401 191.529 32.8101V27.8401ZM189.099 32.0301C188.229 32.0301 187.629 31.3201 187.629 30.4201C187.629 29.5201 188.229 28.8201 189.099 28.8201C189.939 28.8201 190.489 29.5201 190.489 30.4201C190.489 31.3201 189.939 32.0301 189.099 32.0301Z" fill="#1D1E21"/>
<path d="M195.63 27.7801C195 27.7801 194.43 28.0701 194.03 28.5901V25.8001H192.98V33.0001H194.03V30.0001C194.03 29.3501 194.55 28.8101 195.2 28.8101C195.84 28.8101 196.36 29.3501 196.36 30.0001V33.0001H197.41V30.0001C197.41 28.5101 196.61 27.7801 195.63 27.7801Z" fill="#1D1E21"/>
<path d="M203.781 32.0801C203.411 32.0801 203.091 31.9301 203.091 31.4801V28.7501H204.421V27.8401H203.091V26.3801H202.051V27.8401H201.211V28.7501H202.051V31.5101C202.051 32.4501 202.701 33.0601 203.581 33.0601C203.941 33.0601 204.251 32.9201 204.431 32.8501V31.8901C204.361 31.9401 204.091 32.0801 203.781 32.0801Z" fill="#1D1E21"/>
<path d="M207.612 33.0601H207.622C209.032 33.0601 210.122 31.8801 210.122 30.4201C210.122 28.9601 209.032 27.7801 207.622 27.7801H207.612C206.192 27.7801 205.102 28.9601 205.102 30.4201C205.102 31.8801 206.192 33.0601 207.612 33.0601ZM207.612 32.0201C206.762 32.0201 206.142 31.3001 206.142 30.4201C206.142 29.5401 206.762 28.8301 207.612 28.8201H207.622C208.462 28.8201 209.072 29.5601 209.072 30.4201C209.072 31.3001 208.462 32.0201 207.622 32.0201H207.612Z" fill="#1D1E21"/>
<path d="M219.971 27.7801C219.261 27.7801 218.671 28.1901 218.331 28.7901L218.301 28.7301C217.981 28.0901 217.401 27.7801 216.741 27.7801C216.161 27.7801 215.631 28.0501 215.281 28.4801V27.8401H214.231V33.0001H215.281V29.9401C215.281 29.3201 215.781 28.8101 216.391 28.8101C217.001 28.8101 217.501 29.3201 217.501 29.9401V33.0001H218.541V29.9401C218.541 29.3201 219.031 28.8101 219.651 28.8101C220.261 28.8101 220.761 29.3201 220.761 29.9401V33.0001H221.801V29.8601C221.801 28.5201 220.941 27.7801 219.971 27.7801Z" fill="#1D1E21"/>
<path d="M225.425 33.0601H225.435C226.845 33.0601 227.935 31.8801 227.935 30.4201C227.935 28.9601 226.845 27.7801 225.435 27.7801H225.425C224.005 27.7801 222.915 28.9601 222.915 30.4201C222.915 31.8801 224.005 33.0601 225.425 33.0601ZM225.425 32.0201C224.575 32.0201 223.955 31.3001 223.955 30.4201C223.955 29.5401 224.575 28.8301 225.425 28.8201H225.435C226.275 28.8201 226.885 29.5601 226.885 30.4201C226.885 31.3001 226.275 32.0201 225.435 32.0201H225.425Z" fill="#1D1E21"/>
<path d="M233.773 25.8001H232.733V28.6301C232.333 28.1101 231.743 27.7801 231.053 27.7801C229.843 27.7801 228.833 28.9501 228.833 30.4201C228.833 31.8901 229.843 33.0601 231.053 33.0601C231.743 33.0601 232.333 32.7401 232.733 32.2201V33.0001H233.773V25.8001ZM231.343 32.0301C230.493 32.0301 229.873 31.3201 229.873 30.4201C229.873 29.5201 230.493 28.8201 231.343 28.8201C232.183 28.8201 232.733 29.5201 232.733 30.4201C232.733 31.3201 232.183 32.0301 231.343 32.0301Z" fill="#1D1E21"/>
<path d="M235.957 30.7401H239.767C239.777 30.6301 239.787 30.5001 239.787 30.3601C239.787 28.9501 238.767 27.7801 237.387 27.7801C235.967 27.7801 234.897 28.9501 234.897 30.4201C234.897 31.9201 235.937 33.0601 237.427 33.0601C239.017 33.0601 239.637 31.7801 239.697 31.3501H238.627C238.547 31.6101 238.147 32.1001 237.427 32.1001C236.547 32.1001 236.057 31.5201 235.957 30.7401ZM237.387 28.7401C238.147 28.7401 238.617 29.2601 238.747 29.9401H235.987C236.137 29.2401 236.627 28.7401 237.387 28.7401Z" fill="#1D1E21"/>
<path d="M243.212 27.7801C242.642 27.7801 242.192 28.0701 241.872 28.5301V27.8401H240.822V33.0001H241.872V30.2301C241.872 29.2401 242.442 28.8001 243.182 28.8001C243.362 28.8001 243.662 28.8301 243.742 28.8401V27.8101C243.642 27.8001 243.452 27.7801 243.212 27.7801Z" fill="#1D1E21"/>
<path d="M247.948 27.8401V28.6601C247.558 28.1201 246.968 27.7801 246.238 27.7801H246.228C245.018 27.7801 244.048 28.9501 244.048 30.4201C244.048 31.9101 245.018 33.0601 246.228 33.0601H246.238C246.968 33.0601 247.548 32.7301 247.938 32.2001C247.938 32.3901 247.938 32.6401 247.938 33.0001H248.988V32.1501V32.1401C248.988 31.3901 248.988 31.0201 248.988 30.2701V28.7001V27.8401H247.948ZM246.558 32.0301H246.548C245.668 32.0301 245.088 31.3501 245.088 30.4201C245.088 29.5001 245.658 28.8101 246.548 28.8101H246.558C247.318 28.8101 247.878 29.4401 247.938 30.2701V30.5901C247.868 31.4101 247.318 32.0301 246.558 32.0301Z" fill="#1D1E21"/>
<path d="M252.521 32.0801C252.151 32.0801 251.831 31.9301 251.831 31.4801V28.7501H253.161V27.8401H251.831V26.3801H250.791V27.8401H249.951V28.7501H250.791V31.5101C250.791 32.4501 251.441 33.0601 252.321 33.0601C252.681 33.0601 252.991 32.9201 253.171 32.8501V31.8901C253.101 31.9401 252.831 32.0801 252.521 32.0801Z" fill="#1D1E21"/>
<path d="M254.903 30.7401H258.713C258.723 30.6301 258.733 30.5001 258.733 30.3601C258.733 28.9501 257.713 27.7801 256.333 27.7801C254.913 27.7801 253.843 28.9501 253.843 30.4201C253.843 31.9201 254.883 33.0601 256.373 33.0601C257.963 33.0601 258.583 31.7801 258.643 31.3501H257.573C257.493 31.6101 257.093 32.1001 256.373 32.1001C255.493 32.1001 255.003 31.5201 254.903 30.7401ZM256.333 28.7401C257.093 28.7401 257.563 29.2601 257.693 29.9401H254.933C255.083 29.2401 255.573 28.7401 256.333 28.7401Z" fill="#1D1E21"/>
<path d="M263.365 25.6001C262.945 25.6001 262.615 25.9401 262.615 26.3601C262.615 26.7801 262.945 27.1201 263.365 27.1201C263.785 27.1201 264.115 26.7801 264.115 26.3601C264.115 25.9401 263.785 25.6001 263.365 25.6001ZM263.875 27.8401H262.835V33.0001H263.875V27.8401Z" fill="#1D1E21"/>
<path d="M271.191 27.7801C270.481 27.7801 269.891 28.1901 269.551 28.7901L269.521 28.7301C269.201 28.0901 268.621 27.7801 267.961 27.7801C267.381 27.7801 266.851 28.0501 266.501 28.4801V27.8401H265.451V33.0001H266.501V29.9401C266.501 29.3201 267.001 28.8101 267.611 28.8101C268.221 28.8101 268.721 29.3201 268.721 29.9401V33.0001H269.761V29.9401C269.761 29.3201 270.251 28.8101 270.871 28.8101C271.481 28.8101 271.981 29.3201 271.981 29.9401V33.0001H273.021V29.8601C273.021 28.5201 272.161 27.7801 271.191 27.7801Z" fill="#1D1E21"/>
<path d="M277.126 27.7801C276.436 27.7801 275.846 28.1001 275.446 28.6201V27.8401H274.406V35.3301H275.446V32.2101C275.846 32.7301 276.436 33.0601 277.126 33.0601C278.336 33.0601 279.346 31.8901 279.346 30.4201C279.346 28.9501 278.336 27.7801 277.126 27.7801ZM276.846 32.0201C275.996 32.0201 275.446 31.3201 275.446 30.4201C275.446 29.5201 275.996 28.8101 276.846 28.8101C277.686 28.8101 278.286 29.5201 278.286 30.4201C278.286 31.3201 277.686 32.0201 276.846 32.0201Z" fill="#1D1E21"/>
<path d="M284.149 27.8401V28.6601C283.759 28.1201 283.169 27.7801 282.439 27.7801H282.429C281.219 27.7801 280.249 28.9501 280.249 30.4201C280.249 31.9101 281.219 33.0601 282.429 33.0601H282.439C283.169 33.0601 283.749 32.7301 284.139 32.2001C284.139 32.3901 284.139 32.6401 284.139 33.0001H285.189V32.1501V32.1401C285.189 31.3901 285.189 31.0201 285.189 30.2701V28.7001V27.8401H284.149ZM282.759 32.0301H282.749C281.869 32.0301 281.289 31.3501 281.289 30.4201C281.289 29.5001 281.859 28.8101 282.749 28.8101H282.759C283.519 28.8101 284.079 29.4401 284.139 30.2701V30.5901C284.069 31.4101 283.519 32.0301 282.759 32.0301Z" fill="#1D1E21"/>
<path d="M290.102 29.6201H291.182C291.112 28.9401 290.382 27.7801 288.902 27.7801C287.482 27.7801 286.372 28.9601 286.372 30.4201C286.372 31.8801 287.482 33.0601 288.902 33.0601C290.282 33.0601 291.102 31.8501 291.162 31.2201H290.102C290.072 31.3501 289.952 31.5901 289.722 31.7801C289.532 31.9301 289.262 32.0501 288.902 32.0501C288.022 32.0501 287.412 31.3001 287.412 30.4201C287.412 29.5401 288.002 28.7901 288.902 28.7901C289.242 28.7901 289.492 28.8901 289.672 29.0301C289.932 29.2301 290.062 29.4801 290.102 29.6201Z" fill="#1D1E21"/>
<path d="M294.308 32.0801C293.938 32.0801 293.618 31.9301 293.618 31.4801V28.7501H294.948V27.8401H293.618V26.3801H292.578V27.8401H291.738V28.7501H292.578V31.5101C292.578 32.4501 293.228 33.0601 294.108 33.0601C294.468 33.0601 294.778 32.9201 294.958 32.8501V31.8901C294.888 31.9401 294.618 32.0801 294.308 32.0801Z" fill="#1D1E21"/>
<path d="M299.508 25.6001C299.088 25.6001 298.758 25.9401 298.758 26.3601C298.758 26.7801 299.088 27.1201 299.508 27.1201C299.928 27.1201 300.258 26.7801 300.258 26.3601C300.258 25.9401 299.928 25.6001 299.508 25.6001ZM300.018 27.8401H298.978V33.0001H300.018V27.8401Z" fill="#1D1E21"/>
<path d="M302.194 31.3001H301.224C301.224 32.1001 301.884 33.0601 303.164 33.0601C304.304 33.0601 305.064 32.3901 305.064 31.4501C305.064 30.7201 304.584 30.1701 303.574 29.9501L302.934 29.8001C302.554 29.7201 302.364 29.5601 302.364 29.2501C302.364 28.9201 302.684 28.6801 303.144 28.6801C303.384 28.6801 303.564 28.7601 303.704 28.8801C303.864 29.0301 303.954 29.2401 303.954 29.4301H304.924C304.924 28.6501 304.244 27.7901 303.154 27.7801C302.074 27.7701 301.334 28.4301 301.334 29.2601C301.334 30.0901 301.864 30.5201 302.624 30.7001L303.214 30.8401C303.774 30.9701 304.034 31.1301 304.034 31.4901C304.034 31.8601 303.694 32.1301 303.164 32.1301C302.894 32.1301 302.654 32.0401 302.484 31.9001C302.294 31.7401 302.194 31.5201 302.194 31.3001Z" fill="#1D1E21"/>
<path d="M306.745 31.3001H305.775C305.775 32.1001 306.435 33.0601 307.715 33.0601C308.855 33.0601 309.615 32.3901 309.615 31.4501C309.615 30.7201 309.135 30.1701 308.125 29.9501L307.485 29.8001C307.105 29.7201 306.915 29.5601 306.915 29.2501C306.915 28.9201 307.235 28.6801 307.695 28.6801C307.935 28.6801 308.115 28.7601 308.255 28.8801C308.415 29.0301 308.505 29.2401 308.505 29.4301H309.475C309.475 28.6501 308.795 27.7901 307.705 27.7801C306.625 27.7701 305.885 28.4301 305.885 29.2601C305.885 30.0901 306.415 30.5201 307.175 30.7001L307.765 30.8401C308.325 30.9701 308.585 31.1301 308.585 31.4901C308.585 31.8601 308.245 32.1301 307.715 32.1301C307.445 32.1301 307.205 32.0401 307.035 31.9001C306.845 31.7401 306.745 31.5201 306.745 31.3001Z" fill="#1D1E21"/>
<path d="M315.035 27.8401H313.995V30.8401C313.995 31.4901 313.475 32.0301 312.815 32.0301C312.175 32.0301 311.655 31.4901 311.655 30.8401V27.8401H310.605V30.8401C310.605 32.3201 311.415 33.0601 312.385 33.0601C313.015 33.0601 313.595 32.7701 313.995 32.2501V33.0001H315.035V27.8401Z" fill="#1D1E21"/>
<path d="M317.285 30.7401H321.095C321.105 30.6301 321.115 30.5001 321.115 30.3601C321.115 28.9501 320.095 27.7801 318.715 27.7801C317.295 27.7801 316.225 28.9501 316.225 30.4201C316.225 31.9201 317.265 33.0601 318.755 33.0601C320.345 33.0601 320.965 31.7801 321.025 31.3501H319.955C319.875 31.6101 319.475 32.1001 318.755 32.1001C317.875 32.1001 317.385 31.5201 317.285 30.7401ZM318.715 28.7401C319.475 28.7401 319.945 29.2601 320.075 29.9401H317.315C317.465 29.2401 317.955 28.7401 318.715 28.7401Z" fill="#1D1E21"/>
<path d="M322.858 31.3001H321.888C321.888 32.1001 322.548 33.0601 323.828 33.0601C324.968 33.0601 325.728 32.3901 325.728 31.4501C325.728 30.7201 325.248 30.1701 324.238 29.9501L323.598 29.8001C323.218 29.7201 323.028 29.5601 323.028 29.2501C323.028 28.9201 323.348 28.6801 323.808 28.6801C324.048 28.6801 324.228 28.7601 324.368 28.8801C324.528 29.0301 324.618 29.2401 324.618 29.4301H325.588C325.588 28.6501 324.908 27.7901 323.818 27.7801C322.738 27.7701 321.998 28.4301 321.998 29.2601C321.998 30.0901 322.528 30.5201 323.288 30.7001L323.878 30.8401C324.438 30.9701 324.698 31.1301 324.698 31.4901C324.698 31.8601 324.358 32.1301 323.828 32.1301C323.558 32.1301 323.318 32.0401 323.148 31.9001C322.958 31.7401 322.858 31.5201 322.858 31.3001Z" fill="#1D1E21"/>
<path fill-rule="evenodd" clip-rule="evenodd" d="M164.997 35.8676L127.497 57.3676L126.502 55.6326L164.002 34.1326L164.997 35.8676Z" fill="#1D1E21"/>
<path d="M128 59C128 61.7614 125.761 64 123 64C120.239 64 118 61.7614 118 59C118 56.2386 120.239 54 123 54C125.761 54 128 56.2386 128 59Z" fill="white"/>
<path fill-rule="evenodd" clip-rule="evenodd" d="M123 62C124.657 62 126 60.6569 126 59C126 57.3431 124.657 56 123 56C121.343 56 120 57.3431 120 59C120 60.6569 121.343 62 123 62ZM123 64C125.761 64 128 61.7614 128 59C128 56.2386 125.761 54 123 54C120.239 54 118 56.2386 118 59C118 61.7614 120.239 64 123 64Z" fill="#1D1E21"/>
<path d="M4.5901 122.161C6.0401 122.161 7.0601 121.021 7.0601 119.631C7.0601 118.221 6.1201 117.301 4.9601 117.301C3.8801 117.301 3.2401 117.931 2.8701 119.321L2.6901 120.011C2.5001 120.691 2.2101 120.881 1.7401 120.881C1.2501 120.881 0.750098 120.431 0.750098 119.691C0.750098 119.341 0.890097 119.041 1.0901 118.841C1.3201 118.631 1.6301 118.511 1.9501 118.511L1.9501 117.471C0.860097 117.471 -0.259903 118.251 -0.259903 119.661C-0.259903 120.931 0.620098 121.951 1.7401 121.951C2.7701 121.951 3.4101 121.321 3.6901 120.211L3.8701 119.501C4.0701 118.741 4.4101 118.371 4.9701 118.371C5.5101 118.371 6.0401 118.791 6.0401 119.641C6.0401 120.011 5.9201 120.341 5.7101 120.581C5.4301 120.901 5.0201 121.091 4.5901 121.091L4.5901 122.161Z" fill="#333333" fill-opacity="0.5"/>
<path d="M4.7401 115.427L4.7401 111.617C4.6301 111.607 4.5001 111.597 4.3601 111.597C2.9501 111.597 1.7801 112.617 1.7801 113.997C1.7801 115.417 2.9501 116.487 4.4201 116.487C5.9201 116.487 7.0601 115.447 7.0601 113.957C7.0601 112.367 5.7801 111.747 5.3501 111.687L5.3501 112.757C5.6101 112.837 6.1001 113.237 6.1001 113.957C6.1001 114.837 5.5201 115.327 4.7401 115.427ZM2.7401 113.997C2.7401 113.237 3.2601 112.767 3.9401 112.637L3.9401 115.397C3.2401 115.247 2.7401 114.757 2.7401 113.997Z" fill="#333333" fill-opacity="0.5"/>
<path d="M1.8401 106.081L1.8401 107.201L5.6301 108.671L1.8401 110.151L1.8401 111.271L7.0001 109.211L7.0001 108.141L1.8401 106.081Z" fill="#333333" fill-opacity="0.5"/>
<path d="M4.7401 104.636L4.7401 100.826C4.6301 100.816 4.5001 100.806 4.3601 100.806C2.9501 100.806 1.7801 101.826 1.7801 103.206C1.7801 104.626 2.9501 105.696 4.4201 105.696C5.9201 105.696 7.0601 104.656 7.0601 103.166C7.0601 101.576 5.7801 100.956 5.3501 100.896L5.3501 101.966C5.6101 102.046 6.1001 102.446 6.1001 103.166C6.1001 104.046 5.5201 104.536 4.7401 104.636ZM2.7401 103.206C2.7401 102.446 3.2601 101.976 3.9401 101.846L3.9401 104.606C3.2401 104.456 2.7401 103.966 2.7401 103.206Z" fill="#333333" fill-opacity="0.5"/>
<path d="M1.7801 97.3806C1.7801 97.9506 2.0701 98.4006 2.5301 98.7206L1.8401 98.7206L1.8401 99.7706L7.0001 99.7706L7.0001 98.7206L4.2301 98.7206C3.2401 98.7206 2.8001 98.1506 2.8001 97.4106C2.8001 97.2306 2.8301 96.9306 2.8401 96.8506L1.8101 96.8506C1.8001 96.9506 1.7801 97.1406 1.7801 97.3806Z" fill="#333333" fill-opacity="0.5"/>
<path d="M-0.399904 95.3722C-0.399903 95.7922 -0.0599037 96.1222 0.360096 96.1222C0.780096 96.1222 1.1201 95.7922 1.1201 95.3722C1.1201 94.9522 0.780096 94.6222 0.360096 94.6222C-0.0599038 94.6222 -0.399904 94.9522 -0.399904 95.3722ZM1.8401 94.8622L1.8401 95.9022L7.0001 95.9022L7.0001 94.8622L1.8401 94.8622Z" fill="#333333" fill-opacity="0.5"/>
<path d="M6.0801 91.246C6.0801 91.616 5.9301 91.936 5.4801 91.936L2.7501 91.936L2.7501 90.606L1.8401 90.606L1.8401 91.936L0.380096 91.936L0.380096 92.976L1.8401 92.976L1.8401 93.816L2.7501 93.816L2.7501 92.976L5.5101 92.976C6.4501 92.976 7.0601 92.326 7.0601 91.446C7.0601 91.086 6.9201 90.776 6.8501 90.596L5.8901 90.596C5.9401 90.666 6.0801 90.936 6.0801 91.246Z" fill="#333333" fill-opacity="0.5"/>
<path d="M1.8401 85.2157L1.8401 86.2657L4.8401 86.2657C5.4801 86.2657 6.0301 86.7857 6.0301 87.4357C6.0301 88.0957 5.4901 88.6057 4.8401 88.6057L1.8401 88.6057L1.8401 89.6457L4.9601 89.6457C6.1301 89.6457 7.0601 88.9557 7.0601 87.8657C7.0601 87.2257 6.7601 86.6657 6.2501 86.2657L6.8301 86.2657C7.7601 86.2657 8.4601 86.7657 8.4601 87.6357C8.4601 88.4257 7.9401 88.9157 7.4301 88.9757L7.4301 90.0657C8.3301 90.0057 9.4601 89.1557 9.4601 87.6557C9.4601 86.2157 8.3501 85.2157 6.8401 85.2157L1.8401 85.2157Z" fill="#333333" fill-opacity="0.5"/>
<path d="M5.3001 80.2741L5.3001 81.2441C6.1001 81.2441 7.0601 80.5841 7.0601 79.3041C7.0601 78.1641 6.3901 77.4041 5.4501 77.4041C4.7201 77.4041 4.1701 77.8841 3.9501 78.8941L3.8001 79.5341C3.7201 79.9141 3.5601 80.1041 3.2501 80.1041C2.9201 80.1041 2.6801 79.7841 2.6801 79.3241C2.6801 79.0841 2.7601 78.9041 2.8801 78.7641C3.0301 78.6041 3.2401 78.5141 3.4301 78.5141L3.4301 77.5441C2.6501 77.5441 1.7901 78.2241 1.7801 79.3141C1.7701 80.3941 2.4301 81.1341 3.2601 81.1341C4.0901 81.1341 4.5201 80.6041 4.7001 79.8441L4.8401 79.2541C4.9701 78.6941 5.1301 78.4341 5.4901 78.4341C5.8601 78.4341 6.1301 78.7741 6.1301 79.3041C6.1301 79.5741 6.0401 79.8141 5.9001 79.9841C5.7401 80.1741 5.5201 80.2741 5.3001 80.2741Z" fill="#333333" fill-opacity="0.5"/>
<path d="M3.6201 72.8933L3.6201 71.8133C2.9401 71.8833 1.7801 72.6133 1.7801 74.0933C1.7801 75.5133 2.9601 76.6233 4.4201 76.6233C5.8801 76.6233 7.0601 75.5133 7.0601 74.0933C7.0601 72.7133 5.8501 71.8933 5.2201 71.8333L5.2201 72.8933C5.3501 72.9233 5.5901 73.0433 5.7801 73.2733C5.9301 73.4633 6.0501 73.7333 6.0501 74.0933C6.0501 74.9733 5.3001 75.5833 4.4201 75.5833C3.5401 75.5833 2.7901 74.9933 2.7901 74.0933C2.7901 73.7533 2.8901 73.5033 3.0301 73.3233C3.2301 73.0633 3.4801 72.9333 3.6201 72.8933Z" fill="#333333" fill-opacity="0.5"/>
<path d="M7.0601 68.5274L7.0601 68.5174C7.0601 67.1074 5.8801 66.0174 4.4201 66.0174C2.9601 66.0174 1.7801 67.1074 1.7801 68.5174L1.7801 68.5274C1.7801 69.9474 2.9601 71.0374 4.4201 71.0374C5.8801 71.0374 7.0601 69.9474 7.0601 68.5274ZM6.02009 68.5274C6.02009 69.3774 5.3001 69.9974 4.4201 69.9974C3.5401 69.9974 2.8301 69.3774 2.8201 68.5274L2.8201 68.5174C2.8201 67.6774 3.5601 67.0674 4.4201 67.0674C5.3001 67.0674 6.02009 67.6774 6.02009 68.5174L6.02009 68.5274Z" fill="#333333" fill-opacity="0.5"/>
<path d="M1.78009 62.5368C1.78009 63.1068 2.07009 63.5568 2.53009 63.8768L1.84009 63.8768L1.84009 64.9268L7.0001 64.9268L7.0001 63.8768L4.2301 63.8768C3.2401 63.8768 2.80009 63.3068 2.80009 62.5668C2.80009 62.3868 2.8301 62.0868 2.8401 62.0068L1.81009 62.0068C1.80009 62.1068 1.78009 62.2968 1.78009 62.5368Z" fill="#333333" fill-opacity="0.5"/>
<path d="M4.74009 60.6414L4.74009 56.8314C4.63009 56.8214 4.5001 56.8114 4.3601 56.8114C2.95009 56.8114 1.78009 57.8314 1.78009 59.2114C1.78009 60.6314 2.9501 61.7014 4.4201 61.7014C5.9201 61.7014 7.0601 60.6614 7.0601 59.1714C7.0601 57.5814 5.7801 56.9614 5.3501 56.9014L5.3501 57.9714C5.6101 58.0514 6.1001 58.4514 6.1001 59.1714C6.1001 60.0514 5.52009 60.5414 4.74009 60.6414ZM2.74009 59.2114C2.74009 58.4514 3.26009 57.9814 3.94009 57.8514L3.94009 60.6114C3.24009 60.4614 2.74009 59.9714 2.74009 59.2114Z" fill="#333333" fill-opacity="0.5"/>
</g>
<defs>
<clipPath id="clip0">
<rect width="660" height="219" fill="white"/>
</clipPath>
</defs>
</svg>
